<?xml version="1.0" encoding="utf-8" standalone="no"?>
<!DOCTYPE svg PUBLIC "-//W3C//DTD SVG 1.1//EN"
  "http://www.w3.org/Graphics/SVG/1.1/DTD/svg11.dtd">
<svg height="481.68pt" version="1.1" viewBox="0 0 699.84 481.68" width="699.84pt" xmlns="http://www.w3.org/2000/svg" xmlns:xlink="http://www.w3.org/1999/xlink">
 <metadata>
  <rdf:RDF xmlns:cc="http://creativecommons.org/ns#" xmlns:dc="http://purl.org/dc/elements/1.1/" xmlns:rdf="http://www.w3.org/1999/02/22-rdf-syntax-ns#">
   <cc:Work>
    <dc:type rdf:resource="http://purl.org/dc/dcmitype/StillImage"/>
    <dc:date>2021-05-06T17:31:40.797245</dc:date>
    <dc:format>image/svg+xml</dc:format>
    <dc:creator>
     <cc:Agent>
      <dc:title>Matplotlib v3.4.1, https://matplotlib.org/</dc:title>
     </cc:Agent>
    </dc:creator>
   </cc:Work>
  </rdf:RDF>
 </metadata>
 <defs>
  <style type="text/css">*{stroke-linecap:butt;stroke-linejoin:round;}</style>
 </defs>
 <g id="figure_1">
  <g id="patch_1">
   <path d="M 0 481.68 
L 699.84 481.68 
L 699.84 0 
L 0 0 
z
" style="fill:#ffffff;"/>
  </g>
  <g id="axes_1">
   <g id="patch_2">
    <path d="M 87.48 428.6952 
L 629.856 428.6952 
L 629.856 57.8016 
L 87.48 57.8016 
z
" style="fill:#ffffff;"/>
   </g>
   <g id="PathCollection_1">
    <defs>
     <path d="M 0 3 
C 0.795609 3 1.55874 2.683901 2.12132 2.12132 
C 2.683901 1.55874 3 0.795609 3 0 
C 3 -0.795609 2.683901 -1.55874 2.12132 -2.12132 
C 1.55874 -2.683901 0.795609 -3 0 -3 
C -0.795609 -3 -1.55874 -2.683901 -2.12132 -2.12132 
C -2.683901 -1.55874 -3 -0.795609 -3 0 
C -3 0.795609 -2.683901 1.55874 -2.12132 2.12132 
C -1.55874 2.683901 -0.795609 3 0 3 
z
" id="mafca706ed4" style="stroke:#ff0000;"/>
    </defs>
    <g clip-path="url(#pa4d5079954)">
     <use style="fill:#ff0000;stroke:#ff0000;" x="407.094089" xlink:href="#mafca706ed4" y="68.371295"/>
    </g>
   </g>
   <g id="matplotlib.axis_1">
    <g id="xtick_1">
     <g id="line2d_1">
      <defs>
       <path d="M 0 0 
L 0 3.5 
" id="me34c934b4d" style="stroke:#000000;stroke-width:0.8;"/>
      </defs>
      <g>
       <use style="stroke:#000000;stroke-width:0.8;" x="148.860965" xlink:href="#me34c934b4d" y="428.6952"/>
      </g>
     </g>
     <g id="text_1">
      <!-- −20 -->
      <g transform="translate(134.087684 446.333012)scale(0.14 -0.14)">
       <defs>
        <path d="M 678 2272 
L 4684 2272 
L 4684 1741 
L 678 1741 
L 678 2272 
z
" id="DejaVuSans-2212" transform="scale(0.015625)"/>
        <path d="M 1228 531 
L 3431 531 
L 3431 0 
L 469 0 
L 469 531 
Q 828 903 1448 1529 
Q 2069 2156 2228 2338 
Q 2531 2678 2651 2914 
Q 2772 3150 2772 3378 
Q 2772 3750 2511 3984 
Q 2250 4219 1831 4219 
Q 1534 4219 1204 4116 
Q 875 4013 500 3803 
L 500 4441 
Q 881 4594 1212 4672 
Q 1544 4750 1819 4750 
Q 2544 4750 2975 4387 
Q 3406 4025 3406 3419 
Q 3406 3131 3298 2873 
Q 3191 2616 2906 2266 
Q 2828 2175 2409 1742 
Q 1991 1309 1228 531 
z
" id="DejaVuSans-32" transform="scale(0.015625)"/>
        <path d="M 2034 4250 
Q 1547 4250 1301 3770 
Q 1056 3291 1056 2328 
Q 1056 1369 1301 889 
Q 1547 409 2034 409 
Q 2525 409 2770 889 
Q 3016 1369 3016 2328 
Q 3016 3291 2770 3770 
Q 2525 4250 2034 4250 
z
M 2034 4750 
Q 2819 4750 3233 4129 
Q 3647 3509 3647 2328 
Q 3647 1150 3233 529 
Q 2819 -91 2034 -91 
Q 1250 -91 836 529 
Q 422 1150 422 2328 
Q 422 3509 836 4129 
Q 1250 4750 2034 4750 
z
" id="DejaVuSans-30" transform="scale(0.015625)"/>
       </defs>
       <use xlink:href="#DejaVuSans-2212"/>
       <use x="83.789062" xlink:href="#DejaVuSans-32"/>
       <use x="147.412109" xlink:href="#DejaVuSans-30"/>
      </g>
     </g>
    </g>
    <g id="xtick_2">
     <g id="line2d_2">
      <g>
       <use style="stroke:#000000;stroke-width:0.8;" x="213.419246" xlink:href="#me34c934b4d" y="428.6952"/>
      </g>
     </g>
     <g id="text_2">
      <!-- −15 -->
      <g transform="translate(198.645965 446.333012)scale(0.14 -0.14)">
       <defs>
        <path d="M 794 531 
L 1825 531 
L 1825 4091 
L 703 3866 
L 703 4441 
L 1819 4666 
L 2450 4666 
L 2450 531 
L 3481 531 
L 3481 0 
L 794 0 
L 794 531 
z
" id="DejaVuSans-31" transform="scale(0.015625)"/>
        <path d="M 691 4666 
L 3169 4666 
L 3169 4134 
L 1269 4134 
L 1269 2991 
Q 1406 3038 1543 3061 
Q 1681 3084 1819 3084 
Q 2600 3084 3056 2656 
Q 3513 2228 3513 1497 
Q 3513 744 3044 326 
Q 2575 -91 1722 -91 
Q 1428 -91 1123 -41 
Q 819 9 494 109 
L 494 744 
Q 775 591 1075 516 
Q 1375 441 1709 441 
Q 2250 441 2565 725 
Q 2881 1009 2881 1497 
Q 2881 1984 2565 2268 
Q 2250 2553 1709 2553 
Q 1456 2553 1204 2497 
Q 953 2441 691 2322 
L 691 4666 
z
" id="DejaVuSans-35" transform="scale(0.015625)"/>
       </defs>
       <use xlink:href="#DejaVuSans-2212"/>
       <use x="83.789062" xlink:href="#DejaVuSans-31"/>
       <use x="147.412109" xlink:href="#DejaVuSans-35"/>
      </g>
     </g>
    </g>
    <g id="xtick_3">
     <g id="line2d_3">
      <g>
       <use style="stroke:#000000;stroke-width:0.8;" x="277.977527" xlink:href="#me34c934b4d" y="428.6952"/>
      </g>
     </g>
     <g id="text_3">
      <!-- −10 -->
      <g transform="translate(263.204246 446.333012)scale(0.14 -0.14)">
       <use xlink:href="#DejaVuSans-2212"/>
       <use x="83.789062" xlink:href="#DejaVuSans-31"/>
       <use x="147.412109" xlink:href="#DejaVuSans-30"/>
      </g>
     </g>
    </g>
    <g id="xtick_4">
     <g id="line2d_4">
      <g>
       <use style="stroke:#000000;stroke-width:0.8;" x="342.535808" xlink:href="#me34c934b4d" y="428.6952"/>
      </g>
     </g>
     <g id="text_4">
      <!-- −5 -->
      <g transform="translate(332.216277 446.333012)scale(0.14 -0.14)">
       <use xlink:href="#DejaVuSans-2212"/>
       <use x="83.789062" xlink:href="#DejaVuSans-35"/>
      </g>
     </g>
    </g>
    <g id="xtick_5">
     <g id="line2d_5">
      <g>
       <use style="stroke:#000000;stroke-width:0.8;" x="407.094089" xlink:href="#me34c934b4d" y="428.6952"/>
      </g>
     </g>
     <g id="text_5">
      <!-- 0 -->
      <g transform="translate(402.640339 446.333012)scale(0.14 -0.14)">
       <use xlink:href="#DejaVuSans-30"/>
      </g>
     </g>
    </g>
    <g id="xtick_6">
     <g id="line2d_6">
      <g>
       <use style="stroke:#000000;stroke-width:0.8;" x="471.65237" xlink:href="#me34c934b4d" y="428.6952"/>
      </g>
     </g>
     <g id="text_6">
      <!-- 5 -->
      <g transform="translate(467.19862 446.333012)scale(0.14 -0.14)">
       <use xlink:href="#DejaVuSans-35"/>
      </g>
     </g>
    </g>
    <g id="xtick_7">
     <g id="line2d_7">
      <g>
       <use style="stroke:#000000;stroke-width:0.8;" x="536.210651" xlink:href="#me34c934b4d" y="428.6952"/>
      </g>
     </g>
     <g id="text_7">
      <!-- 10 -->
      <g transform="translate(527.303151 446.333012)scale(0.14 -0.14)">
       <use xlink:href="#DejaVuSans-31"/>
       <use x="63.623047" xlink:href="#DejaVuSans-30"/>
      </g>
     </g>
    </g>
    <g id="xtick_8">
     <g id="line2d_8">
      <g>
       <use style="stroke:#000000;stroke-width:0.8;" x="600.768932" xlink:href="#me34c934b4d" y="428.6952"/>
      </g>
     </g>
     <g id="text_8">
      <!-- 15 -->
      <g transform="translate(591.861432 446.333012)scale(0.14 -0.14)">
       <use xlink:href="#DejaVuSans-31"/>
       <use x="63.623047" xlink:href="#DejaVuSans-35"/>
      </g>
     </g>
    </g>
    <g id="text_9">
     <!-- Y (mm) -->
     <g transform="translate(333.068781 463.882387)scale(0.14 -0.14)">
      <defs>
       <path d="M -13 4666 
L 666 4666 
L 1959 2747 
L 3244 4666 
L 3922 4666 
L 2272 2222 
L 2272 0 
L 1638 0 
L 1638 2222 
L -13 4666 
z
" id="DejaVuSans-59" transform="scale(0.015625)"/>
       <path id="DejaVuSans-20" transform="scale(0.015625)"/>
       <path d="M 1984 4856 
Q 1566 4138 1362 3434 
Q 1159 2731 1159 2009 
Q 1159 1288 1364 580 
Q 1569 -128 1984 -844 
L 1484 -844 
Q 1016 -109 783 600 
Q 550 1309 550 2009 
Q 550 2706 781 3412 
Q 1013 4119 1484 4856 
L 1984 4856 
z
" id="DejaVuSans-28" transform="scale(0.015625)"/>
       <path d="M 3328 2828 
Q 3544 3216 3844 3400 
Q 4144 3584 4550 3584 
Q 5097 3584 5394 3201 
Q 5691 2819 5691 2113 
L 5691 0 
L 5113 0 
L 5113 2094 
Q 5113 2597 4934 2840 
Q 4756 3084 4391 3084 
Q 3944 3084 3684 2787 
Q 3425 2491 3425 1978 
L 3425 0 
L 2847 0 
L 2847 2094 
Q 2847 2600 2669 2842 
Q 2491 3084 2119 3084 
Q 1678 3084 1418 2786 
Q 1159 2488 1159 1978 
L 1159 0 
L 581 0 
L 581 3500 
L 1159 3500 
L 1159 2956 
Q 1356 3278 1631 3431 
Q 1906 3584 2284 3584 
Q 2666 3584 2933 3390 
Q 3200 3197 3328 2828 
z
" id="DejaVuSans-6d" transform="scale(0.015625)"/>
       <path d="M 513 4856 
L 1013 4856 
Q 1481 4119 1714 3412 
Q 1947 2706 1947 2009 
Q 1947 1309 1714 600 
Q 1481 -109 1013 -844 
L 513 -844 
Q 928 -128 1133 580 
Q 1338 1288 1338 2009 
Q 1338 2731 1133 3434 
Q 928 4138 513 4856 
z
" id="DejaVuSans-29" transform="scale(0.015625)"/>
      </defs>
      <use xlink:href="#DejaVuSans-59"/>
      <use x="61.083984" xlink:href="#DejaVuSans-20"/>
      <use x="92.871094" xlink:href="#DejaVuSans-28"/>
      <use x="131.884766" xlink:href="#DejaVuSans-6d"/>
      <use x="229.296875" xlink:href="#DejaVuSans-6d"/>
      <use x="326.708984" xlink:href="#DejaVuSans-29"/>
     </g>
    </g>
   </g>
   <g id="matplotlib.axis_2">
    <g id="ytick_1">
     <g id="line2d_9">
      <defs>
       <path d="M 0 0 
L -3.5 0 
" id="m74481b06fe" style="stroke:#000000;stroke-width:0.8;"/>
      </defs>
      <g>
       <use style="stroke:#000000;stroke-width:0.8;" x="87.48" xlink:href="#m74481b06fe" y="391.012516"/>
      </g>
     </g>
     <g id="text_10">
      <!-- −25 -->
      <g transform="translate(50.933437 396.331422)scale(0.14 -0.14)">
       <use xlink:href="#DejaVuSans-2212"/>
       <use x="83.789062" xlink:href="#DejaVuSans-32"/>
       <use x="147.412109" xlink:href="#DejaVuSans-35"/>
      </g>
     </g>
    </g>
    <g id="ytick_2">
     <g id="line2d_10">
      <g>
       <use style="stroke:#000000;stroke-width:0.8;" x="87.48" xlink:href="#m74481b06fe" y="326.484272"/>
      </g>
     </g>
     <g id="text_11">
      <!-- −20 -->
      <g transform="translate(50.933437 331.803178)scale(0.14 -0.14)">
       <use xlink:href="#DejaVuSans-2212"/>
       <use x="83.789062" xlink:href="#DejaVuSans-32"/>
       <use x="147.412109" xlink:href="#DejaVuSans-30"/>
      </g>
     </g>
    </g>
    <g id="ytick_3">
     <g id="line2d_11">
      <g>
       <use style="stroke:#000000;stroke-width:0.8;" x="87.48" xlink:href="#m74481b06fe" y="261.956028"/>
      </g>
     </g>
     <g id="text_12">
      <!-- −15 -->
      <g transform="translate(50.933437 267.274934)scale(0.14 -0.14)">
       <use xlink:href="#DejaVuSans-2212"/>
       <use x="83.789062" xlink:href="#DejaVuSans-31"/>
       <use x="147.412109" xlink:href="#DejaVuSans-35"/>
      </g>
     </g>
    </g>
    <g id="ytick_4">
     <g id="line2d_12">
      <g>
       <use style="stroke:#000000;stroke-width:0.8;" x="87.48" xlink:href="#m74481b06fe" y="197.427783"/>
      </g>
     </g>
     <g id="text_13">
      <!-- −10 -->
      <g transform="translate(50.933437 202.74669)scale(0.14 -0.14)">
       <use xlink:href="#DejaVuSans-2212"/>
       <use x="83.789062" xlink:href="#DejaVuSans-31"/>
       <use x="147.412109" xlink:href="#DejaVuSans-30"/>
      </g>
     </g>
    </g>
    <g id="ytick_5">
     <g id="line2d_13">
      <g>
       <use style="stroke:#000000;stroke-width:0.8;" x="87.48" xlink:href="#m74481b06fe" y="132.899539"/>
      </g>
     </g>
     <g id="text_14">
      <!-- −5 -->
      <g transform="translate(59.840938 138.218445)scale(0.14 -0.14)">
       <use xlink:href="#DejaVuSans-2212"/>
       <use x="83.789062" xlink:href="#DejaVuSans-35"/>
      </g>
     </g>
    </g>
    <g id="ytick_6">
     <g id="line2d_14">
      <g>
       <use style="stroke:#000000;stroke-width:0.8;" x="87.48" xlink:href="#m74481b06fe" y="68.371295"/>
      </g>
     </g>
     <g id="text_15">
      <!-- 0 -->
      <g transform="translate(71.5725 73.690201)scale(0.14 -0.14)">
       <use xlink:href="#DejaVuSans-30"/>
      </g>
     </g>
    </g>
    <g id="text_16">
     <!-- Z (mm) -->
     <g transform="translate(44.021875 269.36715)rotate(-90)scale(0.14 -0.14)">
      <defs>
       <path d="M 359 4666 
L 4025 4666 
L 4025 4184 
L 1075 531 
L 4097 531 
L 4097 0 
L 288 0 
L 288 481 
L 3238 4134 
L 359 4134 
L 359 4666 
z
" id="DejaVuSans-5a" transform="scale(0.015625)"/>
      </defs>
      <use xlink:href="#DejaVuSans-5a"/>
      <use x="68.505859" xlink:href="#DejaVuSans-20"/>
      <use x="100.292969" xlink:href="#DejaVuSans-28"/>
      <use x="139.306641" xlink:href="#DejaVuSans-6d"/>
      <use x="236.71875" xlink:href="#DejaVuSans-6d"/>
      <use x="334.130859" xlink:href="#DejaVuSans-29"/>
     </g>
    </g>
   </g>
   <g id="line2d_15">
    <path clip-path="url(#pa4d5079954)" d="M 407.094089 68.371295 
L 408.090639 76.1041 
L 409.799766 90.640454 
L 411.533658 107.776712 
L 413.050433 125.448544 
L 413.987872 138.402411 
L 415.841529 164.463904 
L 416.045311 168.175757 
L 416.365802 180.516044 
L 416.375034 188.725802 
L 416.152736 197.904417 
L 415.503088 211.746018 
L 414.909308 220.534241 
L 414.076953 228.832284 
L 412.570406 241.081681 
L 410.554981 257.655025 
L 409.594204 267.516844 
L 408.972058 276.124514 
L 408.462266 282.798394 
L 406.997952 300.6408 
L 406.473697 310.07979 
L 406.417664 315.082414 
L 406.215404 322.898226 
L 405.761473 331.261176 
L 405.17215 338.087624 
L 404.02436 345.898632 
L 402.964304 354.993723 
L 402.315748 357.533349 
L 398.641074 369.937266 
L 397.384613 374.624904 
L 391.87256 391.618865 
L 390.541038 395.259568 
L 388.970495 399.722575 
L 387.308432 403.866345 
L 382.713756 413.580355 
L 381.506436 415.147989 
L 380.251233 416.434825 
L 378.953778 417.432033 
L 377.547256 418.205764 
L 376.078225 418.733835 
L 374.593458 418.997008 
L 373.12975 418.987687 
L 371.713819 418.70905 
L 370.362737 418.173517 
L 369.083253 417.398743 
L 367.813974 416.345643 
L 366.538255 415.030585 
L 364.849402 412.962915 
L 362.290897 409.352894 
L 355.539191 399.555764 
L 352.265167 395.233353 
L 348.879849 390.825376 
L 346.251724 386.939116 
L 342.705257 381.259408 
L 330.217685 360.41418 
L 325.910841 352.751052 
L 322.754227 346.720604 
L 320.616732 342.335818 
L 319.085614 338.662678 
L 317.257532 333.674201 
L 312.273455 319.789467 
L 308.677397 309.689937 
L 304.532323 297.048499 
L 301.852273 288.151664 
L 300.9412 284.941532 
L 306.132473 267.688101 
L 310.6603 254.028699 
L 314.132328 244.276666 
L 318.23314 233.508519 
L 321.927843 224.503605 
L 326.188122 214.597252 
L 332.910793 199.775099 
L 340.914989 182.885414 
L 350.302275 163.650286 
L 370.293819 123.442671 
L 387.371278 88.977362 
L 394.78738 73.787275 
L 398.065212 68.105152 
L 401.173982 67.47257 
L 404.783998 69.026444 
L 406.647492 68.35682 
L 407.518534 68.356096 
L 406.30282 68.419885 
L 405.177763 68.625105 
L 404.785057 68.986673 
L 405.52899 68.477713 
L 406.171812 68.377704 
L 407.627517 68.549169 
L 408.215664 68.788621 
L 408.765276 69.29277 
L 409.330053 70.172739 
L 409.892798 71.472567 
L 410.593141 73.723646 
L 411.629474 78.05875 
L 411.963015 79.546729 
L 411.963015 79.546729 
" style="fill:none;stroke:#1f77b4;stroke-linecap:square;stroke-width:1.5;"/>
   </g>
   <g id="line2d_16">
    <path clip-path="url(#pa4d5079954)" d="M 407.094089 68.371295 
L 407.439814 70.959006 
L 407.806443 74.749476 
L 408.044754 79.485275 
L 408.062004 83.419193 
L 407.993163 90.222822 
L 408.318634 107.274326 
L 408.80789 124.858397 
L 409.338384 141.898379 
L 409.294576 153.232615 
L 409.094953 179.488377 
L 409.348878 186.126444 
L 409.433028 190.272558 
L 409.307191 195.552977 
L 408.975673 200.515476 
L 408.448759 205.002983 
L 407.687729 211.139443 
L 406.902707 216.252103 
L 406.41368 218.444159 
L 405.770074 220.281176 
L 402.27823 228.61039 
L 401.232668 230.875045 
L 399.948702 232.879939 
L 398.605089 234.553217 
L 397.418231 235.686727 
L 396.208498 236.526259 
L 394.984768 237.06977 
L 393.960805 237.302585 
L 392.734525 237.33312 
L 391.279692 237.088646 
L 389.512808 236.591787 
L 387.73129 235.876553 
L 385.765051 234.83657 
L 383.846223 233.560588 
L 381.921097 231.991175 
L 380.05748 230.1996 
L 378.122294 228.017083 
L 376.376016 225.678986 
L 374.83204 223.226756 
L 373.859939 221.330306 
L 373.277001 219.643583 
L 372.503524 216.802061 
L 372.388707 215.940496 
L 373.692152 212.007593 
L 375.799361 206.426735 
L 378.801761 199.032337 
L 383.833142 187.346179 
L 401.92858 146.046211 
L 407.198575 134.206462 
L 407.750643 131.213575 
L 407.671348 127.84312 
L 407.089209 124.193448 
L 406.868298 120.807383 
L 407.101143 113.447646 
L 407.078167 68.006566 
L 406.360704 68.152785 
L 407.131247 68.344149 
L 407.06463 68.350511 
" style="fill:none;stroke:#ff7f0e;stroke-linecap:square;stroke-width:1.5;"/>
   </g>
   <g id="line2d_17">
    <path clip-path="url(#pa4d5079954)" d="M 407.094089 68.371295 
L 407.712006 73.287522 
L 408.910091 82.833548 
L 411.116519 103.359516 
L 412.903439 123.226858 
L 414.892331 150.818029 
L 415.866459 164.478313 
L 416.034121 166.354404 
L 416.376088 185.507302 
L 416.092507 200.804386 
L 415.471323 211.859772 
L 414.506585 223.111599 
L 413.030914 236.574984 
L 410.790765 256.798546 
L 409.291378 271.498821 
L 407.917136 283.471073 
L 407.143045 292.087808 
L 406.61882 300.189913 
L 406.238128 309.349653 
L 406.086557 317.185341 
L 405.8828 324.908907 
L 405.47974 332.599377 
L 404.908355 339.686195 
L 404.356691 344.721569 
L 403.834079 346.890224 
L 402.799064 349.850853 
L 400.361864 355.877357 
L 399.980807 357.453894 
L 397.303692 373.155039 
L 396.425122 376.648461 
L 393.809603 387.807018 
L 392.917636 390.163029 
L 391.415987 393.819284 
L 390.426209 397.217936 
L 390.013538 398.533985 
L 387.884287 402.613003 
L 386.591816 404.422158 
L 385.272135 405.760948 
L 384.167771 406.551472 
L 382.981379 407.151432 
L 381.752369 407.537593 
L 380.514413 407.70879 
L 379.276172 407.656775 
L 378.060802 407.384324 
L 376.876983 406.900912 
L 375.72673 406.220327 
L 374.2513 405.035906 
L 372.703149 403.446215 
L 370.669885 400.970977 
L 368.171738 397.567249 
L 360.252713 386.542365 
L 356.599664 381.83049 
L 344.082986 366.05515 
L 340.957106 361.705085 
L 337.89872 357.115789 
L 334.986366 352.340926 
L 332.693434 348.274938 
L 331.055093 344.862239 
L 329.19872 340.353156 
L 327.181342 334.76183 
L 314.685794 297.891506 
L 311.415806 286.885959 
L 309.663378 280.704351 
L 309.930962 278.628604 
L 311.651427 273.049006 
L 312.953653 269.207716 
L 314.96694 263.037932 
L 321.902801 242.776265 
L 328.004731 226.8032 
L 331.887054 217.543835 
L 339.620592 199.977994 
L 349.250975 179.283172 
L 363.503047 149.620086 
L 374.712181 126.506065 
L 387.278851 100.456278 
L 401.071923 71.376633 
L 404.089908 67.496161 
L 407.351311 68.472584 
L 409.768929 68.861264 
L 407.717952 68.536048 
L 405.654365 68.536239 
L 405.623211 68.82697 
L 406.160074 68.546952 
L 407.057194 68.455981 
L 406.928227 68.437984 
" style="fill:none;stroke:#2ca02c;stroke-linecap:square;stroke-width:1.5;"/>
   </g>
   <g id="patch_3">
    <path d="M 87.48 428.6952 
L 87.48 57.8016 
" style="fill:none;stroke:#000000;stroke-linecap:square;stroke-linejoin:miter;stroke-width:0.8;"/>
   </g>
   <g id="patch_4">
    <path d="M 629.856 428.6952 
L 629.856 57.8016 
" style="fill:none;stroke:#000000;stroke-linecap:square;stroke-linejoin:miter;stroke-width:0.8;"/>
   </g>
   <g id="patch_5">
    <path d="M 87.48 428.6952 
L 629.856 428.6952 
" style="fill:none;stroke:#000000;stroke-linecap:square;stroke-linejoin:miter;stroke-width:0.8;"/>
   </g>
   <g id="patch_6">
    <path d="M 87.48 57.8016 
L 629.856 57.8016 
" style="fill:none;stroke:#000000;stroke-linecap:square;stroke-linejoin:miter;stroke-width:0.8;"/>
   </g>
   <g id="patch_7">
    <path d="M 408.203975 285.748036 
Q 407.961143 288.525413 407.815692 290.189004 
" style="fill:none;stroke:#0000ff;stroke-linecap:round;"/>
    <path d="M 414.838089 278.757209 
L 407.815692 290.189004 
L 402.883694 277.712009 
" style="fill:none;stroke:#0000ff;stroke-linecap:round;"/>
   </g>
   <g id="patch_8">
    <path d="M 334.687291 367.935196 
Q 333.209316 365.454671 332.303618 363.934613 
" style="fill:none;stroke:#0000ff;stroke-linecap:round;"/>
    <path d="M 333.291526 377.3146 
L 332.303618 363.934613 
L 343.600352 371.172279 
" style="fill:none;stroke:#0000ff;stroke-linecap:round;"/>
   </g>
   <g id="patch_9">
    <path d="M 337.634273 189.803293 
Q 348.95527 166.684617 359.784566 144.570047 
" style="fill:none;stroke:#0000ff;stroke-linecap:round;"/>
    <path d="M 349.118472 152.708502 
L 359.784566 144.570047 
L 359.895673 157.985995 
" style="fill:none;stroke:#0000ff;stroke-linecap:round;"/>
   </g>
   <g id="legend_1">
    <g id="patch_10">
     <path d="M 97.28 130.649725 
L 387.436563 130.649725 
Q 390.236563 130.649725 390.236563 127.849725 
L 390.236563 67.6016 
Q 390.236563 64.8016 387.436563 64.8016 
L 97.28 64.8016 
Q 94.48 64.8016 94.48 67.6016 
L 94.48 127.849725 
Q 94.48 130.649725 97.28 130.649725 
z
" style="fill:#ffffff;opacity:0.8;stroke:#cccccc;stroke-linejoin:miter;"/>
    </g>
    <g id="line2d_18">
     <path d="M 100.08 76.139412 
L 128.08 76.139412 
" style="fill:none;stroke:#1f77b4;stroke-linecap:square;stroke-width:1.5;"/>
    </g>
    <g id="line2d_19"/>
    <g id="text_17">
     <!-- desired IP trajectory -->
     <g transform="translate(139.28 81.039412)scale(0.14 -0.14)">
      <defs>
       <path d="M 2906 2969 
L 2906 4863 
L 3481 4863 
L 3481 0 
L 2906 0 
L 2906 525 
Q 2725 213 2448 61 
Q 2172 -91 1784 -91 
Q 1150 -91 751 415 
Q 353 922 353 1747 
Q 353 2572 751 3078 
Q 1150 3584 1784 3584 
Q 2172 3584 2448 3432 
Q 2725 3281 2906 2969 
z
M 947 1747 
Q 947 1113 1208 752 
Q 1469 391 1925 391 
Q 2381 391 2643 752 
Q 2906 1113 2906 1747 
Q 2906 2381 2643 2742 
Q 2381 3103 1925 3103 
Q 1469 3103 1208 2742 
Q 947 2381 947 1747 
z
" id="DejaVuSans-64" transform="scale(0.015625)"/>
       <path d="M 3597 1894 
L 3597 1613 
L 953 1613 
Q 991 1019 1311 708 
Q 1631 397 2203 397 
Q 2534 397 2845 478 
Q 3156 559 3463 722 
L 3463 178 
Q 3153 47 2828 -22 
Q 2503 -91 2169 -91 
Q 1331 -91 842 396 
Q 353 884 353 1716 
Q 353 2575 817 3079 
Q 1281 3584 2069 3584 
Q 2775 3584 3186 3129 
Q 3597 2675 3597 1894 
z
M 3022 2063 
Q 3016 2534 2758 2815 
Q 2500 3097 2075 3097 
Q 1594 3097 1305 2825 
Q 1016 2553 972 2059 
L 3022 2063 
z
" id="DejaVuSans-65" transform="scale(0.015625)"/>
       <path d="M 2834 3397 
L 2834 2853 
Q 2591 2978 2328 3040 
Q 2066 3103 1784 3103 
Q 1356 3103 1142 2972 
Q 928 2841 928 2578 
Q 928 2378 1081 2264 
Q 1234 2150 1697 2047 
L 1894 2003 
Q 2506 1872 2764 1633 
Q 3022 1394 3022 966 
Q 3022 478 2636 193 
Q 2250 -91 1575 -91 
Q 1294 -91 989 -36 
Q 684 19 347 128 
L 347 722 
Q 666 556 975 473 
Q 1284 391 1588 391 
Q 1994 391 2212 530 
Q 2431 669 2431 922 
Q 2431 1156 2273 1281 
Q 2116 1406 1581 1522 
L 1381 1569 
Q 847 1681 609 1914 
Q 372 2147 372 2553 
Q 372 3047 722 3315 
Q 1072 3584 1716 3584 
Q 2034 3584 2315 3537 
Q 2597 3491 2834 3397 
z
" id="DejaVuSans-73" transform="scale(0.015625)"/>
       <path d="M 603 3500 
L 1178 3500 
L 1178 0 
L 603 0 
L 603 3500 
z
M 603 4863 
L 1178 4863 
L 1178 4134 
L 603 4134 
L 603 4863 
z
" id="DejaVuSans-69" transform="scale(0.015625)"/>
       <path d="M 2631 2963 
Q 2534 3019 2420 3045 
Q 2306 3072 2169 3072 
Q 1681 3072 1420 2755 
Q 1159 2438 1159 1844 
L 1159 0 
L 581 0 
L 581 3500 
L 1159 3500 
L 1159 2956 
Q 1341 3275 1631 3429 
Q 1922 3584 2338 3584 
Q 2397 3584 2469 3576 
Q 2541 3569 2628 3553 
L 2631 2963 
z
" id="DejaVuSans-72" transform="scale(0.015625)"/>
       <path d="M 628 4666 
L 1259 4666 
L 1259 0 
L 628 0 
L 628 4666 
z
" id="DejaVuSans-49" transform="scale(0.015625)"/>
       <path d="M 1259 4147 
L 1259 2394 
L 2053 2394 
Q 2494 2394 2734 2622 
Q 2975 2850 2975 3272 
Q 2975 3691 2734 3919 
Q 2494 4147 2053 4147 
L 1259 4147 
z
M 628 4666 
L 2053 4666 
Q 2838 4666 3239 4311 
Q 3641 3956 3641 3272 
Q 3641 2581 3239 2228 
Q 2838 1875 2053 1875 
L 1259 1875 
L 1259 0 
L 628 0 
L 628 4666 
z
" id="DejaVuSans-50" transform="scale(0.015625)"/>
       <path d="M 1172 4494 
L 1172 3500 
L 2356 3500 
L 2356 3053 
L 1172 3053 
L 1172 1153 
Q 1172 725 1289 603 
Q 1406 481 1766 481 
L 2356 481 
L 2356 0 
L 1766 0 
Q 1100 0 847 248 
Q 594 497 594 1153 
L 594 3053 
L 172 3053 
L 172 3500 
L 594 3500 
L 594 4494 
L 1172 4494 
z
" id="DejaVuSans-74" transform="scale(0.015625)"/>
       <path d="M 2194 1759 
Q 1497 1759 1228 1600 
Q 959 1441 959 1056 
Q 959 750 1161 570 
Q 1363 391 1709 391 
Q 2188 391 2477 730 
Q 2766 1069 2766 1631 
L 2766 1759 
L 2194 1759 
z
M 3341 1997 
L 3341 0 
L 2766 0 
L 2766 531 
Q 2569 213 2275 61 
Q 1981 -91 1556 -91 
Q 1019 -91 701 211 
Q 384 513 384 1019 
Q 384 1609 779 1909 
Q 1175 2209 1959 2209 
L 2766 2209 
L 2766 2266 
Q 2766 2663 2505 2880 
Q 2244 3097 1772 3097 
Q 1472 3097 1187 3025 
Q 903 2953 641 2809 
L 641 3341 
Q 956 3463 1253 3523 
Q 1550 3584 1831 3584 
Q 2591 3584 2966 3190 
Q 3341 2797 3341 1997 
z
" id="DejaVuSans-61" transform="scale(0.015625)"/>
       <path d="M 603 3500 
L 1178 3500 
L 1178 -63 
Q 1178 -731 923 -1031 
Q 669 -1331 103 -1331 
L -116 -1331 
L -116 -844 
L 38 -844 
Q 366 -844 484 -692 
Q 603 -541 603 -63 
L 603 3500 
z
M 603 4863 
L 1178 4863 
L 1178 4134 
L 603 4134 
L 603 4863 
z
" id="DejaVuSans-6a" transform="scale(0.015625)"/>
       <path d="M 3122 3366 
L 3122 2828 
Q 2878 2963 2633 3030 
Q 2388 3097 2138 3097 
Q 1578 3097 1268 2742 
Q 959 2388 959 1747 
Q 959 1106 1268 751 
Q 1578 397 2138 397 
Q 2388 397 2633 464 
Q 2878 531 3122 666 
L 3122 134 
Q 2881 22 2623 -34 
Q 2366 -91 2075 -91 
Q 1284 -91 818 406 
Q 353 903 353 1747 
Q 353 2603 823 3093 
Q 1294 3584 2113 3584 
Q 2378 3584 2631 3529 
Q 2884 3475 3122 3366 
z
" id="DejaVuSans-63" transform="scale(0.015625)"/>
       <path d="M 1959 3097 
Q 1497 3097 1228 2736 
Q 959 2375 959 1747 
Q 959 1119 1226 758 
Q 1494 397 1959 397 
Q 2419 397 2687 759 
Q 2956 1122 2956 1747 
Q 2956 2369 2687 2733 
Q 2419 3097 1959 3097 
z
M 1959 3584 
Q 2709 3584 3137 3096 
Q 3566 2609 3566 1747 
Q 3566 888 3137 398 
Q 2709 -91 1959 -91 
Q 1206 -91 779 398 
Q 353 888 353 1747 
Q 353 2609 779 3096 
Q 1206 3584 1959 3584 
z
" id="DejaVuSans-6f" transform="scale(0.015625)"/>
       <path d="M 2059 -325 
Q 1816 -950 1584 -1140 
Q 1353 -1331 966 -1331 
L 506 -1331 
L 506 -850 
L 844 -850 
Q 1081 -850 1212 -737 
Q 1344 -625 1503 -206 
L 1606 56 
L 191 3500 
L 800 3500 
L 1894 763 
L 2988 3500 
L 3597 3500 
L 2059 -325 
z
" id="DejaVuSans-79" transform="scale(0.015625)"/>
      </defs>
      <use xlink:href="#DejaVuSans-64"/>
      <use x="63.476562" xlink:href="#DejaVuSans-65"/>
      <use x="125" xlink:href="#DejaVuSans-73"/>
      <use x="177.099609" xlink:href="#DejaVuSans-69"/>
      <use x="204.882812" xlink:href="#DejaVuSans-72"/>
      <use x="243.746094" xlink:href="#DejaVuSans-65"/>
      <use x="305.269531" xlink:href="#DejaVuSans-64"/>
      <use x="368.746094" xlink:href="#DejaVuSans-20"/>
      <use x="400.533203" xlink:href="#DejaVuSans-49"/>
      <use x="430.025391" xlink:href="#DejaVuSans-50"/>
      <use x="490.328125" xlink:href="#DejaVuSans-20"/>
      <use x="522.115234" xlink:href="#DejaVuSans-74"/>
      <use x="561.324219" xlink:href="#DejaVuSans-72"/>
      <use x="602.4375" xlink:href="#DejaVuSans-61"/>
      <use x="663.716797" xlink:href="#DejaVuSans-6a"/>
      <use x="691.5" xlink:href="#DejaVuSans-65"/>
      <use x="753.023438" xlink:href="#DejaVuSans-63"/>
      <use x="808.003906" xlink:href="#DejaVuSans-74"/>
      <use x="847.212891" xlink:href="#DejaVuSans-6f"/>
      <use x="908.394531" xlink:href="#DejaVuSans-72"/>
      <use x="949.507812" xlink:href="#DejaVuSans-79"/>
     </g>
    </g>
    <g id="line2d_20">
     <path d="M 100.08 96.688787 
L 128.08 96.688787 
" style="fill:none;stroke:#ff7f0e;stroke-linecap:square;stroke-width:1.5;"/>
    </g>
    <g id="line2d_21"/>
    <g id="text_18">
     <!-- with compromised muscle function -->
     <g transform="translate(139.28 101.588787)scale(0.14 -0.14)">
      <defs>
       <path d="M 269 3500 
L 844 3500 
L 1563 769 
L 2278 3500 
L 2956 3500 
L 3675 769 
L 4391 3500 
L 4966 3500 
L 4050 0 
L 3372 0 
L 2619 2869 
L 1863 0 
L 1184 0 
L 269 3500 
z
" id="DejaVuSans-77" transform="scale(0.015625)"/>
       <path d="M 3513 2113 
L 3513 0 
L 2938 0 
L 2938 2094 
Q 2938 2591 2744 2837 
Q 2550 3084 2163 3084 
Q 1697 3084 1428 2787 
Q 1159 2491 1159 1978 
L 1159 0 
L 581 0 
L 581 4863 
L 1159 4863 
L 1159 2956 
Q 1366 3272 1645 3428 
Q 1925 3584 2291 3584 
Q 2894 3584 3203 3211 
Q 3513 2838 3513 2113 
z
" id="DejaVuSans-68" transform="scale(0.015625)"/>
       <path d="M 1159 525 
L 1159 -1331 
L 581 -1331 
L 581 3500 
L 1159 3500 
L 1159 2969 
Q 1341 3281 1617 3432 
Q 1894 3584 2278 3584 
Q 2916 3584 3314 3078 
Q 3713 2572 3713 1747 
Q 3713 922 3314 415 
Q 2916 -91 2278 -91 
Q 1894 -91 1617 61 
Q 1341 213 1159 525 
z
M 3116 1747 
Q 3116 2381 2855 2742 
Q 2594 3103 2138 3103 
Q 1681 3103 1420 2742 
Q 1159 2381 1159 1747 
Q 1159 1113 1420 752 
Q 1681 391 2138 391 
Q 2594 391 2855 752 
Q 3116 1113 3116 1747 
z
" id="DejaVuSans-70" transform="scale(0.015625)"/>
       <path d="M 544 1381 
L 544 3500 
L 1119 3500 
L 1119 1403 
Q 1119 906 1312 657 
Q 1506 409 1894 409 
Q 2359 409 2629 706 
Q 2900 1003 2900 1516 
L 2900 3500 
L 3475 3500 
L 3475 0 
L 2900 0 
L 2900 538 
Q 2691 219 2414 64 
Q 2138 -91 1772 -91 
Q 1169 -91 856 284 
Q 544 659 544 1381 
z
M 1991 3584 
L 1991 3584 
z
" id="DejaVuSans-75" transform="scale(0.015625)"/>
       <path d="M 603 4863 
L 1178 4863 
L 1178 0 
L 603 0 
L 603 4863 
z
" id="DejaVuSans-6c" transform="scale(0.015625)"/>
       <path d="M 2375 4863 
L 2375 4384 
L 1825 4384 
Q 1516 4384 1395 4259 
Q 1275 4134 1275 3809 
L 1275 3500 
L 2222 3500 
L 2222 3053 
L 1275 3053 
L 1275 0 
L 697 0 
L 697 3053 
L 147 3053 
L 147 3500 
L 697 3500 
L 697 3744 
Q 697 4328 969 4595 
Q 1241 4863 1831 4863 
L 2375 4863 
z
" id="DejaVuSans-66" transform="scale(0.015625)"/>
       <path d="M 3513 2113 
L 3513 0 
L 2938 0 
L 2938 2094 
Q 2938 2591 2744 2837 
Q 2550 3084 2163 3084 
Q 1697 3084 1428 2787 
Q 1159 2491 1159 1978 
L 1159 0 
L 581 0 
L 581 3500 
L 1159 3500 
L 1159 2956 
Q 1366 3272 1645 3428 
Q 1925 3584 2291 3584 
Q 2894 3584 3203 3211 
Q 3513 2838 3513 2113 
z
" id="DejaVuSans-6e" transform="scale(0.015625)"/>
      </defs>
      <use xlink:href="#DejaVuSans-77"/>
      <use x="81.787109" xlink:href="#DejaVuSans-69"/>
      <use x="109.570312" xlink:href="#DejaVuSans-74"/>
      <use x="148.779297" xlink:href="#DejaVuSans-68"/>
      <use x="212.158203" xlink:href="#DejaVuSans-20"/>
      <use x="243.945312" xlink:href="#DejaVuSans-63"/>
      <use x="298.925781" xlink:href="#DejaVuSans-6f"/>
      <use x="360.107422" xlink:href="#DejaVuSans-6d"/>
      <use x="457.519531" xlink:href="#DejaVuSans-70"/>
      <use x="520.996094" xlink:href="#DejaVuSans-72"/>
      <use x="559.859375" xlink:href="#DejaVuSans-6f"/>
      <use x="621.041016" xlink:href="#DejaVuSans-6d"/>
      <use x="718.453125" xlink:href="#DejaVuSans-69"/>
      <use x="746.236328" xlink:href="#DejaVuSans-73"/>
      <use x="798.335938" xlink:href="#DejaVuSans-65"/>
      <use x="859.859375" xlink:href="#DejaVuSans-64"/>
      <use x="923.335938" xlink:href="#DejaVuSans-20"/>
      <use x="955.123047" xlink:href="#DejaVuSans-6d"/>
      <use x="1052.535156" xlink:href="#DejaVuSans-75"/>
      <use x="1115.914062" xlink:href="#DejaVuSans-73"/>
      <use x="1168.013672" xlink:href="#DejaVuSans-63"/>
      <use x="1222.994141" xlink:href="#DejaVuSans-6c"/>
      <use x="1250.777344" xlink:href="#DejaVuSans-65"/>
      <use x="1312.300781" xlink:href="#DejaVuSans-20"/>
      <use x="1344.087891" xlink:href="#DejaVuSans-66"/>
      <use x="1379.292969" xlink:href="#DejaVuSans-75"/>
      <use x="1442.671875" xlink:href="#DejaVuSans-6e"/>
      <use x="1506.050781" xlink:href="#DejaVuSans-63"/>
      <use x="1561.03125" xlink:href="#DejaVuSans-74"/>
      <use x="1600.240234" xlink:href="#DejaVuSans-69"/>
      <use x="1628.023438" xlink:href="#DejaVuSans-6f"/>
      <use x="1689.205078" xlink:href="#DejaVuSans-6e"/>
     </g>
    </g>
    <g id="line2d_22">
     <path d="M 100.08 117.238162 
L 128.08 117.238162 
" style="fill:none;stroke:#2ca02c;stroke-linecap:square;stroke-width:1.5;"/>
    </g>
    <g id="line2d_23"/>
    <g id="text_19">
     <!-- with controller -->
     <g transform="translate(139.28 122.138162)scale(0.14 -0.14)">
      <use xlink:href="#DejaVuSans-77"/>
      <use x="81.787109" xlink:href="#DejaVuSans-69"/>
      <use x="109.570312" xlink:href="#DejaVuSans-74"/>
      <use x="148.779297" xlink:href="#DejaVuSans-68"/>
      <use x="212.158203" xlink:href="#DejaVuSans-20"/>
      <use x="243.945312" xlink:href="#DejaVuSans-63"/>
      <use x="298.925781" xlink:href="#DejaVuSans-6f"/>
      <use x="360.107422" xlink:href="#DejaVuSans-6e"/>
      <use x="423.486328" xlink:href="#DejaVuSans-74"/>
      <use x="462.695312" xlink:href="#DejaVuSans-72"/>
      <use x="501.558594" xlink:href="#DejaVuSans-6f"/>
      <use x="562.740234" xlink:href="#DejaVuSans-6c"/>
      <use x="590.523438" xlink:href="#DejaVuSans-6c"/>
      <use x="618.306641" xlink:href="#DejaVuSans-65"/>
      <use x="679.830078" xlink:href="#DejaVuSans-72"/>
     </g>
    </g>
   </g>
  </g>
 </g>
 <defs>
  <clipPath id="pa4d5079954">
   <rect height="370.8936" width="542.376" x="87.48" y="57.8016"/>
  </clipPath>
 </defs>
</svg>
