<?xml version="1.0" encoding="utf-8" standalone="no"?>
<!DOCTYPE svg PUBLIC "-//W3C//DTD SVG 1.1//EN"
  "http://www.w3.org/Graphics/SVG/1.1/DTD/svg11.dtd">
<svg height="354.96pt" version="1.1" viewBox="0 0 713.52 354.96" width="713.52pt" xmlns="http://www.w3.org/2000/svg" xmlns:xlink="http://www.w3.org/1999/xlink">
 <metadata>
  <rdf:RDF xmlns:cc="http://creativecommons.org/ns#" xmlns:dc="http://purl.org/dc/elements/1.1/" xmlns:rdf="http://www.w3.org/1999/02/22-rdf-syntax-ns#">
   <cc:Work>
    <dc:type rdf:resource="http://purl.org/dc/dcmitype/StillImage"/>
    <dc:date>2021-05-05T08:51:39.168728</dc:date>
    <dc:format>image/svg+xml</dc:format>
    <dc:creator>
     <cc:Agent>
      <dc:title>Matplotlib v3.4.1, https://matplotlib.org/</dc:title>
     </cc:Agent>
    </dc:creator>
   </cc:Work>
  </rdf:RDF>
 </metadata>
 <defs>
  <style type="text/css">*{stroke-linecap:butt;stroke-linejoin:round;}</style>
 </defs>
 <g id="figure_1">
  <g id="patch_1">
   <path d="M 0 354.96 
L 713.52 354.96 
L 713.52 0 
L 0 0 
z
" style="fill:#ffffff;"/>
  </g>
  <g id="axes_1">
   <g id="patch_2">
    <path d="M 89.19 315.9144 
L 340.543636 315.9144 
L 340.543636 42.5952 
L 89.19 42.5952 
z
" style="fill:#ffffff;"/>
   </g>
   <g id="PathCollection_1">
    <defs>
     <path d="M 0 3 
C 0.795609 3 1.55874 2.683901 2.12132 2.12132 
C 2.683901 1.55874 3 0.795609 3 0 
C 3 -0.795609 2.683901 -1.55874 2.12132 -2.12132 
C 1.55874 -2.683901 0.795609 -3 0 -3 
C -0.795609 -3 -1.55874 -2.683901 -2.12132 -2.12132 
C -2.683901 -1.55874 -3 -0.795609 -3 0 
C -3 0.795609 -2.683901 1.55874 -2.12132 2.12132 
C -1.55874 2.683901 -0.795609 3 0 3 
z
" id="mba38cf6334" style="stroke:#0000ff;"/>
    </defs>
    <g clip-path="url(#pe59503433f)">
     <use style="fill:#0000ff;stroke:#0000ff;" x="100.042444" xlink:href="#mba38cf6334" y="120.427792"/>
    </g>
   </g>
   <g id="matplotlib.axis_1">
    <g id="xtick_1">
     <g id="line2d_1">
      <defs>
       <path d="M 0 0 
L 0 3.5 
" id="m2011015e40" style="stroke:#000000;stroke-width:0.8;"/>
      </defs>
      <g>
       <use style="stroke:#000000;stroke-width:0.8;" x="100.042444" xlink:href="#m2011015e40" y="315.9144"/>
      </g>
     </g>
     <g id="text_1">
      <!-- 0 -->
      <g transform="translate(95.588694 333.552212)scale(0.14 -0.14)">
       <defs>
        <path d="M 2034 4250 
Q 1547 4250 1301 3770 
Q 1056 3291 1056 2328 
Q 1056 1369 1301 889 
Q 1547 409 2034 409 
Q 2525 409 2770 889 
Q 3016 1369 3016 2328 
Q 3016 3291 2770 3770 
Q 2525 4250 2034 4250 
z
M 2034 4750 
Q 2819 4750 3233 4129 
Q 3647 3509 3647 2328 
Q 3647 1150 3233 529 
Q 2819 -91 2034 -91 
Q 1250 -91 836 529 
Q 422 1150 422 2328 
Q 422 3509 836 4129 
Q 1250 4750 2034 4750 
z
" id="DejaVuSans-30" transform="scale(0.015625)"/>
       </defs>
       <use xlink:href="#DejaVuSans-30"/>
      </g>
     </g>
    </g>
    <g id="xtick_2">
     <g id="line2d_2">
      <g>
       <use style="stroke:#000000;stroke-width:0.8;" x="155.875516" xlink:href="#m2011015e40" y="315.9144"/>
      </g>
     </g>
     <g id="text_2">
      <!-- 2 -->
      <g transform="translate(151.421766 333.552212)scale(0.14 -0.14)">
       <defs>
        <path d="M 1228 531 
L 3431 531 
L 3431 0 
L 469 0 
L 469 531 
Q 828 903 1448 1529 
Q 2069 2156 2228 2338 
Q 2531 2678 2651 2914 
Q 2772 3150 2772 3378 
Q 2772 3750 2511 3984 
Q 2250 4219 1831 4219 
Q 1534 4219 1204 4116 
Q 875 4013 500 3803 
L 500 4441 
Q 881 4594 1212 4672 
Q 1544 4750 1819 4750 
Q 2544 4750 2975 4387 
Q 3406 4025 3406 3419 
Q 3406 3131 3298 2873 
Q 3191 2616 2906 2266 
Q 2828 2175 2409 1742 
Q 1991 1309 1228 531 
z
" id="DejaVuSans-32" transform="scale(0.015625)"/>
       </defs>
       <use xlink:href="#DejaVuSans-32"/>
      </g>
     </g>
    </g>
    <g id="xtick_3">
     <g id="line2d_3">
      <g>
       <use style="stroke:#000000;stroke-width:0.8;" x="211.708588" xlink:href="#m2011015e40" y="315.9144"/>
      </g>
     </g>
     <g id="text_3">
      <!-- 4 -->
      <g transform="translate(207.254838 333.552212)scale(0.14 -0.14)">
       <defs>
        <path d="M 2419 4116 
L 825 1625 
L 2419 1625 
L 2419 4116 
z
M 2253 4666 
L 3047 4666 
L 3047 1625 
L 3713 1625 
L 3713 1100 
L 3047 1100 
L 3047 0 
L 2419 0 
L 2419 1100 
L 313 1100 
L 313 1709 
L 2253 4666 
z
" id="DejaVuSans-34" transform="scale(0.015625)"/>
       </defs>
       <use xlink:href="#DejaVuSans-34"/>
      </g>
     </g>
    </g>
    <g id="xtick_4">
     <g id="line2d_4">
      <g>
       <use style="stroke:#000000;stroke-width:0.8;" x="267.54166" xlink:href="#m2011015e40" y="315.9144"/>
      </g>
     </g>
     <g id="text_4">
      <!-- 6 -->
      <g transform="translate(263.08791 333.552212)scale(0.14 -0.14)">
       <defs>
        <path d="M 2113 2584 
Q 1688 2584 1439 2293 
Q 1191 2003 1191 1497 
Q 1191 994 1439 701 
Q 1688 409 2113 409 
Q 2538 409 2786 701 
Q 3034 994 3034 1497 
Q 3034 2003 2786 2293 
Q 2538 2584 2113 2584 
z
M 3366 4563 
L 3366 3988 
Q 3128 4100 2886 4159 
Q 2644 4219 2406 4219 
Q 1781 4219 1451 3797 
Q 1122 3375 1075 2522 
Q 1259 2794 1537 2939 
Q 1816 3084 2150 3084 
Q 2853 3084 3261 2657 
Q 3669 2231 3669 1497 
Q 3669 778 3244 343 
Q 2819 -91 2113 -91 
Q 1303 -91 875 529 
Q 447 1150 447 2328 
Q 447 3434 972 4092 
Q 1497 4750 2381 4750 
Q 2619 4750 2861 4703 
Q 3103 4656 3366 4563 
z
" id="DejaVuSans-36" transform="scale(0.015625)"/>
       </defs>
       <use xlink:href="#DejaVuSans-36"/>
      </g>
     </g>
    </g>
    <g id="xtick_5">
     <g id="line2d_5">
      <g>
       <use style="stroke:#000000;stroke-width:0.8;" x="323.374732" xlink:href="#m2011015e40" y="315.9144"/>
      </g>
     </g>
     <g id="text_5">
      <!-- 8 -->
      <g transform="translate(318.920982 333.552212)scale(0.14 -0.14)">
       <defs>
        <path d="M 2034 2216 
Q 1584 2216 1326 1975 
Q 1069 1734 1069 1313 
Q 1069 891 1326 650 
Q 1584 409 2034 409 
Q 2484 409 2743 651 
Q 3003 894 3003 1313 
Q 3003 1734 2745 1975 
Q 2488 2216 2034 2216 
z
M 1403 2484 
Q 997 2584 770 2862 
Q 544 3141 544 3541 
Q 544 4100 942 4425 
Q 1341 4750 2034 4750 
Q 2731 4750 3128 4425 
Q 3525 4100 3525 3541 
Q 3525 3141 3298 2862 
Q 3072 2584 2669 2484 
Q 3125 2378 3379 2068 
Q 3634 1759 3634 1313 
Q 3634 634 3220 271 
Q 2806 -91 2034 -91 
Q 1263 -91 848 271 
Q 434 634 434 1313 
Q 434 1759 690 2068 
Q 947 2378 1403 2484 
z
M 1172 3481 
Q 1172 3119 1398 2916 
Q 1625 2713 2034 2713 
Q 2441 2713 2670 2916 
Q 2900 3119 2900 3481 
Q 2900 3844 2670 4047 
Q 2441 4250 2034 4250 
Q 1625 4250 1398 4047 
Q 1172 3844 1172 3481 
z
" id="DejaVuSans-38" transform="scale(0.015625)"/>
       </defs>
       <use xlink:href="#DejaVuSans-38"/>
      </g>
     </g>
    </g>
    <g id="text_6">
     <!-- X (mm) -->
     <g transform="translate(188.748068 351.101587)scale(0.14 -0.14)">
      <defs>
       <path d="M 403 4666 
L 1081 4666 
L 2241 2931 
L 3406 4666 
L 4084 4666 
L 2584 2425 
L 4184 0 
L 3506 0 
L 2194 1984 
L 872 0 
L 191 0 
L 1856 2491 
L 403 4666 
z
" id="DejaVuSans-58" transform="scale(0.015625)"/>
       <path id="DejaVuSans-20" transform="scale(0.015625)"/>
       <path d="M 1984 4856 
Q 1566 4138 1362 3434 
Q 1159 2731 1159 2009 
Q 1159 1288 1364 580 
Q 1569 -128 1984 -844 
L 1484 -844 
Q 1016 -109 783 600 
Q 550 1309 550 2009 
Q 550 2706 781 3412 
Q 1013 4119 1484 4856 
L 1984 4856 
z
" id="DejaVuSans-28" transform="scale(0.015625)"/>
       <path d="M 3328 2828 
Q 3544 3216 3844 3400 
Q 4144 3584 4550 3584 
Q 5097 3584 5394 3201 
Q 5691 2819 5691 2113 
L 5691 0 
L 5113 0 
L 5113 2094 
Q 5113 2597 4934 2840 
Q 4756 3084 4391 3084 
Q 3944 3084 3684 2787 
Q 3425 2491 3425 1978 
L 3425 0 
L 2847 0 
L 2847 2094 
Q 2847 2600 2669 2842 
Q 2491 3084 2119 3084 
Q 1678 3084 1418 2786 
Q 1159 2488 1159 1978 
L 1159 0 
L 581 0 
L 581 3500 
L 1159 3500 
L 1159 2956 
Q 1356 3278 1631 3431 
Q 1906 3584 2284 3584 
Q 2666 3584 2933 3390 
Q 3200 3197 3328 2828 
z
" id="DejaVuSans-6d" transform="scale(0.015625)"/>
       <path d="M 513 4856 
L 1013 4856 
Q 1481 4119 1714 3412 
Q 1947 2706 1947 2009 
Q 1947 1309 1714 600 
Q 1481 -109 1013 -844 
L 513 -844 
Q 928 -128 1133 580 
Q 1338 1288 1338 2009 
Q 1338 2731 1133 3434 
Q 928 4138 513 4856 
z
" id="DejaVuSans-29" transform="scale(0.015625)"/>
      </defs>
      <use xlink:href="#DejaVuSans-58"/>
      <use x="68.505859" xlink:href="#DejaVuSans-20"/>
      <use x="100.292969" xlink:href="#DejaVuSans-28"/>
      <use x="139.306641" xlink:href="#DejaVuSans-6d"/>
      <use x="236.71875" xlink:href="#DejaVuSans-6d"/>
      <use x="334.130859" xlink:href="#DejaVuSans-29"/>
     </g>
    </g>
   </g>
   <g id="matplotlib.axis_2">
    <g id="ytick_1">
     <g id="line2d_6">
      <defs>
       <path d="M 0 0 
L -3.5 0 
" id="mb237caf144" style="stroke:#000000;stroke-width:0.8;"/>
      </defs>
      <g>
       <use style="stroke:#000000;stroke-width:0.8;" x="89.19" xlink:href="#mb237caf144" y="287.757987"/>
      </g>
     </g>
     <g id="text_7">
      <!-- −6 -->
      <g transform="translate(61.550937 293.076894)scale(0.14 -0.14)">
       <defs>
        <path d="M 678 2272 
L 4684 2272 
L 4684 1741 
L 678 1741 
L 678 2272 
z
" id="DejaVuSans-2212" transform="scale(0.015625)"/>
       </defs>
       <use xlink:href="#DejaVuSans-2212"/>
       <use x="83.789062" xlink:href="#DejaVuSans-36"/>
      </g>
     </g>
    </g>
    <g id="ytick_2">
     <g id="line2d_7">
      <g>
       <use style="stroke:#000000;stroke-width:0.8;" x="89.19" xlink:href="#mb237caf144" y="231.981255"/>
      </g>
     </g>
     <g id="text_8">
      <!-- −4 -->
      <g transform="translate(61.550937 237.300162)scale(0.14 -0.14)">
       <use xlink:href="#DejaVuSans-2212"/>
       <use x="83.789062" xlink:href="#DejaVuSans-34"/>
      </g>
     </g>
    </g>
    <g id="ytick_3">
     <g id="line2d_8">
      <g>
       <use style="stroke:#000000;stroke-width:0.8;" x="89.19" xlink:href="#mb237caf144" y="176.204524"/>
      </g>
     </g>
     <g id="text_9">
      <!-- −2 -->
      <g transform="translate(61.550937 181.52343)scale(0.14 -0.14)">
       <use xlink:href="#DejaVuSans-2212"/>
       <use x="83.789062" xlink:href="#DejaVuSans-32"/>
      </g>
     </g>
    </g>
    <g id="ytick_4">
     <g id="line2d_9">
      <g>
       <use style="stroke:#000000;stroke-width:0.8;" x="89.19" xlink:href="#mb237caf144" y="120.427792"/>
      </g>
     </g>
     <g id="text_10">
      <!-- 0 -->
      <g transform="translate(73.2825 125.746698)scale(0.14 -0.14)">
       <use xlink:href="#DejaVuSans-30"/>
      </g>
     </g>
    </g>
    <g id="ytick_5">
     <g id="line2d_10">
      <g>
       <use style="stroke:#000000;stroke-width:0.8;" x="89.19" xlink:href="#mb237caf144" y="64.65106"/>
      </g>
     </g>
     <g id="text_11">
      <!-- 2 -->
      <g transform="translate(73.2825 69.969966)scale(0.14 -0.14)">
       <use xlink:href="#DejaVuSans-32"/>
      </g>
     </g>
    </g>
    <g id="text_12">
     <!-- Z (mm) -->
     <g transform="translate(54.639375 205.37355)rotate(-90)scale(0.14 -0.14)">
      <defs>
       <path d="M 359 4666 
L 4025 4666 
L 4025 4184 
L 1075 531 
L 4097 531 
L 4097 0 
L 288 0 
L 288 481 
L 3238 4134 
L 359 4134 
L 359 4666 
z
" id="DejaVuSans-5a" transform="scale(0.015625)"/>
      </defs>
      <use xlink:href="#DejaVuSans-5a"/>
      <use x="68.505859" xlink:href="#DejaVuSans-20"/>
      <use x="100.292969" xlink:href="#DejaVuSans-28"/>
      <use x="139.306641" xlink:href="#DejaVuSans-6d"/>
      <use x="236.71875" xlink:href="#DejaVuSans-6d"/>
      <use x="334.130859" xlink:href="#DejaVuSans-29"/>
     </g>
    </g>
   </g>
   <g id="line2d_11">
    <path clip-path="url(#pe59503433f)" d="M 100.042444 120.427792 
L 109.01399 126.508596 
L 127.678155 138.941899 
L 148.496577 152.106592 
L 167.551638 163.491847 
L 183.036403 172.29527 
L 194.336492 178.561072 
L 202.005336 182.596378 
L 206.655815 185.054442 
L 208.973353 186.276301 
L 209.841598 186.755005 
L 210.107096 186.916861 
L 210.39756 187.08976 
L 211.603835 187.707266 
L 213.839194 188.848833 
L 216.472471 190.193367 
L 219.162972 191.567004 
L 221.83705 192.932157 
L 224.486501 194.284647 
L 227.68834 195.857962 
L 232.900251 198.358826 
L 238.372686 200.984605 
L 243.485693 203.437854 
L 249.201118 206.083896 
L 256.775017 209.514798 
L 267.173892 214.061183 
L 278.98301 219.120506 
L 291.691188 224.276587 
L 303.741639 229.011712 
L 314.003473 232.876385 
L 322.853328 236.045484 
L 327.993706 237.767582 
L 329.691192 238.172323 
L 327.374739 237.15361 
L 321.14036 234.596703 
L 312.63536 231.143587 
L 303.729427 227.369491 
L 295.952905 223.860836 
L 289.462032 220.767261 
L 283.810696 217.852315 
L 278.490493 215.033796 
L 272.806455 211.997402 
L 266.808517 208.828787 
L 260.371086 205.420213 
L 252.912785 201.534172 
L 239.797855 194.804373 
L 215.649688 181.805445 
L 199.806379 173.908983 
L 190.2738 170.046657 
L 177.136474 164.326824 
L 157.083235 154.669291 
L 129.380264 139.288392 
L 103.236078 122.357241 
L 101.24995 121.138305 
L 100.112399 120.365811 
L 100.112399 120.365811 
L 100.112399 120.365811 
L 100.112399 120.365811 
L 100.07038 120.337277 
L 100.07038 120.337277 
L 100.07038 120.337277 
L 100.066184 120.342273 
L 100.05542 120.355088 
L 100.05542 120.355088 
L 100.05542 120.355088 
L 100.05542 120.355088 
L 100.05542 120.355088 
L 100.05542 120.355088 
L 100.05542 120.355088 
L 100.05542 120.355088 
L 100.05542 120.355088 
L 100.05542 120.355088 
L 100.056267 120.355662 
L 100.375558 120.572489 
L 101.616122 121.414941 
L 105.24472 123.879088 
L 112.628744 128.893542 
L 123.999731 136.452645 
L 138.455283 145.725498 
L 154.561193 155.684014 
L 170.720905 165.181359 
L 185.789915 173.647912 
L 199.342761 180.938031 
L 210.766315 186.850832 
L 219.635078 191.288294 
L 225.325689 193.994841 
L 227.579725 194.97894 
L 226.109716 194.124476 
L 221.300296 191.62717 
L 213.405317 187.462627 
L 202.578685 181.746412 
L 188.773966 174.18285 
L 173.748852 165.660868 
L 159.171479 157.118089 
L 146.291554 149.2452 
L 140.308628 145.680664 
L 137.784729 144.232408 
L 136.027771 143.22453 
L 134.802473 142.521846 
L 133.784063 141.937771 
L 132.874782 141.416143 
" style="fill:none;stroke:#ff0000;stroke-linecap:square;stroke-width:1.5;"/>
   </g>
   <g id="line2d_12">
    <path clip-path="url(#pe59503433f)" d="M 100.042444 120.427792 
L 108.970171 126.597703 
L 127.635823 139.016895 
L 148.452389 152.16859 
L 167.498482 163.553462 
L 182.948577 172.376996 
L 194.253216 178.582465 
L 201.883247 182.679348 
L 206.546437 185.125143 
L 208.881839 186.33504 
L 209.766501 186.806307 
L 210.04849 186.958954 
L 210.351071 187.12595 
L 211.564096 187.744548 
L 213.801671 188.891476 
L 216.439401 190.234523 
L 219.132173 191.607113 
L 221.829211 192.942522 
L 224.480489 194.292914 
L 227.69516 195.849954 
L 232.881141 198.384027 
L 238.356365 201.006829 
L 243.488087 203.437365 
L 249.206184 206.072091 
L 256.755705 209.480082 
L 267.120207 214.063529 
L 278.94533 219.094518 
L 291.619324 224.255944 
L 303.663117 228.959547 
L 313.911362 232.803576 
L 322.689671 235.978256 
L 327.706122 237.722981 
L 329.223227 238.165761 
L 326.708767 237.183661 
L 320.199177 234.72553 
L 311.419776 231.341334 
L 302.17818 227.657816 
L 294.015984 224.245973 
L 287.10833 221.233926 
L 280.968206 218.444293 
L 275.174901 215.721838 
L 269.004232 212.801136 
L 262.573794 209.715843 
L 255.732279 206.384792 
L 247.934138 202.566125 
L 234.449089 195.887531 
L 209.739141 182.943156 
L 194.389161 174.91846 
L 185.928213 170.872284 
L 174.049928 164.925274 
L 155.46598 155.002446 
L 128.965665 139.449374 
L 104.059142 120.616027 
L 101.417027 120.804029 
L 100.075385 120.453774 
L 100.075403 120.453808 
L 100.075407 120.453808 
L 100.075409 120.453808 
L 100.042446 120.427793 
L 100.042464 120.427792 
L 100.042582 120.427792 
L 100.042445 120.427792 
L 100.042444 120.427792 
L 100.042444 120.427792 
L 100.042444 120.427792 
L 100.042444 120.427792 
L 100.042444 120.427792 
L 100.042444 120.427876 
L 100.042444 120.427876 
L 100.042444 120.427876 
L 100.042444 120.427876 
L 100.042444 120.427876 
L 100.043431 120.428116 
L 100.401598 120.559185 
L 101.618014 121.435321 
L 105.189335 123.992287 
L 112.54842 129.027143 
L 123.896588 136.592611 
L 138.332014 145.848887 
L 154.403361 155.797475 
L 170.507304 165.31366 
L 185.535379 173.755913 
L 198.999957 181.09912 
L 210.354608 187.0095 
L 219.13473 191.46869 
L 224.721691 194.210225 
L 226.857034 195.237317 
L 225.281194 194.391372 
L 220.365354 191.90127 
L 212.344525 187.777187 
L 201.433026 182.040787 
L 187.545597 174.4957 
L 172.465451 165.973448 
L 157.860729 157.39846 
L 144.953389 149.498172 
L 139.070911 145.894331 
L 136.661977 144.42973 
L 134.982429 143.406687 
L 133.808387 142.692857 
L 132.840806 142.087671 
L 131.974341 141.550944 
" style="fill:none;stroke:#008000;stroke-linecap:square;stroke-width:1.5;"/>
   </g>
   <g id="patch_3">
    <path d="M 89.19 315.9144 
L 89.19 42.5952 
" style="fill:none;stroke:#000000;stroke-linecap:square;stroke-linejoin:miter;stroke-width:0.8;"/>
   </g>
   <g id="patch_4">
    <path d="M 340.543636 315.9144 
L 340.543636 42.5952 
" style="fill:none;stroke:#000000;stroke-linecap:square;stroke-linejoin:miter;stroke-width:0.8;"/>
   </g>
   <g id="patch_5">
    <path d="M 89.19 315.9144 
L 340.543636 315.9144 
" style="fill:none;stroke:#000000;stroke-linecap:square;stroke-linejoin:miter;stroke-width:0.8;"/>
   </g>
   <g id="patch_6">
    <path d="M 89.19 42.5952 
L 340.543636 42.5952 
" style="fill:none;stroke:#000000;stroke-linecap:square;stroke-linejoin:miter;stroke-width:0.8;"/>
   </g>
   <g id="text_13">
    <!-- Frame translation -->
    <g transform="translate(140.858881 36.5952)scale(0.168 -0.168)">
     <defs>
      <path d="M 628 4666 
L 3309 4666 
L 3309 4134 
L 1259 4134 
L 1259 2759 
L 3109 2759 
L 3109 2228 
L 1259 2228 
L 1259 0 
L 628 0 
L 628 4666 
z
" id="DejaVuSans-46" transform="scale(0.015625)"/>
      <path d="M 2631 2963 
Q 2534 3019 2420 3045 
Q 2306 3072 2169 3072 
Q 1681 3072 1420 2755 
Q 1159 2438 1159 1844 
L 1159 0 
L 581 0 
L 581 3500 
L 1159 3500 
L 1159 2956 
Q 1341 3275 1631 3429 
Q 1922 3584 2338 3584 
Q 2397 3584 2469 3576 
Q 2541 3569 2628 3553 
L 2631 2963 
z
" id="DejaVuSans-72" transform="scale(0.015625)"/>
      <path d="M 2194 1759 
Q 1497 1759 1228 1600 
Q 959 1441 959 1056 
Q 959 750 1161 570 
Q 1363 391 1709 391 
Q 2188 391 2477 730 
Q 2766 1069 2766 1631 
L 2766 1759 
L 2194 1759 
z
M 3341 1997 
L 3341 0 
L 2766 0 
L 2766 531 
Q 2569 213 2275 61 
Q 1981 -91 1556 -91 
Q 1019 -91 701 211 
Q 384 513 384 1019 
Q 384 1609 779 1909 
Q 1175 2209 1959 2209 
L 2766 2209 
L 2766 2266 
Q 2766 2663 2505 2880 
Q 2244 3097 1772 3097 
Q 1472 3097 1187 3025 
Q 903 2953 641 2809 
L 641 3341 
Q 956 3463 1253 3523 
Q 1550 3584 1831 3584 
Q 2591 3584 2966 3190 
Q 3341 2797 3341 1997 
z
" id="DejaVuSans-61" transform="scale(0.015625)"/>
      <path d="M 3597 1894 
L 3597 1613 
L 953 1613 
Q 991 1019 1311 708 
Q 1631 397 2203 397 
Q 2534 397 2845 478 
Q 3156 559 3463 722 
L 3463 178 
Q 3153 47 2828 -22 
Q 2503 -91 2169 -91 
Q 1331 -91 842 396 
Q 353 884 353 1716 
Q 353 2575 817 3079 
Q 1281 3584 2069 3584 
Q 2775 3584 3186 3129 
Q 3597 2675 3597 1894 
z
M 3022 2063 
Q 3016 2534 2758 2815 
Q 2500 3097 2075 3097 
Q 1594 3097 1305 2825 
Q 1016 2553 972 2059 
L 3022 2063 
z
" id="DejaVuSans-65" transform="scale(0.015625)"/>
      <path d="M 1172 4494 
L 1172 3500 
L 2356 3500 
L 2356 3053 
L 1172 3053 
L 1172 1153 
Q 1172 725 1289 603 
Q 1406 481 1766 481 
L 2356 481 
L 2356 0 
L 1766 0 
Q 1100 0 847 248 
Q 594 497 594 1153 
L 594 3053 
L 172 3053 
L 172 3500 
L 594 3500 
L 594 4494 
L 1172 4494 
z
" id="DejaVuSans-74" transform="scale(0.015625)"/>
      <path d="M 3513 2113 
L 3513 0 
L 2938 0 
L 2938 2094 
Q 2938 2591 2744 2837 
Q 2550 3084 2163 3084 
Q 1697 3084 1428 2787 
Q 1159 2491 1159 1978 
L 1159 0 
L 581 0 
L 581 3500 
L 1159 3500 
L 1159 2956 
Q 1366 3272 1645 3428 
Q 1925 3584 2291 3584 
Q 2894 3584 3203 3211 
Q 3513 2838 3513 2113 
z
" id="DejaVuSans-6e" transform="scale(0.015625)"/>
      <path d="M 2834 3397 
L 2834 2853 
Q 2591 2978 2328 3040 
Q 2066 3103 1784 3103 
Q 1356 3103 1142 2972 
Q 928 2841 928 2578 
Q 928 2378 1081 2264 
Q 1234 2150 1697 2047 
L 1894 2003 
Q 2506 1872 2764 1633 
Q 3022 1394 3022 966 
Q 3022 478 2636 193 
Q 2250 -91 1575 -91 
Q 1294 -91 989 -36 
Q 684 19 347 128 
L 347 722 
Q 666 556 975 473 
Q 1284 391 1588 391 
Q 1994 391 2212 530 
Q 2431 669 2431 922 
Q 2431 1156 2273 1281 
Q 2116 1406 1581 1522 
L 1381 1569 
Q 847 1681 609 1914 
Q 372 2147 372 2553 
Q 372 3047 722 3315 
Q 1072 3584 1716 3584 
Q 2034 3584 2315 3537 
Q 2597 3491 2834 3397 
z
" id="DejaVuSans-73" transform="scale(0.015625)"/>
      <path d="M 603 4863 
L 1178 4863 
L 1178 0 
L 603 0 
L 603 4863 
z
" id="DejaVuSans-6c" transform="scale(0.015625)"/>
      <path d="M 603 3500 
L 1178 3500 
L 1178 0 
L 603 0 
L 603 3500 
z
M 603 4863 
L 1178 4863 
L 1178 4134 
L 603 4134 
L 603 4863 
z
" id="DejaVuSans-69" transform="scale(0.015625)"/>
      <path d="M 1959 3097 
Q 1497 3097 1228 2736 
Q 959 2375 959 1747 
Q 959 1119 1226 758 
Q 1494 397 1959 397 
Q 2419 397 2687 759 
Q 2956 1122 2956 1747 
Q 2956 2369 2687 2733 
Q 2419 3097 1959 3097 
z
M 1959 3584 
Q 2709 3584 3137 3096 
Q 3566 2609 3566 1747 
Q 3566 888 3137 398 
Q 2709 -91 1959 -91 
Q 1206 -91 779 398 
Q 353 888 353 1747 
Q 353 2609 779 3096 
Q 1206 3584 1959 3584 
z
" id="DejaVuSans-6f" transform="scale(0.015625)"/>
     </defs>
     <use xlink:href="#DejaVuSans-46"/>
     <use x="50.269531" xlink:href="#DejaVuSans-72"/>
     <use x="91.382812" xlink:href="#DejaVuSans-61"/>
     <use x="152.662109" xlink:href="#DejaVuSans-6d"/>
     <use x="250.074219" xlink:href="#DejaVuSans-65"/>
     <use x="311.597656" xlink:href="#DejaVuSans-20"/>
     <use x="343.384766" xlink:href="#DejaVuSans-74"/>
     <use x="382.59375" xlink:href="#DejaVuSans-72"/>
     <use x="423.707031" xlink:href="#DejaVuSans-61"/>
     <use x="484.986328" xlink:href="#DejaVuSans-6e"/>
     <use x="548.365234" xlink:href="#DejaVuSans-73"/>
     <use x="600.464844" xlink:href="#DejaVuSans-6c"/>
     <use x="628.248047" xlink:href="#DejaVuSans-61"/>
     <use x="689.527344" xlink:href="#DejaVuSans-74"/>
     <use x="728.736328" xlink:href="#DejaVuSans-69"/>
     <use x="756.519531" xlink:href="#DejaVuSans-6f"/>
     <use x="817.701172" xlink:href="#DejaVuSans-6e"/>
    </g>
   </g>
   <g id="legend_1">
    <g id="patch_7">
     <path d="M 169.124574 94.89395 
L 330.743636 94.89395 
Q 333.543636 94.89395 333.543636 92.09395 
L 333.543636 52.3952 
Q 333.543636 49.5952 330.743636 49.5952 
L 169.124574 49.5952 
Q 166.324574 49.5952 166.324574 52.3952 
L 166.324574 92.09395 
Q 166.324574 94.89395 169.124574 94.89395 
z
" style="fill:#ffffff;opacity:0.8;stroke:#cccccc;stroke-linejoin:miter;"/>
    </g>
    <g id="line2d_13">
     <path d="M 171.924574 60.933012 
L 199.924574 60.933012 
" style="fill:none;stroke:#ff0000;stroke-linecap:square;stroke-width:1.5;"/>
    </g>
    <g id="line2d_14"/>
    <g id="text_14">
     <!-- artisynth -->
     <g transform="translate(211.124574 65.833012)scale(0.14 -0.14)">
      <defs>
       <path d="M 2059 -325 
Q 1816 -950 1584 -1140 
Q 1353 -1331 966 -1331 
L 506 -1331 
L 506 -850 
L 844 -850 
Q 1081 -850 1212 -737 
Q 1344 -625 1503 -206 
L 1606 56 
L 191 3500 
L 800 3500 
L 1894 763 
L 2988 3500 
L 3597 3500 
L 2059 -325 
z
" id="DejaVuSans-79" transform="scale(0.015625)"/>
       <path d="M 3513 2113 
L 3513 0 
L 2938 0 
L 2938 2094 
Q 2938 2591 2744 2837 
Q 2550 3084 2163 3084 
Q 1697 3084 1428 2787 
Q 1159 2491 1159 1978 
L 1159 0 
L 581 0 
L 581 4863 
L 1159 4863 
L 1159 2956 
Q 1366 3272 1645 3428 
Q 1925 3584 2291 3584 
Q 2894 3584 3203 3211 
Q 3513 2838 3513 2113 
z
" id="DejaVuSans-68" transform="scale(0.015625)"/>
      </defs>
      <use xlink:href="#DejaVuSans-61"/>
      <use x="61.279297" xlink:href="#DejaVuSans-72"/>
      <use x="102.392578" xlink:href="#DejaVuSans-74"/>
      <use x="141.601562" xlink:href="#DejaVuSans-69"/>
      <use x="169.384766" xlink:href="#DejaVuSans-73"/>
      <use x="221.484375" xlink:href="#DejaVuSans-79"/>
      <use x="280.664062" xlink:href="#DejaVuSans-6e"/>
      <use x="344.042969" xlink:href="#DejaVuSans-74"/>
      <use x="383.251953" xlink:href="#DejaVuSans-68"/>
     </g>
    </g>
    <g id="line2d_15">
     <path d="M 171.924574 81.482387 
L 199.924574 81.482387 
" style="fill:none;stroke:#008000;stroke-linecap:square;stroke-width:1.5;"/>
    </g>
    <g id="line2d_16"/>
    <g id="text_15">
     <!-- kinematic model -->
     <g transform="translate(211.124574 86.382387)scale(0.14 -0.14)">
      <defs>
       <path d="M 581 4863 
L 1159 4863 
L 1159 1991 
L 2875 3500 
L 3609 3500 
L 1753 1863 
L 3688 0 
L 2938 0 
L 1159 1709 
L 1159 0 
L 581 0 
L 581 4863 
z
" id="DejaVuSans-6b" transform="scale(0.015625)"/>
       <path d="M 3122 3366 
L 3122 2828 
Q 2878 2963 2633 3030 
Q 2388 3097 2138 3097 
Q 1578 3097 1268 2742 
Q 959 2388 959 1747 
Q 959 1106 1268 751 
Q 1578 397 2138 397 
Q 2388 397 2633 464 
Q 2878 531 3122 666 
L 3122 134 
Q 2881 22 2623 -34 
Q 2366 -91 2075 -91 
Q 1284 -91 818 406 
Q 353 903 353 1747 
Q 353 2603 823 3093 
Q 1294 3584 2113 3584 
Q 2378 3584 2631 3529 
Q 2884 3475 3122 3366 
z
" id="DejaVuSans-63" transform="scale(0.015625)"/>
       <path d="M 2906 2969 
L 2906 4863 
L 3481 4863 
L 3481 0 
L 2906 0 
L 2906 525 
Q 2725 213 2448 61 
Q 2172 -91 1784 -91 
Q 1150 -91 751 415 
Q 353 922 353 1747 
Q 353 2572 751 3078 
Q 1150 3584 1784 3584 
Q 2172 3584 2448 3432 
Q 2725 3281 2906 2969 
z
M 947 1747 
Q 947 1113 1208 752 
Q 1469 391 1925 391 
Q 2381 391 2643 752 
Q 2906 1113 2906 1747 
Q 2906 2381 2643 2742 
Q 2381 3103 1925 3103 
Q 1469 3103 1208 2742 
Q 947 2381 947 1747 
z
" id="DejaVuSans-64" transform="scale(0.015625)"/>
      </defs>
      <use xlink:href="#DejaVuSans-6b"/>
      <use x="57.910156" xlink:href="#DejaVuSans-69"/>
      <use x="85.693359" xlink:href="#DejaVuSans-6e"/>
      <use x="149.072266" xlink:href="#DejaVuSans-65"/>
      <use x="210.595703" xlink:href="#DejaVuSans-6d"/>
      <use x="308.007812" xlink:href="#DejaVuSans-61"/>
      <use x="369.287109" xlink:href="#DejaVuSans-74"/>
      <use x="408.496094" xlink:href="#DejaVuSans-69"/>
      <use x="436.279297" xlink:href="#DejaVuSans-63"/>
      <use x="491.259766" xlink:href="#DejaVuSans-20"/>
      <use x="523.046875" xlink:href="#DejaVuSans-6d"/>
      <use x="620.458984" xlink:href="#DejaVuSans-6f"/>
      <use x="681.640625" xlink:href="#DejaVuSans-64"/>
      <use x="745.117188" xlink:href="#DejaVuSans-65"/>
      <use x="806.640625" xlink:href="#DejaVuSans-6c"/>
     </g>
    </g>
   </g>
  </g>
  <g id="axes_2">
   <g id="patch_8">
    <path d="M 390.814364 315.9144 
L 642.168 315.9144 
L 642.168 42.5952 
L 390.814364 42.5952 
z
" style="fill:#ffffff;"/>
   </g>
   <g id="matplotlib.axis_3">
    <g id="xtick_6">
     <g id="line2d_17">
      <g>
       <use style="stroke:#000000;stroke-width:0.8;" x="402.239529" xlink:href="#m2011015e40" y="315.9144"/>
      </g>
     </g>
     <g id="text_16">
      <!-- 0.00 -->
      <g transform="translate(386.653591 333.552212)scale(0.14 -0.14)">
       <defs>
        <path d="M 684 794 
L 1344 794 
L 1344 0 
L 684 0 
L 684 794 
z
" id="DejaVuSans-2e" transform="scale(0.015625)"/>
       </defs>
       <use xlink:href="#DejaVuSans-30"/>
       <use x="63.623047" xlink:href="#DejaVuSans-2e"/>
       <use x="95.410156" xlink:href="#DejaVuSans-30"/>
       <use x="159.033203" xlink:href="#DejaVuSans-30"/>
      </g>
     </g>
    </g>
    <g id="xtick_7">
     <g id="line2d_18">
      <g>
       <use style="stroke:#000000;stroke-width:0.8;" x="459.365355" xlink:href="#m2011015e40" y="315.9144"/>
      </g>
     </g>
     <g id="text_17">
      <!-- 0.25 -->
      <g transform="translate(443.779418 333.552212)scale(0.14 -0.14)">
       <defs>
        <path d="M 691 4666 
L 3169 4666 
L 3169 4134 
L 1269 4134 
L 1269 2991 
Q 1406 3038 1543 3061 
Q 1681 3084 1819 3084 
Q 2600 3084 3056 2656 
Q 3513 2228 3513 1497 
Q 3513 744 3044 326 
Q 2575 -91 1722 -91 
Q 1428 -91 1123 -41 
Q 819 9 494 109 
L 494 744 
Q 775 591 1075 516 
Q 1375 441 1709 441 
Q 2250 441 2565 725 
Q 2881 1009 2881 1497 
Q 2881 1984 2565 2268 
Q 2250 2553 1709 2553 
Q 1456 2553 1204 2497 
Q 953 2441 691 2322 
L 691 4666 
z
" id="DejaVuSans-35" transform="scale(0.015625)"/>
       </defs>
       <use xlink:href="#DejaVuSans-30"/>
       <use x="63.623047" xlink:href="#DejaVuSans-2e"/>
       <use x="95.410156" xlink:href="#DejaVuSans-32"/>
       <use x="159.033203" xlink:href="#DejaVuSans-35"/>
      </g>
     </g>
    </g>
    <g id="xtick_8">
     <g id="line2d_19">
      <g>
       <use style="stroke:#000000;stroke-width:0.8;" x="516.491182" xlink:href="#m2011015e40" y="315.9144"/>
      </g>
     </g>
     <g id="text_18">
      <!-- 0.50 -->
      <g transform="translate(500.905244 333.552212)scale(0.14 -0.14)">
       <use xlink:href="#DejaVuSans-30"/>
       <use x="63.623047" xlink:href="#DejaVuSans-2e"/>
       <use x="95.410156" xlink:href="#DejaVuSans-35"/>
       <use x="159.033203" xlink:href="#DejaVuSans-30"/>
      </g>
     </g>
    </g>
    <g id="xtick_9">
     <g id="line2d_20">
      <g>
       <use style="stroke:#000000;stroke-width:0.8;" x="573.617008" xlink:href="#m2011015e40" y="315.9144"/>
      </g>
     </g>
     <g id="text_19">
      <!-- 0.75 -->
      <g transform="translate(558.031071 333.552212)scale(0.14 -0.14)">
       <defs>
        <path d="M 525 4666 
L 3525 4666 
L 3525 4397 
L 1831 0 
L 1172 0 
L 2766 4134 
L 525 4134 
L 525 4666 
z
" id="DejaVuSans-37" transform="scale(0.015625)"/>
       </defs>
       <use xlink:href="#DejaVuSans-30"/>
       <use x="63.623047" xlink:href="#DejaVuSans-2e"/>
       <use x="95.410156" xlink:href="#DejaVuSans-37"/>
       <use x="159.033203" xlink:href="#DejaVuSans-35"/>
      </g>
     </g>
    </g>
    <g id="xtick_10">
     <g id="line2d_21">
      <g>
       <use style="stroke:#000000;stroke-width:0.8;" x="630.742835" xlink:href="#m2011015e40" y="315.9144"/>
      </g>
     </g>
     <g id="text_20">
      <!-- 1.00 -->
      <g transform="translate(615.156897 333.552212)scale(0.14 -0.14)">
       <defs>
        <path d="M 794 531 
L 1825 531 
L 1825 4091 
L 703 3866 
L 703 4441 
L 1819 4666 
L 2450 4666 
L 2450 531 
L 3481 531 
L 3481 0 
L 794 0 
L 794 531 
z
" id="DejaVuSans-31" transform="scale(0.015625)"/>
       </defs>
       <use xlink:href="#DejaVuSans-31"/>
       <use x="63.623047" xlink:href="#DejaVuSans-2e"/>
       <use x="95.410156" xlink:href="#DejaVuSans-30"/>
       <use x="159.033203" xlink:href="#DejaVuSans-30"/>
      </g>
     </g>
    </g>
    <g id="text_21">
     <!-- Time (s) -->
     <g transform="translate(488.030713 351.101587)scale(0.14 -0.14)">
      <defs>
       <path d="M -19 4666 
L 3928 4666 
L 3928 4134 
L 2272 4134 
L 2272 0 
L 1638 0 
L 1638 4134 
L -19 4134 
L -19 4666 
z
" id="DejaVuSans-54" transform="scale(0.015625)"/>
      </defs>
      <use xlink:href="#DejaVuSans-54"/>
      <use x="57.958984" xlink:href="#DejaVuSans-69"/>
      <use x="85.742188" xlink:href="#DejaVuSans-6d"/>
      <use x="183.154297" xlink:href="#DejaVuSans-65"/>
      <use x="244.677734" xlink:href="#DejaVuSans-20"/>
      <use x="276.464844" xlink:href="#DejaVuSans-28"/>
      <use x="315.478516" xlink:href="#DejaVuSans-73"/>
      <use x="367.578125" xlink:href="#DejaVuSans-29"/>
     </g>
    </g>
   </g>
   <g id="matplotlib.axis_4">
    <g id="ytick_6">
     <g id="line2d_22">
      <g>
       <use style="stroke:#000000;stroke-width:0.8;" x="390.814364" xlink:href="#mb237caf144" y="313.959416"/>
      </g>
     </g>
     <g id="text_22">
      <!-- −5 -->
      <g transform="translate(363.175301 319.278322)scale(0.14 -0.14)">
       <use xlink:href="#DejaVuSans-2212"/>
       <use x="83.789062" xlink:href="#DejaVuSans-35"/>
      </g>
     </g>
    </g>
    <g id="ytick_7">
     <g id="line2d_23">
      <g>
       <use style="stroke:#000000;stroke-width:0.8;" x="390.814364" xlink:href="#mb237caf144" y="254.992549"/>
      </g>
     </g>
     <g id="text_23">
      <!-- 0 -->
      <g transform="translate(374.906864 260.311456)scale(0.14 -0.14)">
       <use xlink:href="#DejaVuSans-30"/>
      </g>
     </g>
    </g>
    <g id="ytick_8">
     <g id="line2d_24">
      <g>
       <use style="stroke:#000000;stroke-width:0.8;" x="390.814364" xlink:href="#mb237caf144" y="196.025683"/>
      </g>
     </g>
     <g id="text_24">
      <!-- 5 -->
      <g transform="translate(374.906864 201.344589)scale(0.14 -0.14)">
       <use xlink:href="#DejaVuSans-35"/>
      </g>
     </g>
    </g>
    <g id="ytick_9">
     <g id="line2d_25">
      <g>
       <use style="stroke:#000000;stroke-width:0.8;" x="390.814364" xlink:href="#mb237caf144" y="137.058816"/>
      </g>
     </g>
     <g id="text_25">
      <!-- 10 -->
      <g transform="translate(365.999364 142.377722)scale(0.14 -0.14)">
       <use xlink:href="#DejaVuSans-31"/>
       <use x="63.623047" xlink:href="#DejaVuSans-30"/>
      </g>
     </g>
    </g>
    <g id="ytick_10">
     <g id="line2d_26">
      <g>
       <use style="stroke:#000000;stroke-width:0.8;" x="390.814364" xlink:href="#mb237caf144" y="78.091949"/>
      </g>
     </g>
     <g id="text_26">
      <!-- 15 -->
      <g transform="translate(365.999364 83.410855)scale(0.14 -0.14)">
       <use xlink:href="#DejaVuSans-31"/>
       <use x="63.623047" xlink:href="#DejaVuSans-35"/>
      </g>
     </g>
    </g>
    <g id="text_27">
     <!-- Angle (deg) -->
     <g transform="translate(356.263739 220.057144)rotate(-90)scale(0.14 -0.14)">
      <defs>
       <path d="M 2188 4044 
L 1331 1722 
L 3047 1722 
L 2188 4044 
z
M 1831 4666 
L 2547 4666 
L 4325 0 
L 3669 0 
L 3244 1197 
L 1141 1197 
L 716 0 
L 50 0 
L 1831 4666 
z
" id="DejaVuSans-41" transform="scale(0.015625)"/>
       <path d="M 2906 1791 
Q 2906 2416 2648 2759 
Q 2391 3103 1925 3103 
Q 1463 3103 1205 2759 
Q 947 2416 947 1791 
Q 947 1169 1205 825 
Q 1463 481 1925 481 
Q 2391 481 2648 825 
Q 2906 1169 2906 1791 
z
M 3481 434 
Q 3481 -459 3084 -895 
Q 2688 -1331 1869 -1331 
Q 1566 -1331 1297 -1286 
Q 1028 -1241 775 -1147 
L 775 -588 
Q 1028 -725 1275 -790 
Q 1522 -856 1778 -856 
Q 2344 -856 2625 -561 
Q 2906 -266 2906 331 
L 2906 616 
Q 2728 306 2450 153 
Q 2172 0 1784 0 
Q 1141 0 747 490 
Q 353 981 353 1791 
Q 353 2603 747 3093 
Q 1141 3584 1784 3584 
Q 2172 3584 2450 3431 
Q 2728 3278 2906 2969 
L 2906 3500 
L 3481 3500 
L 3481 434 
z
" id="DejaVuSans-67" transform="scale(0.015625)"/>
      </defs>
      <use xlink:href="#DejaVuSans-41"/>
      <use x="68.408203" xlink:href="#DejaVuSans-6e"/>
      <use x="131.787109" xlink:href="#DejaVuSans-67"/>
      <use x="195.263672" xlink:href="#DejaVuSans-6c"/>
      <use x="223.046875" xlink:href="#DejaVuSans-65"/>
      <use x="284.570312" xlink:href="#DejaVuSans-20"/>
      <use x="316.357422" xlink:href="#DejaVuSans-28"/>
      <use x="355.371094" xlink:href="#DejaVuSans-64"/>
      <use x="418.847656" xlink:href="#DejaVuSans-65"/>
      <use x="480.371094" xlink:href="#DejaVuSans-67"/>
      <use x="543.847656" xlink:href="#DejaVuSans-29"/>
     </g>
    </g>
   </g>
   <g id="line2d_27">
    <path clip-path="url(#p1f006bf092)" d="M 402.239529 254.992549 
L 404.524562 255.373278 
L 406.809595 256.00719 
L 409.094628 256.536233 
L 411.379661 256.900892 
L 413.664694 257.414325 
L 415.949727 257.844037 
L 418.23476 257.794824 
L 420.519793 257.602318 
L 422.804826 257.310979 
L 425.08986 256.981871 
L 427.374893 256.652087 
L 429.659926 256.353459 
L 431.944959 256.034093 
L 434.229992 255.702456 
L 436.515025 255.436667 
L 438.800058 255.256337 
L 441.085091 255.148928 
L 443.370124 255.086426 
L 445.655157 255.06448 
L 447.94019 255.006222 
L 450.225223 254.881575 
L 452.510256 254.702185 
L 454.795289 254.148609 
L 457.080322 253.05285 
L 459.365355 252.923909 
L 461.650388 252.743742 
L 463.935421 252.320566 
L 466.220455 251.926412 
L 468.505488 251.534529 
L 470.790521 250.982187 
L 473.075554 250.274141 
L 475.360587 249.408538 
L 477.64562 248.516593 
L 479.930653 247.520434 
L 482.215686 246.434835 
L 484.500719 245.207568 
L 486.785752 243.884202 
L 489.070785 242.516225 
L 491.355818 241.101617 
L 493.640851 239.723771 
L 495.925884 238.359849 
L 498.210917 237.07255 
L 500.49595 235.81584 
L 502.780983 234.648679 
L 505.066017 233.015806 
L 507.35105 230.08378 
L 509.636083 229.851697 
L 511.921116 231.662342 
L 514.206149 234.343446 
L 516.491182 238.869719 
L 518.776215 246.077673 
L 521.061248 255.861346 
L 523.346281 254.62395 
L 525.631314 254.986213 
L 527.916347 254.986213 
L 530.20138 254.986213 
L 532.486413 254.986213 
L 534.771446 254.999566 
L 537.056479 254.999566 
L 539.341512 254.999566 
L 541.626545 254.997228 
L 543.911579 254.991231 
L 546.196612 254.991231 
L 548.481645 254.991231 
L 550.766678 254.991231 
L 553.051711 254.991231 
L 555.336744 254.991231 
L 557.621777 254.991231 
L 559.90681 254.991231 
L 562.191843 254.991231 
L 564.476876 254.991231 
L 566.761909 254.9915 
L 569.046942 255.092961 
L 571.331975 255.457838 
L 573.617008 255.940865 
L 575.902041 256.413296 
L 578.187074 256.889912 
L 580.472107 257.482397 
L 582.75714 258.139029 
L 585.042174 258.780865 
L 587.327207 259.372951 
L 589.61224 259.936004 
L 591.897273 260.511587 
L 594.182306 261.095136 
L 596.467339 261.667396 
L 598.752372 262.301336 
L 601.037405 262.971788 
L 603.322438 263.645858 
L 605.607471 264.374554 
L 607.892504 265.083208 
L 610.177537 265.718718 
L 612.46257 266.27985 
L 614.747603 266.795249 
L 617.032636 267.258285 
L 619.317669 266.854737 
L 621.602702 266.175948 
L 623.887736 265.703424 
L 626.172769 265.373887 
L 628.457802 265.100001 
L 630.742835 264.855479 
" style="fill:none;stroke:#ff0000;stroke-linecap:square;stroke-width:1.5;"/>
   </g>
   <g id="line2d_28">
    <path clip-path="url(#p1f006bf092)" d="M 402.239529 254.992549 
L 404.524562 250.708082 
L 406.809595 241.76536 
L 409.094628 231.213828 
L 411.379661 220.229916 
L 413.664694 209.421103 
L 415.949727 199.142354 
L 418.23476 189.475594 
L 420.519793 180.516704 
L 422.804826 172.258896 
L 425.08986 164.594697 
L 427.374893 157.356196 
L 429.659926 150.397739 
L 431.944959 143.520651 
L 434.229992 136.69019 
L 436.515025 130.070139 
L 438.800058 123.783086 
L 441.085091 117.885255 
L 443.370124 112.374004 
L 445.655157 107.088692 
L 447.94019 101.649751 
L 450.225223 96.459183 
L 452.510256 91.748588 
L 454.795289 87.342202 
L 457.080322 82.936187 
L 459.365355 78.242941 
L 461.650388 73.522591 
L 463.935421 68.847562 
L 466.220455 64.507859 
L 468.505488 60.771796 
L 470.790521 57.609454 
L 473.075554 55.685435 
L 475.360587 55.0188 
L 477.64562 55.777612 
L 479.930653 57.93546 
L 482.215686 61.128313 
L 484.500719 64.898897 
L 486.785752 68.857097 
L 489.070785 72.914077 
L 491.355818 77.095029 
L 493.640851 81.467308 
L 495.925884 86.127106 
L 498.210917 91.015952 
L 500.49595 96.090043 
L 502.780983 101.494589 
L 505.066017 109.133574 
L 507.35105 121.408272 
L 509.636083 135.138008 
L 511.921116 149.714421 
L 514.206149 167.507619 
L 516.491182 191.166872 
L 518.776215 222.200956 
L 521.061248 255.523467 
L 523.346281 255.094846 
L 525.631314 254.962374 
L 527.916347 254.962374 
L 530.20138 254.962374 
L 532.486413 254.962374 
L 534.771446 254.949227 
L 537.056479 254.949227 
L 539.341512 254.949227 
L 541.626545 254.952795 
L 543.911579 254.961946 
L 546.196612 254.961946 
L 548.481645 254.961946 
L 550.766678 254.961946 
L 553.051711 254.961946 
L 555.336744 254.961946 
L 557.621777 254.961946 
L 559.90681 254.961946 
L 562.191843 254.961946 
L 564.476876 254.961946 
L 566.761909 254.96204 
L 569.046942 254.997232 
L 571.331975 254.986788 
L 573.617008 254.253681 
L 575.902041 252.519261 
L 578.187074 249.813652 
L 580.472107 246.508702 
L 582.75714 242.963196 
L 585.042174 239.440172 
L 587.327207 236.039074 
L 589.61224 232.725199 
L 591.897273 229.405559 
L 594.182306 225.800229 
L 596.467339 221.70273 
L 598.752372 216.881292 
L 601.037405 211.185736 
L 603.322438 204.505132 
L 605.607471 196.886678 
L 607.892504 188.607427 
L 610.177537 180.005613 
L 612.46257 171.345626 
L 614.747603 162.859156 
L 617.032636 154.670756 
L 619.317669 145.996622 
L 621.602702 137.25737 
L 623.887736 129.167677 
L 626.172769 121.802976 
L 628.457802 115.244466 
L 630.742835 109.578007 
" style="fill:none;stroke:#ff0000;stroke-dasharray:7.4,3.2;stroke-dashoffset:0;stroke-width:2;"/>
   </g>
   <g id="line2d_29">
    <path clip-path="url(#p1f006bf092)" d="M 402.239529 254.992549 
L 404.524562 254.43802 
L 406.809595 253.42046 
L 409.094628 252.462651 
L 411.379661 251.704238 
L 413.664694 250.66697 
L 415.949727 249.731521 
L 418.23476 249.717385 
L 420.519793 250.017668 
L 422.804826 250.524351 
L 425.08986 251.137139 
L 427.374893 251.75967 
L 429.659926 252.322687 
L 431.944959 252.947035 
L 434.229992 253.596303 
L 436.515025 254.116657 
L 438.800058 254.469702 
L 441.085091 254.679986 
L 443.370124 254.802352 
L 445.655157 254.835735 
L 447.94019 254.957046 
L 450.225223 255.216603 
L 452.510256 255.590154 
L 454.795289 256.836563 
L 457.080322 259.288247 
L 459.365355 259.71607 
L 461.650388 260.384271 
L 463.935421 261.620508 
L 466.220455 262.941458 
L 468.505488 264.211854 
L 470.790521 265.993973 
L 473.075554 268.14988 
L 475.360587 270.655563 
L 477.64562 273.037687 
L 479.930653 275.326855 
L 482.215686 277.6461 
L 484.500719 280.1265 
L 486.785752 282.768368 
L 489.070785 285.556759 
L 491.355818 288.360539 
L 493.640851 291.03615 
L 495.925884 293.519833 
L 498.210917 295.717188 
L 500.49595 297.673195 
L 502.780983 299.260853 
L 505.066017 300.98593 
L 507.35105 303.4908 
L 509.636083 301.813609 
L 511.921116 297.339701 
L 514.206149 291.178157 
L 516.491182 281.781047 
L 518.776215 268.811435 
L 521.061248 253.657194 
L 523.346281 255.566739 
L 525.631314 255.03383 
L 527.916347 255.03383 
L 530.20138 255.03383 
L 532.486413 255.03383 
L 534.771446 255.014187 
L 537.056479 255.014187 
L 539.341512 255.014187 
L 541.626545 255.012226 
L 543.911579 255.007194 
L 546.196612 255.007194 
L 548.481645 255.007194 
L 550.766678 255.007194 
L 553.051711 255.007194 
L 555.336744 255.007194 
L 557.621777 255.007194 
L 559.90681 255.007194 
L 562.191843 255.007194 
L 564.476876 255.007194 
L 566.761909 255.006798 
L 569.046942 254.857541 
L 571.331975 254.320779 
L 573.617008 253.610215 
L 575.902041 252.915246 
L 578.187074 252.101978 
L 580.472107 251.077461 
L 582.75714 249.804822 
L 585.042174 248.495277 
L 587.327207 247.14313 
L 589.61224 245.760244 
L 591.897273 244.33954 
L 594.182306 242.945906 
L 596.467339 241.565224 
L 598.752372 240.191 
L 601.037405 238.903808 
L 603.322438 237.753329 
L 605.607471 236.77044 
L 607.892504 235.972156 
L 610.177537 235.567451 
L 612.46257 235.386832 
L 614.747603 235.293017 
L 617.032636 235.212158 
L 619.317669 236.148295 
L 621.602702 237.329212 
L 623.887736 238.151236 
L 626.172769 238.724496 
L 628.457802 239.200935 
L 630.742835 239.626292 
" style="fill:none;stroke:#ff0000;stroke-dasharray:1.5,2.475;stroke-dashoffset:0;stroke-width:1.5;"/>
   </g>
   <g id="line2d_30">
    <path clip-path="url(#p1f006bf092)" d="M 402.239529 254.992589 
L 404.524562 255.268546 
L 406.809595 255.745712 
L 409.094628 256.15178 
L 411.379661 256.416974 
L 413.664694 256.613105 
L 415.949727 256.7168 
L 418.23476 256.664542 
L 420.519793 256.52867 
L 422.804826 256.316119 
L 425.08986 256.098608 
L 427.374893 255.890182 
L 429.659926 255.680904 
L 431.944959 255.462854 
L 434.229992 255.235755 
L 436.515025 255.057276 
L 438.800058 254.922871 
L 441.085091 254.859858 
L 443.370124 254.803041 
L 445.655157 254.805292 
L 447.94019 254.747327 
L 450.225223 254.665748 
L 452.510256 254.548589 
L 454.795289 254.29625 
L 457.080322 253.845858 
L 459.365355 253.642597 
L 461.650388 253.42849 
L 463.935421 253.140509 
L 466.220455 252.842671 
L 468.505488 252.507955 
L 470.790521 252.12496 
L 473.075554 251.681321 
L 475.360587 251.116276 
L 477.64562 250.526441 
L 479.930653 249.86533 
L 482.215686 249.124126 
L 484.500719 248.275022 
L 486.785752 247.367065 
L 489.070785 246.41349 
L 491.355818 245.42704 
L 493.640851 244.458385 
L 495.925884 243.486585 
L 498.210917 242.556565 
L 500.49595 241.642445 
L 502.780983 240.773478 
L 505.066017 239.518974 
L 507.35105 237.278067 
L 509.636083 236.990181 
L 511.921116 238.204009 
L 514.206149 240.008896 
L 516.491182 243.091496 
L 518.776215 248.055342 
L 521.061248 254.900562 
L 523.346281 253.9935 
L 525.631314 254.236075 
L 527.916347 254.236073 
L 530.20138 254.236074 
L 532.486413 254.236074 
L 534.771446 253.671174 
L 537.056479 253.675077 
L 539.341512 253.674791 
L 541.626545 253.588164 
L 543.911579 253.433641 
L 546.196612 253.433644 
L 548.481645 253.433643 
L 550.766678 253.433644 
L 553.051711 253.432766 
L 555.336744 253.432949 
L 557.621777 253.432885 
L 559.90681 253.432892 
L 562.191843 253.432889 
L 564.476876 253.432889 
L 566.761909 253.433072 
L 569.046942 253.488662 
L 571.331975 253.760203 
L 573.617008 254.116063 
L 575.902041 254.468977 
L 578.187074 254.867952 
L 580.472107 255.340165 
L 582.75714 255.880427 
L 585.042174 256.387606 
L 587.327207 256.868976 
L 589.61224 257.310075 
L 591.897273 257.745145 
L 594.182306 258.160864 
L 596.467339 258.57637 
L 598.752372 259.010341 
L 601.037405 259.470012 
L 603.322438 259.923014 
L 605.607471 260.390719 
L 607.892504 260.848011 
L 610.177537 261.24521 
L 612.46257 261.5893 
L 614.747603 261.89458 
L 617.032636 262.180454 
L 619.317669 261.876094 
L 621.602702 261.410554 
L 623.887736 261.071894 
L 626.172769 260.839258 
L 628.457802 260.64107 
L 630.742835 260.466346 
" style="fill:none;stroke:#008000;stroke-linecap:square;stroke-width:1.5;"/>
   </g>
   <g id="line2d_31">
    <path clip-path="url(#p1f006bf092)" d="M 402.239529 254.992549 
L 404.524562 250.735382 
L 406.809595 241.788643 
L 409.094628 231.233526 
L 411.379661 220.249945 
L 413.664694 209.448403 
L 415.949727 199.151596 
L 418.23476 189.504725 
L 420.519793 180.541863 
L 422.804826 172.279958 
L 425.08986 164.613015 
L 427.374893 157.371218 
L 429.659926 150.410588 
L 431.944959 143.533666 
L 434.229992 136.704872 
L 436.515025 130.084271 
L 438.800058 123.796861 
L 441.085091 117.888807 
L 443.370124 112.376863 
L 445.655157 107.085871 
L 447.94019 101.658595 
L 450.225223 96.467 
L 452.510256 91.748384 
L 454.795289 87.338224 
L 457.080322 82.9255 
L 459.365355 78.245855 
L 461.650388 73.515361 
L 463.935421 68.843219 
L 466.220455 64.492932 
L 468.505488 60.75025 
L 470.790521 57.591861 
L 473.075554 55.679317 
L 475.360587 55.031273 
L 477.64562 55.808906 
L 479.930653 58.009988 
L 482.215686 61.236025 
L 484.500719 65.049568 
L 486.785752 69.054649 
L 489.070785 73.154153 
L 491.355818 77.394866 
L 493.640851 81.816393 
L 495.925884 86.532621 
L 498.210917 91.465286 
L 500.49595 96.580679 
L 502.780983 102.021143 
L 505.066017 109.69475 
L 507.35105 122.020776 
L 509.636083 135.690512 
L 511.921116 150.158439 
L 514.206149 167.823633 
L 516.491182 191.336598 
L 518.776215 222.265538 
L 521.061248 254.992549 
L 523.346281 254.992549 
L 525.631314 254.989032 
L 527.916347 254.989017 
L 530.20138 254.989017 
L 532.486413 254.989017 
L 534.771446 254.97623 
L 537.056479 254.976229 
L 539.341512 254.976233 
L 541.626545 254.978234 
L 543.911579 254.983252 
L 546.196612 254.983252 
L 548.481645 254.983252 
L 550.766678 254.983252 
L 553.051711 254.983348 
L 555.336744 254.983271 
L 557.621777 254.983284 
L 559.90681 254.983281 
L 562.191843 254.983281 
L 564.476876 254.983281 
L 566.761909 254.98328 
L 569.046942 254.992375 
L 571.331975 254.992549 
L 573.617008 254.288309 
L 575.902041 252.560726 
L 578.187074 249.857813 
L 580.472107 246.548802 
L 582.75714 243.001484 
L 585.042174 239.485678 
L 587.327207 236.078483 
L 589.61224 232.782604 
L 591.897273 229.46397 
L 594.182306 225.867495 
L 596.467339 221.783243 
L 598.752372 216.978245 
L 601.037405 211.288984 
L 603.322438 204.614909 
L 605.607471 197.014656 
L 607.892504 188.734934 
L 610.177537 180.145397 
L 612.46257 171.49173 
L 614.747603 163.001274 
L 617.032636 154.810254 
L 619.317669 146.122294 
L 621.602702 137.37418 
L 623.887736 129.277542 
L 626.172769 121.90811 
L 628.457802 115.341561 
L 630.742835 109.6691 
" style="fill:none;stroke:#008000;stroke-dasharray:5.55,2.4;stroke-dashoffset:0;stroke-width:1.5;"/>
   </g>
   <g id="line2d_32">
    <path clip-path="url(#p1f006bf092)" d="M 402.239529 254.992566 
L 404.524562 254.578109 
L 406.809595 253.8119 
L 409.094628 253.075861 
L 411.379661 252.477002 
L 413.664694 251.984286 
L 415.949727 251.671499 
L 418.23476 251.688735 
L 420.519793 251.918857 
L 422.804826 252.273699 
L 425.08986 252.71099 
L 427.374893 253.161084 
L 429.659926 253.559107 
L 431.944959 254.006857 
L 434.229992 254.479468 
L 436.515025 254.865642 
L 438.800058 255.125501 
L 441.085091 255.293758 
L 443.370124 255.386897 
L 445.655157 255.434876 
L 447.94019 255.535145 
L 450.225223 255.744709 
L 452.510256 256.034045 
L 454.795289 256.648215 
L 457.080322 257.757516 
L 459.365355 258.341163 
L 461.650388 259.02499 
L 463.935421 259.928979 
L 466.220455 260.950953 
L 468.505488 262.107775 
L 470.790521 263.400457 
L 473.075554 264.882629 
L 475.360587 266.609647 
L 477.64562 268.277017 
L 479.930653 269.934281 
L 482.215686 271.639662 
L 484.500719 273.485023 
L 486.785752 275.46564 
L 489.070785 277.547225 
L 491.355818 279.655138 
L 493.640851 281.677858 
L 495.925884 283.580922 
L 498.210917 285.287557 
L 500.49595 286.833789 
L 502.780983 288.12547 
L 505.066017 289.612781 
L 507.35105 291.896557 
L 509.636083 290.801166 
L 511.921116 287.432095 
L 514.206149 282.79132 
L 516.491182 275.729627 
L 518.776215 266.024922 
L 521.061248 255.134454 
L 523.346281 256.434024 
L 525.631314 256.070159 
L 527.916347 256.070163 
L 530.20138 256.070162 
L 532.486413 256.070163 
L 534.771446 256.879993 
L 537.056479 256.883861 
L 539.341512 256.88393 
L 541.626545 256.990041 
L 543.911579 257.233153 
L 546.196612 257.233146 
L 548.481645 257.233147 
L 550.766678 257.233146 
L 553.051711 257.23447 
L 555.336744 257.234086 
L 557.621777 257.234157 
L 559.90681 257.234143 
L 562.191843 257.234148 
L 564.476876 257.234147 
L 566.761909 257.233761 
L 569.046942 257.13044 
L 571.331975 256.766429 
L 573.617008 256.269788 
L 575.902041 255.767302 
L 578.187074 255.182436 
L 580.472107 254.430627 
L 582.75714 253.511938 
L 585.042174 252.558279 
L 587.327207 251.5859 
L 589.61224 250.59312 
L 591.897273 249.576217 
L 594.182306 248.574379 
L 596.467339 247.592395 
L 598.752372 246.602322 
L 601.037405 245.670445 
L 603.322438 244.823534 
L 605.607471 244.069487 
L 607.892504 243.43462 
L 610.177537 243.059421 
L 612.46257 242.831697 
L 614.747603 242.655465 
L 617.032636 242.495023 
L 619.317669 243.114194 
L 621.602702 243.940176 
L 623.887736 244.50299 
L 626.172769 244.892002 
L 628.457802 245.213341 
L 630.742835 245.505321 
" style="fill:none;stroke:#008000;stroke-dasharray:1.5,2.475;stroke-dashoffset:0;stroke-width:1.5;"/>
   </g>
   <g id="patch_9">
    <path d="M 390.814364 315.9144 
L 390.814364 42.5952 
" style="fill:none;stroke:#000000;stroke-linecap:square;stroke-linejoin:miter;stroke-width:0.8;"/>
   </g>
   <g id="patch_10">
    <path d="M 642.168 315.9144 
L 642.168 42.5952 
" style="fill:none;stroke:#000000;stroke-linecap:square;stroke-linejoin:miter;stroke-width:0.8;"/>
   </g>
   <g id="patch_11">
    <path d="M 390.814364 315.9144 
L 642.168 315.9144 
" style="fill:none;stroke:#000000;stroke-linecap:square;stroke-linejoin:miter;stroke-width:0.8;"/>
   </g>
   <g id="patch_12">
    <path d="M 390.814364 42.5952 
L 642.168 42.5952 
" style="fill:none;stroke:#000000;stroke-linecap:square;stroke-linejoin:miter;stroke-width:0.8;"/>
   </g>
   <g id="text_28">
    <!-- Frame rotation -->
    <g transform="translate(454.713119 36.5952)scale(0.168 -0.168)">
     <use xlink:href="#DejaVuSans-46"/>
     <use x="50.269531" xlink:href="#DejaVuSans-72"/>
     <use x="91.382812" xlink:href="#DejaVuSans-61"/>
     <use x="152.662109" xlink:href="#DejaVuSans-6d"/>
     <use x="250.074219" xlink:href="#DejaVuSans-65"/>
     <use x="311.597656" xlink:href="#DejaVuSans-20"/>
     <use x="343.384766" xlink:href="#DejaVuSans-72"/>
     <use x="382.248047" xlink:href="#DejaVuSans-6f"/>
     <use x="443.429688" xlink:href="#DejaVuSans-74"/>
     <use x="482.638672" xlink:href="#DejaVuSans-61"/>
     <use x="543.917969" xlink:href="#DejaVuSans-74"/>
     <use x="583.126953" xlink:href="#DejaVuSans-69"/>
     <use x="610.910156" xlink:href="#DejaVuSans-6f"/>
     <use x="672.091797" xlink:href="#DejaVuSans-6e"/>
    </g>
   </g>
   <g id="legend_2">
    <g id="patch_13">
     <path d="M 529.072062 177.09145 
L 632.368 177.09145 
Q 635.168 177.09145 635.168 174.29145 
L 635.168 52.3952 
Q 635.168 49.5952 632.368 49.5952 
L 529.072062 49.5952 
Q 526.272062 49.5952 526.272062 52.3952 
L 526.272062 174.29145 
Q 526.272062 177.09145 529.072062 177.09145 
z
" style="fill:#ffffff;opacity:0.8;stroke:#cccccc;stroke-linejoin:miter;"/>
    </g>
    <g id="line2d_33">
     <path d="M 531.872062 60.933012 
L 559.872062 60.933012 
" style="fill:none;stroke:#ff0000;stroke-linecap:square;stroke-width:1.5;"/>
    </g>
    <g id="line2d_34"/>
    <g id="text_29">
     <!-- roll (x) -->
     <g transform="translate(571.072063 65.833012)scale(0.14 -0.14)">
      <defs>
       <path d="M 3513 3500 
L 2247 1797 
L 3578 0 
L 2900 0 
L 1881 1375 
L 863 0 
L 184 0 
L 1544 1831 
L 300 3500 
L 978 3500 
L 1906 2253 
L 2834 3500 
L 3513 3500 
z
" id="DejaVuSans-78" transform="scale(0.015625)"/>
      </defs>
      <use xlink:href="#DejaVuSans-72"/>
      <use x="38.863281" xlink:href="#DejaVuSans-6f"/>
      <use x="100.044922" xlink:href="#DejaVuSans-6c"/>
      <use x="127.828125" xlink:href="#DejaVuSans-6c"/>
      <use x="155.611328" xlink:href="#DejaVuSans-20"/>
      <use x="187.398438" xlink:href="#DejaVuSans-28"/>
      <use x="226.412109" xlink:href="#DejaVuSans-78"/>
      <use x="285.591797" xlink:href="#DejaVuSans-29"/>
     </g>
    </g>
    <g id="line2d_35">
     <path d="M 531.872062 81.482387 
L 559.872062 81.482387 
" style="fill:none;stroke:#ff0000;stroke-dasharray:7.4,3.2;stroke-dashoffset:0;stroke-width:2;"/>
    </g>
    <g id="line2d_36"/>
    <g id="text_30">
     <!-- pitch (y) -->
     <g transform="translate(571.072063 86.382387)scale(0.14 -0.14)">
      <defs>
       <path d="M 1159 525 
L 1159 -1331 
L 581 -1331 
L 581 3500 
L 1159 3500 
L 1159 2969 
Q 1341 3281 1617 3432 
Q 1894 3584 2278 3584 
Q 2916 3584 3314 3078 
Q 3713 2572 3713 1747 
Q 3713 922 3314 415 
Q 2916 -91 2278 -91 
Q 1894 -91 1617 61 
Q 1341 213 1159 525 
z
M 3116 1747 
Q 3116 2381 2855 2742 
Q 2594 3103 2138 3103 
Q 1681 3103 1420 2742 
Q 1159 2381 1159 1747 
Q 1159 1113 1420 752 
Q 1681 391 2138 391 
Q 2594 391 2855 752 
Q 3116 1113 3116 1747 
z
" id="DejaVuSans-70" transform="scale(0.015625)"/>
      </defs>
      <use xlink:href="#DejaVuSans-70"/>
      <use x="63.476562" xlink:href="#DejaVuSans-69"/>
      <use x="91.259766" xlink:href="#DejaVuSans-74"/>
      <use x="130.46875" xlink:href="#DejaVuSans-63"/>
      <use x="185.449219" xlink:href="#DejaVuSans-68"/>
      <use x="248.828125" xlink:href="#DejaVuSans-20"/>
      <use x="280.615234" xlink:href="#DejaVuSans-28"/>
      <use x="319.628906" xlink:href="#DejaVuSans-79"/>
      <use x="378.808594" xlink:href="#DejaVuSans-29"/>
     </g>
    </g>
    <g id="line2d_37">
     <path d="M 531.872062 102.031762 
L 559.872062 102.031762 
" style="fill:none;stroke:#ff0000;stroke-dasharray:1.5,2.475;stroke-dashoffset:0;stroke-width:1.5;"/>
    </g>
    <g id="line2d_38"/>
    <g id="text_31">
     <!-- yaw (z) -->
     <g transform="translate(571.072063 106.931762)scale(0.14 -0.14)">
      <defs>
       <path d="M 269 3500 
L 844 3500 
L 1563 769 
L 2278 3500 
L 2956 3500 
L 3675 769 
L 4391 3500 
L 4966 3500 
L 4050 0 
L 3372 0 
L 2619 2869 
L 1863 0 
L 1184 0 
L 269 3500 
z
" id="DejaVuSans-77" transform="scale(0.015625)"/>
       <path d="M 353 3500 
L 3084 3500 
L 3084 2975 
L 922 459 
L 3084 459 
L 3084 0 
L 275 0 
L 275 525 
L 2438 3041 
L 353 3041 
L 353 3500 
z
" id="DejaVuSans-7a" transform="scale(0.015625)"/>
      </defs>
      <use xlink:href="#DejaVuSans-79"/>
      <use x="59.179688" xlink:href="#DejaVuSans-61"/>
      <use x="120.458984" xlink:href="#DejaVuSans-77"/>
      <use x="202.246094" xlink:href="#DejaVuSans-20"/>
      <use x="234.033203" xlink:href="#DejaVuSans-28"/>
      <use x="273.046875" xlink:href="#DejaVuSans-7a"/>
      <use x="325.537109" xlink:href="#DejaVuSans-29"/>
     </g>
    </g>
    <g id="line2d_39">
     <path d="M 531.872062 122.581137 
L 559.872062 122.581137 
" style="fill:none;stroke:#008000;stroke-linecap:square;stroke-width:1.5;"/>
    </g>
    <g id="line2d_40"/>
    <g id="text_32">
     <!-- roll (x) -->
     <g transform="translate(571.072063 127.481137)scale(0.14 -0.14)">
      <use xlink:href="#DejaVuSans-72"/>
      <use x="38.863281" xlink:href="#DejaVuSans-6f"/>
      <use x="100.044922" xlink:href="#DejaVuSans-6c"/>
      <use x="127.828125" xlink:href="#DejaVuSans-6c"/>
      <use x="155.611328" xlink:href="#DejaVuSans-20"/>
      <use x="187.398438" xlink:href="#DejaVuSans-28"/>
      <use x="226.412109" xlink:href="#DejaVuSans-78"/>
      <use x="285.591797" xlink:href="#DejaVuSans-29"/>
     </g>
    </g>
    <g id="line2d_41">
     <path d="M 531.872062 143.130512 
L 559.872062 143.130512 
" style="fill:none;stroke:#008000;stroke-dasharray:5.55,2.4;stroke-dashoffset:0;stroke-width:1.5;"/>
    </g>
    <g id="line2d_42"/>
    <g id="text_33">
     <!-- pitch (y) -->
     <g transform="translate(571.072063 148.030512)scale(0.14 -0.14)">
      <use xlink:href="#DejaVuSans-70"/>
      <use x="63.476562" xlink:href="#DejaVuSans-69"/>
      <use x="91.259766" xlink:href="#DejaVuSans-74"/>
      <use x="130.46875" xlink:href="#DejaVuSans-63"/>
      <use x="185.449219" xlink:href="#DejaVuSans-68"/>
      <use x="248.828125" xlink:href="#DejaVuSans-20"/>
      <use x="280.615234" xlink:href="#DejaVuSans-28"/>
      <use x="319.628906" xlink:href="#DejaVuSans-79"/>
      <use x="378.808594" xlink:href="#DejaVuSans-29"/>
     </g>
    </g>
    <g id="line2d_43">
     <path d="M 531.872062 163.679887 
L 559.872062 163.679887 
" style="fill:none;stroke:#008000;stroke-dasharray:1.5,2.475;stroke-dashoffset:0;stroke-width:1.5;"/>
    </g>
    <g id="line2d_44"/>
    <g id="text_34">
     <!-- yaw (z) -->
     <g transform="translate(571.072063 168.579887)scale(0.14 -0.14)">
      <use xlink:href="#DejaVuSans-79"/>
      <use x="59.179688" xlink:href="#DejaVuSans-61"/>
      <use x="120.458984" xlink:href="#DejaVuSans-77"/>
      <use x="202.246094" xlink:href="#DejaVuSans-20"/>
      <use x="234.033203" xlink:href="#DejaVuSans-28"/>
      <use x="273.046875" xlink:href="#DejaVuSans-7a"/>
      <use x="325.537109" xlink:href="#DejaVuSans-29"/>
     </g>
    </g>
   </g>
  </g>
 </g>
 <defs>
  <clipPath id="pe59503433f">
   <rect height="273.3192" width="251.353636" x="89.19" y="42.5952"/>
  </clipPath>
  <clipPath id="p1f006bf092">
   <rect height="273.3192" width="251.353636" x="390.814364" y="42.5952"/>
  </clipPath>
 </defs>
</svg>
