<?xml version="1.0" encoding="utf-8" standalone="no"?>
<!DOCTYPE svg PUBLIC "-//W3C//DTD SVG 1.1//EN"
  "http://www.w3.org/Graphics/SVG/1.1/DTD/svg11.dtd">
<svg height="379.44pt" version="1.1" viewBox="0 0 730.08 379.44" width="730.08pt" xmlns="http://www.w3.org/2000/svg" xmlns:xlink="http://www.w3.org/1999/xlink">
 <metadata>
  <rdf:RDF xmlns:cc="http://creativecommons.org/ns#" xmlns:dc="http://purl.org/dc/elements/1.1/" xmlns:rdf="http://www.w3.org/1999/02/22-rdf-syntax-ns#">
   <cc:Work>
    <dc:type rdf:resource="http://purl.org/dc/dcmitype/StillImage"/>
    <dc:date>2021-05-05T08:26:54.060760</dc:date>
    <dc:format>image/svg+xml</dc:format>
    <dc:creator>
     <cc:Agent>
      <dc:title>Matplotlib v3.4.1, https://matplotlib.org/</dc:title>
     </cc:Agent>
    </dc:creator>
   </cc:Work>
  </rdf:RDF>
 </metadata>
 <defs>
  <style type="text/css">*{stroke-linecap:butt;stroke-linejoin:round;}</style>
 </defs>
 <g id="figure_1">
  <g id="patch_1">
   <path d="M 0 379.44 
L 730.08 379.44 
L 730.08 0 
L 0 0 
z
" style="fill:#ffffff;"/>
  </g>
  <g id="axes_1">
   <g id="patch_2">
    <path d="M 91.26 337.7016 
L 348.447273 337.7016 
L 348.447273 45.5328 
L 91.26 45.5328 
z
" style="fill:#ffffff;"/>
   </g>
   <g id="PathCollection_1">
    <defs>
     <path d="M 0 3 
C 0.795609 3 1.55874 2.683901 2.12132 2.12132 
C 2.683901 1.55874 3 0.795609 3 0 
C 3 -0.795609 2.683901 -1.55874 2.12132 -2.12132 
C 1.55874 -2.683901 0.795609 -3 0 -3 
C -0.795609 -3 -1.55874 -2.683901 -2.12132 -2.12132 
C -2.683901 -1.55874 -3 -0.795609 -3 0 
C -3 0.795609 -2.683901 1.55874 -2.12132 2.12132 
C -1.55874 2.683901 -0.795609 3 0 3 
z
" id="m20a67e7dba" style="stroke:#0000ff;"/>
    </defs>
    <g clip-path="url(#p6cad9fc982)">
     <use style="fill:#0000ff;stroke:#0000ff;" x="102.950331" xlink:href="#m20a67e7dba" y="147.387954"/>
    </g>
   </g>
   <g id="matplotlib.axis_1">
    <g id="xtick_1">
     <g id="line2d_1">
      <defs>
       <path d="M 0 0 
L 0 3.5 
" id="m95eaebcbab" style="stroke:#000000;stroke-width:0.8;"/>
      </defs>
      <g>
       <use style="stroke:#000000;stroke-width:0.8;" x="102.950331" xlink:href="#m95eaebcbab" y="337.7016"/>
      </g>
     </g>
     <g id="text_1">
      <!-- 0 -->
      <g transform="translate(98.496581 355.339412)scale(0.14 -0.14)">
       <defs>
        <path d="M 2034 4250 
Q 1547 4250 1301 3770 
Q 1056 3291 1056 2328 
Q 1056 1369 1301 889 
Q 1547 409 2034 409 
Q 2525 409 2770 889 
Q 3016 1369 3016 2328 
Q 3016 3291 2770 3770 
Q 2525 4250 2034 4250 
z
M 2034 4750 
Q 2819 4750 3233 4129 
Q 3647 3509 3647 2328 
Q 3647 1150 3233 529 
Q 2819 -91 2034 -91 
Q 1250 -91 836 529 
Q 422 1150 422 2328 
Q 422 3509 836 4129 
Q 1250 4750 2034 4750 
z
" id="DejaVuSans-30" transform="scale(0.015625)"/>
       </defs>
       <use xlink:href="#DejaVuSans-30"/>
      </g>
     </g>
    </g>
    <g id="xtick_2">
     <g id="line2d_2">
      <g>
       <use style="stroke:#000000;stroke-width:0.8;" x="173.918539" xlink:href="#m95eaebcbab" y="337.7016"/>
      </g>
     </g>
     <g id="text_2">
      <!-- 5 -->
      <g transform="translate(169.464789 355.339412)scale(0.14 -0.14)">
       <defs>
        <path d="M 691 4666 
L 3169 4666 
L 3169 4134 
L 1269 4134 
L 1269 2991 
Q 1406 3038 1543 3061 
Q 1681 3084 1819 3084 
Q 2600 3084 3056 2656 
Q 3513 2228 3513 1497 
Q 3513 744 3044 326 
Q 2575 -91 1722 -91 
Q 1428 -91 1123 -41 
Q 819 9 494 109 
L 494 744 
Q 775 591 1075 516 
Q 1375 441 1709 441 
Q 2250 441 2565 725 
Q 2881 1009 2881 1497 
Q 2881 1984 2565 2268 
Q 2250 2553 1709 2553 
Q 1456 2553 1204 2497 
Q 953 2441 691 2322 
L 691 4666 
z
" id="DejaVuSans-35" transform="scale(0.015625)"/>
       </defs>
       <use xlink:href="#DejaVuSans-35"/>
      </g>
     </g>
    </g>
    <g id="xtick_3">
     <g id="line2d_3">
      <g>
       <use style="stroke:#000000;stroke-width:0.8;" x="244.886748" xlink:href="#m95eaebcbab" y="337.7016"/>
      </g>
     </g>
     <g id="text_3">
      <!-- 10 -->
      <g transform="translate(235.979248 355.339412)scale(0.14 -0.14)">
       <defs>
        <path d="M 794 531 
L 1825 531 
L 1825 4091 
L 703 3866 
L 703 4441 
L 1819 4666 
L 2450 4666 
L 2450 531 
L 3481 531 
L 3481 0 
L 794 0 
L 794 531 
z
" id="DejaVuSans-31" transform="scale(0.015625)"/>
       </defs>
       <use xlink:href="#DejaVuSans-31"/>
       <use x="63.623047" xlink:href="#DejaVuSans-30"/>
      </g>
     </g>
    </g>
    <g id="xtick_4">
     <g id="line2d_4">
      <g>
       <use style="stroke:#000000;stroke-width:0.8;" x="315.854956" xlink:href="#m95eaebcbab" y="337.7016"/>
      </g>
     </g>
     <g id="text_4">
      <!-- 15 -->
      <g transform="translate(306.947456 355.339412)scale(0.14 -0.14)">
       <use xlink:href="#DejaVuSans-31"/>
       <use x="63.623047" xlink:href="#DejaVuSans-35"/>
      </g>
     </g>
    </g>
    <g id="text_5">
     <!-- X (mm) -->
     <g transform="translate(193.734886 372.888787)scale(0.14 -0.14)">
      <defs>
       <path d="M 403 4666 
L 1081 4666 
L 2241 2931 
L 3406 4666 
L 4084 4666 
L 2584 2425 
L 4184 0 
L 3506 0 
L 2194 1984 
L 872 0 
L 191 0 
L 1856 2491 
L 403 4666 
z
" id="DejaVuSans-58" transform="scale(0.015625)"/>
       <path id="DejaVuSans-20" transform="scale(0.015625)"/>
       <path d="M 1984 4856 
Q 1566 4138 1362 3434 
Q 1159 2731 1159 2009 
Q 1159 1288 1364 580 
Q 1569 -128 1984 -844 
L 1484 -844 
Q 1016 -109 783 600 
Q 550 1309 550 2009 
Q 550 2706 781 3412 
Q 1013 4119 1484 4856 
L 1984 4856 
z
" id="DejaVuSans-28" transform="scale(0.015625)"/>
       <path d="M 3328 2828 
Q 3544 3216 3844 3400 
Q 4144 3584 4550 3584 
Q 5097 3584 5394 3201 
Q 5691 2819 5691 2113 
L 5691 0 
L 5113 0 
L 5113 2094 
Q 5113 2597 4934 2840 
Q 4756 3084 4391 3084 
Q 3944 3084 3684 2787 
Q 3425 2491 3425 1978 
L 3425 0 
L 2847 0 
L 2847 2094 
Q 2847 2600 2669 2842 
Q 2491 3084 2119 3084 
Q 1678 3084 1418 2786 
Q 1159 2488 1159 1978 
L 1159 0 
L 581 0 
L 581 3500 
L 1159 3500 
L 1159 2956 
Q 1356 3278 1631 3431 
Q 1906 3584 2284 3584 
Q 2666 3584 2933 3390 
Q 3200 3197 3328 2828 
z
" id="DejaVuSans-6d" transform="scale(0.015625)"/>
       <path d="M 513 4856 
L 1013 4856 
Q 1481 4119 1714 3412 
Q 1947 2706 1947 2009 
Q 1947 1309 1714 600 
Q 1481 -109 1013 -844 
L 513 -844 
Q 928 -128 1133 580 
Q 1338 1288 1338 2009 
Q 1338 2731 1133 3434 
Q 928 4138 513 4856 
z
" id="DejaVuSans-29" transform="scale(0.015625)"/>
      </defs>
      <use xlink:href="#DejaVuSans-58"/>
      <use x="68.505859" xlink:href="#DejaVuSans-20"/>
      <use x="100.292969" xlink:href="#DejaVuSans-28"/>
      <use x="139.306641" xlink:href="#DejaVuSans-6d"/>
      <use x="236.71875" xlink:href="#DejaVuSans-6d"/>
      <use x="334.130859" xlink:href="#DejaVuSans-29"/>
     </g>
    </g>
   </g>
   <g id="matplotlib.axis_2">
    <g id="ytick_1">
     <g id="line2d_5">
      <defs>
       <path d="M 0 0 
L -3.5 0 
" id="m783d151643" style="stroke:#000000;stroke-width:0.8;"/>
      </defs>
      <g>
       <use style="stroke:#000000;stroke-width:0.8;" x="91.26" xlink:href="#m783d151643" y="324.458533"/>
      </g>
     </g>
     <g id="text_6">
      <!-- −12.5 -->
      <g transform="translate(41.356563 329.777439)scale(0.14 -0.14)">
       <defs>
        <path d="M 678 2272 
L 4684 2272 
L 4684 1741 
L 678 1741 
L 678 2272 
z
" id="DejaVuSans-2212" transform="scale(0.015625)"/>
        <path d="M 1228 531 
L 3431 531 
L 3431 0 
L 469 0 
L 469 531 
Q 828 903 1448 1529 
Q 2069 2156 2228 2338 
Q 2531 2678 2651 2914 
Q 2772 3150 2772 3378 
Q 2772 3750 2511 3984 
Q 2250 4219 1831 4219 
Q 1534 4219 1204 4116 
Q 875 4013 500 3803 
L 500 4441 
Q 881 4594 1212 4672 
Q 1544 4750 1819 4750 
Q 2544 4750 2975 4387 
Q 3406 4025 3406 3419 
Q 3406 3131 3298 2873 
Q 3191 2616 2906 2266 
Q 2828 2175 2409 1742 
Q 1991 1309 1228 531 
z
" id="DejaVuSans-32" transform="scale(0.015625)"/>
        <path d="M 684 794 
L 1344 794 
L 1344 0 
L 684 0 
L 684 794 
z
" id="DejaVuSans-2e" transform="scale(0.015625)"/>
       </defs>
       <use xlink:href="#DejaVuSans-2212"/>
       <use x="83.789062" xlink:href="#DejaVuSans-31"/>
       <use x="147.412109" xlink:href="#DejaVuSans-32"/>
       <use x="211.035156" xlink:href="#DejaVuSans-2e"/>
       <use x="242.822266" xlink:href="#DejaVuSans-35"/>
      </g>
     </g>
    </g>
    <g id="ytick_2">
     <g id="line2d_6">
      <g>
       <use style="stroke:#000000;stroke-width:0.8;" x="91.26" xlink:href="#m783d151643" y="289.044417"/>
      </g>
     </g>
     <g id="text_7">
      <!-- −10.0 -->
      <g transform="translate(41.356563 294.363324)scale(0.14 -0.14)">
       <use xlink:href="#DejaVuSans-2212"/>
       <use x="83.789062" xlink:href="#DejaVuSans-31"/>
       <use x="147.412109" xlink:href="#DejaVuSans-30"/>
       <use x="211.035156" xlink:href="#DejaVuSans-2e"/>
       <use x="242.822266" xlink:href="#DejaVuSans-30"/>
      </g>
     </g>
    </g>
    <g id="ytick_3">
     <g id="line2d_7">
      <g>
       <use style="stroke:#000000;stroke-width:0.8;" x="91.26" xlink:href="#m783d151643" y="253.630301"/>
      </g>
     </g>
     <g id="text_8">
      <!-- −7.5 -->
      <g transform="translate(50.264063 258.949208)scale(0.14 -0.14)">
       <defs>
        <path d="M 525 4666 
L 3525 4666 
L 3525 4397 
L 1831 0 
L 1172 0 
L 2766 4134 
L 525 4134 
L 525 4666 
z
" id="DejaVuSans-37" transform="scale(0.015625)"/>
       </defs>
       <use xlink:href="#DejaVuSans-2212"/>
       <use x="83.789062" xlink:href="#DejaVuSans-37"/>
       <use x="147.412109" xlink:href="#DejaVuSans-2e"/>
       <use x="179.199219" xlink:href="#DejaVuSans-35"/>
      </g>
     </g>
    </g>
    <g id="ytick_4">
     <g id="line2d_8">
      <g>
       <use style="stroke:#000000;stroke-width:0.8;" x="91.26" xlink:href="#m783d151643" y="218.216186"/>
      </g>
     </g>
     <g id="text_9">
      <!-- −5.0 -->
      <g transform="translate(50.264063 223.535092)scale(0.14 -0.14)">
       <use xlink:href="#DejaVuSans-2212"/>
       <use x="83.789062" xlink:href="#DejaVuSans-35"/>
       <use x="147.412109" xlink:href="#DejaVuSans-2e"/>
       <use x="179.199219" xlink:href="#DejaVuSans-30"/>
      </g>
     </g>
    </g>
    <g id="ytick_5">
     <g id="line2d_9">
      <g>
       <use style="stroke:#000000;stroke-width:0.8;" x="91.26" xlink:href="#m783d151643" y="182.80207"/>
      </g>
     </g>
     <g id="text_10">
      <!-- −2.5 -->
      <g transform="translate(50.264063 188.120976)scale(0.14 -0.14)">
       <use xlink:href="#DejaVuSans-2212"/>
       <use x="83.789062" xlink:href="#DejaVuSans-32"/>
       <use x="147.412109" xlink:href="#DejaVuSans-2e"/>
       <use x="179.199219" xlink:href="#DejaVuSans-35"/>
      </g>
     </g>
    </g>
    <g id="ytick_6">
     <g id="line2d_10">
      <g>
       <use style="stroke:#000000;stroke-width:0.8;" x="91.26" xlink:href="#m783d151643" y="147.387954"/>
      </g>
     </g>
     <g id="text_11">
      <!-- 0.0 -->
      <g transform="translate(61.995625 152.70686)scale(0.14 -0.14)">
       <use xlink:href="#DejaVuSans-30"/>
       <use x="63.623047" xlink:href="#DejaVuSans-2e"/>
       <use x="95.410156" xlink:href="#DejaVuSans-30"/>
      </g>
     </g>
    </g>
    <g id="ytick_7">
     <g id="line2d_11">
      <g>
       <use style="stroke:#000000;stroke-width:0.8;" x="91.26" xlink:href="#m783d151643" y="111.973838"/>
      </g>
     </g>
     <g id="text_12">
      <!-- 2.5 -->
      <g transform="translate(61.995625 117.292744)scale(0.14 -0.14)">
       <use xlink:href="#DejaVuSans-32"/>
       <use x="63.623047" xlink:href="#DejaVuSans-2e"/>
       <use x="95.410156" xlink:href="#DejaVuSans-35"/>
      </g>
     </g>
    </g>
    <g id="ytick_8">
     <g id="line2d_12">
      <g>
       <use style="stroke:#000000;stroke-width:0.8;" x="91.26" xlink:href="#m783d151643" y="76.559722"/>
      </g>
     </g>
     <g id="text_13">
      <!-- 5.0 -->
      <g transform="translate(61.995625 81.878628)scale(0.14 -0.14)">
       <use xlink:href="#DejaVuSans-35"/>
       <use x="63.623047" xlink:href="#DejaVuSans-2e"/>
       <use x="95.410156" xlink:href="#DejaVuSans-30"/>
      </g>
     </g>
    </g>
    <g id="text_14">
     <!-- Z (mm) -->
     <g transform="translate(34.445 217.73595)rotate(-90)scale(0.14 -0.14)">
      <defs>
       <path d="M 359 4666 
L 4025 4666 
L 4025 4184 
L 1075 531 
L 4097 531 
L 4097 0 
L 288 0 
L 288 481 
L 3238 4134 
L 359 4134 
L 359 4666 
z
" id="DejaVuSans-5a" transform="scale(0.015625)"/>
      </defs>
      <use xlink:href="#DejaVuSans-5a"/>
      <use x="68.505859" xlink:href="#DejaVuSans-20"/>
      <use x="100.292969" xlink:href="#DejaVuSans-28"/>
      <use x="139.306641" xlink:href="#DejaVuSans-6d"/>
      <use x="236.71875" xlink:href="#DejaVuSans-6d"/>
      <use x="334.130859" xlink:href="#DejaVuSans-29"/>
     </g>
    </g>
   </g>
   <g id="line2d_13">
    <path clip-path="url(#p6cad9fc982)" d="M 102.950331 147.387954 
L 106.725252 149.947856 
L 115.104604 155.578722 
L 125.64041 162.294216 
L 136.757781 168.990459 
L 147.566759 175.123328 
L 157.608255 180.508912 
L 166.71447 185.152615 
L 174.907457 189.085861 
L 182.255071 192.455001 
L 189.082058 195.501528 
L 195.859547 198.359705 
L 202.404113 201.02123 
L 208.989605 203.601057 
L 215.504575 206.012434 
L 221.663251 208.241818 
L 227.872211 210.373111 
L 233.481282 212.23234 
L 239.152464 214.043106 
L 244.140681 215.572069 
L 249.349674 217.116095 
L 253.711191 218.372033 
L 258.592407 219.712558 
L 262.62315 220.819508 
L 266.831437 221.888779 
L 271.09538 222.971528 
L 274.115333 223.722178 
L 278.137223 224.664602 
L 281.771165 225.516113 
L 283.799142 225.99131 
L 286.441662 226.56401 
L 290.3744 227.412695 
L 292.845373 227.945925 
L 293.687252 228.127605 
L 294.311825 228.262389 
L 296.831807 228.766818 
L 301.431397 229.679233 
L 303.662578 230.12182 
L 303.578058 230.105068 
L 303.707283 230.130709 
L 305.040451 230.39515 
L 308.530595 231.033467 
L 312.331171 231.725269 
L 312.905471 231.829809 
L 312.304039 231.720354 
L 313.012412 231.84929 
L 314.575026 232.133708 
L 315.58164 232.316927 
L 315.990773 232.391396 
L 316.546654 232.492574 
L 317.395861 232.64714 
L 318.168635 232.787794 
L 318.744305 232.892572 
L 319.30686 232.994963 
L 319.936647 233.10959 
L 320.54384 233.220105 
L 321.084126 233.318441 
L 321.604968 233.413238 
L 322.131242 233.509024 
L 322.639305 233.601495 
L 323.118393 233.688691 
L 323.582683 233.773194 
L 324.038054 233.856074 
L 324.482996 233.937055 
L 324.933472 234.019044 
L 325.374515 234.099315 
L 325.791679 234.17524 
L 326.194766 234.248603 
L 326.590812 234.320684 
L 326.974725 234.390557 
L 327.344613 234.457877 
L 327.704302 234.523341 
L 328.054891 234.587149 
L 328.395014 234.649051 
L 328.72519 234.709144 
L 329.04673 234.767664 
L 329.359738 234.824632 
L 329.66419 234.880042 
L 329.960675 234.934002 
L 330.249635 234.986592 
L 330.531211 235.037839 
L 330.805682 235.087793 
L 331.073408 235.136518 
L 331.334619 235.184058 
L 331.589555 235.230456 
L 331.838491 235.275763 
L 332.081597 235.320007 
L 332.319054 235.363224 
L 332.551108 235.405458 
L 332.777943 235.446741 
L 332.999718 235.487104 
L 333.216618 235.526579 
L 333.428813 235.565198 
L 333.63645 235.602988 
L 333.839682 235.639975 
L 334.038653 235.676187 
L 334.233498 235.711649 
L 334.424348 235.746383 
L 334.611329 235.780413 
L 334.794559 235.81376 
L 334.974154 235.846446 
" style="fill:none;stroke:#ff0000;stroke-linecap:square;stroke-width:1.5;"/>
   </g>
   <g id="line2d_14">
    <path clip-path="url(#p6cad9fc982)" d="M 102.950331 147.387954 
L 106.704449 149.990662 
L 115.093913 155.599998 
L 125.626021 162.321605 
L 136.744185 169.015013 
L 147.552652 175.147591 
L 157.597852 180.525964 
L 166.718228 185.146773 
L 174.906647 189.087106 
L 182.252842 192.458259 
L 189.098568 195.478395 
L 195.87784 198.334944 
L 202.438205 200.976259 
L 209.038362 203.538438 
L 215.555655 205.948488 
L 221.74732 208.138952 
L 227.966808 210.259762 
L 233.597695 212.095598 
L 239.306602 213.865496 
L 244.317077 215.372185 
L 249.559272 216.882363 
L 253.943839 218.116417 
L 258.849441 219.434326 
L 262.929861 220.491896 
L 267.148661 221.554285 
L 271.457704 222.594364 
L 274.515046 223.310522 
L 278.562564 224.231638 
L 282.238355 225.04576 
L 284.295151 225.49598 
L 286.958336 226.052401 
L 290.937007 226.861453 
L 293.44165 227.366335 
L 294.299726 227.535191 
L 294.941456 227.655966 
L 297.482512 228.144415 
L 302.137465 229.010964 
L 304.403643 229.425131 
L 304.332147 229.398012 
L 304.453144 229.433097 
L 305.823619 229.66599 
L 309.34964 230.27706 
L 313.205014 230.925198 
L 313.791559 231.021323 
L 313.180733 230.921323 
L 313.910238 231.033594 
L 315.512951 231.285478 
L 316.536013 231.456881 
L 316.952323 231.52707 
L 317.530226 231.610971 
L 318.395795 231.753508 
L 319.195047 231.873145 
L 319.792146 231.961169 
L 320.373008 232.049682 
L 321.016184 232.1547 
L 321.64618 232.247394 
L 322.201905 232.334244 
L 322.739528 232.416417 
L 323.292569 232.490734 
L 323.828224 232.561009 
L 324.324277 232.635343 
L 324.783946 232.725777 
L 325.276769 232.777887 
L 325.752376 232.833969 
L 326.201238 232.919237 
L 326.669897 232.977265 
L 327.102766 233.041368 
L 327.52931 233.096031 
L 327.93229 233.163779 
L 328.342241 233.212747 
L 328.720178 233.274667 
L 329.109176 233.316461 
L 329.469784 233.373152 
L 329.829114 233.419914 
L 330.166529 233.475244 
L 330.504277 233.521252 
L 330.834062 233.56517 
L 331.153212 233.609263 
L 331.464077 233.652175 
L 331.771951 233.689932 
L 332.07375 233.725052 
L 332.362342 233.764151 
L 332.644303 233.801908 
L 332.915994 233.841665 
L 333.181886 233.879912 
L 333.442713 233.916193 
L 333.697623 233.951452 
L 333.95082 233.982326 
L 334.195052 234.015262 
L 334.431583 234.049252 
L 334.667369 234.078776 
L 334.896891 234.108477 
L 335.118767 234.139895 
L 335.341673 234.165653 
L 335.557353 234.193006 
L 335.764887 234.222772 
L 335.973021 234.247998 
L 336.176273 234.273179 
L 336.373377 234.299442 
L 336.575937 234.317356 
L 336.756942 234.349645 
" style="fill:none;stroke:#008000;stroke-linecap:square;stroke-width:1.5;"/>
   </g>
   <g id="patch_3">
    <path d="M 91.26 337.7016 
L 91.26 45.5328 
" style="fill:none;stroke:#000000;stroke-linecap:square;stroke-linejoin:miter;stroke-width:0.8;"/>
   </g>
   <g id="patch_4">
    <path d="M 348.447273 337.7016 
L 348.447273 45.5328 
" style="fill:none;stroke:#000000;stroke-linecap:square;stroke-linejoin:miter;stroke-width:0.8;"/>
   </g>
   <g id="patch_5">
    <path d="M 91.26 337.7016 
L 348.447273 337.7016 
" style="fill:none;stroke:#000000;stroke-linecap:square;stroke-linejoin:miter;stroke-width:0.8;"/>
   </g>
   <g id="patch_6">
    <path d="M 91.26 45.5328 
L 348.447273 45.5328 
" style="fill:none;stroke:#000000;stroke-linecap:square;stroke-linejoin:miter;stroke-width:0.8;"/>
   </g>
   <g id="text_15">
    <!-- Frame translation -->
    <g transform="translate(145.845699 39.5328)scale(0.168 -0.168)">
     <defs>
      <path d="M 628 4666 
L 3309 4666 
L 3309 4134 
L 1259 4134 
L 1259 2759 
L 3109 2759 
L 3109 2228 
L 1259 2228 
L 1259 0 
L 628 0 
L 628 4666 
z
" id="DejaVuSans-46" transform="scale(0.015625)"/>
      <path d="M 2631 2963 
Q 2534 3019 2420 3045 
Q 2306 3072 2169 3072 
Q 1681 3072 1420 2755 
Q 1159 2438 1159 1844 
L 1159 0 
L 581 0 
L 581 3500 
L 1159 3500 
L 1159 2956 
Q 1341 3275 1631 3429 
Q 1922 3584 2338 3584 
Q 2397 3584 2469 3576 
Q 2541 3569 2628 3553 
L 2631 2963 
z
" id="DejaVuSans-72" transform="scale(0.015625)"/>
      <path d="M 2194 1759 
Q 1497 1759 1228 1600 
Q 959 1441 959 1056 
Q 959 750 1161 570 
Q 1363 391 1709 391 
Q 2188 391 2477 730 
Q 2766 1069 2766 1631 
L 2766 1759 
L 2194 1759 
z
M 3341 1997 
L 3341 0 
L 2766 0 
L 2766 531 
Q 2569 213 2275 61 
Q 1981 -91 1556 -91 
Q 1019 -91 701 211 
Q 384 513 384 1019 
Q 384 1609 779 1909 
Q 1175 2209 1959 2209 
L 2766 2209 
L 2766 2266 
Q 2766 2663 2505 2880 
Q 2244 3097 1772 3097 
Q 1472 3097 1187 3025 
Q 903 2953 641 2809 
L 641 3341 
Q 956 3463 1253 3523 
Q 1550 3584 1831 3584 
Q 2591 3584 2966 3190 
Q 3341 2797 3341 1997 
z
" id="DejaVuSans-61" transform="scale(0.015625)"/>
      <path d="M 3597 1894 
L 3597 1613 
L 953 1613 
Q 991 1019 1311 708 
Q 1631 397 2203 397 
Q 2534 397 2845 478 
Q 3156 559 3463 722 
L 3463 178 
Q 3153 47 2828 -22 
Q 2503 -91 2169 -91 
Q 1331 -91 842 396 
Q 353 884 353 1716 
Q 353 2575 817 3079 
Q 1281 3584 2069 3584 
Q 2775 3584 3186 3129 
Q 3597 2675 3597 1894 
z
M 3022 2063 
Q 3016 2534 2758 2815 
Q 2500 3097 2075 3097 
Q 1594 3097 1305 2825 
Q 1016 2553 972 2059 
L 3022 2063 
z
" id="DejaVuSans-65" transform="scale(0.015625)"/>
      <path d="M 1172 4494 
L 1172 3500 
L 2356 3500 
L 2356 3053 
L 1172 3053 
L 1172 1153 
Q 1172 725 1289 603 
Q 1406 481 1766 481 
L 2356 481 
L 2356 0 
L 1766 0 
Q 1100 0 847 248 
Q 594 497 594 1153 
L 594 3053 
L 172 3053 
L 172 3500 
L 594 3500 
L 594 4494 
L 1172 4494 
z
" id="DejaVuSans-74" transform="scale(0.015625)"/>
      <path d="M 3513 2113 
L 3513 0 
L 2938 0 
L 2938 2094 
Q 2938 2591 2744 2837 
Q 2550 3084 2163 3084 
Q 1697 3084 1428 2787 
Q 1159 2491 1159 1978 
L 1159 0 
L 581 0 
L 581 3500 
L 1159 3500 
L 1159 2956 
Q 1366 3272 1645 3428 
Q 1925 3584 2291 3584 
Q 2894 3584 3203 3211 
Q 3513 2838 3513 2113 
z
" id="DejaVuSans-6e" transform="scale(0.015625)"/>
      <path d="M 2834 3397 
L 2834 2853 
Q 2591 2978 2328 3040 
Q 2066 3103 1784 3103 
Q 1356 3103 1142 2972 
Q 928 2841 928 2578 
Q 928 2378 1081 2264 
Q 1234 2150 1697 2047 
L 1894 2003 
Q 2506 1872 2764 1633 
Q 3022 1394 3022 966 
Q 3022 478 2636 193 
Q 2250 -91 1575 -91 
Q 1294 -91 989 -36 
Q 684 19 347 128 
L 347 722 
Q 666 556 975 473 
Q 1284 391 1588 391 
Q 1994 391 2212 530 
Q 2431 669 2431 922 
Q 2431 1156 2273 1281 
Q 2116 1406 1581 1522 
L 1381 1569 
Q 847 1681 609 1914 
Q 372 2147 372 2553 
Q 372 3047 722 3315 
Q 1072 3584 1716 3584 
Q 2034 3584 2315 3537 
Q 2597 3491 2834 3397 
z
" id="DejaVuSans-73" transform="scale(0.015625)"/>
      <path d="M 603 4863 
L 1178 4863 
L 1178 0 
L 603 0 
L 603 4863 
z
" id="DejaVuSans-6c" transform="scale(0.015625)"/>
      <path d="M 603 3500 
L 1178 3500 
L 1178 0 
L 603 0 
L 603 3500 
z
M 603 4863 
L 1178 4863 
L 1178 4134 
L 603 4134 
L 603 4863 
z
" id="DejaVuSans-69" transform="scale(0.015625)"/>
      <path d="M 1959 3097 
Q 1497 3097 1228 2736 
Q 959 2375 959 1747 
Q 959 1119 1226 758 
Q 1494 397 1959 397 
Q 2419 397 2687 759 
Q 2956 1122 2956 1747 
Q 2956 2369 2687 2733 
Q 2419 3097 1959 3097 
z
M 1959 3584 
Q 2709 3584 3137 3096 
Q 3566 2609 3566 1747 
Q 3566 888 3137 398 
Q 2709 -91 1959 -91 
Q 1206 -91 779 398 
Q 353 888 353 1747 
Q 353 2609 779 3096 
Q 1206 3584 1959 3584 
z
" id="DejaVuSans-6f" transform="scale(0.015625)"/>
     </defs>
     <use xlink:href="#DejaVuSans-46"/>
     <use x="50.269531" xlink:href="#DejaVuSans-72"/>
     <use x="91.382812" xlink:href="#DejaVuSans-61"/>
     <use x="152.662109" xlink:href="#DejaVuSans-6d"/>
     <use x="250.074219" xlink:href="#DejaVuSans-65"/>
     <use x="311.597656" xlink:href="#DejaVuSans-20"/>
     <use x="343.384766" xlink:href="#DejaVuSans-74"/>
     <use x="382.59375" xlink:href="#DejaVuSans-72"/>
     <use x="423.707031" xlink:href="#DejaVuSans-61"/>
     <use x="484.986328" xlink:href="#DejaVuSans-6e"/>
     <use x="548.365234" xlink:href="#DejaVuSans-73"/>
     <use x="600.464844" xlink:href="#DejaVuSans-6c"/>
     <use x="628.248047" xlink:href="#DejaVuSans-61"/>
     <use x="689.527344" xlink:href="#DejaVuSans-74"/>
     <use x="728.736328" xlink:href="#DejaVuSans-69"/>
     <use x="756.519531" xlink:href="#DejaVuSans-6f"/>
     <use x="817.701172" xlink:href="#DejaVuSans-6e"/>
    </g>
   </g>
   <g id="legend_1">
    <g id="patch_7">
     <path d="M 177.02821 97.83155 
L 338.647273 97.83155 
Q 341.447273 97.83155 341.447273 95.03155 
L 341.447273 55.3328 
Q 341.447273 52.5328 338.647273 52.5328 
L 177.02821 52.5328 
Q 174.22821 52.5328 174.22821 55.3328 
L 174.22821 95.03155 
Q 174.22821 97.83155 177.02821 97.83155 
z
" style="fill:#ffffff;opacity:0.8;stroke:#cccccc;stroke-linejoin:miter;"/>
    </g>
    <g id="line2d_15">
     <path d="M 179.82821 63.870613 
L 207.82821 63.870613 
" style="fill:none;stroke:#ff0000;stroke-linecap:square;stroke-width:1.5;"/>
    </g>
    <g id="line2d_16"/>
    <g id="text_16">
     <!-- artisynth -->
     <g transform="translate(219.02821 68.770613)scale(0.14 -0.14)">
      <defs>
       <path d="M 2059 -325 
Q 1816 -950 1584 -1140 
Q 1353 -1331 966 -1331 
L 506 -1331 
L 506 -850 
L 844 -850 
Q 1081 -850 1212 -737 
Q 1344 -625 1503 -206 
L 1606 56 
L 191 3500 
L 800 3500 
L 1894 763 
L 2988 3500 
L 3597 3500 
L 2059 -325 
z
" id="DejaVuSans-79" transform="scale(0.015625)"/>
       <path d="M 3513 2113 
L 3513 0 
L 2938 0 
L 2938 2094 
Q 2938 2591 2744 2837 
Q 2550 3084 2163 3084 
Q 1697 3084 1428 2787 
Q 1159 2491 1159 1978 
L 1159 0 
L 581 0 
L 581 4863 
L 1159 4863 
L 1159 2956 
Q 1366 3272 1645 3428 
Q 1925 3584 2291 3584 
Q 2894 3584 3203 3211 
Q 3513 2838 3513 2113 
z
" id="DejaVuSans-68" transform="scale(0.015625)"/>
      </defs>
      <use xlink:href="#DejaVuSans-61"/>
      <use x="61.279297" xlink:href="#DejaVuSans-72"/>
      <use x="102.392578" xlink:href="#DejaVuSans-74"/>
      <use x="141.601562" xlink:href="#DejaVuSans-69"/>
      <use x="169.384766" xlink:href="#DejaVuSans-73"/>
      <use x="221.484375" xlink:href="#DejaVuSans-79"/>
      <use x="280.664062" xlink:href="#DejaVuSans-6e"/>
      <use x="344.042969" xlink:href="#DejaVuSans-74"/>
      <use x="383.251953" xlink:href="#DejaVuSans-68"/>
     </g>
    </g>
    <g id="line2d_17">
     <path d="M 179.82821 84.419988 
L 207.82821 84.419988 
" style="fill:none;stroke:#008000;stroke-linecap:square;stroke-width:1.5;"/>
    </g>
    <g id="line2d_18"/>
    <g id="text_17">
     <!-- kinematic model -->
     <g transform="translate(219.02821 89.319988)scale(0.14 -0.14)">
      <defs>
       <path d="M 581 4863 
L 1159 4863 
L 1159 1991 
L 2875 3500 
L 3609 3500 
L 1753 1863 
L 3688 0 
L 2938 0 
L 1159 1709 
L 1159 0 
L 581 0 
L 581 4863 
z
" id="DejaVuSans-6b" transform="scale(0.015625)"/>
       <path d="M 3122 3366 
L 3122 2828 
Q 2878 2963 2633 3030 
Q 2388 3097 2138 3097 
Q 1578 3097 1268 2742 
Q 959 2388 959 1747 
Q 959 1106 1268 751 
Q 1578 397 2138 397 
Q 2388 397 2633 464 
Q 2878 531 3122 666 
L 3122 134 
Q 2881 22 2623 -34 
Q 2366 -91 2075 -91 
Q 1284 -91 818 406 
Q 353 903 353 1747 
Q 353 2603 823 3093 
Q 1294 3584 2113 3584 
Q 2378 3584 2631 3529 
Q 2884 3475 3122 3366 
z
" id="DejaVuSans-63" transform="scale(0.015625)"/>
       <path d="M 2906 2969 
L 2906 4863 
L 3481 4863 
L 3481 0 
L 2906 0 
L 2906 525 
Q 2725 213 2448 61 
Q 2172 -91 1784 -91 
Q 1150 -91 751 415 
Q 353 922 353 1747 
Q 353 2572 751 3078 
Q 1150 3584 1784 3584 
Q 2172 3584 2448 3432 
Q 2725 3281 2906 2969 
z
M 947 1747 
Q 947 1113 1208 752 
Q 1469 391 1925 391 
Q 2381 391 2643 752 
Q 2906 1113 2906 1747 
Q 2906 2381 2643 2742 
Q 2381 3103 1925 3103 
Q 1469 3103 1208 2742 
Q 947 2381 947 1747 
z
" id="DejaVuSans-64" transform="scale(0.015625)"/>
      </defs>
      <use xlink:href="#DejaVuSans-6b"/>
      <use x="57.910156" xlink:href="#DejaVuSans-69"/>
      <use x="85.693359" xlink:href="#DejaVuSans-6e"/>
      <use x="149.072266" xlink:href="#DejaVuSans-65"/>
      <use x="210.595703" xlink:href="#DejaVuSans-6d"/>
      <use x="308.007812" xlink:href="#DejaVuSans-61"/>
      <use x="369.287109" xlink:href="#DejaVuSans-74"/>
      <use x="408.496094" xlink:href="#DejaVuSans-69"/>
      <use x="436.279297" xlink:href="#DejaVuSans-63"/>
      <use x="491.259766" xlink:href="#DejaVuSans-20"/>
      <use x="523.046875" xlink:href="#DejaVuSans-6d"/>
      <use x="620.458984" xlink:href="#DejaVuSans-6f"/>
      <use x="681.640625" xlink:href="#DejaVuSans-64"/>
      <use x="745.117188" xlink:href="#DejaVuSans-65"/>
      <use x="806.640625" xlink:href="#DejaVuSans-6c"/>
     </g>
    </g>
   </g>
  </g>
  <g id="axes_2">
   <g id="patch_8">
    <path d="M 399.884727 337.7016 
L 657.072 337.7016 
L 657.072 45.5328 
L 399.884727 45.5328 
z
" style="fill:#ffffff;"/>
   </g>
   <g id="matplotlib.axis_3">
    <g id="xtick_5">
     <g id="line2d_19">
      <g>
       <use style="stroke:#000000;stroke-width:0.8;" x="411.575058" xlink:href="#m95eaebcbab" y="337.7016"/>
      </g>
     </g>
     <g id="text_18">
      <!-- 0.0 -->
      <g transform="translate(400.44287 355.339412)scale(0.14 -0.14)">
       <use xlink:href="#DejaVuSans-30"/>
       <use x="63.623047" xlink:href="#DejaVuSans-2e"/>
       <use x="95.410156" xlink:href="#DejaVuSans-30"/>
      </g>
     </g>
    </g>
    <g id="xtick_6">
     <g id="line2d_20">
      <g>
       <use style="stroke:#000000;stroke-width:0.8;" x="458.33638" xlink:href="#m95eaebcbab" y="337.7016"/>
      </g>
     </g>
     <g id="text_19">
      <!-- 0.2 -->
      <g transform="translate(447.204193 355.339412)scale(0.14 -0.14)">
       <use xlink:href="#DejaVuSans-30"/>
       <use x="63.623047" xlink:href="#DejaVuSans-2e"/>
       <use x="95.410156" xlink:href="#DejaVuSans-32"/>
      </g>
     </g>
    </g>
    <g id="xtick_7">
     <g id="line2d_21">
      <g>
       <use style="stroke:#000000;stroke-width:0.8;" x="505.097702" xlink:href="#m95eaebcbab" y="337.7016"/>
      </g>
     </g>
     <g id="text_20">
      <!-- 0.4 -->
      <g transform="translate(493.965515 355.339412)scale(0.14 -0.14)">
       <defs>
        <path d="M 2419 4116 
L 825 1625 
L 2419 1625 
L 2419 4116 
z
M 2253 4666 
L 3047 4666 
L 3047 1625 
L 3713 1625 
L 3713 1100 
L 3047 1100 
L 3047 0 
L 2419 0 
L 2419 1100 
L 313 1100 
L 313 1709 
L 2253 4666 
z
" id="DejaVuSans-34" transform="scale(0.015625)"/>
       </defs>
       <use xlink:href="#DejaVuSans-30"/>
       <use x="63.623047" xlink:href="#DejaVuSans-2e"/>
       <use x="95.410156" xlink:href="#DejaVuSans-34"/>
      </g>
     </g>
    </g>
    <g id="xtick_8">
     <g id="line2d_22">
      <g>
       <use style="stroke:#000000;stroke-width:0.8;" x="551.859025" xlink:href="#m95eaebcbab" y="337.7016"/>
      </g>
     </g>
     <g id="text_21">
      <!-- 0.6 -->
      <g transform="translate(540.726837 355.339412)scale(0.14 -0.14)">
       <defs>
        <path d="M 2113 2584 
Q 1688 2584 1439 2293 
Q 1191 2003 1191 1497 
Q 1191 994 1439 701 
Q 1688 409 2113 409 
Q 2538 409 2786 701 
Q 3034 994 3034 1497 
Q 3034 2003 2786 2293 
Q 2538 2584 2113 2584 
z
M 3366 4563 
L 3366 3988 
Q 3128 4100 2886 4159 
Q 2644 4219 2406 4219 
Q 1781 4219 1451 3797 
Q 1122 3375 1075 2522 
Q 1259 2794 1537 2939 
Q 1816 3084 2150 3084 
Q 2853 3084 3261 2657 
Q 3669 2231 3669 1497 
Q 3669 778 3244 343 
Q 2819 -91 2113 -91 
Q 1303 -91 875 529 
Q 447 1150 447 2328 
Q 447 3434 972 4092 
Q 1497 4750 2381 4750 
Q 2619 4750 2861 4703 
Q 3103 4656 3366 4563 
z
" id="DejaVuSans-36" transform="scale(0.015625)"/>
       </defs>
       <use xlink:href="#DejaVuSans-30"/>
       <use x="63.623047" xlink:href="#DejaVuSans-2e"/>
       <use x="95.410156" xlink:href="#DejaVuSans-36"/>
      </g>
     </g>
    </g>
    <g id="xtick_9">
     <g id="line2d_23">
      <g>
       <use style="stroke:#000000;stroke-width:0.8;" x="598.620347" xlink:href="#m95eaebcbab" y="337.7016"/>
      </g>
     </g>
     <g id="text_22">
      <!-- 0.8 -->
      <g transform="translate(587.48816 355.339412)scale(0.14 -0.14)">
       <defs>
        <path d="M 2034 2216 
Q 1584 2216 1326 1975 
Q 1069 1734 1069 1313 
Q 1069 891 1326 650 
Q 1584 409 2034 409 
Q 2484 409 2743 651 
Q 3003 894 3003 1313 
Q 3003 1734 2745 1975 
Q 2488 2216 2034 2216 
z
M 1403 2484 
Q 997 2584 770 2862 
Q 544 3141 544 3541 
Q 544 4100 942 4425 
Q 1341 4750 2034 4750 
Q 2731 4750 3128 4425 
Q 3525 4100 3525 3541 
Q 3525 3141 3298 2862 
Q 3072 2584 2669 2484 
Q 3125 2378 3379 2068 
Q 3634 1759 3634 1313 
Q 3634 634 3220 271 
Q 2806 -91 2034 -91 
Q 1263 -91 848 271 
Q 434 634 434 1313 
Q 434 1759 690 2068 
Q 947 2378 1403 2484 
z
M 1172 3481 
Q 1172 3119 1398 2916 
Q 1625 2713 2034 2713 
Q 2441 2713 2670 2916 
Q 2900 3119 2900 3481 
Q 2900 3844 2670 4047 
Q 2441 4250 2034 4250 
Q 1625 4250 1398 4047 
Q 1172 3844 1172 3481 
z
" id="DejaVuSans-38" transform="scale(0.015625)"/>
       </defs>
       <use xlink:href="#DejaVuSans-30"/>
       <use x="63.623047" xlink:href="#DejaVuSans-2e"/>
       <use x="95.410156" xlink:href="#DejaVuSans-38"/>
      </g>
     </g>
    </g>
    <g id="xtick_10">
     <g id="line2d_24">
      <g>
       <use style="stroke:#000000;stroke-width:0.8;" x="645.381669" xlink:href="#m95eaebcbab" y="337.7016"/>
      </g>
     </g>
     <g id="text_23">
      <!-- 1.0 -->
      <g transform="translate(634.249482 355.339412)scale(0.14 -0.14)">
       <use xlink:href="#DejaVuSans-31"/>
       <use x="63.623047" xlink:href="#DejaVuSans-2e"/>
       <use x="95.410156" xlink:href="#DejaVuSans-30"/>
      </g>
     </g>
    </g>
    <g id="text_24">
     <!-- Time (s) -->
     <g transform="translate(500.017895 372.888787)scale(0.14 -0.14)">
      <defs>
       <path d="M -19 4666 
L 3928 4666 
L 3928 4134 
L 2272 4134 
L 2272 0 
L 1638 0 
L 1638 4134 
L -19 4134 
L -19 4666 
z
" id="DejaVuSans-54" transform="scale(0.015625)"/>
      </defs>
      <use xlink:href="#DejaVuSans-54"/>
      <use x="57.958984" xlink:href="#DejaVuSans-69"/>
      <use x="85.742188" xlink:href="#DejaVuSans-6d"/>
      <use x="183.154297" xlink:href="#DejaVuSans-65"/>
      <use x="244.677734" xlink:href="#DejaVuSans-20"/>
      <use x="276.464844" xlink:href="#DejaVuSans-28"/>
      <use x="315.478516" xlink:href="#DejaVuSans-73"/>
      <use x="367.578125" xlink:href="#DejaVuSans-29"/>
     </g>
    </g>
   </g>
   <g id="matplotlib.axis_4">
    <g id="ytick_9">
     <g id="line2d_25">
      <g>
       <use style="stroke:#000000;stroke-width:0.8;" x="399.884727" xlink:href="#m783d151643" y="324.4212"/>
      </g>
     </g>
     <g id="text_25">
      <!-- 0 -->
      <g transform="translate(383.977227 329.740106)scale(0.14 -0.14)">
       <use xlink:href="#DejaVuSans-30"/>
      </g>
     </g>
    </g>
    <g id="ytick_10">
     <g id="line2d_26">
      <g>
       <use style="stroke:#000000;stroke-width:0.8;" x="399.884727" xlink:href="#m783d151643" y="270.179545"/>
      </g>
     </g>
     <g id="text_26">
      <!-- 5 -->
      <g transform="translate(383.977227 275.498451)scale(0.14 -0.14)">
       <use xlink:href="#DejaVuSans-35"/>
      </g>
     </g>
    </g>
    <g id="ytick_11">
     <g id="line2d_27">
      <g>
       <use style="stroke:#000000;stroke-width:0.8;" x="399.884727" xlink:href="#m783d151643" y="215.937889"/>
      </g>
     </g>
     <g id="text_27">
      <!-- 10 -->
      <g transform="translate(375.069727 221.256796)scale(0.14 -0.14)">
       <use xlink:href="#DejaVuSans-31"/>
       <use x="63.623047" xlink:href="#DejaVuSans-30"/>
      </g>
     </g>
    </g>
    <g id="ytick_12">
     <g id="line2d_28">
      <g>
       <use style="stroke:#000000;stroke-width:0.8;" x="399.884727" xlink:href="#m783d151643" y="161.696234"/>
      </g>
     </g>
     <g id="text_28">
      <!-- 15 -->
      <g transform="translate(375.069727 167.01514)scale(0.14 -0.14)">
       <use xlink:href="#DejaVuSans-31"/>
       <use x="63.623047" xlink:href="#DejaVuSans-35"/>
      </g>
     </g>
    </g>
    <g id="ytick_13">
     <g id="line2d_29">
      <g>
       <use style="stroke:#000000;stroke-width:0.8;" x="399.884727" xlink:href="#m783d151643" y="107.454579"/>
      </g>
     </g>
     <g id="text_29">
      <!-- 20 -->
      <g transform="translate(375.069727 112.773485)scale(0.14 -0.14)">
       <use xlink:href="#DejaVuSans-32"/>
       <use x="63.623047" xlink:href="#DejaVuSans-30"/>
      </g>
     </g>
    </g>
    <g id="ytick_14">
     <g id="line2d_30">
      <g>
       <use style="stroke:#000000;stroke-width:0.8;" x="399.884727" xlink:href="#m783d151643" y="53.212924"/>
      </g>
     </g>
     <g id="text_30">
      <!-- 25 -->
      <g transform="translate(375.069727 58.53183)scale(0.14 -0.14)">
       <use xlink:href="#DejaVuSans-32"/>
       <use x="63.623047" xlink:href="#DejaVuSans-35"/>
      </g>
     </g>
    </g>
    <g id="text_31">
     <!-- Pitch(y) -->
     <g transform="translate(368.158165 218.259856)rotate(-90)scale(0.14 -0.14)">
      <defs>
       <path d="M 1259 4147 
L 1259 2394 
L 2053 2394 
Q 2494 2394 2734 2622 
Q 2975 2850 2975 3272 
Q 2975 3691 2734 3919 
Q 2494 4147 2053 4147 
L 1259 4147 
z
M 628 4666 
L 2053 4666 
Q 2838 4666 3239 4311 
Q 3641 3956 3641 3272 
Q 3641 2581 3239 2228 
Q 2838 1875 2053 1875 
L 1259 1875 
L 1259 0 
L 628 0 
L 628 4666 
z
" id="DejaVuSans-50" transform="scale(0.015625)"/>
      </defs>
      <use xlink:href="#DejaVuSans-50"/>
      <use x="58.052734" xlink:href="#DejaVuSans-69"/>
      <use x="85.835938" xlink:href="#DejaVuSans-74"/>
      <use x="125.044922" xlink:href="#DejaVuSans-63"/>
      <use x="180.025391" xlink:href="#DejaVuSans-68"/>
      <use x="243.404297" xlink:href="#DejaVuSans-28"/>
      <use x="282.417969" xlink:href="#DejaVuSans-79"/>
      <use x="341.597656" xlink:href="#DejaVuSans-29"/>
     </g>
    </g>
   </g>
   <g id="line2d_31">
    <path clip-path="url(#p5e2422e8ad)" d="M 411.575058 324.4212 
L 413.913124 320.469543 
L 416.25119 311.946181 
L 418.589256 300.718518 
L 420.927322 287.83449 
L 423.265388 274.223418 
L 425.603455 260.762325 
L 427.941521 248.072567 
L 430.279587 236.356677 
L 432.617653 225.646742 
L 434.955719 215.842024 
L 437.293785 206.706509 
L 439.631851 198.251929 
L 441.969917 190.303144 
L 444.307983 182.836781 
L 446.64605 175.926398 
L 448.984116 169.351808 
L 451.322182 163.350835 
L 453.660248 157.602426 
L 455.998314 152.400937 
L 458.33638 147.311833 
L 460.674446 142.789083 
L 463.012512 138.18216 
L 465.350579 134.090666 
L 467.688645 130.03948 
L 470.026711 126.049465 
L 472.364777 122.760386 
L 474.702843 119.106904 
L 477.040909 115.715893 
L 479.378975 113.223054 
L 481.717041 110.569058 
L 484.055107 107.339014 
L 486.393174 104.882904 
L 488.73124 103.347852 
L 491.069306 102.043159 
L 493.407372 99.866345 
L 495.745438 96.626151 
L 498.083504 94.560631 
L 500.42157 93.747474 
L 502.759636 92.929225 
L 505.097702 91.546562 
L 507.435769 89.066063 
L 509.773835 86.374539 
L 512.111901 85.327896 
L 514.449967 84.966709 
L 516.788033 84.000188 
L 519.126099 82.603959 
L 521.464165 81.494278 
L 523.802231 80.718335 
L 526.140298 79.900777 
L 528.478364 78.953378 
L 530.81643 78.060254 
L 533.154496 77.288807 
L 535.492562 76.547435 
L 537.830628 75.791835 
L 540.168694 75.065933 
L 542.50676 74.393267 
L 544.844826 73.749795 
L 547.182893 73.12149 
L 549.520959 72.519427 
L 551.859025 71.948811 
L 554.197091 71.401857 
L 556.535157 70.874657 
L 558.873223 70.367049 
L 561.211289 69.869363 
L 563.549355 69.388251 
L 565.887421 68.930911 
L 568.225488 68.492086 
L 570.563554 68.067564 
L 572.90162 67.659383 
L 575.239686 67.268087 
L 577.577752 66.89124 
L 579.915818 66.52775 
L 582.253884 66.177849 
L 584.59195 65.840844 
L 586.930017 65.515626 
L 589.268083 65.201724 
L 591.606149 64.898765 
L 593.944215 64.606082 
L 596.282281 64.323095 
L 598.620347 64.049402 
L 600.958413 63.784552 
L 603.296479 63.528068 
L 605.634545 63.279555 
L 607.972612 63.038603 
L 610.310678 62.804809 
L 612.648744 62.577865 
L 614.98681 62.357474 
L 617.324876 62.143318 
L 619.662942 61.93512 
L 622.001008 61.73263 
L 624.339074 61.535594 
L 626.67714 61.343774 
L 629.015207 61.156953 
L 631.353273 60.974919 
L 633.691339 60.797473 
L 636.029405 60.624427 
L 638.367471 60.455604 
L 640.705537 60.290834 
L 643.043603 60.129957 
L 645.381669 59.972824 
" style="fill:none;stroke:#ff0000;stroke-linecap:square;stroke-width:1.5;"/>
   </g>
   <g id="line2d_32">
    <path clip-path="url(#p5e2422e8ad)" d="M 411.575058 324.4212 
L 413.913124 320.493273 
L 416.25119 311.958047 
L 418.589256 300.733942 
L 420.927322 287.848483 
L 423.265388 274.237413 
L 425.603455 260.772279 
L 427.941521 248.069097 
L 430.279587 236.357423 
L 432.617653 225.648711 
L 434.955719 215.827852 
L 437.293785 206.691163 
L 439.631851 198.223807 
L 441.969917 190.263598 
L 444.307983 182.795995 
L 446.64605 175.860199 
L 448.984116 169.278235 
L 451.322182 163.261329 
L 453.660248 157.485277 
L 455.998314 152.268099 
L 458.33638 147.155379 
L 460.674446 142.616841 
L 463.012512 137.993419 
L 465.350579 133.867044 
L 467.688645 129.809786 
L 470.026711 125.788864 
L 472.364777 122.474498 
L 474.702843 118.804481 
L 477.040909 115.385569 
L 479.378975 112.873786 
L 481.717041 110.206774 
L 484.055107 106.946563 
L 486.393174 104.468614 
L 488.73124 102.923298 
L 491.069306 101.607615 
L 493.407372 99.417718 
L 495.745438 96.141784 
L 498.083504 94.053877 
L 500.42157 93.232449 
L 502.759636 92.420414 
L 505.097702 91.013449 
L 507.435769 88.510606 
L 509.773835 85.784276 
L 512.111901 84.730285 
L 514.449967 84.37574 
L 516.788033 83.395838 
L 519.126099 81.973938 
L 521.464165 80.85423 
L 523.802231 80.074195 
L 526.140298 79.242731 
L 528.478364 78.285286 
L 530.81643 77.375323 
L 533.154496 76.590344 
L 535.492562 75.83759 
L 537.830628 75.07383 
L 540.168694 74.33353 
L 542.50676 73.651313 
L 544.844826 72.997372 
L 547.182893 72.352009 
L 549.520959 71.732319 
L 551.859025 71.151143 
L 554.197091 70.607869 
L 556.535157 70.056527 
L 558.873223 69.529265 
L 561.211289 69.033249 
L 563.549355 68.534463 
L 565.887421 68.067365 
L 568.225488 67.613616 
L 570.563554 67.185085 
L 572.90162 66.760253 
L 575.239686 66.364169 
L 577.577752 65.968578 
L 579.915818 65.598976 
L 582.253884 65.236901 
L 584.59195 64.895621 
L 586.930017 64.560222 
L 589.268083 64.235737 
L 591.606149 63.92356 
L 593.944215 63.62184 
L 596.282281 63.326902 
L 598.620347 63.040323 
L 600.958413 62.766613 
L 603.296479 62.501186 
L 605.634545 62.246197 
L 607.972612 61.998449 
L 610.310678 61.757227 
L 612.648744 61.522921 
L 614.98681 61.292559 
L 617.324876 61.070794 
L 619.662942 60.856544 
L 622.001008 60.645239 
L 624.339074 60.440258 
L 626.67714 60.242444 
L 629.015207 60.045928 
L 631.353273 59.856088 
L 633.691339 59.673428 
L 636.029405 59.491915 
L 638.367471 59.3153 
L 640.705537 59.144184 
L 643.043603 58.970969 
L 645.381669 58.8132 
" style="fill:none;stroke:#008000;stroke-linecap:square;stroke-width:1.5;"/>
   </g>
   <g id="patch_9">
    <path d="M 399.884727 337.7016 
L 399.884727 45.5328 
" style="fill:none;stroke:#000000;stroke-linecap:square;stroke-linejoin:miter;stroke-width:0.8;"/>
   </g>
   <g id="patch_10">
    <path d="M 657.072 337.7016 
L 657.072 45.5328 
" style="fill:none;stroke:#000000;stroke-linecap:square;stroke-linejoin:miter;stroke-width:0.8;"/>
   </g>
   <g id="patch_11">
    <path d="M 399.884727 337.7016 
L 657.072 337.7016 
" style="fill:none;stroke:#000000;stroke-linecap:square;stroke-linejoin:miter;stroke-width:0.8;"/>
   </g>
   <g id="patch_12">
    <path d="M 399.884727 45.5328 
L 657.072 45.5328 
" style="fill:none;stroke:#000000;stroke-linecap:square;stroke-linejoin:miter;stroke-width:0.8;"/>
   </g>
   <g id="text_32">
    <!-- Frame rotation -->
    <g transform="translate(466.700301 39.5328)scale(0.168 -0.168)">
     <use xlink:href="#DejaVuSans-46"/>
     <use x="50.269531" xlink:href="#DejaVuSans-72"/>
     <use x="91.382812" xlink:href="#DejaVuSans-61"/>
     <use x="152.662109" xlink:href="#DejaVuSans-6d"/>
     <use x="250.074219" xlink:href="#DejaVuSans-65"/>
     <use x="311.597656" xlink:href="#DejaVuSans-20"/>
     <use x="343.384766" xlink:href="#DejaVuSans-72"/>
     <use x="382.248047" xlink:href="#DejaVuSans-6f"/>
     <use x="443.429688" xlink:href="#DejaVuSans-74"/>
     <use x="482.638672" xlink:href="#DejaVuSans-61"/>
     <use x="543.917969" xlink:href="#DejaVuSans-74"/>
     <use x="583.126953" xlink:href="#DejaVuSans-69"/>
     <use x="610.910156" xlink:href="#DejaVuSans-6f"/>
     <use x="672.091797" xlink:href="#DejaVuSans-6e"/>
    </g>
   </g>
  </g>
 </g>
 <defs>
  <clipPath id="p6cad9fc982">
   <rect height="292.1688" width="257.187273" x="91.26" y="45.5328"/>
  </clipPath>
  <clipPath id="p5e2422e8ad">
   <rect height="292.1688" width="257.187273" x="399.884727" y="45.5328"/>
  </clipPath>
 </defs>
</svg>
