<?xml version="1.0" encoding="utf-8" standalone="no"?>
<!DOCTYPE svg PUBLIC "-//W3C//DTD SVG 1.1//EN"
  "http://www.w3.org/Graphics/SVG/1.1/DTD/svg11.dtd">
<svg height="419.04pt" version="1.1" viewBox="0 0 965.52 419.04" width="965.52pt" xmlns="http://www.w3.org/2000/svg" xmlns:xlink="http://www.w3.org/1999/xlink">
 <metadata>
  <rdf:RDF xmlns:cc="http://creativecommons.org/ns#" xmlns:dc="http://purl.org/dc/elements/1.1/" xmlns:rdf="http://www.w3.org/1999/02/22-rdf-syntax-ns#">
   <cc:Work>
    <dc:type rdf:resource="http://purl.org/dc/dcmitype/StillImage"/>
    <dc:date>2021-05-06T17:35:29.899360</dc:date>
    <dc:format>image/svg+xml</dc:format>
    <dc:creator>
     <cc:Agent>
      <dc:title>Matplotlib v3.4.1, https://matplotlib.org/</dc:title>
     </cc:Agent>
    </dc:creator>
   </cc:Work>
  </rdf:RDF>
 </metadata>
 <defs>
  <style type="text/css">*{stroke-linecap:butt;stroke-linejoin:round;}</style>
 </defs>
 <g id="figure_1">
  <g id="patch_1">
   <path d="M 0 419.04 
L 965.52 419.04 
L 965.52 0 
L 0 0 
z
" style="fill:#ffffff;"/>
  </g>
  <g id="axes_1">
   <g id="patch_2">
    <path d="M 120.69 372.9456 
L 460.816364 372.9456 
L 460.816364 50.2848 
L 120.69 50.2848 
z
" style="fill:#ffffff;"/>
   </g>
   <g id="matplotlib.axis_1">
    <g id="xtick_1">
     <g id="line2d_1">
      <defs>
       <path d="M 0 0 
L 0 3.5 
" id="md95fdc1ad0" style="stroke:#000000;stroke-width:0.8;"/>
      </defs>
      <g>
       <use style="stroke:#000000;stroke-width:0.8;" x="136.150289" xlink:href="#md95fdc1ad0" y="372.9456"/>
      </g>
     </g>
     <g id="text_1">
      <!-- 0 -->
      <g transform="translate(131.696539 390.583413)scale(0.14 -0.14)">
       <defs>
        <path d="M 2034 4250 
Q 1547 4250 1301 3770 
Q 1056 3291 1056 2328 
Q 1056 1369 1301 889 
Q 1547 409 2034 409 
Q 2525 409 2770 889 
Q 3016 1369 3016 2328 
Q 3016 3291 2770 3770 
Q 2525 4250 2034 4250 
z
M 2034 4750 
Q 2819 4750 3233 4129 
Q 3647 3509 3647 2328 
Q 3647 1150 3233 529 
Q 2819 -91 2034 -91 
Q 1250 -91 836 529 
Q 422 1150 422 2328 
Q 422 3509 836 4129 
Q 1250 4750 2034 4750 
z
" id="DejaVuSans-30" transform="scale(0.015625)"/>
       </defs>
       <use xlink:href="#DejaVuSans-30"/>
      </g>
     </g>
    </g>
    <g id="xtick_2">
     <g id="line2d_2">
      <g>
       <use style="stroke:#000000;stroke-width:0.8;" x="198.053349" xlink:href="#md95fdc1ad0" y="372.9456"/>
      </g>
     </g>
     <g id="text_2">
      <!-- 1 -->
      <g transform="translate(193.599599 390.583413)scale(0.14 -0.14)">
       <defs>
        <path d="M 794 531 
L 1825 531 
L 1825 4091 
L 703 3866 
L 703 4441 
L 1819 4666 
L 2450 4666 
L 2450 531 
L 3481 531 
L 3481 0 
L 794 0 
L 794 531 
z
" id="DejaVuSans-31" transform="scale(0.015625)"/>
       </defs>
       <use xlink:href="#DejaVuSans-31"/>
      </g>
     </g>
    </g>
    <g id="xtick_3">
     <g id="line2d_3">
      <g>
       <use style="stroke:#000000;stroke-width:0.8;" x="259.956409" xlink:href="#md95fdc1ad0" y="372.9456"/>
      </g>
     </g>
     <g id="text_3">
      <!-- 2 -->
      <g transform="translate(255.502659 390.583413)scale(0.14 -0.14)">
       <defs>
        <path d="M 1228 531 
L 3431 531 
L 3431 0 
L 469 0 
L 469 531 
Q 828 903 1448 1529 
Q 2069 2156 2228 2338 
Q 2531 2678 2651 2914 
Q 2772 3150 2772 3378 
Q 2772 3750 2511 3984 
Q 2250 4219 1831 4219 
Q 1534 4219 1204 4116 
Q 875 4013 500 3803 
L 500 4441 
Q 881 4594 1212 4672 
Q 1544 4750 1819 4750 
Q 2544 4750 2975 4387 
Q 3406 4025 3406 3419 
Q 3406 3131 3298 2873 
Q 3191 2616 2906 2266 
Q 2828 2175 2409 1742 
Q 1991 1309 1228 531 
z
" id="DejaVuSans-32" transform="scale(0.015625)"/>
       </defs>
       <use xlink:href="#DejaVuSans-32"/>
      </g>
     </g>
    </g>
    <g id="xtick_4">
     <g id="line2d_4">
      <g>
       <use style="stroke:#000000;stroke-width:0.8;" x="321.85947" xlink:href="#md95fdc1ad0" y="372.9456"/>
      </g>
     </g>
     <g id="text_4">
      <!-- 3 -->
      <g transform="translate(317.40572 390.583413)scale(0.14 -0.14)">
       <defs>
        <path d="M 2597 2516 
Q 3050 2419 3304 2112 
Q 3559 1806 3559 1356 
Q 3559 666 3084 287 
Q 2609 -91 1734 -91 
Q 1441 -91 1130 -33 
Q 819 25 488 141 
L 488 750 
Q 750 597 1062 519 
Q 1375 441 1716 441 
Q 2309 441 2620 675 
Q 2931 909 2931 1356 
Q 2931 1769 2642 2001 
Q 2353 2234 1838 2234 
L 1294 2234 
L 1294 2753 
L 1863 2753 
Q 2328 2753 2575 2939 
Q 2822 3125 2822 3475 
Q 2822 3834 2567 4026 
Q 2313 4219 1838 4219 
Q 1578 4219 1281 4162 
Q 984 4106 628 3988 
L 628 4550 
Q 988 4650 1302 4700 
Q 1616 4750 1894 4750 
Q 2613 4750 3031 4423 
Q 3450 4097 3450 3541 
Q 3450 3153 3228 2886 
Q 3006 2619 2597 2516 
z
" id="DejaVuSans-33" transform="scale(0.015625)"/>
       </defs>
       <use xlink:href="#DejaVuSans-33"/>
      </g>
     </g>
    </g>
    <g id="xtick_5">
     <g id="line2d_5">
      <g>
       <use style="stroke:#000000;stroke-width:0.8;" x="383.76253" xlink:href="#md95fdc1ad0" y="372.9456"/>
      </g>
     </g>
     <g id="text_5">
      <!-- 4 -->
      <g transform="translate(379.30878 390.583413)scale(0.14 -0.14)">
       <defs>
        <path d="M 2419 4116 
L 825 1625 
L 2419 1625 
L 2419 4116 
z
M 2253 4666 
L 3047 4666 
L 3047 1625 
L 3713 1625 
L 3713 1100 
L 3047 1100 
L 3047 0 
L 2419 0 
L 2419 1100 
L 313 1100 
L 313 1709 
L 2253 4666 
z
" id="DejaVuSans-34" transform="scale(0.015625)"/>
       </defs>
       <use xlink:href="#DejaVuSans-34"/>
      </g>
     </g>
    </g>
    <g id="xtick_6">
     <g id="line2d_6">
      <g>
       <use style="stroke:#000000;stroke-width:0.8;" x="445.66559" xlink:href="#md95fdc1ad0" y="372.9456"/>
      </g>
     </g>
     <g id="text_6">
      <!-- 5 -->
      <g transform="translate(441.21184 390.583413)scale(0.14 -0.14)">
       <defs>
        <path d="M 691 4666 
L 3169 4666 
L 3169 4134 
L 1269 4134 
L 1269 2991 
Q 1406 3038 1543 3061 
Q 1681 3084 1819 3084 
Q 2600 3084 3056 2656 
Q 3513 2228 3513 1497 
Q 3513 744 3044 326 
Q 2575 -91 1722 -91 
Q 1428 -91 1123 -41 
Q 819 9 494 109 
L 494 744 
Q 775 591 1075 516 
Q 1375 441 1709 441 
Q 2250 441 2565 725 
Q 2881 1009 2881 1497 
Q 2881 1984 2565 2268 
Q 2250 2553 1709 2553 
Q 1456 2553 1204 2497 
Q 953 2441 691 2322 
L 691 4666 
z
" id="DejaVuSans-35" transform="scale(0.015625)"/>
       </defs>
       <use xlink:href="#DejaVuSans-35"/>
      </g>
     </g>
    </g>
    <g id="text_7">
     <!-- Time (s) -->
     <g transform="translate(262.292713 408.132788)scale(0.14 -0.14)">
      <defs>
       <path d="M -19 4666 
L 3928 4666 
L 3928 4134 
L 2272 4134 
L 2272 0 
L 1638 0 
L 1638 4134 
L -19 4134 
L -19 4666 
z
" id="DejaVuSans-54" transform="scale(0.015625)"/>
       <path d="M 603 3500 
L 1178 3500 
L 1178 0 
L 603 0 
L 603 3500 
z
M 603 4863 
L 1178 4863 
L 1178 4134 
L 603 4134 
L 603 4863 
z
" id="DejaVuSans-69" transform="scale(0.015625)"/>
       <path d="M 3328 2828 
Q 3544 3216 3844 3400 
Q 4144 3584 4550 3584 
Q 5097 3584 5394 3201 
Q 5691 2819 5691 2113 
L 5691 0 
L 5113 0 
L 5113 2094 
Q 5113 2597 4934 2840 
Q 4756 3084 4391 3084 
Q 3944 3084 3684 2787 
Q 3425 2491 3425 1978 
L 3425 0 
L 2847 0 
L 2847 2094 
Q 2847 2600 2669 2842 
Q 2491 3084 2119 3084 
Q 1678 3084 1418 2786 
Q 1159 2488 1159 1978 
L 1159 0 
L 581 0 
L 581 3500 
L 1159 3500 
L 1159 2956 
Q 1356 3278 1631 3431 
Q 1906 3584 2284 3584 
Q 2666 3584 2933 3390 
Q 3200 3197 3328 2828 
z
" id="DejaVuSans-6d" transform="scale(0.015625)"/>
       <path d="M 3597 1894 
L 3597 1613 
L 953 1613 
Q 991 1019 1311 708 
Q 1631 397 2203 397 
Q 2534 397 2845 478 
Q 3156 559 3463 722 
L 3463 178 
Q 3153 47 2828 -22 
Q 2503 -91 2169 -91 
Q 1331 -91 842 396 
Q 353 884 353 1716 
Q 353 2575 817 3079 
Q 1281 3584 2069 3584 
Q 2775 3584 3186 3129 
Q 3597 2675 3597 1894 
z
M 3022 2063 
Q 3016 2534 2758 2815 
Q 2500 3097 2075 3097 
Q 1594 3097 1305 2825 
Q 1016 2553 972 2059 
L 3022 2063 
z
" id="DejaVuSans-65" transform="scale(0.015625)"/>
       <path id="DejaVuSans-20" transform="scale(0.015625)"/>
       <path d="M 1984 4856 
Q 1566 4138 1362 3434 
Q 1159 2731 1159 2009 
Q 1159 1288 1364 580 
Q 1569 -128 1984 -844 
L 1484 -844 
Q 1016 -109 783 600 
Q 550 1309 550 2009 
Q 550 2706 781 3412 
Q 1013 4119 1484 4856 
L 1984 4856 
z
" id="DejaVuSans-28" transform="scale(0.015625)"/>
       <path d="M 2834 3397 
L 2834 2853 
Q 2591 2978 2328 3040 
Q 2066 3103 1784 3103 
Q 1356 3103 1142 2972 
Q 928 2841 928 2578 
Q 928 2378 1081 2264 
Q 1234 2150 1697 2047 
L 1894 2003 
Q 2506 1872 2764 1633 
Q 3022 1394 3022 966 
Q 3022 478 2636 193 
Q 2250 -91 1575 -91 
Q 1294 -91 989 -36 
Q 684 19 347 128 
L 347 722 
Q 666 556 975 473 
Q 1284 391 1588 391 
Q 1994 391 2212 530 
Q 2431 669 2431 922 
Q 2431 1156 2273 1281 
Q 2116 1406 1581 1522 
L 1381 1569 
Q 847 1681 609 1914 
Q 372 2147 372 2553 
Q 372 3047 722 3315 
Q 1072 3584 1716 3584 
Q 2034 3584 2315 3537 
Q 2597 3491 2834 3397 
z
" id="DejaVuSans-73" transform="scale(0.015625)"/>
       <path d="M 513 4856 
L 1013 4856 
Q 1481 4119 1714 3412 
Q 1947 2706 1947 2009 
Q 1947 1309 1714 600 
Q 1481 -109 1013 -844 
L 513 -844 
Q 928 -128 1133 580 
Q 1338 1288 1338 2009 
Q 1338 2731 1133 3434 
Q 928 4138 513 4856 
z
" id="DejaVuSans-29" transform="scale(0.015625)"/>
      </defs>
      <use xlink:href="#DejaVuSans-54"/>
      <use x="57.958984" xlink:href="#DejaVuSans-69"/>
      <use x="85.742188" xlink:href="#DejaVuSans-6d"/>
      <use x="183.154297" xlink:href="#DejaVuSans-65"/>
      <use x="244.677734" xlink:href="#DejaVuSans-20"/>
      <use x="276.464844" xlink:href="#DejaVuSans-28"/>
      <use x="315.478516" xlink:href="#DejaVuSans-73"/>
      <use x="367.578125" xlink:href="#DejaVuSans-29"/>
     </g>
    </g>
   </g>
   <g id="matplotlib.axis_2">
    <g id="ytick_1">
     <g id="line2d_7">
      <defs>
       <path d="M 0 0 
L -3.5 0 
" id="maef963d03c" style="stroke:#000000;stroke-width:0.8;"/>
      </defs>
      <g>
       <use style="stroke:#000000;stroke-width:0.8;" x="120.69" xlink:href="#maef963d03c" y="344.3112"/>
      </g>
     </g>
     <g id="text_8">
      <!-- −0.8 -->
      <g transform="translate(79.694063 349.630106)scale(0.14 -0.14)">
       <defs>
        <path d="M 678 2272 
L 4684 2272 
L 4684 1741 
L 678 1741 
L 678 2272 
z
" id="DejaVuSans-2212" transform="scale(0.015625)"/>
        <path d="M 684 794 
L 1344 794 
L 1344 0 
L 684 0 
L 684 794 
z
" id="DejaVuSans-2e" transform="scale(0.015625)"/>
        <path d="M 2034 2216 
Q 1584 2216 1326 1975 
Q 1069 1734 1069 1313 
Q 1069 891 1326 650 
Q 1584 409 2034 409 
Q 2484 409 2743 651 
Q 3003 894 3003 1313 
Q 3003 1734 2745 1975 
Q 2488 2216 2034 2216 
z
M 1403 2484 
Q 997 2584 770 2862 
Q 544 3141 544 3541 
Q 544 4100 942 4425 
Q 1341 4750 2034 4750 
Q 2731 4750 3128 4425 
Q 3525 4100 3525 3541 
Q 3525 3141 3298 2862 
Q 3072 2584 2669 2484 
Q 3125 2378 3379 2068 
Q 3634 1759 3634 1313 
Q 3634 634 3220 271 
Q 2806 -91 2034 -91 
Q 1263 -91 848 271 
Q 434 634 434 1313 
Q 434 1759 690 2068 
Q 947 2378 1403 2484 
z
M 1172 3481 
Q 1172 3119 1398 2916 
Q 1625 2713 2034 2713 
Q 2441 2713 2670 2916 
Q 2900 3119 2900 3481 
Q 2900 3844 2670 4047 
Q 2441 4250 2034 4250 
Q 1625 4250 1398 4047 
Q 1172 3844 1172 3481 
z
" id="DejaVuSans-38" transform="scale(0.015625)"/>
       </defs>
       <use xlink:href="#DejaVuSans-2212"/>
       <use x="83.789062" xlink:href="#DejaVuSans-30"/>
       <use x="147.412109" xlink:href="#DejaVuSans-2e"/>
       <use x="179.199219" xlink:href="#DejaVuSans-38"/>
      </g>
     </g>
    </g>
    <g id="ytick_2">
     <g id="line2d_8">
      <g>
       <use style="stroke:#000000;stroke-width:0.8;" x="120.69" xlink:href="#maef963d03c" y="274.4712"/>
      </g>
     </g>
     <g id="text_9">
      <!-- −0.6 -->
      <g transform="translate(79.694063 279.790106)scale(0.14 -0.14)">
       <defs>
        <path d="M 2113 2584 
Q 1688 2584 1439 2293 
Q 1191 2003 1191 1497 
Q 1191 994 1439 701 
Q 1688 409 2113 409 
Q 2538 409 2786 701 
Q 3034 994 3034 1497 
Q 3034 2003 2786 2293 
Q 2538 2584 2113 2584 
z
M 3366 4563 
L 3366 3988 
Q 3128 4100 2886 4159 
Q 2644 4219 2406 4219 
Q 1781 4219 1451 3797 
Q 1122 3375 1075 2522 
Q 1259 2794 1537 2939 
Q 1816 3084 2150 3084 
Q 2853 3084 3261 2657 
Q 3669 2231 3669 1497 
Q 3669 778 3244 343 
Q 2819 -91 2113 -91 
Q 1303 -91 875 529 
Q 447 1150 447 2328 
Q 447 3434 972 4092 
Q 1497 4750 2381 4750 
Q 2619 4750 2861 4703 
Q 3103 4656 3366 4563 
z
" id="DejaVuSans-36" transform="scale(0.015625)"/>
       </defs>
       <use xlink:href="#DejaVuSans-2212"/>
       <use x="83.789062" xlink:href="#DejaVuSans-30"/>
       <use x="147.412109" xlink:href="#DejaVuSans-2e"/>
       <use x="179.199219" xlink:href="#DejaVuSans-36"/>
      </g>
     </g>
    </g>
    <g id="ytick_3">
     <g id="line2d_9">
      <g>
       <use style="stroke:#000000;stroke-width:0.8;" x="120.69" xlink:href="#maef963d03c" y="204.6312"/>
      </g>
     </g>
     <g id="text_10">
      <!-- −0.4 -->
      <g transform="translate(79.694063 209.950106)scale(0.14 -0.14)">
       <use xlink:href="#DejaVuSans-2212"/>
       <use x="83.789062" xlink:href="#DejaVuSans-30"/>
       <use x="147.412109" xlink:href="#DejaVuSans-2e"/>
       <use x="179.199219" xlink:href="#DejaVuSans-34"/>
      </g>
     </g>
    </g>
    <g id="ytick_4">
     <g id="line2d_10">
      <g>
       <use style="stroke:#000000;stroke-width:0.8;" x="120.69" xlink:href="#maef963d03c" y="134.7912"/>
      </g>
     </g>
     <g id="text_11">
      <!-- −0.2 -->
      <g transform="translate(79.694063 140.110106)scale(0.14 -0.14)">
       <use xlink:href="#DejaVuSans-2212"/>
       <use x="83.789062" xlink:href="#DejaVuSans-30"/>
       <use x="147.412109" xlink:href="#DejaVuSans-2e"/>
       <use x="179.199219" xlink:href="#DejaVuSans-32"/>
      </g>
     </g>
    </g>
    <g id="ytick_5">
     <g id="line2d_11">
      <g>
       <use style="stroke:#000000;stroke-width:0.8;" x="120.69" xlink:href="#maef963d03c" y="64.9512"/>
      </g>
     </g>
     <g id="text_12">
      <!-- 0.0 -->
      <g transform="translate(91.425625 70.270106)scale(0.14 -0.14)">
       <use xlink:href="#DejaVuSans-30"/>
       <use x="63.623047" xlink:href="#DejaVuSans-2e"/>
       <use x="95.410156" xlink:href="#DejaVuSans-30"/>
      </g>
     </g>
    </g>
    <g id="text_13">
     <!-- Force (N) -->
     <g transform="translate(72.7825 243.470669)rotate(-90)scale(0.14 -0.14)">
      <defs>
       <path d="M 628 4666 
L 3309 4666 
L 3309 4134 
L 1259 4134 
L 1259 2759 
L 3109 2759 
L 3109 2228 
L 1259 2228 
L 1259 0 
L 628 0 
L 628 4666 
z
" id="DejaVuSans-46" transform="scale(0.015625)"/>
       <path d="M 1959 3097 
Q 1497 3097 1228 2736 
Q 959 2375 959 1747 
Q 959 1119 1226 758 
Q 1494 397 1959 397 
Q 2419 397 2687 759 
Q 2956 1122 2956 1747 
Q 2956 2369 2687 2733 
Q 2419 3097 1959 3097 
z
M 1959 3584 
Q 2709 3584 3137 3096 
Q 3566 2609 3566 1747 
Q 3566 888 3137 398 
Q 2709 -91 1959 -91 
Q 1206 -91 779 398 
Q 353 888 353 1747 
Q 353 2609 779 3096 
Q 1206 3584 1959 3584 
z
" id="DejaVuSans-6f" transform="scale(0.015625)"/>
       <path d="M 2631 2963 
Q 2534 3019 2420 3045 
Q 2306 3072 2169 3072 
Q 1681 3072 1420 2755 
Q 1159 2438 1159 1844 
L 1159 0 
L 581 0 
L 581 3500 
L 1159 3500 
L 1159 2956 
Q 1341 3275 1631 3429 
Q 1922 3584 2338 3584 
Q 2397 3584 2469 3576 
Q 2541 3569 2628 3553 
L 2631 2963 
z
" id="DejaVuSans-72" transform="scale(0.015625)"/>
       <path d="M 3122 3366 
L 3122 2828 
Q 2878 2963 2633 3030 
Q 2388 3097 2138 3097 
Q 1578 3097 1268 2742 
Q 959 2388 959 1747 
Q 959 1106 1268 751 
Q 1578 397 2138 397 
Q 2388 397 2633 464 
Q 2878 531 3122 666 
L 3122 134 
Q 2881 22 2623 -34 
Q 2366 -91 2075 -91 
Q 1284 -91 818 406 
Q 353 903 353 1747 
Q 353 2603 823 3093 
Q 1294 3584 2113 3584 
Q 2378 3584 2631 3529 
Q 2884 3475 3122 3366 
z
" id="DejaVuSans-63" transform="scale(0.015625)"/>
       <path d="M 628 4666 
L 1478 4666 
L 3547 763 
L 3547 4666 
L 4159 4666 
L 4159 0 
L 3309 0 
L 1241 3903 
L 1241 0 
L 628 0 
L 628 4666 
z
" id="DejaVuSans-4e" transform="scale(0.015625)"/>
      </defs>
      <use xlink:href="#DejaVuSans-46"/>
      <use x="53.894531" xlink:href="#DejaVuSans-6f"/>
      <use x="115.076172" xlink:href="#DejaVuSans-72"/>
      <use x="153.939453" xlink:href="#DejaVuSans-63"/>
      <use x="208.919922" xlink:href="#DejaVuSans-65"/>
      <use x="270.443359" xlink:href="#DejaVuSans-20"/>
      <use x="302.230469" xlink:href="#DejaVuSans-28"/>
      <use x="341.244141" xlink:href="#DejaVuSans-4e"/>
      <use x="416.048828" xlink:href="#DejaVuSans-29"/>
     </g>
    </g>
   </g>
   <g id="line2d_12">
    <path clip-path="url(#pfa53f8262a)" d="M 136.150289 64.9512 
L 155.030723 64.9512 
L 155.340238 68.4432 
L 155.649753 68.4432 
L 156.268784 75.4272 
L 156.887814 75.4272 
L 158.125876 89.3952 
L 158.744906 89.3952 
L 159.054421 85.9032 
L 159.363937 85.9032 
L 159.673452 82.4112 
L 159.982967 82.4112 
L 160.292483 78.9192 
L 160.601998 78.9192 
L 160.911513 75.4272 
L 161.221029 75.4272 
L 162.149574 64.9512 
L 162.45909 64.9512 
L 162.768605 68.4432 
L 163.07812 68.4432 
L 163.387636 71.9352 
L 163.697151 71.9352 
L 164.006666 75.4272 
L 164.316182 75.4272 
L 164.625697 78.9192 
L 164.935212 78.9192 
L 165.863758 89.3952 
L 166.173273 89.3952 
L 166.482789 92.8872 
L 166.792304 92.8872 
L 167.101819 96.3792 
L 167.411335 96.3792 
L 167.72085 99.8712 
L 168.030365 99.8712 
L 168.339881 103.3632 
L 168.649396 103.3632 
L 168.958911 99.8712 
L 169.268426 99.8712 
L 169.887457 92.8872 
L 170.196972 92.8872 
L 170.506488 89.3952 
L 171.125518 89.3952 
L 171.435034 82.4112 
L 171.744549 82.4112 
L 172.054064 78.9192 
L 172.363579 78.9192 
L 172.673095 75.4272 
L 172.98261 75.4272 
L 173.292125 71.9352 
L 173.601641 71.9352 
L 173.911156 68.4432 
L 174.220671 68.4432 
L 174.530187 71.9352 
L 174.839702 71.9352 
L 175.149217 75.4272 
L 175.458732 75.4272 
L 175.768248 78.9192 
L 176.077763 78.9192 
L 176.387278 82.4112 
L 176.696794 82.4112 
L 177.006309 85.9032 
L 177.315824 85.9032 
L 177.62534 89.3952 
L 177.934855 89.3952 
L 178.24437 92.8872 
L 178.553885 92.8872 
L 179.791947 106.8552 
L 180.101462 106.8552 
L 180.410977 110.3472 
L 181.030008 110.3472 
L 181.649038 103.3632 
L 182.268069 103.3632 
L 182.577584 99.8712 
L 182.8871 99.8712 
L 183.196615 96.3792 
L 183.50613 96.3792 
L 183.815646 92.8872 
L 184.125161 92.8872 
L 184.434676 89.3952 
L 184.744191 89.3952 
L 185.053707 85.9032 
L 185.363222 85.9032 
L 185.672737 82.4112 
L 185.982253 82.4112 
L 186.291768 78.9192 
L 186.601283 78.9192 
L 187.529829 89.3952 
L 187.839344 89.3952 
L 188.14886 92.8872 
L 188.458375 92.8872 
L 188.76789 96.3792 
L 189.077406 96.3792 
L 189.386921 99.8712 
L 189.696436 99.8712 
L 190.005952 103.3632 
L 190.315467 103.3632 
L 190.624982 106.8552 
L 190.934497 106.8552 
L 191.244013 110.3472 
L 191.553528 110.3472 
L 191.863043 113.8392 
L 192.172559 113.8392 
L 192.482074 117.3312 
L 192.791589 117.3312 
L 193.101105 113.8392 
L 193.41062 113.8392 
L 193.720135 110.3472 
L 194.02965 110.3472 
L 194.958196 99.8712 
L 195.267712 99.8712 
L 195.577227 96.3792 
L 195.886742 96.3792 
L 196.196258 92.8872 
L 196.505773 92.8872 
L 196.815288 89.3952 
L 197.124803 89.3952 
L 197.434319 85.9032 
L 197.743834 85.9032 
L 198.053349 89.3952 
L 198.362865 89.3952 
L 198.67238 92.8872 
L 198.981895 92.8872 
L 199.600926 99.8712 
L 200.219956 99.8712 
L 200.529472 103.3632 
L 200.838987 103.3632 
L 201.148502 106.8552 
L 201.458018 106.8552 
L 201.767533 110.3472 
L 202.077048 110.3472 
L 202.386564 113.8392 
L 202.696079 113.8392 
L 203.005594 117.3312 
L 203.315109 117.3312 
L 203.624625 120.8232 
L 203.93414 120.8232 
L 204.243655 124.3152 
L 204.553171 124.3152 
L 204.862686 127.8072 
L 205.172201 127.8072 
L 205.481717 124.3152 
L 205.791232 124.3152 
L 206.719778 113.8392 
L 207.029293 113.8392 
L 207.338808 110.3472 
L 207.648324 110.3472 
L 207.957839 106.8552 
L 208.267354 106.8552 
L 208.57687 103.3632 
L 208.886385 103.3632 
L 209.1959 99.8712 
L 209.505415 99.8712 
L 209.814931 96.3792 
L 210.124446 96.3792 
L 210.433961 92.8872 
L 210.743477 92.8872 
L 211.052992 96.3792 
L 211.362507 96.3792 
L 211.672023 99.8712 
L 211.981538 99.8712 
L 212.291053 103.3632 
L 212.600568 103.3632 
L 212.910084 106.8552 
L 213.219599 106.8552 
L 213.529114 110.3472 
L 213.83863 110.3472 
L 214.45766 117.3312 
L 215.076691 117.3312 
L 215.386206 120.8232 
L 215.695721 120.8232 
L 216.005237 124.3152 
L 216.314752 124.3152 
L 216.624267 127.8072 
L 216.933783 127.8072 
L 217.243298 131.2992 
L 217.552813 131.2992 
L 217.862329 134.7912 
L 218.171844 134.7912 
L 218.481359 131.2992 
L 218.790874 131.2992 
L 219.10039 127.8072 
L 219.409905 127.8072 
L 219.71942 124.3152 
L 220.028936 124.3152 
L 220.647966 117.3312 
L 221.266997 117.3312 
L 221.576512 110.3472 
L 221.886027 110.3472 
L 222.195543 106.8552 
L 222.505058 106.8552 
L 222.814573 103.3632 
L 223.124089 103.3632 
L 223.433604 99.8712 
L 223.743119 99.8712 
L 224.052635 103.3632 
L 224.36215 103.3632 
L 224.671665 106.8552 
L 224.98118 106.8552 
L 225.600211 113.8392 
L 226.219242 113.8392 
L 226.528757 117.3312 
L 226.838272 117.3312 
L 227.147788 120.8232 
L 227.457303 120.8232 
L 227.766818 124.3152 
L 228.076333 124.3152 
L 228.385849 127.8072 
L 228.695364 127.8072 
L 229.004879 131.2992 
L 229.314395 131.2992 
L 229.62391 134.7912 
L 229.933425 134.7912 
L 230.552456 141.7752 
L 231.171486 141.7752 
L 231.481002 138.2832 
L 231.790517 138.2832 
L 232.100032 134.7912 
L 232.409548 134.7912 
L 233.028578 127.8072 
L 233.647609 127.8072 
L 233.957124 124.3152 
L 234.266639 124.3152 
L 234.576155 120.8232 
L 234.88567 120.8232 
L 235.195185 117.3312 
L 235.504701 117.3312 
L 236.123731 110.3472 
L 236.742762 110.3472 
L 237.671308 120.8232 
L 237.980823 120.8232 
L 238.290338 124.3152 
L 238.599854 124.3152 
L 238.909369 127.8072 
L 239.218884 127.8072 
L 239.5284 131.2992 
L 239.837915 131.2992 
L 240.14743 134.7912 
L 240.456945 134.7912 
L 240.766461 138.2832 
L 241.075976 138.2832 
L 241.385491 141.7752 
L 241.695007 141.7752 
L 242.004522 145.2672 
L 242.314037 145.2672 
L 242.623553 148.7592 
L 242.933068 148.7592 
L 243.242583 152.2512 
L 243.552099 148.7592 
L 244.171129 148.7592 
L 244.480644 145.2672 
L 244.79016 145.2672 
L 245.099675 141.7752 
L 245.40919 141.7752 
L 245.718706 138.2832 
L 246.028221 138.2832 
L 246.337736 134.7912 
L 246.647252 134.7912 
L 246.956767 131.2992 
L 247.266282 131.2992 
L 247.575797 127.8072 
L 247.885313 127.8072 
L 248.194828 124.3152 
L 248.504343 124.3152 
L 248.813859 127.8072 
L 249.123374 127.8072 
L 249.432889 131.2992 
L 249.742405 131.2992 
L 250.361435 138.2832 
L 250.980466 138.2832 
L 251.289981 141.7752 
L 251.599496 141.7752 
L 251.909012 145.2672 
L 252.218527 145.2672 
L 253.147073 155.7432 
L 253.456588 155.7432 
L 253.766103 159.2352 
L 254.075619 159.2352 
L 254.385134 162.7272 
L 254.694649 162.7272 
L 255.004165 166.2192 
L 255.31368 166.2192 
L 255.623195 162.7272 
L 255.932711 162.7272 
L 256.242226 159.2352 
L 256.551741 159.2352 
L 256.861256 155.7432 
L 257.170772 155.7432 
L 257.480287 152.2512 
L 257.789802 152.2512 
L 258.099318 148.7592 
L 258.408833 148.7592 
L 258.718348 145.2672 
L 259.027864 145.2672 
L 259.337379 141.7752 
L 259.646894 141.7752 
L 259.956409 138.2832 
L 260.265925 138.2832 
L 260.57544 134.7912 
L 260.884955 134.7912 
L 261.813501 145.2672 
L 262.123017 145.2672 
L 262.432532 152.2512 
L 262.742047 152.2512 
L 263.051562 155.7432 
L 263.361078 155.7432 
L 264.289624 166.2192 
L 264.599139 166.2192 
L 265.527685 176.6952 
L 265.8372 176.6952 
L 266.146715 180.1872 
L 266.765746 173.2032 
L 267.075261 173.2032 
L 268.003807 162.7272 
L 268.313323 162.7272 
L 269.241868 152.2512 
L 269.551384 152.2512 
L 270.47993 141.7752 
L 270.789445 141.7752 
L 271.717991 152.2512 
L 272.027506 152.2512 
L 272.956052 162.7272 
L 273.265567 162.7272 
L 274.194113 173.2032 
L 274.503629 173.2032 
L 275.432174 183.6792 
L 275.74169 183.6792 
L 276.051205 187.1712 
L 276.36072 187.1712 
L 276.670236 183.6792 
L 276.979751 176.6952 
L 277.598782 176.6952 
L 278.527327 166.2192 
L 278.836843 166.2192 
L 279.765389 176.6952 
L 280.074904 176.6952 
L 280.384419 183.6792 
L 280.693935 183.6792 
L 281.00345 187.1712 
L 281.312965 187.1712 
L 282.241511 197.6472 
L 282.551026 197.6472 
L 283.479572 208.1232 
L 283.789088 208.1232 
L 284.098603 211.6152 
L 284.717633 204.6312 
L 285.027149 204.6312 
L 285.955695 194.1552 
L 286.26521 194.1552 
L 287.193756 183.6792 
L 287.503271 183.6792 
L 287.812786 180.1872 
L 288.431817 187.1712 
L 288.741332 187.1712 
L 289.669878 197.6472 
L 289.979394 197.6472 
L 290.288909 201.1392 
L 290.598424 208.1232 
L 291.217455 208.1232 
L 291.52697 211.6152 
L 291.836485 211.6152 
L 292.765031 222.0912 
L 293.074547 222.0912 
L 294.003092 211.6152 
L 294.312608 211.6152 
L 295.241154 201.1392 
L 295.550669 201.1392 
L 296.479215 190.6632 
L 296.78873 190.6632 
L 297.098245 197.6472 
L 297.407761 197.6472 
L 297.717276 201.1392 
L 298.026791 201.1392 
L 298.955337 211.6152 
L 299.264853 211.6152 
L 300.193398 222.0912 
L 300.502914 222.0912 
L 301.43146 232.5672 
L 301.740975 232.5672 
L 302.360006 239.5512 
L 302.669521 236.0592 
L 302.979036 236.0592 
L 303.907582 225.5832 
L 304.217097 225.5832 
L 305.145643 215.1072 
L 305.455159 215.1072 
L 305.764674 211.6152 
L 306.383704 218.5992 
L 306.69322 218.5992 
L 307.002735 222.0912 
L 307.31225 222.0912 
L 308.240796 232.5672 
L 308.550312 232.5672 
L 309.478857 243.0432 
L 309.788373 243.0432 
L 310.716919 253.5192 
L 311.026434 253.5192 
L 311.95498 243.0432 
L 312.264495 243.0432 
L 313.193041 232.5672 
L 313.502556 232.5672 
L 314.431102 222.0912 
L 314.740618 222.0912 
L 315.669164 232.5672 
L 315.978679 232.5672 
L 316.907225 243.0432 
L 317.21674 243.0432 
L 318.145286 253.5192 
L 318.454801 253.5192 
L 319.073832 260.5032 
L 319.383347 257.0112 
L 319.692862 257.0112 
L 320.002378 253.5192 
L 320.311893 246.5352 
L 320.930924 246.5352 
L 321.240439 243.0432 
L 321.549954 246.5352 
L 321.85947 243.0432 
L 322.168985 243.0432 
L 322.4785 246.5352 
L 322.788015 246.5352 
L 323.716561 257.0112 
L 324.026077 257.0112 
L 324.954623 267.4872 
L 325.264138 267.4872 
L 325.573653 274.4712 
L 325.883168 274.4712 
L 326.502199 281.4552 
L 326.811714 281.4552 
L 327.430745 274.4712 
L 327.74026 274.4712 
L 328.668806 263.9952 
L 328.978321 263.9952 
L 329.906867 253.5192 
L 330.216383 253.5192 
L 330.525898 250.0272 
L 331.144929 257.0112 
L 331.454444 257.0112 
L 332.38299 267.4872 
L 332.692505 267.4872 
L 333.621051 277.9632 
L 333.930566 277.9632 
L 334.859112 288.4392 
L 335.168627 288.4392 
L 336.097173 277.9632 
L 336.406689 277.9632 
L 336.716204 274.4712 
L 337.025719 277.9632 
L 337.335235 274.4712 
L 337.64475 274.4712 
L 337.954265 277.9632 
L 338.26378 277.9632 
L 339.192326 288.4392 
L 339.501842 288.4392 
L 340.430388 298.9152 
L 340.739903 298.9152 
L 341.668449 309.3912 
L 341.977964 309.3912 
L 342.90651 298.9152 
L 343.216025 298.9152 
L 344.144571 288.4392 
L 344.454086 288.4392 
L 345.382632 277.9632 
L 346.311178 277.9632 
L 346.620694 281.4552 
L 346.930209 281.4552 
L 347.858755 291.9312 
L 348.16827 291.9312 
L 349.096816 302.4072 
L 349.406331 302.4072 
L 350.334877 312.8832 
L 350.644392 312.8832 
L 351.263423 319.8672 
L 351.572938 316.3752 
L 351.882454 316.3752 
L 352.811 305.8992 
L 353.120515 305.8992 
L 353.43003 302.4072 
L 353.739545 302.4072 
L 354.668091 312.8832 
L 354.977607 312.8832 
L 355.906153 323.3592 
L 356.215668 323.3592 
L 357.144214 333.8352 
L 357.453729 333.8352 
L 357.763244 337.3272 
L 358.382275 330.3432 
L 358.69179 330.3432 
L 359.620336 319.8672 
L 359.929851 319.8672 
L 360.858397 309.3912 
L 361.167913 309.3912 
L 361.477428 305.8992 
L 362.096459 312.8832 
L 362.405974 312.8832 
L 363.33452 323.3592 
L 363.644035 323.3592 
L 364.572581 333.8352 
L 364.882096 333.8352 
L 365.191612 337.3272 
L 366.120157 337.3272 
L 367.048703 326.8512 
L 367.358219 326.8512 
L 367.667734 323.3592 
L 368.286765 330.3432 
L 368.59628 330.3432 
L 368.905795 333.8352 
L 369.21531 333.8352 
L 370.143856 344.3112 
L 370.453372 344.3112 
L 371.381918 354.7872 
L 371.691433 354.7872 
L 372.000948 358.2792 
L 372.619979 351.2952 
L 372.929494 351.2952 
L 373.85804 340.8192 
L 374.167555 340.8192 
L 375.096101 330.3432 
L 375.405616 330.3432 
L 375.715132 326.8512 
L 376.334162 333.8352 
L 376.643678 333.8352 
L 377.572224 344.3112 
L 377.881739 344.3112 
L 378.810285 354.7872 
L 379.1198 354.7872 
L 379.429315 358.2792 
L 380.048346 351.2952 
L 380.357861 351.2952 
L 381.286407 340.8192 
L 381.595922 340.8192 
L 382.524468 330.3432 
L 382.833984 330.3432 
L 383.76253 319.8672 
L 384.072045 319.8672 
L 384.38156 316.3752 
L 384.691075 316.3752 
L 385.000591 312.8832 
L 385.310106 312.8832 
L 386.238652 302.4072 
L 386.548167 302.4072 
L 386.857683 298.9152 
L 387.167198 298.9152 
L 387.476713 295.4232 
L 387.786229 295.4232 
L 388.714774 284.9472 
L 389.02429 284.9472 
L 389.333805 281.4552 
L 389.64332 281.4552 
L 390.262351 274.4712 
L 390.571866 274.4712 
L 391.190897 267.4872 
L 391.500412 267.4872 
L 391.809927 263.9952 
L 392.119443 263.9952 
L 392.428958 260.5032 
L 392.738473 260.5032 
L 393.667019 250.0272 
L 393.976535 250.0272 
L 394.28605 246.5352 
L 394.595565 246.5352 
L 394.90508 243.0432 
L 395.214596 243.0432 
L 396.143142 232.5672 
L 396.452657 232.5672 
L 396.762172 229.0752 
L 397.071688 229.0752 
L 397.381203 225.5832 
L 397.690718 225.5832 
L 398.619264 215.1072 
L 398.928779 215.1072 
L 399.238295 211.6152 
L 399.54781 211.6152 
L 399.857325 208.1232 
L 400.166841 208.1232 
L 400.476356 204.6312 
L 400.785871 204.6312 
L 401.714417 194.1552 
L 402.023932 194.1552 
L 402.333448 190.6632 
L 402.642963 190.6632 
L 402.952478 187.1712 
L 403.261994 187.1712 
L 404.190539 176.6952 
L 404.500055 176.6952 
L 404.80957 173.2032 
L 405.119085 173.2032 
L 405.428601 169.7112 
L 405.738116 169.7112 
L 406.666662 159.2352 
L 406.976177 159.2352 
L 407.285692 155.7432 
L 407.595208 155.7432 
L 407.904723 152.2512 
L 408.214238 152.2512 
L 409.142784 141.7752 
L 409.4523 141.7752 
L 409.761815 138.2832 
L 410.07133 138.2832 
L 410.380845 134.7912 
L 410.690361 134.7912 
L 411.618907 124.3152 
L 411.928422 124.3152 
L 412.237937 120.8232 
L 412.547453 120.8232 
L 412.856968 117.3312 
L 413.166483 117.3312 
L 414.095029 106.8552 
L 414.404544 106.8552 
L 414.71406 103.3632 
L 415.023575 103.3632 
L 415.33309 99.8712 
L 415.642606 99.8712 
L 415.952121 96.3792 
L 416.261636 96.3792 
L 417.190182 85.9032 
L 417.499697 85.9032 
L 417.809213 82.4112 
L 418.118728 82.4112 
L 418.428243 78.9192 
L 418.737759 78.9192 
L 419.666304 68.4432 
L 419.97582 68.4432 
L 420.285335 64.9512 
L 445.356074 64.9512 
L 445.356074 64.9512 
" style="fill:none;stroke:#1f77b4;stroke-linecap:square;stroke-width:1.5;"/>
   </g>
   <g id="patch_3">
    <path d="M 120.69 372.9456 
L 120.69 50.2848 
" style="fill:none;stroke:#000000;stroke-linecap:square;stroke-linejoin:miter;stroke-width:0.8;"/>
   </g>
   <g id="patch_4">
    <path d="M 460.816364 372.9456 
L 460.816364 50.2848 
" style="fill:none;stroke:#000000;stroke-linecap:square;stroke-linejoin:miter;stroke-width:0.8;"/>
   </g>
   <g id="patch_5">
    <path d="M 120.69 372.9456 
L 460.816364 372.9456 
" style="fill:none;stroke:#000000;stroke-linecap:square;stroke-linejoin:miter;stroke-width:0.8;"/>
   </g>
   <g id="patch_6">
    <path d="M 120.69 50.2848 
L 460.816364 50.2848 
" style="fill:none;stroke:#000000;stroke-linecap:square;stroke-linejoin:miter;stroke-width:0.8;"/>
   </g>
   <g id="text_14">
    <!-- Force in x -->
    <g transform="translate(250.066994 44.2848)scale(0.168 -0.168)">
     <defs>
      <path d="M 3513 2113 
L 3513 0 
L 2938 0 
L 2938 2094 
Q 2938 2591 2744 2837 
Q 2550 3084 2163 3084 
Q 1697 3084 1428 2787 
Q 1159 2491 1159 1978 
L 1159 0 
L 581 0 
L 581 3500 
L 1159 3500 
L 1159 2956 
Q 1366 3272 1645 3428 
Q 1925 3584 2291 3584 
Q 2894 3584 3203 3211 
Q 3513 2838 3513 2113 
z
" id="DejaVuSans-6e" transform="scale(0.015625)"/>
      <path d="M 3513 3500 
L 2247 1797 
L 3578 0 
L 2900 0 
L 1881 1375 
L 863 0 
L 184 0 
L 1544 1831 
L 300 3500 
L 978 3500 
L 1906 2253 
L 2834 3500 
L 3513 3500 
z
" id="DejaVuSans-78" transform="scale(0.015625)"/>
     </defs>
     <use xlink:href="#DejaVuSans-46"/>
     <use x="53.894531" xlink:href="#DejaVuSans-6f"/>
     <use x="115.076172" xlink:href="#DejaVuSans-72"/>
     <use x="153.939453" xlink:href="#DejaVuSans-63"/>
     <use x="208.919922" xlink:href="#DejaVuSans-65"/>
     <use x="270.443359" xlink:href="#DejaVuSans-20"/>
     <use x="302.230469" xlink:href="#DejaVuSans-69"/>
     <use x="330.013672" xlink:href="#DejaVuSans-6e"/>
     <use x="393.392578" xlink:href="#DejaVuSans-20"/>
     <use x="425.179688" xlink:href="#DejaVuSans-78"/>
    </g>
   </g>
   <g id="legend_1">
    <g id="patch_7">
     <path d="M 130.49 365.9456 
L 136.09 365.9456 
Q 138.89 365.9456 138.89 363.1456 
L 138.89 357.5456 
Q 138.89 354.7456 136.09 354.7456 
L 130.49 354.7456 
Q 127.69 354.7456 127.69 357.5456 
L 127.69 363.1456 
Q 127.69 365.9456 130.49 365.9456 
z
" style="fill:#ffffff;opacity:0.8;stroke:#cccccc;stroke-linejoin:miter;"/>
    </g>
   </g>
  </g>
  <g id="axes_2">
   <g id="patch_8">
    <path d="M 528.841636 372.9456 
L 868.968 372.9456 
L 868.968 50.2848 
L 528.841636 50.2848 
z
" style="fill:#ffffff;"/>
   </g>
   <g id="matplotlib.axis_3">
    <g id="xtick_7">
     <g id="line2d_13">
      <g>
       <use style="stroke:#000000;stroke-width:0.8;" x="544.301926" xlink:href="#md95fdc1ad0" y="372.9456"/>
      </g>
     </g>
     <g id="text_15">
      <!-- 0 -->
      <g transform="translate(539.848176 390.583413)scale(0.14 -0.14)">
       <use xlink:href="#DejaVuSans-30"/>
      </g>
     </g>
    </g>
    <g id="xtick_8">
     <g id="line2d_14">
      <g>
       <use style="stroke:#000000;stroke-width:0.8;" x="606.204986" xlink:href="#md95fdc1ad0" y="372.9456"/>
      </g>
     </g>
     <g id="text_16">
      <!-- 1 -->
      <g transform="translate(601.751236 390.583413)scale(0.14 -0.14)">
       <use xlink:href="#DejaVuSans-31"/>
      </g>
     </g>
    </g>
    <g id="xtick_9">
     <g id="line2d_15">
      <g>
       <use style="stroke:#000000;stroke-width:0.8;" x="668.108046" xlink:href="#md95fdc1ad0" y="372.9456"/>
      </g>
     </g>
     <g id="text_17">
      <!-- 2 -->
      <g transform="translate(663.654296 390.583413)scale(0.14 -0.14)">
       <use xlink:href="#DejaVuSans-32"/>
      </g>
     </g>
    </g>
    <g id="xtick_10">
     <g id="line2d_16">
      <g>
       <use style="stroke:#000000;stroke-width:0.8;" x="730.011106" xlink:href="#md95fdc1ad0" y="372.9456"/>
      </g>
     </g>
     <g id="text_18">
      <!-- 3 -->
      <g transform="translate(725.557356 390.583413)scale(0.14 -0.14)">
       <use xlink:href="#DejaVuSans-33"/>
      </g>
     </g>
    </g>
    <g id="xtick_11">
     <g id="line2d_17">
      <g>
       <use style="stroke:#000000;stroke-width:0.8;" x="791.914166" xlink:href="#md95fdc1ad0" y="372.9456"/>
      </g>
     </g>
     <g id="text_19">
      <!-- 4 -->
      <g transform="translate(787.460416 390.583413)scale(0.14 -0.14)">
       <use xlink:href="#DejaVuSans-34"/>
      </g>
     </g>
    </g>
    <g id="xtick_12">
     <g id="line2d_18">
      <g>
       <use style="stroke:#000000;stroke-width:0.8;" x="853.817226" xlink:href="#md95fdc1ad0" y="372.9456"/>
      </g>
     </g>
     <g id="text_20">
      <!-- 5 -->
      <g transform="translate(849.363476 390.583413)scale(0.14 -0.14)">
       <use xlink:href="#DejaVuSans-35"/>
      </g>
     </g>
    </g>
    <g id="text_21">
     <!-- Time (s) -->
     <g transform="translate(670.444349 408.132788)scale(0.14 -0.14)">
      <use xlink:href="#DejaVuSans-54"/>
      <use x="57.958984" xlink:href="#DejaVuSans-69"/>
      <use x="85.742188" xlink:href="#DejaVuSans-6d"/>
      <use x="183.154297" xlink:href="#DejaVuSans-65"/>
      <use x="244.677734" xlink:href="#DejaVuSans-20"/>
      <use x="276.464844" xlink:href="#DejaVuSans-28"/>
      <use x="315.478516" xlink:href="#DejaVuSans-73"/>
      <use x="367.578125" xlink:href="#DejaVuSans-29"/>
     </g>
    </g>
   </g>
   <g id="matplotlib.axis_4">
    <g id="ytick_6">
     <g id="line2d_19">
      <g>
       <use style="stroke:#000000;stroke-width:0.8;" x="528.841636" xlink:href="#maef963d03c" y="330.386465"/>
      </g>
     </g>
     <g id="text_22">
      <!-- −60 -->
      <g transform="translate(492.295074 335.705371)scale(0.14 -0.14)">
       <use xlink:href="#DejaVuSans-2212"/>
       <use x="83.789062" xlink:href="#DejaVuSans-36"/>
       <use x="147.412109" xlink:href="#DejaVuSans-30"/>
      </g>
     </g>
    </g>
    <g id="ytick_7">
     <g id="line2d_20">
      <g>
       <use style="stroke:#000000;stroke-width:0.8;" x="528.841636" xlink:href="#maef963d03c" y="286.8622"/>
      </g>
     </g>
     <g id="text_23">
      <!-- −50 -->
      <g transform="translate(492.295074 292.181106)scale(0.14 -0.14)">
       <use xlink:href="#DejaVuSans-2212"/>
       <use x="83.789062" xlink:href="#DejaVuSans-35"/>
       <use x="147.412109" xlink:href="#DejaVuSans-30"/>
      </g>
     </g>
    </g>
    <g id="ytick_8">
     <g id="line2d_21">
      <g>
       <use style="stroke:#000000;stroke-width:0.8;" x="528.841636" xlink:href="#maef963d03c" y="243.337934"/>
      </g>
     </g>
     <g id="text_24">
      <!-- −40 -->
      <g transform="translate(492.295074 248.65684)scale(0.14 -0.14)">
       <use xlink:href="#DejaVuSans-2212"/>
       <use x="83.789062" xlink:href="#DejaVuSans-34"/>
       <use x="147.412109" xlink:href="#DejaVuSans-30"/>
      </g>
     </g>
    </g>
    <g id="ytick_9">
     <g id="line2d_22">
      <g>
       <use style="stroke:#000000;stroke-width:0.8;" x="528.841636" xlink:href="#maef963d03c" y="199.813669"/>
      </g>
     </g>
     <g id="text_25">
      <!-- −30 -->
      <g transform="translate(492.295074 205.132575)scale(0.14 -0.14)">
       <use xlink:href="#DejaVuSans-2212"/>
       <use x="83.789062" xlink:href="#DejaVuSans-33"/>
       <use x="147.412109" xlink:href="#DejaVuSans-30"/>
      </g>
     </g>
    </g>
    <g id="ytick_10">
     <g id="line2d_23">
      <g>
       <use style="stroke:#000000;stroke-width:0.8;" x="528.841636" xlink:href="#maef963d03c" y="156.289403"/>
      </g>
     </g>
     <g id="text_26">
      <!-- −20 -->
      <g transform="translate(492.295074 161.608309)scale(0.14 -0.14)">
       <use xlink:href="#DejaVuSans-2212"/>
       <use x="83.789062" xlink:href="#DejaVuSans-32"/>
       <use x="147.412109" xlink:href="#DejaVuSans-30"/>
      </g>
     </g>
    </g>
    <g id="ytick_11">
     <g id="line2d_24">
      <g>
       <use style="stroke:#000000;stroke-width:0.8;" x="528.841636" xlink:href="#maef963d03c" y="112.765138"/>
      </g>
     </g>
     <g id="text_27">
      <!-- −10 -->
      <g transform="translate(492.295074 118.084044)scale(0.14 -0.14)">
       <use xlink:href="#DejaVuSans-2212"/>
       <use x="83.789062" xlink:href="#DejaVuSans-31"/>
       <use x="147.412109" xlink:href="#DejaVuSans-30"/>
      </g>
     </g>
    </g>
    <g id="ytick_12">
     <g id="line2d_25">
      <g>
       <use style="stroke:#000000;stroke-width:0.8;" x="528.841636" xlink:href="#maef963d03c" y="69.240872"/>
      </g>
     </g>
     <g id="text_28">
      <!-- 0 -->
      <g transform="translate(512.934136 74.559778)scale(0.14 -0.14)">
       <use xlink:href="#DejaVuSans-30"/>
      </g>
     </g>
    </g>
    <g id="text_29">
     <!-- Torque (Nmm) -->
     <g transform="translate(485.383511 261.486919)rotate(-90)scale(0.14 -0.14)">
      <defs>
       <path d="M 947 1747 
Q 947 1113 1208 752 
Q 1469 391 1925 391 
Q 2381 391 2643 752 
Q 2906 1113 2906 1747 
Q 2906 2381 2643 2742 
Q 2381 3103 1925 3103 
Q 1469 3103 1208 2742 
Q 947 2381 947 1747 
z
M 2906 525 
Q 2725 213 2448 61 
Q 2172 -91 1784 -91 
Q 1150 -91 751 415 
Q 353 922 353 1747 
Q 353 2572 751 3078 
Q 1150 3584 1784 3584 
Q 2172 3584 2448 3432 
Q 2725 3281 2906 2969 
L 2906 3500 
L 3481 3500 
L 3481 -1331 
L 2906 -1331 
L 2906 525 
z
" id="DejaVuSans-71" transform="scale(0.015625)"/>
       <path d="M 544 1381 
L 544 3500 
L 1119 3500 
L 1119 1403 
Q 1119 906 1312 657 
Q 1506 409 1894 409 
Q 2359 409 2629 706 
Q 2900 1003 2900 1516 
L 2900 3500 
L 3475 3500 
L 3475 0 
L 2900 0 
L 2900 538 
Q 2691 219 2414 64 
Q 2138 -91 1772 -91 
Q 1169 -91 856 284 
Q 544 659 544 1381 
z
M 1991 3584 
L 1991 3584 
z
" id="DejaVuSans-75" transform="scale(0.015625)"/>
      </defs>
      <use xlink:href="#DejaVuSans-54"/>
      <use x="44.083984" xlink:href="#DejaVuSans-6f"/>
      <use x="105.265625" xlink:href="#DejaVuSans-72"/>
      <use x="144.628906" xlink:href="#DejaVuSans-71"/>
      <use x="208.105469" xlink:href="#DejaVuSans-75"/>
      <use x="271.484375" xlink:href="#DejaVuSans-65"/>
      <use x="333.007812" xlink:href="#DejaVuSans-20"/>
      <use x="364.794922" xlink:href="#DejaVuSans-28"/>
      <use x="403.808594" xlink:href="#DejaVuSans-4e"/>
      <use x="478.613281" xlink:href="#DejaVuSans-6d"/>
      <use x="576.025391" xlink:href="#DejaVuSans-6d"/>
      <use x="673.4375" xlink:href="#DejaVuSans-29"/>
     </g>
    </g>
   </g>
   <g id="line2d_26">
    <path clip-path="url(#p4cef29ea6d)" d="M 544.301926 69.240872 
L 563.182359 69.240872 
L 563.491874 70.889153 
L 563.80139 70.889153 
L 564.42042 74.185687 
L 565.039451 74.185661 
L 566.277512 80.778617 
L 566.896543 80.778582 
L 567.206058 79.130307 
L 567.515573 79.130307 
L 567.825088 77.482037 
L 568.134604 77.482037 
L 568.444119 75.833772 
L 568.753634 75.833772 
L 569.06315 74.185518 
L 569.372665 74.185518 
L 570.301211 69.240872 
L 570.610726 69.240872 
L 570.920241 70.889042 
L 571.229757 70.889042 
L 571.539272 72.537177 
L 571.848787 72.537177 
L 572.158303 74.185282 
L 572.467818 74.185282 
L 572.777333 75.833362 
L 573.086849 75.833362 
L 574.015394 80.777575 
L 574.32491 80.777575 
L 574.634425 82.425614 
L 574.94394 82.425614 
L 575.253456 84.073653 
L 575.562971 84.073653 
L 575.872486 85.721696 
L 576.182002 85.721696 
L 576.491517 87.369746 
L 576.801032 87.369746 
L 577.110547 85.721631 
L 577.420063 85.721631 
L 578.039093 82.425435 
L 578.348609 82.425369 
L 578.658124 80.777307 
L 579.277155 80.777232 
L 579.58667 77.481049 
L 579.896185 77.481049 
L 580.2057 75.832929 
L 580.515216 75.832929 
L 580.824731 74.184839 
L 581.134246 74.184839 
L 581.443762 72.536795 
L 581.753277 72.536795 
L 582.062792 70.888804 
L 582.372308 70.888804 
L 582.681823 72.536679 
L 582.991338 72.536679 
L 583.300853 74.184505 
L 583.610369 74.184505 
L 583.919884 75.832292 
L 584.229399 75.832292 
L 584.538915 77.480051 
L 584.84843 77.480051 
L 585.157945 79.12779 
L 585.467461 79.12779 
L 585.776976 80.775511 
L 586.086491 80.775511 
L 586.396006 82.423193 
L 586.705522 82.423193 
L 587.943583 89.014052 
L 588.253098 89.013956 
L 588.562614 90.661713 
L 589.181644 90.661644 
L 589.800675 87.366081 
L 590.419705 87.365989 
L 590.729221 85.718135 
L 591.038736 85.718135 
L 591.348251 84.070273 
L 591.657767 84.070273 
L 591.967282 82.422415 
L 592.276797 82.422415 
L 592.586312 80.774573 
L 592.895828 80.774573 
L 593.205343 79.126756 
L 593.514858 79.126756 
L 593.824374 77.478975 
L 594.133889 77.478975 
L 594.443404 75.831236 
L 594.75292 75.831236 
L 595.681465 80.77358 
L 595.990981 80.77358 
L 596.300496 82.420877 
L 596.610011 82.420877 
L 596.919527 84.068154 
L 597.229042 84.068154 
L 597.538557 85.71543 
L 597.848073 85.71543 
L 598.157588 87.362714 
L 598.467103 87.362714 
L 598.776618 89.010017 
L 599.086134 89.010017 
L 599.395649 90.657344 
L 599.705164 90.657344 
L 600.01468 92.304698 
L 600.324195 92.304698 
L 600.63371 93.952088 
L 600.943226 93.952088 
L 601.252741 92.304635 
L 601.562256 92.304635 
L 601.871771 90.657131 
L 602.181287 90.657131 
L 603.109833 85.714611 
L 603.419348 85.714611 
L 603.728863 84.067008 
L 604.038379 84.067008 
L 604.347894 82.419424 
L 604.657409 82.419424 
L 604.966925 80.771875 
L 605.27644 80.771875 
L 605.585955 79.124334 
L 605.89547 79.124334 
L 606.204986 80.77126 
L 606.514501 80.77126 
L 606.824016 82.418128 
L 607.133532 82.418128 
L 607.752562 85.712096 
L 608.371593 85.711816 
L 608.681108 87.358672 
L 608.990623 87.358672 
L 609.300139 89.005545 
L 609.609654 89.005545 
L 609.919169 90.652449 
L 610.228685 90.652449 
L 610.5382 92.299381 
L 610.847715 92.299381 
L 611.157231 93.946347 
L 611.466746 93.946347 
L 611.776261 95.59335 
L 612.085776 95.59335 
L 612.395292 97.240398 
L 612.704807 97.240398 
L 613.014322 98.887494 
L 613.323838 98.887494 
L 613.633353 97.240487 
L 613.942868 97.240487 
L 614.871414 92.299146 
L 615.180929 92.299146 
L 615.490445 90.651849 
L 615.79996 90.651849 
L 616.109475 89.004535 
L 616.418991 89.004535 
L 616.728506 87.357194 
L 617.038021 87.357194 
L 617.347537 85.709796 
L 617.657052 85.709796 
L 617.966567 84.06244 
L 618.276082 84.06244 
L 618.585598 82.415173 
L 618.895113 82.415173 
L 619.204628 84.061509 
L 619.514144 84.061509 
L 619.823659 85.707821 
L 620.133174 85.707821 
L 620.44269 87.354135 
L 620.752205 87.354135 
L 621.06172 89.000473 
L 621.371235 89.000473 
L 621.680751 90.646836 
L 621.990266 90.646836 
L 622.609297 93.939828 
L 623.228327 93.939667 
L 623.537843 95.586146 
L 623.847358 95.586146 
L 624.156873 97.23267 
L 624.466388 97.23267 
L 624.775904 98.879247 
L 625.085419 98.879247 
L 625.394934 100.525876 
L 625.70445 100.525876 
L 626.013965 102.172564 
L 626.32348 102.172564 
L 626.632996 100.526041 
L 626.942511 100.526041 
L 627.252026 98.879396 
L 627.561541 98.879396 
L 627.871057 97.232634 
L 628.180572 97.232634 
L 628.799603 93.939235 
L 629.418633 93.938857 
L 629.728149 90.645255 
L 630.037664 90.645255 
L 630.347179 88.998129 
L 630.656694 88.998129 
L 630.96621 87.351035 
L 631.275725 87.351035 
L 631.58524 85.704044 
L 631.894756 85.704044 
L 632.204271 87.34974 
L 632.513786 87.34974 
L 632.823302 88.995436 
L 633.132817 88.995436 
L 633.751847 92.287338 
L 634.370878 92.286931 
L 634.680393 93.932748 
L 634.989909 93.932748 
L 635.299424 95.578614 
L 635.608939 95.578614 
L 635.918455 97.224528 
L 636.22797 97.224528 
L 636.537485 98.870499 
L 636.847 98.870499 
L 637.156516 100.516536 
L 637.466031 100.516536 
L 637.775546 102.16263 
L 638.085062 102.16263 
L 638.704092 105.454883 
L 639.323123 105.455025 
L 639.632638 103.809009 
L 639.942153 103.809009 
L 640.251669 102.162841 
L 640.561184 102.162841 
L 641.180215 98.870444 
L 641.799245 98.870105 
L 642.108761 97.223518 
L 642.418276 97.223517 
L 642.727791 95.576702 
L 643.037306 95.576702 
L 643.346822 93.929872 
L 643.656337 93.929872 
L 644.275368 90.637246 
L 644.894398 90.636484 
L 645.822944 95.572395 
L 646.132459 95.572395 
L 646.441975 97.217575 
L 646.75149 97.217575 
L 647.061005 98.862852 
L 647.370521 98.862852 
L 647.680036 100.508212 
L 647.989551 100.508212 
L 648.299067 102.15365 
L 648.608582 102.15365 
L 648.918097 103.799175 
L 649.227612 103.799175 
L 649.537128 105.444772 
L 649.846643 105.444772 
L 650.156158 107.090458 
L 650.465674 107.090458 
L 650.775189 108.736216 
L 651.084704 108.736216 
L 651.39422 110.382065 
L 651.703735 108.736417 
L 652.322765 108.736549 
L 652.632281 107.090825 
L 652.941796 107.090825 
L 653.251311 105.444922 
L 653.560827 105.444922 
L 653.870342 103.798865 
L 654.179857 103.798865 
L 654.489373 102.152711 
L 654.798888 102.152711 
L 655.108403 100.506493 
L 655.417918 100.506493 
L 655.727434 98.860241 
L 656.036949 98.860241 
L 656.346464 97.213746 
L 656.65598 97.213746 
L 656.965495 98.858043 
L 657.27501 98.858043 
L 657.584526 100.50237 
L 657.894041 100.50237 
L 658.513071 103.792135 
L 659.132102 103.791483 
L 659.441617 105.436299 
L 659.751133 105.436299 
L 660.060648 107.081261 
L 660.370163 107.081261 
L 661.298709 112.016803 
L 661.608224 112.016803 
L 661.91774 113.662162 
L 662.227255 113.662162 
L 662.53677 115.307632 
L 662.846286 115.307632 
L 663.155801 116.953215 
L 663.465316 116.953215 
L 663.774832 115.30818 
L 664.084347 115.30818 
L 664.393862 113.662891 
L 664.703377 113.662891 
L 665.012893 112.017349 
L 665.322408 112.017349 
L 665.631923 110.371617 
L 665.941439 110.371617 
L 666.250954 108.725732 
L 666.560469 108.725732 
L 666.869985 107.079759 
L 667.1795 107.079759 
L 667.489015 105.433721 
L 667.79853 105.433721 
L 668.108046 103.787667 
L 668.417561 103.787667 
L 668.727076 102.141601 
L 669.036592 102.141601 
L 669.965138 107.074784 
L 670.274653 107.074784 
L 670.584168 110.36402 
L 670.893683 110.36402 
L 671.203199 112.008517 
L 671.512714 112.008517 
L 672.44126 116.942964 
L 672.750775 116.942964 
L 673.679321 121.878152 
L 673.988836 121.878152 
L 674.298352 123.523576 
L 674.917382 120.233674 
L 675.226898 120.233674 
L 676.155444 115.296596 
L 676.464959 115.296596 
L 677.393505 110.359008 
L 677.70302 110.359008 
L 678.631566 105.421739 
L 678.941081 105.421739 
L 679.869627 110.352267 
L 680.179143 110.352267 
L 681.107688 115.283523 
L 681.417204 115.283523 
L 682.34575 120.215595 
L 682.655265 120.215595 
L 683.583811 125.148429 
L 683.893326 125.148428 
L 684.202841 126.792968 
L 684.512357 126.792968 
L 684.821872 125.148719 
L 685.131387 121.860022 
L 685.750418 121.859625 
L 686.678964 116.924575 
L 686.988479 116.924575 
L 687.917025 121.853929 
L 688.22654 121.853929 
L 688.536056 125.140368 
L 688.845571 125.140369 
L 689.155086 126.783106 
L 689.464602 126.783106 
L 690.393147 131.714313 
L 690.702663 131.714313 
L 691.631209 136.647259 
L 691.940724 136.647259 
L 692.250239 138.292135 
L 692.86927 135.004346 
L 693.178785 135.004346 
L 694.107331 130.070856 
L 694.416846 130.070856 
L 695.345392 125.135522 
L 695.654908 125.135522 
L 695.964423 123.489516 
L 696.583453 126.775365 
L 696.892969 126.775365 
L 697.821515 131.704334 
L 698.13103 131.704333 
L 698.440545 133.347579 
L 698.750061 136.635103 
L 699.369091 136.634909 
L 699.678606 138.2788 
L 699.988122 138.2788 
L 700.916668 143.211005 
L 701.226183 143.211005 
L 702.154729 138.279799 
L 702.464244 138.279799 
L 703.39279 133.345955 
L 703.702305 133.345955 
L 704.630851 128.41069 
L 704.940367 128.41069 
L 705.249882 131.695156 
L 705.559397 131.695156 
L 705.868912 133.335511 
L 706.178428 133.335511 
L 707.106974 138.261093 
L 707.416489 138.261094 
L 708.345035 143.189664 
L 708.65455 143.189664 
L 709.583096 148.120261 
L 709.892611 148.120261 
L 710.511642 151.407673 
L 710.821157 149.764913 
L 711.130673 149.764913 
L 712.059218 144.834064 
L 712.368734 144.834065 
L 713.29728 139.90049 
L 713.606795 139.90049 
L 713.91631 138.25475 
L 714.535341 141.538805 
L 714.844856 141.538805 
L 715.154371 143.180268 
L 715.463887 143.180268 
L 716.392433 148.10792 
L 716.701948 148.10792 
L 717.630494 153.037324 
L 717.940009 153.037324 
L 718.868555 157.968089 
L 719.17807 157.968089 
L 720.106616 153.039257 
L 720.416132 153.039257 
L 721.344677 148.106929 
L 721.654193 148.106929 
L 722.582739 143.1726 
L 722.892254 143.1726 
L 723.8208 148.096072 
L 724.130315 148.096071 
L 725.058861 153.022142 
L 725.368376 153.022142 
L 726.296922 157.950271 
L 726.606438 157.950271 
L 727.225468 161.236281 
L 727.534983 159.593834 
L 727.844499 159.593834 
L 728.154014 157.950768 
L 728.463529 154.665209 
L 729.08256 154.663983 
L 729.392075 153.018144 
L 729.701591 154.660836 
L 730.011106 153.013757 
L 730.320621 153.013757 
L 730.630136 154.652322 
L 730.939652 154.652323 
L 731.868198 159.575679 
L 732.177713 159.575679 
L 733.106259 164.503236 
L 733.415774 164.503236 
L 733.725289 167.788982 
L 734.034805 167.788982 
L 734.653835 171.075021 
L 734.963351 171.076314 
L 735.582381 167.791769 
L 735.891897 167.791769 
L 736.820442 162.861762 
L 737.129958 162.861762 
L 738.058504 157.928733 
L 738.368019 157.928733 
L 738.677534 156.282842 
L 739.296565 159.564219 
L 739.60608 159.564219 
L 740.534626 164.487203 
L 740.844141 164.487203 
L 741.772687 169.412955 
L 742.082203 169.412955 
L 743.010748 174.340537 
L 743.320264 174.340536 
L 744.24881 169.413717 
L 744.558325 169.413717 
L 744.86784 167.769658 
L 745.177356 169.411804 
L 745.486871 167.767295 
L 745.796386 167.767295 
L 746.105901 169.407297 
L 746.415417 169.407297 
L 747.343963 174.331745 
L 747.653478 174.331745 
L 748.582024 179.259142 
L 748.891539 179.259142 
L 749.820085 184.18842 
L 750.1296 184.188421 
L 751.058146 179.263384 
L 751.367662 179.263385 
L 752.296208 174.333162 
L 752.605723 174.333162 
L 753.534269 169.399998 
L 754.462815 169.394049 
L 754.77233 171.029231 
L 755.081845 171.029231 
L 756.010391 175.945736 
L 756.319906 175.945736 
L 757.248452 180.868813 
L 757.557968 180.868813 
L 758.486514 185.794495 
L 758.796029 185.794495 
L 759.415059 189.078589 
L 759.724575 187.437532 
L 760.03409 187.437532 
L 760.962636 182.510587 
L 761.272151 182.510588 
L 761.581667 180.866169 
L 761.891182 180.866169 
L 762.819728 185.7863 
L 763.129243 185.7863 
L 764.057789 190.710723 
L 764.367304 190.710723 
L 765.29585 195.637893 
L 765.605365 195.637893 
L 765.914881 197.281381 
L 766.533911 193.999103 
L 766.843427 193.999102 
L 767.771973 189.071364 
L 768.081488 189.071365 
L 769.010034 184.139413 
L 769.319549 184.139413 
L 769.629064 182.493296 
L 770.248095 185.771891 
L 770.55761 185.771891 
L 771.486156 190.691286 
L 771.795671 190.691286 
L 772.724217 195.614232 
L 773.033733 195.614232 
L 773.343248 197.255902 
L 774.271794 197.256117 
L 775.20034 192.329411 
L 775.509855 192.329411 
L 775.81937 190.684641 
L 776.438401 193.963564 
L 776.747916 193.963564 
L 777.057432 195.602643 
L 777.366947 195.602643 
L 778.295493 200.525255 
L 778.605008 200.525255 
L 779.533554 205.450791 
L 779.843069 205.450791 
L 780.152585 207.093757 
L 780.771615 203.812203 
L 781.08113 203.812203 
L 782.009676 198.885076 
L 782.319192 198.885076 
L 783.247738 193.95308 
L 783.557253 193.95308 
L 783.866768 192.306542 
L 784.485799 195.583417 
L 784.795314 195.583416 
L 785.72386 200.500572 
L 786.033375 200.500572 
L 786.961921 205.424951 
L 787.271436 205.42495 
L 787.580952 207.070297 
L 788.199982 203.793334 
L 788.509498 203.793334 
L 789.438044 198.876718 
L 789.747559 198.876718 
L 790.676105 193.956853 
L 790.98562 193.956853 
L 791.914166 189.035905 
L 792.223681 189.035904 
L 792.533197 187.395701 
L 792.842712 187.395701 
L 793.152227 185.755237 
L 793.461742 185.755237 
L 794.390288 180.832535 
L 794.699804 180.832535 
L 795.009319 179.191569 
L 795.318834 179.191569 
L 795.62835 177.550434 
L 795.937865 177.550434 
L 796.866411 172.626793 
L 797.175926 172.626793 
L 797.485441 170.985393 
L 797.794957 170.985393 
L 798.413987 167.702927 
L 798.723503 167.702331 
L 799.342533 164.419682 
L 799.652048 164.419682 
L 799.961564 162.778041 
L 800.271079 162.778041 
L 800.580594 161.136371 
L 800.89011 161.136371 
L 801.818656 156.211957 
L 802.128171 156.211957 
L 802.437686 154.570278 
L 802.747201 154.570278 
L 803.056717 152.928593 
L 803.366232 152.928593 
L 804.294778 148.004311 
L 804.604293 148.004311 
L 804.913809 146.362713 
L 805.223324 146.362713 
L 805.532839 144.721098 
L 805.842354 144.721098 
L 806.7709 139.797051 
L 807.080416 139.797051 
L 807.389931 138.155548 
L 807.699446 138.155548 
L 808.008962 136.514036 
L 808.318477 136.514036 
L 808.627992 134.872535 
L 808.937507 134.872535 
L 809.866053 129.948869 
L 810.175569 129.948869 
L 810.485084 128.307523 
L 810.794599 128.307523 
L 811.104115 126.666214 
L 811.41363 126.666214 
L 812.342176 121.742914 
L 812.651691 121.742914 
L 812.961206 120.101714 
L 813.270722 120.101714 
L 813.580237 118.460547 
L 813.889752 118.460547 
L 814.818298 113.537656 
L 815.127813 113.537656 
L 815.437329 111.89659 
L 815.746844 111.89659 
L 816.056359 110.255579 
L 816.365875 110.255579 
L 817.294421 105.333569 
L 817.603936 105.333569 
L 817.913451 103.693519 
L 818.222966 103.693519 
L 818.532482 102.053324 
L 818.841997 102.053325 
L 819.770543 97.131496 
L 820.080058 97.131496 
L 820.389574 95.490683 
L 820.699089 95.490675 
L 821.008604 93.849839 
L 821.318119 93.849839 
L 822.246665 88.927658 
L 822.556181 88.927658 
L 822.865696 87.286949 
L 823.175211 87.286949 
L 823.484727 85.646274 
L 823.794242 85.646274 
L 824.103757 84.005611 
L 824.413273 84.005611 
L 825.341818 79.083869 
L 825.651334 79.083869 
L 825.960849 77.443308 
L 826.270364 77.443308 
L 826.57988 75.802769 
L 826.889395 75.802769 
L 827.817941 70.881321 
L 828.127456 70.881321 
L 828.436971 69.240872 
L 853.507711 69.240872 
L 853.507711 69.240872 
" style="fill:none;stroke:#1f77b4;stroke-linecap:square;stroke-width:1.5;"/>
   </g>
   <g id="line2d_27">
    <path clip-path="url(#p4cef29ea6d)" d="M 544.301926 69.240872 
L 608.990623 69.132943 
L 613.323838 69.055371 
L 618.895113 69.141269 
L 623.537843 69.024126 
L 637.466031 68.916135 
L 639.942153 68.878683 
L 643.346822 68.957245 
L 647.989551 68.853328 
L 650.775189 68.7489 
L 656.036949 68.852035 
L 657.27501 68.834286 
L 659.441617 68.721549 
L 661.608224 68.62842 
L 663.465316 68.557741 
L 666.869985 68.676628 
L 671.512714 68.573724 
L 674.298352 68.392162 
L 677.08399 68.521101 
L 679.560112 68.53702 
L 682.34575 68.326606 
L 683.893326 68.238752 
L 684.821872 68.237545 
L 685.440903 68.291393 
L 688.22654 68.244179 
L 689.155086 68.118365 
L 690.702663 68.013861 
L 692.559755 67.923723 
L 695.345392 68.109258 
L 697.202484 68.0142 
L 700.916668 67.712649 
L 702.464244 67.809444 
L 704.940367 67.963289 
L 705.868912 67.816903 
L 706.797458 67.72334 
L 708.345035 67.561547 
L 709.892611 67.455516 
L 711.130673 67.422615 
L 713.91631 67.626063 
L 717.630494 67.268227 
L 721.963708 67.373838 
L 722.892254 67.437383 
L 724.749346 67.210712 
L 727.225468 66.988133 
L 729.08256 67.126841 
L 730.320621 67.097475 
L 731.249167 66.955586 
L 734.034805 66.675383 
L 735.272866 66.642132 
L 738.058504 66.868569 
L 739.60608 66.797454 
L 741.772687 66.541468 
L 742.701233 66.455826 
L 743.320264 66.418313 
L 744.86784 66.565808 
L 745.486871 66.549155 
L 746.724932 66.440516 
L 749.820085 66.096819 
L 750.748631 66.184351 
L 753.843784 66.411246 
L 758.486514 65.843086 
L 763.129243 65.766225 
L 765.29585 65.500844 
L 767.152942 65.577374 
L 768.700518 65.724272 
L 769.93858 65.73041 
L 771.176641 65.565666 
L 773.343248 65.350117 
L 774.890824 65.436956 
L 775.81937 65.492266 
L 778.295493 65.182145 
L 779.224039 65.090526 
L 780.152585 64.99951 
L 782.009676 65.203146 
L 783.557253 65.299448 
L 784.176283 65.274893 
L 785.72386 65.063396 
L 787.271436 64.96081 
L 787.890467 65.002267 
L 788.819013 65.164559 
L 792.533197 65.665245 
L 793.461742 65.731435 
L 795.62835 66.009705 
L 796.556895 66.117669 
L 797.485441 66.235806 
L 798.723503 66.345205 
L 800.580594 66.57009 
L 801.50914 66.673064 
L 802.437686 66.784914 
L 803.366232 66.840137 
L 804.913809 67.052653 
L 806.15187 67.161852 
L 808.008962 67.365234 
L 809.247023 67.468211 
L 811.104115 67.670313 
L 812.03266 67.763498 
L 813.580237 67.915868 
L 814.508783 68.00957 
L 816.056359 68.155923 
L 816.984905 68.244473 
L 818.532482 68.412924 
L 819.461028 68.502543 
L 821.008604 68.634589 
L 821.93715 68.716795 
L 823.484727 68.843768 
L 824.722788 68.925494 
L 826.57988 69.085707 
L 827.508426 69.163867 
L 828.746487 69.240872 
L 853.507711 69.240872 
L 853.507711 69.240872 
" style="fill:none;stroke:#ff7f0e;stroke-linecap:square;stroke-width:1.5;"/>
   </g>
   <g id="line2d_28">
    <path clip-path="url(#p4cef29ea6d)" d="M 544.301926 69.240872 
L 563.182359 69.240872 
L 563.491874 72.696849 
L 563.80139 72.696849 
L 564.42042 79.608743 
L 565.039451 79.608689 
L 566.277512 93.432245 
L 566.896543 93.432171 
L 567.206058 89.976208 
L 567.515573 89.976208 
L 567.825088 86.520252 
L 568.134604 86.520252 
L 568.444119 83.064309 
L 568.753634 83.064309 
L 569.06315 79.608389 
L 569.372665 79.608389 
L 570.301211 69.240872 
L 570.610726 69.240872 
L 570.920241 72.696617 
L 571.229757 72.696617 
L 571.539272 76.152287 
L 571.848787 76.152287 
L 572.158303 79.607894 
L 572.467818 79.607894 
L 572.777333 83.06345 
L 573.086849 83.06345 
L 574.015394 93.430061 
L 574.32491 93.430061 
L 574.634425 96.885529 
L 574.94394 96.885529 
L 575.253456 100.340999 
L 575.562971 100.340999 
L 575.872486 103.796476 
L 576.182002 103.796476 
L 576.491517 107.251969 
L 576.801032 107.251969 
L 577.110547 103.796341 
L 577.420063 103.796341 
L 578.039093 96.885154 
L 578.348609 96.885017 
L 578.658124 93.429499 
L 579.277155 93.42934 
L 579.58667 86.518182 
L 579.896185 86.518182 
L 580.2057 83.062542 
L 580.515216 83.062542 
L 580.824731 79.606966 
L 581.134246 79.606966 
L 581.443762 76.151486 
L 581.753277 76.151486 
L 582.062792 72.696118 
L 582.372308 72.696118 
L 582.681823 76.151243 
L 582.991338 76.151243 
L 583.300853 79.606265 
L 583.610369 79.606265 
L 583.919884 83.061207 
L 584.229399 83.061207 
L 584.538915 86.516089 
L 584.84843 86.516089 
L 585.157945 89.970931 
L 585.467461 89.970931 
L 585.776976 93.425733 
L 586.086491 93.425733 
L 586.396006 96.880454 
L 586.705522 96.880454 
L 587.943583 110.699611 
L 588.253098 110.69941 
L 588.562614 114.154288 
L 589.181644 114.154145 
L 589.800675 107.244285 
L 590.419705 107.244093 
L 590.729221 103.78901 
L 591.038736 103.78901 
L 591.348251 100.333911 
L 591.657767 100.333911 
L 591.967282 96.878823 
L 592.276797 96.878823 
L 592.586312 93.423765 
L 592.895828 93.423765 
L 593.205343 89.968763 
L 593.514858 89.968763 
L 593.824374 86.513832 
L 594.133889 86.513832 
L 594.443404 83.058993 
L 594.75292 83.058993 
L 595.681465 93.421683 
L 595.990981 93.421683 
L 596.300496 96.875597 
L 596.610011 96.875597 
L 596.919527 100.329469 
L 597.229042 100.329469 
L 597.538557 103.783339 
L 597.848073 103.783339 
L 598.157588 107.237226 
L 598.467103 107.237226 
L 598.776618 110.691153 
L 599.086134 110.691152 
L 599.395649 114.145128 
L 599.705164 114.145128 
L 600.01468 117.599161 
L 600.324195 117.599161 
L 600.63371 121.053269 
L 600.943226 121.053269 
L 601.252741 117.599028 
L 601.562256 117.599028 
L 601.871771 114.144681 
L 602.181287 114.144682 
L 603.109833 103.781621 
L 603.419348 103.781621 
L 603.728863 100.327067 
L 604.038379 100.327067 
L 604.347894 96.87255 
L 604.657409 96.87255 
L 604.966925 93.418108 
L 605.27644 93.418108 
L 605.585955 89.963683 
L 605.89547 89.963683 
L 606.204986 93.416819 
L 606.514501 93.416819 
L 606.824016 96.869833 
L 607.133532 96.869833 
L 607.752562 103.776349 
L 608.371593 103.775762 
L 608.681108 107.22875 
L 608.990623 107.22875 
L 609.300139 110.681776 
L 609.609654 110.681776 
L 609.919169 114.134866 
L 610.228685 114.134866 
L 610.5382 117.588014 
L 610.847715 117.588014 
L 611.157231 121.041234 
L 611.466746 121.041234 
L 611.776261 124.494531 
L 612.085776 124.494531 
L 612.395292 127.947921 
L 612.704807 127.947921 
L 613.014322 131.401413 
L 613.323838 131.401413 
L 613.633353 127.948109 
L 613.942868 127.948109 
L 614.871414 117.58752 
L 615.180929 117.58752 
L 615.490445 114.133606 
L 615.79996 114.133606 
L 616.109475 110.679658 
L 616.418991 110.679658 
L 616.728506 107.225651 
L 617.038021 107.225651 
L 617.347537 103.771526 
L 617.657052 103.771526 
L 617.966567 100.317489 
L 618.276082 100.317489 
L 618.585598 96.863637 
L 618.895113 96.863637 
L 619.204628 100.315536 
L 619.514144 100.315536 
L 619.823659 103.767386 
L 620.133174 103.767386 
L 620.44269 107.219238 
L 620.752205 107.219238 
L 621.06172 110.671141 
L 621.371235 110.671141 
L 621.680751 114.123097 
L 621.990266 114.123097 
L 622.609297 121.027565 
L 623.228327 121.027227 
L 623.537843 124.479425 
L 623.847358 124.479425 
L 624.156873 127.931717 
L 624.466388 127.931718 
L 624.775904 131.384122 
L 625.085419 131.384122 
L 625.394934 134.836636 
L 625.70445 134.836636 
L 626.013965 138.289272 
L 626.32348 138.289272 
L 626.632996 134.836982 
L 626.942511 134.836982 
L 627.252026 131.384435 
L 627.561541 131.384435 
L 627.871057 127.931644 
L 628.180572 127.931644 
L 628.799603 121.026322 
L 629.418633 121.025528 
L 629.728149 114.119782 
L 630.037664 114.119782 
L 630.347179 110.666225 
L 630.656694 110.666225 
L 630.96621 107.212739 
L 631.275725 107.212739 
L 631.58524 103.759465 
L 631.894756 103.759465 
L 632.204271 107.210022 
L 632.513786 107.210022 
L 632.823302 110.660579 
L 633.132817 110.660579 
L 633.751847 117.562762 
L 634.370878 117.561909 
L 634.680393 121.01272 
L 634.989909 121.01272 
L 635.299424 124.463633 
L 635.608939 124.463633 
L 635.918455 127.914647 
L 636.22797 127.914647 
L 636.537485 131.365781 
L 636.847 131.365781 
L 637.156516 134.817053 
L 637.466031 134.817053 
L 637.775546 138.268445 
L 638.085062 138.268445 
L 638.704092 145.171362 
L 639.323123 145.17166 
L 639.632638 141.720432 
L 639.942153 141.720432 
L 640.251669 138.268885 
L 640.561184 138.268885 
L 641.180215 131.365665 
L 641.799245 131.364954 
L 642.108761 127.912528 
L 642.418276 127.912528 
L 642.727791 124.459624 
L 643.037306 124.459624 
L 643.346822 121.006689 
L 643.656337 121.006688 
L 644.275368 114.102989 
L 644.894398 114.101391 
L 645.822944 124.450594 
L 646.132459 124.450594 
L 646.441975 127.900068 
L 646.75149 127.900068 
L 647.061005 131.349746 
L 647.370521 131.349746 
L 647.680036 134.7996 
L 647.989551 134.7996 
L 648.299067 138.249616 
L 648.608582 138.249616 
L 648.918097 141.699813 
L 649.227612 141.699813 
L 649.537128 145.150163 
L 649.846643 145.150163 
L 650.156158 148.600699 
L 650.465674 148.600699 
L 650.775189 152.051386 
L 651.084704 152.051386 
L 651.39422 155.502262 
L 651.703735 152.051807 
L 652.322765 152.052084 
L 652.632281 148.601469 
L 652.941796 148.601469 
L 653.251311 145.150478 
L 653.560827 145.150478 
L 653.870342 141.699164 
L 654.179857 141.699163 
L 654.489373 138.247647 
L 654.798888 138.247647 
L 655.108403 134.795996 
L 655.417918 134.795996 
L 655.727434 131.344271 
L 656.036949 131.344271 
L 656.346464 127.892041 
L 656.65598 127.892041 
L 656.965495 131.339663 
L 657.27501 131.339663 
L 657.584526 134.78735 
L 657.894041 134.78735 
L 658.513071 141.685052 
L 659.132102 141.683685 
L 659.441617 145.132398 
L 659.751133 145.132398 
L 660.060648 148.581415 
L 660.370163 148.581415 
L 661.298709 158.929845 
L 661.608224 158.929845 
L 661.91774 162.379695 
L 662.227255 162.379695 
L 662.53677 165.829779 
L 662.846286 165.829779 
L 663.155801 169.280097 
L 663.465316 169.280097 
L 663.774832 165.830927 
L 664.084347 165.830927 
L 664.393862 162.381223 
L 664.703377 162.381223 
L 665.012893 158.93099 
L 665.322408 158.93099 
L 665.631923 155.480357 
L 665.941439 155.480357 
L 666.250954 152.029404 
L 666.560469 152.029404 
L 666.869985 148.578265 
L 667.1795 148.578265 
L 667.489015 145.126993 
L 667.79853 145.126993 
L 668.108046 141.675685 
L 668.417561 141.675685 
L 668.727076 138.224352 
L 669.036592 138.224352 
L 669.965138 148.567835 
L 670.274653 148.567835 
L 670.584168 155.464428 
L 670.893683 155.464429 
L 671.203199 158.912471 
L 671.512714 158.912471 
L 672.44126 169.258605 
L 672.750775 169.258605 
L 673.679321 179.606292 
L 673.988836 179.606292 
L 674.298352 183.056279 
L 674.917382 176.158288 
L 675.226898 176.158288 
L 676.155444 165.806639 
L 676.464959 165.806639 
L 677.393505 155.453919 
L 677.70302 155.453919 
L 678.631566 145.101869 
L 678.941081 145.101869 
L 679.869627 155.439785 
L 680.179143 155.439785 
L 681.107688 165.779228 
L 681.417204 165.779228 
L 682.34575 176.120382 
L 682.655265 176.120382 
L 683.583811 186.463132 
L 683.893326 186.463132 
L 684.202841 189.911265 
L 684.512357 189.911264 
L 684.821872 186.463742 
L 685.131387 179.568278 
L 685.750418 179.567445 
L 686.678964 169.220048 
L 686.988479 169.220049 
L 687.917025 179.555502 
L 688.22654 179.555501 
L 688.536056 186.446232 
L 688.845571 186.446232 
L 689.155086 189.890585 
L 689.464602 189.890585 
L 690.393147 200.229925 
L 690.702663 200.229925 
L 691.631209 210.572912 
L 691.940724 210.572912 
L 692.250239 214.02175 
L 692.86927 207.12819 
L 693.178785 207.12819 
L 694.107331 196.784063 
L 694.416846 196.784063 
L 695.345392 186.43607 
L 695.654908 186.43607 
L 695.964423 182.984864 
L 696.583453 189.874355 
L 696.892969 189.874355 
L 697.821515 200.209002 
L 698.13103 200.209002 
L 698.440545 203.654421 
L 698.750061 210.547424 
L 699.369091 210.547018 
L 699.678606 213.993789 
L 699.988122 213.993789 
L 700.916668 224.335222 
L 701.226183 224.335222 
L 702.154729 213.995885 
L 702.464244 213.995885 
L 703.39279 203.651015 
L 703.702305 203.651015 
L 704.630851 193.303166 
L 704.940367 193.303166 
L 705.249882 200.18976 
L 705.559397 200.18976 
L 705.868912 203.629117 
L 706.178428 203.629117 
L 707.106974 213.956664 
L 707.416489 213.956664 
L 708.345035 224.290476 
L 708.65455 224.290476 
L 709.583096 234.628536 
L 709.892611 234.628536 
L 710.511642 241.521306 
L 710.821157 238.076905 
L 711.130673 238.076905 
L 712.059218 227.738316 
L 712.368734 227.738317 
L 713.29728 217.394013 
L 713.606795 217.394013 
L 713.91631 213.943364 
L 714.535341 220.829094 
L 714.844856 220.829094 
L 715.154371 224.270775 
L 715.463887 224.270775 
L 716.392433 234.602662 
L 716.701948 234.602662 
L 717.630494 244.938221 
L 717.940009 244.938221 
L 718.868555 255.276633 
L 719.17807 255.276634 
L 720.106616 244.942273 
L 720.416132 244.942273 
L 721.344677 234.600583 
L 721.654193 234.600584 
L 722.582739 224.254697 
L 722.892254 224.254698 
L 723.8208 234.577819 
L 724.130315 234.577818 
L 725.058861 244.906388 
L 725.368376 244.906388 
L 726.296922 255.239275 
L 726.606438 255.239276 
L 727.225468 262.129104 
L 727.534983 258.68536 
L 727.844499 258.68536 
L 728.154014 255.240317 
L 728.463529 248.351433 
L 729.08256 248.348862 
L 729.392075 244.898007 
L 729.701591 248.342264 
L 730.011106 244.888807 
L 730.320621 244.888808 
L 730.630136 248.324414 
L 730.939652 248.324414 
L 731.868198 258.647293 
L 732.177713 258.647294 
L 733.106259 268.978981 
L 733.415774 268.97898 
L 733.725289 275.868256 
L 734.034805 275.868255 
L 734.653835 282.758147 
L 734.963351 282.760858 
L 735.582381 275.874099 
L 735.891897 275.8741 
L 736.820442 265.537275 
L 737.129958 265.537275 
L 738.058504 255.194115 
L 738.368019 255.194116 
L 738.677534 251.743151 
L 739.296565 258.623264 
L 739.60608 258.623265 
L 740.534626 268.945364 
L 740.844141 268.945364 
L 741.772687 279.273266 
L 742.082203 279.273266 
L 743.010748 289.605004 
L 743.320264 289.605004 
L 744.24881 279.274864 
L 744.558325 279.274864 
L 744.86784 275.827738 
L 745.177356 279.270853 
L 745.486871 275.822784 
L 745.796386 275.822784 
L 746.105901 279.261403 
L 746.415417 279.261404 
L 747.343963 289.58657 
L 747.653478 289.58657 
L 748.582024 299.917922 
L 748.891539 299.917922 
L 749.820085 310.253218 
L 750.1296 310.253219 
L 751.058146 299.926817 
L 751.367662 299.926818 
L 752.296208 289.589542 
L 752.605723 289.589542 
L 753.534269 279.246099 
L 754.462815 279.233626 
L 754.77233 282.662138 
L 755.081845 282.662137 
L 756.010391 292.970652 
L 756.319906 292.970652 
L 757.248452 303.292945 
L 757.557968 303.292946 
L 758.486514 313.6207 
L 758.796029 313.6207 
L 759.415059 320.506513 
L 759.724575 317.065683 
L 760.03409 317.065683 
L 760.962636 306.73528 
L 761.272151 306.73528 
L 761.581667 303.287402 
L 761.891182 303.287402 
L 762.819728 313.603519 
L 763.129243 313.603518 
L 764.057789 323.928633 
L 764.367304 323.928633 
L 765.29585 334.25951 
L 765.605365 334.259509 
L 765.914881 337.705437 
L 766.533911 330.823431 
L 766.843427 330.823431 
L 767.771973 320.491364 
L 768.081488 320.491365 
L 769.010034 310.150463 
L 769.319549 310.150464 
L 769.629064 306.699023 
L 770.248095 313.573306 
L 770.55761 313.573306 
L 771.486156 323.88788 
L 771.795671 323.88788 
L 772.724217 334.209899 
L 773.033733 334.209899 
L 773.343248 337.652015 
L 774.271794 337.652465 
L 775.20034 327.322562 
L 775.509855 327.322562 
L 775.81937 323.873947 
L 776.438401 330.748916 
L 776.747916 330.748916 
L 777.057432 334.1856 
L 777.366947 334.1856 
L 778.295493 344.506919 
L 778.605008 344.506919 
L 779.533554 354.834369 
L 779.843069 354.834369 
L 780.152585 358.2792 
L 780.771615 351.398714 
L 781.08113 351.398713 
L 782.009676 341.067929 
L 782.319192 341.067929 
L 783.247738 330.726934 
L 783.557253 330.726935 
L 783.866768 327.274613 
L 784.485799 334.145287 
L 784.795314 334.145287 
L 785.72386 344.455166 
L 786.033375 344.455166 
L 786.961921 354.780188 
L 787.271436 354.780187 
L 787.580952 358.230011 
L 788.199982 351.359151 
L 788.509498 351.359151 
L 789.438044 341.050406 
L 789.747559 341.050405 
L 790.676105 330.734847 
L 790.98562 330.734846 
L 791.914166 320.417015 
L 792.223681 320.417015 
L 792.533197 316.977975 
L 792.842712 316.977975 
L 793.152227 313.538387 
L 793.461742 313.538387 
L 794.390288 303.216881 
L 794.699804 303.21688 
L 795.009319 299.77624 
L 795.318834 299.77624 
L 795.62835 296.335247 
L 795.937865 296.335248 
L 796.866411 286.011771 
L 797.175926 286.011772 
L 797.485441 282.570221 
L 797.794957 282.570222 
L 798.413987 275.687823 
L 798.723503 275.686573 
L 799.342533 268.80379 
L 799.652048 268.80379 
L 799.961564 265.361737 
L 800.271079 265.361737 
L 800.580594 261.919622 
L 800.89011 261.919622 
L 801.818656 251.594524 
L 802.128171 251.594523 
L 802.437686 248.15239 
L 802.747201 248.15239 
L 803.056717 244.710242 
L 803.366232 244.710242 
L 804.294778 234.385423 
L 804.604293 234.385423 
L 804.913809 230.943458 
L 805.223324 230.943458 
L 805.532839 227.501458 
L 805.842354 227.501459 
L 806.7709 217.17713 
L 807.080416 217.177131 
L 807.389931 213.735365 
L 807.699446 213.735365 
L 808.008962 210.293581 
L 808.318477 210.293581 
L 808.627992 206.851819 
L 808.937507 206.851819 
L 809.866053 196.528291 
L 810.175569 196.528291 
L 810.485084 193.086855 
L 810.794599 193.086854 
L 811.104115 189.645496 
L 811.41363 189.645496 
L 812.342176 179.322736 
L 812.651691 179.322735 
L 812.961206 175.881605 
L 813.270722 175.881605 
L 813.580237 172.440545 
L 813.889752 172.440545 
L 814.818298 162.118641 
L 815.127813 162.11864 
L 815.437329 158.677792 
L 815.746844 158.677792 
L 816.056359 155.237057 
L 816.365875 155.237057 
L 817.294421 144.917002 
L 817.603936 144.917002 
L 817.913451 141.478284 
L 818.222966 141.478283 
L 818.532482 138.039261 
L 818.841997 138.039261 
L 819.770543 127.719585 
L 820.080058 127.719585 
L 820.389574 124.279266 
L 820.699089 124.279249 
L 821.008604 120.838884 
L 821.318119 120.838884 
L 822.246665 110.518468 
L 822.556181 110.518468 
L 822.865696 107.078367 
L 823.175211 107.078367 
L 823.484727 103.638338 
L 823.794242 103.638338 
L 824.103757 100.198334 
L 824.413273 100.198335 
L 825.341818 89.878841 
L 825.651334 89.87884 
L 825.960849 86.43905 
L 826.270364 86.43905 
L 826.57988 82.999305 
L 826.889395 82.999305 
L 827.817941 72.680427 
L 828.127456 72.680427 
L 828.436971 69.240872 
L 853.507711 69.240872 
L 853.507711 69.240872 
" style="fill:none;stroke:#2ca02c;stroke-linecap:square;stroke-width:1.5;"/>
   </g>
   <g id="patch_9">
    <path d="M 528.841636 372.9456 
L 528.841636 50.2848 
" style="fill:none;stroke:#000000;stroke-linecap:square;stroke-linejoin:miter;stroke-width:0.8;"/>
   </g>
   <g id="patch_10">
    <path d="M 868.968 372.9456 
L 868.968 50.2848 
" style="fill:none;stroke:#000000;stroke-linecap:square;stroke-linejoin:miter;stroke-width:0.8;"/>
   </g>
   <g id="patch_11">
    <path d="M 528.841636 372.9456 
L 868.968 372.9456 
" style="fill:none;stroke:#000000;stroke-linecap:square;stroke-linejoin:miter;stroke-width:0.8;"/>
   </g>
   <g id="patch_12">
    <path d="M 528.841636 50.2848 
L 868.968 50.2848 
" style="fill:none;stroke:#000000;stroke-linecap:square;stroke-linejoin:miter;stroke-width:0.8;"/>
   </g>
   <g id="text_30">
    <!-- Torques for forces with compromised muscle function -->
    <g transform="translate(474.258631 44.2848)scale(0.168 -0.168)">
     <defs>
      <path d="M 2375 4863 
L 2375 4384 
L 1825 4384 
Q 1516 4384 1395 4259 
Q 1275 4134 1275 3809 
L 1275 3500 
L 2222 3500 
L 2222 3053 
L 1275 3053 
L 1275 0 
L 697 0 
L 697 3053 
L 147 3053 
L 147 3500 
L 697 3500 
L 697 3744 
Q 697 4328 969 4595 
Q 1241 4863 1831 4863 
L 2375 4863 
z
" id="DejaVuSans-66" transform="scale(0.015625)"/>
      <path d="M 269 3500 
L 844 3500 
L 1563 769 
L 2278 3500 
L 2956 3500 
L 3675 769 
L 4391 3500 
L 4966 3500 
L 4050 0 
L 3372 0 
L 2619 2869 
L 1863 0 
L 1184 0 
L 269 3500 
z
" id="DejaVuSans-77" transform="scale(0.015625)"/>
      <path d="M 1172 4494 
L 1172 3500 
L 2356 3500 
L 2356 3053 
L 1172 3053 
L 1172 1153 
Q 1172 725 1289 603 
Q 1406 481 1766 481 
L 2356 481 
L 2356 0 
L 1766 0 
Q 1100 0 847 248 
Q 594 497 594 1153 
L 594 3053 
L 172 3053 
L 172 3500 
L 594 3500 
L 594 4494 
L 1172 4494 
z
" id="DejaVuSans-74" transform="scale(0.015625)"/>
      <path d="M 3513 2113 
L 3513 0 
L 2938 0 
L 2938 2094 
Q 2938 2591 2744 2837 
Q 2550 3084 2163 3084 
Q 1697 3084 1428 2787 
Q 1159 2491 1159 1978 
L 1159 0 
L 581 0 
L 581 4863 
L 1159 4863 
L 1159 2956 
Q 1366 3272 1645 3428 
Q 1925 3584 2291 3584 
Q 2894 3584 3203 3211 
Q 3513 2838 3513 2113 
z
" id="DejaVuSans-68" transform="scale(0.015625)"/>
      <path d="M 1159 525 
L 1159 -1331 
L 581 -1331 
L 581 3500 
L 1159 3500 
L 1159 2969 
Q 1341 3281 1617 3432 
Q 1894 3584 2278 3584 
Q 2916 3584 3314 3078 
Q 3713 2572 3713 1747 
Q 3713 922 3314 415 
Q 2916 -91 2278 -91 
Q 1894 -91 1617 61 
Q 1341 213 1159 525 
z
M 3116 1747 
Q 3116 2381 2855 2742 
Q 2594 3103 2138 3103 
Q 1681 3103 1420 2742 
Q 1159 2381 1159 1747 
Q 1159 1113 1420 752 
Q 1681 391 2138 391 
Q 2594 391 2855 752 
Q 3116 1113 3116 1747 
z
" id="DejaVuSans-70" transform="scale(0.015625)"/>
      <path d="M 2906 2969 
L 2906 4863 
L 3481 4863 
L 3481 0 
L 2906 0 
L 2906 525 
Q 2725 213 2448 61 
Q 2172 -91 1784 -91 
Q 1150 -91 751 415 
Q 353 922 353 1747 
Q 353 2572 751 3078 
Q 1150 3584 1784 3584 
Q 2172 3584 2448 3432 
Q 2725 3281 2906 2969 
z
M 947 1747 
Q 947 1113 1208 752 
Q 1469 391 1925 391 
Q 2381 391 2643 752 
Q 2906 1113 2906 1747 
Q 2906 2381 2643 2742 
Q 2381 3103 1925 3103 
Q 1469 3103 1208 2742 
Q 947 2381 947 1747 
z
" id="DejaVuSans-64" transform="scale(0.015625)"/>
      <path d="M 603 4863 
L 1178 4863 
L 1178 0 
L 603 0 
L 603 4863 
z
" id="DejaVuSans-6c" transform="scale(0.015625)"/>
     </defs>
     <use xlink:href="#DejaVuSans-54"/>
     <use x="44.083984" xlink:href="#DejaVuSans-6f"/>
     <use x="105.265625" xlink:href="#DejaVuSans-72"/>
     <use x="144.628906" xlink:href="#DejaVuSans-71"/>
     <use x="208.105469" xlink:href="#DejaVuSans-75"/>
     <use x="271.484375" xlink:href="#DejaVuSans-65"/>
     <use x="333.007812" xlink:href="#DejaVuSans-73"/>
     <use x="385.107422" xlink:href="#DejaVuSans-20"/>
     <use x="416.894531" xlink:href="#DejaVuSans-66"/>
     <use x="452.099609" xlink:href="#DejaVuSans-6f"/>
     <use x="513.28125" xlink:href="#DejaVuSans-72"/>
     <use x="554.394531" xlink:href="#DejaVuSans-20"/>
     <use x="586.181641" xlink:href="#DejaVuSans-66"/>
     <use x="621.386719" xlink:href="#DejaVuSans-6f"/>
     <use x="682.568359" xlink:href="#DejaVuSans-72"/>
     <use x="721.431641" xlink:href="#DejaVuSans-63"/>
     <use x="776.412109" xlink:href="#DejaVuSans-65"/>
     <use x="837.935547" xlink:href="#DejaVuSans-73"/>
     <use x="890.035156" xlink:href="#DejaVuSans-20"/>
     <use x="921.822266" xlink:href="#DejaVuSans-77"/>
     <use x="1003.609375" xlink:href="#DejaVuSans-69"/>
     <use x="1031.392578" xlink:href="#DejaVuSans-74"/>
     <use x="1070.601562" xlink:href="#DejaVuSans-68"/>
     <use x="1133.980469" xlink:href="#DejaVuSans-20"/>
     <use x="1165.767578" xlink:href="#DejaVuSans-63"/>
     <use x="1220.748047" xlink:href="#DejaVuSans-6f"/>
     <use x="1281.929688" xlink:href="#DejaVuSans-6d"/>
     <use x="1379.341797" xlink:href="#DejaVuSans-70"/>
     <use x="1442.818359" xlink:href="#DejaVuSans-72"/>
     <use x="1481.681641" xlink:href="#DejaVuSans-6f"/>
     <use x="1542.863281" xlink:href="#DejaVuSans-6d"/>
     <use x="1640.275391" xlink:href="#DejaVuSans-69"/>
     <use x="1668.058594" xlink:href="#DejaVuSans-73"/>
     <use x="1720.158203" xlink:href="#DejaVuSans-65"/>
     <use x="1781.681641" xlink:href="#DejaVuSans-64"/>
     <use x="1845.158203" xlink:href="#DejaVuSans-20"/>
     <use x="1876.945312" xlink:href="#DejaVuSans-6d"/>
     <use x="1974.357422" xlink:href="#DejaVuSans-75"/>
     <use x="2037.736328" xlink:href="#DejaVuSans-73"/>
     <use x="2089.835938" xlink:href="#DejaVuSans-63"/>
     <use x="2144.816406" xlink:href="#DejaVuSans-6c"/>
     <use x="2172.599609" xlink:href="#DejaVuSans-65"/>
     <use x="2234.123047" xlink:href="#DejaVuSans-20"/>
     <use x="2265.910156" xlink:href="#DejaVuSans-66"/>
     <use x="2301.115234" xlink:href="#DejaVuSans-75"/>
     <use x="2364.494141" xlink:href="#DejaVuSans-6e"/>
     <use x="2427.873047" xlink:href="#DejaVuSans-63"/>
     <use x="2482.853516" xlink:href="#DejaVuSans-74"/>
     <use x="2522.0625" xlink:href="#DejaVuSans-69"/>
     <use x="2549.845703" xlink:href="#DejaVuSans-6f"/>
     <use x="2611.027344" xlink:href="#DejaVuSans-6e"/>
    </g>
   </g>
   <g id="legend_2">
    <g id="patch_13">
     <path d="M 538.641636 365.9456 
L 641.436636 365.9456 
Q 644.236636 365.9456 644.236636 363.1456 
L 644.236636 302.897475 
Q 644.236636 300.097475 641.436636 300.097475 
L 538.641636 300.097475 
Q 535.841636 300.097475 535.841636 302.897475 
L 535.841636 363.1456 
Q 535.841636 365.9456 538.641636 365.9456 
z
" style="fill:#ffffff;opacity:0.8;stroke:#cccccc;stroke-linejoin:miter;"/>
    </g>
    <g id="line2d_29">
     <path d="M 541.441636 311.435288 
L 569.441636 311.435288 
" style="fill:none;stroke:#1f77b4;stroke-linecap:square;stroke-width:1.5;"/>
    </g>
    <g id="line2d_30"/>
    <g id="text_31">
     <!-- in x axis -->
     <g transform="translate(580.641636 316.335288)scale(0.14 -0.14)">
      <defs>
       <path d="M 2194 1759 
Q 1497 1759 1228 1600 
Q 959 1441 959 1056 
Q 959 750 1161 570 
Q 1363 391 1709 391 
Q 2188 391 2477 730 
Q 2766 1069 2766 1631 
L 2766 1759 
L 2194 1759 
z
M 3341 1997 
L 3341 0 
L 2766 0 
L 2766 531 
Q 2569 213 2275 61 
Q 1981 -91 1556 -91 
Q 1019 -91 701 211 
Q 384 513 384 1019 
Q 384 1609 779 1909 
Q 1175 2209 1959 2209 
L 2766 2209 
L 2766 2266 
Q 2766 2663 2505 2880 
Q 2244 3097 1772 3097 
Q 1472 3097 1187 3025 
Q 903 2953 641 2809 
L 641 3341 
Q 956 3463 1253 3523 
Q 1550 3584 1831 3584 
Q 2591 3584 2966 3190 
Q 3341 2797 3341 1997 
z
" id="DejaVuSans-61" transform="scale(0.015625)"/>
      </defs>
      <use xlink:href="#DejaVuSans-69"/>
      <use x="27.783203" xlink:href="#DejaVuSans-6e"/>
      <use x="91.162109" xlink:href="#DejaVuSans-20"/>
      <use x="122.949219" xlink:href="#DejaVuSans-78"/>
      <use x="182.128906" xlink:href="#DejaVuSans-20"/>
      <use x="213.916016" xlink:href="#DejaVuSans-61"/>
      <use x="275.195312" xlink:href="#DejaVuSans-78"/>
      <use x="334.375" xlink:href="#DejaVuSans-69"/>
      <use x="362.158203" xlink:href="#DejaVuSans-73"/>
     </g>
    </g>
    <g id="line2d_31">
     <path d="M 541.441636 331.984663 
L 569.441636 331.984663 
" style="fill:none;stroke:#ff7f0e;stroke-linecap:square;stroke-width:1.5;"/>
    </g>
    <g id="line2d_32"/>
    <g id="text_32">
     <!-- in y axis -->
     <g transform="translate(580.641636 336.884662)scale(0.14 -0.14)">
      <defs>
       <path d="M 2059 -325 
Q 1816 -950 1584 -1140 
Q 1353 -1331 966 -1331 
L 506 -1331 
L 506 -850 
L 844 -850 
Q 1081 -850 1212 -737 
Q 1344 -625 1503 -206 
L 1606 56 
L 191 3500 
L 800 3500 
L 1894 763 
L 2988 3500 
L 3597 3500 
L 2059 -325 
z
" id="DejaVuSans-79" transform="scale(0.015625)"/>
      </defs>
      <use xlink:href="#DejaVuSans-69"/>
      <use x="27.783203" xlink:href="#DejaVuSans-6e"/>
      <use x="91.162109" xlink:href="#DejaVuSans-20"/>
      <use x="122.949219" xlink:href="#DejaVuSans-79"/>
      <use x="182.128906" xlink:href="#DejaVuSans-20"/>
      <use x="213.916016" xlink:href="#DejaVuSans-61"/>
      <use x="275.195312" xlink:href="#DejaVuSans-78"/>
      <use x="334.375" xlink:href="#DejaVuSans-69"/>
      <use x="362.158203" xlink:href="#DejaVuSans-73"/>
     </g>
    </g>
    <g id="line2d_33">
     <path d="M 541.441636 352.534038 
L 569.441636 352.534038 
" style="fill:none;stroke:#2ca02c;stroke-linecap:square;stroke-width:1.5;"/>
    </g>
    <g id="line2d_34"/>
    <g id="text_33">
     <!-- in z axis -->
     <g transform="translate(580.641636 357.434038)scale(0.14 -0.14)">
      <defs>
       <path d="M 353 3500 
L 3084 3500 
L 3084 2975 
L 922 459 
L 3084 459 
L 3084 0 
L 275 0 
L 275 525 
L 2438 3041 
L 353 3041 
L 353 3500 
z
" id="DejaVuSans-7a" transform="scale(0.015625)"/>
      </defs>
      <use xlink:href="#DejaVuSans-69"/>
      <use x="27.783203" xlink:href="#DejaVuSans-6e"/>
      <use x="91.162109" xlink:href="#DejaVuSans-20"/>
      <use x="122.949219" xlink:href="#DejaVuSans-7a"/>
      <use x="175.439453" xlink:href="#DejaVuSans-20"/>
      <use x="207.226562" xlink:href="#DejaVuSans-61"/>
      <use x="268.505859" xlink:href="#DejaVuSans-78"/>
      <use x="327.685547" xlink:href="#DejaVuSans-69"/>
      <use x="355.46875" xlink:href="#DejaVuSans-73"/>
     </g>
    </g>
   </g>
  </g>
 </g>
 <defs>
  <clipPath id="pfa53f8262a">
   <rect height="322.6608" width="340.126364" x="120.69" y="50.2848"/>
  </clipPath>
  <clipPath id="p4cef29ea6d">
   <rect height="322.6608" width="340.126364" x="528.841636" y="50.2848"/>
  </clipPath>
 </defs>
</svg>
