<?xml version="1.0" encoding="utf-8" standalone="no"?>
<!DOCTYPE svg PUBLIC "-//W3C//DTD SVG 1.1//EN"
  "http://www.w3.org/Graphics/SVG/1.1/DTD/svg11.dtd">
<svg height="411.12pt" version="1.1" viewBox="0 0 1169.28 411.12" width="1169.28pt" xmlns="http://www.w3.org/2000/svg" xmlns:xlink="http://www.w3.org/1999/xlink">
 <metadata>
  <rdf:RDF xmlns:cc="http://creativecommons.org/ns#" xmlns:dc="http://purl.org/dc/elements/1.1/" xmlns:rdf="http://www.w3.org/1999/02/22-rdf-syntax-ns#">
   <cc:Work>
    <dc:type rdf:resource="http://purl.org/dc/dcmitype/StillImage"/>
    <dc:date>2021-05-06T17:17:20.950916</dc:date>
    <dc:format>image/svg+xml</dc:format>
    <dc:creator>
     <cc:Agent>
      <dc:title>Matplotlib v3.4.1, https://matplotlib.org/</dc:title>
     </cc:Agent>
    </dc:creator>
   </cc:Work>
  </rdf:RDF>
 </metadata>
 <defs>
  <style type="text/css">*{stroke-linecap:butt;stroke-linejoin:round;}</style>
 </defs>
 <g id="figure_1">
  <g id="patch_1">
   <path d="M 0 411.12 
L 1169.28 411.12 
L 1169.28 0 
L 0 0 
z
" style="fill:#ffffff;"/>
  </g>
  <g id="axes_1">
   <g id="patch_2">
    <path d="M 146.16 365.8968 
L 558.065455 365.8968 
L 558.065455 49.3344 
L 146.16 49.3344 
z
" style="fill:#ffffff;"/>
   </g>
   <g id="matplotlib.axis_1">
    <g id="xtick_1">
     <g id="line2d_1">
      <path clip-path="url(#p19bb742f8b)" d="M 523.74 365.8968 
L 523.74 49.3344 
" style="fill:none;stroke:#b0b0b0;stroke-linecap:square;stroke-width:0.8;"/>
     </g>
     <g id="line2d_2">
      <defs>
       <path d="M 0 0 
L 0 3.5 
" id="m9d66e21936" style="stroke:#000000;stroke-width:0.8;"/>
      </defs>
      <g>
       <use style="stroke:#000000;stroke-width:0.8;" x="523.74" xlink:href="#m9d66e21936" y="365.8968"/>
      </g>
     </g>
     <g id="text_1">
      <!-- 0.0 -->
      <g transform="translate(509.427188 386.573987)scale(0.18 -0.18)">
       <defs>
        <path d="M 2034 4250 
Q 1547 4250 1301 3770 
Q 1056 3291 1056 2328 
Q 1056 1369 1301 889 
Q 1547 409 2034 409 
Q 2525 409 2770 889 
Q 3016 1369 3016 2328 
Q 3016 3291 2770 3770 
Q 2525 4250 2034 4250 
z
M 2034 4750 
Q 2819 4750 3233 4129 
Q 3647 3509 3647 2328 
Q 3647 1150 3233 529 
Q 2819 -91 2034 -91 
Q 1250 -91 836 529 
Q 422 1150 422 2328 
Q 422 3509 836 4129 
Q 1250 4750 2034 4750 
z
" id="DejaVuSans-30" transform="scale(0.015625)"/>
        <path d="M 684 794 
L 1344 794 
L 1344 0 
L 684 0 
L 684 794 
z
" id="DejaVuSans-2e" transform="scale(0.015625)"/>
       </defs>
       <use xlink:href="#DejaVuSans-30"/>
       <use x="63.623047" xlink:href="#DejaVuSans-2e"/>
       <use x="95.410156" xlink:href="#DejaVuSans-30"/>
      </g>
     </g>
    </g>
    <g id="xtick_2">
     <g id="line2d_3">
      <path clip-path="url(#p19bb742f8b)" d="M 455.089091 365.8968 
L 455.089091 49.3344 
" style="fill:none;stroke:#b0b0b0;stroke-linecap:square;stroke-width:0.8;"/>
     </g>
     <g id="line2d_4">
      <g>
       <use style="stroke:#000000;stroke-width:0.8;" x="455.089091" xlink:href="#m9d66e21936" y="365.8968"/>
      </g>
     </g>
     <g id="text_2">
      <!-- 0.2 -->
      <g transform="translate(440.776278 386.573987)scale(0.18 -0.18)">
       <defs>
        <path d="M 1228 531 
L 3431 531 
L 3431 0 
L 469 0 
L 469 531 
Q 828 903 1448 1529 
Q 2069 2156 2228 2338 
Q 2531 2678 2651 2914 
Q 2772 3150 2772 3378 
Q 2772 3750 2511 3984 
Q 2250 4219 1831 4219 
Q 1534 4219 1204 4116 
Q 875 4013 500 3803 
L 500 4441 
Q 881 4594 1212 4672 
Q 1544 4750 1819 4750 
Q 2544 4750 2975 4387 
Q 3406 4025 3406 3419 
Q 3406 3131 3298 2873 
Q 3191 2616 2906 2266 
Q 2828 2175 2409 1742 
Q 1991 1309 1228 531 
z
" id="DejaVuSans-32" transform="scale(0.015625)"/>
       </defs>
       <use xlink:href="#DejaVuSans-30"/>
       <use x="63.623047" xlink:href="#DejaVuSans-2e"/>
       <use x="95.410156" xlink:href="#DejaVuSans-32"/>
      </g>
     </g>
    </g>
    <g id="xtick_3">
     <g id="line2d_5">
      <path clip-path="url(#p19bb742f8b)" d="M 386.438182 365.8968 
L 386.438182 49.3344 
" style="fill:none;stroke:#b0b0b0;stroke-linecap:square;stroke-width:0.8;"/>
     </g>
     <g id="line2d_6">
      <g>
       <use style="stroke:#000000;stroke-width:0.8;" x="386.438182" xlink:href="#m9d66e21936" y="365.8968"/>
      </g>
     </g>
     <g id="text_3">
      <!-- 0.4 -->
      <g transform="translate(372.125369 386.573987)scale(0.18 -0.18)">
       <defs>
        <path d="M 2419 4116 
L 825 1625 
L 2419 1625 
L 2419 4116 
z
M 2253 4666 
L 3047 4666 
L 3047 1625 
L 3713 1625 
L 3713 1100 
L 3047 1100 
L 3047 0 
L 2419 0 
L 2419 1100 
L 313 1100 
L 313 1709 
L 2253 4666 
z
" id="DejaVuSans-34" transform="scale(0.015625)"/>
       </defs>
       <use xlink:href="#DejaVuSans-30"/>
       <use x="63.623047" xlink:href="#DejaVuSans-2e"/>
       <use x="95.410156" xlink:href="#DejaVuSans-34"/>
      </g>
     </g>
    </g>
    <g id="xtick_4">
     <g id="line2d_7">
      <path clip-path="url(#p19bb742f8b)" d="M 317.787273 365.8968 
L 317.787273 49.3344 
" style="fill:none;stroke:#b0b0b0;stroke-linecap:square;stroke-width:0.8;"/>
     </g>
     <g id="line2d_8">
      <g>
       <use style="stroke:#000000;stroke-width:0.8;" x="317.787273" xlink:href="#m9d66e21936" y="365.8968"/>
      </g>
     </g>
     <g id="text_4">
      <!-- 0.6 -->
      <g transform="translate(303.47446 386.573987)scale(0.18 -0.18)">
       <defs>
        <path d="M 2113 2584 
Q 1688 2584 1439 2293 
Q 1191 2003 1191 1497 
Q 1191 994 1439 701 
Q 1688 409 2113 409 
Q 2538 409 2786 701 
Q 3034 994 3034 1497 
Q 3034 2003 2786 2293 
Q 2538 2584 2113 2584 
z
M 3366 4563 
L 3366 3988 
Q 3128 4100 2886 4159 
Q 2644 4219 2406 4219 
Q 1781 4219 1451 3797 
Q 1122 3375 1075 2522 
Q 1259 2794 1537 2939 
Q 1816 3084 2150 3084 
Q 2853 3084 3261 2657 
Q 3669 2231 3669 1497 
Q 3669 778 3244 343 
Q 2819 -91 2113 -91 
Q 1303 -91 875 529 
Q 447 1150 447 2328 
Q 447 3434 972 4092 
Q 1497 4750 2381 4750 
Q 2619 4750 2861 4703 
Q 3103 4656 3366 4563 
z
" id="DejaVuSans-36" transform="scale(0.015625)"/>
       </defs>
       <use xlink:href="#DejaVuSans-30"/>
       <use x="63.623047" xlink:href="#DejaVuSans-2e"/>
       <use x="95.410156" xlink:href="#DejaVuSans-36"/>
      </g>
     </g>
    </g>
    <g id="xtick_5">
     <g id="line2d_9">
      <path clip-path="url(#p19bb742f8b)" d="M 249.136364 365.8968 
L 249.136364 49.3344 
" style="fill:none;stroke:#b0b0b0;stroke-linecap:square;stroke-width:0.8;"/>
     </g>
     <g id="line2d_10">
      <g>
       <use style="stroke:#000000;stroke-width:0.8;" x="249.136364" xlink:href="#m9d66e21936" y="365.8968"/>
      </g>
     </g>
     <g id="text_5">
      <!-- 0.8 -->
      <g transform="translate(234.823551 386.573987)scale(0.18 -0.18)">
       <defs>
        <path d="M 2034 2216 
Q 1584 2216 1326 1975 
Q 1069 1734 1069 1313 
Q 1069 891 1326 650 
Q 1584 409 2034 409 
Q 2484 409 2743 651 
Q 3003 894 3003 1313 
Q 3003 1734 2745 1975 
Q 2488 2216 2034 2216 
z
M 1403 2484 
Q 997 2584 770 2862 
Q 544 3141 544 3541 
Q 544 4100 942 4425 
Q 1341 4750 2034 4750 
Q 2731 4750 3128 4425 
Q 3525 4100 3525 3541 
Q 3525 3141 3298 2862 
Q 3072 2584 2669 2484 
Q 3125 2378 3379 2068 
Q 3634 1759 3634 1313 
Q 3634 634 3220 271 
Q 2806 -91 2034 -91 
Q 1263 -91 848 271 
Q 434 634 434 1313 
Q 434 1759 690 2068 
Q 947 2378 1403 2484 
z
M 1172 3481 
Q 1172 3119 1398 2916 
Q 1625 2713 2034 2713 
Q 2441 2713 2670 2916 
Q 2900 3119 2900 3481 
Q 2900 3844 2670 4047 
Q 2441 4250 2034 4250 
Q 1625 4250 1398 4047 
Q 1172 3844 1172 3481 
z
" id="DejaVuSans-38" transform="scale(0.015625)"/>
       </defs>
       <use xlink:href="#DejaVuSans-30"/>
       <use x="63.623047" xlink:href="#DejaVuSans-2e"/>
       <use x="95.410156" xlink:href="#DejaVuSans-38"/>
      </g>
     </g>
    </g>
    <g id="xtick_6">
     <g id="line2d_11">
      <path clip-path="url(#p19bb742f8b)" d="M 180.485455 365.8968 
L 180.485455 49.3344 
" style="fill:none;stroke:#b0b0b0;stroke-linecap:square;stroke-width:0.8;"/>
     </g>
     <g id="line2d_12">
      <g>
       <use style="stroke:#000000;stroke-width:0.8;" x="180.485455" xlink:href="#m9d66e21936" y="365.8968"/>
      </g>
     </g>
     <g id="text_6">
      <!-- 1.0 -->
      <g transform="translate(166.172642 386.573987)scale(0.18 -0.18)">
       <defs>
        <path d="M 794 531 
L 1825 531 
L 1825 4091 
L 703 3866 
L 703 4441 
L 1819 4666 
L 2450 4666 
L 2450 531 
L 3481 531 
L 3481 0 
L 794 0 
L 794 531 
z
" id="DejaVuSans-31" transform="scale(0.015625)"/>
       </defs>
       <use xlink:href="#DejaVuSans-31"/>
       <use x="63.623047" xlink:href="#DejaVuSans-2e"/>
       <use x="95.410156" xlink:href="#DejaVuSans-30"/>
      </g>
     </g>
    </g>
    <g id="text_7">
     <!-- Percentage of maximum muscle force -->
     <g transform="translate(181.225227 407.994613)scale(0.18 -0.18)">
      <defs>
       <path d="M 1259 4147 
L 1259 2394 
L 2053 2394 
Q 2494 2394 2734 2622 
Q 2975 2850 2975 3272 
Q 2975 3691 2734 3919 
Q 2494 4147 2053 4147 
L 1259 4147 
z
M 628 4666 
L 2053 4666 
Q 2838 4666 3239 4311 
Q 3641 3956 3641 3272 
Q 3641 2581 3239 2228 
Q 2838 1875 2053 1875 
L 1259 1875 
L 1259 0 
L 628 0 
L 628 4666 
z
" id="DejaVuSans-50" transform="scale(0.015625)"/>
       <path d="M 3597 1894 
L 3597 1613 
L 953 1613 
Q 991 1019 1311 708 
Q 1631 397 2203 397 
Q 2534 397 2845 478 
Q 3156 559 3463 722 
L 3463 178 
Q 3153 47 2828 -22 
Q 2503 -91 2169 -91 
Q 1331 -91 842 396 
Q 353 884 353 1716 
Q 353 2575 817 3079 
Q 1281 3584 2069 3584 
Q 2775 3584 3186 3129 
Q 3597 2675 3597 1894 
z
M 3022 2063 
Q 3016 2534 2758 2815 
Q 2500 3097 2075 3097 
Q 1594 3097 1305 2825 
Q 1016 2553 972 2059 
L 3022 2063 
z
" id="DejaVuSans-65" transform="scale(0.015625)"/>
       <path d="M 2631 2963 
Q 2534 3019 2420 3045 
Q 2306 3072 2169 3072 
Q 1681 3072 1420 2755 
Q 1159 2438 1159 1844 
L 1159 0 
L 581 0 
L 581 3500 
L 1159 3500 
L 1159 2956 
Q 1341 3275 1631 3429 
Q 1922 3584 2338 3584 
Q 2397 3584 2469 3576 
Q 2541 3569 2628 3553 
L 2631 2963 
z
" id="DejaVuSans-72" transform="scale(0.015625)"/>
       <path d="M 3122 3366 
L 3122 2828 
Q 2878 2963 2633 3030 
Q 2388 3097 2138 3097 
Q 1578 3097 1268 2742 
Q 959 2388 959 1747 
Q 959 1106 1268 751 
Q 1578 397 2138 397 
Q 2388 397 2633 464 
Q 2878 531 3122 666 
L 3122 134 
Q 2881 22 2623 -34 
Q 2366 -91 2075 -91 
Q 1284 -91 818 406 
Q 353 903 353 1747 
Q 353 2603 823 3093 
Q 1294 3584 2113 3584 
Q 2378 3584 2631 3529 
Q 2884 3475 3122 3366 
z
" id="DejaVuSans-63" transform="scale(0.015625)"/>
       <path d="M 3513 2113 
L 3513 0 
L 2938 0 
L 2938 2094 
Q 2938 2591 2744 2837 
Q 2550 3084 2163 3084 
Q 1697 3084 1428 2787 
Q 1159 2491 1159 1978 
L 1159 0 
L 581 0 
L 581 3500 
L 1159 3500 
L 1159 2956 
Q 1366 3272 1645 3428 
Q 1925 3584 2291 3584 
Q 2894 3584 3203 3211 
Q 3513 2838 3513 2113 
z
" id="DejaVuSans-6e" transform="scale(0.015625)"/>
       <path d="M 1172 4494 
L 1172 3500 
L 2356 3500 
L 2356 3053 
L 1172 3053 
L 1172 1153 
Q 1172 725 1289 603 
Q 1406 481 1766 481 
L 2356 481 
L 2356 0 
L 1766 0 
Q 1100 0 847 248 
Q 594 497 594 1153 
L 594 3053 
L 172 3053 
L 172 3500 
L 594 3500 
L 594 4494 
L 1172 4494 
z
" id="DejaVuSans-74" transform="scale(0.015625)"/>
       <path d="M 2194 1759 
Q 1497 1759 1228 1600 
Q 959 1441 959 1056 
Q 959 750 1161 570 
Q 1363 391 1709 391 
Q 2188 391 2477 730 
Q 2766 1069 2766 1631 
L 2766 1759 
L 2194 1759 
z
M 3341 1997 
L 3341 0 
L 2766 0 
L 2766 531 
Q 2569 213 2275 61 
Q 1981 -91 1556 -91 
Q 1019 -91 701 211 
Q 384 513 384 1019 
Q 384 1609 779 1909 
Q 1175 2209 1959 2209 
L 2766 2209 
L 2766 2266 
Q 2766 2663 2505 2880 
Q 2244 3097 1772 3097 
Q 1472 3097 1187 3025 
Q 903 2953 641 2809 
L 641 3341 
Q 956 3463 1253 3523 
Q 1550 3584 1831 3584 
Q 2591 3584 2966 3190 
Q 3341 2797 3341 1997 
z
" id="DejaVuSans-61" transform="scale(0.015625)"/>
       <path d="M 2906 1791 
Q 2906 2416 2648 2759 
Q 2391 3103 1925 3103 
Q 1463 3103 1205 2759 
Q 947 2416 947 1791 
Q 947 1169 1205 825 
Q 1463 481 1925 481 
Q 2391 481 2648 825 
Q 2906 1169 2906 1791 
z
M 3481 434 
Q 3481 -459 3084 -895 
Q 2688 -1331 1869 -1331 
Q 1566 -1331 1297 -1286 
Q 1028 -1241 775 -1147 
L 775 -588 
Q 1028 -725 1275 -790 
Q 1522 -856 1778 -856 
Q 2344 -856 2625 -561 
Q 2906 -266 2906 331 
L 2906 616 
Q 2728 306 2450 153 
Q 2172 0 1784 0 
Q 1141 0 747 490 
Q 353 981 353 1791 
Q 353 2603 747 3093 
Q 1141 3584 1784 3584 
Q 2172 3584 2450 3431 
Q 2728 3278 2906 2969 
L 2906 3500 
L 3481 3500 
L 3481 434 
z
" id="DejaVuSans-67" transform="scale(0.015625)"/>
       <path id="DejaVuSans-20" transform="scale(0.015625)"/>
       <path d="M 1959 3097 
Q 1497 3097 1228 2736 
Q 959 2375 959 1747 
Q 959 1119 1226 758 
Q 1494 397 1959 397 
Q 2419 397 2687 759 
Q 2956 1122 2956 1747 
Q 2956 2369 2687 2733 
Q 2419 3097 1959 3097 
z
M 1959 3584 
Q 2709 3584 3137 3096 
Q 3566 2609 3566 1747 
Q 3566 888 3137 398 
Q 2709 -91 1959 -91 
Q 1206 -91 779 398 
Q 353 888 353 1747 
Q 353 2609 779 3096 
Q 1206 3584 1959 3584 
z
" id="DejaVuSans-6f" transform="scale(0.015625)"/>
       <path d="M 2375 4863 
L 2375 4384 
L 1825 4384 
Q 1516 4384 1395 4259 
Q 1275 4134 1275 3809 
L 1275 3500 
L 2222 3500 
L 2222 3053 
L 1275 3053 
L 1275 0 
L 697 0 
L 697 3053 
L 147 3053 
L 147 3500 
L 697 3500 
L 697 3744 
Q 697 4328 969 4595 
Q 1241 4863 1831 4863 
L 2375 4863 
z
" id="DejaVuSans-66" transform="scale(0.015625)"/>
       <path d="M 3328 2828 
Q 3544 3216 3844 3400 
Q 4144 3584 4550 3584 
Q 5097 3584 5394 3201 
Q 5691 2819 5691 2113 
L 5691 0 
L 5113 0 
L 5113 2094 
Q 5113 2597 4934 2840 
Q 4756 3084 4391 3084 
Q 3944 3084 3684 2787 
Q 3425 2491 3425 1978 
L 3425 0 
L 2847 0 
L 2847 2094 
Q 2847 2600 2669 2842 
Q 2491 3084 2119 3084 
Q 1678 3084 1418 2786 
Q 1159 2488 1159 1978 
L 1159 0 
L 581 0 
L 581 3500 
L 1159 3500 
L 1159 2956 
Q 1356 3278 1631 3431 
Q 1906 3584 2284 3584 
Q 2666 3584 2933 3390 
Q 3200 3197 3328 2828 
z
" id="DejaVuSans-6d" transform="scale(0.015625)"/>
       <path d="M 3513 3500 
L 2247 1797 
L 3578 0 
L 2900 0 
L 1881 1375 
L 863 0 
L 184 0 
L 1544 1831 
L 300 3500 
L 978 3500 
L 1906 2253 
L 2834 3500 
L 3513 3500 
z
" id="DejaVuSans-78" transform="scale(0.015625)"/>
       <path d="M 603 3500 
L 1178 3500 
L 1178 0 
L 603 0 
L 603 3500 
z
M 603 4863 
L 1178 4863 
L 1178 4134 
L 603 4134 
L 603 4863 
z
" id="DejaVuSans-69" transform="scale(0.015625)"/>
       <path d="M 544 1381 
L 544 3500 
L 1119 3500 
L 1119 1403 
Q 1119 906 1312 657 
Q 1506 409 1894 409 
Q 2359 409 2629 706 
Q 2900 1003 2900 1516 
L 2900 3500 
L 3475 3500 
L 3475 0 
L 2900 0 
L 2900 538 
Q 2691 219 2414 64 
Q 2138 -91 1772 -91 
Q 1169 -91 856 284 
Q 544 659 544 1381 
z
M 1991 3584 
L 1991 3584 
z
" id="DejaVuSans-75" transform="scale(0.015625)"/>
       <path d="M 2834 3397 
L 2834 2853 
Q 2591 2978 2328 3040 
Q 2066 3103 1784 3103 
Q 1356 3103 1142 2972 
Q 928 2841 928 2578 
Q 928 2378 1081 2264 
Q 1234 2150 1697 2047 
L 1894 2003 
Q 2506 1872 2764 1633 
Q 3022 1394 3022 966 
Q 3022 478 2636 193 
Q 2250 -91 1575 -91 
Q 1294 -91 989 -36 
Q 684 19 347 128 
L 347 722 
Q 666 556 975 473 
Q 1284 391 1588 391 
Q 1994 391 2212 530 
Q 2431 669 2431 922 
Q 2431 1156 2273 1281 
Q 2116 1406 1581 1522 
L 1381 1569 
Q 847 1681 609 1914 
Q 372 2147 372 2553 
Q 372 3047 722 3315 
Q 1072 3584 1716 3584 
Q 2034 3584 2315 3537 
Q 2597 3491 2834 3397 
z
" id="DejaVuSans-73" transform="scale(0.015625)"/>
       <path d="M 603 4863 
L 1178 4863 
L 1178 0 
L 603 0 
L 603 4863 
z
" id="DejaVuSans-6c" transform="scale(0.015625)"/>
      </defs>
      <use xlink:href="#DejaVuSans-50"/>
      <use x="56.677734" xlink:href="#DejaVuSans-65"/>
      <use x="118.201172" xlink:href="#DejaVuSans-72"/>
      <use x="157.064453" xlink:href="#DejaVuSans-63"/>
      <use x="212.044922" xlink:href="#DejaVuSans-65"/>
      <use x="273.568359" xlink:href="#DejaVuSans-6e"/>
      <use x="336.947266" xlink:href="#DejaVuSans-74"/>
      <use x="376.15625" xlink:href="#DejaVuSans-61"/>
      <use x="437.435547" xlink:href="#DejaVuSans-67"/>
      <use x="500.912109" xlink:href="#DejaVuSans-65"/>
      <use x="562.435547" xlink:href="#DejaVuSans-20"/>
      <use x="594.222656" xlink:href="#DejaVuSans-6f"/>
      <use x="655.404297" xlink:href="#DejaVuSans-66"/>
      <use x="690.609375" xlink:href="#DejaVuSans-20"/>
      <use x="722.396484" xlink:href="#DejaVuSans-6d"/>
      <use x="819.808594" xlink:href="#DejaVuSans-61"/>
      <use x="881.087891" xlink:href="#DejaVuSans-78"/>
      <use x="940.267578" xlink:href="#DejaVuSans-69"/>
      <use x="968.050781" xlink:href="#DejaVuSans-6d"/>
      <use x="1065.462891" xlink:href="#DejaVuSans-75"/>
      <use x="1128.841797" xlink:href="#DejaVuSans-6d"/>
      <use x="1226.253906" xlink:href="#DejaVuSans-20"/>
      <use x="1258.041016" xlink:href="#DejaVuSans-6d"/>
      <use x="1355.453125" xlink:href="#DejaVuSans-75"/>
      <use x="1418.832031" xlink:href="#DejaVuSans-73"/>
      <use x="1470.931641" xlink:href="#DejaVuSans-63"/>
      <use x="1525.912109" xlink:href="#DejaVuSans-6c"/>
      <use x="1553.695312" xlink:href="#DejaVuSans-65"/>
      <use x="1615.21875" xlink:href="#DejaVuSans-20"/>
      <use x="1647.005859" xlink:href="#DejaVuSans-66"/>
      <use x="1682.210938" xlink:href="#DejaVuSans-6f"/>
      <use x="1743.392578" xlink:href="#DejaVuSans-72"/>
      <use x="1782.255859" xlink:href="#DejaVuSans-63"/>
      <use x="1837.236328" xlink:href="#DejaVuSans-65"/>
     </g>
    </g>
   </g>
   <g id="matplotlib.axis_2">
    <g id="ytick_1">
     <g id="line2d_13">
      <path clip-path="url(#p19bb742f8b)" d="M 146.16 338.357205 
L 558.065455 338.357205 
" style="fill:none;stroke:#b0b0b0;stroke-linecap:square;stroke-width:0.8;"/>
     </g>
     <g id="line2d_14">
      <defs>
       <path d="M 0 0 
L -3.5 0 
" id="m3b34071231" style="stroke:#000000;stroke-width:0.8;"/>
      </defs>
      <g>
       <use style="stroke:#000000;stroke-width:0.8;" x="146.16" xlink:href="#m3b34071231" y="338.357205"/>
      </g>
     </g>
     <g id="text_8">
      <!-- 10 -->
      <g transform="translate(116.255 345.195799)scale(0.18 -0.18)">
       <use xlink:href="#DejaVuSans-31"/>
       <use x="63.623047" xlink:href="#DejaVuSans-30"/>
      </g>
     </g>
    </g>
    <g id="ytick_2">
     <g id="line2d_15">
      <path clip-path="url(#p19bb742f8b)" d="M 146.16 290.710848 
L 558.065455 290.710848 
" style="fill:none;stroke:#b0b0b0;stroke-linecap:square;stroke-width:0.8;"/>
     </g>
     <g id="line2d_16">
      <g>
       <use style="stroke:#000000;stroke-width:0.8;" x="146.16" xlink:href="#m3b34071231" y="290.710848"/>
      </g>
     </g>
     <g id="text_9">
      <!-- 15 -->
      <g transform="translate(116.255 297.549441)scale(0.18 -0.18)">
       <defs>
        <path d="M 691 4666 
L 3169 4666 
L 3169 4134 
L 1269 4134 
L 1269 2991 
Q 1406 3038 1543 3061 
Q 1681 3084 1819 3084 
Q 2600 3084 3056 2656 
Q 3513 2228 3513 1497 
Q 3513 744 3044 326 
Q 2575 -91 1722 -91 
Q 1428 -91 1123 -41 
Q 819 9 494 109 
L 494 744 
Q 775 591 1075 516 
Q 1375 441 1709 441 
Q 2250 441 2565 725 
Q 2881 1009 2881 1497 
Q 2881 1984 2565 2268 
Q 2250 2553 1709 2553 
Q 1456 2553 1204 2497 
Q 953 2441 691 2322 
L 691 4666 
z
" id="DejaVuSans-35" transform="scale(0.015625)"/>
       </defs>
       <use xlink:href="#DejaVuSans-31"/>
       <use x="63.623047" xlink:href="#DejaVuSans-35"/>
      </g>
     </g>
    </g>
    <g id="ytick_3">
     <g id="line2d_17">
      <path clip-path="url(#p19bb742f8b)" d="M 146.16 243.06449 
L 558.065455 243.06449 
" style="fill:none;stroke:#b0b0b0;stroke-linecap:square;stroke-width:0.8;"/>
     </g>
     <g id="line2d_18">
      <g>
       <use style="stroke:#000000;stroke-width:0.8;" x="146.16" xlink:href="#m3b34071231" y="243.06449"/>
      </g>
     </g>
     <g id="text_10">
      <!-- 20 -->
      <g transform="translate(116.255 249.903084)scale(0.18 -0.18)">
       <use xlink:href="#DejaVuSans-32"/>
       <use x="63.623047" xlink:href="#DejaVuSans-30"/>
      </g>
     </g>
    </g>
    <g id="ytick_4">
     <g id="line2d_19">
      <path clip-path="url(#p19bb742f8b)" d="M 146.16 195.418132 
L 558.065455 195.418132 
" style="fill:none;stroke:#b0b0b0;stroke-linecap:square;stroke-width:0.8;"/>
     </g>
     <g id="line2d_20">
      <g>
       <use style="stroke:#000000;stroke-width:0.8;" x="146.16" xlink:href="#m3b34071231" y="195.418132"/>
      </g>
     </g>
     <g id="text_11">
      <!-- 25 -->
      <g transform="translate(116.255 202.256726)scale(0.18 -0.18)">
       <use xlink:href="#DejaVuSans-32"/>
       <use x="63.623047" xlink:href="#DejaVuSans-35"/>
      </g>
     </g>
    </g>
    <g id="ytick_5">
     <g id="line2d_21">
      <path clip-path="url(#p19bb742f8b)" d="M 146.16 147.771775 
L 558.065455 147.771775 
" style="fill:none;stroke:#b0b0b0;stroke-linecap:square;stroke-width:0.8;"/>
     </g>
     <g id="line2d_22">
      <g>
       <use style="stroke:#000000;stroke-width:0.8;" x="146.16" xlink:href="#m3b34071231" y="147.771775"/>
      </g>
     </g>
     <g id="text_12">
      <!-- 30 -->
      <g transform="translate(116.255 154.610369)scale(0.18 -0.18)">
       <defs>
        <path d="M 2597 2516 
Q 3050 2419 3304 2112 
Q 3559 1806 3559 1356 
Q 3559 666 3084 287 
Q 2609 -91 1734 -91 
Q 1441 -91 1130 -33 
Q 819 25 488 141 
L 488 750 
Q 750 597 1062 519 
Q 1375 441 1716 441 
Q 2309 441 2620 675 
Q 2931 909 2931 1356 
Q 2931 1769 2642 2001 
Q 2353 2234 1838 2234 
L 1294 2234 
L 1294 2753 
L 1863 2753 
Q 2328 2753 2575 2939 
Q 2822 3125 2822 3475 
Q 2822 3834 2567 4026 
Q 2313 4219 1838 4219 
Q 1578 4219 1281 4162 
Q 984 4106 628 3988 
L 628 4550 
Q 988 4650 1302 4700 
Q 1616 4750 1894 4750 
Q 2613 4750 3031 4423 
Q 3450 4097 3450 3541 
Q 3450 3153 3228 2886 
Q 3006 2619 2597 2516 
z
" id="DejaVuSans-33" transform="scale(0.015625)"/>
       </defs>
       <use xlink:href="#DejaVuSans-33"/>
       <use x="63.623047" xlink:href="#DejaVuSans-30"/>
      </g>
     </g>
    </g>
    <g id="ytick_6">
     <g id="line2d_23">
      <path clip-path="url(#p19bb742f8b)" d="M 146.16 100.125417 
L 558.065455 100.125417 
" style="fill:none;stroke:#b0b0b0;stroke-linecap:square;stroke-width:0.8;"/>
     </g>
     <g id="line2d_24">
      <g>
       <use style="stroke:#000000;stroke-width:0.8;" x="146.16" xlink:href="#m3b34071231" y="100.125417"/>
      </g>
     </g>
     <g id="text_13">
      <!-- 35 -->
      <g transform="translate(116.255 106.964011)scale(0.18 -0.18)">
       <use xlink:href="#DejaVuSans-33"/>
       <use x="63.623047" xlink:href="#DejaVuSans-35"/>
      </g>
     </g>
    </g>
    <g id="ytick_7">
     <g id="line2d_25">
      <path clip-path="url(#p19bb742f8b)" d="M 146.16 52.47906 
L 558.065455 52.47906 
" style="fill:none;stroke:#b0b0b0;stroke-linecap:square;stroke-width:0.8;"/>
     </g>
     <g id="line2d_26">
      <g>
       <use style="stroke:#000000;stroke-width:0.8;" x="146.16" xlink:href="#m3b34071231" y="52.47906"/>
      </g>
     </g>
     <g id="text_14">
      <!-- 40 -->
      <g transform="translate(116.255 59.317653)scale(0.18 -0.18)">
       <use xlink:href="#DejaVuSans-34"/>
       <use x="63.623047" xlink:href="#DejaVuSans-30"/>
      </g>
     </g>
    </g>
    <g id="text_15">
     <!-- Maximum mouth opening distance (mm) -->
     <g transform="translate(108.511562 391.682475)rotate(-90)scale(0.18 -0.18)">
      <defs>
       <path d="M 628 4666 
L 1569 4666 
L 2759 1491 
L 3956 4666 
L 4897 4666 
L 4897 0 
L 4281 0 
L 4281 4097 
L 3078 897 
L 2444 897 
L 1241 4097 
L 1241 0 
L 628 0 
L 628 4666 
z
" id="DejaVuSans-4d" transform="scale(0.015625)"/>
       <path d="M 3513 2113 
L 3513 0 
L 2938 0 
L 2938 2094 
Q 2938 2591 2744 2837 
Q 2550 3084 2163 3084 
Q 1697 3084 1428 2787 
Q 1159 2491 1159 1978 
L 1159 0 
L 581 0 
L 581 4863 
L 1159 4863 
L 1159 2956 
Q 1366 3272 1645 3428 
Q 1925 3584 2291 3584 
Q 2894 3584 3203 3211 
Q 3513 2838 3513 2113 
z
" id="DejaVuSans-68" transform="scale(0.015625)"/>
       <path d="M 1159 525 
L 1159 -1331 
L 581 -1331 
L 581 3500 
L 1159 3500 
L 1159 2969 
Q 1341 3281 1617 3432 
Q 1894 3584 2278 3584 
Q 2916 3584 3314 3078 
Q 3713 2572 3713 1747 
Q 3713 922 3314 415 
Q 2916 -91 2278 -91 
Q 1894 -91 1617 61 
Q 1341 213 1159 525 
z
M 3116 1747 
Q 3116 2381 2855 2742 
Q 2594 3103 2138 3103 
Q 1681 3103 1420 2742 
Q 1159 2381 1159 1747 
Q 1159 1113 1420 752 
Q 1681 391 2138 391 
Q 2594 391 2855 752 
Q 3116 1113 3116 1747 
z
" id="DejaVuSans-70" transform="scale(0.015625)"/>
       <path d="M 2906 2969 
L 2906 4863 
L 3481 4863 
L 3481 0 
L 2906 0 
L 2906 525 
Q 2725 213 2448 61 
Q 2172 -91 1784 -91 
Q 1150 -91 751 415 
Q 353 922 353 1747 
Q 353 2572 751 3078 
Q 1150 3584 1784 3584 
Q 2172 3584 2448 3432 
Q 2725 3281 2906 2969 
z
M 947 1747 
Q 947 1113 1208 752 
Q 1469 391 1925 391 
Q 2381 391 2643 752 
Q 2906 1113 2906 1747 
Q 2906 2381 2643 2742 
Q 2381 3103 1925 3103 
Q 1469 3103 1208 2742 
Q 947 2381 947 1747 
z
" id="DejaVuSans-64" transform="scale(0.015625)"/>
       <path d="M 1984 4856 
Q 1566 4138 1362 3434 
Q 1159 2731 1159 2009 
Q 1159 1288 1364 580 
Q 1569 -128 1984 -844 
L 1484 -844 
Q 1016 -109 783 600 
Q 550 1309 550 2009 
Q 550 2706 781 3412 
Q 1013 4119 1484 4856 
L 1984 4856 
z
" id="DejaVuSans-28" transform="scale(0.015625)"/>
       <path d="M 513 4856 
L 1013 4856 
Q 1481 4119 1714 3412 
Q 1947 2706 1947 2009 
Q 1947 1309 1714 600 
Q 1481 -109 1013 -844 
L 513 -844 
Q 928 -128 1133 580 
Q 1338 1288 1338 2009 
Q 1338 2731 1133 3434 
Q 928 4138 513 4856 
z
" id="DejaVuSans-29" transform="scale(0.015625)"/>
      </defs>
      <use xlink:href="#DejaVuSans-4d"/>
      <use x="86.279297" xlink:href="#DejaVuSans-61"/>
      <use x="147.558594" xlink:href="#DejaVuSans-78"/>
      <use x="206.738281" xlink:href="#DejaVuSans-69"/>
      <use x="234.521484" xlink:href="#DejaVuSans-6d"/>
      <use x="331.933594" xlink:href="#DejaVuSans-75"/>
      <use x="395.3125" xlink:href="#DejaVuSans-6d"/>
      <use x="492.724609" xlink:href="#DejaVuSans-20"/>
      <use x="524.511719" xlink:href="#DejaVuSans-6d"/>
      <use x="621.923828" xlink:href="#DejaVuSans-6f"/>
      <use x="683.105469" xlink:href="#DejaVuSans-75"/>
      <use x="746.484375" xlink:href="#DejaVuSans-74"/>
      <use x="785.693359" xlink:href="#DejaVuSans-68"/>
      <use x="849.072266" xlink:href="#DejaVuSans-20"/>
      <use x="880.859375" xlink:href="#DejaVuSans-6f"/>
      <use x="942.041016" xlink:href="#DejaVuSans-70"/>
      <use x="1005.517578" xlink:href="#DejaVuSans-65"/>
      <use x="1067.041016" xlink:href="#DejaVuSans-6e"/>
      <use x="1130.419922" xlink:href="#DejaVuSans-69"/>
      <use x="1158.203125" xlink:href="#DejaVuSans-6e"/>
      <use x="1221.582031" xlink:href="#DejaVuSans-67"/>
      <use x="1285.058594" xlink:href="#DejaVuSans-20"/>
      <use x="1316.845703" xlink:href="#DejaVuSans-64"/>
      <use x="1380.322266" xlink:href="#DejaVuSans-69"/>
      <use x="1408.105469" xlink:href="#DejaVuSans-73"/>
      <use x="1460.205078" xlink:href="#DejaVuSans-74"/>
      <use x="1499.414062" xlink:href="#DejaVuSans-61"/>
      <use x="1560.693359" xlink:href="#DejaVuSans-6e"/>
      <use x="1624.072266" xlink:href="#DejaVuSans-63"/>
      <use x="1679.052734" xlink:href="#DejaVuSans-65"/>
      <use x="1740.576172" xlink:href="#DejaVuSans-20"/>
      <use x="1772.363281" xlink:href="#DejaVuSans-28"/>
      <use x="1811.376953" xlink:href="#DejaVuSans-6d"/>
      <use x="1908.789062" xlink:href="#DejaVuSans-6d"/>
      <use x="2006.201172" xlink:href="#DejaVuSans-29"/>
     </g>
    </g>
   </g>
   <g id="line2d_27">
    <path clip-path="url(#p19bb742f8b)" d="M 180.485455 63.7236 
L 352.112727 71.823481 
L 386.438182 75.635189 
L 455.089091 93.359634 
L 472.251818 104.604175 
L 489.414545 126.235621 
L 506.577273 194.084034 
L 520.307455 286.422675 
L 522.023727 307.958829 
L 523.74 351.5076 
" style="fill:none;stroke:#1f77b4;stroke-linecap:square;stroke-width:1.5;"/>
   </g>
   <g id="line2d_28">
    <path clip-path="url(#p19bb742f8b)" d="M 465.386727 365.8968 
L 465.386727 49.3344 
" style="fill:none;stroke:#ff0000;stroke-dasharray:5.55,2.4;stroke-dashoffset:0;stroke-width:1.5;"/>
   </g>
   <g id="patch_3">
    <path d="M 146.16 365.8968 
L 146.16 49.3344 
" style="fill:none;stroke:#000000;stroke-linecap:square;stroke-linejoin:miter;stroke-width:0.8;"/>
   </g>
   <g id="patch_4">
    <path d="M 558.065455 365.8968 
L 558.065455 49.3344 
" style="fill:none;stroke:#000000;stroke-linecap:square;stroke-linejoin:miter;stroke-width:0.8;"/>
   </g>
   <g id="patch_5">
    <path d="M 146.16 365.8968 
L 558.065455 365.8968 
" style="fill:none;stroke:#000000;stroke-linecap:square;stroke-linejoin:miter;stroke-width:0.8;"/>
   </g>
   <g id="patch_6">
    <path d="M 146.16 49.3344 
L 558.065455 49.3344 
" style="fill:none;stroke:#000000;stroke-linecap:square;stroke-linejoin:miter;stroke-width:0.8;"/>
   </g>
  </g>
  <g id="axes_2">
   <g id="patch_7">
    <path d="M 640.446545 365.8968 
L 1052.352 365.8968 
L 1052.352 49.3344 
L 640.446545 49.3344 
z
" style="fill:#ffffff;"/>
   </g>
   <g id="matplotlib.axis_3">
    <g id="xtick_7">
     <g id="line2d_29">
      <path clip-path="url(#p2bd399e225)" d="M 659.169521 365.8968 
L 659.169521 49.3344 
" style="fill:none;stroke:#b0b0b0;stroke-linecap:square;stroke-width:0.8;"/>
     </g>
     <g id="line2d_30">
      <g>
       <use style="stroke:#000000;stroke-width:0.8;" x="659.169521" xlink:href="#m9d66e21936" y="365.8968"/>
      </g>
     </g>
     <g id="text_16">
      <!-- 0.0 -->
      <g transform="translate(644.856708 386.573987)scale(0.18 -0.18)">
       <use xlink:href="#DejaVuSans-30"/>
       <use x="63.623047" xlink:href="#DejaVuSans-2e"/>
       <use x="95.410156" xlink:href="#DejaVuSans-30"/>
      </g>
     </g>
    </g>
    <g id="xtick_8">
     <g id="line2d_31">
      <path clip-path="url(#p2bd399e225)" d="M 734.061421 365.8968 
L 734.061421 49.3344 
" style="fill:none;stroke:#b0b0b0;stroke-linecap:square;stroke-width:0.8;"/>
     </g>
     <g id="line2d_32">
      <g>
       <use style="stroke:#000000;stroke-width:0.8;" x="734.061421" xlink:href="#m9d66e21936" y="365.8968"/>
      </g>
     </g>
     <g id="text_17">
      <!-- 0.2 -->
      <g transform="translate(719.748609 386.573987)scale(0.18 -0.18)">
       <use xlink:href="#DejaVuSans-30"/>
       <use x="63.623047" xlink:href="#DejaVuSans-2e"/>
       <use x="95.410156" xlink:href="#DejaVuSans-32"/>
      </g>
     </g>
    </g>
    <g id="xtick_9">
     <g id="line2d_33">
      <path clip-path="url(#p2bd399e225)" d="M 808.953322 365.8968 
L 808.953322 49.3344 
" style="fill:none;stroke:#b0b0b0;stroke-linecap:square;stroke-width:0.8;"/>
     </g>
     <g id="line2d_34">
      <g>
       <use style="stroke:#000000;stroke-width:0.8;" x="808.953322" xlink:href="#m9d66e21936" y="365.8968"/>
      </g>
     </g>
     <g id="text_18">
      <!-- 0.4 -->
      <g transform="translate(794.64051 386.573987)scale(0.18 -0.18)">
       <use xlink:href="#DejaVuSans-30"/>
       <use x="63.623047" xlink:href="#DejaVuSans-2e"/>
       <use x="95.410156" xlink:href="#DejaVuSans-34"/>
      </g>
     </g>
    </g>
    <g id="xtick_10">
     <g id="line2d_35">
      <path clip-path="url(#p2bd399e225)" d="M 883.845223 365.8968 
L 883.845223 49.3344 
" style="fill:none;stroke:#b0b0b0;stroke-linecap:square;stroke-width:0.8;"/>
     </g>
     <g id="line2d_36">
      <g>
       <use style="stroke:#000000;stroke-width:0.8;" x="883.845223" xlink:href="#m9d66e21936" y="365.8968"/>
      </g>
     </g>
     <g id="text_19">
      <!-- 0.6 -->
      <g transform="translate(869.532411 386.573987)scale(0.18 -0.18)">
       <use xlink:href="#DejaVuSans-30"/>
       <use x="63.623047" xlink:href="#DejaVuSans-2e"/>
       <use x="95.410156" xlink:href="#DejaVuSans-36"/>
      </g>
     </g>
    </g>
    <g id="xtick_11">
     <g id="line2d_37">
      <path clip-path="url(#p2bd399e225)" d="M 958.737124 365.8968 
L 958.737124 49.3344 
" style="fill:none;stroke:#b0b0b0;stroke-linecap:square;stroke-width:0.8;"/>
     </g>
     <g id="line2d_38">
      <g>
       <use style="stroke:#000000;stroke-width:0.8;" x="958.737124" xlink:href="#m9d66e21936" y="365.8968"/>
      </g>
     </g>
     <g id="text_20">
      <!-- 0.8 -->
      <g transform="translate(944.424311 386.573987)scale(0.18 -0.18)">
       <use xlink:href="#DejaVuSans-30"/>
       <use x="63.623047" xlink:href="#DejaVuSans-2e"/>
       <use x="95.410156" xlink:href="#DejaVuSans-38"/>
      </g>
     </g>
    </g>
    <g id="xtick_12">
     <g id="line2d_39">
      <path clip-path="url(#p2bd399e225)" d="M 1033.629025 365.8968 
L 1033.629025 49.3344 
" style="fill:none;stroke:#b0b0b0;stroke-linecap:square;stroke-width:0.8;"/>
     </g>
     <g id="line2d_40">
      <g>
       <use style="stroke:#000000;stroke-width:0.8;" x="1033.629025" xlink:href="#m9d66e21936" y="365.8968"/>
      </g>
     </g>
     <g id="text_21">
      <!-- 1.0 -->
      <g transform="translate(1019.316212 386.573987)scale(0.18 -0.18)">
       <use xlink:href="#DejaVuSans-31"/>
       <use x="63.623047" xlink:href="#DejaVuSans-2e"/>
       <use x="95.410156" xlink:href="#DejaVuSans-30"/>
      </g>
     </g>
    </g>
    <g id="text_22">
     <!-- Muscle activation -->
     <g transform="translate(767.820835 407.994613)scale(0.18 -0.18)">
      <defs>
       <path d="M 191 3500 
L 800 3500 
L 1894 563 
L 2988 3500 
L 3597 3500 
L 2284 0 
L 1503 0 
L 191 3500 
z
" id="DejaVuSans-76" transform="scale(0.015625)"/>
      </defs>
      <use xlink:href="#DejaVuSans-4d"/>
      <use x="86.279297" xlink:href="#DejaVuSans-75"/>
      <use x="149.658203" xlink:href="#DejaVuSans-73"/>
      <use x="201.757812" xlink:href="#DejaVuSans-63"/>
      <use x="256.738281" xlink:href="#DejaVuSans-6c"/>
      <use x="284.521484" xlink:href="#DejaVuSans-65"/>
      <use x="346.044922" xlink:href="#DejaVuSans-20"/>
      <use x="377.832031" xlink:href="#DejaVuSans-61"/>
      <use x="439.111328" xlink:href="#DejaVuSans-63"/>
      <use x="494.091797" xlink:href="#DejaVuSans-74"/>
      <use x="533.300781" xlink:href="#DejaVuSans-69"/>
      <use x="561.083984" xlink:href="#DejaVuSans-76"/>
      <use x="620.263672" xlink:href="#DejaVuSans-61"/>
      <use x="681.542969" xlink:href="#DejaVuSans-74"/>
      <use x="720.751953" xlink:href="#DejaVuSans-69"/>
      <use x="748.535156" xlink:href="#DejaVuSans-6f"/>
      <use x="809.716797" xlink:href="#DejaVuSans-6e"/>
     </g>
    </g>
   </g>
   <g id="matplotlib.axis_4">
    <g id="ytick_8">
     <g id="line2d_41">
      <path clip-path="url(#p2bd399e225)" d="M 640.446545 364.96736 
L 1052.352 364.96736 
" style="fill:none;stroke:#b0b0b0;stroke-linecap:square;stroke-width:0.8;"/>
     </g>
     <g id="line2d_42">
      <g>
       <use style="stroke:#000000;stroke-width:0.8;" x="640.446545" xlink:href="#m3b34071231" y="364.96736"/>
      </g>
     </g>
     <g id="text_23">
      <!-- 0 -->
      <g transform="translate(621.994045 371.805954)scale(0.18 -0.18)">
       <use xlink:href="#DejaVuSans-30"/>
      </g>
     </g>
    </g>
    <g id="ytick_9">
     <g id="line2d_43">
      <path clip-path="url(#p2bd399e225)" d="M 640.446545 287.360677 
L 1052.352 287.360677 
" style="fill:none;stroke:#b0b0b0;stroke-linecap:square;stroke-width:0.8;"/>
     </g>
     <g id="line2d_44">
      <g>
       <use style="stroke:#000000;stroke-width:0.8;" x="640.446545" xlink:href="#m3b34071231" y="287.360677"/>
      </g>
     </g>
     <g id="text_24">
      <!-- 10 -->
      <g transform="translate(610.541545 294.199271)scale(0.18 -0.18)">
       <use xlink:href="#DejaVuSans-31"/>
       <use x="63.623047" xlink:href="#DejaVuSans-30"/>
      </g>
     </g>
    </g>
    <g id="ytick_10">
     <g id="line2d_45">
      <path clip-path="url(#p2bd399e225)" d="M 640.446545 209.753994 
L 1052.352 209.753994 
" style="fill:none;stroke:#b0b0b0;stroke-linecap:square;stroke-width:0.8;"/>
     </g>
     <g id="line2d_46">
      <g>
       <use style="stroke:#000000;stroke-width:0.8;" x="640.446545" xlink:href="#m3b34071231" y="209.753994"/>
      </g>
     </g>
     <g id="text_25">
      <!-- 20 -->
      <g transform="translate(610.541545 216.592587)scale(0.18 -0.18)">
       <use xlink:href="#DejaVuSans-32"/>
       <use x="63.623047" xlink:href="#DejaVuSans-30"/>
      </g>
     </g>
    </g>
    <g id="ytick_11">
     <g id="line2d_47">
      <path clip-path="url(#p2bd399e225)" d="M 640.446545 132.14731 
L 1052.352 132.14731 
" style="fill:none;stroke:#b0b0b0;stroke-linecap:square;stroke-width:0.8;"/>
     </g>
     <g id="line2d_48">
      <g>
       <use style="stroke:#000000;stroke-width:0.8;" x="640.446545" xlink:href="#m3b34071231" y="132.14731"/>
      </g>
     </g>
     <g id="text_26">
      <!-- 30 -->
      <g transform="translate(610.541545 138.985904)scale(0.18 -0.18)">
       <use xlink:href="#DejaVuSans-33"/>
       <use x="63.623047" xlink:href="#DejaVuSans-30"/>
      </g>
     </g>
    </g>
    <g id="ytick_12">
     <g id="line2d_49">
      <path clip-path="url(#p2bd399e225)" d="M 640.446545 54.540627 
L 1052.352 54.540627 
" style="fill:none;stroke:#b0b0b0;stroke-linecap:square;stroke-width:0.8;"/>
     </g>
     <g id="line2d_50">
      <g>
       <use style="stroke:#000000;stroke-width:0.8;" x="640.446545" xlink:href="#m3b34071231" y="54.540627"/>
      </g>
     </g>
     <g id="text_27">
      <!-- 40 -->
      <g transform="translate(610.541545 61.379221)scale(0.18 -0.18)">
       <use xlink:href="#DejaVuSans-34"/>
       <use x="63.623047" xlink:href="#DejaVuSans-30"/>
      </g>
     </g>
    </g>
    <g id="text_28">
     <!-- Mouth opening distance (mm) -->
     <g transform="translate(602.798108 343.476225)rotate(-90)scale(0.18 -0.18)">
      <use xlink:href="#DejaVuSans-4d"/>
      <use x="86.279297" xlink:href="#DejaVuSans-6f"/>
      <use x="147.460938" xlink:href="#DejaVuSans-75"/>
      <use x="210.839844" xlink:href="#DejaVuSans-74"/>
      <use x="250.048828" xlink:href="#DejaVuSans-68"/>
      <use x="313.427734" xlink:href="#DejaVuSans-20"/>
      <use x="345.214844" xlink:href="#DejaVuSans-6f"/>
      <use x="406.396484" xlink:href="#DejaVuSans-70"/>
      <use x="469.873047" xlink:href="#DejaVuSans-65"/>
      <use x="531.396484" xlink:href="#DejaVuSans-6e"/>
      <use x="594.775391" xlink:href="#DejaVuSans-69"/>
      <use x="622.558594" xlink:href="#DejaVuSans-6e"/>
      <use x="685.9375" xlink:href="#DejaVuSans-67"/>
      <use x="749.414062" xlink:href="#DejaVuSans-20"/>
      <use x="781.201172" xlink:href="#DejaVuSans-64"/>
      <use x="844.677734" xlink:href="#DejaVuSans-69"/>
      <use x="872.460938" xlink:href="#DejaVuSans-73"/>
      <use x="924.560547" xlink:href="#DejaVuSans-74"/>
      <use x="963.769531" xlink:href="#DejaVuSans-61"/>
      <use x="1025.048828" xlink:href="#DejaVuSans-6e"/>
      <use x="1088.427734" xlink:href="#DejaVuSans-63"/>
      <use x="1143.408203" xlink:href="#DejaVuSans-65"/>
      <use x="1204.931641" xlink:href="#DejaVuSans-20"/>
      <use x="1236.71875" xlink:href="#DejaVuSans-28"/>
      <use x="1275.732422" xlink:href="#DejaVuSans-6d"/>
      <use x="1373.144531" xlink:href="#DejaVuSans-6d"/>
      <use x="1470.556641" xlink:href="#DejaVuSans-29"/>
     </g>
    </g>
   </g>
   <g id="line2d_51">
    <path clip-path="url(#p2bd399e225)" d="M 659.169521 351.5076 
L 661.041818 346.334112 
L 662.914116 334.978868 
L 664.786413 320.347359 
L 670.403306 271.620124 
L 672.275603 256.807923 
L 674.147901 243.316047 
L 676.020198 231.028712 
L 677.892496 219.737748 
L 679.764793 209.234553 
L 683.509388 190.049795 
L 687.253983 172.883248 
L 690.998579 157.587679 
L 694.743174 144.053281 
L 696.615471 137.949083 
L 698.487769 133.23037 
L 700.360066 129.902682 
L 704.104661 124.272921 
L 707.849256 118.181208 
L 709.721554 115.545052 
L 711.593851 113.274563 
L 715.338446 109.228009 
L 719.083041 105.570878 
L 722.827636 102.455791 
L 726.572231 99.673754 
L 730.316826 97.173932 
L 734.061421 94.918488 
L 737.806017 92.854825 
L 743.422909 90.08178 
L 749.039802 87.639002 
L 754.656694 85.487915 
L 760.273587 83.596012 
L 765.890479 81.933067 
L 771.507372 80.470436 
L 778.996562 78.785736 
L 788.35805 76.995174 
L 797.719537 75.491497 
L 807.081025 74.223977 
L 818.31481 72.9456 
L 831.420893 71.705979 
L 846.399273 70.532657 
L 863.24995 69.439015 
L 883.845223 68.336109 
L 908.185091 67.266945 
L 938.141851 66.191046 
L 973.715504 65.144133 
L 1018.650645 64.050053 
L 1033.629025 63.7236 
L 1033.629025 63.7236 
" style="fill:none;stroke:#1f77b4;stroke-linecap:square;stroke-width:1.5;"/>
   </g>
   <g id="line2d_52">
    <path clip-path="url(#p2bd399e225)" d="M 659.169521 351.5076 
L 661.041818 347.224783 
L 662.914116 338.329078 
L 666.658711 316.432963 
L 670.403306 294.564238 
L 672.275603 284.36494 
L 674.147901 274.81494 
L 676.020198 265.867036 
L 677.892496 257.599712 
L 679.764793 249.847229 
L 681.637091 242.571905 
L 685.381686 229.201361 
L 689.126281 216.950766 
L 692.870876 205.570674 
L 696.615471 195.00471 
L 700.360066 185.200136 
L 704.104661 176.07336 
L 709.721554 163.50049 
L 711.593851 159.432133 
L 719.083041 144.460045 
L 724.699934 134.392281 
L 726.572231 131.166265 
L 728.444529 128.657849 
L 730.316826 126.943728 
L 734.061421 124.212185 
L 739.678314 119.569836 
L 743.422909 117.0002 
L 750.912099 112.320512 
L 756.528992 109.212848 
L 762.145884 106.353745 
L 767.762777 103.731071 
L 773.379669 101.307162 
L 780.86886 98.361955 
L 788.35805 95.719404 
L 795.84724 93.358374 
L 803.33643 91.25628 
L 810.82562 89.387661 
L 818.31481 87.725555 
L 827.676298 85.89805 
L 837.037785 84.304424 
L 848.27157 82.644008 
L 859.505355 81.205327 
L 872.611438 79.749267 
L 887.589818 78.31615 
L 906.312793 76.777953 
L 926.908066 75.302926 
L 949.375636 73.9391 
L 973.715504 72.689046 
L 1001.799967 71.471178 
L 1033.629025 70.312323 
L 1033.629025 70.312323 
" style="fill:none;stroke:#ff7f0e;stroke-linecap:square;stroke-width:1.5;"/>
   </g>
   <g id="line2d_53">
    <path clip-path="url(#p2bd399e225)" d="M 659.169521 351.5076 
L 661.041818 348.194896 
L 662.914116 341.207022 
L 664.786413 333.663914 
L 666.658711 326.652477 
L 668.531008 320.503226 
L 670.403306 315.202462 
L 672.275603 310.667495 
L 674.147901 306.706196 
L 676.020198 303.200455 
L 677.892496 300.03744 
L 681.637091 294.345851 
L 694.743174 275.760241 
L 702.232364 265.230514 
L 707.849256 257.757689 
L 711.593851 253.085279 
L 715.338446 248.695107 
L 719.083041 244.597621 
L 722.827636 240.790737 
L 726.572231 237.263375 
L 730.316826 233.86594 
L 734.061421 230.233377 
L 737.806017 227.024372 
L 741.550612 224.295879 
L 745.295207 221.870569 
L 747.167504 220.728737 
L 749.039802 219.447971 
L 752.784397 216.553878 
L 754.656694 215.244301 
L 758.401289 213.036154 
L 764.018182 210.266793 
L 771.507372 205.446883 
L 775.251967 203.721047 
L 778.996562 202.252966 
L 780.86886 201.228116 
L 784.613455 198.780948 
L 786.485752 197.758499 
L 788.35805 196.91616 
L 792.102645 195.564085 
L 793.974942 194.94956 
L 795.84724 194.156979 
L 801.464132 190.69004 
L 803.33643 189.860849 
L 807.081025 188.632596 
L 810.82562 187.529609 
L 812.697917 186.506338 
L 816.442512 184.082361 
L 818.31481 183.184893 
L 820.187107 182.518589 
L 827.676298 180.400067 
L 833.29319 176.850479 
L 835.165488 176.087915 
L 838.910083 175.120318 
L 842.654678 174.245218 
L 844.526975 173.563492 
L 848.27157 170.974868 
L 850.143868 169.961164 
L 852.016165 169.293546 
L 855.76076 168.48861 
L 859.505355 167.666815 
L 861.377653 167.005979 
L 865.122248 164.331718 
L 866.994545 163.32053 
L 868.866843 162.701851 
L 876.356033 161.230212 
L 878.228331 160.629487 
L 881.972926 157.889935 
L 883.845223 156.851867 
L 885.717521 156.261605 
L 893.206711 154.935051 
L 895.079008 154.43945 
L 896.951306 153.231948 
L 898.823603 151.732962 
L 900.695901 150.592677 
L 902.568198 149.967266 
L 910.057388 148.772795 
L 911.929686 148.309422 
L 913.801983 147.413745 
L 915.674281 145.879032 
L 917.546579 144.558661 
L 919.418876 143.805186 
L 921.291174 143.496273 
L 925.035769 143.093239 
L 928.780364 142.252564 
L 930.652661 141.670957 
L 934.397256 138.741957 
L 936.269554 137.770259 
L 938.141851 137.373352 
L 941.886446 137.064434 
L 943.758744 136.724926 
L 947.503339 135.7806 
L 949.375636 134.883888 
L 951.247934 133.278027 
L 953.120231 131.95365 
L 954.992529 131.302768 
L 960.609421 130.774496 
L 966.226314 129.37413 
L 968.098612 128.233712 
L 969.970909 126.595649 
L 971.843207 125.438911 
L 973.715504 124.992259 
L 977.460099 124.80888 
L 979.332397 124.473881 
L 984.949289 123.039653 
L 1011.161455 118.212126 
L 1026.139835 115.736785 
L 1033.629025 114.580876 
L 1033.629025 114.580876 
" style="fill:none;stroke:#2ca02c;stroke-linecap:square;stroke-width:1.5;"/>
   </g>
   <g id="line2d_54">
    <path clip-path="url(#p2bd399e225)" d="M 659.169521 351.5076 
L 661.041818 348.335325 
L 662.914116 341.776082 
L 664.786413 334.505628 
L 666.658711 328.011915 
L 668.531008 322.489177 
L 670.403306 317.902702 
L 672.275603 314.149758 
L 674.147901 311.048112 
L 676.020198 308.430248 
L 677.892496 306.182742 
L 679.764793 304.206785 
L 683.509388 300.746336 
L 702.232364 284.676061 
L 711.593851 276.292108 
L 728.444529 262.382553 
L 734.061421 258.09734 
L 739.678314 254.129785 
L 745.295207 250.483216 
L 750.912099 247.142957 
L 756.528992 244.086255 
L 762.145884 241.286932 
L 767.762777 238.716681 
L 773.379669 236.3483 
L 777.124264 234.760771 
L 782.741157 231.939418 
L 786.485752 230.402181 
L 792.102645 228.504689 
L 801.464132 225.698457 
L 808.953322 223.535135 
L 816.442512 220.435832 
L 820.187107 219.334989 
L 827.676298 217.561486 
L 838.910083 214.89351 
L 844.526975 212.57136 
L 848.27157 211.486641 
L 853.888463 210.335755 
L 866.994545 207.775746 
L 868.866843 207.179243 
L 872.611438 205.546419 
L 874.483736 204.874201 
L 878.228331 203.941873 
L 887.589818 202.340143 
L 896.951306 200.666702 
L 898.823603 200.097176 
L 902.568198 198.403857 
L 904.440496 197.727029 
L 906.312793 197.228191 
L 910.057388 196.567412 
L 919.418876 195.124605 
L 928.780364 193.493794 
L 934.397256 190.996908 
L 936.269554 190.436267 
L 940.014149 189.780964 
L 947.503339 188.760316 
L 958.737124 186.998443 
L 960.609421 186.578072 
L 966.226314 183.97455 
L 968.098612 183.46631 
L 971.843207 182.926311 
L 977.460099 182.247901 
L 992.438479 179.974921 
L 994.310777 179.115912 
L 996.183074 178.09111 
L 998.055372 177.260937 
L 999.927669 176.726681 
L 1001.799967 176.424165 
L 1009.289157 175.62728 
L 1024.267537 173.531877 
L 1026.139835 173.027787 
L 1029.88443 170.969068 
L 1031.756727 170.252855 
L 1033.629025 169.859668 
L 1033.629025 169.859668 
" style="fill:none;stroke:#d62728;stroke-linecap:square;stroke-width:1.5;"/>
   </g>
   <g id="line2d_55">
    <path clip-path="url(#p2bd399e225)" d="M 659.169521 351.5076 
L 661.041818 348.447765 
L 662.914116 342.231426 
L 664.786413 335.216047 
L 666.658711 329.135893 
L 668.531008 324.103682 
L 670.403306 320.085633 
L 672.275603 316.956071 
L 674.147901 314.542356 
L 676.020198 312.656849 
L 677.892496 311.168994 
L 679.764793 309.983463 
L 681.637091 309.018161 
L 685.381686 307.512785 
L 689.126281 306.314859 
L 696.615471 304.229462 
L 726.572231 296.060276 
L 747.167504 289.823047 
L 758.401289 286.508982 
L 767.762777 284.042968 
L 792.102645 277.329848 
L 803.33643 274.515053 
L 814.570215 271.915152 
L 825.804 269.524559 
L 838.910083 266.982758 
L 852.016165 264.680986 
L 861.377653 263.209069 
L 889.462116 259.623617 
L 906.312793 257.421118 
L 923.163471 255.445142 
L 943.758744 253.262672 
L 954.992529 252.077935 
L 969.970909 250.091149 
L 986.821587 248.718735 
L 1033.629025 245.028014 
L 1033.629025 245.028014 
" style="fill:none;stroke:#9467bd;stroke-linecap:square;stroke-width:1.5;"/>
   </g>
   <g id="patch_8">
    <path d="M 640.446545 365.8968 
L 640.446545 49.3344 
" style="fill:none;stroke:#000000;stroke-linecap:square;stroke-linejoin:miter;stroke-width:0.8;"/>
   </g>
   <g id="patch_9">
    <path d="M 1052.352 365.8968 
L 1052.352 49.3344 
" style="fill:none;stroke:#000000;stroke-linecap:square;stroke-linejoin:miter;stroke-width:0.8;"/>
   </g>
   <g id="patch_10">
    <path d="M 640.446545 365.8968 
L 1052.352 365.8968 
" style="fill:none;stroke:#000000;stroke-linecap:square;stroke-linejoin:miter;stroke-width:0.8;"/>
   </g>
   <g id="patch_11">
    <path d="M 640.446545 49.3344 
L 1052.352 49.3344 
" style="fill:none;stroke:#000000;stroke-linecap:square;stroke-linejoin:miter;stroke-width:0.8;"/>
   </g>
   <g id="legend_1">
    <g id="patch_12">
     <path d="M 809.641687 356.8968 
L 1039.752 356.8968 
Q 1043.352 356.8968 1043.352 353.2968 
L 1043.352 222.993675 
Q 1043.352 219.393675 1039.752 219.393675 
L 809.641687 219.393675 
Q 806.041687 219.393675 806.041687 222.993675 
L 806.041687 353.2968 
Q 806.041687 356.8968 809.641687 356.8968 
z
" style="fill:#ffffff;opacity:0.8;stroke:#cccccc;stroke-linejoin:miter;"/>
    </g>
    <g id="line2d_56">
     <path d="M 813.241687 233.970863 
L 849.241687 233.970863 
" style="fill:none;stroke:#1f77b4;stroke-linecap:square;stroke-width:1.5;"/>
    </g>
    <g id="line2d_57"/>
    <g id="text_29">
     <!-- 100% muscle force -->
     <g transform="translate(863.641687 240.270863)scale(0.18 -0.18)">
      <defs>
       <path d="M 4653 2053 
Q 4381 2053 4226 1822 
Q 4072 1591 4072 1178 
Q 4072 772 4226 539 
Q 4381 306 4653 306 
Q 4919 306 5073 539 
Q 5228 772 5228 1178 
Q 5228 1588 5073 1820 
Q 4919 2053 4653 2053 
z
M 4653 2450 
Q 5147 2450 5437 2106 
Q 5728 1763 5728 1178 
Q 5728 594 5436 251 
Q 5144 -91 4653 -91 
Q 4153 -91 3862 251 
Q 3572 594 3572 1178 
Q 3572 1766 3864 2108 
Q 4156 2450 4653 2450 
z
M 1428 4353 
Q 1159 4353 1004 4120 
Q 850 3888 850 3481 
Q 850 3069 1003 2837 
Q 1156 2606 1428 2606 
Q 1700 2606 1854 2837 
Q 2009 3069 2009 3481 
Q 2009 3884 1853 4118 
Q 1697 4353 1428 4353 
z
M 4250 4750 
L 4750 4750 
L 1831 -91 
L 1331 -91 
L 4250 4750 
z
M 1428 4750 
Q 1922 4750 2215 4408 
Q 2509 4066 2509 3481 
Q 2509 2891 2217 2550 
Q 1925 2209 1428 2209 
Q 931 2209 642 2551 
Q 353 2894 353 3481 
Q 353 4063 643 4406 
Q 934 4750 1428 4750 
z
" id="DejaVuSans-25" transform="scale(0.015625)"/>
      </defs>
      <use xlink:href="#DejaVuSans-31"/>
      <use x="63.623047" xlink:href="#DejaVuSans-30"/>
      <use x="127.246094" xlink:href="#DejaVuSans-30"/>
      <use x="190.869141" xlink:href="#DejaVuSans-25"/>
      <use x="285.888672" xlink:href="#DejaVuSans-20"/>
      <use x="317.675781" xlink:href="#DejaVuSans-6d"/>
      <use x="415.087891" xlink:href="#DejaVuSans-75"/>
      <use x="478.466797" xlink:href="#DejaVuSans-73"/>
      <use x="530.566406" xlink:href="#DejaVuSans-63"/>
      <use x="585.546875" xlink:href="#DejaVuSans-6c"/>
      <use x="613.330078" xlink:href="#DejaVuSans-65"/>
      <use x="674.853516" xlink:href="#DejaVuSans-20"/>
      <use x="706.640625" xlink:href="#DejaVuSans-66"/>
      <use x="741.845703" xlink:href="#DejaVuSans-6f"/>
      <use x="803.027344" xlink:href="#DejaVuSans-72"/>
      <use x="841.890625" xlink:href="#DejaVuSans-63"/>
      <use x="896.871094" xlink:href="#DejaVuSans-65"/>
     </g>
    </g>
    <g id="line2d_58">
     <path d="M 813.241687 260.391487 
L 849.241687 260.391487 
" style="fill:none;stroke:#ff7f0e;stroke-linecap:square;stroke-width:1.5;"/>
    </g>
    <g id="line2d_59"/>
    <g id="text_30">
     <!-- 50% muscle force -->
     <g transform="translate(863.641687 266.691487)scale(0.18 -0.18)">
      <use xlink:href="#DejaVuSans-35"/>
      <use x="63.623047" xlink:href="#DejaVuSans-30"/>
      <use x="127.246094" xlink:href="#DejaVuSans-25"/>
      <use x="222.265625" xlink:href="#DejaVuSans-20"/>
      <use x="254.052734" xlink:href="#DejaVuSans-6d"/>
      <use x="351.464844" xlink:href="#DejaVuSans-75"/>
      <use x="414.84375" xlink:href="#DejaVuSans-73"/>
      <use x="466.943359" xlink:href="#DejaVuSans-63"/>
      <use x="521.923828" xlink:href="#DejaVuSans-6c"/>
      <use x="549.707031" xlink:href="#DejaVuSans-65"/>
      <use x="611.230469" xlink:href="#DejaVuSans-20"/>
      <use x="643.017578" xlink:href="#DejaVuSans-66"/>
      <use x="678.222656" xlink:href="#DejaVuSans-6f"/>
      <use x="739.404297" xlink:href="#DejaVuSans-72"/>
      <use x="778.267578" xlink:href="#DejaVuSans-63"/>
      <use x="833.248047" xlink:href="#DejaVuSans-65"/>
     </g>
    </g>
    <g id="line2d_60">
     <path d="M 813.241687 286.812113 
L 849.241687 286.812113 
" style="fill:none;stroke:#2ca02c;stroke-linecap:square;stroke-width:1.5;"/>
    </g>
    <g id="line2d_61"/>
    <g id="text_31">
     <!-- 10% muscle force -->
     <g transform="translate(863.641687 293.112113)scale(0.18 -0.18)">
      <use xlink:href="#DejaVuSans-31"/>
      <use x="63.623047" xlink:href="#DejaVuSans-30"/>
      <use x="127.246094" xlink:href="#DejaVuSans-25"/>
      <use x="222.265625" xlink:href="#DejaVuSans-20"/>
      <use x="254.052734" xlink:href="#DejaVuSans-6d"/>
      <use x="351.464844" xlink:href="#DejaVuSans-75"/>
      <use x="414.84375" xlink:href="#DejaVuSans-73"/>
      <use x="466.943359" xlink:href="#DejaVuSans-63"/>
      <use x="521.923828" xlink:href="#DejaVuSans-6c"/>
      <use x="549.707031" xlink:href="#DejaVuSans-65"/>
      <use x="611.230469" xlink:href="#DejaVuSans-20"/>
      <use x="643.017578" xlink:href="#DejaVuSans-66"/>
      <use x="678.222656" xlink:href="#DejaVuSans-6f"/>
      <use x="739.404297" xlink:href="#DejaVuSans-72"/>
      <use x="778.267578" xlink:href="#DejaVuSans-63"/>
      <use x="833.248047" xlink:href="#DejaVuSans-65"/>
     </g>
    </g>
    <g id="line2d_62">
     <path d="M 813.241687 313.232737 
L 849.241687 313.232737 
" style="fill:none;stroke:#d62728;stroke-linecap:square;stroke-width:1.5;"/>
    </g>
    <g id="line2d_63"/>
    <g id="text_32">
     <!-- 5% muscle force -->
     <g transform="translate(863.641687 319.532737)scale(0.18 -0.18)">
      <use xlink:href="#DejaVuSans-35"/>
      <use x="63.623047" xlink:href="#DejaVuSans-25"/>
      <use x="158.642578" xlink:href="#DejaVuSans-20"/>
      <use x="190.429688" xlink:href="#DejaVuSans-6d"/>
      <use x="287.841797" xlink:href="#DejaVuSans-75"/>
      <use x="351.220703" xlink:href="#DejaVuSans-73"/>
      <use x="403.320312" xlink:href="#DejaVuSans-63"/>
      <use x="458.300781" xlink:href="#DejaVuSans-6c"/>
      <use x="486.083984" xlink:href="#DejaVuSans-65"/>
      <use x="547.607422" xlink:href="#DejaVuSans-20"/>
      <use x="579.394531" xlink:href="#DejaVuSans-66"/>
      <use x="614.599609" xlink:href="#DejaVuSans-6f"/>
      <use x="675.78125" xlink:href="#DejaVuSans-72"/>
      <use x="714.644531" xlink:href="#DejaVuSans-63"/>
      <use x="769.625" xlink:href="#DejaVuSans-65"/>
     </g>
    </g>
    <g id="line2d_64">
     <path d="M 813.241687 339.653363 
L 849.241687 339.653363 
" style="fill:none;stroke:#9467bd;stroke-linecap:square;stroke-width:1.5;"/>
    </g>
    <g id="line2d_65"/>
    <g id="text_33">
     <!-- 1% muscle force -->
     <g transform="translate(863.641687 345.953363)scale(0.18 -0.18)">
      <use xlink:href="#DejaVuSans-31"/>
      <use x="63.623047" xlink:href="#DejaVuSans-25"/>
      <use x="158.642578" xlink:href="#DejaVuSans-20"/>
      <use x="190.429688" xlink:href="#DejaVuSans-6d"/>
      <use x="287.841797" xlink:href="#DejaVuSans-75"/>
      <use x="351.220703" xlink:href="#DejaVuSans-73"/>
      <use x="403.320312" xlink:href="#DejaVuSans-63"/>
      <use x="458.300781" xlink:href="#DejaVuSans-6c"/>
      <use x="486.083984" xlink:href="#DejaVuSans-65"/>
      <use x="547.607422" xlink:href="#DejaVuSans-20"/>
      <use x="579.394531" xlink:href="#DejaVuSans-66"/>
      <use x="614.599609" xlink:href="#DejaVuSans-6f"/>
      <use x="675.78125" xlink:href="#DejaVuSans-72"/>
      <use x="714.644531" xlink:href="#DejaVuSans-63"/>
      <use x="769.625" xlink:href="#DejaVuSans-65"/>
     </g>
    </g>
   </g>
  </g>
 </g>
 <defs>
  <clipPath id="p19bb742f8b">
   <rect height="316.5624" width="411.905455" x="146.16" y="49.3344"/>
  </clipPath>
  <clipPath id="p2bd399e225">
   <rect height="316.5624" width="411.905455" x="640.446545" y="49.3344"/>
  </clipPath>
 </defs>
</svg>
