<?xml version="1.0" encoding="utf-8" standalone="no"?>
<!DOCTYPE svg PUBLIC "-//W3C//DTD SVG 1.1//EN"
  "http://www.w3.org/Graphics/SVG/1.1/DTD/svg11.dtd">
<svg height="451.44pt" version="1.1" viewBox="0 0 1129.68 451.44" width="1129.68pt" xmlns="http://www.w3.org/2000/svg" xmlns:xlink="http://www.w3.org/1999/xlink">
 <metadata>
  <rdf:RDF xmlns:cc="http://creativecommons.org/ns#" xmlns:dc="http://purl.org/dc/elements/1.1/" xmlns:rdf="http://www.w3.org/1999/02/22-rdf-syntax-ns#">
   <cc:Work>
    <dc:type rdf:resource="http://purl.org/dc/dcmitype/StillImage"/>
    <dc:date>2021-05-06T17:33:55.171050</dc:date>
    <dc:format>image/svg+xml</dc:format>
    <dc:creator>
     <cc:Agent>
      <dc:title>Matplotlib v3.4.1, https://matplotlib.org/</dc:title>
     </cc:Agent>
    </dc:creator>
   </cc:Work>
  </rdf:RDF>
 </metadata>
 <defs>
  <style type="text/css">*{stroke-linecap:butt;stroke-linejoin:round;}</style>
 </defs>
 <g id="figure_1">
  <g id="patch_1">
   <path d="M 0 451.44 
L 1129.68 451.44 
L 1129.68 0 
L 0 0 
z
" style="fill:#ffffff;"/>
  </g>
  <g id="axes_1">
   <g id="patch_2">
    <path d="M 141.21 401.7816 
L 539.165455 401.7816 
L 539.165455 54.1728 
L 141.21 54.1728 
z
" style="fill:#ffffff;"/>
   </g>
   <g id="matplotlib.axis_1">
    <g id="xtick_1">
     <g id="line2d_1">
      <defs>
       <path d="M 0 0 
L 0 3.5 
" id="m2c798910f4" style="stroke:#000000;stroke-width:0.8;"/>
      </defs>
      <g>
       <use style="stroke:#000000;stroke-width:0.8;" x="159.298884" xlink:href="#m2c798910f4" y="401.7816"/>
      </g>
     </g>
     <g id="text_1">
      <!-- 0 -->
      <g transform="translate(154.845134 419.419412)scale(0.14 -0.14)">
       <defs>
        <path d="M 2034 4250 
Q 1547 4250 1301 3770 
Q 1056 3291 1056 2328 
Q 1056 1369 1301 889 
Q 1547 409 2034 409 
Q 2525 409 2770 889 
Q 3016 1369 3016 2328 
Q 3016 3291 2770 3770 
Q 2525 4250 2034 4250 
z
M 2034 4750 
Q 2819 4750 3233 4129 
Q 3647 3509 3647 2328 
Q 3647 1150 3233 529 
Q 2819 -91 2034 -91 
Q 1250 -91 836 529 
Q 422 1150 422 2328 
Q 422 3509 836 4129 
Q 1250 4750 2034 4750 
z
" id="DejaVuSans-30" transform="scale(0.015625)"/>
       </defs>
       <use xlink:href="#DejaVuSans-30"/>
      </g>
     </g>
    </g>
    <g id="xtick_2">
     <g id="line2d_2">
      <g>
       <use style="stroke:#000000;stroke-width:0.8;" x="231.726849" xlink:href="#m2c798910f4" y="401.7816"/>
      </g>
     </g>
     <g id="text_2">
      <!-- 1 -->
      <g transform="translate(227.273099 419.419412)scale(0.14 -0.14)">
       <defs>
        <path d="M 794 531 
L 1825 531 
L 1825 4091 
L 703 3866 
L 703 4441 
L 1819 4666 
L 2450 4666 
L 2450 531 
L 3481 531 
L 3481 0 
L 794 0 
L 794 531 
z
" id="DejaVuSans-31" transform="scale(0.015625)"/>
       </defs>
       <use xlink:href="#DejaVuSans-31"/>
      </g>
     </g>
    </g>
    <g id="xtick_3">
     <g id="line2d_3">
      <g>
       <use style="stroke:#000000;stroke-width:0.8;" x="304.154815" xlink:href="#m2c798910f4" y="401.7816"/>
      </g>
     </g>
     <g id="text_3">
      <!-- 2 -->
      <g transform="translate(299.701065 419.419412)scale(0.14 -0.14)">
       <defs>
        <path d="M 1228 531 
L 3431 531 
L 3431 0 
L 469 0 
L 469 531 
Q 828 903 1448 1529 
Q 2069 2156 2228 2338 
Q 2531 2678 2651 2914 
Q 2772 3150 2772 3378 
Q 2772 3750 2511 3984 
Q 2250 4219 1831 4219 
Q 1534 4219 1204 4116 
Q 875 4013 500 3803 
L 500 4441 
Q 881 4594 1212 4672 
Q 1544 4750 1819 4750 
Q 2544 4750 2975 4387 
Q 3406 4025 3406 3419 
Q 3406 3131 3298 2873 
Q 3191 2616 2906 2266 
Q 2828 2175 2409 1742 
Q 1991 1309 1228 531 
z
" id="DejaVuSans-32" transform="scale(0.015625)"/>
       </defs>
       <use xlink:href="#DejaVuSans-32"/>
      </g>
     </g>
    </g>
    <g id="xtick_4">
     <g id="line2d_4">
      <g>
       <use style="stroke:#000000;stroke-width:0.8;" x="376.58278" xlink:href="#m2c798910f4" y="401.7816"/>
      </g>
     </g>
     <g id="text_4">
      <!-- 3 -->
      <g transform="translate(372.12903 419.419412)scale(0.14 -0.14)">
       <defs>
        <path d="M 2597 2516 
Q 3050 2419 3304 2112 
Q 3559 1806 3559 1356 
Q 3559 666 3084 287 
Q 2609 -91 1734 -91 
Q 1441 -91 1130 -33 
Q 819 25 488 141 
L 488 750 
Q 750 597 1062 519 
Q 1375 441 1716 441 
Q 2309 441 2620 675 
Q 2931 909 2931 1356 
Q 2931 1769 2642 2001 
Q 2353 2234 1838 2234 
L 1294 2234 
L 1294 2753 
L 1863 2753 
Q 2328 2753 2575 2939 
Q 2822 3125 2822 3475 
Q 2822 3834 2567 4026 
Q 2313 4219 1838 4219 
Q 1578 4219 1281 4162 
Q 984 4106 628 3988 
L 628 4550 
Q 988 4650 1302 4700 
Q 1616 4750 1894 4750 
Q 2613 4750 3031 4423 
Q 3450 4097 3450 3541 
Q 3450 3153 3228 2886 
Q 3006 2619 2597 2516 
z
" id="DejaVuSans-33" transform="scale(0.015625)"/>
       </defs>
       <use xlink:href="#DejaVuSans-33"/>
      </g>
     </g>
    </g>
    <g id="xtick_5">
     <g id="line2d_5">
      <g>
       <use style="stroke:#000000;stroke-width:0.8;" x="449.010745" xlink:href="#m2c798910f4" y="401.7816"/>
      </g>
     </g>
     <g id="text_5">
      <!-- 4 -->
      <g transform="translate(444.556995 419.419412)scale(0.14 -0.14)">
       <defs>
        <path d="M 2419 4116 
L 825 1625 
L 2419 1625 
L 2419 4116 
z
M 2253 4666 
L 3047 4666 
L 3047 1625 
L 3713 1625 
L 3713 1100 
L 3047 1100 
L 3047 0 
L 2419 0 
L 2419 1100 
L 313 1100 
L 313 1709 
L 2253 4666 
z
" id="DejaVuSans-34" transform="scale(0.015625)"/>
       </defs>
       <use xlink:href="#DejaVuSans-34"/>
      </g>
     </g>
    </g>
    <g id="xtick_6">
     <g id="line2d_6">
      <g>
       <use style="stroke:#000000;stroke-width:0.8;" x="521.43871" xlink:href="#m2c798910f4" y="401.7816"/>
      </g>
     </g>
     <g id="text_6">
      <!-- 5 -->
      <g transform="translate(516.98496 419.419412)scale(0.14 -0.14)">
       <defs>
        <path d="M 691 4666 
L 3169 4666 
L 3169 4134 
L 1269 4134 
L 1269 2991 
Q 1406 3038 1543 3061 
Q 1681 3084 1819 3084 
Q 2600 3084 3056 2656 
Q 3513 2228 3513 1497 
Q 3513 744 3044 326 
Q 2575 -91 1722 -91 
Q 1428 -91 1123 -41 
Q 819 9 494 109 
L 494 744 
Q 775 591 1075 516 
Q 1375 441 1709 441 
Q 2250 441 2565 725 
Q 2881 1009 2881 1497 
Q 2881 1984 2565 2268 
Q 2250 2553 1709 2553 
Q 1456 2553 1204 2497 
Q 953 2441 691 2322 
L 691 4666 
z
" id="DejaVuSans-35" transform="scale(0.015625)"/>
       </defs>
       <use xlink:href="#DejaVuSans-35"/>
      </g>
     </g>
    </g>
    <g id="text_7">
     <!-- Time (s) -->
     <g transform="translate(311.727259 436.968787)scale(0.14 -0.14)">
      <defs>
       <path d="M -19 4666 
L 3928 4666 
L 3928 4134 
L 2272 4134 
L 2272 0 
L 1638 0 
L 1638 4134 
L -19 4134 
L -19 4666 
z
" id="DejaVuSans-54" transform="scale(0.015625)"/>
       <path d="M 603 3500 
L 1178 3500 
L 1178 0 
L 603 0 
L 603 3500 
z
M 603 4863 
L 1178 4863 
L 1178 4134 
L 603 4134 
L 603 4863 
z
" id="DejaVuSans-69" transform="scale(0.015625)"/>
       <path d="M 3328 2828 
Q 3544 3216 3844 3400 
Q 4144 3584 4550 3584 
Q 5097 3584 5394 3201 
Q 5691 2819 5691 2113 
L 5691 0 
L 5113 0 
L 5113 2094 
Q 5113 2597 4934 2840 
Q 4756 3084 4391 3084 
Q 3944 3084 3684 2787 
Q 3425 2491 3425 1978 
L 3425 0 
L 2847 0 
L 2847 2094 
Q 2847 2600 2669 2842 
Q 2491 3084 2119 3084 
Q 1678 3084 1418 2786 
Q 1159 2488 1159 1978 
L 1159 0 
L 581 0 
L 581 3500 
L 1159 3500 
L 1159 2956 
Q 1356 3278 1631 3431 
Q 1906 3584 2284 3584 
Q 2666 3584 2933 3390 
Q 3200 3197 3328 2828 
z
" id="DejaVuSans-6d" transform="scale(0.015625)"/>
       <path d="M 3597 1894 
L 3597 1613 
L 953 1613 
Q 991 1019 1311 708 
Q 1631 397 2203 397 
Q 2534 397 2845 478 
Q 3156 559 3463 722 
L 3463 178 
Q 3153 47 2828 -22 
Q 2503 -91 2169 -91 
Q 1331 -91 842 396 
Q 353 884 353 1716 
Q 353 2575 817 3079 
Q 1281 3584 2069 3584 
Q 2775 3584 3186 3129 
Q 3597 2675 3597 1894 
z
M 3022 2063 
Q 3016 2534 2758 2815 
Q 2500 3097 2075 3097 
Q 1594 3097 1305 2825 
Q 1016 2553 972 2059 
L 3022 2063 
z
" id="DejaVuSans-65" transform="scale(0.015625)"/>
       <path id="DejaVuSans-20" transform="scale(0.015625)"/>
       <path d="M 1984 4856 
Q 1566 4138 1362 3434 
Q 1159 2731 1159 2009 
Q 1159 1288 1364 580 
Q 1569 -128 1984 -844 
L 1484 -844 
Q 1016 -109 783 600 
Q 550 1309 550 2009 
Q 550 2706 781 3412 
Q 1013 4119 1484 4856 
L 1984 4856 
z
" id="DejaVuSans-28" transform="scale(0.015625)"/>
       <path d="M 2834 3397 
L 2834 2853 
Q 2591 2978 2328 3040 
Q 2066 3103 1784 3103 
Q 1356 3103 1142 2972 
Q 928 2841 928 2578 
Q 928 2378 1081 2264 
Q 1234 2150 1697 2047 
L 1894 2003 
Q 2506 1872 2764 1633 
Q 3022 1394 3022 966 
Q 3022 478 2636 193 
Q 2250 -91 1575 -91 
Q 1294 -91 989 -36 
Q 684 19 347 128 
L 347 722 
Q 666 556 975 473 
Q 1284 391 1588 391 
Q 1994 391 2212 530 
Q 2431 669 2431 922 
Q 2431 1156 2273 1281 
Q 2116 1406 1581 1522 
L 1381 1569 
Q 847 1681 609 1914 
Q 372 2147 372 2553 
Q 372 3047 722 3315 
Q 1072 3584 1716 3584 
Q 2034 3584 2315 3537 
Q 2597 3491 2834 3397 
z
" id="DejaVuSans-73" transform="scale(0.015625)"/>
       <path d="M 513 4856 
L 1013 4856 
Q 1481 4119 1714 3412 
Q 1947 2706 1947 2009 
Q 1947 1309 1714 600 
Q 1481 -109 1013 -844 
L 513 -844 
Q 928 -128 1133 580 
Q 1338 1288 1338 2009 
Q 1338 2731 1133 3434 
Q 928 4138 513 4856 
z
" id="DejaVuSans-29" transform="scale(0.015625)"/>
      </defs>
      <use xlink:href="#DejaVuSans-54"/>
      <use x="57.958984" xlink:href="#DejaVuSans-69"/>
      <use x="85.742188" xlink:href="#DejaVuSans-6d"/>
      <use x="183.154297" xlink:href="#DejaVuSans-65"/>
      <use x="244.677734" xlink:href="#DejaVuSans-20"/>
      <use x="276.464844" xlink:href="#DejaVuSans-28"/>
      <use x="315.478516" xlink:href="#DejaVuSans-73"/>
      <use x="367.578125" xlink:href="#DejaVuSans-29"/>
     </g>
    </g>
   </g>
   <g id="matplotlib.axis_2">
    <g id="ytick_1">
     <g id="line2d_7">
      <defs>
       <path d="M 0 0 
L -3.5 0 
" id="m7f0f80397d" style="stroke:#000000;stroke-width:0.8;"/>
      </defs>
      <g>
       <use style="stroke:#000000;stroke-width:0.8;" x="141.21" xlink:href="#m7f0f80397d" y="385.9812"/>
      </g>
     </g>
     <g id="text_8">
      <!-- 0 -->
      <g transform="translate(125.3025 391.300106)scale(0.14 -0.14)">
       <use xlink:href="#DejaVuSans-30"/>
      </g>
     </g>
    </g>
    <g id="ytick_2">
     <g id="line2d_8">
      <g>
       <use style="stroke:#000000;stroke-width:0.8;" x="141.21" xlink:href="#m7f0f80397d" y="336.216161"/>
      </g>
     </g>
     <g id="text_9">
      <!-- 1 -->
      <g transform="translate(125.3025 341.535067)scale(0.14 -0.14)">
       <use xlink:href="#DejaVuSans-31"/>
      </g>
     </g>
    </g>
    <g id="ytick_3">
     <g id="line2d_9">
      <g>
       <use style="stroke:#000000;stroke-width:0.8;" x="141.21" xlink:href="#m7f0f80397d" y="286.451121"/>
      </g>
     </g>
     <g id="text_10">
      <!-- 2 -->
      <g transform="translate(125.3025 291.770028)scale(0.14 -0.14)">
       <use xlink:href="#DejaVuSans-32"/>
      </g>
     </g>
    </g>
    <g id="ytick_4">
     <g id="line2d_10">
      <g>
       <use style="stroke:#000000;stroke-width:0.8;" x="141.21" xlink:href="#m7f0f80397d" y="236.686082"/>
      </g>
     </g>
     <g id="text_11">
      <!-- 3 -->
      <g transform="translate(125.3025 242.004988)scale(0.14 -0.14)">
       <use xlink:href="#DejaVuSans-33"/>
      </g>
     </g>
    </g>
    <g id="ytick_5">
     <g id="line2d_11">
      <g>
       <use style="stroke:#000000;stroke-width:0.8;" x="141.21" xlink:href="#m7f0f80397d" y="186.921043"/>
      </g>
     </g>
     <g id="text_12">
      <!-- 4 -->
      <g transform="translate(125.3025 192.239949)scale(0.14 -0.14)">
       <use xlink:href="#DejaVuSans-34"/>
      </g>
     </g>
    </g>
    <g id="ytick_6">
     <g id="line2d_12">
      <g>
       <use style="stroke:#000000;stroke-width:0.8;" x="141.21" xlink:href="#m7f0f80397d" y="137.156003"/>
      </g>
     </g>
     <g id="text_13">
      <!-- 5 -->
      <g transform="translate(125.3025 142.474909)scale(0.14 -0.14)">
       <use xlink:href="#DejaVuSans-35"/>
      </g>
     </g>
    </g>
    <g id="ytick_7">
     <g id="line2d_13">
      <g>
       <use style="stroke:#000000;stroke-width:0.8;" x="141.21" xlink:href="#m7f0f80397d" y="87.390964"/>
      </g>
     </g>
     <g id="text_14">
      <!-- 6 -->
      <g transform="translate(125.3025 92.70987)scale(0.14 -0.14)">
       <defs>
        <path d="M 2113 2584 
Q 1688 2584 1439 2293 
Q 1191 2003 1191 1497 
Q 1191 994 1439 701 
Q 1688 409 2113 409 
Q 2538 409 2786 701 
Q 3034 994 3034 1497 
Q 3034 2003 2786 2293 
Q 2538 2584 2113 2584 
z
M 3366 4563 
L 3366 3988 
Q 3128 4100 2886 4159 
Q 2644 4219 2406 4219 
Q 1781 4219 1451 3797 
Q 1122 3375 1075 2522 
Q 1259 2794 1537 2939 
Q 1816 3084 2150 3084 
Q 2853 3084 3261 2657 
Q 3669 2231 3669 1497 
Q 3669 778 3244 343 
Q 2819 -91 2113 -91 
Q 1303 -91 875 529 
Q 447 1150 447 2328 
Q 447 3434 972 4092 
Q 1497 4750 2381 4750 
Q 2619 4750 2861 4703 
Q 3103 4656 3366 4563 
z
" id="DejaVuSans-36" transform="scale(0.015625)"/>
       </defs>
       <use xlink:href="#DejaVuSans-36"/>
      </g>
     </g>
    </g>
    <g id="text_15">
     <!-- Force (N) -->
     <g transform="translate(118.390938 259.832669)rotate(-90)scale(0.14 -0.14)">
      <defs>
       <path d="M 628 4666 
L 3309 4666 
L 3309 4134 
L 1259 4134 
L 1259 2759 
L 3109 2759 
L 3109 2228 
L 1259 2228 
L 1259 0 
L 628 0 
L 628 4666 
z
" id="DejaVuSans-46" transform="scale(0.015625)"/>
       <path d="M 1959 3097 
Q 1497 3097 1228 2736 
Q 959 2375 959 1747 
Q 959 1119 1226 758 
Q 1494 397 1959 397 
Q 2419 397 2687 759 
Q 2956 1122 2956 1747 
Q 2956 2369 2687 2733 
Q 2419 3097 1959 3097 
z
M 1959 3584 
Q 2709 3584 3137 3096 
Q 3566 2609 3566 1747 
Q 3566 888 3137 398 
Q 2709 -91 1959 -91 
Q 1206 -91 779 398 
Q 353 888 353 1747 
Q 353 2609 779 3096 
Q 1206 3584 1959 3584 
z
" id="DejaVuSans-6f" transform="scale(0.015625)"/>
       <path d="M 2631 2963 
Q 2534 3019 2420 3045 
Q 2306 3072 2169 3072 
Q 1681 3072 1420 2755 
Q 1159 2438 1159 1844 
L 1159 0 
L 581 0 
L 581 3500 
L 1159 3500 
L 1159 2956 
Q 1341 3275 1631 3429 
Q 1922 3584 2338 3584 
Q 2397 3584 2469 3576 
Q 2541 3569 2628 3553 
L 2631 2963 
z
" id="DejaVuSans-72" transform="scale(0.015625)"/>
       <path d="M 3122 3366 
L 3122 2828 
Q 2878 2963 2633 3030 
Q 2388 3097 2138 3097 
Q 1578 3097 1268 2742 
Q 959 2388 959 1747 
Q 959 1106 1268 751 
Q 1578 397 2138 397 
Q 2388 397 2633 464 
Q 2878 531 3122 666 
L 3122 134 
Q 2881 22 2623 -34 
Q 2366 -91 2075 -91 
Q 1284 -91 818 406 
Q 353 903 353 1747 
Q 353 2603 823 3093 
Q 1294 3584 2113 3584 
Q 2378 3584 2631 3529 
Q 2884 3475 3122 3366 
z
" id="DejaVuSans-63" transform="scale(0.015625)"/>
       <path d="M 628 4666 
L 1478 4666 
L 3547 763 
L 3547 4666 
L 4159 4666 
L 4159 0 
L 3309 0 
L 1241 3903 
L 1241 0 
L 628 0 
L 628 4666 
z
" id="DejaVuSans-4e" transform="scale(0.015625)"/>
      </defs>
      <use xlink:href="#DejaVuSans-46"/>
      <use x="53.894531" xlink:href="#DejaVuSans-6f"/>
      <use x="115.076172" xlink:href="#DejaVuSans-72"/>
      <use x="153.939453" xlink:href="#DejaVuSans-63"/>
      <use x="208.919922" xlink:href="#DejaVuSans-65"/>
      <use x="270.443359" xlink:href="#DejaVuSans-20"/>
      <use x="302.230469" xlink:href="#DejaVuSans-28"/>
      <use x="341.244141" xlink:href="#DejaVuSans-4e"/>
      <use x="416.048828" xlink:href="#DejaVuSans-29"/>
     </g>
    </g>
   </g>
   <g id="line2d_14">
    <path clip-path="url(#p7b39b357ac)" d="M 159.298884 385.9812 
L 160.747444 385.9812 
L 161.109583 383.492948 
L 161.471723 383.492948 
L 161.833863 381.004696 
L 162.196003 381.004696 
L 162.558143 378.516444 
L 163.282422 378.516444 
L 165.455261 363.586932 
L 166.179541 363.586932 
L 167.6281 353.633924 
L 168.35238 353.633924 
L 168.71452 351.145672 
L 169.07666 351.145672 
L 169.438799 348.65742 
L 169.800939 348.65742 
L 170.163079 346.169169 
L 170.887359 351.145672 
L 171.249499 351.145672 
L 171.611638 353.633924 
L 171.973778 353.633924 
L 173.060198 361.09868 
L 173.422338 361.09868 
L 173.784477 363.586932 
L 174.146617 363.586932 
L 174.508757 366.075184 
L 175.595176 358.610428 
L 175.957316 358.610428 
L 176.319456 356.122176 
L 176.681596 356.122176 
L 177.043736 351.145672 
L 177.768015 351.145672 
L 178.130155 348.65742 
L 178.492295 348.65742 
L 178.854435 346.169169 
L 179.216575 346.169169 
L 179.578715 343.680917 
L 179.940854 343.680917 
L 180.302994 341.192665 
L 181.027274 346.169169 
L 181.389414 346.169169 
L 182.113693 351.145672 
L 182.837973 351.145672 
L 183.200113 353.633924 
L 183.562253 353.633924 
L 183.924392 356.122176 
L 184.286532 356.122176 
L 185.735092 346.169169 
L 186.459371 346.169169 
L 186.821511 343.680917 
L 187.183651 343.680917 
L 187.545791 341.192665 
L 187.907931 341.192665 
L 188.27007 338.704413 
L 188.63221 338.704413 
L 189.71863 331.239657 
L 190.080769 331.239657 
L 190.442909 328.751405 
L 190.805049 328.751405 
L 191.167189 326.263153 
L 191.529329 326.263153 
L 191.891469 323.774901 
L 192.253608 323.774901 
L 192.615748 326.263153 
L 192.977888 326.263153 
L 194.064308 333.727909 
L 194.426447 333.727909 
L 194.788587 331.239657 
L 195.150727 331.239657 
L 195.512867 328.751405 
L 195.875007 328.751405 
L 196.237147 326.263153 
L 196.599286 326.263153 
L 196.961426 323.774901 
L 197.323566 323.774901 
L 197.685706 321.286649 
L 198.047846 321.286649 
L 198.409985 318.798397 
L 198.772125 318.798397 
L 199.134265 316.310145 
L 199.496405 316.310145 
L 200.220685 311.333641 
L 200.582824 311.333641 
L 201.307104 306.357137 
L 201.669244 306.357137 
L 202.031384 308.845389 
L 202.393524 308.845389 
L 202.755663 311.333641 
L 203.117803 311.333641 
L 203.479943 313.821893 
L 203.842083 313.821893 
L 204.204223 316.310145 
L 204.566363 316.310145 
L 204.928502 318.798397 
L 205.290642 318.798397 
L 205.652782 321.286649 
L 206.014922 321.286649 
L 206.377062 318.798397 
L 206.739201 318.798397 
L 207.101341 316.310145 
L 207.463481 316.310145 
L 207.825621 313.821893 
L 208.187761 313.821893 
L 208.549901 311.333641 
L 208.91204 311.333641 
L 209.99846 303.868885 
L 210.3606 303.868885 
L 210.72274 301.380633 
L 211.084879 301.380633 
L 211.447019 298.892381 
L 211.809159 298.892381 
L 212.171299 296.404129 
L 212.533439 296.404129 
L 212.895579 298.892381 
L 213.257718 298.892381 
L 213.619858 301.380633 
L 213.981998 301.380633 
L 214.344138 303.868885 
L 214.706278 303.868885 
L 215.068417 306.357137 
L 215.430557 306.357137 
L 215.792697 308.845389 
L 216.154837 308.845389 
L 216.516977 311.333641 
L 216.879117 311.333641 
L 217.241256 308.845389 
L 217.603396 308.845389 
L 217.965536 306.357137 
L 218.327676 306.357137 
L 219.414095 298.892381 
L 219.776235 298.892381 
L 220.138375 296.404129 
L 220.500515 296.404129 
L 220.862655 293.915877 
L 221.224795 293.915877 
L 221.949074 288.939373 
L 222.673354 288.939373 
L 223.035494 286.451121 
L 223.397633 286.451121 
L 223.759773 288.939373 
L 224.121913 288.939373 
L 224.484053 291.427625 
L 224.846193 291.427625 
L 225.208333 293.915877 
L 225.570472 293.915877 
L 225.932612 296.404129 
L 226.294752 296.404129 
L 226.656892 298.892381 
L 227.019032 298.892381 
L 227.381172 301.380633 
L 228.105451 296.404129 
L 228.467591 296.404129 
L 228.829731 293.915877 
L 229.191871 293.915877 
L 229.55401 291.427625 
L 229.91615 291.427625 
L 230.27829 288.939373 
L 230.64043 288.939373 
L 231.00257 286.451121 
L 231.36471 286.451121 
L 231.726849 283.962869 
L 232.088989 283.962869 
L 232.451129 281.474617 
L 232.813269 281.474617 
L 233.175409 278.986365 
L 233.537549 278.986365 
L 233.899688 276.498113 
L 234.261828 276.498113 
L 234.623968 278.986365 
L 234.986108 278.986365 
L 235.348248 281.474617 
L 235.710388 281.474617 
L 236.072527 283.962869 
L 236.434667 283.962869 
L 236.796807 286.451121 
L 237.158947 286.451121 
L 237.521087 288.939373 
L 237.883226 288.939373 
L 238.245366 291.427625 
L 238.607506 291.427625 
L 238.969646 288.939373 
L 239.331786 288.939373 
L 239.693926 286.451121 
L 240.056065 286.451121 
L 240.418205 283.962869 
L 240.780345 283.962869 
L 241.866765 276.498113 
L 242.228904 276.498113 
L 242.591044 274.009861 
L 242.953184 274.009861 
L 243.315324 271.521609 
L 243.677464 271.521609 
L 244.039604 269.033357 
L 244.401743 269.033357 
L 244.763883 266.545106 
L 245.126023 269.033357 
L 245.850303 269.033357 
L 246.212442 271.521609 
L 246.574582 271.521609 
L 246.936722 274.009861 
L 247.298862 274.009861 
L 247.661002 276.498113 
L 248.023142 276.498113 
L 248.385281 278.986365 
L 248.747421 278.986365 
L 249.109561 281.474617 
L 249.471701 281.474617 
L 249.833841 283.962869 
L 250.195981 283.962869 
L 250.55812 281.474617 
L 250.92026 281.474617 
L 251.2824 278.986365 
L 251.64454 278.986365 
L 252.00668 276.498113 
L 252.36882 276.498113 
L 252.730959 274.009861 
L 253.093099 274.009861 
L 253.455239 271.521609 
L 253.817379 271.521609 
L 254.179519 269.033357 
L 254.541658 269.033357 
L 254.903798 266.545106 
L 255.265938 266.545106 
L 255.990218 261.568602 
L 256.352358 261.568602 
L 256.714497 259.08035 
L 257.076637 259.08035 
L 257.438777 261.568602 
L 258.163057 261.568602 
L 259.249476 269.033357 
L 259.611616 269.033357 
L 259.973756 271.521609 
L 260.335896 271.521609 
L 260.698036 274.009861 
L 261.060175 274.009861 
L 261.422315 276.498113 
L 261.784455 276.498113 
L 262.146595 274.009861 
L 262.508735 274.009861 
L 262.870874 271.521609 
L 263.233014 271.521609 
L 263.595154 269.033357 
L 263.957294 269.033357 
L 264.319434 266.545106 
L 264.681574 266.545106 
L 265.043713 264.056854 
L 265.405853 264.056854 
L 265.767993 261.568602 
L 266.130133 261.568602 
L 266.492273 259.08035 
L 266.854413 259.08035 
L 267.216552 256.592098 
L 267.578692 256.592098 
L 267.940832 254.103846 
L 268.302972 254.103846 
L 268.665112 251.615594 
L 269.027252 251.615594 
L 269.389391 254.103846 
L 269.751531 254.103846 
L 270.113671 256.592098 
L 270.475811 256.592098 
L 270.837951 259.08035 
L 271.20009 259.08035 
L 271.56223 261.568602 
L 271.92437 261.568602 
L 272.28651 264.056854 
L 272.64865 264.056854 
L 273.01079 266.545106 
L 273.372929 266.545106 
L 273.735069 264.056854 
L 274.097209 264.056854 
L 274.459349 261.568602 
L 274.821489 261.568602 
L 275.183629 259.08035 
L 275.545768 259.08035 
L 275.907908 256.592098 
L 276.270048 256.592098 
L 276.632188 254.103846 
L 276.994328 254.103846 
L 278.080747 246.63909 
L 278.442887 246.63909 
L 278.805027 244.150838 
L 279.167167 244.150838 
L 279.529306 241.662586 
L 279.891446 241.662586 
L 280.253586 244.150838 
L 280.615726 244.150838 
L 280.977866 246.63909 
L 281.340006 246.63909 
L 281.702145 249.127342 
L 282.064285 249.127342 
L 282.426425 251.615594 
L 282.788565 251.615594 
L 283.150705 254.103846 
L 283.512845 254.103846 
L 283.874984 256.592098 
L 284.237124 256.592098 
L 284.599264 259.08035 
L 284.961404 259.08035 
L 285.323544 256.592098 
L 285.685683 256.592098 
L 286.047823 254.103846 
L 286.409963 254.103846 
L 286.772103 251.615594 
L 287.134243 251.615594 
L 287.496383 249.127342 
L 287.858522 249.127342 
L 288.220662 246.63909 
L 288.582802 246.63909 
L 288.944942 244.150838 
L 289.307082 244.150838 
L 289.669222 241.662586 
L 290.031361 241.662586 
L 290.393501 239.174334 
L 290.755641 239.174334 
L 291.117781 236.686082 
L 291.479921 236.686082 
L 291.842061 239.174334 
L 292.2042 239.174334 
L 292.56634 241.662586 
L 292.92848 241.662586 
L 293.29062 244.150838 
L 293.65276 244.150838 
L 294.014899 246.63909 
L 294.377039 246.63909 
L 294.739179 249.127342 
L 295.101319 249.127342 
L 295.463459 251.615594 
L 295.825599 246.63909 
L 296.549878 246.63909 
L 296.912018 244.150838 
L 297.274158 244.150838 
L 297.998438 239.174334 
L 298.722717 239.174334 
L 299.084857 236.686082 
L 299.446997 236.686082 
L 299.809137 234.19783 
L 300.171277 234.19783 
L 300.533416 231.709578 
L 300.895556 231.709578 
L 301.257696 229.221326 
L 301.619836 229.221326 
L 301.981976 231.709578 
L 302.344115 231.709578 
L 302.706255 234.19783 
L 303.068395 234.19783 
L 303.430535 236.686082 
L 303.792675 236.686082 
L 304.154815 239.174334 
L 304.516954 239.174334 
L 304.879094 241.662586 
L 305.241234 241.662586 
L 305.965514 246.63909 
L 307.051933 239.174334 
L 307.414073 239.174334 
L 307.776213 236.686082 
L 308.138353 236.686082 
L 308.500493 234.19783 
L 308.862632 229.221326 
L 309.586912 229.221326 
L 310.311192 224.244822 
L 310.673331 226.733074 
L 311.035471 226.733074 
L 312.121891 234.19783 
L 312.484031 234.19783 
L 313.57045 241.662586 
L 313.93259 241.662586 
L 315.019009 234.19783 
L 315.381149 234.19783 
L 316.467569 226.733074 
L 316.829709 226.733074 
L 317.916128 219.268318 
L 318.278268 219.268318 
L 318.640408 216.780066 
L 319.364687 221.75657 
L 319.726827 221.75657 
L 320.813247 229.221326 
L 321.175386 229.221326 
L 322.261806 236.686082 
L 322.623946 236.686082 
L 322.986086 234.19783 
L 323.348225 234.19783 
L 323.710365 229.221326 
L 324.072505 229.221326 
L 324.434645 226.733074 
L 324.796785 226.733074 
L 325.883204 219.268318 
L 326.245344 219.268318 
L 326.607484 216.780066 
L 327.331763 221.75657 
L 327.693903 221.75657 
L 328.780323 229.221326 
L 329.142463 229.221326 
L 329.504602 231.709578 
L 330.228882 226.733074 
L 330.591022 226.733074 
L 332.039581 216.780066 
L 332.401721 216.780066 
L 333.85028 206.827058 
L 334.21242 209.31531 
L 334.9367 209.31531 
L 335.29884 214.291814 
L 335.660979 214.291814 
L 336.023119 216.780066 
L 336.385259 216.780066 
L 336.747399 219.268318 
L 337.109539 224.244822 
L 337.471679 224.244822 
L 337.833818 226.733074 
L 338.195958 226.733074 
L 339.282378 219.268318 
L 339.644518 219.268318 
L 340.368797 214.291814 
L 340.730937 214.291814 
L 341.455217 209.31531 
L 341.817356 209.31531 
L 342.179496 204.338806 
L 342.541636 204.338806 
L 343.265916 209.31531 
L 343.628056 209.31531 
L 343.990195 211.803562 
L 344.352335 211.803562 
L 345.800895 221.75657 
L 346.163034 221.75657 
L 346.887314 216.780066 
L 347.249454 216.780066 
L 348.698013 206.827058 
L 349.060153 206.827058 
L 349.422293 201.850554 
L 349.784433 201.850554 
L 350.146572 199.362302 
L 351.595132 199.362302 
L 352.681551 206.827058 
L 353.043691 206.827058 
L 354.130111 214.291814 
L 354.49225 214.291814 
L 354.85439 216.780066 
L 355.57867 211.803562 
L 355.94081 211.803562 
L 356.30295 209.31531 
L 356.665089 204.338806 
L 357.027229 204.338806 
L 357.389369 201.850554 
L 357.751509 201.850554 
L 358.475788 196.87405 
L 358.837928 196.87405 
L 359.200068 194.385798 
L 359.562208 194.385798 
L 359.924348 199.362302 
L 360.286488 199.362302 
L 360.648627 201.850554 
L 361.010767 201.850554 
L 361.372907 206.827058 
L 361.735047 206.827058 
L 362.097187 209.31531 
L 362.459327 209.31531 
L 362.821466 211.803562 
L 363.907886 204.338806 
L 364.270026 204.338806 
L 364.632166 199.362302 
L 365.356445 199.362302 
L 366.442865 191.897546 
L 366.805004 191.897546 
L 367.167144 189.409294 
L 367.891424 194.385798 
L 368.253564 194.385798 
L 368.615704 196.87405 
L 368.977843 201.850554 
L 369.702123 201.850554 
L 370.064263 204.338806 
L 370.426403 209.31531 
L 371.150682 209.31531 
L 371.512822 204.338806 
L 371.874962 201.850554 
L 372.237102 201.850554 
L 372.599242 199.362302 
L 372.961382 199.362302 
L 374.047801 191.897546 
L 374.409941 191.897546 
L 375.13422 186.921043 
L 375.49636 186.921043 
L 375.8585 184.432791 
L 376.58278 189.409294 
L 376.94492 189.409294 
L 377.307059 191.897546 
L 377.669199 191.897546 
L 378.031339 196.87405 
L 378.393479 199.362302 
L 378.755619 199.362302 
L 379.117759 201.850554 
L 379.479898 199.362302 
L 379.842038 199.362302 
L 380.566318 194.385798 
L 380.928458 194.385798 
L 381.290597 189.409294 
L 381.652737 189.409294 
L 382.377017 184.432791 
L 382.739157 184.432791 
L 383.101297 181.944539 
L 383.463436 181.944539 
L 384.549856 189.409294 
L 384.911996 189.409294 
L 385.998415 196.87405 
L 386.360555 196.87405 
L 386.722695 199.362302 
L 387.446975 194.385798 
L 387.809114 194.385798 
L 388.895534 186.921043 
L 389.257674 186.921043 
L 390.344093 179.456287 
L 390.706233 179.456287 
L 391.068373 181.944539 
L 391.430513 186.921043 
L 392.154792 186.921043 
L 392.516932 189.409294 
L 392.879072 194.385798 
L 393.603352 194.385798 
L 393.965491 196.87405 
L 394.327631 191.897546 
L 395.051911 191.897546 
L 395.414051 189.409294 
L 395.776191 189.409294 
L 396.13833 186.921043 
L 396.50047 181.944539 
L 396.86261 181.944539 
L 397.949029 189.409294 
L 398.673309 189.409294 
L 399.035449 191.897546 
L 399.397589 196.87405 
L 399.759729 196.87405 
L 400.484008 201.850554 
L 400.846148 201.850554 
L 401.570428 206.827058 
L 401.932568 204.338806 
L 402.294707 204.338806 
L 402.656847 201.850554 
L 403.743267 201.850554 
L 404.105407 204.338806 
L 404.467546 204.338806 
L 405.553966 211.803562 
L 405.916106 211.803562 
L 406.278245 216.780066 
L 406.640385 216.780066 
L 407.002525 219.268318 
L 407.364665 219.268318 
L 408.813224 229.221326 
L 409.175364 229.221326 
L 409.899644 224.244822 
L 410.261784 226.733074 
L 410.623923 226.733074 
L 411.348203 231.709578 
L 411.710343 231.709578 
L 412.072483 236.686082 
L 412.434623 236.686082 
L 412.796762 239.174334 
L 413.158902 239.174334 
L 413.521042 241.662586 
L 413.883182 241.662586 
L 415.693881 254.103846 
L 416.056021 254.103846 
L 416.418161 256.592098 
L 417.50458 256.592098 
L 417.86672 259.08035 
L 418.22886 259.08035 
L 418.591 264.056854 
L 418.953139 264.056854 
L 420.401699 274.009861 
L 421.125978 274.009861 
L 421.488118 278.986365 
L 421.850258 278.986365 
L 422.212398 281.474617 
L 422.574538 281.474617 
L 423.660957 288.939373 
L 424.023097 288.939373 
L 424.385237 293.915877 
L 424.747377 293.915877 
L 425.833796 301.380633 
L 426.195936 301.380633 
L 426.920216 306.357137 
L 427.282355 306.357137 
L 427.644495 311.333641 
L 428.368775 311.333641 
L 428.730915 313.821893 
L 429.093055 318.798397 
L 429.817334 318.798397 
L 430.179474 323.774901 
L 430.541614 326.263153 
L 430.903754 326.263153 
L 431.265893 328.751405 
L 431.990173 328.751405 
L 432.352313 333.727909 
L 432.714453 333.727909 
L 433.076593 336.216161 
L 433.438732 336.216161 
L 433.800872 341.192665 
L 434.163012 343.680917 
L 434.887292 343.680917 
L 435.249432 346.169169 
L 435.611571 351.145672 
L 436.335851 351.145672 
L 436.697991 356.122176 
L 437.060131 356.122176 
L 437.42227 358.610428 
L 437.78441 358.610428 
L 438.87083 366.075184 
L 439.23297 366.075184 
L 439.595109 371.051688 
L 439.957249 371.051688 
L 441.043669 378.516444 
L 441.405809 378.516444 
L 442.492228 385.9812 
L 443.578648 385.9812 
L 443.940787 381.004696 
L 444.302927 381.004696 
L 444.665067 378.516444 
L 445.389347 378.516444 
L 445.751486 381.004696 
L 446.475766 381.004696 
L 446.837906 385.9812 
L 521.07657 385.9812 
L 521.07657 385.9812 
" style="fill:none;stroke:#1f77b4;stroke-linecap:square;stroke-width:1.5;"/>
   </g>
   <g id="line2d_15">
    <path clip-path="url(#p7b39b357ac)" d="M 159.298884 385.9812 
L 160.747444 385.9812 
L 161.109583 383.492948 
L 161.471723 383.492948 
L 161.833863 381.004696 
L 162.558143 381.004696 
L 162.920283 378.516444 
L 163.282422 378.516444 
L 165.455261 363.586932 
L 166.179541 363.586932 
L 166.541681 358.610428 
L 166.903821 358.610428 
L 167.6281 353.633924 
L 168.35238 353.633924 
L 168.71452 351.145672 
L 169.07666 351.145672 
L 170.525219 341.192665 
L 171.249499 341.192665 
L 171.973778 336.216161 
L 172.335918 336.216161 
L 172.698058 331.239657 
L 173.060198 331.239657 
L 173.422338 328.751405 
L 174.146617 328.751405 
L 174.508757 326.263153 
L 174.870897 321.286649 
L 175.233037 321.286649 
L 175.595176 318.798397 
L 176.319456 318.798397 
L 176.681596 316.310145 
L 177.043736 311.333641 
L 177.768015 311.333641 
L 178.492295 306.357137 
L 179.216575 306.357137 
L 179.578715 303.868885 
L 179.940854 303.868885 
L 180.302994 298.892381 
L 180.665134 298.892381 
L 181.389414 293.915877 
L 182.113693 293.915877 
L 182.475833 291.427625 
L 182.837973 291.427625 
L 183.200113 288.939373 
L 183.562253 288.939373 
L 183.924392 286.451121 
L 184.286532 286.451121 
L 185.735092 276.498113 
L 186.459371 276.498113 
L 186.821511 274.009861 
L 187.183651 274.009861 
L 187.907931 269.033357 
L 188.63221 269.033357 
L 189.71863 261.568602 
L 190.080769 261.568602 
L 190.442909 259.08035 
L 190.805049 259.08035 
L 191.167189 256.592098 
L 191.529329 256.592098 
L 191.891469 254.103846 
L 192.253608 254.103846 
L 192.615748 251.615594 
L 192.977888 251.615594 
L 193.340028 254.103846 
L 194.426447 254.103846 
L 195.150727 249.127342 
L 195.875007 249.127342 
L 196.237147 246.63909 
L 196.599286 246.63909 
L 196.961426 244.150838 
L 197.323566 244.150838 
L 197.685706 241.662586 
L 198.047846 241.662586 
L 198.409985 239.174334 
L 198.772125 239.174334 
L 199.134265 236.686082 
L 199.496405 236.686082 
L 199.858545 234.19783 
L 200.220685 234.19783 
L 201.307104 226.733074 
L 201.669244 226.733074 
L 202.031384 224.244822 
L 202.393524 224.244822 
L 202.755663 226.733074 
L 203.117803 226.733074 
L 203.479943 229.221326 
L 203.842083 229.221326 
L 204.204223 231.709578 
L 204.566363 231.709578 
L 205.290642 226.733074 
L 206.014922 226.733074 
L 206.377062 224.244822 
L 206.739201 224.244822 
L 207.463481 219.268318 
L 208.187761 219.268318 
L 208.549901 216.780066 
L 208.91204 216.780066 
L 209.99846 209.31531 
L 210.3606 209.31531 
L 210.72274 206.827058 
L 211.084879 206.827058 
L 211.447019 204.338806 
L 211.809159 204.338806 
L 212.171299 206.827058 
L 212.533439 206.827058 
L 212.895579 209.31531 
L 213.257718 209.31531 
L 213.619858 211.803562 
L 213.981998 211.803562 
L 214.344138 214.291814 
L 214.706278 214.291814 
L 215.068417 211.803562 
L 215.430557 211.803562 
L 215.792697 209.31531 
L 216.154837 209.31531 
L 216.516977 206.827058 
L 216.879117 206.827058 
L 217.241256 204.338806 
L 217.603396 204.338806 
L 217.965536 201.850554 
L 218.327676 201.850554 
L 219.414095 194.385798 
L 219.776235 194.385798 
L 220.138375 191.897546 
L 220.500515 191.897546 
L 220.862655 189.409294 
L 221.224795 189.409294 
L 221.586934 186.921043 
L 221.949074 186.921043 
L 222.311214 189.409294 
L 222.673354 189.409294 
L 223.035494 191.897546 
L 223.397633 191.897546 
L 224.121913 196.87405 
L 224.846193 196.87405 
L 225.208333 199.362302 
L 225.570472 199.362302 
L 225.932612 196.87405 
L 226.294752 196.87405 
L 226.656892 194.385798 
L 227.019032 194.385798 
L 228.105451 186.921043 
L 228.467591 186.921043 
L 228.829731 184.432791 
L 229.191871 184.432791 
L 229.55401 181.944539 
L 229.91615 181.944539 
L 230.27829 179.456287 
L 230.64043 179.456287 
L 231.00257 176.968035 
L 231.36471 176.968035 
L 231.726849 174.479783 
L 232.088989 174.479783 
L 232.451129 171.991531 
L 232.813269 171.991531 
L 233.175409 174.479783 
L 233.537549 174.479783 
L 233.899688 176.968035 
L 234.261828 176.968035 
L 234.623968 179.456287 
L 234.986108 179.456287 
L 235.348248 181.944539 
L 235.710388 181.944539 
L 236.072527 184.432791 
L 236.434667 184.432791 
L 236.796807 181.944539 
L 237.158947 181.944539 
L 237.521087 179.456287 
L 237.883226 179.456287 
L 238.245366 176.968035 
L 238.607506 176.968035 
L 238.969646 174.479783 
L 239.331786 174.479783 
L 240.056065 169.503279 
L 240.780345 169.503279 
L 241.866765 162.038523 
L 242.228904 162.038523 
L 242.591044 159.550271 
L 242.953184 159.550271 
L 243.315324 157.062019 
L 243.677464 157.062019 
L 244.039604 159.550271 
L 244.401743 159.550271 
L 244.763883 162.038523 
L 245.126023 162.038523 
L 245.488163 164.526775 
L 245.850303 164.526775 
L 246.212442 167.015027 
L 246.574582 167.015027 
L 246.936722 169.503279 
L 247.298862 169.503279 
L 247.661002 167.015027 
L 248.023142 167.015027 
L 248.385281 164.526775 
L 248.747421 164.526775 
L 249.109561 162.038523 
L 249.471701 162.038523 
L 249.833841 159.550271 
L 250.195981 159.550271 
L 250.55812 157.062019 
L 250.92026 157.062019 
L 251.2824 154.573767 
L 251.64454 154.573767 
L 252.00668 152.085515 
L 252.36882 152.085515 
L 252.730959 149.597263 
L 253.093099 149.597263 
L 253.455239 147.109011 
L 253.817379 147.109011 
L 254.179519 149.597263 
L 254.541658 149.597263 
L 254.903798 152.085515 
L 255.265938 152.085515 
L 255.628078 154.573767 
L 255.990218 154.573767 
L 256.352358 157.062019 
L 256.714497 157.062019 
L 257.076637 159.550271 
L 257.438777 159.550271 
L 257.800917 157.062019 
L 258.163057 157.062019 
L 258.525197 154.573767 
L 258.887336 154.573767 
L 259.973756 147.109011 
L 260.335896 147.109011 
L 260.698036 144.620759 
L 261.060175 144.620759 
L 261.422315 142.132507 
L 261.784455 142.132507 
L 262.508735 137.156003 
L 263.233014 137.156003 
L 263.595154 134.667751 
L 263.957294 134.667751 
L 264.319434 137.156003 
L 264.681574 137.156003 
L 265.043713 139.644255 
L 265.405853 139.644255 
L 265.767993 142.132507 
L 266.130133 142.132507 
L 266.492273 144.620759 
L 266.854413 144.620759 
L 267.216552 147.109011 
L 267.578692 147.109011 
L 267.940832 149.597263 
L 268.302972 149.597263 
L 268.665112 147.109011 
L 269.027252 147.109011 
L 269.389391 144.620759 
L 269.751531 144.620759 
L 270.113671 142.132507 
L 270.475811 142.132507 
L 270.837951 139.644255 
L 271.20009 139.644255 
L 271.56223 137.156003 
L 271.92437 137.156003 
L 272.28651 134.667751 
L 272.64865 134.667751 
L 273.01079 132.179499 
L 273.372929 132.179499 
L 273.735069 129.691247 
L 274.097209 129.691247 
L 274.459349 127.202995 
L 274.821489 127.202995 
L 275.183629 129.691247 
L 275.545768 129.691247 
L 275.907908 132.179499 
L 276.270048 132.179499 
L 276.632188 134.667751 
L 276.994328 134.667751 
L 278.080747 142.132507 
L 278.442887 142.132507 
L 278.805027 139.644255 
L 279.167167 139.644255 
L 279.529306 137.156003 
L 279.891446 137.156003 
L 280.253586 134.667751 
L 280.615726 134.667751 
L 280.977866 132.179499 
L 281.340006 132.179499 
L 281.702145 129.691247 
L 282.064285 129.691247 
L 282.426425 127.202995 
L 282.788565 127.202995 
L 283.150705 124.714743 
L 283.512845 124.714743 
L 283.874984 122.226491 
L 284.237124 122.226491 
L 284.599264 119.738239 
L 284.961404 119.738239 
L 285.323544 117.249987 
L 285.685683 117.249987 
L 286.047823 119.738239 
L 286.409963 119.738239 
L 286.772103 122.226491 
L 287.134243 122.226491 
L 287.496383 124.714743 
L 287.858522 124.714743 
L 288.220662 127.202995 
L 288.582802 127.202995 
L 288.944942 129.691247 
L 289.307082 129.691247 
L 289.669222 132.179499 
L 290.031361 132.179499 
L 290.393501 129.691247 
L 290.755641 129.691247 
L 291.117781 127.202995 
L 291.479921 127.202995 
L 291.842061 124.714743 
L 292.2042 124.714743 
L 292.56634 122.226491 
L 292.92848 122.226491 
L 293.29062 119.738239 
L 293.65276 119.738239 
L 294.014899 117.249987 
L 294.377039 117.249987 
L 294.739179 114.761735 
L 295.101319 114.761735 
L 295.463459 112.273483 
L 296.187738 117.249987 
L 296.549878 117.249987 
L 296.912018 119.738239 
L 297.274158 119.738239 
L 297.998438 124.714743 
L 298.722717 124.714743 
L 299.084857 127.202995 
L 299.446997 127.202995 
L 299.809137 124.714743 
L 300.171277 124.714743 
L 300.895556 119.738239 
L 301.619836 119.738239 
L 302.344115 114.761735 
L 303.068395 114.761735 
L 303.430535 112.273483 
L 303.792675 112.273483 
L 304.154815 109.785231 
L 304.516954 109.785231 
L 304.879094 107.29698 
L 305.241234 107.29698 
L 305.603374 104.808728 
L 306.689793 112.273483 
L 307.051933 112.273483 
L 307.776213 117.249987 
L 308.138353 117.249987 
L 308.862632 122.226491 
L 309.224772 119.738239 
L 309.586912 119.738239 
L 310.673331 112.273483 
L 311.035471 112.273483 
L 312.121891 104.808728 
L 312.484031 104.808728 
L 312.84617 102.320476 
L 313.93259 102.320476 
L 315.019009 109.785231 
L 315.381149 109.785231 
L 316.467569 117.249987 
L 316.829709 117.249987 
L 317.916128 109.785231 
L 318.278268 109.785231 
L 319.364687 102.320476 
L 319.726827 102.320476 
L 320.813247 94.85572 
L 321.175386 94.85572 
L 321.537526 92.367468 
L 322.261806 97.343972 
L 322.623946 97.343972 
L 323.710365 104.808728 
L 324.072505 104.808728 
L 324.796785 109.785231 
L 325.158925 109.785231 
L 325.521064 104.808728 
L 326.245344 104.808728 
L 326.607484 102.320476 
L 326.969624 97.343972 
L 327.693903 97.343972 
L 328.780323 89.879216 
L 329.504602 89.879216 
L 329.866742 92.367468 
L 330.591022 92.367468 
L 332.039581 102.320476 
L 332.401721 102.320476 
L 332.763861 104.808728 
L 333.126001 102.320476 
L 333.48814 102.320476 
L 333.85028 97.343972 
L 334.21242 94.85572 
L 334.57456 94.85572 
L 334.9367 92.367468 
L 335.29884 92.367468 
L 336.023119 87.390964 
L 336.385259 87.390964 
L 336.747399 82.41446 
L 337.109539 82.41446 
L 337.471679 84.902712 
L 337.833818 84.902712 
L 338.195958 89.879216 
L 338.558098 89.879216 
L 338.920238 92.367468 
L 339.282378 92.367468 
L 339.644518 97.343972 
L 340.006657 99.832224 
L 340.730937 99.832224 
L 341.093077 102.320476 
L 341.455217 102.320476 
L 341.817356 97.343972 
L 342.179496 97.343972 
L 342.541636 94.85572 
L 342.903776 94.85572 
L 343.265916 89.879216 
L 343.628056 87.390964 
L 344.352335 87.390964 
L 345.438755 79.926208 
L 345.800895 79.926208 
L 346.163034 84.902712 
L 346.525174 84.902712 
L 346.887314 87.390964 
L 347.249454 87.390964 
L 347.611594 92.367468 
L 347.973734 92.367468 
L 348.335873 94.85572 
L 348.698013 94.85572 
L 349.060153 97.343972 
L 349.784433 92.367468 
L 350.146572 92.367468 
L 351.232992 84.902712 
L 351.595132 84.902712 
L 351.957272 79.926208 
L 352.319411 79.926208 
L 352.681551 77.437956 
L 353.043691 77.437956 
L 353.405831 74.949704 
L 353.767971 79.926208 
L 354.49225 79.926208 
L 354.85439 82.41446 
L 355.21653 87.390964 
L 355.94081 87.390964 
L 356.30295 92.367468 
L 356.665089 92.367468 
L 357.027229 94.85572 
L 357.389369 94.85572 
L 358.475788 87.390964 
L 358.837928 87.390964 
L 359.200068 84.902712 
L 359.562208 84.902712 
L 360.648627 77.437956 
L 361.010767 79.926208 
L 361.372907 79.926208 
L 361.735047 74.949704 
L 362.459327 74.949704 
L 363.545746 82.41446 
L 363.907886 82.41446 
L 364.270026 87.390964 
L 364.632166 89.879216 
L 365.356445 89.879216 
L 365.718585 92.367468 
L 366.805004 84.902712 
L 367.167144 84.902712 
L 367.891424 79.926208 
L 368.253564 79.926208 
L 368.615704 77.437956 
L 368.977843 79.926208 
L 369.339983 77.437956 
L 369.702123 77.437956 
L 370.064263 74.949704 
L 370.788543 79.926208 
L 371.150682 79.926208 
L 371.512822 82.41446 
L 371.874962 87.390964 
L 372.599242 87.390964 
L 372.961382 89.879216 
L 373.685661 84.902712 
L 374.047801 84.902712 
L 375.13422 77.437956 
L 375.49636 77.437956 
L 376.22064 72.461452 
L 376.58278 74.949704 
L 376.94492 74.949704 
L 377.307059 72.461452 
L 377.669199 72.461452 
L 378.031339 77.437956 
L 378.393479 77.437956 
L 378.755619 79.926208 
L 379.117759 79.926208 
L 379.479898 84.902712 
L 379.842038 84.902712 
L 380.204178 87.390964 
L 380.566318 87.390964 
L 381.652737 79.926208 
L 382.014877 79.926208 
L 382.377017 74.949704 
L 382.739157 74.949704 
L 383.101297 72.461452 
L 383.463436 72.461452 
L 383.825576 69.9732 
L 384.187716 72.461452 
L 384.549856 69.9732 
L 384.911996 69.9732 
L 385.274136 72.461452 
L 385.636275 77.437956 
L 386.360555 77.437956 
L 387.446975 84.902712 
L 387.809114 84.902712 
L 388.171254 87.390964 
L 389.257674 79.926208 
L 389.619813 79.926208 
L 390.344093 74.949704 
L 390.706233 74.949704 
L 391.068373 72.461452 
L 391.792652 77.437956 
L 392.154792 77.437956 
L 392.516932 74.949704 
L 393.241212 79.926208 
L 393.603352 79.926208 
L 393.965491 84.902712 
L 394.327631 84.902712 
L 394.689771 87.390964 
L 395.051911 87.390964 
L 395.414051 84.902712 
L 395.776191 84.902712 
L 396.13833 82.41446 
L 396.50047 87.390964 
L 397.22475 87.390964 
L 397.58689 89.879216 
L 397.949029 94.85572 
L 398.673309 94.85572 
L 399.759729 102.320476 
L 400.121868 102.320476 
L 401.208288 109.785231 
L 401.570428 109.785231 
L 402.656847 117.249987 
L 403.018987 117.249987 
L 404.105407 124.714743 
L 404.467546 124.714743 
L 405.553966 132.179499 
L 405.916106 132.179499 
L 407.002525 139.644255 
L 407.364665 139.644255 
L 408.451084 147.109011 
L 408.813224 147.109011 
L 409.899644 154.573767 
L 410.261784 154.573767 
L 411.348203 162.038523 
L 411.710343 162.038523 
L 412.796762 169.503279 
L 413.158902 169.503279 
L 413.883182 174.479783 
L 414.245322 174.479783 
L 414.969601 179.456287 
L 415.331741 179.456287 
L 416.418161 186.921043 
L 416.7803 186.921043 
L 417.86672 194.385798 
L 418.22886 194.385798 
L 419.315279 201.850554 
L 419.677419 201.850554 
L 420.763839 209.31531 
L 421.125978 209.31531 
L 422.212398 216.780066 
L 422.574538 216.780066 
L 423.660957 224.244822 
L 424.023097 224.244822 
L 425.109516 231.709578 
L 425.471656 231.709578 
L 426.558076 239.174334 
L 426.920216 239.174334 
L 427.282355 244.150838 
L 427.644495 244.150838 
L 428.006635 246.63909 
L 428.368775 246.63909 
L 429.455194 254.103846 
L 429.817334 254.103846 
L 430.179474 259.08035 
L 430.541614 261.568602 
L 430.903754 261.568602 
L 431.265893 264.056854 
L 431.990173 264.056854 
L 433.076593 271.521609 
L 433.438732 271.521609 
L 434.525152 278.986365 
L 434.887292 278.986365 
L 435.249432 281.474617 
L 435.611571 286.451121 
L 436.335851 286.451121 
L 436.697991 291.427625 
L 437.060131 291.427625 
L 437.42227 293.915877 
L 437.78441 293.915877 
L 438.14655 296.404129 
L 438.50869 301.380633 
L 439.23297 301.380633 
L 440.681529 311.333641 
L 441.043669 311.333641 
L 441.767948 316.310145 
L 442.130088 316.310145 
L 443.216508 323.774901 
L 443.578648 323.774901 
L 444.665067 331.239657 
L 445.027207 331.239657 
L 446.113626 338.704413 
L 446.475766 338.704413 
L 447.562186 346.169169 
L 447.924325 346.169169 
L 448.286465 348.65742 
L 448.648605 353.633924 
L 449.372885 353.633924 
L 449.735025 356.122176 
L 450.097164 356.122176 
L 451.183584 363.586932 
L 451.545724 363.586932 
L 451.907864 366.075184 
L 452.270003 366.075184 
L 452.632143 368.563436 
L 452.994283 368.563436 
L 453.356423 371.051688 
L 453.718563 371.051688 
L 454.804982 378.516444 
L 455.167122 378.516444 
L 455.529262 381.004696 
L 455.891402 381.004696 
L 456.253541 383.492948 
L 456.615681 383.492948 
L 456.977821 385.9812 
L 521.07657 385.9812 
L 521.07657 385.9812 
" style="fill:none;stroke:#ff0000;stroke-dasharray:5.55,2.4;stroke-dashoffset:0;stroke-width:1.5;"/>
   </g>
   <g id="line2d_16">
    <path clip-path="url(#p7b39b357ac)" d="M 159.298884 385.9812 
L 160.747444 385.9812 
L 161.109583 383.492948 
L 161.833863 383.492948 
L 162.196003 381.004696 
L 162.558143 381.004696 
L 163.282422 376.028192 
L 163.644562 376.028192 
L 164.006702 371.051688 
L 164.730982 366.075184 
L 165.093122 366.075184 
L 165.455261 363.586932 
L 165.817401 363.586932 
L 166.179541 361.09868 
L 166.541681 361.09868 
L 167.26596 356.122176 
L 167.6281 356.122176 
L 168.35238 351.145672 
L 168.71452 351.145672 
L 169.07666 348.65742 
L 170.525219 348.65742 
L 170.887359 351.145672 
L 171.249499 351.145672 
L 171.611638 353.633924 
L 171.973778 353.633924 
L 172.335918 358.610428 
L 172.698058 358.610428 
L 173.422338 363.586932 
L 174.146617 363.586932 
L 174.508757 366.075184 
L 175.233037 361.09868 
L 175.595176 361.09868 
L 175.957316 358.610428 
L 176.319456 358.610428 
L 176.681596 356.122176 
L 177.043736 351.145672 
L 177.405876 351.145672 
L 177.768015 348.65742 
L 178.492295 348.65742 
L 179.216575 343.680917 
L 179.940854 343.680917 
L 180.302994 341.192665 
L 181.389414 348.65742 
L 182.113693 348.65742 
L 182.475833 351.145672 
L 182.837973 351.145672 
L 183.200113 353.633924 
L 183.562253 353.633924 
L 183.924392 356.122176 
L 184.286532 353.633924 
L 184.648672 353.633924 
L 185.010812 348.65742 
L 185.372952 348.65742 
L 185.735092 346.169169 
L 186.097231 346.169169 
L 186.459371 343.680917 
L 187.183651 343.680917 
L 187.545791 341.192665 
L 187.907931 341.192665 
L 188.27007 338.704413 
L 188.63221 338.704413 
L 188.99435 333.727909 
L 189.35649 331.239657 
L 190.080769 331.239657 
L 190.442909 328.751405 
L 190.805049 328.751405 
L 191.167189 326.263153 
L 191.529329 326.263153 
L 191.891469 323.774901 
L 192.253608 323.774901 
L 192.615748 326.263153 
L 192.977888 326.263153 
L 193.340028 331.239657 
L 193.702168 333.727909 
L 194.426447 333.727909 
L 194.788587 331.239657 
L 195.150727 331.239657 
L 195.512867 328.751405 
L 195.875007 328.751405 
L 196.237147 326.263153 
L 196.599286 326.263153 
L 196.961426 323.774901 
L 197.323566 323.774901 
L 197.685706 321.286649 
L 198.047846 321.286649 
L 198.409985 318.798397 
L 198.772125 318.798397 
L 199.134265 316.310145 
L 199.496405 316.310145 
L 199.858545 313.821893 
L 200.220685 313.821893 
L 200.582824 308.845389 
L 200.944964 308.845389 
L 201.307104 306.357137 
L 201.669244 306.357137 
L 202.031384 308.845389 
L 202.393524 308.845389 
L 202.755663 311.333641 
L 203.117803 311.333641 
L 203.479943 313.821893 
L 203.842083 313.821893 
L 204.204223 316.310145 
L 204.566363 316.310145 
L 205.290642 321.286649 
L 206.014922 321.286649 
L 206.377062 318.798397 
L 206.739201 318.798397 
L 207.463481 313.821893 
L 208.187761 313.821893 
L 208.549901 311.333641 
L 208.91204 311.333641 
L 209.99846 303.868885 
L 210.3606 303.868885 
L 210.72274 301.380633 
L 211.084879 301.380633 
L 211.447019 298.892381 
L 211.809159 298.892381 
L 212.171299 296.404129 
L 212.533439 296.404129 
L 212.895579 298.892381 
L 213.257718 298.892381 
L 213.619858 301.380633 
L 213.981998 301.380633 
L 214.344138 303.868885 
L 214.706278 303.868885 
L 215.068417 306.357137 
L 215.430557 306.357137 
L 215.792697 308.845389 
L 216.154837 308.845389 
L 216.516977 311.333641 
L 216.879117 311.333641 
L 217.241256 308.845389 
L 217.603396 308.845389 
L 217.965536 306.357137 
L 218.327676 306.357137 
L 219.414095 298.892381 
L 219.776235 298.892381 
L 220.138375 296.404129 
L 220.500515 296.404129 
L 220.862655 293.915877 
L 221.224795 293.915877 
L 221.586934 291.427625 
L 221.949074 291.427625 
L 222.311214 288.939373 
L 222.673354 288.939373 
L 223.035494 286.451121 
L 223.397633 286.451121 
L 223.759773 288.939373 
L 224.121913 288.939373 
L 224.846193 293.915877 
L 225.570472 293.915877 
L 225.932612 296.404129 
L 226.294752 296.404129 
L 226.656892 298.892381 
L 227.019032 298.892381 
L 227.381172 301.380633 
L 228.105451 296.404129 
L 228.467591 296.404129 
L 228.829731 293.915877 
L 229.191871 293.915877 
L 229.55401 291.427625 
L 229.91615 291.427625 
L 230.27829 288.939373 
L 230.64043 288.939373 
L 231.00257 286.451121 
L 231.36471 286.451121 
L 231.726849 283.962869 
L 232.088989 283.962869 
L 232.451129 281.474617 
L 232.813269 281.474617 
L 233.175409 278.986365 
L 233.537549 278.986365 
L 233.899688 276.498113 
L 234.261828 276.498113 
L 234.623968 278.986365 
L 234.986108 278.986365 
L 235.348248 281.474617 
L 235.710388 281.474617 
L 236.434667 286.451121 
L 237.158947 286.451121 
L 237.521087 288.939373 
L 237.883226 288.939373 
L 238.245366 291.427625 
L 238.607506 291.427625 
L 238.969646 288.939373 
L 239.331786 288.939373 
L 240.056065 283.962869 
L 240.780345 283.962869 
L 241.866765 276.498113 
L 242.228904 276.498113 
L 242.591044 274.009861 
L 242.953184 274.009861 
L 243.315324 271.521609 
L 243.677464 271.521609 
L 244.401743 266.545106 
L 245.126023 266.545106 
L 245.488163 269.033357 
L 245.850303 269.033357 
L 246.212442 271.521609 
L 246.574582 271.521609 
L 246.936722 274.009861 
L 247.298862 274.009861 
L 247.661002 276.498113 
L 248.023142 276.498113 
L 248.385281 278.986365 
L 248.747421 278.986365 
L 249.109561 281.474617 
L 249.471701 281.474617 
L 249.833841 283.962869 
L 250.195981 281.474617 
L 250.92026 281.474617 
L 251.64454 276.498113 
L 252.36882 276.498113 
L 252.730959 274.009861 
L 253.093099 274.009861 
L 253.455239 271.521609 
L 253.817379 271.521609 
L 254.541658 266.545106 
L 255.265938 266.545106 
L 255.628078 264.056854 
L 255.990218 264.056854 
L 256.352358 261.568602 
L 256.714497 261.568602 
L 257.076637 259.08035 
L 257.438777 259.08035 
L 257.800917 261.568602 
L 258.163057 261.568602 
L 258.525197 264.056854 
L 258.887336 264.056854 
L 259.973756 271.521609 
L 260.335896 271.521609 
L 260.698036 274.009861 
L 261.060175 274.009861 
L 261.422315 276.498113 
L 261.784455 276.498113 
L 262.146595 274.009861 
L 262.508735 274.009861 
L 262.870874 271.521609 
L 263.233014 271.521609 
L 263.595154 269.033357 
L 263.957294 269.033357 
L 264.319434 266.545106 
L 264.681574 266.545106 
L 265.043713 264.056854 
L 265.405853 264.056854 
L 265.767993 261.568602 
L 266.130133 261.568602 
L 266.492273 259.08035 
L 266.854413 259.08035 
L 267.216552 256.592098 
L 267.578692 256.592098 
L 267.940832 254.103846 
L 268.302972 254.103846 
L 268.665112 251.615594 
L 269.027252 251.615594 
L 269.389391 254.103846 
L 269.751531 254.103846 
L 270.113671 256.592098 
L 270.475811 256.592098 
L 270.837951 259.08035 
L 271.20009 259.08035 
L 271.56223 261.568602 
L 271.92437 261.568602 
L 272.28651 264.056854 
L 272.64865 264.056854 
L 273.01079 266.545106 
L 273.372929 266.545106 
L 273.735069 264.056854 
L 274.097209 264.056854 
L 274.459349 261.568602 
L 274.821489 261.568602 
L 275.183629 259.08035 
L 275.545768 259.08035 
L 275.907908 256.592098 
L 276.270048 256.592098 
L 276.632188 254.103846 
L 276.994328 254.103846 
L 278.080747 246.63909 
L 278.442887 246.63909 
L 278.805027 244.150838 
L 279.167167 244.150838 
L 279.529306 241.662586 
L 279.891446 241.662586 
L 280.253586 244.150838 
L 280.615726 244.150838 
L 280.977866 246.63909 
L 281.340006 246.63909 
L 281.702145 249.127342 
L 282.064285 249.127342 
L 282.426425 251.615594 
L 282.788565 251.615594 
L 283.150705 254.103846 
L 283.512845 254.103846 
L 283.874984 256.592098 
L 284.237124 256.592098 
L 284.599264 259.08035 
L 284.961404 259.08035 
L 285.323544 256.592098 
L 285.685683 256.592098 
L 286.047823 254.103846 
L 286.409963 254.103846 
L 286.772103 251.615594 
L 287.134243 251.615594 
L 287.496383 249.127342 
L 287.858522 249.127342 
L 288.220662 246.63909 
L 288.582802 246.63909 
L 288.944942 244.150838 
L 289.307082 244.150838 
L 289.669222 241.662586 
L 290.031361 241.662586 
L 290.393501 239.174334 
L 290.755641 239.174334 
L 291.117781 236.686082 
L 291.479921 236.686082 
L 291.842061 239.174334 
L 292.2042 239.174334 
L 292.56634 241.662586 
L 292.92848 241.662586 
L 293.29062 244.150838 
L 293.65276 244.150838 
L 294.014899 246.63909 
L 294.377039 246.63909 
L 294.739179 249.127342 
L 295.101319 249.127342 
L 296.187738 256.592098 
L 296.549878 256.592098 
L 296.912018 259.08035 
L 297.274158 259.08035 
L 297.636298 261.568602 
L 297.998438 261.568602 
L 298.360577 264.056854 
L 298.722717 264.056854 
L 299.084857 266.545106 
L 299.446997 266.545106 
L 299.809137 269.033357 
L 300.171277 269.033357 
L 300.533416 271.521609 
L 300.895556 271.521609 
L 301.257696 274.009861 
L 301.619836 274.009861 
L 301.981976 276.498113 
L 302.344115 276.498113 
L 302.706255 278.986365 
L 303.068395 278.986365 
L 303.430535 281.474617 
L 303.792675 281.474617 
L 304.154815 283.962869 
L 304.516954 283.962869 
L 304.879094 286.451121 
L 305.241234 286.451121 
L 307.051933 298.892381 
L 307.414073 298.892381 
L 307.776213 301.380633 
L 308.138353 301.380633 
L 309.224772 308.845389 
L 309.586912 308.845389 
L 310.673331 316.310145 
L 311.035471 316.310145 
L 311.397611 318.798397 
L 311.759751 323.774901 
L 312.121891 323.774901 
L 312.484031 326.263153 
L 312.84617 326.263153 
L 313.20831 331.239657 
L 313.93259 331.239657 
L 315.019009 338.704413 
L 315.381149 338.704413 
L 316.467569 346.169169 
L 316.829709 346.169169 
L 317.916128 353.633924 
L 318.278268 353.633924 
L 319.364687 361.09868 
L 319.726827 361.09868 
L 320.088967 366.075184 
L 320.451107 366.075184 
L 320.813247 368.563436 
L 321.175386 368.563436 
L 321.537526 373.53994 
L 321.899666 373.53994 
L 322.261806 376.028192 
L 322.623946 376.028192 
L 322.986086 378.516444 
L 323.348225 378.516444 
L 324.434645 385.9812 
L 521.07657 385.9812 
L 521.07657 385.9812 
" style="fill:none;stroke:#ff0000;stroke-dasharray:1.5,2.475;stroke-dashoffset:0;stroke-width:1.5;"/>
   </g>
   <g id="patch_3">
    <path d="M 141.21 401.7816 
L 141.21 54.1728 
" style="fill:none;stroke:#000000;stroke-linecap:square;stroke-linejoin:miter;stroke-width:0.8;"/>
   </g>
   <g id="patch_4">
    <path d="M 539.165455 401.7816 
L 539.165455 54.1728 
" style="fill:none;stroke:#000000;stroke-linecap:square;stroke-linejoin:miter;stroke-width:0.8;"/>
   </g>
   <g id="patch_5">
    <path d="M 141.21 401.7816 
L 539.165455 401.7816 
" style="fill:none;stroke:#000000;stroke-linecap:square;stroke-linejoin:miter;stroke-width:0.8;"/>
   </g>
   <g id="patch_6">
    <path d="M 141.21 54.1728 
L 539.165455 54.1728 
" style="fill:none;stroke:#000000;stroke-linecap:square;stroke-linejoin:miter;stroke-width:0.8;"/>
   </g>
   <g id="text_16">
    <!-- Force in z -->
    <g transform="translate(300.064602 48.1728)scale(0.168 -0.168)">
     <defs>
      <path d="M 3513 2113 
L 3513 0 
L 2938 0 
L 2938 2094 
Q 2938 2591 2744 2837 
Q 2550 3084 2163 3084 
Q 1697 3084 1428 2787 
Q 1159 2491 1159 1978 
L 1159 0 
L 581 0 
L 581 3500 
L 1159 3500 
L 1159 2956 
Q 1366 3272 1645 3428 
Q 1925 3584 2291 3584 
Q 2894 3584 3203 3211 
Q 3513 2838 3513 2113 
z
" id="DejaVuSans-6e" transform="scale(0.015625)"/>
      <path d="M 353 3500 
L 3084 3500 
L 3084 2975 
L 922 459 
L 3084 459 
L 3084 0 
L 275 0 
L 275 525 
L 2438 3041 
L 353 3041 
L 353 3500 
z
" id="DejaVuSans-7a" transform="scale(0.015625)"/>
     </defs>
     <use xlink:href="#DejaVuSans-46"/>
     <use x="53.894531" xlink:href="#DejaVuSans-6f"/>
     <use x="115.076172" xlink:href="#DejaVuSans-72"/>
     <use x="153.939453" xlink:href="#DejaVuSans-63"/>
     <use x="208.919922" xlink:href="#DejaVuSans-65"/>
     <use x="270.443359" xlink:href="#DejaVuSans-20"/>
     <use x="302.230469" xlink:href="#DejaVuSans-69"/>
     <use x="330.013672" xlink:href="#DejaVuSans-6e"/>
     <use x="393.392578" xlink:href="#DejaVuSans-20"/>
     <use x="425.179688" xlink:href="#DejaVuSans-7a"/>
    </g>
   </g>
   <g id="legend_1">
    <g id="patch_7">
     <path d="M 151.01 127.020925 
L 389.31625 127.020925 
Q 392.11625 127.020925 392.11625 124.220925 
L 392.11625 63.9728 
Q 392.11625 61.1728 389.31625 61.1728 
L 151.01 61.1728 
Q 148.21 61.1728 148.21 63.9728 
L 148.21 124.220925 
Q 148.21 127.020925 151.01 127.020925 
z
" style="fill:#ffffff;opacity:0.8;stroke:#cccccc;stroke-linejoin:miter;"/>
    </g>
    <g id="line2d_17">
     <path d="M 153.81 72.510612 
L 181.81 72.510612 
" style="fill:none;stroke:#1f77b4;stroke-linecap:square;stroke-width:1.5;"/>
    </g>
    <g id="line2d_18"/>
    <g id="text_17">
     <!-- with compromised muscles -->
     <g transform="translate(193.01 77.410612)scale(0.14 -0.14)">
      <defs>
       <path d="M 269 3500 
L 844 3500 
L 1563 769 
L 2278 3500 
L 2956 3500 
L 3675 769 
L 4391 3500 
L 4966 3500 
L 4050 0 
L 3372 0 
L 2619 2869 
L 1863 0 
L 1184 0 
L 269 3500 
z
" id="DejaVuSans-77" transform="scale(0.015625)"/>
       <path d="M 1172 4494 
L 1172 3500 
L 2356 3500 
L 2356 3053 
L 1172 3053 
L 1172 1153 
Q 1172 725 1289 603 
Q 1406 481 1766 481 
L 2356 481 
L 2356 0 
L 1766 0 
Q 1100 0 847 248 
Q 594 497 594 1153 
L 594 3053 
L 172 3053 
L 172 3500 
L 594 3500 
L 594 4494 
L 1172 4494 
z
" id="DejaVuSans-74" transform="scale(0.015625)"/>
       <path d="M 3513 2113 
L 3513 0 
L 2938 0 
L 2938 2094 
Q 2938 2591 2744 2837 
Q 2550 3084 2163 3084 
Q 1697 3084 1428 2787 
Q 1159 2491 1159 1978 
L 1159 0 
L 581 0 
L 581 4863 
L 1159 4863 
L 1159 2956 
Q 1366 3272 1645 3428 
Q 1925 3584 2291 3584 
Q 2894 3584 3203 3211 
Q 3513 2838 3513 2113 
z
" id="DejaVuSans-68" transform="scale(0.015625)"/>
       <path d="M 1159 525 
L 1159 -1331 
L 581 -1331 
L 581 3500 
L 1159 3500 
L 1159 2969 
Q 1341 3281 1617 3432 
Q 1894 3584 2278 3584 
Q 2916 3584 3314 3078 
Q 3713 2572 3713 1747 
Q 3713 922 3314 415 
Q 2916 -91 2278 -91 
Q 1894 -91 1617 61 
Q 1341 213 1159 525 
z
M 3116 1747 
Q 3116 2381 2855 2742 
Q 2594 3103 2138 3103 
Q 1681 3103 1420 2742 
Q 1159 2381 1159 1747 
Q 1159 1113 1420 752 
Q 1681 391 2138 391 
Q 2594 391 2855 752 
Q 3116 1113 3116 1747 
z
" id="DejaVuSans-70" transform="scale(0.015625)"/>
       <path d="M 2906 2969 
L 2906 4863 
L 3481 4863 
L 3481 0 
L 2906 0 
L 2906 525 
Q 2725 213 2448 61 
Q 2172 -91 1784 -91 
Q 1150 -91 751 415 
Q 353 922 353 1747 
Q 353 2572 751 3078 
Q 1150 3584 1784 3584 
Q 2172 3584 2448 3432 
Q 2725 3281 2906 2969 
z
M 947 1747 
Q 947 1113 1208 752 
Q 1469 391 1925 391 
Q 2381 391 2643 752 
Q 2906 1113 2906 1747 
Q 2906 2381 2643 2742 
Q 2381 3103 1925 3103 
Q 1469 3103 1208 2742 
Q 947 2381 947 1747 
z
" id="DejaVuSans-64" transform="scale(0.015625)"/>
       <path d="M 544 1381 
L 544 3500 
L 1119 3500 
L 1119 1403 
Q 1119 906 1312 657 
Q 1506 409 1894 409 
Q 2359 409 2629 706 
Q 2900 1003 2900 1516 
L 2900 3500 
L 3475 3500 
L 3475 0 
L 2900 0 
L 2900 538 
Q 2691 219 2414 64 
Q 2138 -91 1772 -91 
Q 1169 -91 856 284 
Q 544 659 544 1381 
z
M 1991 3584 
L 1991 3584 
z
" id="DejaVuSans-75" transform="scale(0.015625)"/>
       <path d="M 603 4863 
L 1178 4863 
L 1178 0 
L 603 0 
L 603 4863 
z
" id="DejaVuSans-6c" transform="scale(0.015625)"/>
      </defs>
      <use xlink:href="#DejaVuSans-77"/>
      <use x="81.787109" xlink:href="#DejaVuSans-69"/>
      <use x="109.570312" xlink:href="#DejaVuSans-74"/>
      <use x="148.779297" xlink:href="#DejaVuSans-68"/>
      <use x="212.158203" xlink:href="#DejaVuSans-20"/>
      <use x="243.945312" xlink:href="#DejaVuSans-63"/>
      <use x="298.925781" xlink:href="#DejaVuSans-6f"/>
      <use x="360.107422" xlink:href="#DejaVuSans-6d"/>
      <use x="457.519531" xlink:href="#DejaVuSans-70"/>
      <use x="520.996094" xlink:href="#DejaVuSans-72"/>
      <use x="559.859375" xlink:href="#DejaVuSans-6f"/>
      <use x="621.041016" xlink:href="#DejaVuSans-6d"/>
      <use x="718.453125" xlink:href="#DejaVuSans-69"/>
      <use x="746.236328" xlink:href="#DejaVuSans-73"/>
      <use x="798.335938" xlink:href="#DejaVuSans-65"/>
      <use x="859.859375" xlink:href="#DejaVuSans-64"/>
      <use x="923.335938" xlink:href="#DejaVuSans-20"/>
      <use x="955.123047" xlink:href="#DejaVuSans-6d"/>
      <use x="1052.535156" xlink:href="#DejaVuSans-75"/>
      <use x="1115.914062" xlink:href="#DejaVuSans-73"/>
      <use x="1168.013672" xlink:href="#DejaVuSans-63"/>
      <use x="1222.994141" xlink:href="#DejaVuSans-6c"/>
      <use x="1250.777344" xlink:href="#DejaVuSans-65"/>
      <use x="1312.300781" xlink:href="#DejaVuSans-73"/>
     </g>
    </g>
    <g id="line2d_19">
     <path d="M 153.81 93.059987 
L 181.81 93.059987 
" style="fill:none;stroke:#ff0000;stroke-dasharray:5.55,2.4;stroke-dashoffset:0;stroke-width:1.5;"/>
    </g>
    <g id="line2d_20"/>
    <g id="text_18">
     <!-- with full muscle force -->
     <g transform="translate(193.01 97.959987)scale(0.14 -0.14)">
      <defs>
       <path d="M 2375 4863 
L 2375 4384 
L 1825 4384 
Q 1516 4384 1395 4259 
Q 1275 4134 1275 3809 
L 1275 3500 
L 2222 3500 
L 2222 3053 
L 1275 3053 
L 1275 0 
L 697 0 
L 697 3053 
L 147 3053 
L 147 3500 
L 697 3500 
L 697 3744 
Q 697 4328 969 4595 
Q 1241 4863 1831 4863 
L 2375 4863 
z
" id="DejaVuSans-66" transform="scale(0.015625)"/>
      </defs>
      <use xlink:href="#DejaVuSans-77"/>
      <use x="81.787109" xlink:href="#DejaVuSans-69"/>
      <use x="109.570312" xlink:href="#DejaVuSans-74"/>
      <use x="148.779297" xlink:href="#DejaVuSans-68"/>
      <use x="212.158203" xlink:href="#DejaVuSans-20"/>
      <use x="243.945312" xlink:href="#DejaVuSans-66"/>
      <use x="279.150391" xlink:href="#DejaVuSans-75"/>
      <use x="342.529297" xlink:href="#DejaVuSans-6c"/>
      <use x="370.3125" xlink:href="#DejaVuSans-6c"/>
      <use x="398.095703" xlink:href="#DejaVuSans-20"/>
      <use x="429.882812" xlink:href="#DejaVuSans-6d"/>
      <use x="527.294922" xlink:href="#DejaVuSans-75"/>
      <use x="590.673828" xlink:href="#DejaVuSans-73"/>
      <use x="642.773438" xlink:href="#DejaVuSans-63"/>
      <use x="697.753906" xlink:href="#DejaVuSans-6c"/>
      <use x="725.537109" xlink:href="#DejaVuSans-65"/>
      <use x="787.060547" xlink:href="#DejaVuSans-20"/>
      <use x="818.847656" xlink:href="#DejaVuSans-66"/>
      <use x="854.052734" xlink:href="#DejaVuSans-6f"/>
      <use x="915.234375" xlink:href="#DejaVuSans-72"/>
      <use x="954.097656" xlink:href="#DejaVuSans-63"/>
      <use x="1009.078125" xlink:href="#DejaVuSans-65"/>
     </g>
    </g>
    <g id="line2d_21">
     <path d="M 153.81 113.609362 
L 181.81 113.609362 
" style="fill:none;stroke:#ff0000;stroke-dasharray:1.5,2.475;stroke-dashoffset:0;stroke-width:1.5;"/>
    </g>
    <g id="line2d_22"/>
    <g id="text_19">
     <!-- with 50% muscle activation -->
     <g transform="translate(193.01 118.509362)scale(0.14 -0.14)">
      <defs>
       <path d="M 4653 2053 
Q 4381 2053 4226 1822 
Q 4072 1591 4072 1178 
Q 4072 772 4226 539 
Q 4381 306 4653 306 
Q 4919 306 5073 539 
Q 5228 772 5228 1178 
Q 5228 1588 5073 1820 
Q 4919 2053 4653 2053 
z
M 4653 2450 
Q 5147 2450 5437 2106 
Q 5728 1763 5728 1178 
Q 5728 594 5436 251 
Q 5144 -91 4653 -91 
Q 4153 -91 3862 251 
Q 3572 594 3572 1178 
Q 3572 1766 3864 2108 
Q 4156 2450 4653 2450 
z
M 1428 4353 
Q 1159 4353 1004 4120 
Q 850 3888 850 3481 
Q 850 3069 1003 2837 
Q 1156 2606 1428 2606 
Q 1700 2606 1854 2837 
Q 2009 3069 2009 3481 
Q 2009 3884 1853 4118 
Q 1697 4353 1428 4353 
z
M 4250 4750 
L 4750 4750 
L 1831 -91 
L 1331 -91 
L 4250 4750 
z
M 1428 4750 
Q 1922 4750 2215 4408 
Q 2509 4066 2509 3481 
Q 2509 2891 2217 2550 
Q 1925 2209 1428 2209 
Q 931 2209 642 2551 
Q 353 2894 353 3481 
Q 353 4063 643 4406 
Q 934 4750 1428 4750 
z
" id="DejaVuSans-25" transform="scale(0.015625)"/>
       <path d="M 2194 1759 
Q 1497 1759 1228 1600 
Q 959 1441 959 1056 
Q 959 750 1161 570 
Q 1363 391 1709 391 
Q 2188 391 2477 730 
Q 2766 1069 2766 1631 
L 2766 1759 
L 2194 1759 
z
M 3341 1997 
L 3341 0 
L 2766 0 
L 2766 531 
Q 2569 213 2275 61 
Q 1981 -91 1556 -91 
Q 1019 -91 701 211 
Q 384 513 384 1019 
Q 384 1609 779 1909 
Q 1175 2209 1959 2209 
L 2766 2209 
L 2766 2266 
Q 2766 2663 2505 2880 
Q 2244 3097 1772 3097 
Q 1472 3097 1187 3025 
Q 903 2953 641 2809 
L 641 3341 
Q 956 3463 1253 3523 
Q 1550 3584 1831 3584 
Q 2591 3584 2966 3190 
Q 3341 2797 3341 1997 
z
" id="DejaVuSans-61" transform="scale(0.015625)"/>
       <path d="M 191 3500 
L 800 3500 
L 1894 563 
L 2988 3500 
L 3597 3500 
L 2284 0 
L 1503 0 
L 191 3500 
z
" id="DejaVuSans-76" transform="scale(0.015625)"/>
      </defs>
      <use xlink:href="#DejaVuSans-77"/>
      <use x="81.787109" xlink:href="#DejaVuSans-69"/>
      <use x="109.570312" xlink:href="#DejaVuSans-74"/>
      <use x="148.779297" xlink:href="#DejaVuSans-68"/>
      <use x="212.158203" xlink:href="#DejaVuSans-20"/>
      <use x="243.945312" xlink:href="#DejaVuSans-35"/>
      <use x="307.568359" xlink:href="#DejaVuSans-30"/>
      <use x="371.191406" xlink:href="#DejaVuSans-25"/>
      <use x="466.210938" xlink:href="#DejaVuSans-20"/>
      <use x="497.998047" xlink:href="#DejaVuSans-6d"/>
      <use x="595.410156" xlink:href="#DejaVuSans-75"/>
      <use x="658.789062" xlink:href="#DejaVuSans-73"/>
      <use x="710.888672" xlink:href="#DejaVuSans-63"/>
      <use x="765.869141" xlink:href="#DejaVuSans-6c"/>
      <use x="793.652344" xlink:href="#DejaVuSans-65"/>
      <use x="855.175781" xlink:href="#DejaVuSans-20"/>
      <use x="886.962891" xlink:href="#DejaVuSans-61"/>
      <use x="948.242188" xlink:href="#DejaVuSans-63"/>
      <use x="1003.222656" xlink:href="#DejaVuSans-74"/>
      <use x="1042.431641" xlink:href="#DejaVuSans-69"/>
      <use x="1070.214844" xlink:href="#DejaVuSans-76"/>
      <use x="1129.394531" xlink:href="#DejaVuSans-61"/>
      <use x="1190.673828" xlink:href="#DejaVuSans-74"/>
      <use x="1229.882812" xlink:href="#DejaVuSans-69"/>
      <use x="1257.666016" xlink:href="#DejaVuSans-6f"/>
      <use x="1318.847656" xlink:href="#DejaVuSans-6e"/>
     </g>
    </g>
   </g>
  </g>
  <g id="axes_2">
   <g id="patch_8">
    <path d="M 618.756545 401.7816 
L 1016.712 401.7816 
L 1016.712 54.1728 
L 618.756545 54.1728 
z
" style="fill:#ffffff;"/>
   </g>
   <g id="matplotlib.axis_3">
    <g id="xtick_7">
     <g id="line2d_23">
      <g>
       <use style="stroke:#000000;stroke-width:0.8;" x="636.84543" xlink:href="#m2c798910f4" y="401.7816"/>
      </g>
     </g>
     <g id="text_20">
      <!-- 0 -->
      <g transform="translate(632.39168 419.419412)scale(0.14 -0.14)">
       <use xlink:href="#DejaVuSans-30"/>
      </g>
     </g>
    </g>
    <g id="xtick_8">
     <g id="line2d_24">
      <g>
       <use style="stroke:#000000;stroke-width:0.8;" x="709.273395" xlink:href="#m2c798910f4" y="401.7816"/>
      </g>
     </g>
     <g id="text_21">
      <!-- 1 -->
      <g transform="translate(704.819645 419.419412)scale(0.14 -0.14)">
       <use xlink:href="#DejaVuSans-31"/>
      </g>
     </g>
    </g>
    <g id="xtick_9">
     <g id="line2d_25">
      <g>
       <use style="stroke:#000000;stroke-width:0.8;" x="781.70136" xlink:href="#m2c798910f4" y="401.7816"/>
      </g>
     </g>
     <g id="text_22">
      <!-- 2 -->
      <g transform="translate(777.24761 419.419412)scale(0.14 -0.14)">
       <use xlink:href="#DejaVuSans-32"/>
      </g>
     </g>
    </g>
    <g id="xtick_10">
     <g id="line2d_26">
      <g>
       <use style="stroke:#000000;stroke-width:0.8;" x="854.129325" xlink:href="#m2c798910f4" y="401.7816"/>
      </g>
     </g>
     <g id="text_23">
      <!-- 3 -->
      <g transform="translate(849.675575 419.419412)scale(0.14 -0.14)">
       <use xlink:href="#DejaVuSans-33"/>
      </g>
     </g>
    </g>
    <g id="xtick_11">
     <g id="line2d_27">
      <g>
       <use style="stroke:#000000;stroke-width:0.8;" x="926.55729" xlink:href="#m2c798910f4" y="401.7816"/>
      </g>
     </g>
     <g id="text_24">
      <!-- 4 -->
      <g transform="translate(922.10354 419.419412)scale(0.14 -0.14)">
       <use xlink:href="#DejaVuSans-34"/>
      </g>
     </g>
    </g>
    <g id="xtick_12">
     <g id="line2d_28">
      <g>
       <use style="stroke:#000000;stroke-width:0.8;" x="998.985256" xlink:href="#m2c798910f4" y="401.7816"/>
      </g>
     </g>
     <g id="text_25">
      <!-- 5 -->
      <g transform="translate(994.531506 419.419412)scale(0.14 -0.14)">
       <use xlink:href="#DejaVuSans-35"/>
      </g>
     </g>
    </g>
    <g id="text_26">
     <!-- Time (s) -->
     <g transform="translate(789.273804 436.968787)scale(0.14 -0.14)">
      <use xlink:href="#DejaVuSans-54"/>
      <use x="57.958984" xlink:href="#DejaVuSans-69"/>
      <use x="85.742188" xlink:href="#DejaVuSans-6d"/>
      <use x="183.154297" xlink:href="#DejaVuSans-65"/>
      <use x="244.677734" xlink:href="#DejaVuSans-20"/>
      <use x="276.464844" xlink:href="#DejaVuSans-28"/>
      <use x="315.478516" xlink:href="#DejaVuSans-73"/>
      <use x="367.578125" xlink:href="#DejaVuSans-29"/>
     </g>
    </g>
   </g>
   <g id="matplotlib.axis_4">
    <g id="ytick_8">
     <g id="line2d_29">
      <g>
       <use style="stroke:#000000;stroke-width:0.8;" x="618.756545" xlink:href="#m7f0f80397d" y="349.068112"/>
      </g>
     </g>
     <g id="text_27">
      <!-- 250 -->
      <g transform="translate(573.302483 354.387018)scale(0.14 -0.14)">
       <defs>
        <path d="M 678 2272 
L 4684 2272 
L 4684 1741 
L 678 1741 
L 678 2272 
z
" id="DejaVuSans-2212" transform="scale(0.015625)"/>
       </defs>
       <use xlink:href="#DejaVuSans-2212"/>
       <use x="83.789062" xlink:href="#DejaVuSans-32"/>
       <use x="147.412109" xlink:href="#DejaVuSans-35"/>
       <use x="211.035156" xlink:href="#DejaVuSans-30"/>
      </g>
     </g>
    </g>
    <g id="ytick_9">
     <g id="line2d_30">
      <g>
       <use style="stroke:#000000;stroke-width:0.8;" x="618.756545" xlink:href="#m7f0f80397d" y="293.249211"/>
      </g>
     </g>
     <g id="text_28">
      <!-- 200 -->
      <g transform="translate(573.302483 298.568118)scale(0.14 -0.14)">
       <use xlink:href="#DejaVuSans-2212"/>
       <use x="83.789062" xlink:href="#DejaVuSans-32"/>
       <use x="147.412109" xlink:href="#DejaVuSans-30"/>
       <use x="211.035156" xlink:href="#DejaVuSans-30"/>
      </g>
     </g>
    </g>
    <g id="ytick_10">
     <g id="line2d_31">
      <g>
       <use style="stroke:#000000;stroke-width:0.8;" x="618.756545" xlink:href="#m7f0f80397d" y="237.430311"/>
      </g>
     </g>
     <g id="text_29">
      <!-- 150 -->
      <g transform="translate(573.302483 242.749217)scale(0.14 -0.14)">
       <use xlink:href="#DejaVuSans-2212"/>
       <use x="83.789062" xlink:href="#DejaVuSans-31"/>
       <use x="147.412109" xlink:href="#DejaVuSans-35"/>
       <use x="211.035156" xlink:href="#DejaVuSans-30"/>
      </g>
     </g>
    </g>
    <g id="ytick_11">
     <g id="line2d_32">
      <g>
       <use style="stroke:#000000;stroke-width:0.8;" x="618.756545" xlink:href="#m7f0f80397d" y="181.61141"/>
      </g>
     </g>
     <g id="text_30">
      <!-- 100 -->
      <g transform="translate(573.302483 186.930317)scale(0.14 -0.14)">
       <use xlink:href="#DejaVuSans-2212"/>
       <use x="83.789062" xlink:href="#DejaVuSans-31"/>
       <use x="147.412109" xlink:href="#DejaVuSans-30"/>
       <use x="211.035156" xlink:href="#DejaVuSans-30"/>
      </g>
     </g>
    </g>
    <g id="ytick_12">
     <g id="line2d_33">
      <g>
       <use style="stroke:#000000;stroke-width:0.8;" x="618.756545" xlink:href="#m7f0f80397d" y="125.79251"/>
      </g>
     </g>
     <g id="text_31">
      <!-- 50 -->
      <g transform="translate(582.209983 131.111416)scale(0.14 -0.14)">
       <use xlink:href="#DejaVuSans-2212"/>
       <use x="83.789062" xlink:href="#DejaVuSans-35"/>
       <use x="147.412109" xlink:href="#DejaVuSans-30"/>
      </g>
     </g>
    </g>
    <g id="ytick_13">
     <g id="line2d_34">
      <g>
       <use style="stroke:#000000;stroke-width:0.8;" x="618.756545" xlink:href="#m7f0f80397d" y="69.973609"/>
      </g>
     </g>
     <g id="text_32">
      <!-- 0 -->
      <g transform="translate(602.849045 75.292515)scale(0.14 -0.14)">
       <use xlink:href="#DejaVuSans-30"/>
      </g>
     </g>
    </g>
    <g id="text_33">
     <!-- Torque (Nmm) -->
     <g transform="translate(566.39092 277.848919)rotate(-90)scale(0.14 -0.14)">
      <defs>
       <path d="M 947 1747 
Q 947 1113 1208 752 
Q 1469 391 1925 391 
Q 2381 391 2643 752 
Q 2906 1113 2906 1747 
Q 2906 2381 2643 2742 
Q 2381 3103 1925 3103 
Q 1469 3103 1208 2742 
Q 947 2381 947 1747 
z
M 2906 525 
Q 2725 213 2448 61 
Q 2172 -91 1784 -91 
Q 1150 -91 751 415 
Q 353 922 353 1747 
Q 353 2572 751 3078 
Q 1150 3584 1784 3584 
Q 2172 3584 2448 3432 
Q 2725 3281 2906 2969 
L 2906 3500 
L 3481 3500 
L 3481 -1331 
L 2906 -1331 
L 2906 525 
z
" id="DejaVuSans-71" transform="scale(0.015625)"/>
      </defs>
      <use xlink:href="#DejaVuSans-54"/>
      <use x="44.083984" xlink:href="#DejaVuSans-6f"/>
      <use x="105.265625" xlink:href="#DejaVuSans-72"/>
      <use x="144.628906" xlink:href="#DejaVuSans-71"/>
      <use x="208.105469" xlink:href="#DejaVuSans-75"/>
      <use x="271.484375" xlink:href="#DejaVuSans-65"/>
      <use x="333.007812" xlink:href="#DejaVuSans-20"/>
      <use x="364.794922" xlink:href="#DejaVuSans-28"/>
      <use x="403.808594" xlink:href="#DejaVuSans-4e"/>
      <use x="478.613281" xlink:href="#DejaVuSans-6d"/>
      <use x="576.025391" xlink:href="#DejaVuSans-6d"/>
      <use x="673.4375" xlink:href="#DejaVuSans-29"/>
     </g>
    </g>
   </g>
   <g id="line2d_35">
    <path clip-path="url(#p6c7908ea87)" d="M 636.84543 69.973609 
L 998.623116 69.973609 
L 998.623116 69.973609 
" style="fill:none;stroke:#1f77b4;stroke-linecap:square;stroke-width:1.5;"/>
   </g>
   <g id="line2d_36">
    <path clip-path="url(#p6c7908ea87)" d="M 636.84543 69.973609 
L 638.293989 69.973609 
L 638.656129 74.380589 
L 639.018269 74.362774 
L 639.380409 78.751938 
L 639.742548 78.718869 
L 640.104688 83.091499 
L 640.828968 83.048432 
L 643.001807 108.914054 
L 643.726086 108.842101 
L 645.174646 125.936043 
L 645.898925 125.852595 
L 646.261065 130.066005 
L 646.623205 130.066004 
L 646.985345 134.269748 
L 647.347485 134.269747 
L 647.709625 138.462642 
L 648.433904 129.795817 
L 648.796044 129.795816 
L 649.158184 125.396422 
L 649.520324 125.396421 
L 650.606743 112.364585 
L 650.968883 112.364586 
L 651.331023 107.996168 
L 651.693163 107.996169 
L 652.055302 103.653219 
L 653.141722 116.131067 
L 653.503862 116.000451 
L 653.866002 120.184709 
L 654.228141 120.06599 
L 654.590281 128.414721 
L 655.314561 128.300968 
L 655.676701 132.367647 
L 656.038841 132.367647 
L 656.40098 136.439013 
L 656.76312 136.439013 
L 657.12526 140.514108 
L 657.4874 140.514107 
L 657.84954 144.591758 
L 658.573819 136.217492 
L 658.935959 136.217493 
L 659.660239 127.837319 
L 660.384518 127.720786 
L 660.746658 123.478363 
L 661.108798 123.478363 
L 661.470938 119.249415 
L 661.833078 119.249415 
L 663.281637 135.421733 
L 664.005917 135.331087 
L 664.368057 139.345961 
L 664.730196 139.345961 
L 665.092336 143.378111 
L 665.454476 143.378112 
L 665.816616 147.424675 
L 666.178756 147.424675 
L 667.265175 159.629648 
L 667.627315 159.629646 
L 667.989455 163.712498 
L 668.351595 163.712499 
L 668.713734 167.802913 
L 669.075874 167.802913 
L 669.438014 171.900593 
L 669.800154 171.900594 
L 670.162294 167.823535 
L 670.524434 167.823512 
L 671.610853 155.469906 
L 671.972993 155.469906 
L 672.335133 159.429303 
L 672.697273 159.429304 
L 673.059412 163.404202 
L 673.421552 163.404201 
L 673.783692 167.408619 
L 674.145832 167.408619 
L 674.507972 171.444313 
L 674.870111 171.444312 
L 675.232251 175.505833 
L 675.594391 175.505834 
L 675.956531 179.584396 
L 676.318671 179.584396 
L 676.680811 183.679054 
L 677.04295 183.679053 
L 677.76723 191.842842 
L 678.12937 191.890686 
L 678.85365 200.078328 
L 679.215789 200.078331 
L 679.577929 196.04701 
L 679.940069 196.047008 
L 680.302209 191.958641 
L 680.664349 191.958643 
L 681.026488 187.826193 
L 681.388628 187.826193 
L 681.750768 183.660871 
L 682.112908 183.660871 
L 682.475048 179.478789 
L 682.837188 179.478789 
L 683.199327 175.283588 
L 683.561467 175.283588 
L 683.923607 179.181648 
L 684.285747 179.181646 
L 684.647887 183.109573 
L 685.010027 183.109572 
L 685.372166 187.086232 
L 685.734306 187.086232 
L 686.096446 191.111211 
L 686.458586 191.111211 
L 687.545005 203.293632 
L 687.907145 203.293633 
L 688.269285 207.400908 
L 688.631425 207.400907 
L 688.993565 211.51671 
L 689.355704 211.516711 
L 689.717844 215.638172 
L 690.079984 215.638172 
L 690.442124 211.629622 
L 690.804264 211.629622 
L 691.166404 207.555845 
L 691.528543 207.555845 
L 691.890683 203.4277 
L 692.252823 203.4277 
L 692.614963 199.265074 
L 692.977103 199.265075 
L 693.339243 195.085865 
L 693.701382 195.085866 
L 694.063522 190.9007 
L 694.425662 190.900702 
L 694.787802 194.784883 
L 695.149942 194.784884 
L 695.512082 198.680242 
L 695.874221 198.680242 
L 696.960641 210.642817 
L 697.322781 210.642817 
L 697.68492 214.697421 
L 698.04706 214.69742 
L 698.4092 218.781932 
L 698.77134 218.781931 
L 699.49562 226.906333 
L 700.219899 226.988164 
L 700.582039 231.098978 
L 700.944179 231.09898 
L 701.306319 227.113874 
L 701.668459 227.113872 
L 702.030598 223.051619 
L 702.392738 223.051619 
L 702.754878 218.929662 
L 703.117018 218.92966 
L 703.479158 214.771179 
L 703.841298 214.771179 
L 704.203437 210.594479 
L 704.565577 210.59448 
L 704.927717 206.413138 
L 705.651997 214.305857 
L 706.014136 214.305859 
L 706.376276 218.252083 
L 706.738416 218.25208 
L 707.100556 222.256942 
L 707.462696 222.256941 
L 707.824836 226.296605 
L 708.186975 226.296603 
L 708.549115 230.360271 
L 708.911255 230.360271 
L 709.273395 234.434451 
L 709.635535 234.434453 
L 709.997675 238.516997 
L 710.359814 238.516998 
L 710.721954 242.60697 
L 711.084094 242.60697 
L 711.446234 246.706616 
L 711.808374 246.706616 
L 712.170514 242.732141 
L 712.532653 242.732139 
L 712.894793 238.675662 
L 713.256933 238.675663 
L 713.619073 234.554259 
L 713.981213 234.55426 
L 714.343352 230.389354 
L 714.705492 230.389354 
L 715.067632 226.145115 
L 715.429772 226.145115 
L 715.791912 221.876634 
L 716.154052 221.876635 
L 716.516191 225.665379 
L 716.878331 225.665377 
L 717.240471 229.554554 
L 717.602611 229.554554 
L 717.964751 233.534217 
L 718.326891 233.534216 
L 719.41331 245.623355 
L 719.77545 245.623356 
L 720.13759 249.711695 
L 720.49973 249.711693 
L 720.861869 253.804286 
L 721.224009 253.804287 
L 721.586149 257.900913 
L 721.948289 257.900913 
L 722.310429 262.00134 
L 722.672568 258.000764 
L 723.396848 258.053532 
L 723.758988 254.014089 
L 724.121128 254.014091 
L 724.483268 249.902827 
L 724.845407 249.902829 
L 725.207547 245.749389 
L 725.569687 245.749392 
L 725.931827 241.577729 
L 726.293967 241.57773 
L 726.656107 237.400086 
L 727.018246 237.40009 
L 727.380386 233.167485 
L 727.742526 233.167485 
L 728.104666 236.881356 
L 728.466806 236.881359 
L 728.828945 240.686293 
L 729.191085 240.686292 
L 729.553225 244.603923 
L 729.915365 244.603921 
L 730.277505 248.604462 
L 730.639645 248.604461 
L 731.001784 252.645432 
L 731.363924 252.64543 
L 731.726064 256.700896 
L 732.088204 256.700899 
L 732.450344 260.763338 
L 732.812484 260.763339 
L 733.536763 268.801748 
L 733.898903 268.899799 
L 734.261043 272.878328 
L 734.623183 272.987007 
L 734.985323 269.006354 
L 735.709602 269.06112 
L 736.796022 256.9594 
L 737.158161 256.9594 
L 737.520301 252.776456 
L 737.882441 252.776461 
L 738.244581 248.55037 
L 738.606721 248.550371 
L 738.968861 244.334956 
L 739.331 244.334956 
L 739.69314 248.115214 
L 740.05528 248.115215 
L 740.41742 251.993202 
L 740.77956 251.993203 
L 741.1417 255.948672 
L 741.503839 255.948673 
L 741.865979 259.947698 
L 742.228119 259.947698 
L 742.590259 263.966123 
L 742.952399 263.966121 
L 743.314539 267.995134 
L 743.676678 267.995132 
L 744.038818 272.03652 
L 744.400958 272.03652 
L 744.763098 276.090287 
L 745.125238 276.090285 
L 745.487377 280.159172 
L 745.849517 280.159171 
L 746.211657 284.242315 
L 746.573797 284.242314 
L 746.935937 280.332068 
L 747.298077 280.332066 
L 747.660216 276.319979 
L 748.022356 276.319981 
L 748.384496 272.225317 
L 748.746636 272.225317 
L 749.108776 268.083406 
L 749.470916 268.083405 
L 749.833055 263.821974 
L 750.195195 263.821975 
L 750.557335 259.512928 
L 750.919475 259.512927 
L 751.281615 263.207225 
L 751.643755 263.207223 
L 752.005894 267.065471 
L 752.368034 267.065477 
L 752.730174 271.040309 
L 753.092314 271.040311 
L 753.454454 275.067402 
L 753.816593 275.067401 
L 754.178733 279.103009 
L 754.540873 279.10301 
L 755.627293 291.151514 
L 755.989432 291.151513 
L 756.351572 295.244081 
L 756.713712 295.244078 
L 757.075852 299.350485 
L 757.437992 299.350486 
L 757.800132 295.476208 
L 758.162271 295.476212 
L 758.524411 291.482539 
L 758.886551 291.482538 
L 759.248691 287.397471 
L 759.610831 287.397471 
L 759.972971 283.268813 
L 760.33511 283.268811 
L 760.69725 279.121743 
L 761.05939 279.121742 
L 761.42153 274.969945 
L 761.78367 274.969946 
L 762.145809 270.815027 
L 762.507949 270.815024 
L 762.870089 274.587802 
L 763.232229 274.587804 
L 763.594369 278.457525 
L 763.956509 278.457522 
L 764.318648 282.40527 
L 764.680788 282.405269 
L 765.042928 286.395959 
L 765.405068 286.395958 
L 765.767208 290.407725 
L 766.129348 290.407723 
L 766.491487 294.431731 
L 766.853627 294.431729 
L 767.215767 298.470056 
L 767.577907 298.470054 
L 767.940047 302.52388 
L 768.302187 302.523883 
L 768.664326 306.594036 
L 769.026466 306.594034 
L 769.388606 302.713322 
L 769.750746 302.713317 
L 770.112886 298.710927 
L 770.475025 298.710918 
L 770.837165 294.623762 
L 771.199305 294.623762 
L 771.561445 290.46654 
L 771.923585 290.466538 
L 772.285725 286.144449 
L 772.647864 286.144448 
L 773.010004 281.818896 
L 773.372144 289.665018 
L 773.734284 289.444641 
L 774.096424 289.444639 
L 774.458564 293.354471 
L 774.820703 293.354473 
L 775.544983 301.294629 
L 775.907123 301.415262 
L 776.269263 301.415261 
L 776.631403 305.441886 
L 776.993542 305.441887 
L 777.355682 309.472432 
L 777.717822 309.472437 
L 778.079962 313.513742 
L 778.442102 313.51374 
L 778.804241 317.576631 
L 779.166381 317.576632 
L 779.528521 313.714527 
L 779.890661 313.71453 
L 780.252801 309.725544 
L 780.614941 309.725548 
L 780.97708 305.64659 
L 781.33922 305.646591 
L 781.70136 301.52657 
L 782.0635 301.526573 
L 782.42564 297.391717 
L 782.78778 297.391718 
L 783.512059 289.334297 
L 784.598479 300.730664 
L 784.960618 300.730664 
L 785.322758 304.634794 
L 785.684898 304.63479 
L 786.047038 308.631638 
L 786.409178 316.456489 
L 786.771318 316.597368 
L 787.133457 316.597366 
L 787.857737 324.588768 
L 788.219877 320.763521 
L 788.582017 320.763525 
L 789.668436 308.792778 
L 790.030576 308.792776 
L 791.116996 296.232994 
L 791.479135 296.232998 
L 792.565555 307.288177 
L 792.927695 307.288178 
L 794.014114 319.256381 
L 794.376254 319.256383 
L 795.462673 331.30281 
L 795.824813 331.302809 
L 796.186953 335.383995 
L 796.911233 327.607176 
L 797.273373 327.607174 
L 798.359792 315.49374 
L 798.721932 315.493741 
L 799.808351 303.188482 
L 800.170491 303.188479 
L 800.532631 306.819927 
L 800.894771 306.819932 
L 801.256911 314.489884 
L 801.61905 314.48988 
L 801.98119 318.422508 
L 802.34333 318.422513 
L 803.42975 330.336563 
L 803.791889 330.336561 
L 804.154029 334.384716 
L 804.878309 326.612366 
L 805.240449 326.612366 
L 806.326868 314.495172 
L 806.689008 314.495168 
L 807.051148 310.106515 
L 807.775428 317.386392 
L 808.137567 317.386396 
L 809.586127 332.884292 
L 809.948266 333.12041 
L 811.396826 349.010443 
L 811.758966 345.13493 
L 812.483245 345.245327 
L 812.845385 337.474086 
L 813.207525 337.474086 
L 813.569665 333.41654 
L 813.931805 333.416543 
L 814.293944 329.272897 
L 814.656084 321.532622 
L 815.018224 321.220961 
L 815.380364 317.35562 
L 815.742504 317.030973 
L 816.828923 328.426745 
L 817.191063 328.433371 
L 817.915343 336.268073 
L 818.277482 336.268073 
L 819.001762 344.139241 
L 819.363902 344.276034 
L 819.726042 352.006338 
L 820.088182 352.175184 
L 820.812461 344.550659 
L 821.174601 344.55066 
L 821.536741 340.564687 
L 821.898881 340.564689 
L 823.34744 324.547811 
L 823.70958 324.223539 
L 824.43386 331.50117 
L 824.795999 331.501168 
L 826.244559 346.568116 
L 826.606698 346.787847 
L 826.968838 354.477135 
L 827.330978 354.744314 
L 827.693118 358.592569 
L 828.055258 358.818909 
L 828.417398 358.818916 
L 829.141677 358.932487 
L 830.228097 347.143852 
L 830.590237 347.143854 
L 831.676656 335.014365 
L 832.038796 335.01437 
L 832.400936 330.843541 
L 833.125215 338.345133 
L 833.487355 338.345128 
L 833.849495 342.200677 
L 834.211635 349.86905 
L 834.573775 350.000569 
L 834.935914 353.836554 
L 835.298054 353.993376 
L 836.022334 361.852107 
L 836.384474 361.85211 
L 836.746614 365.899743 
L 837.108753 365.899741 
L 837.470893 358.310054 
L 837.833033 358.310052 
L 838.195173 354.323175 
L 838.557313 354.323184 
L 838.919453 346.368245 
L 839.281592 346.368256 
L 839.643732 342.214376 
L 840.005872 342.214375 
L 840.368012 338.056664 
L 841.454431 349.392449 
L 841.816571 349.43443 
L 842.178711 357.0909 
L 842.540851 357.234243 
L 842.902991 357.234248 
L 843.98941 369.081456 
L 844.35155 369.08146 
L 844.71369 373.134685 
L 845.437969 365.484513 
L 845.800109 365.484509 
L 846.162249 361.468543 
L 846.524389 353.79762 
L 846.886529 353.50758 
L 847.248669 353.507579 
L 847.610808 349.364831 
L 847.972948 341.710278 
L 848.335088 341.31234 
L 848.697228 341.312344 
L 849.059368 348.286219 
L 849.421507 352.098716 
L 849.783647 351.761829 
L 850.145787 355.569778 
L 850.507927 355.675332 
L 851.594346 367.391116 
L 851.956486 367.618992 
L 852.680766 375.43786 
L 853.042906 375.437862 
L 853.405046 379.4679 
L 854.129325 371.864642 
L 854.491465 371.864649 
L 854.853605 367.88123 
L 855.215745 367.881231 
L 855.577885 360.036196 
L 855.940024 356.219583 
L 856.302164 355.949171 
L 856.664304 352.136162 
L 857.026444 355.628584 
L 857.388584 355.628584 
L 858.112863 363.095154 
L 858.475003 363.15526 
L 858.837143 370.770369 
L 859.199283 370.922059 
L 859.923562 378.732556 
L 860.285702 378.732559 
L 860.647842 382.748973 
L 861.009982 382.748977 
L 862.096401 371.263095 
L 862.458541 371.263093 
L 863.544961 359.235587 
L 863.907101 359.23559 
L 864.26924 355.111105 
L 864.99352 362.575312 
L 865.35566 362.575312 
L 866.442079 374.19572 
L 866.804219 374.195716 
L 867.890639 385.981193 
L 868.252778 385.9812 
L 868.614918 382.28216 
L 868.977058 374.664881 
L 869.339198 374.515198 
L 869.701338 374.5152 
L 870.063478 370.433848 
L 870.425617 362.827265 
L 870.787757 362.509408 
L 871.149897 362.50941 
L 871.512037 358.44199 
L 871.874177 366.033264 
L 872.598456 366.082801 
L 872.960596 370.169344 
L 873.322736 370.169355 
L 873.684876 374.259973 
L 874.047016 381.86713 
L 874.409155 382.214311 
L 875.495575 371.069894 
L 876.219855 371.130453 
L 876.581994 367.251892 
L 876.944134 359.629373 
L 877.306274 359.528906 
L 878.030554 351.8099 
L 878.392694 351.809905 
L 879.116973 344.059676 
L 879.479113 347.706567 
L 879.841253 347.70657 
L 880.203393 351.545574 
L 880.565532 351.545573 
L 880.927672 351.787165 
L 881.289812 351.787164 
L 881.651952 348.113231 
L 882.014092 348.113251 
L 883.100511 336.471903 
L 883.462651 336.471903 
L 883.824791 328.707394 
L 884.186931 328.70739 
L 884.549071 324.764075 
L 884.91121 324.764075 
L 886.35977 309.235631 
L 886.72191 309.043658 
L 887.446189 316.627753 
L 887.808329 312.833074 
L 888.170469 312.926812 
L 888.894748 305.303875 
L 889.256888 305.303877 
L 889.619028 297.565509 
L 889.981168 297.565509 
L 890.343308 293.592313 
L 890.705448 293.592318 
L 891.067587 289.638687 
L 891.429727 289.638683 
L 893.240426 270.261405 
L 893.602566 270.261403 
L 893.964706 266.303279 
L 895.051126 266.201337 
L 895.413265 262.371935 
L 895.775405 262.371934 
L 896.137545 254.723723 
L 896.499685 254.723725 
L 897.948244 239.33548 
L 898.310384 239.172253 
L 898.672524 239.172253 
L 899.034664 231.501162 
L 899.396803 231.501157 
L 899.758943 227.590655 
L 900.121083 227.590654 
L 901.207503 216.024517 
L 901.569642 216.024517 
L 901.931782 208.382261 
L 902.293922 208.382262 
L 903.380342 196.871826 
L 903.742481 196.871826 
L 904.466761 189.267142 
L 904.828901 189.12489 
L 905.191041 181.677936 
L 905.55318 181.542044 
L 905.91532 181.542046 
L 906.27746 177.690401 
L 906.6396 170.261658 
L 907.00174 170.13407 
L 907.36388 170.134069 
L 907.726019 162.596941 
L 908.088159 158.892009 
L 908.450299 158.774577 
L 908.812439 155.074536 
L 909.536719 154.961534 
L 909.898858 147.47338 
L 910.260998 147.473379 
L 910.623138 143.685705 
L 910.985278 143.685705 
L 911.347418 136.225691 
L 911.709558 132.54502 
L 912.433837 132.457838 
L 912.795977 128.698853 
L 913.158117 121.3582 
L 913.882396 121.284665 
L 914.244536 113.889959 
L 914.606676 113.88996 
L 914.968816 110.170032 
L 915.330956 110.170031 
L 916.417375 99.117334 
L 916.779515 99.117334 
L 917.141655 91.796979 
L 917.503795 91.796978 
L 918.590214 80.849735 
L 918.952354 80.849735 
L 920.038774 69.973609 
L 921.125193 69.973609 
L 921.487333 77.157686 
L 921.849473 77.157686 
L 922.211612 80.749354 
L 922.935892 80.765463 
L 923.298032 77.168178 
L 924.022312 77.178896 
L 924.384451 69.973609 
L 998.623116 69.973609 
L 998.623116 69.973609 
" style="fill:none;stroke:#ff7f0e;stroke-linecap:square;stroke-width:1.5;"/>
   </g>
   <g id="line2d_37">
    <path clip-path="url(#p6c7908ea87)" d="M 636.84543 69.973609 
L 998.623116 69.973609 
L 998.623116 69.973609 
" style="fill:none;stroke:#2ca02c;stroke-linecap:square;stroke-width:1.5;"/>
   </g>
   <g id="patch_9">
    <path d="M 618.756545 401.7816 
L 618.756545 54.1728 
" style="fill:none;stroke:#000000;stroke-linecap:square;stroke-linejoin:miter;stroke-width:0.8;"/>
   </g>
   <g id="patch_10">
    <path d="M 1016.712 401.7816 
L 1016.712 54.1728 
" style="fill:none;stroke:#000000;stroke-linecap:square;stroke-linejoin:miter;stroke-width:0.8;"/>
   </g>
   <g id="patch_11">
    <path d="M 618.756545 401.7816 
L 1016.712 401.7816 
" style="fill:none;stroke:#000000;stroke-linecap:square;stroke-linejoin:miter;stroke-width:0.8;"/>
   </g>
   <g id="patch_12">
    <path d="M 618.756545 54.1728 
L 1016.712 54.1728 
" style="fill:none;stroke:#000000;stroke-linecap:square;stroke-linejoin:miter;stroke-width:0.8;"/>
   </g>
   <g id="text_34">
    <!-- Torques for forces with compromised muscle function -->
    <g transform="translate(593.088085 48.1728)scale(0.168 -0.168)">
     <use xlink:href="#DejaVuSans-54"/>
     <use x="44.083984" xlink:href="#DejaVuSans-6f"/>
     <use x="105.265625" xlink:href="#DejaVuSans-72"/>
     <use x="144.628906" xlink:href="#DejaVuSans-71"/>
     <use x="208.105469" xlink:href="#DejaVuSans-75"/>
     <use x="271.484375" xlink:href="#DejaVuSans-65"/>
     <use x="333.007812" xlink:href="#DejaVuSans-73"/>
     <use x="385.107422" xlink:href="#DejaVuSans-20"/>
     <use x="416.894531" xlink:href="#DejaVuSans-66"/>
     <use x="452.099609" xlink:href="#DejaVuSans-6f"/>
     <use x="513.28125" xlink:href="#DejaVuSans-72"/>
     <use x="554.394531" xlink:href="#DejaVuSans-20"/>
     <use x="586.181641" xlink:href="#DejaVuSans-66"/>
     <use x="621.386719" xlink:href="#DejaVuSans-6f"/>
     <use x="682.568359" xlink:href="#DejaVuSans-72"/>
     <use x="721.431641" xlink:href="#DejaVuSans-63"/>
     <use x="776.412109" xlink:href="#DejaVuSans-65"/>
     <use x="837.935547" xlink:href="#DejaVuSans-73"/>
     <use x="890.035156" xlink:href="#DejaVuSans-20"/>
     <use x="921.822266" xlink:href="#DejaVuSans-77"/>
     <use x="1003.609375" xlink:href="#DejaVuSans-69"/>
     <use x="1031.392578" xlink:href="#DejaVuSans-74"/>
     <use x="1070.601562" xlink:href="#DejaVuSans-68"/>
     <use x="1133.980469" xlink:href="#DejaVuSans-20"/>
     <use x="1165.767578" xlink:href="#DejaVuSans-63"/>
     <use x="1220.748047" xlink:href="#DejaVuSans-6f"/>
     <use x="1281.929688" xlink:href="#DejaVuSans-6d"/>
     <use x="1379.341797" xlink:href="#DejaVuSans-70"/>
     <use x="1442.818359" xlink:href="#DejaVuSans-72"/>
     <use x="1481.681641" xlink:href="#DejaVuSans-6f"/>
     <use x="1542.863281" xlink:href="#DejaVuSans-6d"/>
     <use x="1640.275391" xlink:href="#DejaVuSans-69"/>
     <use x="1668.058594" xlink:href="#DejaVuSans-73"/>
     <use x="1720.158203" xlink:href="#DejaVuSans-65"/>
     <use x="1781.681641" xlink:href="#DejaVuSans-64"/>
     <use x="1845.158203" xlink:href="#DejaVuSans-20"/>
     <use x="1876.945312" xlink:href="#DejaVuSans-6d"/>
     <use x="1974.357422" xlink:href="#DejaVuSans-75"/>
     <use x="2037.736328" xlink:href="#DejaVuSans-73"/>
     <use x="2089.835938" xlink:href="#DejaVuSans-63"/>
     <use x="2144.816406" xlink:href="#DejaVuSans-6c"/>
     <use x="2172.599609" xlink:href="#DejaVuSans-65"/>
     <use x="2234.123047" xlink:href="#DejaVuSans-20"/>
     <use x="2265.910156" xlink:href="#DejaVuSans-66"/>
     <use x="2301.115234" xlink:href="#DejaVuSans-75"/>
     <use x="2364.494141" xlink:href="#DejaVuSans-6e"/>
     <use x="2427.873047" xlink:href="#DejaVuSans-63"/>
     <use x="2482.853516" xlink:href="#DejaVuSans-74"/>
     <use x="2522.0625" xlink:href="#DejaVuSans-69"/>
     <use x="2549.845703" xlink:href="#DejaVuSans-6f"/>
     <use x="2611.027344" xlink:href="#DejaVuSans-6e"/>
    </g>
   </g>
   <g id="legend_2">
    <g id="patch_13">
     <path d="M 628.556545 394.7816 
L 731.351545 394.7816 
Q 734.151545 394.7816 734.151545 391.9816 
L 734.151545 331.733475 
Q 734.151545 328.933475 731.351545 328.933475 
L 628.556545 328.933475 
Q 625.756545 328.933475 625.756545 331.733475 
L 625.756545 391.9816 
Q 625.756545 394.7816 628.556545 394.7816 
z
" style="fill:#ffffff;opacity:0.8;stroke:#cccccc;stroke-linejoin:miter;"/>
    </g>
    <g id="line2d_38">
     <path d="M 631.356545 340.271287 
L 659.356545 340.271287 
" style="fill:none;stroke:#1f77b4;stroke-linecap:square;stroke-width:1.5;"/>
    </g>
    <g id="line2d_39"/>
    <g id="text_35">
     <!-- in x axis -->
     <g transform="translate(670.556545 345.171287)scale(0.14 -0.14)">
      <defs>
       <path d="M 3513 3500 
L 2247 1797 
L 3578 0 
L 2900 0 
L 1881 1375 
L 863 0 
L 184 0 
L 1544 1831 
L 300 3500 
L 978 3500 
L 1906 2253 
L 2834 3500 
L 3513 3500 
z
" id="DejaVuSans-78" transform="scale(0.015625)"/>
      </defs>
      <use xlink:href="#DejaVuSans-69"/>
      <use x="27.783203" xlink:href="#DejaVuSans-6e"/>
      <use x="91.162109" xlink:href="#DejaVuSans-20"/>
      <use x="122.949219" xlink:href="#DejaVuSans-78"/>
      <use x="182.128906" xlink:href="#DejaVuSans-20"/>
      <use x="213.916016" xlink:href="#DejaVuSans-61"/>
      <use x="275.195312" xlink:href="#DejaVuSans-78"/>
      <use x="334.375" xlink:href="#DejaVuSans-69"/>
      <use x="362.158203" xlink:href="#DejaVuSans-73"/>
     </g>
    </g>
    <g id="line2d_40">
     <path d="M 631.356545 360.820662 
L 659.356545 360.820662 
" style="fill:none;stroke:#ff7f0e;stroke-linecap:square;stroke-width:1.5;"/>
    </g>
    <g id="line2d_41"/>
    <g id="text_36">
     <!-- in y axis -->
     <g transform="translate(670.556545 365.720662)scale(0.14 -0.14)">
      <defs>
       <path d="M 2059 -325 
Q 1816 -950 1584 -1140 
Q 1353 -1331 966 -1331 
L 506 -1331 
L 506 -850 
L 844 -850 
Q 1081 -850 1212 -737 
Q 1344 -625 1503 -206 
L 1606 56 
L 191 3500 
L 800 3500 
L 1894 763 
L 2988 3500 
L 3597 3500 
L 2059 -325 
z
" id="DejaVuSans-79" transform="scale(0.015625)"/>
      </defs>
      <use xlink:href="#DejaVuSans-69"/>
      <use x="27.783203" xlink:href="#DejaVuSans-6e"/>
      <use x="91.162109" xlink:href="#DejaVuSans-20"/>
      <use x="122.949219" xlink:href="#DejaVuSans-79"/>
      <use x="182.128906" xlink:href="#DejaVuSans-20"/>
      <use x="213.916016" xlink:href="#DejaVuSans-61"/>
      <use x="275.195312" xlink:href="#DejaVuSans-78"/>
      <use x="334.375" xlink:href="#DejaVuSans-69"/>
      <use x="362.158203" xlink:href="#DejaVuSans-73"/>
     </g>
    </g>
    <g id="line2d_42">
     <path d="M 631.356545 381.370037 
L 659.356545 381.370037 
" style="fill:none;stroke:#2ca02c;stroke-linecap:square;stroke-width:1.5;"/>
    </g>
    <g id="line2d_43"/>
    <g id="text_37">
     <!-- in z axis -->
     <g transform="translate(670.556545 386.270037)scale(0.14 -0.14)">
      <use xlink:href="#DejaVuSans-69"/>
      <use x="27.783203" xlink:href="#DejaVuSans-6e"/>
      <use x="91.162109" xlink:href="#DejaVuSans-20"/>
      <use x="122.949219" xlink:href="#DejaVuSans-7a"/>
      <use x="175.439453" xlink:href="#DejaVuSans-20"/>
      <use x="207.226562" xlink:href="#DejaVuSans-61"/>
      <use x="268.505859" xlink:href="#DejaVuSans-78"/>
      <use x="327.685547" xlink:href="#DejaVuSans-69"/>
      <use x="355.46875" xlink:href="#DejaVuSans-73"/>
     </g>
    </g>
   </g>
  </g>
 </g>
 <defs>
  <clipPath id="p7b39b357ac">
   <rect height="347.6088" width="397.955455" x="141.21" y="54.1728"/>
  </clipPath>
  <clipPath id="p6c7908ea87">
   <rect height="347.6088" width="397.955455" x="618.756545" y="54.1728"/>
  </clipPath>
 </defs>
</svg>
