<?xml version="1.0" encoding="utf-8" standalone="no"?>
<!DOCTYPE svg PUBLIC "-//W3C//DTD SVG 1.1//EN"
  "http://www.w3.org/Graphics/SVG/1.1/DTD/svg11.dtd">
<svg height="406.08pt" version="1.1" viewBox="0 0 1015.92 406.08" width="1015.92pt" xmlns="http://www.w3.org/2000/svg" xmlns:xlink="http://www.w3.org/1999/xlink">
 <metadata>
  <rdf:RDF xmlns:cc="http://creativecommons.org/ns#" xmlns:dc="http://purl.org/dc/elements/1.1/" xmlns:rdf="http://www.w3.org/1999/02/22-rdf-syntax-ns#">
   <cc:Work>
    <dc:type rdf:resource="http://purl.org/dc/dcmitype/StillImage"/>
    <dc:date>2021-05-06T17:36:10.168752</dc:date>
    <dc:format>image/svg+xml</dc:format>
    <dc:creator>
     <cc:Agent>
      <dc:title>Matplotlib v3.4.1, https://matplotlib.org/</dc:title>
     </cc:Agent>
    </dc:creator>
   </cc:Work>
  </rdf:RDF>
 </metadata>
 <defs>
  <style type="text/css">*{stroke-linecap:butt;stroke-linejoin:round;}</style>
 </defs>
 <g id="figure_1">
  <g id="patch_1">
   <path d="M 0 406.08 
L 1015.92 406.08 
L 1015.92 0 
L 0 0 
z
" style="fill:#ffffff;"/>
  </g>
  <g id="axes_1">
   <g id="patch_2">
    <path d="M 126.99 361.4112 
L 484.870909 361.4112 
L 484.870909 48.7296 
L 126.99 48.7296 
z
" style="fill:#ffffff;"/>
   </g>
   <g id="matplotlib.axis_1">
    <g id="xtick_1">
     <g id="line2d_1">
      <defs>
       <path d="M 0 0 
L 0 3.5 
" id="m5576f00ec6" style="stroke:#000000;stroke-width:0.8;"/>
      </defs>
      <g>
       <use style="stroke:#000000;stroke-width:0.8;" x="143.257314" xlink:href="#m5576f00ec6" y="361.4112"/>
      </g>
     </g>
     <g id="text_1">
      <!-- 0 -->
      <g transform="translate(138.803564 379.049013)scale(0.14 -0.14)">
       <defs>
        <path d="M 2034 4250 
Q 1547 4250 1301 3770 
Q 1056 3291 1056 2328 
Q 1056 1369 1301 889 
Q 1547 409 2034 409 
Q 2525 409 2770 889 
Q 3016 1369 3016 2328 
Q 3016 3291 2770 3770 
Q 2525 4250 2034 4250 
z
M 2034 4750 
Q 2819 4750 3233 4129 
Q 3647 3509 3647 2328 
Q 3647 1150 3233 529 
Q 2819 -91 2034 -91 
Q 1250 -91 836 529 
Q 422 1150 422 2328 
Q 422 3509 836 4129 
Q 1250 4750 2034 4750 
z
" id="DejaVuSans-30" transform="scale(0.015625)"/>
       </defs>
       <use xlink:href="#DejaVuSans-30"/>
      </g>
     </g>
    </g>
    <g id="xtick_2">
     <g id="line2d_2">
      <g>
       <use style="stroke:#000000;stroke-width:0.8;" x="208.391705" xlink:href="#m5576f00ec6" y="361.4112"/>
      </g>
     </g>
     <g id="text_2">
      <!-- 1 -->
      <g transform="translate(203.937955 379.049013)scale(0.14 -0.14)">
       <defs>
        <path d="M 794 531 
L 1825 531 
L 1825 4091 
L 703 3866 
L 703 4441 
L 1819 4666 
L 2450 4666 
L 2450 531 
L 3481 531 
L 3481 0 
L 794 0 
L 794 531 
z
" id="DejaVuSans-31" transform="scale(0.015625)"/>
       </defs>
       <use xlink:href="#DejaVuSans-31"/>
      </g>
     </g>
    </g>
    <g id="xtick_3">
     <g id="line2d_3">
      <g>
       <use style="stroke:#000000;stroke-width:0.8;" x="273.526095" xlink:href="#m5576f00ec6" y="361.4112"/>
      </g>
     </g>
     <g id="text_3">
      <!-- 2 -->
      <g transform="translate(269.072345 379.049013)scale(0.14 -0.14)">
       <defs>
        <path d="M 1228 531 
L 3431 531 
L 3431 0 
L 469 0 
L 469 531 
Q 828 903 1448 1529 
Q 2069 2156 2228 2338 
Q 2531 2678 2651 2914 
Q 2772 3150 2772 3378 
Q 2772 3750 2511 3984 
Q 2250 4219 1831 4219 
Q 1534 4219 1204 4116 
Q 875 4013 500 3803 
L 500 4441 
Q 881 4594 1212 4672 
Q 1544 4750 1819 4750 
Q 2544 4750 2975 4387 
Q 3406 4025 3406 3419 
Q 3406 3131 3298 2873 
Q 3191 2616 2906 2266 
Q 2828 2175 2409 1742 
Q 1991 1309 1228 531 
z
" id="DejaVuSans-32" transform="scale(0.015625)"/>
       </defs>
       <use xlink:href="#DejaVuSans-32"/>
      </g>
     </g>
    </g>
    <g id="xtick_4">
     <g id="line2d_4">
      <g>
       <use style="stroke:#000000;stroke-width:0.8;" x="338.660486" xlink:href="#m5576f00ec6" y="361.4112"/>
      </g>
     </g>
     <g id="text_4">
      <!-- 3 -->
      <g transform="translate(334.206736 379.049013)scale(0.14 -0.14)">
       <defs>
        <path d="M 2597 2516 
Q 3050 2419 3304 2112 
Q 3559 1806 3559 1356 
Q 3559 666 3084 287 
Q 2609 -91 1734 -91 
Q 1441 -91 1130 -33 
Q 819 25 488 141 
L 488 750 
Q 750 597 1062 519 
Q 1375 441 1716 441 
Q 2309 441 2620 675 
Q 2931 909 2931 1356 
Q 2931 1769 2642 2001 
Q 2353 2234 1838 2234 
L 1294 2234 
L 1294 2753 
L 1863 2753 
Q 2328 2753 2575 2939 
Q 2822 3125 2822 3475 
Q 2822 3834 2567 4026 
Q 2313 4219 1838 4219 
Q 1578 4219 1281 4162 
Q 984 4106 628 3988 
L 628 4550 
Q 988 4650 1302 4700 
Q 1616 4750 1894 4750 
Q 2613 4750 3031 4423 
Q 3450 4097 3450 3541 
Q 3450 3153 3228 2886 
Q 3006 2619 2597 2516 
z
" id="DejaVuSans-33" transform="scale(0.015625)"/>
       </defs>
       <use xlink:href="#DejaVuSans-33"/>
      </g>
     </g>
    </g>
    <g id="xtick_5">
     <g id="line2d_5">
      <g>
       <use style="stroke:#000000;stroke-width:0.8;" x="403.794876" xlink:href="#m5576f00ec6" y="361.4112"/>
      </g>
     </g>
     <g id="text_5">
      <!-- 4 -->
      <g transform="translate(399.341126 379.049013)scale(0.14 -0.14)">
       <defs>
        <path d="M 2419 4116 
L 825 1625 
L 2419 1625 
L 2419 4116 
z
M 2253 4666 
L 3047 4666 
L 3047 1625 
L 3713 1625 
L 3713 1100 
L 3047 1100 
L 3047 0 
L 2419 0 
L 2419 1100 
L 313 1100 
L 313 1709 
L 2253 4666 
z
" id="DejaVuSans-34" transform="scale(0.015625)"/>
       </defs>
       <use xlink:href="#DejaVuSans-34"/>
      </g>
     </g>
    </g>
    <g id="xtick_6">
     <g id="line2d_6">
      <g>
       <use style="stroke:#000000;stroke-width:0.8;" x="468.929267" xlink:href="#m5576f00ec6" y="361.4112"/>
      </g>
     </g>
     <g id="text_6">
      <!-- 5 -->
      <g transform="translate(464.475517 379.049013)scale(0.14 -0.14)">
       <defs>
        <path d="M 691 4666 
L 3169 4666 
L 3169 4134 
L 1269 4134 
L 1269 2991 
Q 1406 3038 1543 3061 
Q 1681 3084 1819 3084 
Q 2600 3084 3056 2656 
Q 3513 2228 3513 1497 
Q 3513 744 3044 326 
Q 2575 -91 1722 -91 
Q 1428 -91 1123 -41 
Q 819 9 494 109 
L 494 744 
Q 775 591 1075 516 
Q 1375 441 1709 441 
Q 2250 441 2565 725 
Q 2881 1009 2881 1497 
Q 2881 1984 2565 2268 
Q 2250 2553 1709 2553 
Q 1456 2553 1204 2497 
Q 953 2441 691 2322 
L 691 4666 
z
" id="DejaVuSans-35" transform="scale(0.015625)"/>
       </defs>
       <use xlink:href="#DejaVuSans-35"/>
      </g>
     </g>
    </g>
    <g id="text_7">
     <!-- Time (s) -->
     <g transform="translate(277.469986 396.598388)scale(0.14 -0.14)">
      <defs>
       <path d="M -19 4666 
L 3928 4666 
L 3928 4134 
L 2272 4134 
L 2272 0 
L 1638 0 
L 1638 4134 
L -19 4134 
L -19 4666 
z
" id="DejaVuSans-54" transform="scale(0.015625)"/>
       <path d="M 603 3500 
L 1178 3500 
L 1178 0 
L 603 0 
L 603 3500 
z
M 603 4863 
L 1178 4863 
L 1178 4134 
L 603 4134 
L 603 4863 
z
" id="DejaVuSans-69" transform="scale(0.015625)"/>
       <path d="M 3328 2828 
Q 3544 3216 3844 3400 
Q 4144 3584 4550 3584 
Q 5097 3584 5394 3201 
Q 5691 2819 5691 2113 
L 5691 0 
L 5113 0 
L 5113 2094 
Q 5113 2597 4934 2840 
Q 4756 3084 4391 3084 
Q 3944 3084 3684 2787 
Q 3425 2491 3425 1978 
L 3425 0 
L 2847 0 
L 2847 2094 
Q 2847 2600 2669 2842 
Q 2491 3084 2119 3084 
Q 1678 3084 1418 2786 
Q 1159 2488 1159 1978 
L 1159 0 
L 581 0 
L 581 3500 
L 1159 3500 
L 1159 2956 
Q 1356 3278 1631 3431 
Q 1906 3584 2284 3584 
Q 2666 3584 2933 3390 
Q 3200 3197 3328 2828 
z
" id="DejaVuSans-6d" transform="scale(0.015625)"/>
       <path d="M 3597 1894 
L 3597 1613 
L 953 1613 
Q 991 1019 1311 708 
Q 1631 397 2203 397 
Q 2534 397 2845 478 
Q 3156 559 3463 722 
L 3463 178 
Q 3153 47 2828 -22 
Q 2503 -91 2169 -91 
Q 1331 -91 842 396 
Q 353 884 353 1716 
Q 353 2575 817 3079 
Q 1281 3584 2069 3584 
Q 2775 3584 3186 3129 
Q 3597 2675 3597 1894 
z
M 3022 2063 
Q 3016 2534 2758 2815 
Q 2500 3097 2075 3097 
Q 1594 3097 1305 2825 
Q 1016 2553 972 2059 
L 3022 2063 
z
" id="DejaVuSans-65" transform="scale(0.015625)"/>
       <path id="DejaVuSans-20" transform="scale(0.015625)"/>
       <path d="M 1984 4856 
Q 1566 4138 1362 3434 
Q 1159 2731 1159 2009 
Q 1159 1288 1364 580 
Q 1569 -128 1984 -844 
L 1484 -844 
Q 1016 -109 783 600 
Q 550 1309 550 2009 
Q 550 2706 781 3412 
Q 1013 4119 1484 4856 
L 1984 4856 
z
" id="DejaVuSans-28" transform="scale(0.015625)"/>
       <path d="M 2834 3397 
L 2834 2853 
Q 2591 2978 2328 3040 
Q 2066 3103 1784 3103 
Q 1356 3103 1142 2972 
Q 928 2841 928 2578 
Q 928 2378 1081 2264 
Q 1234 2150 1697 2047 
L 1894 2003 
Q 2506 1872 2764 1633 
Q 3022 1394 3022 966 
Q 3022 478 2636 193 
Q 2250 -91 1575 -91 
Q 1294 -91 989 -36 
Q 684 19 347 128 
L 347 722 
Q 666 556 975 473 
Q 1284 391 1588 391 
Q 1994 391 2212 530 
Q 2431 669 2431 922 
Q 2431 1156 2273 1281 
Q 2116 1406 1581 1522 
L 1381 1569 
Q 847 1681 609 1914 
Q 372 2147 372 2553 
Q 372 3047 722 3315 
Q 1072 3584 1716 3584 
Q 2034 3584 2315 3537 
Q 2597 3491 2834 3397 
z
" id="DejaVuSans-73" transform="scale(0.015625)"/>
       <path d="M 513 4856 
L 1013 4856 
Q 1481 4119 1714 3412 
Q 1947 2706 1947 2009 
Q 1947 1309 1714 600 
Q 1481 -109 1013 -844 
L 513 -844 
Q 928 -128 1133 580 
Q 1338 1288 1338 2009 
Q 1338 2731 1133 3434 
Q 928 4138 513 4856 
z
" id="DejaVuSans-29" transform="scale(0.015625)"/>
      </defs>
      <use xlink:href="#DejaVuSans-54"/>
      <use x="57.958984" xlink:href="#DejaVuSans-69"/>
      <use x="85.742188" xlink:href="#DejaVuSans-6d"/>
      <use x="183.154297" xlink:href="#DejaVuSans-65"/>
      <use x="244.677734" xlink:href="#DejaVuSans-20"/>
      <use x="276.464844" xlink:href="#DejaVuSans-28"/>
      <use x="315.478516" xlink:href="#DejaVuSans-73"/>
      <use x="367.578125" xlink:href="#DejaVuSans-29"/>
     </g>
    </g>
   </g>
   <g id="matplotlib.axis_2">
    <g id="ytick_1">
     <g id="line2d_7">
      <defs>
       <path d="M 0 0 
L -3.5 0 
" id="m61dfe9e867" style="stroke:#000000;stroke-width:0.8;"/>
      </defs>
      <g>
       <use style="stroke:#000000;stroke-width:0.8;" x="126.99" xlink:href="#m61dfe9e867" y="347.1984"/>
      </g>
     </g>
     <g id="text_8">
      <!-- 0.0 -->
      <g transform="translate(97.725625 352.517306)scale(0.14 -0.14)">
       <defs>
        <path d="M 684 794 
L 1344 794 
L 1344 0 
L 684 0 
L 684 794 
z
" id="DejaVuSans-2e" transform="scale(0.015625)"/>
       </defs>
       <use xlink:href="#DejaVuSans-30"/>
       <use x="63.623047" xlink:href="#DejaVuSans-2e"/>
       <use x="95.410156" xlink:href="#DejaVuSans-30"/>
      </g>
     </g>
    </g>
    <g id="ytick_2">
     <g id="line2d_8">
      <g>
       <use style="stroke:#000000;stroke-width:0.8;" x="126.99" xlink:href="#m61dfe9e867" y="279.5184"/>
      </g>
     </g>
     <g id="text_9">
      <!-- 0.2 -->
      <g transform="translate(97.725625 284.837306)scale(0.14 -0.14)">
       <use xlink:href="#DejaVuSans-30"/>
       <use x="63.623047" xlink:href="#DejaVuSans-2e"/>
       <use x="95.410156" xlink:href="#DejaVuSans-32"/>
      </g>
     </g>
    </g>
    <g id="ytick_3">
     <g id="line2d_9">
      <g>
       <use style="stroke:#000000;stroke-width:0.8;" x="126.99" xlink:href="#m61dfe9e867" y="211.8384"/>
      </g>
     </g>
     <g id="text_10">
      <!-- 0.4 -->
      <g transform="translate(97.725625 217.157306)scale(0.14 -0.14)">
       <use xlink:href="#DejaVuSans-30"/>
       <use x="63.623047" xlink:href="#DejaVuSans-2e"/>
       <use x="95.410156" xlink:href="#DejaVuSans-34"/>
      </g>
     </g>
    </g>
    <g id="ytick_4">
     <g id="line2d_10">
      <g>
       <use style="stroke:#000000;stroke-width:0.8;" x="126.99" xlink:href="#m61dfe9e867" y="144.1584"/>
      </g>
     </g>
     <g id="text_11">
      <!-- 0.6 -->
      <g transform="translate(97.725625 149.477306)scale(0.14 -0.14)">
       <defs>
        <path d="M 2113 2584 
Q 1688 2584 1439 2293 
Q 1191 2003 1191 1497 
Q 1191 994 1439 701 
Q 1688 409 2113 409 
Q 2538 409 2786 701 
Q 3034 994 3034 1497 
Q 3034 2003 2786 2293 
Q 2538 2584 2113 2584 
z
M 3366 4563 
L 3366 3988 
Q 3128 4100 2886 4159 
Q 2644 4219 2406 4219 
Q 1781 4219 1451 3797 
Q 1122 3375 1075 2522 
Q 1259 2794 1537 2939 
Q 1816 3084 2150 3084 
Q 2853 3084 3261 2657 
Q 3669 2231 3669 1497 
Q 3669 778 3244 343 
Q 2819 -91 2113 -91 
Q 1303 -91 875 529 
Q 447 1150 447 2328 
Q 447 3434 972 4092 
Q 1497 4750 2381 4750 
Q 2619 4750 2861 4703 
Q 3103 4656 3366 4563 
z
" id="DejaVuSans-36" transform="scale(0.015625)"/>
       </defs>
       <use xlink:href="#DejaVuSans-30"/>
       <use x="63.623047" xlink:href="#DejaVuSans-2e"/>
       <use x="95.410156" xlink:href="#DejaVuSans-36"/>
      </g>
     </g>
    </g>
    <g id="ytick_5">
     <g id="line2d_11">
      <g>
       <use style="stroke:#000000;stroke-width:0.8;" x="126.99" xlink:href="#m61dfe9e867" y="76.4784"/>
      </g>
     </g>
     <g id="text_12">
      <!-- 0.8 -->
      <g transform="translate(97.725625 81.797306)scale(0.14 -0.14)">
       <defs>
        <path d="M 2034 2216 
Q 1584 2216 1326 1975 
Q 1069 1734 1069 1313 
Q 1069 891 1326 650 
Q 1584 409 2034 409 
Q 2484 409 2743 651 
Q 3003 894 3003 1313 
Q 3003 1734 2745 1975 
Q 2488 2216 2034 2216 
z
M 1403 2484 
Q 997 2584 770 2862 
Q 544 3141 544 3541 
Q 544 4100 942 4425 
Q 1341 4750 2034 4750 
Q 2731 4750 3128 4425 
Q 3525 4100 3525 3541 
Q 3525 3141 3298 2862 
Q 3072 2584 2669 2484 
Q 3125 2378 3379 2068 
Q 3634 1759 3634 1313 
Q 3634 634 3220 271 
Q 2806 -91 2034 -91 
Q 1263 -91 848 271 
Q 434 634 434 1313 
Q 434 1759 690 2068 
Q 947 2378 1403 2484 
z
M 1172 3481 
Q 1172 3119 1398 2916 
Q 1625 2713 2034 2713 
Q 2441 2713 2670 2916 
Q 2900 3119 2900 3481 
Q 2900 3844 2670 4047 
Q 2441 4250 2034 4250 
Q 1625 4250 1398 4047 
Q 1172 3844 1172 3481 
z
" id="DejaVuSans-38" transform="scale(0.015625)"/>
       </defs>
       <use xlink:href="#DejaVuSans-30"/>
       <use x="63.623047" xlink:href="#DejaVuSans-2e"/>
       <use x="95.410156" xlink:href="#DejaVuSans-38"/>
      </g>
     </g>
    </g>
    <g id="text_13">
     <!-- Force (N) -->
     <g transform="translate(90.814062 236.925869)rotate(-90)scale(0.14 -0.14)">
      <defs>
       <path d="M 628 4666 
L 3309 4666 
L 3309 4134 
L 1259 4134 
L 1259 2759 
L 3109 2759 
L 3109 2228 
L 1259 2228 
L 1259 0 
L 628 0 
L 628 4666 
z
" id="DejaVuSans-46" transform="scale(0.015625)"/>
       <path d="M 1959 3097 
Q 1497 3097 1228 2736 
Q 959 2375 959 1747 
Q 959 1119 1226 758 
Q 1494 397 1959 397 
Q 2419 397 2687 759 
Q 2956 1122 2956 1747 
Q 2956 2369 2687 2733 
Q 2419 3097 1959 3097 
z
M 1959 3584 
Q 2709 3584 3137 3096 
Q 3566 2609 3566 1747 
Q 3566 888 3137 398 
Q 2709 -91 1959 -91 
Q 1206 -91 779 398 
Q 353 888 353 1747 
Q 353 2609 779 3096 
Q 1206 3584 1959 3584 
z
" id="DejaVuSans-6f" transform="scale(0.015625)"/>
       <path d="M 2631 2963 
Q 2534 3019 2420 3045 
Q 2306 3072 2169 3072 
Q 1681 3072 1420 2755 
Q 1159 2438 1159 1844 
L 1159 0 
L 581 0 
L 581 3500 
L 1159 3500 
L 1159 2956 
Q 1341 3275 1631 3429 
Q 1922 3584 2338 3584 
Q 2397 3584 2469 3576 
Q 2541 3569 2628 3553 
L 2631 2963 
z
" id="DejaVuSans-72" transform="scale(0.015625)"/>
       <path d="M 3122 3366 
L 3122 2828 
Q 2878 2963 2633 3030 
Q 2388 3097 2138 3097 
Q 1578 3097 1268 2742 
Q 959 2388 959 1747 
Q 959 1106 1268 751 
Q 1578 397 2138 397 
Q 2388 397 2633 464 
Q 2878 531 3122 666 
L 3122 134 
Q 2881 22 2623 -34 
Q 2366 -91 2075 -91 
Q 1284 -91 818 406 
Q 353 903 353 1747 
Q 353 2603 823 3093 
Q 1294 3584 2113 3584 
Q 2378 3584 2631 3529 
Q 2884 3475 3122 3366 
z
" id="DejaVuSans-63" transform="scale(0.015625)"/>
       <path d="M 628 4666 
L 1478 4666 
L 3547 763 
L 3547 4666 
L 4159 4666 
L 4159 0 
L 3309 0 
L 1241 3903 
L 1241 0 
L 628 0 
L 628 4666 
z
" id="DejaVuSans-4e" transform="scale(0.015625)"/>
      </defs>
      <use xlink:href="#DejaVuSans-46"/>
      <use x="53.894531" xlink:href="#DejaVuSans-6f"/>
      <use x="115.076172" xlink:href="#DejaVuSans-72"/>
      <use x="153.939453" xlink:href="#DejaVuSans-63"/>
      <use x="208.919922" xlink:href="#DejaVuSans-65"/>
      <use x="270.443359" xlink:href="#DejaVuSans-20"/>
      <use x="302.230469" xlink:href="#DejaVuSans-28"/>
      <use x="341.244141" xlink:href="#DejaVuSans-4e"/>
      <use x="416.048828" xlink:href="#DejaVuSans-29"/>
     </g>
    </g>
   </g>
   <g id="line2d_12">
    <path clip-path="url(#p7c71421b26)" d="M 143.257314 347.1984 
L 145.537018 347.1984 
L 145.86269 343.8144 
L 146.188362 343.8144 
L 146.514034 340.4304 
L 146.839706 340.4304 
L 147.165377 337.0464 
L 147.491049 330.2784 
L 147.816721 330.2784 
L 148.468065 323.5104 
L 148.793737 323.5104 
L 149.119409 326.8944 
L 149.445081 326.8944 
L 150.422097 337.0464 
L 150.747769 337.0464 
L 151.073441 340.4304 
L 151.399113 340.4304 
L 151.724785 343.8144 
L 152.050457 343.8144 
L 152.376129 347.1984 
L 172.893462 347.1984 
L 173.219134 343.8144 
L 173.544806 343.8144 
L 174.521822 333.6624 
L 174.847493 333.6624 
L 175.173165 330.2784 
L 175.498837 330.2784 
L 175.824509 326.8944 
L 176.150181 326.8944 
L 176.475853 323.5104 
L 176.801525 323.5104 
L 177.127197 320.1264 
L 177.452869 320.1264 
L 177.778541 323.5104 
L 178.104213 323.5104 
L 178.429885 326.8944 
L 178.755557 326.8944 
L 179.081229 330.2784 
L 179.406901 330.2784 
L 179.732573 333.6624 
L 180.058245 333.6624 
L 181.360933 347.1984 
L 182.66362 347.1984 
L 182.989292 343.8144 
L 183.314964 343.8144 
L 183.640636 340.4304 
L 183.966308 340.4304 
L 184.29198 337.0464 
L 184.617652 337.0464 
L 184.943324 333.6624 
L 185.268996 333.6624 
L 185.594668 330.2784 
L 185.92034 330.2784 
L 186.246012 326.8944 
L 186.571684 326.8944 
L 186.897356 323.5104 
L 187.223028 323.5104 
L 187.5487 320.1264 
L 187.874372 320.1264 
L 188.851387 309.9744 
L 189.177059 309.9744 
L 189.502731 306.5904 
L 189.828403 306.5904 
L 190.154075 309.9744 
L 190.479747 309.9744 
L 190.805419 313.3584 
L 191.131091 313.3584 
L 191.456763 316.7424 
L 191.782435 316.7424 
L 192.108107 320.1264 
L 192.433779 320.1264 
L 192.759451 323.5104 
L 193.085123 323.5104 
L 193.410795 326.8944 
L 193.736467 326.8944 
L 194.062139 330.2784 
L 194.387811 330.2784 
L 194.713483 333.6624 
L 195.039155 333.6624 
L 195.364827 337.0464 
L 195.690498 337.0464 
L 196.01617 333.6624 
L 196.341842 333.6624 
L 197.318858 323.5104 
L 197.64453 323.5104 
L 197.970202 320.1264 
L 198.295874 320.1264 
L 198.621546 316.7424 
L 198.947218 316.7424 
L 199.27289 313.3584 
L 199.598562 313.3584 
L 199.924234 309.9744 
L 200.249906 309.9744 
L 200.575578 306.5904 
L 200.90125 306.5904 
L 201.226922 303.2064 
L 201.552594 303.2064 
L 201.878266 299.8224 
L 202.203938 299.8224 
L 202.529609 303.2064 
L 202.855281 303.2064 
L 203.180953 306.5904 
L 203.506625 306.5904 
L 203.832297 309.9744 
L 204.157969 309.9744 
L 205.134985 320.1264 
L 205.460657 320.1264 
L 205.786329 323.5104 
L 206.112001 323.5104 
L 206.437673 326.8944 
L 206.763345 326.8944 
L 207.089017 330.2784 
L 207.414689 330.2784 
L 207.740361 326.8944 
L 208.066033 326.8944 
L 208.391705 323.5104 
L 208.717377 323.5104 
L 209.043049 320.1264 
L 209.36872 320.1264 
L 209.694392 316.7424 
L 210.020064 316.7424 
L 210.345736 313.3584 
L 210.671408 313.3584 
L 210.99708 309.9744 
L 211.322752 309.9744 
L 211.648424 306.5904 
L 211.974096 306.5904 
L 212.299768 303.2064 
L 212.62544 303.2064 
L 212.951112 299.8224 
L 213.276784 299.8224 
L 213.602456 296.4384 
L 213.928128 296.4384 
L 214.2538 293.0544 
L 214.579472 293.0544 
L 214.905144 296.4384 
L 215.230816 296.4384 
L 215.556488 299.8224 
L 215.88216 299.8224 
L 216.207832 303.2064 
L 216.533503 303.2064 
L 217.510519 313.3584 
L 217.836191 313.3584 
L 218.161863 316.7424 
L 218.487535 316.7424 
L 219.138879 323.5104 
L 219.790223 323.5104 
L 220.115895 320.1264 
L 220.441567 320.1264 
L 221.092911 313.3584 
L 221.744255 313.3584 
L 222.069927 309.9744 
L 222.395599 309.9744 
L 222.721271 306.5904 
L 223.046943 306.5904 
L 223.372614 303.2064 
L 223.698286 303.2064 
L 224.023958 299.8224 
L 224.34963 299.8224 
L 224.675302 296.4384 
L 225.000974 296.4384 
L 225.326646 293.0544 
L 225.652318 293.0544 
L 225.97799 289.6704 
L 226.303662 289.6704 
L 226.629334 286.2864 
L 226.955006 286.2864 
L 227.280678 289.6704 
L 227.60635 289.6704 
L 227.932022 293.0544 
L 228.257694 293.0544 
L 228.583366 296.4384 
L 228.909038 296.4384 
L 229.23471 299.8224 
L 229.560382 299.8224 
L 229.886054 303.2064 
L 230.211725 303.2064 
L 230.537397 306.5904 
L 230.863069 306.5904 
L 231.188741 309.9744 
L 231.514413 309.9744 
L 231.840085 313.3584 
L 232.165757 313.3584 
L 232.491429 316.7424 
L 232.817101 316.7424 
L 233.794117 306.5904 
L 234.119789 306.5904 
L 234.445461 303.2064 
L 234.771133 303.2064 
L 235.096805 299.8224 
L 235.422477 299.8224 
L 235.748149 296.4384 
L 236.073821 296.4384 
L 236.399493 293.0544 
L 236.725165 293.0544 
L 237.050836 289.6704 
L 237.376508 289.6704 
L 237.70218 286.2864 
L 238.027852 286.2864 
L 238.353524 282.9024 
L 238.679196 282.9024 
L 239.004868 279.5184 
L 239.33054 279.5184 
L 239.656212 282.9024 
L 239.981884 282.9024 
L 240.307556 286.2864 
L 240.633228 286.2864 
L 240.9589 289.6704 
L 241.284572 289.6704 
L 241.610244 293.0544 
L 241.935916 293.0544 
L 242.261588 296.4384 
L 242.58726 296.4384 
L 242.912932 299.8224 
L 243.238604 299.8224 
L 243.564276 303.2064 
L 243.889948 303.2064 
L 244.215619 306.5904 
L 244.541291 306.5904 
L 244.866963 303.2064 
L 245.192635 303.2064 
L 245.518307 299.8224 
L 245.843979 299.8224 
L 246.169651 296.4384 
L 246.495323 296.4384 
L 246.820995 293.0544 
L 247.146667 293.0544 
L 247.472339 289.6704 
L 247.798011 289.6704 
L 248.123683 286.2864 
L 248.449355 286.2864 
L 248.775027 282.9024 
L 249.100699 282.9024 
L 250.077715 272.7504 
L 250.403387 272.7504 
L 250.729059 269.3664 
L 251.05473 269.3664 
L 251.380402 272.7504 
L 251.706074 272.7504 
L 252.031746 276.1344 
L 252.357418 276.1344 
L 252.68309 279.5184 
L 253.008762 279.5184 
L 253.334434 282.9024 
L 253.660106 282.9024 
L 253.985778 286.2864 
L 254.31145 286.2864 
L 254.637122 289.6704 
L 254.962794 289.6704 
L 255.288466 293.0544 
L 255.614138 293.0544 
L 255.93981 296.4384 
L 256.265482 296.4384 
L 256.591154 299.8224 
L 256.916826 299.8224 
L 257.242498 296.4384 
L 257.56817 296.4384 
L 257.893841 293.0544 
L 258.219513 293.0544 
L 258.545185 289.6704 
L 258.870857 289.6704 
L 259.196529 286.2864 
L 259.522201 286.2864 
L 259.847873 282.9024 
L 260.173545 282.9024 
L 260.499217 279.5184 
L 260.824889 279.5184 
L 261.150561 276.1344 
L 261.476233 276.1344 
L 261.801905 272.7504 
L 262.127577 272.7504 
L 262.453249 269.3664 
L 262.778921 269.3664 
L 263.104593 265.9824 
L 263.430265 265.9824 
L 263.755937 262.5984 
L 264.081609 262.5984 
L 264.407281 265.9824 
L 264.732952 265.9824 
L 265.058624 269.3664 
L 265.384296 269.3664 
L 266.361312 279.5184 
L 266.686984 279.5184 
L 267.012656 282.9024 
L 267.338328 282.9024 
L 267.664 286.2864 
L 267.989672 286.2864 
L 268.315344 289.6704 
L 268.641016 289.6704 
L 268.966688 286.2864 
L 269.29236 286.2864 
L 269.618032 282.9024 
L 269.943704 282.9024 
L 270.269376 279.5184 
L 270.595048 279.5184 
L 270.92072 276.1344 
L 271.246392 276.1344 
L 271.572064 272.7504 
L 271.897735 272.7504 
L 272.223407 269.3664 
L 272.549079 269.3664 
L 272.874751 265.9824 
L 273.200423 265.9824 
L 273.526095 262.5984 
L 273.851767 262.5984 
L 274.177439 259.2144 
L 274.503111 259.2144 
L 275.480127 249.0624 
L 275.805799 249.0624 
L 276.782815 259.2144 
L 277.108487 259.2144 
L 278.085503 269.3664 
L 278.411175 269.3664 
L 279.38819 279.5184 
L 279.713862 279.5184 
L 280.690878 269.3664 
L 281.01655 269.3664 
L 281.342222 262.5984 
L 281.667894 262.5984 
L 281.993566 259.2144 
L 282.319238 259.2144 
L 283.296254 249.0624 
L 283.621926 249.0624 
L 284.598942 238.9104 
L 284.924614 238.9104 
L 285.575957 232.1424 
L 285.901629 235.5264 
L 286.227301 235.5264 
L 287.204317 245.6784 
L 287.529989 245.6784 
L 288.507005 255.8304 
L 288.832677 255.8304 
L 289.158349 259.2144 
L 289.809693 252.4464 
L 290.135365 252.4464 
L 290.461037 249.0624 
L 290.786709 249.0624 
L 291.763725 238.9104 
L 292.089397 238.9104 
L 293.066412 228.7584 
L 293.392084 228.7584 
L 294.3691 218.6064 
L 294.694772 218.6064 
L 295.671788 228.7584 
L 295.99746 228.7584 
L 296.974476 238.9104 
L 297.300148 238.9104 
L 298.277164 249.0624 
L 298.602836 249.0624 
L 299.579851 238.9104 
L 299.905523 238.9104 
L 300.882539 228.7584 
L 301.208211 228.7584 
L 302.185227 218.6064 
L 302.510899 218.6064 
L 303.487915 208.4544 
L 303.813587 208.4544 
L 304.464931 201.6864 
L 304.790603 205.0704 
L 305.116275 205.0704 
L 306.093291 215.2224 
L 306.418962 215.2224 
L 306.744634 218.6064 
L 307.070306 218.6064 
L 308.047322 228.7584 
L 308.372994 228.7584 
L 308.698666 232.1424 
L 309.35001 225.3744 
L 309.675682 225.3744 
L 310.652698 215.2224 
L 310.97837 215.2224 
L 311.955386 205.0704 
L 312.281058 205.0704 
L 313.258073 194.9184 
L 313.583745 194.9184 
L 313.909417 191.5344 
L 314.560761 198.3024 
L 314.886433 198.3024 
L 315.863449 208.4544 
L 316.189121 208.4544 
L 316.514793 211.8384 
L 317.166137 205.0704 
L 317.491809 205.0704 
L 318.468825 194.9184 
L 318.794497 194.9184 
L 319.771513 184.7664 
L 320.097184 184.7664 
L 321.0742 174.6144 
L 321.399872 174.6144 
L 321.725544 171.2304 
L 322.376888 177.9984 
L 322.70256 177.9984 
L 323.028232 181.3824 
L 323.353904 181.3824 
L 324.33092 191.5344 
L 324.656592 191.5344 
L 325.633608 201.6864 
L 325.95928 201.6864 
L 326.284952 205.0704 
L 326.936296 198.3024 
L 327.261967 198.3024 
L 328.238983 188.1504 
L 328.564655 188.1504 
L 329.541671 177.9984 
L 329.867343 177.9984 
L 330.518687 171.2304 
L 330.844359 174.6144 
L 331.170031 174.6144 
L 332.147047 184.7664 
L 332.472719 184.7664 
L 332.798391 188.1504 
L 333.449735 181.3824 
L 333.775407 181.3824 
L 334.752422 171.2304 
L 335.078094 171.2304 
L 336.05511 161.0784 
L 336.380782 161.0784 
L 337.357798 150.9264 
L 337.68347 150.9264 
L 338.009142 147.5424 
L 338.660486 154.3104 
L 338.986158 154.3104 
L 339.31183 157.6944 
L 339.637502 157.6944 
L 340.614518 167.8464 
L 340.940189 167.8464 
L 341.917205 177.9984 
L 342.242877 177.9984 
L 343.219893 167.8464 
L 343.545565 167.8464 
L 344.522581 157.6944 
L 344.848253 157.6944 
L 345.825269 147.5424 
L 346.150941 147.5424 
L 347.127957 137.3904 
L 348.104972 137.3904 
L 348.430644 140.7744 
L 348.756316 140.7744 
L 349.733332 150.9264 
L 350.059004 150.9264 
L 351.03602 161.0784 
L 351.361692 161.0784 
L 352.338708 150.9264 
L 352.66438 150.9264 
L 353.641396 140.7744 
L 353.967068 140.7744 
L 354.944083 130.6224 
L 355.269755 130.6224 
L 355.595427 127.2384 
L 355.921099 127.2384 
L 356.246771 123.8544 
L 356.898115 130.6224 
L 357.223787 130.6224 
L 357.549459 137.3904 
L 357.875131 140.7744 
L 358.526475 140.7744 
L 359.503491 150.9264 
L 359.829163 150.9264 
L 360.806179 140.7744 
L 361.131851 140.7744 
L 362.108866 130.6224 
L 362.434538 130.6224 
L 363.737226 117.0864 
L 364.062898 117.0864 
L 364.38857 113.7024 
L 364.714242 117.0864 
L 365.039914 117.0864 
L 366.01693 127.2384 
L 366.342602 127.2384 
L 366.668274 130.6224 
L 366.993946 127.2384 
L 367.319618 130.6224 
L 367.64529 130.6224 
L 368.622305 120.4704 
L 368.947977 120.4704 
L 369.924993 110.3184 
L 370.250665 110.3184 
L 371.227681 100.1664 
L 371.553353 100.1664 
L 371.879025 96.7824 
L 372.204697 96.7824 
L 372.530369 93.3984 
L 373.181713 100.1664 
L 373.507385 100.1664 
L 374.484401 110.3184 
L 374.810073 110.3184 
L 375.787088 120.4704 
L 376.11276 120.4704 
L 377.089776 110.3184 
L 377.415448 110.3184 
L 378.392464 100.1664 
L 378.718136 100.1664 
L 379.695152 90.0144 
L 380.020824 90.0144 
L 380.346496 86.6304 
L 380.99784 93.3984 
L 381.323512 93.3984 
L 382.300528 103.5504 
L 382.626199 103.5504 
L 382.951871 100.1664 
L 383.277543 93.3984 
L 383.928887 93.3984 
L 384.905903 83.2464 
L 385.231575 83.2464 
L 386.208591 73.0944 
L 386.534263 73.0944 
L 386.859935 69.7104 
L 387.836951 69.7104 
L 388.162623 73.0944 
L 388.488295 73.0944 
L 389.46531 83.2464 
L 389.790982 83.2464 
L 390.767998 93.3984 
L 391.09367 93.3984 
L 391.419342 96.7824 
L 392.070686 90.0144 
L 392.396358 90.0144 
L 393.373374 79.8624 
L 393.699046 79.8624 
L 394.024718 76.4784 
L 394.35039 69.7104 
L 395.001734 69.7104 
L 395.653078 62.9424 
L 395.97875 66.3264 
L 396.304421 66.3264 
L 397.281437 76.4784 
L 397.607109 76.4784 
L 398.584125 66.3264 
L 398.909797 66.3264 
L 399.235469 62.9424 
L 399.561141 66.3264 
L 399.886813 62.9424 
L 400.212485 62.9424 
L 401.189501 73.0944 
L 401.515173 73.0944 
L 402.492189 83.2464 
L 402.817861 83.2464 
L 403.794876 93.3984 
L 404.120548 93.3984 
L 404.44622 96.7824 
L 404.771892 96.7824 
L 405.097564 100.1664 
L 405.423236 100.1664 
L 406.400252 110.3184 
L 406.725924 110.3184 
L 407.051596 113.7024 
L 407.377268 113.7024 
L 407.70294 117.0864 
L 408.028612 117.0864 
L 409.005628 127.2384 
L 409.3313 127.2384 
L 409.656972 130.6224 
L 409.982644 130.6224 
L 410.308315 134.0064 
L 410.633987 134.0064 
L 410.959659 137.3904 
L 411.285331 144.1584 
L 411.936675 144.1584 
L 412.262347 147.5424 
L 412.588019 147.5424 
L 412.913691 150.9264 
L 413.239363 150.9264 
L 414.216379 161.0784 
L 414.542051 161.0784 
L 415.193395 167.8464 
L 415.844739 167.8464 
L 416.821755 177.9984 
L 417.147426 177.9984 
L 417.473098 181.3824 
L 417.79877 181.3824 
L 418.124442 184.7664 
L 418.450114 184.7664 
L 419.42713 194.9184 
L 419.752802 194.9184 
L 420.078474 198.3024 
L 420.404146 198.3024 
L 420.729818 201.6864 
L 421.05549 201.6864 
L 421.381162 205.0704 
L 421.706834 205.0704 
L 422.68385 215.2224 
L 423.009522 215.2224 
L 423.335194 218.6064 
L 423.660866 218.6064 
L 423.986537 221.9904 
L 424.312209 221.9904 
L 425.289225 232.1424 
L 425.614897 232.1424 
L 425.940569 235.5264 
L 426.266241 235.5264 
L 426.591913 238.9104 
L 426.917585 238.9104 
L 427.894601 249.0624 
L 428.220273 249.0624 
L 428.545945 252.4464 
L 428.871617 252.4464 
L 429.197289 255.8304 
L 429.522961 255.8304 
L 430.499977 265.9824 
L 430.825648 265.9824 
L 431.15132 269.3664 
L 431.476992 269.3664 
L 431.802664 272.7504 
L 432.128336 272.7504 
L 433.105352 282.9024 
L 433.431024 282.9024 
L 433.756696 286.2864 
L 434.082368 286.2864 
L 434.40804 289.6704 
L 434.733712 289.6704 
L 435.710728 299.8224 
L 436.0364 299.8224 
L 436.362072 303.2064 
L 436.687744 303.2064 
L 437.013416 306.5904 
L 437.339088 306.5904 
L 437.66476 309.9744 
L 437.990431 309.9744 
L 438.967447 320.1264 
L 439.293119 320.1264 
L 439.618791 323.5104 
L 439.944463 323.5104 
L 440.270135 326.8944 
L 440.595807 326.8944 
L 440.921479 333.6624 
L 441.247151 333.6624 
L 441.572823 337.0464 
L 441.898495 337.0464 
L 442.224167 340.4304 
L 442.549839 340.4304 
L 442.875511 343.8144 
L 443.201183 343.8144 
L 443.526855 347.1984 
L 468.603595 347.1984 
L 468.603595 347.1984 
" style="fill:none;stroke:#1f77b4;stroke-linecap:square;stroke-width:1.5;"/>
   </g>
   <g id="patch_3">
    <path d="M 126.99 361.4112 
L 126.99 48.7296 
" style="fill:none;stroke:#000000;stroke-linecap:square;stroke-linejoin:miter;stroke-width:0.8;"/>
   </g>
   <g id="patch_4">
    <path d="M 484.870909 361.4112 
L 484.870909 48.7296 
" style="fill:none;stroke:#000000;stroke-linecap:square;stroke-linejoin:miter;stroke-width:0.8;"/>
   </g>
   <g id="patch_5">
    <path d="M 126.99 361.4112 
L 484.870909 361.4112 
" style="fill:none;stroke:#000000;stroke-linecap:square;stroke-linejoin:miter;stroke-width:0.8;"/>
   </g>
   <g id="patch_6">
    <path d="M 126.99 48.7296 
L 484.870909 48.7296 
" style="fill:none;stroke:#000000;stroke-linecap:square;stroke-linejoin:miter;stroke-width:0.8;"/>
   </g>
   <g id="text_14">
    <!-- Force in x -->
    <g transform="translate(265.244267 42.7296)scale(0.168 -0.168)">
     <defs>
      <path d="M 3513 2113 
L 3513 0 
L 2938 0 
L 2938 2094 
Q 2938 2591 2744 2837 
Q 2550 3084 2163 3084 
Q 1697 3084 1428 2787 
Q 1159 2491 1159 1978 
L 1159 0 
L 581 0 
L 581 3500 
L 1159 3500 
L 1159 2956 
Q 1366 3272 1645 3428 
Q 1925 3584 2291 3584 
Q 2894 3584 3203 3211 
Q 3513 2838 3513 2113 
z
" id="DejaVuSans-6e" transform="scale(0.015625)"/>
      <path d="M 3513 3500 
L 2247 1797 
L 3578 0 
L 2900 0 
L 1881 1375 
L 863 0 
L 184 0 
L 1544 1831 
L 300 3500 
L 978 3500 
L 1906 2253 
L 2834 3500 
L 3513 3500 
z
" id="DejaVuSans-78" transform="scale(0.015625)"/>
     </defs>
     <use xlink:href="#DejaVuSans-46"/>
     <use x="53.894531" xlink:href="#DejaVuSans-6f"/>
     <use x="115.076172" xlink:href="#DejaVuSans-72"/>
     <use x="153.939453" xlink:href="#DejaVuSans-63"/>
     <use x="208.919922" xlink:href="#DejaVuSans-65"/>
     <use x="270.443359" xlink:href="#DejaVuSans-20"/>
     <use x="302.230469" xlink:href="#DejaVuSans-69"/>
     <use x="330.013672" xlink:href="#DejaVuSans-6e"/>
     <use x="393.392578" xlink:href="#DejaVuSans-20"/>
     <use x="425.179688" xlink:href="#DejaVuSans-78"/>
    </g>
   </g>
   <g id="legend_1">
    <g id="patch_7">
     <path d="M 469.470909 66.9296 
L 475.070909 66.9296 
Q 477.870909 66.9296 477.870909 64.1296 
L 477.870909 58.5296 
Q 477.870909 55.7296 475.070909 55.7296 
L 469.470909 55.7296 
Q 466.670909 55.7296 466.670909 58.5296 
L 466.670909 64.1296 
Q 466.670909 66.9296 469.470909 66.9296 
z
" style="fill:#ffffff;opacity:0.8;stroke:#cccccc;stroke-linejoin:miter;"/>
    </g>
   </g>
  </g>
  <g id="axes_2">
   <g id="patch_8">
    <path d="M 556.447091 361.4112 
L 914.328 361.4112 
L 914.328 48.7296 
L 556.447091 48.7296 
z
" style="fill:#ffffff;"/>
   </g>
   <g id="matplotlib.axis_3">
    <g id="xtick_7">
     <g id="line2d_13">
      <g>
       <use style="stroke:#000000;stroke-width:0.8;" x="572.714405" xlink:href="#m5576f00ec6" y="361.4112"/>
      </g>
     </g>
     <g id="text_15">
      <!-- 0 -->
      <g transform="translate(568.260655 379.049013)scale(0.14 -0.14)">
       <use xlink:href="#DejaVuSans-30"/>
      </g>
     </g>
    </g>
    <g id="xtick_8">
     <g id="line2d_14">
      <g>
       <use style="stroke:#000000;stroke-width:0.8;" x="637.848796" xlink:href="#m5576f00ec6" y="361.4112"/>
      </g>
     </g>
     <g id="text_16">
      <!-- 1 -->
      <g transform="translate(633.395046 379.049013)scale(0.14 -0.14)">
       <use xlink:href="#DejaVuSans-31"/>
      </g>
     </g>
    </g>
    <g id="xtick_9">
     <g id="line2d_15">
      <g>
       <use style="stroke:#000000;stroke-width:0.8;" x="702.983186" xlink:href="#m5576f00ec6" y="361.4112"/>
      </g>
     </g>
     <g id="text_17">
      <!-- 2 -->
      <g transform="translate(698.529436 379.049013)scale(0.14 -0.14)">
       <use xlink:href="#DejaVuSans-32"/>
      </g>
     </g>
    </g>
    <g id="xtick_10">
     <g id="line2d_16">
      <g>
       <use style="stroke:#000000;stroke-width:0.8;" x="768.117577" xlink:href="#m5576f00ec6" y="361.4112"/>
      </g>
     </g>
     <g id="text_18">
      <!-- 3 -->
      <g transform="translate(763.663827 379.049013)scale(0.14 -0.14)">
       <use xlink:href="#DejaVuSans-33"/>
      </g>
     </g>
    </g>
    <g id="xtick_11">
     <g id="line2d_17">
      <g>
       <use style="stroke:#000000;stroke-width:0.8;" x="833.251967" xlink:href="#m5576f00ec6" y="361.4112"/>
      </g>
     </g>
     <g id="text_19">
      <!-- 4 -->
      <g transform="translate(828.798217 379.049013)scale(0.14 -0.14)">
       <use xlink:href="#DejaVuSans-34"/>
      </g>
     </g>
    </g>
    <g id="xtick_12">
     <g id="line2d_18">
      <g>
       <use style="stroke:#000000;stroke-width:0.8;" x="898.386358" xlink:href="#m5576f00ec6" y="361.4112"/>
      </g>
     </g>
     <g id="text_20">
      <!-- 5 -->
      <g transform="translate(893.932608 379.049013)scale(0.14 -0.14)">
       <use xlink:href="#DejaVuSans-35"/>
      </g>
     </g>
    </g>
    <g id="text_21">
     <!-- Time (s) -->
     <g transform="translate(706.927077 396.598388)scale(0.14 -0.14)">
      <use xlink:href="#DejaVuSans-54"/>
      <use x="57.958984" xlink:href="#DejaVuSans-69"/>
      <use x="85.742188" xlink:href="#DejaVuSans-6d"/>
      <use x="183.154297" xlink:href="#DejaVuSans-65"/>
      <use x="244.677734" xlink:href="#DejaVuSans-20"/>
      <use x="276.464844" xlink:href="#DejaVuSans-28"/>
      <use x="315.478516" xlink:href="#DejaVuSans-73"/>
      <use x="367.578125" xlink:href="#DejaVuSans-29"/>
     </g>
    </g>
   </g>
   <g id="matplotlib.axis_4">
    <g id="ytick_6">
     <g id="line2d_19">
      <g>
       <use style="stroke:#000000;stroke-width:0.8;" x="556.447091" xlink:href="#m61dfe9e867" y="347.198185"/>
      </g>
     </g>
     <g id="text_22">
      <!-- 0 -->
      <g transform="translate(540.539591 352.517091)scale(0.14 -0.14)">
       <use xlink:href="#DejaVuSans-30"/>
      </g>
     </g>
    </g>
    <g id="ytick_7">
     <g id="line2d_20">
      <g>
       <use style="stroke:#000000;stroke-width:0.8;" x="556.447091" xlink:href="#m61dfe9e867" y="304.370242"/>
      </g>
     </g>
     <g id="text_23">
      <!-- 10 -->
      <g transform="translate(531.632091 309.689148)scale(0.14 -0.14)">
       <use xlink:href="#DejaVuSans-31"/>
       <use x="63.623047" xlink:href="#DejaVuSans-30"/>
      </g>
     </g>
    </g>
    <g id="ytick_8">
     <g id="line2d_21">
      <g>
       <use style="stroke:#000000;stroke-width:0.8;" x="556.447091" xlink:href="#m61dfe9e867" y="261.542299"/>
      </g>
     </g>
     <g id="text_24">
      <!-- 20 -->
      <g transform="translate(531.632091 266.861205)scale(0.14 -0.14)">
       <use xlink:href="#DejaVuSans-32"/>
       <use x="63.623047" xlink:href="#DejaVuSans-30"/>
      </g>
     </g>
    </g>
    <g id="ytick_9">
     <g id="line2d_22">
      <g>
       <use style="stroke:#000000;stroke-width:0.8;" x="556.447091" xlink:href="#m61dfe9e867" y="218.714356"/>
      </g>
     </g>
     <g id="text_25">
      <!-- 30 -->
      <g transform="translate(531.632091 224.033262)scale(0.14 -0.14)">
       <use xlink:href="#DejaVuSans-33"/>
       <use x="63.623047" xlink:href="#DejaVuSans-30"/>
      </g>
     </g>
    </g>
    <g id="ytick_10">
     <g id="line2d_23">
      <g>
       <use style="stroke:#000000;stroke-width:0.8;" x="556.447091" xlink:href="#m61dfe9e867" y="175.886413"/>
      </g>
     </g>
     <g id="text_26">
      <!-- 40 -->
      <g transform="translate(531.632091 181.205319)scale(0.14 -0.14)">
       <use xlink:href="#DejaVuSans-34"/>
       <use x="63.623047" xlink:href="#DejaVuSans-30"/>
      </g>
     </g>
    </g>
    <g id="ytick_11">
     <g id="line2d_24">
      <g>
       <use style="stroke:#000000;stroke-width:0.8;" x="556.447091" xlink:href="#m61dfe9e867" y="133.058469"/>
      </g>
     </g>
     <g id="text_27">
      <!-- 50 -->
      <g transform="translate(531.632091 138.377376)scale(0.14 -0.14)">
       <use xlink:href="#DejaVuSans-35"/>
       <use x="63.623047" xlink:href="#DejaVuSans-30"/>
      </g>
     </g>
    </g>
    <g id="ytick_12">
     <g id="line2d_25">
      <g>
       <use style="stroke:#000000;stroke-width:0.8;" x="556.447091" xlink:href="#m61dfe9e867" y="90.230526"/>
      </g>
     </g>
     <g id="text_28">
      <!-- 60 -->
      <g transform="translate(531.632091 95.549433)scale(0.14 -0.14)">
       <use xlink:href="#DejaVuSans-36"/>
       <use x="63.623047" xlink:href="#DejaVuSans-30"/>
      </g>
     </g>
    </g>
    <g id="text_29">
     <!-- Torque (Nmm) -->
     <g transform="translate(524.720528 254.942119)rotate(-90)scale(0.14 -0.14)">
      <defs>
       <path d="M 947 1747 
Q 947 1113 1208 752 
Q 1469 391 1925 391 
Q 2381 391 2643 752 
Q 2906 1113 2906 1747 
Q 2906 2381 2643 2742 
Q 2381 3103 1925 3103 
Q 1469 3103 1208 2742 
Q 947 2381 947 1747 
z
M 2906 525 
Q 2725 213 2448 61 
Q 2172 -91 1784 -91 
Q 1150 -91 751 415 
Q 353 922 353 1747 
Q 353 2572 751 3078 
Q 1150 3584 1784 3584 
Q 2172 3584 2448 3432 
Q 2725 3281 2906 2969 
L 2906 3500 
L 3481 3500 
L 3481 -1331 
L 2906 -1331 
L 2906 525 
z
" id="DejaVuSans-71" transform="scale(0.015625)"/>
       <path d="M 544 1381 
L 544 3500 
L 1119 3500 
L 1119 1403 
Q 1119 906 1312 657 
Q 1506 409 1894 409 
Q 2359 409 2629 706 
Q 2900 1003 2900 1516 
L 2900 3500 
L 3475 3500 
L 3475 0 
L 2900 0 
L 2900 538 
Q 2691 219 2414 64 
Q 2138 -91 1772 -91 
Q 1169 -91 856 284 
Q 544 659 544 1381 
z
M 1991 3584 
L 1991 3584 
z
" id="DejaVuSans-75" transform="scale(0.015625)"/>
      </defs>
      <use xlink:href="#DejaVuSans-54"/>
      <use x="44.083984" xlink:href="#DejaVuSans-6f"/>
      <use x="105.265625" xlink:href="#DejaVuSans-72"/>
      <use x="144.628906" xlink:href="#DejaVuSans-71"/>
      <use x="208.105469" xlink:href="#DejaVuSans-75"/>
      <use x="271.484375" xlink:href="#DejaVuSans-65"/>
      <use x="333.007812" xlink:href="#DejaVuSans-20"/>
      <use x="364.794922" xlink:href="#DejaVuSans-28"/>
      <use x="403.808594" xlink:href="#DejaVuSans-4e"/>
      <use x="478.613281" xlink:href="#DejaVuSans-6d"/>
      <use x="576.025391" xlink:href="#DejaVuSans-6d"/>
      <use x="673.4375" xlink:href="#DejaVuSans-29"/>
     </g>
    </g>
   </g>
   <g id="line2d_26">
    <path clip-path="url(#p840a68030f)" d="M 572.714405 347.198185 
L 574.994109 347.198185 
L 575.319781 345.576171 
L 575.645453 345.576171 
L 575.971124 343.954157 
L 576.296796 343.954157 
L 576.622468 342.332143 
L 576.94814 339.088115 
L 577.273812 339.088115 
L 577.925156 335.844086 
L 578.250828 335.844086 
L 578.5765 337.4661 
L 578.902172 337.4661 
L 579.879188 342.332143 
L 580.20486 342.332143 
L 580.530532 343.954158 
L 580.856204 343.954158 
L 581.181876 345.576172 
L 581.507548 345.576172 
L 581.83322 347.198185 
L 602.350553 347.198185 
L 602.676225 345.57648 
L 603.001897 345.57648 
L 603.978912 340.71146 
L 604.304584 340.71146 
L 604.630256 339.089823 
L 604.955928 339.089823 
L 605.2816 337.468202 
L 605.607272 337.468202 
L 605.932944 335.846607 
L 606.258616 335.846607 
L 606.584288 334.225023 
L 606.90996 334.225023 
L 607.235632 335.846732 
L 607.561304 335.846732 
L 607.886976 337.468435 
L 608.212648 337.468435 
L 608.53832 339.090128 
L 608.863992 339.090128 
L 609.189664 340.711803 
L 609.515336 340.711803 
L 610.818023 347.198185 
L 612.120711 347.198185 
L 612.446383 345.576709 
L 612.772055 345.576709 
L 613.097727 343.95528 
L 613.423399 343.95528 
L 613.749071 342.333886 
L 614.074743 342.333886 
L 614.400415 340.712537 
L 614.726087 340.712537 
L 615.051759 339.091229 
L 615.377431 339.091229 
L 615.703103 337.469949 
L 616.028775 337.469948 
L 616.354447 335.848682 
L 616.680119 335.848682 
L 617.005791 334.227421 
L 617.331463 334.227421 
L 618.308478 329.363553 
L 618.63415 329.363553 
L 618.959822 327.742266 
L 619.285494 327.742266 
L 619.611166 329.363639 
L 619.936838 329.363639 
L 620.26251 330.985037 
L 620.588182 330.985037 
L 620.913854 332.606453 
L 621.239526 332.606453 
L 621.565198 334.227876 
L 621.89087 334.227876 
L 622.216542 335.849294 
L 622.542214 335.849294 
L 622.867886 337.470694 
L 623.193558 337.470694 
L 623.51923 339.092064 
L 623.844902 339.092064 
L 624.170574 340.713397 
L 624.496245 340.713397 
L 624.821917 342.334698 
L 625.147589 342.334698 
L 625.473261 340.713692 
L 625.798933 340.713692 
L 626.775949 335.85079 
L 627.101621 335.85079 
L 627.427293 334.229931 
L 627.752965 334.229931 
L 628.078637 332.609075 
L 628.404309 332.609075 
L 628.729981 330.988213 
L 629.055653 330.988213 
L 629.381325 329.367339 
L 629.706997 329.367339 
L 630.032669 327.746446 
L 630.358341 327.746446 
L 630.684013 326.125534 
L 631.009685 326.125534 
L 631.335356 324.504595 
L 631.661028 324.504595 
L 631.9867 326.125613 
L 632.312372 326.125613 
L 632.638044 327.746676 
L 632.963716 327.746676 
L 633.289388 329.367776 
L 633.61506 329.367776 
L 634.592076 334.230949 
L 634.917748 334.230949 
L 635.24342 335.852122 
L 635.569092 335.852122 
L 635.894764 337.473272 
L 636.220436 337.473272 
L 636.546108 339.094345 
L 636.87178 339.094345 
L 637.197452 337.473863 
L 637.523124 337.473863 
L 637.848796 335.853428 
L 638.174468 335.853428 
L 638.500139 334.233017 
L 638.825811 334.233017 
L 639.151483 332.612611 
L 639.477155 332.612611 
L 639.802827 330.992199 
L 640.128499 330.992199 
L 640.454171 329.371775 
L 640.779843 329.371775 
L 641.105515 327.75133 
L 641.431187 327.75133 
L 641.756859 326.130863 
L 642.082531 326.130863 
L 642.408203 324.510367 
L 642.733875 324.510367 
L 643.059547 322.889836 
L 643.385219 322.889836 
L 643.710891 321.269269 
L 644.036563 321.269269 
L 644.362235 322.889843 
L 644.687907 322.889843 
L 645.013579 324.510493 
L 645.33925 324.510493 
L 645.664922 326.131316 
L 645.990594 326.131316 
L 646.96761 330.993653 
L 647.293282 330.993653 
L 647.618954 332.614537 
L 647.944626 332.614537 
L 648.59597 335.855694 
L 649.247314 335.856046 
L 649.572986 334.236112 
L 649.898658 334.236112 
L 650.550002 330.995986 
L 651.201346 330.996299 
L 651.527018 329.376381 
L 651.85269 329.376381 
L 652.178361 327.75644 
L 652.504033 327.75644 
L 652.829705 326.136471 
L 653.155377 326.136471 
L 653.481049 324.516469 
L 653.806721 324.516469 
L 654.132393 322.896431 
L 654.458065 322.896431 
L 654.783737 321.27635 
L 655.109409 321.27635 
L 655.435081 319.656391 
L 655.760753 319.656391 
L 656.086425 318.036542 
L 656.412097 318.036542 
L 656.737769 319.656916 
L 657.063441 319.656916 
L 657.389113 321.277314 
L 657.714785 321.277314 
L 658.040457 322.89773 
L 658.366129 322.89773 
L 658.691801 324.518148 
L 659.017472 324.518148 
L 659.343144 326.138561 
L 659.668816 326.138561 
L 659.994488 327.758957 
L 660.32016 327.758957 
L 660.645832 329.379321 
L 660.971504 329.379321 
L 661.297176 330.999642 
L 661.622848 330.999642 
L 661.94852 332.619907 
L 662.274192 332.619907 
L 663.251208 327.761441 
L 663.57688 327.761441 
L 663.902552 326.142074 
L 664.228224 326.142074 
L 664.553896 324.52266 
L 664.879568 324.52266 
L 665.20524 322.903196 
L 665.530912 322.903196 
L 665.856584 321.28368 
L 666.182255 321.28368 
L 666.507927 319.664107 
L 666.833599 319.664107 
L 667.159271 318.044663 
L 667.484943 318.044663 
L 667.810615 316.425381 
L 668.136287 316.425381 
L 668.461959 314.806078 
L 668.787631 314.806078 
L 669.113303 316.425966 
L 669.438975 316.425966 
L 669.764647 318.045879 
L 670.090319 318.045879 
L 670.415991 319.665837 
L 670.741663 319.665837 
L 671.067335 321.285825 
L 671.393007 321.285825 
L 671.718679 322.905833 
L 672.044351 322.905833 
L 672.370023 324.52584 
L 672.695695 324.52584 
L 673.021366 326.145831 
L 673.347038 326.145831 
L 673.67271 327.765791 
L 673.998382 327.765791 
L 674.324054 326.146991 
L 674.649726 326.146991 
L 674.975398 324.528175 
L 675.30107 324.528175 
L 675.626742 322.909314 
L 675.952414 322.909314 
L 676.278086 321.290387 
L 676.603758 321.290387 
L 676.92943 319.671393 
L 677.255102 319.671393 
L 677.580774 318.052333 
L 677.906446 318.052333 
L 678.232118 316.433203 
L 678.55779 316.433203 
L 679.534806 311.575499 
L 679.860477 311.575499 
L 680.186149 309.956102 
L 680.511821 309.956102 
L 680.837493 311.575209 
L 681.163165 311.575209 
L 681.488837 313.194495 
L 681.814509 313.194495 
L 682.140181 314.813955 
L 682.465853 314.813955 
L 682.791525 316.433617 
L 683.117197 316.433617 
L 683.442869 318.053668 
L 683.768541 318.053668 
L 684.094213 319.673815 
L 684.419885 319.673815 
L 684.745557 321.293879 
L 685.071229 321.293879 
L 685.396901 322.913804 
L 685.722573 322.913804 
L 686.048245 324.533595 
L 686.373917 324.533595 
L 686.699588 322.915492 
L 687.02526 322.915492 
L 687.350932 321.297329 
L 687.676604 321.297329 
L 688.002276 319.679077 
L 688.327948 319.679077 
L 688.65362 318.060726 
L 688.979292 318.060725 
L 689.304964 316.442298 
L 689.630636 316.442298 
L 689.956308 314.823786 
L 690.28198 314.823786 
L 690.607652 313.20521 
L 690.933324 313.20521 
L 691.258996 311.58654 
L 691.584668 311.58654 
L 691.91034 309.967794 
L 692.236012 309.967794 
L 692.561684 308.348966 
L 692.887356 308.348966 
L 693.213028 306.730046 
L 693.5387 306.730046 
L 693.864371 308.348658 
L 694.190043 308.348658 
L 694.515715 309.967493 
L 694.841387 309.967493 
L 695.818403 314.824513 
L 696.144075 314.824513 
L 696.469747 316.443959 
L 696.795419 316.44396 
L 697.121091 318.063498 
L 697.446763 318.063498 
L 697.772435 319.683361 
L 698.098107 319.683361 
L 698.423779 318.06625 
L 698.749451 318.06625 
L 699.075123 316.449034 
L 699.400795 316.449034 
L 699.726467 314.831606 
L 700.052139 314.831606 
L 700.377811 313.213936 
L 700.703482 313.213936 
L 701.029154 311.596071 
L 701.354826 311.596071 
L 701.680498 309.978048 
L 702.00617 309.978048 
L 702.331842 308.35991 
L 702.657514 308.35991 
L 702.983186 306.741681 
L 703.308858 306.741681 
L 703.63453 305.123358 
L 703.960202 305.123358 
L 704.937218 300.268125 
L 705.26289 300.268125 
L 706.239906 305.122975 
L 706.565578 305.122975 
L 707.542593 309.979219 
L 707.868265 309.979219 
L 708.845281 314.836043 
L 709.170953 314.836043 
L 710.147969 309.984219 
L 710.473641 309.984219 
L 710.799313 306.749075 
L 711.124985 306.749075 
L 711.450657 305.131818 
L 711.776329 305.131818 
L 712.753345 300.28021 
L 713.079017 300.28021 
L 714.056033 295.427689 
L 714.381704 295.427689 
L 715.033048 292.191915 
L 715.35872 293.809541 
L 715.684392 293.809541 
L 716.661408 298.663613 
L 716.98708 298.663613 
L 717.964096 303.519257 
L 718.289768 303.519257 
L 718.61544 305.138513 
L 719.266784 301.904654 
L 719.592456 301.904654 
L 719.918128 300.288177 
L 720.2438 300.288177 
L 721.220816 295.436739 
L 721.546487 295.436739 
L 722.523503 290.584198 
L 722.849175 290.584198 
L 723.826191 285.730747 
L 724.151863 285.730747 
L 725.128879 290.583292 
L 725.454551 290.583292 
L 726.431567 295.437994 
L 726.757239 295.437994 
L 727.734255 300.293784 
L 728.059927 300.293784 
L 729.036942 295.446339 
L 729.362614 295.446339 
L 730.33963 290.59886 
L 730.665302 290.59886 
L 731.642318 285.748928 
L 731.96799 285.748928 
L 732.945006 280.897158 
L 733.270678 280.897158 
L 733.922022 277.662298 
L 734.247694 279.278927 
L 734.573366 279.278927 
L 735.550381 284.131027 
L 735.876053 284.131027 
L 736.201725 285.749463 
L 736.527397 285.749463 
L 737.504413 290.604101 
L 737.830085 290.604101 
L 738.155757 292.22324 
L 738.807101 288.991484 
L 739.132773 288.991483 
L 740.109789 284.143609 
L 740.435461 284.143609 
L 741.412477 279.294326 
L 741.738149 279.294325 
L 742.715164 274.443985 
L 743.040836 274.443985 
L 743.366508 272.826815 
L 744.017852 276.060461 
L 744.343524 276.060461 
L 745.32054 280.913142 
L 745.646212 280.913142 
L 745.971884 282.531924 
L 746.623228 279.300591 
L 746.9489 279.300591 
L 747.925916 274.452933 
L 748.251588 274.452933 
L 749.228603 269.603194 
L 749.554275 269.603194 
L 750.531291 264.752077 
L 750.856963 264.752077 
L 751.182635 263.134396 
L 751.833979 266.367178 
L 752.159651 266.367178 
L 752.485323 267.984311 
L 752.810995 267.984311 
L 753.788011 272.840072 
L 754.113683 272.840072 
L 755.090699 277.696572 
L 755.416371 277.696573 
L 755.742043 279.316079 
L 756.393386 276.086331 
L 756.719058 276.086331 
L 757.696074 271.241219 
L 758.021746 271.241219 
L 758.998762 266.394338 
L 759.324434 266.394338 
L 759.975778 263.162442 
L 760.30145 264.778882 
L 760.627122 264.778882 
L 761.604138 269.629664 
L 761.92981 269.629664 
L 762.255482 271.248102 
L 762.906825 268.018508 
L 763.232497 268.018508 
L 764.209513 263.173254 
L 764.535185 263.173255 
L 765.512201 258.325396 
L 765.837873 258.325396 
L 766.814889 253.475946 
L 767.140561 253.475947 
L 767.466233 251.858704 
L 768.117577 255.090002 
L 768.443249 255.090002 
L 768.768921 256.706509 
L 769.094593 256.706509 
L 770.071608 261.557673 
L 770.39728 261.557673 
L 771.374296 266.411271 
L 771.699968 266.411272 
L 772.676984 261.574597 
L 773.002656 261.574597 
L 773.979672 256.733389 
L 774.305344 256.733389 
L 775.28236 251.88728 
L 775.608032 251.88728 
L 776.585048 247.039334 
L 777.562063 247.038252 
L 777.887735 248.653538 
L 778.213407 248.653538 
L 779.190423 253.503188 
L 779.516095 253.503188 
L 780.493111 258.355842 
L 780.818783 258.355842 
L 781.795799 253.516064 
L 782.121471 253.516064 
L 783.098487 248.672566 
L 783.424159 248.672566 
L 784.401174 243.826658 
L 784.726846 243.826658 
L 785.052518 242.210709 
L 785.37819 242.210708 
L 785.703862 240.594547 
L 786.355206 243.824877 
L 786.680878 243.824877 
L 787.00655 247.056476 
L 787.332222 248.671665 
L 787.983566 248.674074 
L 788.960582 253.52647 
L 789.286254 253.52647 
L 790.26327 248.688078 
L 790.588941 248.688078 
L 791.565957 243.845715 
L 791.891629 243.845715 
L 793.194317 237.385912 
L 793.519989 237.385189 
L 793.845661 235.770292 
L 794.171333 237.384725 
L 794.497005 237.384725 
L 795.474021 242.231588 
L 795.799693 242.231588 
L 796.125365 243.849257 
L 796.451037 242.23443 
L 796.776709 243.852459 
L 797.102381 243.852459 
L 798.079396 239.016167 
L 798.405068 239.016167 
L 799.382084 234.17833 
L 799.707756 234.17833 
L 800.684772 229.333556 
L 801.010444 229.333556 
L 801.336116 227.717059 
L 801.661788 227.717059 
L 801.98746 226.100458 
L 802.638804 229.329088 
L 802.964476 229.329088 
L 803.941492 234.176894 
L 804.267164 234.176894 
L 805.244179 239.028952 
L 805.569851 239.028952 
L 806.546867 234.193241 
L 806.872539 234.193241 
L 807.849555 229.352354 
L 808.175227 229.352354 
L 809.152243 224.508693 
L 809.477915 224.508693 
L 809.803587 222.893379 
L 810.454931 226.122224 
L 810.780603 226.122224 
L 811.757618 230.970374 
L 812.08329 230.970375 
L 812.408962 229.359885 
L 812.734634 226.131476 
L 813.385978 226.133911 
L 814.362994 221.29184 
L 814.688666 221.29184 
L 815.665682 216.446629 
L 815.991354 216.446629 
L 816.317026 214.830525 
L 817.294042 214.829128 
L 817.619714 216.443098 
L 817.945386 216.443098 
L 818.922401 221.289366 
L 819.248073 221.289366 
L 820.225089 226.140508 
L 820.550761 226.140507 
L 820.876433 227.760145 
L 821.527777 224.536947 
L 821.853449 224.536947 
L 822.830465 219.699876 
L 823.156137 219.699876 
L 823.481809 218.086554 
L 823.807481 214.858764 
L 824.458825 214.858699 
L 825.110168 211.630352 
L 825.43584 213.244038 
L 825.761512 213.244039 
L 826.738528 218.089507 
L 827.0642 218.089507 
L 828.041216 213.250025 
L 828.366888 213.250025 
L 828.69256 211.632077 
L 829.018232 213.24596 
L 829.343904 211.626269 
L 829.669576 211.626269 
L 830.646592 216.458536 
L 830.972264 216.458536 
L 831.94928 221.296111 
L 832.274951 221.296111 
L 833.251967 226.135551 
L 833.577639 226.135551 
L 833.903311 227.748421 
L 834.228983 227.748421 
L 834.554655 229.36154 
L 834.880327 229.36154 
L 835.857343 234.202729 
L 836.183015 234.20273 
L 836.508687 235.81646 
L 836.834359 235.81646 
L 837.160031 237.430385 
L 837.485703 237.430385 
L 838.462719 242.272928 
L 838.788391 242.272928 
L 839.114062 243.887164 
L 839.439734 243.887164 
L 839.765406 245.501492 
L 840.091078 245.501492 
L 840.41675 247.115942 
L 840.742422 250.344401 
L 841.393766 250.344675 
L 841.719438 251.959143 
L 842.04511 251.959143 
L 842.370782 253.573722 
L 842.696454 253.573722 
L 843.67347 258.417206 
L 843.999142 258.417206 
L 844.650486 261.645991 
L 845.30183 261.646465 
L 846.278845 266.490005 
L 846.604517 266.490005 
L 846.930189 268.104634 
L 847.255861 268.104634 
L 847.581533 269.719276 
L 847.907205 269.719276 
L 848.884221 274.562737 
L 849.209893 274.562737 
L 849.535565 276.177402 
L 849.861237 276.177402 
L 850.186909 277.792156 
L 850.512581 277.792156 
L 850.838253 279.406165 
L 851.163925 279.406165 
L 852.140941 284.246167 
L 852.466613 284.246167 
L 852.792284 285.859805 
L 853.117956 285.859805 
L 853.443628 287.474083 
L 853.7693 287.474083 
L 854.746316 292.317631 
L 855.071988 292.317631 
L 855.39766 293.932258 
L 855.723332 293.932258 
L 856.049004 295.546799 
L 856.374676 295.5468 
L 857.351692 300.389742 
L 857.677364 300.389741 
L 858.003036 302.004053 
L 858.328708 302.004053 
L 858.65438 303.618378 
L 858.980052 303.618378 
L 859.957067 308.461084 
L 860.282739 308.461084 
L 860.608411 310.075359 
L 860.934083 310.075359 
L 861.259755 311.689603 
L 861.585427 311.689603 
L 862.562443 316.5321 
L 862.888115 316.5321 
L 863.213787 318.146268 
L 863.539459 318.146268 
L 863.865131 319.760422 
L 864.190803 319.760422 
L 865.167819 324.602663 
L 865.493491 324.602663 
L 865.819163 326.216748 
L 866.144835 326.216748 
L 866.470507 327.830809 
L 866.796178 327.830809 
L 867.12185 329.444868 
L 867.447522 329.444868 
L 868.424538 334.286848 
L 868.75021 334.286848 
L 869.075882 335.900814 
L 869.401554 335.900814 
L 869.727226 337.514772 
L 870.052898 337.514772 
L 870.37857 340.742611 
L 870.704242 340.742611 
L 871.029914 342.356527 
L 871.355586 342.356527 
L 871.681258 343.97039 
L 872.00693 343.97039 
L 872.332602 345.58425 
L 872.658274 345.58425 
L 872.983946 347.198185 
L 898.060686 347.198185 
L 898.060686 347.198185 
" style="fill:none;stroke:#1f77b4;stroke-linecap:square;stroke-width:1.5;"/>
   </g>
   <g id="line2d_27">
    <path clip-path="url(#p840a68030f)" d="M 572.714405 347.198185 
L 630.358341 347.092638 
L 633.61506 347.096038 
L 638.174468 347.118021 
L 643.059547 347.013109 
L 665.530912 346.906435 
L 668.787631 346.790389 
L 673.998382 346.930066 
L 676.92943 346.80766 
L 679.209134 346.715704 
L 680.837493 346.688006 
L 685.071229 346.790535 
L 687.02526 346.800838 
L 689.304964 346.688857 
L 692.236012 346.581799 
L 693.5387 346.526934 
L 696.469747 346.671274 
L 700.052139 346.59106 
L 702.331842 346.468203 
L 704.285874 346.377491 
L 705.588562 346.347571 
L 708.845281 346.5579 
L 710.473641 346.448202 
L 711.450657 346.341761 
L 712.427673 346.265748 
L 714.381704 346.101542 
L 715.35872 346.06336 
L 716.98708 346.158216 
L 718.941112 346.231766 
L 720.569472 346.107754 
L 724.151863 345.818252 
L 727.408583 346.071285 
L 728.385598 346.047444 
L 733.922022 345.479613 
L 736.201725 345.652945 
L 737.830085 345.750182 
L 738.481429 345.737535 
L 740.109789 345.551766 
L 741.086805 345.469389 
L 743.366508 345.275238 
L 745.646212 345.457118 
L 746.297556 345.439814 
L 747.925916 345.24452 
L 748.902932 345.16132 
L 751.182635 344.95315 
L 752.810995 345.066633 
L 756.719058 345.115562 
L 758.998762 344.852252 
L 763.883841 344.745699 
L 765.512201 344.559966 
L 766.489217 344.468848 
L 767.466233 344.377112 
L 768.768921 344.498383 
L 769.745936 344.583728 
L 771.699968 344.719157 
L 772.676984 344.480708 
L 773.328328 344.403457 
L 775.28236 344.160415 
L 776.259376 344.068631 
L 777.236391 344.028091 
L 778.539079 344.110112 
L 780.167439 344.270081 
L 780.818783 344.302533 
L 782.121471 344.117221 
L 784.401174 343.823246 
L 787.00655 343.907632 
L 787.657894 343.945026 
L 788.63491 344.023597 
L 789.286254 344.057553 
L 790.914613 343.817805 
L 793.194317 343.517317 
L 795.799693 343.646523 
L 796.776709 343.65965 
L 797.428052 343.581998 
L 801.336116 342.996627 
L 803.290148 343.095615 
L 804.918507 343.268689 
L 805.569851 343.297289 
L 806.872539 343.100369 
L 809.152243 342.781763 
L 811.106275 342.870791 
L 812.08329 342.961156 
L 813.060306 342.749008 
L 813.71165 342.692023 
L 815.665682 342.424722 
L 818.596729 342.510764 
L 821.202105 342.647755 
L 822.504793 342.447052 
L 825.110168 342.123867 
L 826.738528 342.329853 
L 827.389872 342.246048 
L 828.366888 342.141208 
L 829.343904 342.164878 
L 829.995248 342.27304 
L 833.251967 342.805073 
L 834.228983 342.873044 
L 835.857343 343.141152 
L 836.834359 343.211351 
L 838.462719 343.47033 
L 839.439734 343.537411 
L 841.068094 343.795533 
L 842.04511 343.868236 
L 843.67347 344.118956 
L 844.324814 344.185841 
L 846.278845 344.432605 
L 847.255861 344.496652 
L 848.884221 344.742892 
L 849.861237 344.806811 
L 850.838253 344.944895 
L 851.489597 345.032398 
L 854.746316 345.461642 
L 856.374676 345.569265 
L 858.003036 345.791332 
L 859.305724 345.901255 
L 861.259755 346.115664 
L 862.236771 346.215933 
L 863.865131 346.375408 
L 864.842147 346.47408 
L 866.470507 346.627548 
L 867.773194 346.724996 
L 869.727226 346.91907 
L 870.704242 347.012702 
L 872.332602 347.152358 
L 898.060686 347.198185 
L 898.060686 347.198185 
" style="fill:none;stroke:#ff7f0e;stroke-linecap:square;stroke-width:1.5;"/>
   </g>
   <g id="line2d_28">
    <path clip-path="url(#p840a68030f)" d="M 572.714405 347.198185 
L 574.994109 347.198185 
L 575.319781 343.797282 
L 575.645453 343.797282 
L 575.971124 340.39638 
L 576.296796 340.39638 
L 576.622468 336.995477 
L 576.94814 330.193672 
L 577.273812 330.193672 
L 577.925156 323.391866 
L 578.250828 323.391866 
L 578.5765 326.792769 
L 578.902172 326.792769 
L 579.879188 336.995478 
L 580.20486 336.995478 
L 580.530532 340.396381 
L 580.856204 340.396381 
L 581.181876 343.797284 
L 581.507548 343.797284 
L 581.83322 347.198185 
L 602.350553 347.198185 
L 602.676225 343.79793 
L 603.001897 343.79793 
L 603.978912 333.597365 
L 604.304584 333.597365 
L 604.630256 330.197253 
L 604.955928 330.197253 
L 605.2816 326.797176 
L 605.607272 326.797176 
L 605.932944 323.397151 
L 606.258616 323.397151 
L 606.584288 319.997151 
L 606.90996 319.997151 
L 607.235632 323.397414 
L 607.561304 323.397414 
L 607.886976 326.797664 
L 608.212648 326.797664 
L 608.53832 330.197892 
L 608.863992 330.197892 
L 609.189664 333.598084 
L 609.515336 333.598084 
L 610.818023 347.198185 
L 612.120711 347.198185 
L 612.446383 343.798411 
L 612.772055 343.798411 
L 613.097727 340.398734 
L 613.423399 340.398734 
L 613.749071 336.999132 
L 614.074743 336.999132 
L 614.400415 333.599624 
L 614.726087 333.599624 
L 615.051759 330.200202 
L 615.377431 330.200202 
L 615.703103 326.800837 
L 616.028775 326.800837 
L 616.354447 323.401502 
L 616.680119 323.401502 
L 617.005791 320.002178 
L 617.331463 320.002178 
L 618.308478 309.80403 
L 618.63415 309.80403 
L 618.959822 306.404651 
L 619.285494 306.404651 
L 619.611166 309.80421 
L 619.936838 309.80421 
L 620.26251 313.20382 
L 620.588182 313.20382 
L 620.913854 316.60347 
L 621.239526 316.60347 
L 621.565198 320.003133 
L 621.89087 320.003133 
L 622.216542 323.402785 
L 622.542214 323.402785 
L 622.867886 326.802399 
L 623.193558 326.802399 
L 623.51923 330.201953 
L 623.844902 330.201953 
L 624.170574 333.601428 
L 624.496245 333.601428 
L 624.821917 337.000834 
L 625.147589 337.000834 
L 625.473261 333.602045 
L 625.798933 333.602045 
L 626.775949 323.405921 
L 627.101621 323.405921 
L 627.427293 320.007441 
L 627.752965 320.007441 
L 628.078637 316.608967 
L 628.404309 316.608967 
L 628.729981 313.21048 
L 629.055653 313.21048 
L 629.381325 309.811968 
L 629.706997 309.811968 
L 630.032669 306.413416 
L 630.358341 306.413416 
L 630.684013 303.014824 
L 631.009685 303.014824 
L 631.335356 299.616176 
L 631.661028 299.616176 
L 631.9867 303.01499 
L 632.312372 303.01499 
L 632.638044 306.413897 
L 632.963716 306.413897 
L 633.289388 309.812883 
L 633.61506 309.812883 
L 634.592076 320.009576 
L 634.917748 320.009576 
L 635.24342 323.408714 
L 635.569092 323.408714 
L 635.894764 326.807806 
L 636.220436 326.807806 
L 636.546108 330.206735 
L 636.87178 330.206735 
L 637.197452 326.809046 
L 637.523124 326.809046 
L 637.848796 323.411453 
L 638.174468 323.411453 
L 638.500139 320.013912 
L 638.825811 320.013912 
L 639.151483 316.616381 
L 639.477155 316.616381 
L 639.802827 313.218837 
L 640.128499 313.218837 
L 640.454171 309.821268 
L 640.779843 309.821268 
L 641.105515 306.423657 
L 641.431187 306.423657 
L 641.756859 303.025996 
L 642.082531 303.025996 
L 642.408203 299.628276 
L 642.733875 299.628276 
L 643.059547 296.230484 
L 643.385219 296.230484 
L 643.710891 292.832616 
L 644.036563 292.832616 
L 644.362235 296.2305 
L 644.687907 296.2305 
L 645.013579 299.628542 
L 645.33925 299.628542 
L 645.664922 303.026946 
L 645.990594 303.026946 
L 646.96761 313.221886 
L 647.293282 313.221886 
L 647.618954 316.620419 
L 647.944626 316.620419 
L 648.59597 323.416205 
L 649.247314 323.416942 
L 649.572986 320.020401 
L 649.898658 320.020401 
L 650.550002 313.226777 
L 651.201346 313.227434 
L 651.527018 309.830925 
L 651.85269 309.830925 
L 652.178361 306.43437 
L 652.504033 306.43437 
L 652.829705 303.037755 
L 653.155377 303.037755 
L 653.481049 299.641071 
L 653.806721 299.641071 
L 654.132393 296.244312 
L 654.458065 296.244312 
L 654.783737 292.847462 
L 655.109409 292.847462 
L 655.435081 289.450869 
L 655.760753 289.450869 
L 656.086425 286.054506 
L 656.412097 286.054506 
L 656.737769 289.451969 
L 657.063441 289.451969 
L 657.389113 292.849484 
L 657.714785 292.849484 
L 658.040457 296.247036 
L 658.366129 296.247036 
L 658.691801 299.644591 
L 659.017472 299.644591 
L 659.343144 303.042138 
L 659.668816 303.042138 
L 659.994488 306.439647 
L 660.32016 306.439647 
L 660.645832 309.83709 
L 660.971504 309.83709 
L 661.297176 313.234444 
L 661.622848 313.234444 
L 661.94852 316.631678 
L 662.274192 316.631678 
L 663.251208 306.444856 
L 663.57688 306.444856 
L 663.902552 303.049503 
L 664.228224 303.049503 
L 664.553896 299.654053 
L 664.879568 299.654053 
L 665.20524 296.258496 
L 665.530912 296.258496 
L 665.856584 292.862831 
L 666.182255 292.862831 
L 666.507927 289.467048 
L 666.833599 289.467048 
L 667.159271 286.071533 
L 667.484943 286.071533 
L 667.810615 282.67636 
L 668.136287 282.67636 
L 668.461959 279.28114 
L 668.787631 279.28114 
L 669.113303 282.677585 
L 669.438975 282.677585 
L 669.764647 286.074082 
L 670.090319 286.074083 
L 670.415991 289.470675 
L 670.741663 289.470675 
L 671.067335 292.867329 
L 671.393007 292.867329 
L 671.718679 296.264026 
L 672.044351 296.264026 
L 672.370023 299.660719 
L 672.695695 299.660719 
L 673.021366 303.057381 
L 673.347038 303.057381 
L 673.67271 306.453977 
L 673.998382 306.453977 
L 674.324054 303.059813 
L 674.649726 303.059813 
L 674.975398 299.665616 
L 675.30107 299.665616 
L 675.626742 296.271324 
L 675.952414 296.271324 
L 676.278086 292.876895 
L 676.603758 292.876895 
L 676.92943 289.482324 
L 677.255102 289.482324 
L 677.580774 286.087615 
L 677.906446 286.087615 
L 678.232118 282.692759 
L 678.55779 282.692759 
L 679.534806 272.507534 
L 679.860477 272.507535 
L 680.186149 269.11212 
L 680.511821 269.11212 
L 680.837493 272.506926 
L 681.163165 272.506926 
L 681.488837 275.90211 
L 681.814509 275.90211 
L 682.140181 279.297656 
L 682.465853 279.297656 
L 682.791525 282.693628 
L 683.117197 282.693628 
L 683.442869 286.090415 
L 683.768541 286.090415 
L 684.094213 289.487402 
L 684.419885 289.487402 
L 684.745557 292.884215 
L 685.071229 292.884215 
L 685.396901 296.280739 
L 685.722573 296.280739 
L 686.048245 299.676979 
L 686.373917 299.676979 
L 686.699588 296.284278 
L 687.02526 296.284278 
L 687.350932 292.89145 
L 687.676604 292.89145 
L 688.002276 289.498435 
L 688.327948 289.498435 
L 688.65362 286.105212 
L 688.979292 286.105212 
L 689.304964 282.711828 
L 689.630636 282.711828 
L 689.956308 279.31827 
L 690.28198 279.31827 
L 690.607652 275.924575 
L 690.933324 275.924576 
L 691.258996 272.530685 
L 691.584668 272.530685 
L 691.91034 269.136634 
L 692.236012 269.136634 
L 692.561684 265.742412 
L 692.887356 265.742412 
L 693.213028 262.347997 
L 693.5387 262.347997 
L 693.864371 265.741766 
L 694.190043 265.741766 
L 694.515715 269.136003 
L 694.841387 269.136003 
L 695.818403 279.319793 
L 696.144075 279.319793 
L 696.469747 282.715313 
L 696.795419 282.715313 
L 697.121091 286.111024 
L 697.446763 286.111024 
L 697.772435 289.507418 
L 698.098107 289.507418 
L 698.423779 286.116794 
L 698.749451 286.116794 
L 699.075123 282.725952 
L 699.400795 282.725952 
L 699.726467 279.334665 
L 700.052139 279.334665 
L 700.377811 275.942871 
L 700.703482 275.94287 
L 701.029154 272.550669 
L 701.354826 272.550669 
L 701.680498 269.158135 
L 702.00617 269.158134 
L 702.331842 265.765359 
L 702.657514 265.765359 
L 702.983186 262.372392 
L 703.308858 262.372392 
L 703.63453 258.979228 
L 703.960202 258.979228 
L 704.937218 248.799184 
L 705.26289 248.799184 
L 706.239906 258.978424 
L 706.565578 258.978424 
L 707.542593 269.160589 
L 707.868265 269.160589 
L 708.845281 279.343969 
L 709.170953 279.343969 
L 710.147969 269.171073 
L 710.473641 269.171072 
L 710.799313 262.387895 
L 711.124985 262.387895 
L 711.450657 258.996967 
L 711.776329 258.996967 
L 712.753345 248.824522 
L 713.079017 248.824522 
L 714.056033 238.650165 
L 714.381704 238.650165 
L 715.033048 231.865667 
L 715.35872 235.257369 
L 715.684392 235.257369 
L 716.661408 245.434978 
L 716.98708 245.434978 
L 717.964096 255.615884 
L 718.289768 255.615883 
L 718.61544 259.011004 
L 719.266784 252.23052 
L 719.592456 252.23052 
L 719.918128 248.841228 
L 720.2438 248.841228 
L 721.220816 238.669141 
L 721.546487 238.669141 
L 722.523503 228.494742 
L 722.849175 228.494742 
L 723.826191 218.318434 
L 724.151863 218.318434 
L 725.128879 228.492841 
L 725.454551 228.492841 
L 726.431567 238.671772 
L 726.757239 238.671772 
L 727.734255 248.852983 
L 728.059927 248.852983 
L 729.036942 238.68927 
L 729.362614 238.68927 
L 730.33963 228.525483 
L 730.665302 228.525483 
L 731.642318 218.356553 
L 731.96799 218.356553 
L 732.945006 208.183772 
L 733.270678 208.183772 
L 733.922022 201.401189 
L 734.247694 204.7908 
L 734.573366 204.7908 
L 735.550381 214.964275 
L 735.876053 214.964275 
L 736.201725 218.357676 
L 736.527397 218.357676 
L 737.504413 228.536472 
L 737.830085 228.536472 
L 738.155757 231.931347 
L 738.807101 225.155271 
L 739.132773 225.155271 
L 740.109789 214.990656 
L 740.435461 214.990656 
L 741.412477 204.823086 
L 741.738149 204.823086 
L 742.715164 194.653301 
L 743.040836 194.653301 
L 743.366508 191.262555 
L 744.017852 198.042591 
L 744.343524 198.042591 
L 745.32054 208.217284 
L 745.646212 208.217284 
L 745.971884 211.61141 
L 746.623228 204.836222 
L 746.9489 204.836223 
L 747.925916 194.672061 
L 748.251588 194.672062 
L 749.228603 184.503537 
L 749.554275 184.503537 
L 750.531291 174.332124 
L 750.856963 174.332124 
L 751.182635 170.940306 
L 751.833979 177.718532 
L 752.159651 177.718532 
L 752.485323 181.1092 
L 752.810995 181.1092 
L 753.788011 191.290351 
L 754.113683 191.290351 
L 755.090699 201.473052 
L 755.416371 201.473052 
L 755.742043 204.868697 
L 756.393386 198.096833 
L 756.719058 198.096833 
L 757.696074 187.938011 
L 758.021746 187.938011 
L 758.998762 177.775478 
L 759.324434 177.775478 
L 759.975778 170.99911 
L 760.30145 174.388326 
L 760.627122 174.388327 
L 761.604138 184.559037 
L 761.92981 184.559038 
L 762.255482 187.952441 
L 762.906825 181.180901 
L 763.232497 181.180901 
L 764.209513 171.021781 
L 764.535185 171.021781 
L 765.512201 160.857199 
L 765.837873 160.857199 
L 766.814889 150.689282 
L 767.140561 150.689282 
L 767.466233 147.298385 
L 768.117577 154.073498 
L 768.443249 154.073497 
L 768.768921 157.462854 
L 769.094593 157.462853 
L 770.071608 167.634366 
L 770.39728 167.634366 
L 771.374296 177.810983 
L 771.699968 177.810983 
L 772.676984 167.66985 
L 773.002656 167.66985 
L 773.979672 157.519214 
L 774.305344 157.519213 
L 775.28236 147.3583 
L 775.608032 147.358299 
L 776.585048 137.193535 
L 777.562063 137.191266 
L 777.887735 140.578062 
L 778.213407 140.578062 
L 779.190423 150.7464 
L 779.516095 150.7464 
L 780.493111 160.921035 
L 780.818783 160.921035 
L 781.795799 150.773397 
L 782.121471 150.773396 
L 783.098487 140.617958 
L 783.424159 140.617958 
L 784.401174 130.457466 
L 784.726846 130.457466 
L 785.052518 127.069281 
L 785.37819 127.069278 
L 785.703862 123.680648 
L 786.355206 130.453731 
L 786.680878 130.453731 
L 787.00655 137.229477 
L 787.332222 140.61607 
L 787.983566 140.621119 
L 788.960582 150.795215 
L 789.286254 150.795215 
L 790.26327 140.650481 
L 790.588941 140.650482 
L 791.565957 130.497423 
L 791.891629 130.497423 
L 793.194317 116.953051 
L 793.519989 116.951536 
L 793.845661 113.565556 
L 794.171333 116.950564 
L 794.497005 116.950563 
L 795.474021 127.113057 
L 795.799693 127.113057 
L 796.125365 130.50485 
L 796.451037 127.119016 
L 796.776709 130.511564 
L 797.102381 130.511564 
L 798.079396 120.371232 
L 798.405068 120.371233 
L 799.382084 110.227664 
L 799.707756 110.227664 
L 800.684772 100.069549 
L 801.010444 100.06955 
L 801.336116 96.680214 
L 801.661788 96.680214 
L 801.98746 93.290661 
L 802.638804 100.06018 
L 802.964476 100.060181 
L 803.941492 110.224653 
L 804.267164 110.224653 
L 805.244179 120.39804 
L 805.569851 120.39804 
L 806.546867 110.258928 
L 806.872539 110.258928 
L 807.849555 100.108963 
L 808.175227 100.108963 
L 809.152243 89.953182 
L 809.477915 89.953182 
L 809.803587 86.566329 
L 810.454931 93.336298 
L 810.780603 93.336298 
L 811.757618 103.501492 
L 812.08329 103.501493 
L 812.408962 100.124754 
L 812.734634 93.355697 
L 813.385978 93.360803 
L 814.362994 83.208355 
L 814.688666 83.208355 
L 815.665682 73.049325 
L 815.991354 73.049325 
L 816.317026 69.660814 
L 817.294042 69.657885 
L 817.619714 73.041922 
L 817.945386 73.041922 
L 818.922401 83.203169 
L 819.248073 83.203169 
L 820.225089 93.374634 
L 820.550761 93.374633 
L 820.876433 96.770553 
L 821.527777 90.012423 
L 821.853449 90.012423 
L 822.830465 79.870459 
L 823.156137 79.87046 
L 823.481809 76.487783 
L 823.807481 69.720023 
L 824.458825 69.719886 
L 825.110168 62.950962 
L 825.43584 66.334402 
L 825.761512 66.334403 
L 826.738528 76.493973 
L 827.0642 76.493973 
L 828.041216 66.346955 
L 828.366888 66.346955 
L 828.69256 62.954578 
L 829.018232 66.338431 
L 829.343904 62.9424 
L 829.669576 62.9424 
L 830.646592 73.074291 
L 830.972264 73.074291 
L 831.94928 83.217311 
L 832.274951 83.217312 
L 833.251967 93.364241 
L 833.577639 93.364242 
L 833.903311 96.745971 
L 834.228983 96.745972 
L 834.554655 100.128224 
L 834.880327 100.128224 
L 835.857343 110.278822 
L 836.183015 110.278823 
L 836.508687 113.662356 
L 836.834359 113.662356 
L 837.160031 117.046298 
L 837.485703 117.046298 
L 838.462719 127.199735 
L 838.788391 127.199735 
L 839.114062 130.584329 
L 839.439734 130.584329 
L 839.765406 133.969116 
L 840.091078 133.969117 
L 840.41675 137.354159 
L 840.742422 144.123322 
L 841.393766 144.123895 
L 841.719438 147.508976 
L 842.04511 147.508975 
L 842.370782 150.894289 
L 842.696454 150.894289 
L 843.67347 161.0497 
L 843.999142 161.0497 
L 844.650486 167.819543 
L 845.30183 167.820538 
L 846.278845 177.976066 
L 846.604517 177.976065 
L 846.930189 181.361482 
L 847.255861 181.361482 
L 847.581533 184.746929 
L 847.907205 184.746929 
L 848.884221 194.90229 
L 849.209893 194.90229 
L 849.535565 198.287783 
L 849.861237 198.287782 
L 850.186909 201.673464 
L 850.512581 201.673464 
L 850.838253 205.057582 
L 851.163925 205.057582 
L 852.140941 215.205691 
L 852.466613 215.20569 
L 852.792284 218.589032 
L 853.117956 218.589032 
L 853.443628 221.973713 
L 853.7693 221.973713 
L 854.746316 232.129258 
L 855.071988 232.129258 
L 855.39766 235.514672 
L 855.723332 235.514672 
L 856.049004 238.899906 
L 856.374676 238.899906 
L 857.351692 249.05418 
L 857.677364 249.054179 
L 858.003036 252.438932 
L 858.328708 252.438932 
L 858.65438 255.823713 
L 858.980052 255.823713 
L 859.957067 265.977491 
L 860.282739 265.977491 
L 860.608411 269.362167 
L 860.934083 269.362166 
L 861.259755 272.746779 
L 861.585427 272.746779 
L 862.562443 282.900118 
L 862.888115 282.900119 
L 863.213787 286.284571 
L 863.539459 286.284571 
L 863.865131 289.668991 
L 864.190803 289.668991 
L 865.167819 299.821796 
L 865.493491 299.821796 
L 865.819163 303.206073 
L 866.144835 303.206073 
L 866.470507 306.5903 
L 866.796178 306.5903 
L 867.12185 309.974525 
L 867.447522 309.974525 
L 868.424538 320.12678 
L 868.75021 320.12678 
L 869.075882 323.510808 
L 869.401554 323.510808 
L 869.727226 326.894818 
L 870.052898 326.894818 
L 870.37857 333.66268 
L 870.704242 333.66268 
L 871.029914 337.046603 
L 871.355586 337.046603 
L 871.681258 340.430416 
L 872.00693 340.430416 
L 872.332602 343.814221 
L 872.658274 343.814221 
L 872.983946 347.198185 
L 898.060686 347.198185 
L 898.060686 347.198185 
" style="fill:none;stroke:#2ca02c;stroke-linecap:square;stroke-width:1.5;"/>
   </g>
   <g id="patch_9">
    <path d="M 556.447091 361.4112 
L 556.447091 48.7296 
" style="fill:none;stroke:#000000;stroke-linecap:square;stroke-linejoin:miter;stroke-width:0.8;"/>
   </g>
   <g id="patch_10">
    <path d="M 914.328 361.4112 
L 914.328 48.7296 
" style="fill:none;stroke:#000000;stroke-linecap:square;stroke-linejoin:miter;stroke-width:0.8;"/>
   </g>
   <g id="patch_11">
    <path d="M 556.447091 361.4112 
L 914.328 361.4112 
" style="fill:none;stroke:#000000;stroke-linecap:square;stroke-linejoin:miter;stroke-width:0.8;"/>
   </g>
   <g id="patch_12">
    <path d="M 556.447091 48.7296 
L 914.328 48.7296 
" style="fill:none;stroke:#000000;stroke-linecap:square;stroke-linejoin:miter;stroke-width:0.8;"/>
   </g>
   <g id="text_30">
    <!-- Torques for forces with compromised muscle function -->
    <g transform="translate(510.741358 42.7296)scale(0.168 -0.168)">
     <defs>
      <path d="M 2375 4863 
L 2375 4384 
L 1825 4384 
Q 1516 4384 1395 4259 
Q 1275 4134 1275 3809 
L 1275 3500 
L 2222 3500 
L 2222 3053 
L 1275 3053 
L 1275 0 
L 697 0 
L 697 3053 
L 147 3053 
L 147 3500 
L 697 3500 
L 697 3744 
Q 697 4328 969 4595 
Q 1241 4863 1831 4863 
L 2375 4863 
z
" id="DejaVuSans-66" transform="scale(0.015625)"/>
      <path d="M 269 3500 
L 844 3500 
L 1563 769 
L 2278 3500 
L 2956 3500 
L 3675 769 
L 4391 3500 
L 4966 3500 
L 4050 0 
L 3372 0 
L 2619 2869 
L 1863 0 
L 1184 0 
L 269 3500 
z
" id="DejaVuSans-77" transform="scale(0.015625)"/>
      <path d="M 1172 4494 
L 1172 3500 
L 2356 3500 
L 2356 3053 
L 1172 3053 
L 1172 1153 
Q 1172 725 1289 603 
Q 1406 481 1766 481 
L 2356 481 
L 2356 0 
L 1766 0 
Q 1100 0 847 248 
Q 594 497 594 1153 
L 594 3053 
L 172 3053 
L 172 3500 
L 594 3500 
L 594 4494 
L 1172 4494 
z
" id="DejaVuSans-74" transform="scale(0.015625)"/>
      <path d="M 3513 2113 
L 3513 0 
L 2938 0 
L 2938 2094 
Q 2938 2591 2744 2837 
Q 2550 3084 2163 3084 
Q 1697 3084 1428 2787 
Q 1159 2491 1159 1978 
L 1159 0 
L 581 0 
L 581 4863 
L 1159 4863 
L 1159 2956 
Q 1366 3272 1645 3428 
Q 1925 3584 2291 3584 
Q 2894 3584 3203 3211 
Q 3513 2838 3513 2113 
z
" id="DejaVuSans-68" transform="scale(0.015625)"/>
      <path d="M 1159 525 
L 1159 -1331 
L 581 -1331 
L 581 3500 
L 1159 3500 
L 1159 2969 
Q 1341 3281 1617 3432 
Q 1894 3584 2278 3584 
Q 2916 3584 3314 3078 
Q 3713 2572 3713 1747 
Q 3713 922 3314 415 
Q 2916 -91 2278 -91 
Q 1894 -91 1617 61 
Q 1341 213 1159 525 
z
M 3116 1747 
Q 3116 2381 2855 2742 
Q 2594 3103 2138 3103 
Q 1681 3103 1420 2742 
Q 1159 2381 1159 1747 
Q 1159 1113 1420 752 
Q 1681 391 2138 391 
Q 2594 391 2855 752 
Q 3116 1113 3116 1747 
z
" id="DejaVuSans-70" transform="scale(0.015625)"/>
      <path d="M 2906 2969 
L 2906 4863 
L 3481 4863 
L 3481 0 
L 2906 0 
L 2906 525 
Q 2725 213 2448 61 
Q 2172 -91 1784 -91 
Q 1150 -91 751 415 
Q 353 922 353 1747 
Q 353 2572 751 3078 
Q 1150 3584 1784 3584 
Q 2172 3584 2448 3432 
Q 2725 3281 2906 2969 
z
M 947 1747 
Q 947 1113 1208 752 
Q 1469 391 1925 391 
Q 2381 391 2643 752 
Q 2906 1113 2906 1747 
Q 2906 2381 2643 2742 
Q 2381 3103 1925 3103 
Q 1469 3103 1208 2742 
Q 947 2381 947 1747 
z
" id="DejaVuSans-64" transform="scale(0.015625)"/>
      <path d="M 603 4863 
L 1178 4863 
L 1178 0 
L 603 0 
L 603 4863 
z
" id="DejaVuSans-6c" transform="scale(0.015625)"/>
     </defs>
     <use xlink:href="#DejaVuSans-54"/>
     <use x="44.083984" xlink:href="#DejaVuSans-6f"/>
     <use x="105.265625" xlink:href="#DejaVuSans-72"/>
     <use x="144.628906" xlink:href="#DejaVuSans-71"/>
     <use x="208.105469" xlink:href="#DejaVuSans-75"/>
     <use x="271.484375" xlink:href="#DejaVuSans-65"/>
     <use x="333.007812" xlink:href="#DejaVuSans-73"/>
     <use x="385.107422" xlink:href="#DejaVuSans-20"/>
     <use x="416.894531" xlink:href="#DejaVuSans-66"/>
     <use x="452.099609" xlink:href="#DejaVuSans-6f"/>
     <use x="513.28125" xlink:href="#DejaVuSans-72"/>
     <use x="554.394531" xlink:href="#DejaVuSans-20"/>
     <use x="586.181641" xlink:href="#DejaVuSans-66"/>
     <use x="621.386719" xlink:href="#DejaVuSans-6f"/>
     <use x="682.568359" xlink:href="#DejaVuSans-72"/>
     <use x="721.431641" xlink:href="#DejaVuSans-63"/>
     <use x="776.412109" xlink:href="#DejaVuSans-65"/>
     <use x="837.935547" xlink:href="#DejaVuSans-73"/>
     <use x="890.035156" xlink:href="#DejaVuSans-20"/>
     <use x="921.822266" xlink:href="#DejaVuSans-77"/>
     <use x="1003.609375" xlink:href="#DejaVuSans-69"/>
     <use x="1031.392578" xlink:href="#DejaVuSans-74"/>
     <use x="1070.601562" xlink:href="#DejaVuSans-68"/>
     <use x="1133.980469" xlink:href="#DejaVuSans-20"/>
     <use x="1165.767578" xlink:href="#DejaVuSans-63"/>
     <use x="1220.748047" xlink:href="#DejaVuSans-6f"/>
     <use x="1281.929688" xlink:href="#DejaVuSans-6d"/>
     <use x="1379.341797" xlink:href="#DejaVuSans-70"/>
     <use x="1442.818359" xlink:href="#DejaVuSans-72"/>
     <use x="1481.681641" xlink:href="#DejaVuSans-6f"/>
     <use x="1542.863281" xlink:href="#DejaVuSans-6d"/>
     <use x="1640.275391" xlink:href="#DejaVuSans-69"/>
     <use x="1668.058594" xlink:href="#DejaVuSans-73"/>
     <use x="1720.158203" xlink:href="#DejaVuSans-65"/>
     <use x="1781.681641" xlink:href="#DejaVuSans-64"/>
     <use x="1845.158203" xlink:href="#DejaVuSans-20"/>
     <use x="1876.945312" xlink:href="#DejaVuSans-6d"/>
     <use x="1974.357422" xlink:href="#DejaVuSans-75"/>
     <use x="2037.736328" xlink:href="#DejaVuSans-73"/>
     <use x="2089.835938" xlink:href="#DejaVuSans-63"/>
     <use x="2144.816406" xlink:href="#DejaVuSans-6c"/>
     <use x="2172.599609" xlink:href="#DejaVuSans-65"/>
     <use x="2234.123047" xlink:href="#DejaVuSans-20"/>
     <use x="2265.910156" xlink:href="#DejaVuSans-66"/>
     <use x="2301.115234" xlink:href="#DejaVuSans-75"/>
     <use x="2364.494141" xlink:href="#DejaVuSans-6e"/>
     <use x="2427.873047" xlink:href="#DejaVuSans-63"/>
     <use x="2482.853516" xlink:href="#DejaVuSans-74"/>
     <use x="2522.0625" xlink:href="#DejaVuSans-69"/>
     <use x="2549.845703" xlink:href="#DejaVuSans-6f"/>
     <use x="2611.027344" xlink:href="#DejaVuSans-6e"/>
    </g>
   </g>
   <g id="legend_2">
    <g id="patch_13">
     <path d="M 566.247091 121.577725 
L 669.042091 121.577725 
Q 671.842091 121.577725 671.842091 118.777725 
L 671.842091 58.5296 
Q 671.842091 55.7296 669.042091 55.7296 
L 566.247091 55.7296 
Q 563.447091 55.7296 563.447091 58.5296 
L 563.447091 118.777725 
Q 563.447091 121.577725 566.247091 121.577725 
z
" style="fill:#ffffff;opacity:0.8;stroke:#cccccc;stroke-linejoin:miter;"/>
    </g>
    <g id="line2d_29">
     <path d="M 569.047091 67.067412 
L 597.047091 67.067412 
" style="fill:none;stroke:#1f77b4;stroke-linecap:square;stroke-width:1.5;"/>
    </g>
    <g id="line2d_30"/>
    <g id="text_31">
     <!-- in x axis -->
     <g transform="translate(608.247091 71.967412)scale(0.14 -0.14)">
      <defs>
       <path d="M 2194 1759 
Q 1497 1759 1228 1600 
Q 959 1441 959 1056 
Q 959 750 1161 570 
Q 1363 391 1709 391 
Q 2188 391 2477 730 
Q 2766 1069 2766 1631 
L 2766 1759 
L 2194 1759 
z
M 3341 1997 
L 3341 0 
L 2766 0 
L 2766 531 
Q 2569 213 2275 61 
Q 1981 -91 1556 -91 
Q 1019 -91 701 211 
Q 384 513 384 1019 
Q 384 1609 779 1909 
Q 1175 2209 1959 2209 
L 2766 2209 
L 2766 2266 
Q 2766 2663 2505 2880 
Q 2244 3097 1772 3097 
Q 1472 3097 1187 3025 
Q 903 2953 641 2809 
L 641 3341 
Q 956 3463 1253 3523 
Q 1550 3584 1831 3584 
Q 2591 3584 2966 3190 
Q 3341 2797 3341 1997 
z
" id="DejaVuSans-61" transform="scale(0.015625)"/>
      </defs>
      <use xlink:href="#DejaVuSans-69"/>
      <use x="27.783203" xlink:href="#DejaVuSans-6e"/>
      <use x="91.162109" xlink:href="#DejaVuSans-20"/>
      <use x="122.949219" xlink:href="#DejaVuSans-78"/>
      <use x="182.128906" xlink:href="#DejaVuSans-20"/>
      <use x="213.916016" xlink:href="#DejaVuSans-61"/>
      <use x="275.195312" xlink:href="#DejaVuSans-78"/>
      <use x="334.375" xlink:href="#DejaVuSans-69"/>
      <use x="362.158203" xlink:href="#DejaVuSans-73"/>
     </g>
    </g>
    <g id="line2d_31">
     <path d="M 569.047091 87.616787 
L 597.047091 87.616787 
" style="fill:none;stroke:#ff7f0e;stroke-linecap:square;stroke-width:1.5;"/>
    </g>
    <g id="line2d_32"/>
    <g id="text_32">
     <!-- in y axis -->
     <g transform="translate(608.247091 92.516787)scale(0.14 -0.14)">
      <defs>
       <path d="M 2059 -325 
Q 1816 -950 1584 -1140 
Q 1353 -1331 966 -1331 
L 506 -1331 
L 506 -850 
L 844 -850 
Q 1081 -850 1212 -737 
Q 1344 -625 1503 -206 
L 1606 56 
L 191 3500 
L 800 3500 
L 1894 763 
L 2988 3500 
L 3597 3500 
L 2059 -325 
z
" id="DejaVuSans-79" transform="scale(0.015625)"/>
      </defs>
      <use xlink:href="#DejaVuSans-69"/>
      <use x="27.783203" xlink:href="#DejaVuSans-6e"/>
      <use x="91.162109" xlink:href="#DejaVuSans-20"/>
      <use x="122.949219" xlink:href="#DejaVuSans-79"/>
      <use x="182.128906" xlink:href="#DejaVuSans-20"/>
      <use x="213.916016" xlink:href="#DejaVuSans-61"/>
      <use x="275.195312" xlink:href="#DejaVuSans-78"/>
      <use x="334.375" xlink:href="#DejaVuSans-69"/>
      <use x="362.158203" xlink:href="#DejaVuSans-73"/>
     </g>
    </g>
    <g id="line2d_33">
     <path d="M 569.047091 108.166162 
L 597.047091 108.166162 
" style="fill:none;stroke:#2ca02c;stroke-linecap:square;stroke-width:1.5;"/>
    </g>
    <g id="line2d_34"/>
    <g id="text_33">
     <!-- in z axis -->
     <g transform="translate(608.247091 113.066162)scale(0.14 -0.14)">
      <defs>
       <path d="M 353 3500 
L 3084 3500 
L 3084 2975 
L 922 459 
L 3084 459 
L 3084 0 
L 275 0 
L 275 525 
L 2438 3041 
L 353 3041 
L 353 3500 
z
" id="DejaVuSans-7a" transform="scale(0.015625)"/>
      </defs>
      <use xlink:href="#DejaVuSans-69"/>
      <use x="27.783203" xlink:href="#DejaVuSans-6e"/>
      <use x="91.162109" xlink:href="#DejaVuSans-20"/>
      <use x="122.949219" xlink:href="#DejaVuSans-7a"/>
      <use x="175.439453" xlink:href="#DejaVuSans-20"/>
      <use x="207.226562" xlink:href="#DejaVuSans-61"/>
      <use x="268.505859" xlink:href="#DejaVuSans-78"/>
      <use x="327.685547" xlink:href="#DejaVuSans-69"/>
      <use x="355.46875" xlink:href="#DejaVuSans-73"/>
     </g>
    </g>
   </g>
  </g>
 </g>
 <defs>
  <clipPath id="p7c71421b26">
   <rect height="312.6816" width="357.880909" x="126.99" y="48.7296"/>
  </clipPath>
  <clipPath id="p840a68030f">
   <rect height="312.6816" width="357.880909" x="556.447091" y="48.7296"/>
  </clipPath>
 </defs>
</svg>
