<?xml version="1.0" encoding="utf-8" standalone="no"?>
<!DOCTYPE svg PUBLIC "-//W3C//DTD SVG 1.1//EN"
  "http://www.w3.org/Graphics/SVG/1.1/DTD/svg11.dtd">
<svg height="376.56pt" version="1.1" viewBox="0 0 1275.12 376.56" width="1275.12pt" xmlns="http://www.w3.org/2000/svg" xmlns:xlink="http://www.w3.org/1999/xlink">
 <metadata>
  <rdf:RDF xmlns:cc="http://creativecommons.org/ns#" xmlns:dc="http://purl.org/dc/elements/1.1/" xmlns:rdf="http://www.w3.org/1999/02/22-rdf-syntax-ns#">
   <cc:Work>
    <dc:type rdf:resource="http://purl.org/dc/dcmitype/StillImage"/>
    <dc:date>2021-05-05T08:52:50.097574</dc:date>
    <dc:format>image/svg+xml</dc:format>
    <dc:creator>
     <cc:Agent>
      <dc:title>Matplotlib v3.4.1, https://matplotlib.org/</dc:title>
     </cc:Agent>
    </dc:creator>
   </cc:Work>
  </rdf:RDF>
 </metadata>
 <defs>
  <style type="text/css">*{stroke-linecap:butt;stroke-linejoin:round;}</style>
 </defs>
 <g id="figure_1">
  <g id="patch_1">
   <path d="M 0 376.56 
L 1275.12 376.56 
L 1275.12 0 
L 0 0 
z
" style="fill:#ffffff;"/>
  </g>
  <g id="axes_1">
   <g id="patch_2">
    <path d="M 159.39 335.1384 
L 450.042353 335.1384 
L 450.042353 45.1872 
L 159.39 45.1872 
z
" style="fill:#ffffff;"/>
   </g>
   <g id="matplotlib.axis_1">
    <g id="xtick_1">
     <g id="line2d_1">
      <defs>
       <path d="M 0 0 
L 0 3.5 
" id="m0902a9faff" style="stroke:#000000;stroke-width:0.8;"/>
      </defs>
      <g>
       <use style="stroke:#000000;stroke-width:0.8;" x="183.611029" xlink:href="#m0902a9faff" y="335.1384"/>
      </g>
     </g>
     <g id="text_1">
      <!-- 0.00 -->
      <g transform="translate(168.025092 352.776213)scale(0.14 -0.14)">
       <defs>
        <path d="M 2034 4250 
Q 1547 4250 1301 3770 
Q 1056 3291 1056 2328 
Q 1056 1369 1301 889 
Q 1547 409 2034 409 
Q 2525 409 2770 889 
Q 3016 1369 3016 2328 
Q 3016 3291 2770 3770 
Q 2525 4250 2034 4250 
z
M 2034 4750 
Q 2819 4750 3233 4129 
Q 3647 3509 3647 2328 
Q 3647 1150 3233 529 
Q 2819 -91 2034 -91 
Q 1250 -91 836 529 
Q 422 1150 422 2328 
Q 422 3509 836 4129 
Q 1250 4750 2034 4750 
z
" id="DejaVuSans-30" transform="scale(0.015625)"/>
        <path d="M 684 794 
L 1344 794 
L 1344 0 
L 684 0 
L 684 794 
z
" id="DejaVuSans-2e" transform="scale(0.015625)"/>
       </defs>
       <use xlink:href="#DejaVuSans-30"/>
       <use x="63.623047" xlink:href="#DejaVuSans-2e"/>
       <use x="95.410156" xlink:href="#DejaVuSans-30"/>
       <use x="159.033203" xlink:href="#DejaVuSans-30"/>
      </g>
     </g>
    </g>
    <g id="xtick_2">
     <g id="line2d_2">
      <g>
       <use style="stroke:#000000;stroke-width:0.8;" x="244.163603" xlink:href="#m0902a9faff" y="335.1384"/>
      </g>
     </g>
     <g id="text_2">
      <!-- 0.25 -->
      <g transform="translate(228.577665 352.776213)scale(0.14 -0.14)">
       <defs>
        <path d="M 1228 531 
L 3431 531 
L 3431 0 
L 469 0 
L 469 531 
Q 828 903 1448 1529 
Q 2069 2156 2228 2338 
Q 2531 2678 2651 2914 
Q 2772 3150 2772 3378 
Q 2772 3750 2511 3984 
Q 2250 4219 1831 4219 
Q 1534 4219 1204 4116 
Q 875 4013 500 3803 
L 500 4441 
Q 881 4594 1212 4672 
Q 1544 4750 1819 4750 
Q 2544 4750 2975 4387 
Q 3406 4025 3406 3419 
Q 3406 3131 3298 2873 
Q 3191 2616 2906 2266 
Q 2828 2175 2409 1742 
Q 1991 1309 1228 531 
z
" id="DejaVuSans-32" transform="scale(0.015625)"/>
        <path d="M 691 4666 
L 3169 4666 
L 3169 4134 
L 1269 4134 
L 1269 2991 
Q 1406 3038 1543 3061 
Q 1681 3084 1819 3084 
Q 2600 3084 3056 2656 
Q 3513 2228 3513 1497 
Q 3513 744 3044 326 
Q 2575 -91 1722 -91 
Q 1428 -91 1123 -41 
Q 819 9 494 109 
L 494 744 
Q 775 591 1075 516 
Q 1375 441 1709 441 
Q 2250 441 2565 725 
Q 2881 1009 2881 1497 
Q 2881 1984 2565 2268 
Q 2250 2553 1709 2553 
Q 1456 2553 1204 2497 
Q 953 2441 691 2322 
L 691 4666 
z
" id="DejaVuSans-35" transform="scale(0.015625)"/>
       </defs>
       <use xlink:href="#DejaVuSans-30"/>
       <use x="63.623047" xlink:href="#DejaVuSans-2e"/>
       <use x="95.410156" xlink:href="#DejaVuSans-32"/>
       <use x="159.033203" xlink:href="#DejaVuSans-35"/>
      </g>
     </g>
    </g>
    <g id="xtick_3">
     <g id="line2d_3">
      <g>
       <use style="stroke:#000000;stroke-width:0.8;" x="304.716176" xlink:href="#m0902a9faff" y="335.1384"/>
      </g>
     </g>
     <g id="text_3">
      <!-- 0.50 -->
      <g transform="translate(289.130239 352.776213)scale(0.14 -0.14)">
       <use xlink:href="#DejaVuSans-30"/>
       <use x="63.623047" xlink:href="#DejaVuSans-2e"/>
       <use x="95.410156" xlink:href="#DejaVuSans-35"/>
       <use x="159.033203" xlink:href="#DejaVuSans-30"/>
      </g>
     </g>
    </g>
    <g id="xtick_4">
     <g id="line2d_4">
      <g>
       <use style="stroke:#000000;stroke-width:0.8;" x="365.26875" xlink:href="#m0902a9faff" y="335.1384"/>
      </g>
     </g>
     <g id="text_4">
      <!-- 0.75 -->
      <g transform="translate(349.682812 352.776213)scale(0.14 -0.14)">
       <defs>
        <path d="M 525 4666 
L 3525 4666 
L 3525 4397 
L 1831 0 
L 1172 0 
L 2766 4134 
L 525 4134 
L 525 4666 
z
" id="DejaVuSans-37" transform="scale(0.015625)"/>
       </defs>
       <use xlink:href="#DejaVuSans-30"/>
       <use x="63.623047" xlink:href="#DejaVuSans-2e"/>
       <use x="95.410156" xlink:href="#DejaVuSans-37"/>
       <use x="159.033203" xlink:href="#DejaVuSans-35"/>
      </g>
     </g>
    </g>
    <g id="xtick_5">
     <g id="line2d_5">
      <g>
       <use style="stroke:#000000;stroke-width:0.8;" x="425.821324" xlink:href="#m0902a9faff" y="335.1384"/>
      </g>
     </g>
     <g id="text_5">
      <!-- 1.00 -->
      <g transform="translate(410.235386 352.776213)scale(0.14 -0.14)">
       <defs>
        <path d="M 794 531 
L 1825 531 
L 1825 4091 
L 703 3866 
L 703 4441 
L 1819 4666 
L 2450 4666 
L 2450 531 
L 3481 531 
L 3481 0 
L 794 0 
L 794 531 
z
" id="DejaVuSans-31" transform="scale(0.015625)"/>
       </defs>
       <use xlink:href="#DejaVuSans-31"/>
       <use x="63.623047" xlink:href="#DejaVuSans-2e"/>
       <use x="95.410156" xlink:href="#DejaVuSans-30"/>
       <use x="159.033203" xlink:href="#DejaVuSans-30"/>
      </g>
     </g>
    </g>
    <g id="text_6">
     <!-- Time (s) -->
     <g transform="translate(276.255708 370.325588)scale(0.14 -0.14)">
      <defs>
       <path d="M -19 4666 
L 3928 4666 
L 3928 4134 
L 2272 4134 
L 2272 0 
L 1638 0 
L 1638 4134 
L -19 4134 
L -19 4666 
z
" id="DejaVuSans-54" transform="scale(0.015625)"/>
       <path d="M 603 3500 
L 1178 3500 
L 1178 0 
L 603 0 
L 603 3500 
z
M 603 4863 
L 1178 4863 
L 1178 4134 
L 603 4134 
L 603 4863 
z
" id="DejaVuSans-69" transform="scale(0.015625)"/>
       <path d="M 3328 2828 
Q 3544 3216 3844 3400 
Q 4144 3584 4550 3584 
Q 5097 3584 5394 3201 
Q 5691 2819 5691 2113 
L 5691 0 
L 5113 0 
L 5113 2094 
Q 5113 2597 4934 2840 
Q 4756 3084 4391 3084 
Q 3944 3084 3684 2787 
Q 3425 2491 3425 1978 
L 3425 0 
L 2847 0 
L 2847 2094 
Q 2847 2600 2669 2842 
Q 2491 3084 2119 3084 
Q 1678 3084 1418 2786 
Q 1159 2488 1159 1978 
L 1159 0 
L 581 0 
L 581 3500 
L 1159 3500 
L 1159 2956 
Q 1356 3278 1631 3431 
Q 1906 3584 2284 3584 
Q 2666 3584 2933 3390 
Q 3200 3197 3328 2828 
z
" id="DejaVuSans-6d" transform="scale(0.015625)"/>
       <path d="M 3597 1894 
L 3597 1613 
L 953 1613 
Q 991 1019 1311 708 
Q 1631 397 2203 397 
Q 2534 397 2845 478 
Q 3156 559 3463 722 
L 3463 178 
Q 3153 47 2828 -22 
Q 2503 -91 2169 -91 
Q 1331 -91 842 396 
Q 353 884 353 1716 
Q 353 2575 817 3079 
Q 1281 3584 2069 3584 
Q 2775 3584 3186 3129 
Q 3597 2675 3597 1894 
z
M 3022 2063 
Q 3016 2534 2758 2815 
Q 2500 3097 2075 3097 
Q 1594 3097 1305 2825 
Q 1016 2553 972 2059 
L 3022 2063 
z
" id="DejaVuSans-65" transform="scale(0.015625)"/>
       <path id="DejaVuSans-20" transform="scale(0.015625)"/>
       <path d="M 1984 4856 
Q 1566 4138 1362 3434 
Q 1159 2731 1159 2009 
Q 1159 1288 1364 580 
Q 1569 -128 1984 -844 
L 1484 -844 
Q 1016 -109 783 600 
Q 550 1309 550 2009 
Q 550 2706 781 3412 
Q 1013 4119 1484 4856 
L 1984 4856 
z
" id="DejaVuSans-28" transform="scale(0.015625)"/>
       <path d="M 2834 3397 
L 2834 2853 
Q 2591 2978 2328 3040 
Q 2066 3103 1784 3103 
Q 1356 3103 1142 2972 
Q 928 2841 928 2578 
Q 928 2378 1081 2264 
Q 1234 2150 1697 2047 
L 1894 2003 
Q 2506 1872 2764 1633 
Q 3022 1394 3022 966 
Q 3022 478 2636 193 
Q 2250 -91 1575 -91 
Q 1294 -91 989 -36 
Q 684 19 347 128 
L 347 722 
Q 666 556 975 473 
Q 1284 391 1588 391 
Q 1994 391 2212 530 
Q 2431 669 2431 922 
Q 2431 1156 2273 1281 
Q 2116 1406 1581 1522 
L 1381 1569 
Q 847 1681 609 1914 
Q 372 2147 372 2553 
Q 372 3047 722 3315 
Q 1072 3584 1716 3584 
Q 2034 3584 2315 3537 
Q 2597 3491 2834 3397 
z
" id="DejaVuSans-73" transform="scale(0.015625)"/>
       <path d="M 513 4856 
L 1013 4856 
Q 1481 4119 1714 3412 
Q 1947 2706 1947 2009 
Q 1947 1309 1714 600 
Q 1481 -109 1013 -844 
L 513 -844 
Q 928 -128 1133 580 
Q 1338 1288 1338 2009 
Q 1338 2731 1133 3434 
Q 928 4138 513 4856 
z
" id="DejaVuSans-29" transform="scale(0.015625)"/>
      </defs>
      <use xlink:href="#DejaVuSans-54"/>
      <use x="57.958984" xlink:href="#DejaVuSans-69"/>
      <use x="85.742188" xlink:href="#DejaVuSans-6d"/>
      <use x="183.154297" xlink:href="#DejaVuSans-65"/>
      <use x="244.677734" xlink:href="#DejaVuSans-20"/>
      <use x="276.464844" xlink:href="#DejaVuSans-28"/>
      <use x="315.478516" xlink:href="#DejaVuSans-73"/>
      <use x="367.578125" xlink:href="#DejaVuSans-29"/>
     </g>
    </g>
   </g>
   <g id="matplotlib.axis_2">
    <g id="ytick_1">
     <g id="line2d_6">
      <defs>
       <path d="M 0 0 
L -3.5 0 
" id="mbebd05fbf6" style="stroke:#000000;stroke-width:0.8;"/>
      </defs>
      <g>
       <use style="stroke:#000000;stroke-width:0.8;" x="159.39" xlink:href="#mbebd05fbf6" y="324.458503"/>
      </g>
     </g>
     <g id="text_7">
      <!-- −60 -->
      <g transform="translate(122.843438 329.777409)scale(0.14 -0.14)">
       <defs>
        <path d="M 678 2272 
L 4684 2272 
L 4684 1741 
L 678 1741 
L 678 2272 
z
" id="DejaVuSans-2212" transform="scale(0.015625)"/>
        <path d="M 2113 2584 
Q 1688 2584 1439 2293 
Q 1191 2003 1191 1497 
Q 1191 994 1439 701 
Q 1688 409 2113 409 
Q 2538 409 2786 701 
Q 3034 994 3034 1497 
Q 3034 2003 2786 2293 
Q 2538 2584 2113 2584 
z
M 3366 4563 
L 3366 3988 
Q 3128 4100 2886 4159 
Q 2644 4219 2406 4219 
Q 1781 4219 1451 3797 
Q 1122 3375 1075 2522 
Q 1259 2794 1537 2939 
Q 1816 3084 2150 3084 
Q 2853 3084 3261 2657 
Q 3669 2231 3669 1497 
Q 3669 778 3244 343 
Q 2819 -91 2113 -91 
Q 1303 -91 875 529 
Q 447 1150 447 2328 
Q 447 3434 972 4092 
Q 1497 4750 2381 4750 
Q 2619 4750 2861 4703 
Q 3103 4656 3366 4563 
z
" id="DejaVuSans-36" transform="scale(0.015625)"/>
       </defs>
       <use xlink:href="#DejaVuSans-2212"/>
       <use x="83.789062" xlink:href="#DejaVuSans-36"/>
       <use x="147.412109" xlink:href="#DejaVuSans-30"/>
      </g>
     </g>
    </g>
    <g id="ytick_2">
     <g id="line2d_7">
      <g>
       <use style="stroke:#000000;stroke-width:0.8;" x="159.39" xlink:href="#mbebd05fbf6" y="283.951737"/>
      </g>
     </g>
     <g id="text_8">
      <!-- −50 -->
      <g transform="translate(122.843438 289.270644)scale(0.14 -0.14)">
       <use xlink:href="#DejaVuSans-2212"/>
       <use x="83.789062" xlink:href="#DejaVuSans-35"/>
       <use x="147.412109" xlink:href="#DejaVuSans-30"/>
      </g>
     </g>
    </g>
    <g id="ytick_3">
     <g id="line2d_8">
      <g>
       <use style="stroke:#000000;stroke-width:0.8;" x="159.39" xlink:href="#mbebd05fbf6" y="243.444972"/>
      </g>
     </g>
     <g id="text_9">
      <!-- −40 -->
      <g transform="translate(122.843438 248.763878)scale(0.14 -0.14)">
       <defs>
        <path d="M 2419 4116 
L 825 1625 
L 2419 1625 
L 2419 4116 
z
M 2253 4666 
L 3047 4666 
L 3047 1625 
L 3713 1625 
L 3713 1100 
L 3047 1100 
L 3047 0 
L 2419 0 
L 2419 1100 
L 313 1100 
L 313 1709 
L 2253 4666 
z
" id="DejaVuSans-34" transform="scale(0.015625)"/>
       </defs>
       <use xlink:href="#DejaVuSans-2212"/>
       <use x="83.789062" xlink:href="#DejaVuSans-34"/>
       <use x="147.412109" xlink:href="#DejaVuSans-30"/>
      </g>
     </g>
    </g>
    <g id="ytick_4">
     <g id="line2d_9">
      <g>
       <use style="stroke:#000000;stroke-width:0.8;" x="159.39" xlink:href="#mbebd05fbf6" y="202.938207"/>
      </g>
     </g>
     <g id="text_10">
      <!-- −30 -->
      <g transform="translate(122.843438 208.257113)scale(0.14 -0.14)">
       <defs>
        <path d="M 2597 2516 
Q 3050 2419 3304 2112 
Q 3559 1806 3559 1356 
Q 3559 666 3084 287 
Q 2609 -91 1734 -91 
Q 1441 -91 1130 -33 
Q 819 25 488 141 
L 488 750 
Q 750 597 1062 519 
Q 1375 441 1716 441 
Q 2309 441 2620 675 
Q 2931 909 2931 1356 
Q 2931 1769 2642 2001 
Q 2353 2234 1838 2234 
L 1294 2234 
L 1294 2753 
L 1863 2753 
Q 2328 2753 2575 2939 
Q 2822 3125 2822 3475 
Q 2822 3834 2567 4026 
Q 2313 4219 1838 4219 
Q 1578 4219 1281 4162 
Q 984 4106 628 3988 
L 628 4550 
Q 988 4650 1302 4700 
Q 1616 4750 1894 4750 
Q 2613 4750 3031 4423 
Q 3450 4097 3450 3541 
Q 3450 3153 3228 2886 
Q 3006 2619 2597 2516 
z
" id="DejaVuSans-33" transform="scale(0.015625)"/>
       </defs>
       <use xlink:href="#DejaVuSans-2212"/>
       <use x="83.789062" xlink:href="#DejaVuSans-33"/>
       <use x="147.412109" xlink:href="#DejaVuSans-30"/>
      </g>
     </g>
    </g>
    <g id="ytick_5">
     <g id="line2d_10">
      <g>
       <use style="stroke:#000000;stroke-width:0.8;" x="159.39" xlink:href="#mbebd05fbf6" y="162.431442"/>
      </g>
     </g>
     <g id="text_11">
      <!-- −20 -->
      <g transform="translate(122.843438 167.750348)scale(0.14 -0.14)">
       <use xlink:href="#DejaVuSans-2212"/>
       <use x="83.789062" xlink:href="#DejaVuSans-32"/>
       <use x="147.412109" xlink:href="#DejaVuSans-30"/>
      </g>
     </g>
    </g>
    <g id="ytick_6">
     <g id="line2d_11">
      <g>
       <use style="stroke:#000000;stroke-width:0.8;" x="159.39" xlink:href="#mbebd05fbf6" y="121.924676"/>
      </g>
     </g>
     <g id="text_12">
      <!-- −10 -->
      <g transform="translate(122.843438 127.243583)scale(0.14 -0.14)">
       <use xlink:href="#DejaVuSans-2212"/>
       <use x="83.789062" xlink:href="#DejaVuSans-31"/>
       <use x="147.412109" xlink:href="#DejaVuSans-30"/>
      </g>
     </g>
    </g>
    <g id="ytick_7">
     <g id="line2d_12">
      <g>
       <use style="stroke:#000000;stroke-width:0.8;" x="159.39" xlink:href="#mbebd05fbf6" y="81.417911"/>
      </g>
     </g>
     <g id="text_13">
      <!-- 0 -->
      <g transform="translate(143.4825 86.736817)scale(0.14 -0.14)">
       <use xlink:href="#DejaVuSans-30"/>
      </g>
     </g>
    </g>
    <g id="text_14">
     <!-- Torque (Nmm) -->
     <g transform="translate(115.931875 240.034519)rotate(-90)scale(0.14 -0.14)">
      <defs>
       <path d="M 1959 3097 
Q 1497 3097 1228 2736 
Q 959 2375 959 1747 
Q 959 1119 1226 758 
Q 1494 397 1959 397 
Q 2419 397 2687 759 
Q 2956 1122 2956 1747 
Q 2956 2369 2687 2733 
Q 2419 3097 1959 3097 
z
M 1959 3584 
Q 2709 3584 3137 3096 
Q 3566 2609 3566 1747 
Q 3566 888 3137 398 
Q 2709 -91 1959 -91 
Q 1206 -91 779 398 
Q 353 888 353 1747 
Q 353 2609 779 3096 
Q 1206 3584 1959 3584 
z
" id="DejaVuSans-6f" transform="scale(0.015625)"/>
       <path d="M 2631 2963 
Q 2534 3019 2420 3045 
Q 2306 3072 2169 3072 
Q 1681 3072 1420 2755 
Q 1159 2438 1159 1844 
L 1159 0 
L 581 0 
L 581 3500 
L 1159 3500 
L 1159 2956 
Q 1341 3275 1631 3429 
Q 1922 3584 2338 3584 
Q 2397 3584 2469 3576 
Q 2541 3569 2628 3553 
L 2631 2963 
z
" id="DejaVuSans-72" transform="scale(0.015625)"/>
       <path d="M 947 1747 
Q 947 1113 1208 752 
Q 1469 391 1925 391 
Q 2381 391 2643 752 
Q 2906 1113 2906 1747 
Q 2906 2381 2643 2742 
Q 2381 3103 1925 3103 
Q 1469 3103 1208 2742 
Q 947 2381 947 1747 
z
M 2906 525 
Q 2725 213 2448 61 
Q 2172 -91 1784 -91 
Q 1150 -91 751 415 
Q 353 922 353 1747 
Q 353 2572 751 3078 
Q 1150 3584 1784 3584 
Q 2172 3584 2448 3432 
Q 2725 3281 2906 2969 
L 2906 3500 
L 3481 3500 
L 3481 -1331 
L 2906 -1331 
L 2906 525 
z
" id="DejaVuSans-71" transform="scale(0.015625)"/>
       <path d="M 544 1381 
L 544 3500 
L 1119 3500 
L 1119 1403 
Q 1119 906 1312 657 
Q 1506 409 1894 409 
Q 2359 409 2629 706 
Q 2900 1003 2900 1516 
L 2900 3500 
L 3475 3500 
L 3475 0 
L 2900 0 
L 2900 538 
Q 2691 219 2414 64 
Q 2138 -91 1772 -91 
Q 1169 -91 856 284 
Q 544 659 544 1381 
z
M 1991 3584 
L 1991 3584 
z
" id="DejaVuSans-75" transform="scale(0.015625)"/>
       <path d="M 628 4666 
L 1478 4666 
L 3547 763 
L 3547 4666 
L 4159 4666 
L 4159 0 
L 3309 0 
L 1241 3903 
L 1241 0 
L 628 0 
L 628 4666 
z
" id="DejaVuSans-4e" transform="scale(0.015625)"/>
      </defs>
      <use xlink:href="#DejaVuSans-54"/>
      <use x="44.083984" xlink:href="#DejaVuSans-6f"/>
      <use x="105.265625" xlink:href="#DejaVuSans-72"/>
      <use x="144.628906" xlink:href="#DejaVuSans-71"/>
      <use x="208.105469" xlink:href="#DejaVuSans-75"/>
      <use x="271.484375" xlink:href="#DejaVuSans-65"/>
      <use x="333.007812" xlink:href="#DejaVuSans-20"/>
      <use x="364.794922" xlink:href="#DejaVuSans-28"/>
      <use x="403.808594" xlink:href="#DejaVuSans-4e"/>
      <use x="478.613281" xlink:href="#DejaVuSans-6d"/>
      <use x="576.025391" xlink:href="#DejaVuSans-6d"/>
      <use x="673.4375" xlink:href="#DejaVuSans-29"/>
     </g>
    </g>
   </g>
   <g id="line2d_13">
    <path clip-path="url(#p8367cfd562)" d="M 183.611029 81.417911 
L 186.033132 81.543809 
L 188.455235 81.774831 
L 190.877338 81.992286 
L 193.299441 82.164469 
L 195.721544 82.399959 
L 198.143647 82.61233 
L 200.56575 82.61554 
L 202.987853 82.547369 
L 205.409956 82.432339 
L 207.832059 82.293219 
L 210.254162 82.151885 
L 212.676265 82.024063 
L 215.098368 81.882315 
L 217.520471 81.734909 
L 219.942574 81.61677 
L 222.364676 81.536616 
L 224.786779 81.488874 
L 227.208882 81.461093 
L 229.630985 81.453514 
L 232.053088 81.425972 
L 234.475191 81.367043 
L 236.897294 81.282234 
L 239.319397 80.999255 
L 241.7415 80.442645 
L 244.163603 80.345517 
L 246.585706 80.193817 
L 249.007809 79.913163 
L 251.429912 79.613285 
L 253.852015 79.324892 
L 256.274118 78.920349 
L 258.696221 78.430988 
L 261.118324 77.862287 
L 263.540426 77.321694 
L 265.962529 76.802275 
L 268.384632 76.276121 
L 270.806735 75.713519 
L 273.228838 75.114434 
L 275.650941 74.48229 
L 278.073044 73.846862 
L 280.495147 73.240693 
L 282.91725 72.678226 
L 285.339353 72.180807 
L 287.761456 71.738219 
L 290.183559 71.379162 
L 292.605662 70.989348 
L 295.027765 70.423998 
L 297.449868 70.803711 
L 299.871971 71.815611 
L 302.294074 73.210244 
L 304.716176 75.339288 
L 307.138279 78.281022 
L 309.560382 81.721084 
L 311.982485 81.287549 
L 314.404588 81.408539 
L 316.826691 81.408539 
L 319.248794 81.408539 
L 321.670897 81.408539 
L 324.093 81.412999 
L 326.515103 81.412999 
L 328.937206 81.412999 
L 331.359309 81.413444 
L 333.781412 81.414586 
L 336.203515 81.414586 
L 338.625618 81.414586 
L 341.047721 81.414586 
L 343.469824 81.414586 
L 345.891926 81.414586 
L 348.314029 81.414586 
L 350.736132 81.414586 
L 353.158235 81.414586 
L 355.580338 81.414586 
L 358.002441 81.414676 
L 360.424544 81.448563 
L 362.846647 81.570427 
L 365.26875 81.73175 
L 367.690853 81.889531 
L 370.112956 82.07417 
L 372.535059 82.306765 
L 374.957162 82.595686 
L 377.379265 82.892978 
L 379.801368 83.199933 
L 382.223471 83.513853 
L 384.645574 83.836345 
L 387.067676 84.152674 
L 389.489779 84.466045 
L 391.911882 84.777927 
L 394.333985 85.070031 
L 396.756088 85.331085 
L 399.178191 85.554082 
L 401.600294 85.735169 
L 404.022397 85.82694 
L 406.4445 85.867865 
L 408.866603 85.889094 
L 411.288706 85.907387 
L 413.710809 85.695017 
L 416.132912 85.427115 
L 418.555015 85.240616 
L 420.977118 85.110549 
L 423.399221 85.002445 
L 425.821324 84.905929 
" style="fill:none;stroke:#ff0000;stroke-linecap:square;stroke-width:1.5;"/>
   </g>
   <g id="line2d_14">
    <path clip-path="url(#p8367cfd562)" d="M 183.611029 234.828373 
L 186.033132 236.864904 
L 188.455235 241.095792 
L 190.877338 246.051978 
L 193.299441 251.16844 
L 195.721544 256.160072 
L 198.143647 260.865402 
L 200.56575 265.251254 
L 202.987853 269.281973 
L 205.409956 272.967849 
L 207.832059 276.363216 
L 210.254162 279.547094 
L 212.676265 282.586522 
L 215.098368 285.569543 
L 217.520471 288.511509 
L 219.942574 291.342773 
L 222.364676 294.013035 
L 224.786779 296.501287 
L 227.208882 298.811648 
L 229.630985 301.013713 
L 232.053088 303.265759 
L 234.475191 305.401565 
L 236.897294 307.328448 
L 239.319397 309.121014 
L 241.7415 310.903928 
L 244.163603 312.791879 
L 246.585706 314.679248 
L 249.007809 316.537038 
L 251.429912 318.25086 
L 253.852015 319.71804 
L 256.274118 320.952927 
L 258.696221 321.699734 
L 261.118324 321.954763 
L 263.540426 321.655291 
L 265.962529 320.811281 
L 268.384632 319.560587 
L 270.806735 318.078647 
L 273.228838 316.516485 
L 275.650941 314.907968 
L 278.073044 313.243863 
L 280.495147 311.496327 
L 282.91725 309.626616 
L 285.339353 307.656236 
L 287.761456 305.602248 
L 290.183559 303.403265 
L 292.605662 300.279011 
L 295.027765 295.220883 
L 297.449868 289.424121 
L 299.871971 283.12314 
L 302.294074 275.285182 
L 304.716176 264.627534 
L 307.138279 250.300767 
L 309.560382 234.576112 
L 311.982485 234.779769 
L 314.404588 234.842737 
L 316.826691 234.842737 
L 319.248794 234.842737 
L 321.670897 234.842737 
L 324.093 234.848995 
L 326.515103 234.848995 
L 328.937206 234.848995 
L 331.359309 234.847297 
L 333.781412 234.842941 
L 336.203515 234.842941 
L 338.625618 234.842941 
L 341.047721 234.842941 
L 343.469824 234.842941 
L 345.891926 234.842941 
L 348.314029 234.842941 
L 350.736132 234.842941 
L 353.158235 234.842941 
L 355.580338 234.842941 
L 358.002441 234.842896 
L 360.424544 234.82615 
L 362.846647 234.83126 
L 365.26875 235.180606 
L 367.690853 236.006046 
L 370.112956 237.291574 
L 372.535059 238.85892 
L 374.957162 240.536799 
L 377.379265 242.20019 
L 379.801368 243.80219 
L 382.223471 245.359407 
L 384.645574 246.915726 
L 387.067676 248.601421 
L 389.489779 250.510957 
L 391.911882 252.749831 
L 394.333985 255.382968 
L 396.756088 258.454939 
L 399.178191 261.93697 
L 401.600294 265.694303 
L 404.022397 269.567843 
L 406.4445 273.435914 
L 408.866603 277.195429 
L 411.288706 280.793113 
L 413.710809 284.561807 
L 416.132912 288.322672 
L 418.555015 291.775456 
L 420.977118 294.89392 
L 423.399221 297.650104 
L 425.821324 300.015142 
" style="fill:none;stroke:#ff0000;stroke-dasharray:5.55,2.4;stroke-dashoffset:0;stroke-width:1.5;"/>
   </g>
   <g id="line2d_15">
    <path clip-path="url(#p8367cfd562)" d="M 183.611029 81.417911 
L 186.033132 81.681884 
L 188.455235 82.166271 
L 190.877338 82.622212 
L 193.299441 82.983232 
L 195.721544 83.476987 
L 198.143647 83.922268 
L 200.56575 83.928998 
L 202.987853 83.786063 
L 205.409956 83.544877 
L 207.832059 83.253182 
L 210.254162 82.956846 
L 212.676265 82.688839 
L 215.098368 82.391634 
L 217.520471 82.082565 
L 219.942574 81.834862 
L 222.364676 81.666802 
L 224.786779 81.566701 
L 227.208882 81.508451 
L 229.630985 81.492559 
L 232.053088 81.434812 
L 234.475191 81.311255 
L 236.897294 81.133434 
L 239.319397 80.540108 
L 241.7415 79.373055 
L 244.163603 79.169405 
L 246.585706 78.851334 
L 249.007809 78.262882 
L 251.429912 77.634122 
L 253.852015 77.029444 
L 256.274118 76.181233 
L 258.696221 75.155182 
L 261.118324 73.962777 
L 263.540426 72.829308 
L 265.962529 71.740234 
L 268.384632 70.637037 
L 270.806735 69.457422 
L 273.228838 68.201311 
L 275.650941 66.875885 
L 278.073044 65.543573 
L 280.495147 64.272607 
L 282.91725 63.093276 
L 285.339353 62.050328 
L 287.761456 61.122348 
L 290.183559 60.369507 
L 292.605662 59.552177 
L 295.027765 58.3668 
L 297.449868 59.162949 
L 299.871971 61.284617 
L 302.294074 64.208765 
L 304.716176 68.672765 
L 307.138279 74.840745 
L 309.560382 82.053579 
L 311.982485 81.14458 
L 314.404588 81.39826 
L 316.826691 81.39826 
L 319.248794 81.39826 
L 321.670897 81.39826 
L 324.093 81.407611 
L 326.515103 81.407611 
L 328.937206 81.407611 
L 331.359309 81.408545 
L 333.781412 81.41094 
L 336.203515 81.41094 
L 338.625618 81.41094 
L 341.047721 81.41094 
L 343.469824 81.41094 
L 345.891926 81.41094 
L 348.314029 81.41094 
L 350.736132 81.41094 
L 353.158235 81.41094 
L 355.580338 81.41094 
L 358.002441 81.411128 
L 360.424544 81.482179 
L 362.846647 81.737693 
L 365.26875 82.075942 
L 367.690853 82.406765 
L 370.112956 82.793899 
L 372.535059 83.281586 
L 374.957162 83.887371 
L 377.379265 84.510708 
L 379.801368 85.154304 
L 382.223471 85.812506 
L 384.645574 86.488679 
L 387.067676 87.151931 
L 389.489779 87.808982 
L 391.911882 88.46291 
L 394.333985 89.075369 
L 396.756088 89.622726 
L 399.178191 90.090285 
L 401.600294 90.469974 
L 404.022397 90.662393 
L 406.4445 90.7482 
L 408.866603 90.792711 
L 411.288706 90.831065 
L 413.710809 90.385787 
L 416.132912 89.824072 
L 418.555015 89.433036 
L 420.977118 89.160323 
L 423.399221 88.93366 
L 425.821324 88.731293 
" style="fill:none;stroke:#ff0000;stroke-dasharray:1.5,2.475;stroke-dashoffset:0;stroke-width:1.5;"/>
   </g>
   <g id="line2d_16">
    <path clip-path="url(#p8367cfd562)" d="M 183.611029 81.417907 
L 186.033132 81.511609 
L 188.455235 81.682619 
L 190.877338 81.843815 
L 193.299441 81.972407 
L 195.721544 82.076111 
L 198.143647 82.139589 
L 200.56575 82.131258 
L 202.987853 82.077397 
L 205.409956 81.998493 
L 207.832059 81.902417 
L 210.254162 81.804378 
L 212.676265 81.719262 
L 215.098368 81.624165 
L 217.520471 81.524782 
L 219.942574 81.444023 
L 222.364676 81.390779 
L 224.786779 81.355597 
L 227.208882 81.337394 
L 229.630985 81.326719 
L 232.053088 81.307248 
L 234.475191 81.264391 
L 236.897294 81.205569 
L 239.319397 81.080838 
L 241.7415 80.855747 
L 244.163603 80.736917 
L 246.585706 80.596636 
L 249.007809 80.411553 
L 251.429912 80.200951 
L 253.852015 79.962464 
L 256.274118 79.696568 
L 258.696221 79.391138 
L 261.118324 79.037196 
L 263.540426 78.696647 
L 265.962529 78.360453 
L 268.384632 78.015655 
L 270.806735 77.643113 
L 273.228838 77.240976 
L 275.650941 76.816104 
L 278.073044 76.384275 
L 280.495147 75.967462 
L 282.91725 75.574129 
L 285.339353 75.219249 
L 287.761456 74.896146 
L 290.183559 74.623908 
L 292.605662 74.311932 
L 295.027765 73.831509 
L 297.449868 74.011551 
L 299.871971 74.646322 
L 302.294074 75.547151 
L 304.716176 76.965354 
L 307.138279 78.989652 
L 309.560382 81.385694 
L 311.982485 81.090646 
L 314.404588 81.173256 
L 316.826691 81.173255 
L 319.248794 81.173256 
L 321.670897 81.173256 
L 324.093 80.989403 
L 326.515103 80.988524 
L 328.937206 80.988509 
L 331.359309 80.964417 
L 333.781412 80.909221 
L 336.203515 80.909223 
L 338.625618 80.909223 
L 341.047721 80.909223 
L 343.469824 80.908922 
L 345.891926 80.909009 
L 348.314029 80.908993 
L 350.736132 80.908996 
L 353.158235 80.908995 
L 355.580338 80.908995 
L 358.002441 80.909083 
L 360.424544 80.932536 
L 362.846647 81.015178 
L 365.26875 81.12814 
L 367.690853 81.242442 
L 370.112956 81.375015 
L 372.535059 81.544501 
L 374.957162 81.750485 
L 377.379265 81.963307 
L 379.801368 82.179413 
L 382.223471 82.399435 
L 384.645574 82.623985 
L 387.067676 82.844034 
L 389.489779 83.057983 
L 391.911882 83.271424 
L 394.333985 83.468553 
L 396.756088 83.643124 
L 399.178191 83.792636 
L 401.600294 83.911622 
L 404.022397 83.970006 
L 406.4445 83.994005 
L 408.866603 84.005934 
L 411.288706 84.013955 
L 413.710809 83.863775 
L 416.132912 83.674652 
L 418.555015 83.543948 
L 420.977118 83.451205 
L 423.399221 83.374859 
L 425.821324 83.30652 
" style="fill:none;stroke:#008000;stroke-linecap:square;stroke-width:1.5;"/>
   </g>
   <g id="line2d_17">
    <path clip-path="url(#p8367cfd562)" d="M 183.611029 234.828373 
L 186.033132 236.851903 
L 188.455235 241.084513 
L 190.877338 246.042102 
L 193.299441 251.158166 
L 195.721544 256.145618 
L 198.143647 260.858294 
L 200.56575 265.235408 
L 202.987853 269.268469 
L 205.409956 272.956761 
L 207.832059 276.3539 
L 210.254162 279.539685 
L 212.676265 282.580374 
L 215.098368 285.563586 
L 217.520471 288.505045 
L 219.942574 291.336682 
L 222.364676 294.007184 
L 224.786779 296.499792 
L 227.208882 298.810464 
L 229.630985 301.014892 
L 232.053088 303.262126 
L 234.475191 305.398382 
L 236.897294 307.328556 
L 239.319397 309.122628 
L 241.7415 310.908098 
L 244.163603 312.790741 
L 246.585706 314.682463 
L 249.007809 316.539521 
L 251.429912 318.258278 
L 253.852015 319.728794 
L 256.274118 320.963657 
L 258.696221 321.708097 
L 261.118324 321.9588 
L 263.540426 321.654739 
L 265.962529 320.795518 
L 268.384632 319.532747 
L 270.806735 318.033966 
L 273.228838 316.452403 
L 275.650941 314.825772 
L 278.073044 313.135196 
L 280.495147 311.363895 
L 282.91725 309.465307 
L 285.339353 307.469105 
L 287.761456 305.387909 
L 290.183559 303.161748 
L 292.605662 300.002081 
L 295.027765 294.878819 
L 297.449868 289.082685 
L 299.871971 282.826178 
L 302.294074 275.053031 
L 304.716176 264.488417 
L 307.138279 250.252 
L 309.560382 234.828379 
L 311.982485 234.829039 
L 314.404588 234.830427 
L 316.826691 234.830434 
L 319.248794 234.830434 
L 321.670897 234.830434 
L 324.093 234.8373 
L 326.515103 234.837297 
L 328.937206 234.837295 
L 331.359309 234.836493 
L 333.781412 234.834416 
L 336.203515 234.834416 
L 338.625618 234.834416 
L 341.047721 234.834416 
L 343.469824 234.834372 
L 345.891926 234.834409 
L 348.314029 234.834403 
L 350.736132 234.834404 
L 353.158235 234.834404 
L 355.580338 234.834404 
L 358.002441 234.834404 
L 360.424544 234.829953 
L 362.846647 234.829384 
L 365.26875 235.164043 
L 367.690853 235.985181 
L 370.112956 237.268217 
L 372.535059 238.835847 
L 374.957162 240.512558 
L 377.379265 242.170392 
L 379.801368 243.77316 
L 382.223471 245.319843 
L 384.645574 246.873454 
L 387.067676 248.552614 
L 389.489779 250.453704 
L 391.911882 252.682278 
L 394.333985 255.309694 
L 396.756088 258.375886 
L 399.178191 261.846428 
L 401.600294 265.601054 
L 404.022397 269.466552 
L 406.4445 273.32983 
L 408.866603 277.089418 
L 411.288706 280.687069 
L 413.710809 284.466514 
L 416.132912 288.237437 
L 418.555015 291.69753 
L 420.977118 294.821227 
L 423.399221 297.583377 
L 425.821324 299.953077 
" style="fill:none;stroke:#008000;stroke-dasharray:5.55,2.4;stroke-dashoffset:0;stroke-width:1.5;"/>
   </g>
   <g id="line2d_18">
    <path clip-path="url(#p8367cfd562)" d="M 183.611029 81.417903 
L 186.033132 81.614369 
L 188.455235 81.972929 
L 190.877338 82.31091 
L 193.299441 82.580532 
L 195.721544 82.797968 
L 198.143647 82.931065 
L 200.56575 82.913597 
L 202.987853 82.800666 
L 205.409956 82.635227 
L 207.832059 82.433783 
L 210.254162 82.228223 
L 212.676265 82.049758 
L 215.098368 81.850368 
L 217.520471 81.641989 
L 219.942574 81.47266 
L 222.364676 81.361022 
L 224.786779 81.287255 
L 227.208882 81.249089 
L 229.630985 81.226707 
L 232.053088 81.185882 
L 234.475191 81.096024 
L 236.897294 80.97269 
L 239.319397 80.711166 
L 241.7415 80.239213 
L 244.163603 79.99006 
L 246.585706 79.695931 
L 249.007809 79.307864 
L 251.429912 78.866291 
L 253.852015 78.366252 
L 256.274118 77.808743 
L 258.696221 77.168344 
L 261.118324 76.426227 
L 263.540426 75.712193 
L 265.962529 75.00729 
L 268.384632 74.284347 
L 270.806735 73.503232 
L 273.228838 72.660065 
L 275.650941 71.76923 
L 278.073044 70.863806 
L 280.495147 69.989868 
L 282.91725 69.165161 
L 285.339353 68.421078 
L 287.761456 67.743623 
L 290.183559 67.172818 
L 292.605662 66.518692 
L 295.027765 65.511382 
L 297.449868 65.888878 
L 299.871971 67.219813 
L 302.294074 69.108596 
L 304.716176 72.082163 
L 307.138279 76.326542 
L 309.560382 81.35036 
L 311.982485 80.731728 
L 314.404588 80.90494 
L 316.826691 80.904938 
L 319.248794 80.904938 
L 321.670897 80.904938 
L 324.093 80.51945 
L 326.515103 80.517609 
L 328.937206 80.517576 
L 331.359309 80.467064 
L 333.781412 80.351333 
L 336.203515 80.351336 
L 338.625618 80.351336 
L 341.047721 80.351336 
L 343.469824 80.350706 
L 345.891926 80.350888 
L 348.314029 80.350855 
L 350.736132 80.350862 
L 353.158235 80.350859 
L 355.580338 80.350859 
L 358.002441 80.351043 
L 360.424544 80.400217 
L 362.846647 80.573494 
L 365.26875 80.810344 
L 367.690853 81.050003 
L 370.112956 81.32797 
L 372.535059 81.683335 
L 374.957162 82.115225 
L 377.379265 82.561452 
L 379.801368 83.014564 
L 382.223471 83.475888 
L 384.645574 83.946705 
L 387.067676 84.408085 
L 389.489779 84.856677 
L 391.911882 85.304201 
L 394.333985 85.717525 
L 396.756088 86.08355 
L 399.178191 86.397034 
L 401.600294 86.646513 
L 404.022397 86.768928 
L 406.4445 86.819247 
L 408.866603 86.844259 
L 411.288706 86.861077 
L 413.710809 86.546193 
L 416.132912 86.149655 
L 418.555015 85.875606 
L 420.977118 85.68115 
L 423.399221 85.521075 
L 425.821324 85.377787 
" style="fill:none;stroke:#008000;stroke-dasharray:1.5,2.475;stroke-dashoffset:0;stroke-width:1.5;"/>
   </g>
   <g id="patch_3">
    <path d="M 159.39 335.1384 
L 159.39 45.1872 
" style="fill:none;stroke:#000000;stroke-linecap:square;stroke-linejoin:miter;stroke-width:0.8;"/>
   </g>
   <g id="patch_4">
    <path d="M 450.042353 335.1384 
L 450.042353 45.1872 
" style="fill:none;stroke:#000000;stroke-linecap:square;stroke-linejoin:miter;stroke-width:0.8;"/>
   </g>
   <g id="patch_5">
    <path d="M 159.39 335.1384 
L 450.042353 335.1384 
" style="fill:none;stroke:#000000;stroke-linecap:square;stroke-linejoin:miter;stroke-width:0.8;"/>
   </g>
   <g id="patch_6">
    <path d="M 159.39 45.1872 
L 450.042353 45.1872 
" style="fill:none;stroke:#000000;stroke-linecap:square;stroke-linejoin:miter;stroke-width:0.8;"/>
   </g>
   <g id="text_15">
    <!-- Torque for f=100 -->
    <g transform="translate(233.824114 39.1872)scale(0.168 -0.168)">
     <defs>
      <path d="M 2375 4863 
L 2375 4384 
L 1825 4384 
Q 1516 4384 1395 4259 
Q 1275 4134 1275 3809 
L 1275 3500 
L 2222 3500 
L 2222 3053 
L 1275 3053 
L 1275 0 
L 697 0 
L 697 3053 
L 147 3053 
L 147 3500 
L 697 3500 
L 697 3744 
Q 697 4328 969 4595 
Q 1241 4863 1831 4863 
L 2375 4863 
z
" id="DejaVuSans-66" transform="scale(0.015625)"/>
      <path d="M 678 2906 
L 4684 2906 
L 4684 2381 
L 678 2381 
L 678 2906 
z
M 678 1631 
L 4684 1631 
L 4684 1100 
L 678 1100 
L 678 1631 
z
" id="DejaVuSans-3d" transform="scale(0.015625)"/>
     </defs>
     <use xlink:href="#DejaVuSans-54"/>
     <use x="44.083984" xlink:href="#DejaVuSans-6f"/>
     <use x="105.265625" xlink:href="#DejaVuSans-72"/>
     <use x="144.628906" xlink:href="#DejaVuSans-71"/>
     <use x="208.105469" xlink:href="#DejaVuSans-75"/>
     <use x="271.484375" xlink:href="#DejaVuSans-65"/>
     <use x="333.007812" xlink:href="#DejaVuSans-20"/>
     <use x="364.794922" xlink:href="#DejaVuSans-66"/>
     <use x="400" xlink:href="#DejaVuSans-6f"/>
     <use x="461.181641" xlink:href="#DejaVuSans-72"/>
     <use x="502.294922" xlink:href="#DejaVuSans-20"/>
     <use x="534.082031" xlink:href="#DejaVuSans-66"/>
     <use x="569.287109" xlink:href="#DejaVuSans-3d"/>
     <use x="653.076172" xlink:href="#DejaVuSans-31"/>
     <use x="716.699219" xlink:href="#DejaVuSans-30"/>
     <use x="780.322266" xlink:href="#DejaVuSans-30"/>
    </g>
   </g>
  </g>
  <g id="axes_2">
   <g id="patch_7">
    <path d="M 508.172824 335.1384 
L 798.825176 335.1384 
L 798.825176 45.1872 
L 508.172824 45.1872 
z
" style="fill:#ffffff;"/>
   </g>
   <g id="matplotlib.axis_3">
    <g id="xtick_6">
     <g id="line2d_19">
      <g>
       <use style="stroke:#000000;stroke-width:0.8;" x="532.393853" xlink:href="#m0902a9faff" y="335.1384"/>
      </g>
     </g>
     <g id="text_16">
      <!-- 0.00 -->
      <g transform="translate(516.807915 352.776213)scale(0.14 -0.14)">
       <use xlink:href="#DejaVuSans-30"/>
       <use x="63.623047" xlink:href="#DejaVuSans-2e"/>
       <use x="95.410156" xlink:href="#DejaVuSans-30"/>
       <use x="159.033203" xlink:href="#DejaVuSans-30"/>
      </g>
     </g>
    </g>
    <g id="xtick_7">
     <g id="line2d_20">
      <g>
       <use style="stroke:#000000;stroke-width:0.8;" x="592.946426" xlink:href="#m0902a9faff" y="335.1384"/>
      </g>
     </g>
     <g id="text_17">
      <!-- 0.25 -->
      <g transform="translate(577.360489 352.776213)scale(0.14 -0.14)">
       <use xlink:href="#DejaVuSans-30"/>
       <use x="63.623047" xlink:href="#DejaVuSans-2e"/>
       <use x="95.410156" xlink:href="#DejaVuSans-32"/>
       <use x="159.033203" xlink:href="#DejaVuSans-35"/>
      </g>
     </g>
    </g>
    <g id="xtick_8">
     <g id="line2d_21">
      <g>
       <use style="stroke:#000000;stroke-width:0.8;" x="653.499" xlink:href="#m0902a9faff" y="335.1384"/>
      </g>
     </g>
     <g id="text_18">
      <!-- 0.50 -->
      <g transform="translate(637.913063 352.776213)scale(0.14 -0.14)">
       <use xlink:href="#DejaVuSans-30"/>
       <use x="63.623047" xlink:href="#DejaVuSans-2e"/>
       <use x="95.410156" xlink:href="#DejaVuSans-35"/>
       <use x="159.033203" xlink:href="#DejaVuSans-30"/>
      </g>
     </g>
    </g>
    <g id="xtick_9">
     <g id="line2d_22">
      <g>
       <use style="stroke:#000000;stroke-width:0.8;" x="714.051574" xlink:href="#m0902a9faff" y="335.1384"/>
      </g>
     </g>
     <g id="text_19">
      <!-- 0.75 -->
      <g transform="translate(698.465636 352.776213)scale(0.14 -0.14)">
       <use xlink:href="#DejaVuSans-30"/>
       <use x="63.623047" xlink:href="#DejaVuSans-2e"/>
       <use x="95.410156" xlink:href="#DejaVuSans-37"/>
       <use x="159.033203" xlink:href="#DejaVuSans-35"/>
      </g>
     </g>
    </g>
    <g id="xtick_10">
     <g id="line2d_23">
      <g>
       <use style="stroke:#000000;stroke-width:0.8;" x="774.604147" xlink:href="#m0902a9faff" y="335.1384"/>
      </g>
     </g>
     <g id="text_20">
      <!-- 1.00 -->
      <g transform="translate(759.01821 352.776213)scale(0.14 -0.14)">
       <use xlink:href="#DejaVuSans-31"/>
       <use x="63.623047" xlink:href="#DejaVuSans-2e"/>
       <use x="95.410156" xlink:href="#DejaVuSans-30"/>
       <use x="159.033203" xlink:href="#DejaVuSans-30"/>
      </g>
     </g>
    </g>
    <g id="text_21">
     <!-- Time (s) -->
     <g transform="translate(625.038531 370.325588)scale(0.14 -0.14)">
      <use xlink:href="#DejaVuSans-54"/>
      <use x="57.958984" xlink:href="#DejaVuSans-69"/>
      <use x="85.742188" xlink:href="#DejaVuSans-6d"/>
      <use x="183.154297" xlink:href="#DejaVuSans-65"/>
      <use x="244.677734" xlink:href="#DejaVuSans-20"/>
      <use x="276.464844" xlink:href="#DejaVuSans-28"/>
      <use x="315.478516" xlink:href="#DejaVuSans-73"/>
      <use x="367.578125" xlink:href="#DejaVuSans-29"/>
     </g>
    </g>
   </g>
   <g id="matplotlib.axis_4">
    <g id="ytick_8">
     <g id="line2d_24">
      <g>
       <use style="stroke:#000000;stroke-width:0.8;" x="508.172824" xlink:href="#mbebd05fbf6" y="321.253916"/>
      </g>
     </g>
     <g id="text_22">
      <!-- 0 -->
      <g transform="translate(492.265324 326.572822)scale(0.14 -0.14)">
       <use xlink:href="#DejaVuSans-30"/>
      </g>
     </g>
    </g>
    <g id="ytick_9">
     <g id="line2d_25">
      <g>
       <use style="stroke:#000000;stroke-width:0.8;" x="508.172824" xlink:href="#mbebd05fbf6" y="288.148251"/>
      </g>
     </g>
     <g id="text_23">
      <!-- 10 -->
      <g transform="translate(483.357824 293.467157)scale(0.14 -0.14)">
       <use xlink:href="#DejaVuSans-31"/>
       <use x="63.623047" xlink:href="#DejaVuSans-30"/>
      </g>
     </g>
    </g>
    <g id="ytick_10">
     <g id="line2d_26">
      <g>
       <use style="stroke:#000000;stroke-width:0.8;" x="508.172824" xlink:href="#mbebd05fbf6" y="255.042587"/>
      </g>
     </g>
     <g id="text_24">
      <!-- 20 -->
      <g transform="translate(483.357824 260.361493)scale(0.14 -0.14)">
       <use xlink:href="#DejaVuSans-32"/>
       <use x="63.623047" xlink:href="#DejaVuSans-30"/>
      </g>
     </g>
    </g>
    <g id="ytick_11">
     <g id="line2d_27">
      <g>
       <use style="stroke:#000000;stroke-width:0.8;" x="508.172824" xlink:href="#mbebd05fbf6" y="221.936922"/>
      </g>
     </g>
     <g id="text_25">
      <!-- 30 -->
      <g transform="translate(483.357824 227.255828)scale(0.14 -0.14)">
       <use xlink:href="#DejaVuSans-33"/>
       <use x="63.623047" xlink:href="#DejaVuSans-30"/>
      </g>
     </g>
    </g>
    <g id="ytick_12">
     <g id="line2d_28">
      <g>
       <use style="stroke:#000000;stroke-width:0.8;" x="508.172824" xlink:href="#mbebd05fbf6" y="188.831258"/>
      </g>
     </g>
     <g id="text_26">
      <!-- 40 -->
      <g transform="translate(483.357824 194.150164)scale(0.14 -0.14)">
       <use xlink:href="#DejaVuSans-34"/>
       <use x="63.623047" xlink:href="#DejaVuSans-30"/>
      </g>
     </g>
    </g>
    <g id="ytick_13">
     <g id="line2d_29">
      <g>
       <use style="stroke:#000000;stroke-width:0.8;" x="508.172824" xlink:href="#mbebd05fbf6" y="155.725593"/>
      </g>
     </g>
     <g id="text_27">
      <!-- 50 -->
      <g transform="translate(483.357824 161.0445)scale(0.14 -0.14)">
       <use xlink:href="#DejaVuSans-35"/>
       <use x="63.623047" xlink:href="#DejaVuSans-30"/>
      </g>
     </g>
    </g>
    <g id="ytick_14">
     <g id="line2d_30">
      <g>
       <use style="stroke:#000000;stroke-width:0.8;" x="508.172824" xlink:href="#mbebd05fbf6" y="122.619929"/>
      </g>
     </g>
     <g id="text_28">
      <!-- 60 -->
      <g transform="translate(483.357824 127.938835)scale(0.14 -0.14)">
       <use xlink:href="#DejaVuSans-36"/>
       <use x="63.623047" xlink:href="#DejaVuSans-30"/>
      </g>
     </g>
    </g>
    <g id="ytick_15">
     <g id="line2d_31">
      <g>
       <use style="stroke:#000000;stroke-width:0.8;" x="508.172824" xlink:href="#mbebd05fbf6" y="89.514264"/>
      </g>
     </g>
     <g id="text_29">
      <!-- 70 -->
      <g transform="translate(483.357824 94.833171)scale(0.14 -0.14)">
       <use xlink:href="#DejaVuSans-37"/>
       <use x="63.623047" xlink:href="#DejaVuSans-30"/>
      </g>
     </g>
    </g>
    <g id="ytick_16">
     <g id="line2d_32">
      <g>
       <use style="stroke:#000000;stroke-width:0.8;" x="508.172824" xlink:href="#mbebd05fbf6" y="56.4086"/>
      </g>
     </g>
     <g id="text_30">
      <!-- 80 -->
      <g transform="translate(483.357824 61.727506)scale(0.14 -0.14)">
       <defs>
        <path d="M 2034 2216 
Q 1584 2216 1326 1975 
Q 1069 1734 1069 1313 
Q 1069 891 1326 650 
Q 1584 409 2034 409 
Q 2484 409 2743 651 
Q 3003 894 3003 1313 
Q 3003 1734 2745 1975 
Q 2488 2216 2034 2216 
z
M 1403 2484 
Q 997 2584 770 2862 
Q 544 3141 544 3541 
Q 544 4100 942 4425 
Q 1341 4750 2034 4750 
Q 2731 4750 3128 4425 
Q 3525 4100 3525 3541 
Q 3525 3141 3298 2862 
Q 3072 2584 2669 2484 
Q 3125 2378 3379 2068 
Q 3634 1759 3634 1313 
Q 3634 634 3220 271 
Q 2806 -91 2034 -91 
Q 1263 -91 848 271 
Q 434 634 434 1313 
Q 434 1759 690 2068 
Q 947 2378 1403 2484 
z
M 1172 3481 
Q 1172 3119 1398 2916 
Q 1625 2713 2034 2713 
Q 2441 2713 2670 2916 
Q 2900 3119 2900 3481 
Q 2900 3844 2670 4047 
Q 2441 4250 2034 4250 
Q 1625 4250 1398 4047 
Q 1172 3844 1172 3481 
z
" id="DejaVuSans-38" transform="scale(0.015625)"/>
       </defs>
       <use xlink:href="#DejaVuSans-38"/>
       <use x="63.623047" xlink:href="#DejaVuSans-30"/>
      </g>
     </g>
    </g>
    <g id="text_31">
     <!-- Torque (Nmm) -->
     <g transform="translate(476.446261 240.034519)rotate(-90)scale(0.14 -0.14)">
      <use xlink:href="#DejaVuSans-54"/>
      <use x="44.083984" xlink:href="#DejaVuSans-6f"/>
      <use x="105.265625" xlink:href="#DejaVuSans-72"/>
      <use x="144.628906" xlink:href="#DejaVuSans-71"/>
      <use x="208.105469" xlink:href="#DejaVuSans-75"/>
      <use x="271.484375" xlink:href="#DejaVuSans-65"/>
      <use x="333.007812" xlink:href="#DejaVuSans-20"/>
      <use x="364.794922" xlink:href="#DejaVuSans-28"/>
      <use x="403.808594" xlink:href="#DejaVuSans-4e"/>
      <use x="478.613281" xlink:href="#DejaVuSans-6d"/>
      <use x="576.025391" xlink:href="#DejaVuSans-6d"/>
      <use x="673.4375" xlink:href="#DejaVuSans-29"/>
     </g>
    </g>
   </g>
   <g id="line2d_33">
    <path clip-path="url(#pa8315a661e)" d="M 532.393853 195.873495 
L 534.815956 195.873557 
L 537.238059 195.873975 
L 539.660162 195.874701 
L 542.082265 195.875479 
L 544.504368 195.876869 
L 546.926471 195.878411 
L 549.348574 195.878394 
L 551.770676 195.877828 
L 554.192779 195.876974 
L 556.614882 195.876079 
L 559.036985 195.875308 
L 561.459088 195.874728 
L 563.881191 195.874218 
L 566.303294 195.873832 
L 568.725397 195.873627 
L 571.1475 195.873542 
L 573.569603 195.873512 
L 575.991706 195.873501 
L 578.413809 195.873499 
L 580.835912 195.873495 
L 583.258015 195.873503 
L 585.680118 195.873555 
L 588.102221 195.874059 
L 590.524324 195.876545 
L 592.946426 195.877146 
L 595.368529 195.878181 
L 597.790632 195.880507 
L 600.212735 195.883461 
L 602.634838 195.886806 
L 605.056941 195.89232 
L 607.479044 195.900319 
L 609.901147 195.911458 
L 612.32325 195.923958 
L 614.745353 195.937925 
L 617.167456 195.953999 
L 619.589559 195.973358 
L 622.011662 195.996336 
L 624.433765 196.023087 
L 626.855868 196.0528 
L 629.277971 196.083791 
L 631.700074 196.115165 
L 634.122176 196.14515 
L 636.544279 196.173915 
L 638.966382 196.199167 
L 641.388485 196.229986 
L 643.810588 196.281262 
L 646.232691 196.260936 
L 648.654794 196.194216 
L 651.076897 196.111691 
L 653.499 196.007675 
L 655.921103 195.910623 
L 658.343206 195.873843 
L 660.765309 195.873559 
L 663.187412 195.873495 
L 665.609515 195.873495 
L 668.031618 195.873495 
L 670.453721 195.873495 
L 672.875824 195.873495 
L 675.297926 195.873495 
L 677.720029 195.873495 
L 680.142132 195.873495 
L 682.564235 195.873495 
L 684.986338 195.873495 
L 687.408441 195.873495 
L 689.830544 195.873495 
L 692.252647 195.873495 
L 694.67475 195.873495 
L 697.096853 195.873495 
L 699.518956 195.873495 
L 701.941059 195.873495 
L 704.363162 195.873495 
L 706.785265 195.873495 
L 709.207368 195.873499 
L 711.629471 195.873586 
L 714.051574 195.873881 
L 716.473676 195.874364 
L 718.895779 195.875136 
L 721.317882 195.87645 
L 723.739985 195.878549 
L 726.162088 195.881261 
L 728.584191 195.884589 
L 731.006294 195.888553 
L 733.428397 195.893258 
L 735.8505 195.898532 
L 738.272603 195.904365 
L 740.694706 195.910907 
L 743.116809 195.917773 
L 745.538912 195.924575 
L 747.961015 195.931164 
L 750.383118 195.937139 
L 752.805221 195.94109 
L 755.227324 195.943753 
L 757.649426 195.945892 
L 760.071529 195.94786 
L 762.493632 195.941561 
L 764.915735 195.933496 
L 767.337838 195.928182 
L 769.759941 195.924623 
L 772.182044 195.921756 
L 774.604147 195.919266 
" style="fill:none;stroke:#ff0000;stroke-linecap:square;stroke-width:1.5;"/>
   </g>
   <g id="line2d_34">
    <path clip-path="url(#pa8315a661e)" d="M 532.393853 321.253916 
L 534.815956 321.210504 
L 537.238059 321.166551 
L 539.660162 321.167565 
L 542.082265 321.205805 
L 544.504368 321.258369 
L 546.926471 321.333885 
L 549.348574 321.392072 
L 551.770676 321.428423 
L 554.192779 321.446426 
L 556.614882 321.445185 
L 559.036985 321.434068 
L 561.459088 321.419338 
L 563.881191 321.39103 
L 566.303294 321.354629 
L 568.725397 321.32162 
L 571.1475 321.297106 
L 573.569603 321.281484 
L 575.991706 321.271863 
L 578.413809 321.271147 
L 580.835912 321.25883 
L 583.258015 321.230422 
L 585.680118 321.18742 
L 588.102221 321.025879 
L 590.524324 320.701215 
L 592.946426 320.610193 
L 595.368529 320.465534 
L 597.790632 320.234508 
L 600.212735 319.964408 
L 602.634838 319.704833 
L 605.056941 319.346285 
L 607.479044 318.931757 
L 609.901147 318.472489 
L 612.32325 318.071573 
L 614.745353 317.751008 
L 617.167456 317.471791 
L 619.589559 317.211311 
L 622.011662 316.952256 
L 624.433765 316.682768 
L 626.855868 316.442498 
L 629.277971 316.246683 
L 631.700074 316.123045 
L 634.122176 316.075179 
L 636.544279 316.103674 
L 638.966382 316.22605 
L 641.388485 316.554122 
L 643.810588 317.305226 
L 646.232691 318.279077 
L 648.654794 319.218714 
L 651.076897 320.241976 
L 653.499 321.281206 
L 655.921103 321.81541 
L 658.343206 321.163153 
L 660.765309 321.290822 
L 663.187412 321.24872 
L 665.609515 321.24872 
L 668.031618 321.24872 
L 670.453721 321.24872 
L 672.875824 321.24717 
L 675.297926 321.24717 
L 677.720029 321.24717 
L 680.142132 321.248444 
L 682.564235 321.251711 
L 684.986338 321.251711 
L 687.408441 321.251711 
L 689.830544 321.251711 
L 692.252647 321.251711 
L 694.67475 321.251711 
L 697.096853 321.251711 
L 699.518956 321.251711 
L 701.941059 321.251711 
L 704.363162 321.251711 
L 706.785265 321.25168 
L 709.207368 321.239901 
L 711.629471 321.197546 
L 714.051574 321.142249 
L 716.473676 321.090547 
L 718.895779 321.063426 
L 721.317882 321.036649 
L 723.739985 321.038763 
L 726.162088 321.060131 
L 728.584191 321.114826 
L 731.006294 321.192554 
L 733.428397 321.279414 
L 735.8505 321.366707 
L 738.272603 321.467277 
L 740.694706 321.558587 
L 743.116809 321.637177 
L 745.538912 321.707848 
L 747.961015 321.745282 
L 750.383118 321.769872 
L 752.805221 321.747318 
L 755.227324 321.707943 
L 757.649426 321.666876 
L 760.071529 321.640805 
L 762.493632 321.682266 
L 764.915735 321.748802 
L 767.337838 321.811664 
L 769.759941 321.870864 
L 772.182044 321.92054 
L 774.604147 321.9588 
" style="fill:none;stroke:#ff0000;stroke-dasharray:5.55,2.4;stroke-dashoffset:0;stroke-width:1.5;"/>
   </g>
   <g id="line2d_35">
    <path clip-path="url(#pa8315a661e)" d="M 532.393853 58.3668 
L 534.815956 58.36693 
L 537.238059 58.367808 
L 539.660162 58.369329 
L 542.082265 58.370961 
L 544.504368 58.373875 
L 546.926471 58.377109 
L 549.348574 58.377072 
L 551.770676 58.375886 
L 554.192779 58.374095 
L 556.614882 58.372218 
L 559.036985 58.370602 
L 561.459088 58.369385 
L 563.881191 58.368317 
L 566.303294 58.367506 
L 568.725397 58.367078 
L 571.1475 58.366899 
L 573.569603 58.366835 
L 575.991706 58.366813 
L 578.413809 58.366809 
L 580.835912 58.3668 
L 583.258015 58.366818 
L 585.680118 58.366927 
L 588.102221 58.367984 
L 590.524324 58.373195 
L 592.946426 58.374455 
L 595.368529 58.376625 
L 597.790632 58.381502 
L 600.212735 58.387696 
L 602.634838 58.394711 
L 605.056941 58.406272 
L 607.479044 58.423044 
L 609.901147 58.446398 
L 612.32325 58.472606 
L 614.745353 58.501892 
L 617.167456 58.535595 
L 619.589559 58.576184 
L 622.011662 58.624363 
L 624.433765 58.680452 
L 626.855868 58.742752 
L 629.277971 58.807731 
L 631.700074 58.873515 
L 634.122176 58.936384 
L 636.544279 58.996697 
L 638.966382 59.049643 
L 641.388485 59.11426 
L 643.810588 59.221773 
L 646.232691 59.179154 
L 648.654794 59.03926 
L 651.076897 58.866229 
L 653.499 58.648137 
L 655.921103 58.444647 
L 658.343206 58.367531 
L 660.765309 58.366934 
L 663.187412 58.366801 
L 665.609515 58.366801 
L 668.031618 58.366801 
L 670.453721 58.366801 
L 672.875824 58.3668 
L 675.297926 58.3668 
L 677.720029 58.3668 
L 680.142132 58.3668 
L 682.564235 58.3668 
L 684.986338 58.3668 
L 687.408441 58.3668 
L 689.830544 58.3668 
L 692.252647 58.3668 
L 694.67475 58.3668 
L 697.096853 58.3668 
L 699.518956 58.3668 
L 701.941059 58.3668 
L 704.363162 58.3668 
L 706.785265 58.3668 
L 709.207368 58.366808 
L 711.629471 58.366992 
L 714.051574 58.367609 
L 716.473676 58.368623 
L 718.895779 58.370242 
L 721.317882 58.372997 
L 723.739985 58.377398 
L 726.162088 58.383084 
L 728.584191 58.390061 
L 731.006294 58.398372 
L 733.428397 58.408238 
L 735.8505 58.419297 
L 738.272603 58.431525 
L 740.694706 58.445243 
L 743.116809 58.459638 
L 745.538912 58.473901 
L 747.961015 58.487715 
L 750.383118 58.500243 
L 752.805221 58.508528 
L 755.227324 58.514111 
L 757.649426 58.518597 
L 760.071529 58.522723 
L 762.493632 58.509515 
L 764.915735 58.492605 
L 767.337838 58.481464 
L 769.759941 58.474001 
L 772.182044 58.46799 
L 774.604147 58.46277 
" style="fill:none;stroke:#ff0000;stroke-dasharray:1.5,2.475;stroke-dashoffset:0;stroke-width:1.5;"/>
   </g>
   <g id="line2d_36">
    <path clip-path="url(#pa8315a661e)" d="M 532.393853 195.873495 
L 534.815956 195.873529 
L 537.238059 195.873759 
L 539.660162 195.874162 
L 542.082265 195.874592 
L 544.504368 195.875008 
L 546.926471 195.875287 
L 549.348574 195.87523 
L 551.770676 195.874973 
L 554.192779 195.87463 
L 556.614882 195.874285 
L 559.036985 195.874001 
L 561.459088 195.8738 
L 563.881191 195.873638 
L 566.303294 195.873533 
L 568.725397 195.873497 
L 571.1475 195.873497 
L 573.569603 195.873507 
L 575.991706 195.873517 
L 578.413809 195.873521 
L 580.835912 195.873535 
L 583.258015 195.873571 
L 585.680118 195.87364 
L 588.102221 195.87386 
L 590.524324 195.874506 
L 592.946426 195.874964 
L 595.368529 195.875604 
L 597.790632 195.876629 
L 600.212735 195.878025 
L 602.634838 195.879917 
L 605.056941 195.882423 
L 607.479044 195.885816 
L 609.901147 195.890481 
L 612.32325 195.89573 
L 614.745353 195.90171 
L 617.167456 195.908683 
L 619.589559 195.917177 
L 622.011662 195.927374 
L 624.433765 195.939311 
L 626.855868 195.952726 
L 629.277971 195.966918 
L 631.700074 195.981576 
L 634.122176 195.995917 
L 636.544279 196.010014 
L 638.966382 196.022895 
L 641.388485 196.039482 
L 643.810588 196.068382 
L 646.232691 196.062869 
L 648.654794 196.033508 
L 651.076897 195.995672 
L 653.499 195.945597 
L 655.921103 195.895795 
L 658.343206 195.873499 
L 660.765309 195.873917 
L 663.187412 195.873733 
L 665.609515 195.873733 
L 668.031618 195.873733 
L 670.453721 195.873733 
L 672.875824 195.874224 
L 675.297926 195.874224 
L 677.720029 195.874224 
L 680.142132 195.874313 
L 682.564235 195.874518 
L 684.986338 195.874518 
L 687.408441 195.874518 
L 689.830544 195.874518 
L 692.252647 195.874519 
L 694.67475 195.874519 
L 697.096853 195.874519 
L 699.518956 195.874519 
L 701.941059 195.874519 
L 704.363162 195.874519 
L 706.785265 195.874518 
L 709.207368 195.874433 
L 711.629471 195.874135 
L 714.051574 195.873824 
L 716.473676 195.873614 
L 718.895779 195.873502 
L 721.317882 195.873554 
L 723.739985 195.873898 
L 726.162088 195.874554 
L 728.584191 195.875522 
L 731.006294 195.876798 
L 733.428397 195.878408 
L 735.8505 195.880288 
L 738.272603 195.882419 
L 740.694706 195.884856 
L 743.116809 195.887438 
L 745.538912 195.890005 
L 747.961015 195.892489 
L 750.383118 195.894724 
L 752.805221 195.896148 
L 755.227324 195.897058 
L 757.649426 195.897758 
L 760.071529 195.898388 
L 762.493632 195.89577 
L 764.915735 195.892548 
L 767.337838 195.890437 
L 769.759941 195.889022 
L 772.182044 195.887893 
L 774.604147 195.886923 
" style="fill:none;stroke:#008000;stroke-linecap:square;stroke-width:1.5;"/>
   </g>
   <g id="line2d_37">
    <path clip-path="url(#pa8315a661e)" d="M 532.393853 321.253897 
L 534.815956 321.224454 
L 537.238059 321.188903 
L 539.660162 321.184558 
L 542.082265 321.216192 
L 544.504368 321.25919 
L 546.926471 321.303881 
L 549.348574 321.337963 
L 551.770676 321.354655 
L 554.192779 321.368854 
L 556.614882 321.361545 
L 559.036985 321.343568 
L 561.459088 321.334881 
L 563.881191 321.314328 
L 566.303294 321.28781 
L 568.725397 321.260956 
L 571.1475 321.246838 
L 573.569603 321.227181 
L 575.991706 321.223954 
L 578.413809 321.209283 
L 580.835912 321.203728 
L 583.258015 321.177291 
L 585.680118 321.142057 
L 588.102221 321.068819 
L 590.524324 320.932557 
L 592.946426 320.842005 
L 595.368529 320.724706 
L 597.790632 320.570604 
L 600.212735 320.383452 
L 602.634838 320.16962 
L 605.056941 319.933443 
L 607.479044 319.667668 
L 609.901147 319.381998 
L 612.32325 319.131201 
L 614.745353 318.922319 
L 617.167456 318.74228 
L 619.589559 318.574596 
L 622.011662 318.400068 
L 624.433765 318.223569 
L 626.855868 318.062571 
L 629.277971 317.929584 
L 631.700074 317.84394 
L 634.122176 317.808128 
L 636.544279 317.821165 
L 638.966382 317.898616 
L 641.388485 318.120335 
L 643.810588 318.61771 
L 646.232691 319.264137 
L 648.654794 319.8838 
L 651.076897 320.57349 
L 653.499 321.292786 
L 655.921103 321.700062 
L 658.343206 321.263373 
L 660.765309 321.375127 
L 663.187412 321.348267 
L 665.609515 321.348267 
L 668.031618 321.348267 
L 670.453721 321.348267 
L 672.875824 321.417759 
L 675.297926 321.415523 
L 677.720029 321.415622 
L 680.142132 321.429635 
L 682.564235 321.444647 
L 684.986338 321.444647 
L 687.408441 321.444647 
L 689.830544 321.444647 
L 692.252647 321.444742 
L 694.67475 321.444743 
L 697.096853 321.444755 
L 699.518956 321.444755 
L 701.941059 321.444755 
L 704.363162 321.444755 
L 706.785265 321.444755 
L 709.207368 321.442312 
L 711.629471 321.404213 
L 714.051574 321.357401 
L 716.473676 321.312771 
L 718.895779 321.266596 
L 721.317882 321.225665 
L 723.739985 321.193396 
L 726.162088 321.184468 
L 728.584191 321.192856 
L 731.006294 321.224427 
L 733.428397 321.266931 
L 735.8505 321.318715 
L 738.272603 321.372584 
L 740.694706 321.428781 
L 743.116809 321.472599 
L 745.538912 321.51219 
L 747.961015 321.537464 
L 750.383118 321.550581 
L 752.805221 321.535417 
L 755.227324 321.51016 
L 757.649426 321.488392 
L 760.071529 321.46952 
L 762.493632 321.493014 
L 764.915735 321.521706 
L 767.337838 321.556584 
L 769.759941 321.58632 
L 772.182044 321.613159 
L 774.604147 321.631993 
" style="fill:none;stroke:#008000;stroke-dasharray:5.55,2.4;stroke-dashoffset:0;stroke-width:1.5;"/>
   </g>
   <g id="line2d_38">
    <path clip-path="url(#pa8315a661e)" d="M 532.393853 58.3668 
L 534.815956 58.366871 
L 537.238059 58.367355 
L 539.660162 58.368199 
L 542.082265 58.3691 
L 544.504368 58.369972 
L 546.926471 58.370559 
L 549.348574 58.370439 
L 551.770676 58.3699 
L 554.192779 58.369179 
L 556.614882 58.368457 
L 559.036985 58.367861 
L 561.459088 58.36744 
L 563.881191 58.3671 
L 566.303294 58.36688 
L 568.725397 58.366805 
L 571.1475 58.366805 
L 573.569603 58.366827 
L 575.991706 58.366846 
L 578.413809 58.366856 
L 580.835912 58.366885 
L 583.258015 58.366961 
L 585.680118 58.367105 
L 588.102221 58.367566 
L 590.524324 58.36892 
L 592.946426 58.36988 
L 595.368529 58.371222 
L 597.790632 58.373371 
L 600.212735 58.376299 
L 602.634838 58.380266 
L 605.056941 58.38552 
L 607.479044 58.392633 
L 609.901147 58.402415 
L 612.32325 58.413421 
L 614.745353 58.425959 
L 617.167456 58.440581 
L 619.589559 58.458389 
L 622.011662 58.479769 
L 624.433765 58.504799 
L 626.855868 58.532926 
L 629.277971 58.562682 
L 631.700074 58.593416 
L 634.122176 58.623484 
L 636.544279 58.653042 
L 638.966382 58.68005 
L 641.388485 58.714827 
L 643.810588 58.775424 
L 646.232691 58.763864 
L 648.654794 58.702302 
L 651.076897 58.622972 
L 653.499 58.517979 
L 655.921103 58.413558 
L 658.343206 58.366808 
L 660.765309 58.367686 
L 663.187412 58.367299 
L 665.609515 58.367299 
L 668.031618 58.367299 
L 670.453721 58.367299 
L 672.875824 58.368328 
L 675.297926 58.368329 
L 677.720029 58.36833 
L 680.142132 58.368516 
L 682.564235 58.368945 
L 684.986338 58.368945 
L 687.408441 58.368945 
L 689.830544 58.368945 
L 692.252647 58.368947 
L 694.67475 58.368947 
L 697.096853 58.368947 
L 699.518956 58.368947 
L 701.941059 58.368947 
L 704.363162 58.368947 
L 706.785265 58.368946 
L 709.207368 58.368767 
L 711.629471 58.368143 
L 714.051574 58.36749 
L 716.473676 58.367051 
L 718.895779 58.366815 
L 721.317882 58.366924 
L 723.739985 58.367645 
L 726.162088 58.369021 
L 728.584191 58.371052 
L 731.006294 58.373725 
L 733.428397 58.377102 
L 735.8505 58.381044 
L 738.272603 58.385512 
L 740.694706 58.390621 
L 743.116809 58.396035 
L 745.538912 58.401417 
L 747.961015 58.406626 
L 750.383118 58.411311 
L 752.805221 58.414298 
L 755.227324 58.416206 
L 757.649426 58.417674 
L 760.071529 58.418994 
L 762.493632 58.413505 
L 764.915735 58.406749 
L 767.337838 58.402323 
L 769.759941 58.399356 
L 772.182044 58.396989 
L 774.604147 58.394955 
" style="fill:none;stroke:#008000;stroke-dasharray:1.5,2.475;stroke-dashoffset:0;stroke-width:1.5;"/>
   </g>
   <g id="patch_8">
    <path d="M 508.172824 335.1384 
L 508.172824 45.1872 
" style="fill:none;stroke:#000000;stroke-linecap:square;stroke-linejoin:miter;stroke-width:0.8;"/>
   </g>
   <g id="patch_9">
    <path d="M 798.825176 335.1384 
L 798.825176 45.1872 
" style="fill:none;stroke:#000000;stroke-linecap:square;stroke-linejoin:miter;stroke-width:0.8;"/>
   </g>
   <g id="patch_10">
    <path d="M 508.172824 335.1384 
L 798.825176 335.1384 
" style="fill:none;stroke:#000000;stroke-linecap:square;stroke-linejoin:miter;stroke-width:0.8;"/>
   </g>
   <g id="patch_11">
    <path d="M 508.172824 45.1872 
L 798.825176 45.1872 
" style="fill:none;stroke:#000000;stroke-linecap:square;stroke-linejoin:miter;stroke-width:0.8;"/>
   </g>
   <g id="text_32">
    <!-- Torque for f=010 -->
    <g transform="translate(582.606937 39.1872)scale(0.168 -0.168)">
     <use xlink:href="#DejaVuSans-54"/>
     <use x="44.083984" xlink:href="#DejaVuSans-6f"/>
     <use x="105.265625" xlink:href="#DejaVuSans-72"/>
     <use x="144.628906" xlink:href="#DejaVuSans-71"/>
     <use x="208.105469" xlink:href="#DejaVuSans-75"/>
     <use x="271.484375" xlink:href="#DejaVuSans-65"/>
     <use x="333.007812" xlink:href="#DejaVuSans-20"/>
     <use x="364.794922" xlink:href="#DejaVuSans-66"/>
     <use x="400" xlink:href="#DejaVuSans-6f"/>
     <use x="461.181641" xlink:href="#DejaVuSans-72"/>
     <use x="502.294922" xlink:href="#DejaVuSans-20"/>
     <use x="534.082031" xlink:href="#DejaVuSans-66"/>
     <use x="569.287109" xlink:href="#DejaVuSans-3d"/>
     <use x="653.076172" xlink:href="#DejaVuSans-30"/>
     <use x="716.699219" xlink:href="#DejaVuSans-31"/>
     <use x="780.322266" xlink:href="#DejaVuSans-30"/>
    </g>
   </g>
  </g>
  <g id="axes_3">
   <g id="patch_12">
    <path d="M 856.955647 335.1384 
L 1147.608 335.1384 
L 1147.608 45.1872 
L 856.955647 45.1872 
z
" style="fill:#ffffff;"/>
   </g>
   <g id="matplotlib.axis_5">
    <g id="xtick_11">
     <g id="line2d_39">
      <g>
       <use style="stroke:#000000;stroke-width:0.8;" x="881.176676" xlink:href="#m0902a9faff" y="335.1384"/>
      </g>
     </g>
     <g id="text_33">
      <!-- 0.00 -->
      <g transform="translate(865.590739 352.776213)scale(0.14 -0.14)">
       <use xlink:href="#DejaVuSans-30"/>
       <use x="63.623047" xlink:href="#DejaVuSans-2e"/>
       <use x="95.410156" xlink:href="#DejaVuSans-30"/>
       <use x="159.033203" xlink:href="#DejaVuSans-30"/>
      </g>
     </g>
    </g>
    <g id="xtick_12">
     <g id="line2d_40">
      <g>
       <use style="stroke:#000000;stroke-width:0.8;" x="941.72925" xlink:href="#m0902a9faff" y="335.1384"/>
      </g>
     </g>
     <g id="text_34">
      <!-- 0.25 -->
      <g transform="translate(926.143313 352.776213)scale(0.14 -0.14)">
       <use xlink:href="#DejaVuSans-30"/>
       <use x="63.623047" xlink:href="#DejaVuSans-2e"/>
       <use x="95.410156" xlink:href="#DejaVuSans-32"/>
       <use x="159.033203" xlink:href="#DejaVuSans-35"/>
      </g>
     </g>
    </g>
    <g id="xtick_13">
     <g id="line2d_41">
      <g>
       <use style="stroke:#000000;stroke-width:0.8;" x="1002.281824" xlink:href="#m0902a9faff" y="335.1384"/>
      </g>
     </g>
     <g id="text_35">
      <!-- 0.50 -->
      <g transform="translate(986.695886 352.776213)scale(0.14 -0.14)">
       <use xlink:href="#DejaVuSans-30"/>
       <use x="63.623047" xlink:href="#DejaVuSans-2e"/>
       <use x="95.410156" xlink:href="#DejaVuSans-35"/>
       <use x="159.033203" xlink:href="#DejaVuSans-30"/>
      </g>
     </g>
    </g>
    <g id="xtick_14">
     <g id="line2d_42">
      <g>
       <use style="stroke:#000000;stroke-width:0.8;" x="1062.834397" xlink:href="#m0902a9faff" y="335.1384"/>
      </g>
     </g>
     <g id="text_36">
      <!-- 0.75 -->
      <g transform="translate(1047.24846 352.776213)scale(0.14 -0.14)">
       <use xlink:href="#DejaVuSans-30"/>
       <use x="63.623047" xlink:href="#DejaVuSans-2e"/>
       <use x="95.410156" xlink:href="#DejaVuSans-37"/>
       <use x="159.033203" xlink:href="#DejaVuSans-35"/>
      </g>
     </g>
    </g>
    <g id="xtick_15">
     <g id="line2d_43">
      <g>
       <use style="stroke:#000000;stroke-width:0.8;" x="1123.386971" xlink:href="#m0902a9faff" y="335.1384"/>
      </g>
     </g>
     <g id="text_37">
      <!-- 1.00 -->
      <g transform="translate(1107.801033 352.776213)scale(0.14 -0.14)">
       <use xlink:href="#DejaVuSans-31"/>
       <use x="63.623047" xlink:href="#DejaVuSans-2e"/>
       <use x="95.410156" xlink:href="#DejaVuSans-30"/>
       <use x="159.033203" xlink:href="#DejaVuSans-30"/>
      </g>
     </g>
    </g>
    <g id="text_38">
     <!-- Time (s) -->
     <g transform="translate(973.821355 370.325588)scale(0.14 -0.14)">
      <use xlink:href="#DejaVuSans-54"/>
      <use x="57.958984" xlink:href="#DejaVuSans-69"/>
      <use x="85.742188" xlink:href="#DejaVuSans-6d"/>
      <use x="183.154297" xlink:href="#DejaVuSans-65"/>
      <use x="244.677734" xlink:href="#DejaVuSans-20"/>
      <use x="276.464844" xlink:href="#DejaVuSans-28"/>
      <use x="315.478516" xlink:href="#DejaVuSans-73"/>
      <use x="367.578125" xlink:href="#DejaVuSans-29"/>
     </g>
    </g>
   </g>
   <g id="matplotlib.axis_6">
    <g id="ytick_17">
     <g id="line2d_44">
      <g>
       <use style="stroke:#000000;stroke-width:0.8;" x="856.955647" xlink:href="#mbebd05fbf6" y="323.789852"/>
      </g>
     </g>
     <g id="text_39">
      <!-- −80 -->
      <g transform="translate(820.409085 329.108758)scale(0.14 -0.14)">
       <use xlink:href="#DejaVuSans-2212"/>
       <use x="83.789062" xlink:href="#DejaVuSans-38"/>
       <use x="147.412109" xlink:href="#DejaVuSans-30"/>
      </g>
     </g>
    </g>
    <g id="ytick_18">
     <g id="line2d_45">
      <g>
       <use style="stroke:#000000;stroke-width:0.8;" x="856.955647" xlink:href="#mbebd05fbf6" y="291.199162"/>
      </g>
     </g>
     <g id="text_40">
      <!-- −70 -->
      <g transform="translate(820.409085 296.518068)scale(0.14 -0.14)">
       <use xlink:href="#DejaVuSans-2212"/>
       <use x="83.789062" xlink:href="#DejaVuSans-37"/>
       <use x="147.412109" xlink:href="#DejaVuSans-30"/>
      </g>
     </g>
    </g>
    <g id="ytick_19">
     <g id="line2d_46">
      <g>
       <use style="stroke:#000000;stroke-width:0.8;" x="856.955647" xlink:href="#mbebd05fbf6" y="258.608472"/>
      </g>
     </g>
     <g id="text_41">
      <!-- −60 -->
      <g transform="translate(820.409085 263.927378)scale(0.14 -0.14)">
       <use xlink:href="#DejaVuSans-2212"/>
       <use x="83.789062" xlink:href="#DejaVuSans-36"/>
       <use x="147.412109" xlink:href="#DejaVuSans-30"/>
      </g>
     </g>
    </g>
    <g id="ytick_20">
     <g id="line2d_47">
      <g>
       <use style="stroke:#000000;stroke-width:0.8;" x="856.955647" xlink:href="#mbebd05fbf6" y="226.017781"/>
      </g>
     </g>
     <g id="text_42">
      <!-- −50 -->
      <g transform="translate(820.409085 231.336688)scale(0.14 -0.14)">
       <use xlink:href="#DejaVuSans-2212"/>
       <use x="83.789062" xlink:href="#DejaVuSans-35"/>
       <use x="147.412109" xlink:href="#DejaVuSans-30"/>
      </g>
     </g>
    </g>
    <g id="ytick_21">
     <g id="line2d_48">
      <g>
       <use style="stroke:#000000;stroke-width:0.8;" x="856.955647" xlink:href="#mbebd05fbf6" y="193.427091"/>
      </g>
     </g>
     <g id="text_43">
      <!-- −40 -->
      <g transform="translate(820.409085 198.745998)scale(0.14 -0.14)">
       <use xlink:href="#DejaVuSans-2212"/>
       <use x="83.789062" xlink:href="#DejaVuSans-34"/>
       <use x="147.412109" xlink:href="#DejaVuSans-30"/>
      </g>
     </g>
    </g>
    <g id="ytick_22">
     <g id="line2d_49">
      <g>
       <use style="stroke:#000000;stroke-width:0.8;" x="856.955647" xlink:href="#mbebd05fbf6" y="160.836401"/>
      </g>
     </g>
     <g id="text_44">
      <!-- −30 -->
      <g transform="translate(820.409085 166.155307)scale(0.14 -0.14)">
       <use xlink:href="#DejaVuSans-2212"/>
       <use x="83.789062" xlink:href="#DejaVuSans-33"/>
       <use x="147.412109" xlink:href="#DejaVuSans-30"/>
      </g>
     </g>
    </g>
    <g id="ytick_23">
     <g id="line2d_50">
      <g>
       <use style="stroke:#000000;stroke-width:0.8;" x="856.955647" xlink:href="#mbebd05fbf6" y="128.245711"/>
      </g>
     </g>
     <g id="text_45">
      <!-- −20 -->
      <g transform="translate(820.409085 133.564617)scale(0.14 -0.14)">
       <use xlink:href="#DejaVuSans-2212"/>
       <use x="83.789062" xlink:href="#DejaVuSans-32"/>
       <use x="147.412109" xlink:href="#DejaVuSans-30"/>
      </g>
     </g>
    </g>
    <g id="ytick_24">
     <g id="line2d_51">
      <g>
       <use style="stroke:#000000;stroke-width:0.8;" x="856.955647" xlink:href="#mbebd05fbf6" y="95.655021"/>
      </g>
     </g>
     <g id="text_46">
      <!-- −10 -->
      <g transform="translate(820.409085 100.973927)scale(0.14 -0.14)">
       <use xlink:href="#DejaVuSans-2212"/>
       <use x="83.789062" xlink:href="#DejaVuSans-31"/>
       <use x="147.412109" xlink:href="#DejaVuSans-30"/>
      </g>
     </g>
    </g>
    <g id="ytick_25">
     <g id="line2d_52">
      <g>
       <use style="stroke:#000000;stroke-width:0.8;" x="856.955647" xlink:href="#mbebd05fbf6" y="63.064331"/>
      </g>
     </g>
     <g id="text_47">
      <!-- 0 -->
      <g transform="translate(841.048147 68.383237)scale(0.14 -0.14)">
       <use xlink:href="#DejaVuSans-30"/>
      </g>
     </g>
    </g>
    <g id="text_48">
     <!-- Torque (Nmm) -->
     <g transform="translate(813.497522 240.034519)rotate(-90)scale(0.14 -0.14)">
      <use xlink:href="#DejaVuSans-54"/>
      <use x="44.083984" xlink:href="#DejaVuSans-6f"/>
      <use x="105.265625" xlink:href="#DejaVuSans-72"/>
      <use x="144.628906" xlink:href="#DejaVuSans-71"/>
      <use x="208.105469" xlink:href="#DejaVuSans-75"/>
      <use x="271.484375" xlink:href="#DejaVuSans-65"/>
      <use x="333.007812" xlink:href="#DejaVuSans-20"/>
      <use x="364.794922" xlink:href="#DejaVuSans-28"/>
      <use x="403.808594" xlink:href="#DejaVuSans-4e"/>
      <use x="478.613281" xlink:href="#DejaVuSans-6d"/>
      <use x="576.025391" xlink:href="#DejaVuSans-6d"/>
      <use x="673.4375" xlink:href="#DejaVuSans-29"/>
     </g>
    </g>
   </g>
   <g id="line2d_53">
    <path clip-path="url(#p02753bd7a5)" d="M 881.176676 63.064331 
L 883.598779 62.994784 
L 886.020882 62.878989 
L 888.442985 62.782351 
L 890.865088 62.71574 
L 893.287191 62.621953 
L 895.709294 62.543459 
L 898.131397 62.552449 
L 900.5535 62.587613 
L 902.975603 62.640831 
L 905.397706 62.700948 
L 907.819809 62.761188 
L 910.241912 62.815737 
L 912.664015 62.874075 
L 915.086118 62.934654 
L 917.508221 62.983205 
L 919.930324 63.016145 
L 922.352426 63.035765 
L 924.774529 63.047182 
L 927.196632 63.051191 
L 929.618735 63.061833 
L 932.040838 63.084602 
L 934.462941 63.117371 
L 936.885044 63.218491 
L 939.307147 63.418649 
L 941.72925 63.442203 
L 944.151353 63.475113 
L 946.573456 63.552413 
L 948.995559 63.624411 
L 951.417662 63.695994 
L 953.839765 63.796888 
L 956.261868 63.926221 
L 958.683971 64.084334 
L 961.106074 64.247257 
L 963.528176 64.429212 
L 965.950279 64.627502 
L 968.372382 64.851662 
L 970.794485 65.093369 
L 973.216588 65.343215 
L 975.638691 65.601568 
L 978.060794 65.853196 
L 980.482897 66.102271 
L 982.905 66.337341 
L 985.327103 66.566814 
L 987.749206 66.779925 
L 990.171309 67.07805 
L 992.593412 67.613312 
L 995.015515 67.655677 
L 997.437618 67.325145 
L 999.859721 66.835655 
L 1002.281824 66.009162 
L 1004.703926 64.692738 
L 1007.126029 62.90563 
L 1009.548132 63.131662 
L 1011.970235 63.065488 
L 1014.392338 63.065488 
L 1016.814441 63.065488 
L 1019.236544 63.065488 
L 1021.658647 63.063049 
L 1024.08075 63.063049 
L 1026.502853 63.063049 
L 1028.924956 63.063476 
L 1031.347059 63.064571 
L 1033.769162 63.064571 
L 1036.191265 63.064571 
L 1038.613368 63.064571 
L 1041.035471 63.064571 
L 1043.457574 63.064571 
L 1045.879676 63.064571 
L 1048.301779 63.064571 
L 1050.723882 63.064571 
L 1053.145985 63.064571 
L 1055.568088 63.064522 
L 1057.990191 63.045989 
L 1060.412294 62.979338 
L 1062.834397 62.891105 
L 1065.2565 62.804807 
L 1067.678603 62.717745 
L 1070.100706 62.609519 
L 1072.522809 62.489574 
L 1074.944912 62.372334 
L 1077.367015 62.264181 
L 1079.789118 62.161332 
L 1082.211221 62.056195 
L 1084.633324 61.949604 
L 1087.055426 61.845076 
L 1089.477529 61.729282 
L 1091.899632 61.60682 
L 1094.321735 61.483699 
L 1096.743838 61.350602 
L 1099.165941 61.221168 
L 1101.588044 61.105095 
L 1104.010147 61.002608 
L 1106.43225 60.908476 
L 1108.854353 60.823908 
L 1111.276456 60.897611 
L 1113.698559 61.021585 
L 1116.120662 61.107888 
L 1118.542765 61.168077 
L 1120.964868 61.218101 
L 1123.386971 61.262762 
" style="fill:none;stroke:#ff0000;stroke-linecap:square;stroke-width:1.5;"/>
   </g>
   <g id="line2d_54">
    <path clip-path="url(#p02753bd7a5)" d="M 881.176676 321.862113 
L 883.598779 321.074244 
L 886.020882 319.396223 
L 888.442985 317.358527 
L 890.865088 315.171515 
L 893.287191 312.954071 
L 895.709294 310.786017 
L 898.131397 308.695393 
L 900.5535 306.713174 
L 902.975603 304.848254 
L 905.397706 303.085095 
L 907.819809 301.39147 
L 910.241912 299.737513 
L 912.664015 298.078201 
L 915.086118 296.405994 
L 917.508221 294.762476 
L 919.930324 293.180996 
L 922.352426 291.679291 
L 924.774529 290.260267 
L 927.196632 288.885216 
L 929.618735 287.455772 
L 932.040838 286.078043 
L 934.462941 284.816305 
L 936.885044 283.626157 
L 939.307147 282.426152 
L 941.72925 281.138321 
L 944.151353 279.832382 
L 946.573456 278.528247 
L 948.995559 277.30835 
L 951.417662 276.250919 
L 953.839765 275.350325 
L 956.261868 274.799266 
L 958.683971 274.606366 
L 961.106074 274.821074 
L 963.528176 275.434039 
L 965.950279 276.337738 
L 968.372382 277.398318 
L 970.794485 278.503486 
L 973.216588 279.627561 
L 975.638691 280.776768 
L 978.060794 281.969267 
L 980.482897 283.22981 
L 982.905 284.541213 
L 985.327103 285.889798 
L 987.749206 287.313105 
L 990.171309 289.299158 
L 992.593412 292.422512 
L 995.015515 295.861531 
L 997.437618 299.433237 
L 999.859721 303.647673 
L 1002.281824 308.996909 
L 1004.703926 315.54786 
L 1007.126029 321.9588 
L 1009.548132 321.880758 
L 1011.970235 321.8566 
L 1014.392338 321.8566 
L 1016.814441 321.8566 
L 1019.236544 321.8566 
L 1021.658647 321.854199 
L 1024.08075 321.854199 
L 1026.502853 321.854199 
L 1028.924956 321.85485 
L 1031.347059 321.856522 
L 1033.769162 321.856522 
L 1036.191265 321.856522 
L 1038.613368 321.856522 
L 1041.035471 321.856522 
L 1043.457574 321.856522 
L 1045.879676 321.856522 
L 1048.301779 321.856522 
L 1050.723882 321.856522 
L 1053.145985 321.856522 
L 1055.568088 321.856539 
L 1057.990191 321.862965 
L 1060.412294 321.860999 
L 1062.834397 321.726736 
L 1065.2565 321.408021 
L 1067.678603 320.90749 
L 1070.100706 320.290289 
L 1072.522809 319.621071 
L 1074.944912 318.948888 
L 1077.367015 318.293225 
L 1079.789118 317.648014 
L 1082.211221 316.995336 
L 1084.633324 316.279489 
L 1087.055426 315.457293 
L 1089.477529 314.477894 
L 1091.899632 313.30453 
L 1094.321735 311.905836 
L 1096.743838 310.281055 
L 1099.165941 308.479905 
L 1101.588044 306.569914 
L 1104.010147 304.607457 
L 1106.43225 302.645936 
L 1108.854353 300.71762 
L 1111.276456 298.642466 
L 1113.698559 296.513923 
L 1116.120662 294.507661 
L 1118.542765 292.651685 
L 1120.964868 290.975743 
L 1123.386971 289.510451 
" style="fill:none;stroke:#ff0000;stroke-dasharray:5.55,2.4;stroke-dashoffset:0;stroke-width:1.5;"/>
   </g>
   <g id="line2d_55">
    <path clip-path="url(#p02753bd7a5)" d="M 881.176676 63.064331 
L 883.598779 62.918511 
L 886.020882 62.675722 
L 888.442985 62.473099 
L 890.865088 62.333434 
L 893.287191 62.13679 
L 895.709294 61.972211 
L 898.131397 61.99106 
L 900.5535 62.064789 
L 902.975603 62.176372 
L 905.397706 62.30242 
L 907.819809 62.428727 
L 910.241912 62.543101 
L 912.664015 62.665419 
L 915.086118 62.792436 
L 917.508221 62.894233 
L 919.930324 62.9633 
L 922.352426 63.004437 
L 924.774529 63.028376 
L 927.196632 63.036781 
L 929.618735 63.059094 
L 932.040838 63.106834 
L 934.462941 63.17554 
L 936.885044 63.387561 
L 939.307147 63.807236 
L 941.72925 63.856621 
L 944.151353 63.925625 
L 946.573456 64.0877 
L 948.995559 64.23866 
L 951.417662 64.38875 
L 953.839765 64.600294 
L 956.261868 64.871471 
L 958.683971 65.202988 
L 961.106074 65.54459 
L 963.528176 65.9261 
L 965.950279 66.341856 
L 968.372382 66.811857 
L 970.794485 67.318647 
L 973.216588 67.842504 
L 975.638691 68.384196 
L 978.060794 68.91179 
L 980.482897 69.434028 
L 982.905 69.926903 
L 985.327103 70.408043 
L 987.749206 70.854876 
L 990.171309 71.479961 
L 992.593412 72.602253 
L 995.015515 72.69108 
L 997.437618 71.998047 
L 999.859721 70.971726 
L 1002.281824 69.238804 
L 1004.703926 66.478638 
L 1007.126029 62.731581 
L 1009.548132 63.205505 
L 1011.970235 63.066757 
L 1014.392338 63.066757 
L 1016.814441 63.066757 
L 1019.236544 63.066757 
L 1021.658647 63.061643 
L 1024.08075 63.061643 
L 1026.502853 63.061643 
L 1028.924956 63.062539 
L 1031.347059 63.064836 
L 1033.769162 63.064836 
L 1036.191265 63.064836 
L 1038.613368 63.064836 
L 1041.035471 63.064836 
L 1043.457574 63.064836 
L 1045.879676 63.064836 
L 1048.301779 63.064836 
L 1050.723882 63.064836 
L 1053.145985 63.064836 
L 1055.568088 63.064732 
L 1057.990191 63.025873 
L 1060.412294 62.886125 
L 1062.834397 62.701125 
L 1065.2565 62.520184 
L 1067.678603 62.33764 
L 1070.100706 62.110719 
L 1072.522809 61.85923 
L 1074.944912 61.61341 
L 1077.367015 61.386644 
L 1079.789118 61.171 
L 1082.211221 60.950557 
L 1084.633324 60.727066 
L 1087.055426 60.5079 
L 1089.477529 60.265113 
L 1091.899632 60.008345 
L 1094.321735 59.750196 
L 1096.743838 59.471129 
L 1099.165941 59.199742 
L 1101.588044 58.95637 
L 1104.010147 58.741485 
L 1106.43225 58.544115 
L 1108.854353 58.3668 
L 1111.276456 58.521335 
L 1113.698559 58.781274 
L 1116.120662 58.962227 
L 1118.542765 59.088425 
L 1120.964868 59.193311 
L 1123.386971 59.286953 
" style="fill:none;stroke:#ff0000;stroke-dasharray:1.5,2.475;stroke-dashoffset:0;stroke-width:1.5;"/>
   </g>
   <g id="line2d_56">
    <path clip-path="url(#p02753bd7a5)" d="M 881.176676 63.064323 
L 883.598779 63.013916 
L 886.020882 62.926779 
L 888.442985 62.852708 
L 890.865088 62.804479 
L 893.287191 62.768981 
L 895.709294 62.750442 
L 898.131397 62.760346 
L 900.5535 62.785434 
L 902.975603 62.824367 
L 905.397706 62.864095 
L 907.819809 62.902071 
L 910.241912 62.940094 
L 912.664015 62.979588 
L 915.086118 63.020584 
L 917.508221 63.052709 
L 919.930324 63.076819 
L 922.352426 63.088072 
L 924.774529 63.098179 
L 927.196632 63.09772 
L 929.618735 63.107976 
L 932.040838 63.122391 
L 934.462941 63.143072 
L 936.885044 63.187627 
L 939.307147 63.267039 
L 941.72925 63.302534 
L 944.151353 63.33979 
L 946.573456 63.389881 
L 948.995559 63.441538 
L 951.417662 63.49956 
L 953.839765 63.565949 
L 956.261868 63.643058 
L 958.683971 63.741616 
L 961.106074 63.844948 
L 963.528176 63.961381 
L 965.950279 64.092517 
L 968.372382 64.243221 
L 970.794485 64.404822 
L 973.216588 64.574999 
L 975.638691 64.751573 
L 978.060794 64.92565 
L 980.482897 65.101014 
L 982.905 65.269652 
L 985.327103 65.436093 
L 987.749206 65.595226 
L 990.171309 65.825508 
L 992.593412 66.237367 
L 995.015515 66.301266 
L 997.437618 66.093898 
L 999.859721 65.778385 
L 1002.281824 65.22851 
L 1004.703926 64.330022 
L 1007.126029 63.081134 
L 1009.548132 63.246824 
L 1011.970235 63.202514 
L 1014.392338 63.202514 
L 1016.814441 63.202514 
L 1019.236544 63.202514 
L 1021.658647 63.305702 
L 1024.08075 63.304989 
L 1026.502853 63.305042 
L 1028.924956 63.320865 
L 1031.347059 63.349092 
L 1033.769162 63.349091 
L 1036.191265 63.349091 
L 1038.613368 63.349091 
L 1041.035471 63.349251 
L 1043.457574 63.349218 
L 1045.879676 63.34923 
L 1048.301779 63.349229 
L 1050.723882 63.349229 
L 1053.145985 63.349229 
L 1055.568088 63.349196 
L 1057.990191 63.339041 
L 1060.412294 63.28944 
L 1062.834397 63.224436 
L 1065.2565 63.159969 
L 1067.678603 63.08709 
L 1070.100706 63.000838 
L 1072.522809 62.90217 
L 1074.944912 62.809567 
L 1077.367015 62.721704 
L 1079.789118 62.641224 
L 1082.211221 62.561882 
L 1084.633324 62.486123 
L 1087.055426 62.410478 
L 1089.477529 62.331578 
L 1091.899632 62.248162 
L 1094.321735 62.166207 
L 1096.743838 62.081901 
L 1099.165941 61.999882 
L 1101.588044 61.929191 
L 1104.010147 61.868529 
L 1106.43225 61.815244 
L 1108.854353 61.765766 
L 1111.276456 61.823241 
L 1113.698559 61.909706 
L 1116.120662 61.973013 
L 1118.542765 62.01699 
L 1120.964868 62.054501 
L 1123.386971 62.087494 
" style="fill:none;stroke:#008000;stroke-linecap:square;stroke-width:1.5;"/>
   </g>
   <g id="line2d_57">
    <path clip-path="url(#p02753bd7a5)" d="M 881.176676 321.862113 
L 883.598779 321.079316 
L 886.020882 319.400778 
L 888.442985 317.362671 
L 890.865088 315.175995 
L 893.287191 312.960614 
L 895.709294 310.789358 
L 898.131397 308.703093 
L 900.5535 306.719954 
L 902.975603 304.853988 
L 905.397706 303.090043 
L 907.819809 301.395507 
L 910.241912 299.740939 
L 912.664015 298.081582 
L 915.086118 296.409726 
L 917.508221 294.766057 
L 919.930324 293.184499 
L 922.352426 291.680202 
L 924.774529 290.260999 
L 927.196632 288.88447 
L 929.618735 287.458092 
L 932.040838 286.080101 
L 934.462941 284.816216 
L 936.885044 283.625117 
L 939.307147 282.423775 
L 941.72925 281.139647 
L 944.151353 279.830906 
L 946.573456 278.52778 
L 948.995559 277.305088 
L 951.417662 276.245919 
L 953.839765 275.346814 
L 956.261868 274.799705 
L 958.683971 274.613089 
L 961.106074 274.834343 
L 963.528176 275.461133 
L 965.950279 276.376024 
L 968.372382 277.450963 
L 970.794485 278.572038 
L 973.216588 279.71111 
L 975.638691 280.880487 
L 978.060794 282.090349 
L 980.482897 283.370312 
L 982.905 284.697548 
L 985.327103 286.061318 
L 987.749206 287.498009 
L 990.171309 289.498663 
L 992.593412 292.64691 
L 995.015515 296.068944 
L 997.437618 299.601743 
L 999.859721 303.769799 
L 1002.281824 309.063961 
L 1004.703926 315.569194 
L 1007.126029 321.86211 
L 1009.548132 321.86183 
L 1011.970235 321.861308 
L 1014.392338 321.861305 
L 1016.814441 321.861305 
L 1019.236544 321.861305 
L 1021.658647 321.858637 
L 1024.08075 321.858639 
L 1026.502853 321.85864 
L 1028.924956 321.858939 
L 1031.347059 321.859726 
L 1033.769162 321.859726 
L 1036.191265 321.859726 
L 1038.613368 321.859726 
L 1041.035471 321.859742 
L 1043.457574 321.859728 
L 1045.879676 321.859731 
L 1048.301779 321.85973 
L 1050.723882 321.85973 
L 1053.145985 321.85973 
L 1055.568088 321.85973 
L 1057.990191 321.86144 
L 1060.412294 321.861682 
L 1062.834397 321.733113 
L 1065.2565 321.416146 
L 1067.678603 320.916698 
L 1070.100706 320.299518 
L 1072.522809 319.630883 
L 1074.944912 318.961069 
L 1077.367015 318.305209 
L 1079.789118 317.664509 
L 1082.211221 317.013169 
L 1084.633324 316.300362 
L 1087.055426 315.482178 
L 1089.477529 314.507807 
L 1091.899632 313.337688 
L 1094.321735 311.942503 
L 1096.743838 310.324155 
L 1099.165941 308.525567 
L 1101.588044 306.620886 
L 1104.010147 304.66231 
L 1106.43225 302.702226 
L 1108.854353 300.775397 
L 1111.276456 298.695901 
L 1113.698559 296.563169 
L 1116.120662 294.553957 
L 1118.542765 292.695998 
L 1120.964868 291.017385 
L 1123.386971 289.549984 
" style="fill:none;stroke:#008000;stroke-dasharray:5.55,2.4;stroke-dashoffset:0;stroke-width:1.5;"/>
   </g>
   <g id="line2d_58">
    <path clip-path="url(#p02753bd7a5)" d="M 881.176676 63.064315 
L 883.598779 62.958626 
L 886.020882 62.775924 
L 888.442985 62.620619 
L 890.865088 62.519496 
L 893.287191 62.445066 
L 895.709294 62.406196 
L 898.131397 62.426961 
L 900.5535 62.479563 
L 902.975603 62.561195 
L 905.397706 62.644493 
L 907.819809 62.724118 
L 910.241912 62.803842 
L 912.664015 62.886648 
L 915.086118 62.972606 
L 917.508221 63.039963 
L 919.930324 63.090516 
L 922.352426 63.114109 
L 924.774529 63.135302 
L 927.196632 63.134339 
L 929.618735 63.155843 
L 932.040838 63.186067 
L 934.462941 63.22943 
L 936.885044 63.322847 
L 939.307147 63.489352 
L 941.72925 63.563776 
L 944.151353 63.641891 
L 946.573456 63.746916 
L 948.995559 63.855228 
L 951.417662 63.976883 
L 953.839765 64.116083 
L 956.261868 64.277757 
L 958.683971 64.484406 
L 961.106074 64.701063 
L 963.528176 64.945189 
L 965.950279 65.220145 
L 968.372382 65.536128 
L 970.794485 65.874961 
L 973.216588 66.231774 
L 975.638691 66.601998 
L 978.060794 66.966989 
L 980.482897 67.334677 
L 982.905 67.688264 
L 985.327103 68.037242 
L 987.749206 68.370899 
L 990.171309 68.853735 
L 992.593412 69.717286 
L 995.015515 69.851264 
L 997.437618 69.416472 
L 999.859721 68.754932 
L 1002.281824 67.602 
L 1004.703926 65.718125 
L 1007.126029 63.099562 
L 1009.548132 63.446967 
L 1011.970235 63.354061 
L 1014.392338 63.354062 
L 1016.814441 63.354061 
L 1019.236544 63.354062 
L 1021.658647 63.570418 
L 1024.08075 63.568923 
L 1026.502853 63.569033 
L 1028.924956 63.602211 
L 1031.347059 63.661394 
L 1033.769162 63.661392 
L 1036.191265 63.661393 
L 1038.613368 63.661393 
L 1041.035471 63.661728 
L 1043.457574 63.661659 
L 1045.879676 63.661683 
L 1048.301779 63.661681 
L 1050.723882 63.661682 
L 1053.145985 63.661681 
L 1055.568088 63.661612 
L 1057.990191 63.640321 
L 1060.412294 63.53632 
L 1062.834397 63.400025 
L 1065.2565 63.264858 
L 1067.678603 63.11205 
L 1070.100706 62.931204 
L 1072.522809 62.724326 
L 1074.944912 62.530164 
L 1077.367015 62.34594 
L 1079.789118 62.177197 
L 1082.211221 62.010839 
L 1084.633324 61.851995 
L 1087.055426 61.693388 
L 1089.477529 61.527956 
L 1091.899632 61.353056 
L 1094.321735 61.18122 
L 1096.743838 61.004454 
L 1099.165941 60.832484 
L 1101.588044 60.684266 
L 1104.010147 60.557075 
L 1106.43225 60.445351 
L 1108.854353 60.34161 
L 1111.276456 60.462117 
L 1113.698559 60.64341 
L 1116.120662 60.776148 
L 1118.542765 60.868355 
L 1120.964868 60.947005 
L 1123.386971 61.016182 
" style="fill:none;stroke:#008000;stroke-dasharray:1.5,2.475;stroke-dashoffset:0;stroke-width:1.5;"/>
   </g>
   <g id="patch_13">
    <path d="M 856.955647 335.1384 
L 856.955647 45.1872 
" style="fill:none;stroke:#000000;stroke-linecap:square;stroke-linejoin:miter;stroke-width:0.8;"/>
   </g>
   <g id="patch_14">
    <path d="M 1147.608 335.1384 
L 1147.608 45.1872 
" style="fill:none;stroke:#000000;stroke-linecap:square;stroke-linejoin:miter;stroke-width:0.8;"/>
   </g>
   <g id="patch_15">
    <path d="M 856.955647 335.1384 
L 1147.608 335.1384 
" style="fill:none;stroke:#000000;stroke-linecap:square;stroke-linejoin:miter;stroke-width:0.8;"/>
   </g>
   <g id="patch_16">
    <path d="M 856.955647 45.1872 
L 1147.608 45.1872 
" style="fill:none;stroke:#000000;stroke-linecap:square;stroke-linejoin:miter;stroke-width:0.8;"/>
   </g>
   <g id="text_49">
    <!-- Torque for f=001 -->
    <g transform="translate(931.389761 39.1872)scale(0.168 -0.168)">
     <use xlink:href="#DejaVuSans-54"/>
     <use x="44.083984" xlink:href="#DejaVuSans-6f"/>
     <use x="105.265625" xlink:href="#DejaVuSans-72"/>
     <use x="144.628906" xlink:href="#DejaVuSans-71"/>
     <use x="208.105469" xlink:href="#DejaVuSans-75"/>
     <use x="271.484375" xlink:href="#DejaVuSans-65"/>
     <use x="333.007812" xlink:href="#DejaVuSans-20"/>
     <use x="364.794922" xlink:href="#DejaVuSans-66"/>
     <use x="400" xlink:href="#DejaVuSans-6f"/>
     <use x="461.181641" xlink:href="#DejaVuSans-72"/>
     <use x="502.294922" xlink:href="#DejaVuSans-20"/>
     <use x="534.082031" xlink:href="#DejaVuSans-66"/>
     <use x="569.287109" xlink:href="#DejaVuSans-3d"/>
     <use x="653.076172" xlink:href="#DejaVuSans-30"/>
     <use x="716.699219" xlink:href="#DejaVuSans-30"/>
     <use x="780.322266" xlink:href="#DejaVuSans-31"/>
    </g>
   </g>
   <g id="legend_1">
    <g id="patch_17">
     <path d="M 1067.5105 253.910925 
L 1137.808 253.910925 
Q 1140.608 253.910925 1140.608 251.110925 
L 1140.608 129.214675 
Q 1140.608 126.414675 1137.808 126.414675 
L 1067.5105 126.414675 
Q 1064.7105 126.414675 1064.7105 129.214675 
L 1064.7105 251.110925 
Q 1064.7105 253.910925 1067.5105 253.910925 
z
" style="fill:#ffffff;opacity:0.8;stroke:#cccccc;stroke-linejoin:miter;"/>
    </g>
    <g id="line2d_59">
     <path d="M 1070.3105 137.752488 
L 1098.3105 137.752488 
" style="fill:none;stroke:#ff0000;stroke-linecap:square;stroke-width:1.5;"/>
    </g>
    <g id="line2d_60"/>
    <g id="text_50">
     <!-- in x -->
     <g transform="translate(1109.5105 142.652488)scale(0.14 -0.14)">
      <defs>
       <path d="M 3513 2113 
L 3513 0 
L 2938 0 
L 2938 2094 
Q 2938 2591 2744 2837 
Q 2550 3084 2163 3084 
Q 1697 3084 1428 2787 
Q 1159 2491 1159 1978 
L 1159 0 
L 581 0 
L 581 3500 
L 1159 3500 
L 1159 2956 
Q 1366 3272 1645 3428 
Q 1925 3584 2291 3584 
Q 2894 3584 3203 3211 
Q 3513 2838 3513 2113 
z
" id="DejaVuSans-6e" transform="scale(0.015625)"/>
       <path d="M 3513 3500 
L 2247 1797 
L 3578 0 
L 2900 0 
L 1881 1375 
L 863 0 
L 184 0 
L 1544 1831 
L 300 3500 
L 978 3500 
L 1906 2253 
L 2834 3500 
L 3513 3500 
z
" id="DejaVuSans-78" transform="scale(0.015625)"/>
      </defs>
      <use xlink:href="#DejaVuSans-69"/>
      <use x="27.783203" xlink:href="#DejaVuSans-6e"/>
      <use x="91.162109" xlink:href="#DejaVuSans-20"/>
      <use x="122.949219" xlink:href="#DejaVuSans-78"/>
     </g>
    </g>
    <g id="line2d_61">
     <path d="M 1070.3105 158.301863 
L 1098.3105 158.301863 
" style="fill:none;stroke:#ff0000;stroke-dasharray:5.55,2.4;stroke-dashoffset:0;stroke-width:1.5;"/>
    </g>
    <g id="line2d_62"/>
    <g id="text_51">
     <!-- in y -->
     <g transform="translate(1109.5105 163.201863)scale(0.14 -0.14)">
      <defs>
       <path d="M 2059 -325 
Q 1816 -950 1584 -1140 
Q 1353 -1331 966 -1331 
L 506 -1331 
L 506 -850 
L 844 -850 
Q 1081 -850 1212 -737 
Q 1344 -625 1503 -206 
L 1606 56 
L 191 3500 
L 800 3500 
L 1894 763 
L 2988 3500 
L 3597 3500 
L 2059 -325 
z
" id="DejaVuSans-79" transform="scale(0.015625)"/>
      </defs>
      <use xlink:href="#DejaVuSans-69"/>
      <use x="27.783203" xlink:href="#DejaVuSans-6e"/>
      <use x="91.162109" xlink:href="#DejaVuSans-20"/>
      <use x="122.949219" xlink:href="#DejaVuSans-79"/>
     </g>
    </g>
    <g id="line2d_63">
     <path d="M 1070.3105 178.851238 
L 1098.3105 178.851238 
" style="fill:none;stroke:#ff0000;stroke-dasharray:1.5,2.475;stroke-dashoffset:0;stroke-width:1.5;"/>
    </g>
    <g id="line2d_64"/>
    <g id="text_52">
     <!-- in z -->
     <g transform="translate(1109.5105 183.751238)scale(0.14 -0.14)">
      <defs>
       <path d="M 353 3500 
L 3084 3500 
L 3084 2975 
L 922 459 
L 3084 459 
L 3084 0 
L 275 0 
L 275 525 
L 2438 3041 
L 353 3041 
L 353 3500 
z
" id="DejaVuSans-7a" transform="scale(0.015625)"/>
      </defs>
      <use xlink:href="#DejaVuSans-69"/>
      <use x="27.783203" xlink:href="#DejaVuSans-6e"/>
      <use x="91.162109" xlink:href="#DejaVuSans-20"/>
      <use x="122.949219" xlink:href="#DejaVuSans-7a"/>
     </g>
    </g>
    <g id="line2d_65">
     <path d="M 1070.3105 199.400613 
L 1098.3105 199.400613 
" style="fill:none;stroke:#008000;stroke-linecap:square;stroke-width:1.5;"/>
    </g>
    <g id="line2d_66"/>
    <g id="text_53">
     <!-- in x -->
     <g transform="translate(1109.5105 204.300613)scale(0.14 -0.14)">
      <use xlink:href="#DejaVuSans-69"/>
      <use x="27.783203" xlink:href="#DejaVuSans-6e"/>
      <use x="91.162109" xlink:href="#DejaVuSans-20"/>
      <use x="122.949219" xlink:href="#DejaVuSans-78"/>
     </g>
    </g>
    <g id="line2d_67">
     <path d="M 1070.3105 219.949988 
L 1098.3105 219.949988 
" style="fill:none;stroke:#008000;stroke-dasharray:5.55,2.4;stroke-dashoffset:0;stroke-width:1.5;"/>
    </g>
    <g id="line2d_68"/>
    <g id="text_54">
     <!-- in y -->
     <g transform="translate(1109.5105 224.849988)scale(0.14 -0.14)">
      <use xlink:href="#DejaVuSans-69"/>
      <use x="27.783203" xlink:href="#DejaVuSans-6e"/>
      <use x="91.162109" xlink:href="#DejaVuSans-20"/>
      <use x="122.949219" xlink:href="#DejaVuSans-79"/>
     </g>
    </g>
    <g id="line2d_69">
     <path d="M 1070.3105 240.499363 
L 1098.3105 240.499363 
" style="fill:none;stroke:#008000;stroke-dasharray:1.5,2.475;stroke-dashoffset:0;stroke-width:1.5;"/>
    </g>
    <g id="line2d_70"/>
    <g id="text_55">
     <!-- in z -->
     <g transform="translate(1109.5105 245.399363)scale(0.14 -0.14)">
      <use xlink:href="#DejaVuSans-69"/>
      <use x="27.783203" xlink:href="#DejaVuSans-6e"/>
      <use x="91.162109" xlink:href="#DejaVuSans-20"/>
      <use x="122.949219" xlink:href="#DejaVuSans-7a"/>
     </g>
    </g>
   </g>
  </g>
 </g>
 <defs>
  <clipPath id="p8367cfd562">
   <rect height="289.9512" width="290.652353" x="159.39" y="45.1872"/>
  </clipPath>
  <clipPath id="pa8315a661e">
   <rect height="289.9512" width="290.652353" x="508.172824" y="45.1872"/>
  </clipPath>
  <clipPath id="p02753bd7a5">
   <rect height="289.9512" width="290.652353" x="856.955647" y="45.1872"/>
  </clipPath>
 </defs>
</svg>
