<?xml version="1.0" encoding="utf-8" standalone="no"?>
<!DOCTYPE svg PUBLIC "-//W3C//DTD SVG 1.1//EN"
  "http://www.w3.org/Graphics/SVG/1.1/DTD/svg11.dtd">
<svg height="404.64pt" version="1.1" viewBox="0 0 1326.96 404.64" width="1326.96pt" xmlns="http://www.w3.org/2000/svg" xmlns:xlink="http://www.w3.org/1999/xlink">
 <metadata>
  <rdf:RDF xmlns:cc="http://creativecommons.org/ns#" xmlns:dc="http://purl.org/dc/elements/1.1/" xmlns:rdf="http://www.w3.org/1999/02/22-rdf-syntax-ns#">
   <cc:Work>
    <dc:type rdf:resource="http://purl.org/dc/dcmitype/StillImage"/>
    <dc:date>2021-05-05T08:28:56.258262</dc:date>
    <dc:format>image/svg+xml</dc:format>
    <dc:creator>
     <cc:Agent>
      <dc:title>Matplotlib v3.4.1, https://matplotlib.org/</dc:title>
     </cc:Agent>
    </dc:creator>
   </cc:Work>
  </rdf:RDF>
 </metadata>
 <defs>
  <style type="text/css">*{stroke-linecap:butt;stroke-linejoin:round;}</style>
 </defs>
 <g id="figure_1">
  <g id="patch_1">
   <path d="M 0 404.64 
L 1326.96 404.64 
L 1326.96 0 
L 0 0 
z
" style="fill:#ffffff;"/>
  </g>
  <g id="axes_1">
   <g id="patch_2">
    <path d="M 165.87 360.1296 
L 468.338824 360.1296 
L 468.338824 48.5568 
L 165.87 48.5568 
z
" style="fill:#ffffff;"/>
   </g>
   <g id="matplotlib.axis_1">
    <g id="xtick_1">
     <g id="line2d_1">
      <defs>
       <path d="M 0 0 
L 0 3.5 
" id="m2be30daab8" style="stroke:#000000;stroke-width:0.8;"/>
      </defs>
      <g>
       <use style="stroke:#000000;stroke-width:0.8;" x="191.075735" xlink:href="#m2be30daab8" y="360.1296"/>
      </g>
     </g>
     <g id="text_1">
      <!-- 0.0 -->
      <g transform="translate(179.943548 377.767412)scale(0.14 -0.14)">
       <defs>
        <path d="M 2034 4250 
Q 1547 4250 1301 3770 
Q 1056 3291 1056 2328 
Q 1056 1369 1301 889 
Q 1547 409 2034 409 
Q 2525 409 2770 889 
Q 3016 1369 3016 2328 
Q 3016 3291 2770 3770 
Q 2525 4250 2034 4250 
z
M 2034 4750 
Q 2819 4750 3233 4129 
Q 3647 3509 3647 2328 
Q 3647 1150 3233 529 
Q 2819 -91 2034 -91 
Q 1250 -91 836 529 
Q 422 1150 422 2328 
Q 422 3509 836 4129 
Q 1250 4750 2034 4750 
z
" id="DejaVuSans-30" transform="scale(0.015625)"/>
        <path d="M 684 794 
L 1344 794 
L 1344 0 
L 684 0 
L 684 794 
z
" id="DejaVuSans-2e" transform="scale(0.015625)"/>
       </defs>
       <use xlink:href="#DejaVuSans-30"/>
       <use x="63.623047" xlink:href="#DejaVuSans-2e"/>
       <use x="95.410156" xlink:href="#DejaVuSans-30"/>
      </g>
     </g>
    </g>
    <g id="xtick_2">
     <g id="line2d_2">
      <g>
       <use style="stroke:#000000;stroke-width:0.8;" x="241.487206" xlink:href="#m2be30daab8" y="360.1296"/>
      </g>
     </g>
     <g id="text_2">
      <!-- 0.2 -->
      <g transform="translate(230.355018 377.767412)scale(0.14 -0.14)">
       <defs>
        <path d="M 1228 531 
L 3431 531 
L 3431 0 
L 469 0 
L 469 531 
Q 828 903 1448 1529 
Q 2069 2156 2228 2338 
Q 2531 2678 2651 2914 
Q 2772 3150 2772 3378 
Q 2772 3750 2511 3984 
Q 2250 4219 1831 4219 
Q 1534 4219 1204 4116 
Q 875 4013 500 3803 
L 500 4441 
Q 881 4594 1212 4672 
Q 1544 4750 1819 4750 
Q 2544 4750 2975 4387 
Q 3406 4025 3406 3419 
Q 3406 3131 3298 2873 
Q 3191 2616 2906 2266 
Q 2828 2175 2409 1742 
Q 1991 1309 1228 531 
z
" id="DejaVuSans-32" transform="scale(0.015625)"/>
       </defs>
       <use xlink:href="#DejaVuSans-30"/>
       <use x="63.623047" xlink:href="#DejaVuSans-2e"/>
       <use x="95.410156" xlink:href="#DejaVuSans-32"/>
      </g>
     </g>
    </g>
    <g id="xtick_3">
     <g id="line2d_3">
      <g>
       <use style="stroke:#000000;stroke-width:0.8;" x="291.898676" xlink:href="#m2be30daab8" y="360.1296"/>
      </g>
     </g>
     <g id="text_3">
      <!-- 0.4 -->
      <g transform="translate(280.766489 377.767412)scale(0.14 -0.14)">
       <defs>
        <path d="M 2419 4116 
L 825 1625 
L 2419 1625 
L 2419 4116 
z
M 2253 4666 
L 3047 4666 
L 3047 1625 
L 3713 1625 
L 3713 1100 
L 3047 1100 
L 3047 0 
L 2419 0 
L 2419 1100 
L 313 1100 
L 313 1709 
L 2253 4666 
z
" id="DejaVuSans-34" transform="scale(0.015625)"/>
       </defs>
       <use xlink:href="#DejaVuSans-30"/>
       <use x="63.623047" xlink:href="#DejaVuSans-2e"/>
       <use x="95.410156" xlink:href="#DejaVuSans-34"/>
      </g>
     </g>
    </g>
    <g id="xtick_4">
     <g id="line2d_4">
      <g>
       <use style="stroke:#000000;stroke-width:0.8;" x="342.310147" xlink:href="#m2be30daab8" y="360.1296"/>
      </g>
     </g>
     <g id="text_4">
      <!-- 0.6 -->
      <g transform="translate(331.17796 377.767412)scale(0.14 -0.14)">
       <defs>
        <path d="M 2113 2584 
Q 1688 2584 1439 2293 
Q 1191 2003 1191 1497 
Q 1191 994 1439 701 
Q 1688 409 2113 409 
Q 2538 409 2786 701 
Q 3034 994 3034 1497 
Q 3034 2003 2786 2293 
Q 2538 2584 2113 2584 
z
M 3366 4563 
L 3366 3988 
Q 3128 4100 2886 4159 
Q 2644 4219 2406 4219 
Q 1781 4219 1451 3797 
Q 1122 3375 1075 2522 
Q 1259 2794 1537 2939 
Q 1816 3084 2150 3084 
Q 2853 3084 3261 2657 
Q 3669 2231 3669 1497 
Q 3669 778 3244 343 
Q 2819 -91 2113 -91 
Q 1303 -91 875 529 
Q 447 1150 447 2328 
Q 447 3434 972 4092 
Q 1497 4750 2381 4750 
Q 2619 4750 2861 4703 
Q 3103 4656 3366 4563 
z
" id="DejaVuSans-36" transform="scale(0.015625)"/>
       </defs>
       <use xlink:href="#DejaVuSans-30"/>
       <use x="63.623047" xlink:href="#DejaVuSans-2e"/>
       <use x="95.410156" xlink:href="#DejaVuSans-36"/>
      </g>
     </g>
    </g>
    <g id="xtick_5">
     <g id="line2d_5">
      <g>
       <use style="stroke:#000000;stroke-width:0.8;" x="392.721618" xlink:href="#m2be30daab8" y="360.1296"/>
      </g>
     </g>
     <g id="text_5">
      <!-- 0.8 -->
      <g transform="translate(381.58943 377.767412)scale(0.14 -0.14)">
       <defs>
        <path d="M 2034 2216 
Q 1584 2216 1326 1975 
Q 1069 1734 1069 1313 
Q 1069 891 1326 650 
Q 1584 409 2034 409 
Q 2484 409 2743 651 
Q 3003 894 3003 1313 
Q 3003 1734 2745 1975 
Q 2488 2216 2034 2216 
z
M 1403 2484 
Q 997 2584 770 2862 
Q 544 3141 544 3541 
Q 544 4100 942 4425 
Q 1341 4750 2034 4750 
Q 2731 4750 3128 4425 
Q 3525 4100 3525 3541 
Q 3525 3141 3298 2862 
Q 3072 2584 2669 2484 
Q 3125 2378 3379 2068 
Q 3634 1759 3634 1313 
Q 3634 634 3220 271 
Q 2806 -91 2034 -91 
Q 1263 -91 848 271 
Q 434 634 434 1313 
Q 434 1759 690 2068 
Q 947 2378 1403 2484 
z
M 1172 3481 
Q 1172 3119 1398 2916 
Q 1625 2713 2034 2713 
Q 2441 2713 2670 2916 
Q 2900 3119 2900 3481 
Q 2900 3844 2670 4047 
Q 2441 4250 2034 4250 
Q 1625 4250 1398 4047 
Q 1172 3844 1172 3481 
z
" id="DejaVuSans-38" transform="scale(0.015625)"/>
       </defs>
       <use xlink:href="#DejaVuSans-30"/>
       <use x="63.623047" xlink:href="#DejaVuSans-2e"/>
       <use x="95.410156" xlink:href="#DejaVuSans-38"/>
      </g>
     </g>
    </g>
    <g id="xtick_6">
     <g id="line2d_6">
      <g>
       <use style="stroke:#000000;stroke-width:0.8;" x="443.133088" xlink:href="#m2be30daab8" y="360.1296"/>
      </g>
     </g>
     <g id="text_6">
      <!-- 1.0 -->
      <g transform="translate(432.000901 377.767412)scale(0.14 -0.14)">
       <defs>
        <path d="M 794 531 
L 1825 531 
L 1825 4091 
L 703 3866 
L 703 4441 
L 1819 4666 
L 2450 4666 
L 2450 531 
L 3481 531 
L 3481 0 
L 794 0 
L 794 531 
z
" id="DejaVuSans-31" transform="scale(0.015625)"/>
       </defs>
       <use xlink:href="#DejaVuSans-31"/>
       <use x="63.623047" xlink:href="#DejaVuSans-2e"/>
       <use x="95.410156" xlink:href="#DejaVuSans-30"/>
      </g>
     </g>
    </g>
    <g id="text_7">
     <!-- Time (s) -->
     <g transform="translate(288.643943 395.316787)scale(0.14 -0.14)">
      <defs>
       <path d="M -19 4666 
L 3928 4666 
L 3928 4134 
L 2272 4134 
L 2272 0 
L 1638 0 
L 1638 4134 
L -19 4134 
L -19 4666 
z
" id="DejaVuSans-54" transform="scale(0.015625)"/>
       <path d="M 603 3500 
L 1178 3500 
L 1178 0 
L 603 0 
L 603 3500 
z
M 603 4863 
L 1178 4863 
L 1178 4134 
L 603 4134 
L 603 4863 
z
" id="DejaVuSans-69" transform="scale(0.015625)"/>
       <path d="M 3328 2828 
Q 3544 3216 3844 3400 
Q 4144 3584 4550 3584 
Q 5097 3584 5394 3201 
Q 5691 2819 5691 2113 
L 5691 0 
L 5113 0 
L 5113 2094 
Q 5113 2597 4934 2840 
Q 4756 3084 4391 3084 
Q 3944 3084 3684 2787 
Q 3425 2491 3425 1978 
L 3425 0 
L 2847 0 
L 2847 2094 
Q 2847 2600 2669 2842 
Q 2491 3084 2119 3084 
Q 1678 3084 1418 2786 
Q 1159 2488 1159 1978 
L 1159 0 
L 581 0 
L 581 3500 
L 1159 3500 
L 1159 2956 
Q 1356 3278 1631 3431 
Q 1906 3584 2284 3584 
Q 2666 3584 2933 3390 
Q 3200 3197 3328 2828 
z
" id="DejaVuSans-6d" transform="scale(0.015625)"/>
       <path d="M 3597 1894 
L 3597 1613 
L 953 1613 
Q 991 1019 1311 708 
Q 1631 397 2203 397 
Q 2534 397 2845 478 
Q 3156 559 3463 722 
L 3463 178 
Q 3153 47 2828 -22 
Q 2503 -91 2169 -91 
Q 1331 -91 842 396 
Q 353 884 353 1716 
Q 353 2575 817 3079 
Q 1281 3584 2069 3584 
Q 2775 3584 3186 3129 
Q 3597 2675 3597 1894 
z
M 3022 2063 
Q 3016 2534 2758 2815 
Q 2500 3097 2075 3097 
Q 1594 3097 1305 2825 
Q 1016 2553 972 2059 
L 3022 2063 
z
" id="DejaVuSans-65" transform="scale(0.015625)"/>
       <path id="DejaVuSans-20" transform="scale(0.015625)"/>
       <path d="M 1984 4856 
Q 1566 4138 1362 3434 
Q 1159 2731 1159 2009 
Q 1159 1288 1364 580 
Q 1569 -128 1984 -844 
L 1484 -844 
Q 1016 -109 783 600 
Q 550 1309 550 2009 
Q 550 2706 781 3412 
Q 1013 4119 1484 4856 
L 1984 4856 
z
" id="DejaVuSans-28" transform="scale(0.015625)"/>
       <path d="M 2834 3397 
L 2834 2853 
Q 2591 2978 2328 3040 
Q 2066 3103 1784 3103 
Q 1356 3103 1142 2972 
Q 928 2841 928 2578 
Q 928 2378 1081 2264 
Q 1234 2150 1697 2047 
L 1894 2003 
Q 2506 1872 2764 1633 
Q 3022 1394 3022 966 
Q 3022 478 2636 193 
Q 2250 -91 1575 -91 
Q 1294 -91 989 -36 
Q 684 19 347 128 
L 347 722 
Q 666 556 975 473 
Q 1284 391 1588 391 
Q 1994 391 2212 530 
Q 2431 669 2431 922 
Q 2431 1156 2273 1281 
Q 2116 1406 1581 1522 
L 1381 1569 
Q 847 1681 609 1914 
Q 372 2147 372 2553 
Q 372 3047 722 3315 
Q 1072 3584 1716 3584 
Q 2034 3584 2315 3537 
Q 2597 3491 2834 3397 
z
" id="DejaVuSans-73" transform="scale(0.015625)"/>
       <path d="M 513 4856 
L 1013 4856 
Q 1481 4119 1714 3412 
Q 1947 2706 1947 2009 
Q 1947 1309 1714 600 
Q 1481 -109 1013 -844 
L 513 -844 
Q 928 -128 1133 580 
Q 1338 1288 1338 2009 
Q 1338 2731 1133 3434 
Q 928 4138 513 4856 
z
" id="DejaVuSans-29" transform="scale(0.015625)"/>
      </defs>
      <use xlink:href="#DejaVuSans-54"/>
      <use x="57.958984" xlink:href="#DejaVuSans-69"/>
      <use x="85.742188" xlink:href="#DejaVuSans-6d"/>
      <use x="183.154297" xlink:href="#DejaVuSans-65"/>
      <use x="244.677734" xlink:href="#DejaVuSans-20"/>
      <use x="276.464844" xlink:href="#DejaVuSans-28"/>
      <use x="315.478516" xlink:href="#DejaVuSans-73"/>
      <use x="367.578125" xlink:href="#DejaVuSans-29"/>
     </g>
    </g>
   </g>
   <g id="matplotlib.axis_2">
    <g id="ytick_1">
     <g id="line2d_7">
      <defs>
       <path d="M 0 0 
L -3.5 0 
" id="m8cfe48a1e2" style="stroke:#000000;stroke-width:0.8;"/>
      </defs>
      <g>
       <use style="stroke:#000000;stroke-width:0.8;" x="165.87" xlink:href="#m8cfe48a1e2" y="323.148057"/>
      </g>
     </g>
     <g id="text_8">
      <!-- −65 -->
      <g transform="translate(129.323438 328.466964)scale(0.14 -0.14)">
       <defs>
        <path d="M 678 2272 
L 4684 2272 
L 4684 1741 
L 678 1741 
L 678 2272 
z
" id="DejaVuSans-2212" transform="scale(0.015625)"/>
        <path d="M 691 4666 
L 3169 4666 
L 3169 4134 
L 1269 4134 
L 1269 2991 
Q 1406 3038 1543 3061 
Q 1681 3084 1819 3084 
Q 2600 3084 3056 2656 
Q 3513 2228 3513 1497 
Q 3513 744 3044 326 
Q 2575 -91 1722 -91 
Q 1428 -91 1123 -41 
Q 819 9 494 109 
L 494 744 
Q 775 591 1075 516 
Q 1375 441 1709 441 
Q 2250 441 2565 725 
Q 2881 1009 2881 1497 
Q 2881 1984 2565 2268 
Q 2250 2553 1709 2553 
Q 1456 2553 1204 2497 
Q 953 2441 691 2322 
L 691 4666 
z
" id="DejaVuSans-35" transform="scale(0.015625)"/>
       </defs>
       <use xlink:href="#DejaVuSans-2212"/>
       <use x="83.789062" xlink:href="#DejaVuSans-36"/>
       <use x="147.412109" xlink:href="#DejaVuSans-35"/>
      </g>
     </g>
    </g>
    <g id="ytick_2">
     <g id="line2d_8">
      <g>
       <use style="stroke:#000000;stroke-width:0.8;" x="165.87" xlink:href="#m8cfe48a1e2" y="275.146631"/>
      </g>
     </g>
     <g id="text_9">
      <!-- −60 -->
      <g transform="translate(129.323438 280.465537)scale(0.14 -0.14)">
       <use xlink:href="#DejaVuSans-2212"/>
       <use x="83.789062" xlink:href="#DejaVuSans-36"/>
       <use x="147.412109" xlink:href="#DejaVuSans-30"/>
      </g>
     </g>
    </g>
    <g id="ytick_3">
     <g id="line2d_9">
      <g>
       <use style="stroke:#000000;stroke-width:0.8;" x="165.87" xlink:href="#m8cfe48a1e2" y="227.145205"/>
      </g>
     </g>
     <g id="text_10">
      <!-- −55 -->
      <g transform="translate(129.323438 232.464111)scale(0.14 -0.14)">
       <use xlink:href="#DejaVuSans-2212"/>
       <use x="83.789062" xlink:href="#DejaVuSans-35"/>
       <use x="147.412109" xlink:href="#DejaVuSans-35"/>
      </g>
     </g>
    </g>
    <g id="ytick_4">
     <g id="line2d_10">
      <g>
       <use style="stroke:#000000;stroke-width:0.8;" x="165.87" xlink:href="#m8cfe48a1e2" y="179.143779"/>
      </g>
     </g>
     <g id="text_11">
      <!-- −50 -->
      <g transform="translate(129.323438 184.462685)scale(0.14 -0.14)">
       <use xlink:href="#DejaVuSans-2212"/>
       <use x="83.789062" xlink:href="#DejaVuSans-35"/>
       <use x="147.412109" xlink:href="#DejaVuSans-30"/>
      </g>
     </g>
    </g>
    <g id="ytick_5">
     <g id="line2d_11">
      <g>
       <use style="stroke:#000000;stroke-width:0.8;" x="165.87" xlink:href="#m8cfe48a1e2" y="131.142353"/>
      </g>
     </g>
     <g id="text_12">
      <!-- −45 -->
      <g transform="translate(129.323438 136.461259)scale(0.14 -0.14)">
       <use xlink:href="#DejaVuSans-2212"/>
       <use x="83.789062" xlink:href="#DejaVuSans-34"/>
       <use x="147.412109" xlink:href="#DejaVuSans-35"/>
      </g>
     </g>
    </g>
    <g id="ytick_6">
     <g id="line2d_12">
      <g>
       <use style="stroke:#000000;stroke-width:0.8;" x="165.87" xlink:href="#m8cfe48a1e2" y="83.140927"/>
      </g>
     </g>
     <g id="text_13">
      <!-- −40 -->
      <g transform="translate(129.323438 88.459833)scale(0.14 -0.14)">
       <use xlink:href="#DejaVuSans-2212"/>
       <use x="83.789062" xlink:href="#DejaVuSans-34"/>
       <use x="147.412109" xlink:href="#DejaVuSans-30"/>
      </g>
     </g>
    </g>
    <g id="text_14">
     <!-- Torque in y (Nmm) -->
     <g transform="translate(122.411875 269.188356)rotate(-90)scale(0.14 -0.14)">
      <defs>
       <path d="M 1959 3097 
Q 1497 3097 1228 2736 
Q 959 2375 959 1747 
Q 959 1119 1226 758 
Q 1494 397 1959 397 
Q 2419 397 2687 759 
Q 2956 1122 2956 1747 
Q 2956 2369 2687 2733 
Q 2419 3097 1959 3097 
z
M 1959 3584 
Q 2709 3584 3137 3096 
Q 3566 2609 3566 1747 
Q 3566 888 3137 398 
Q 2709 -91 1959 -91 
Q 1206 -91 779 398 
Q 353 888 353 1747 
Q 353 2609 779 3096 
Q 1206 3584 1959 3584 
z
" id="DejaVuSans-6f" transform="scale(0.015625)"/>
       <path d="M 2631 2963 
Q 2534 3019 2420 3045 
Q 2306 3072 2169 3072 
Q 1681 3072 1420 2755 
Q 1159 2438 1159 1844 
L 1159 0 
L 581 0 
L 581 3500 
L 1159 3500 
L 1159 2956 
Q 1341 3275 1631 3429 
Q 1922 3584 2338 3584 
Q 2397 3584 2469 3576 
Q 2541 3569 2628 3553 
L 2631 2963 
z
" id="DejaVuSans-72" transform="scale(0.015625)"/>
       <path d="M 947 1747 
Q 947 1113 1208 752 
Q 1469 391 1925 391 
Q 2381 391 2643 752 
Q 2906 1113 2906 1747 
Q 2906 2381 2643 2742 
Q 2381 3103 1925 3103 
Q 1469 3103 1208 2742 
Q 947 2381 947 1747 
z
M 2906 525 
Q 2725 213 2448 61 
Q 2172 -91 1784 -91 
Q 1150 -91 751 415 
Q 353 922 353 1747 
Q 353 2572 751 3078 
Q 1150 3584 1784 3584 
Q 2172 3584 2448 3432 
Q 2725 3281 2906 2969 
L 2906 3500 
L 3481 3500 
L 3481 -1331 
L 2906 -1331 
L 2906 525 
z
" id="DejaVuSans-71" transform="scale(0.015625)"/>
       <path d="M 544 1381 
L 544 3500 
L 1119 3500 
L 1119 1403 
Q 1119 906 1312 657 
Q 1506 409 1894 409 
Q 2359 409 2629 706 
Q 2900 1003 2900 1516 
L 2900 3500 
L 3475 3500 
L 3475 0 
L 2900 0 
L 2900 538 
Q 2691 219 2414 64 
Q 2138 -91 1772 -91 
Q 1169 -91 856 284 
Q 544 659 544 1381 
z
M 1991 3584 
L 1991 3584 
z
" id="DejaVuSans-75" transform="scale(0.015625)"/>
       <path d="M 3513 2113 
L 3513 0 
L 2938 0 
L 2938 2094 
Q 2938 2591 2744 2837 
Q 2550 3084 2163 3084 
Q 1697 3084 1428 2787 
Q 1159 2491 1159 1978 
L 1159 0 
L 581 0 
L 581 3500 
L 1159 3500 
L 1159 2956 
Q 1366 3272 1645 3428 
Q 1925 3584 2291 3584 
Q 2894 3584 3203 3211 
Q 3513 2838 3513 2113 
z
" id="DejaVuSans-6e" transform="scale(0.015625)"/>
       <path d="M 2059 -325 
Q 1816 -950 1584 -1140 
Q 1353 -1331 966 -1331 
L 506 -1331 
L 506 -850 
L 844 -850 
Q 1081 -850 1212 -737 
Q 1344 -625 1503 -206 
L 1606 56 
L 191 3500 
L 800 3500 
L 1894 763 
L 2988 3500 
L 3597 3500 
L 2059 -325 
z
" id="DejaVuSans-79" transform="scale(0.015625)"/>
       <path d="M 628 4666 
L 1478 4666 
L 3547 763 
L 3547 4666 
L 4159 4666 
L 4159 0 
L 3309 0 
L 1241 3903 
L 1241 0 
L 628 0 
L 628 4666 
z
" id="DejaVuSans-4e" transform="scale(0.015625)"/>
      </defs>
      <use xlink:href="#DejaVuSans-54"/>
      <use x="44.083984" xlink:href="#DejaVuSans-6f"/>
      <use x="105.265625" xlink:href="#DejaVuSans-72"/>
      <use x="144.628906" xlink:href="#DejaVuSans-71"/>
      <use x="208.105469" xlink:href="#DejaVuSans-75"/>
      <use x="271.484375" xlink:href="#DejaVuSans-65"/>
      <use x="333.007812" xlink:href="#DejaVuSans-20"/>
      <use x="364.794922" xlink:href="#DejaVuSans-69"/>
      <use x="392.578125" xlink:href="#DejaVuSans-6e"/>
      <use x="455.957031" xlink:href="#DejaVuSans-20"/>
      <use x="487.744141" xlink:href="#DejaVuSans-79"/>
      <use x="546.923828" xlink:href="#DejaVuSans-20"/>
      <use x="578.710938" xlink:href="#DejaVuSans-28"/>
      <use x="617.724609" xlink:href="#DejaVuSans-4e"/>
      <use x="692.529297" xlink:href="#DejaVuSans-6d"/>
      <use x="789.941406" xlink:href="#DejaVuSans-6d"/>
      <use x="887.353516" xlink:href="#DejaVuSans-29"/>
     </g>
    </g>
   </g>
   <g id="line2d_13">
    <path clip-path="url(#p87c1ff8dd3)" d="M 191.075735 62.7192 
L 193.596309 67.558505 
L 196.116882 77.945485 
L 198.637456 91.519028 
L 201.158029 106.93699 
L 203.678603 123.034525 
L 206.199176 138.754793 
L 208.71975 153.385599 
L 211.240324 166.725618 
L 213.760897 178.775005 
L 216.281471 189.681194 
L 218.802044 199.733208 
L 221.322618 208.939673 
L 223.843191 217.509367 
L 226.363765 225.481766 
L 228.884338 232.792851 
L 231.404912 239.687455 
L 233.925485 245.927746 
L 236.446059 251.857613 
L 238.966632 257.182567 
L 241.487206 262.354648 
L 244.007779 266.919465 
L 246.528353 271.538329 
L 249.048926 275.614071 
L 251.5695 279.62505 
L 254.090074 283.551362 
L 256.610647 286.769827 
L 259.131221 290.325577 
L 261.651794 293.607603 
L 264.172368 296.009045 
L 266.692941 298.555182 
L 269.213515 301.639209 
L 271.734088 303.973402 
L 274.254662 305.427464 
L 276.775235 306.660413 
L 279.295809 308.711565 
L 281.816382 311.750856 
L 284.336956 313.679623 
L 286.857529 314.437083 
L 289.378103 315.198222 
L 291.898676 316.481955 
L 294.41925 318.777314 
L 296.939824 321.256783 
L 299.460397 322.217818 
L 301.980971 322.549051 
L 304.501544 323.434384 
L 307.022118 324.710664 
L 309.542691 325.722762 
L 312.063265 326.429283 
L 314.583838 327.17264 
L 317.104412 328.032693 
L 319.624985 328.842137 
L 322.145559 329.540258 
L 324.666132 330.210247 
L 327.186706 330.892171 
L 329.707279 331.546414 
L 332.227853 332.151905 
L 334.748426 332.730425 
L 337.269 333.294653 
L 339.789574 333.834707 
L 342.310147 334.346004 
L 344.830721 334.835596 
L 347.351294 335.307039 
L 349.871868 335.760531 
L 352.392441 336.204746 
L 354.913015 336.633779 
L 357.433588 337.041259 
L 359.954162 337.431918 
L 362.474735 337.809541 
L 364.995309 338.172349 
L 367.515882 338.519888 
L 370.036456 338.854356 
L 372.557029 339.176745 
L 375.077603 339.486875 
L 377.598176 339.785384 
L 380.11875 340.073272 
L 382.639324 340.350978 
L 385.159897 340.618847 
L 387.680471 340.877486 
L 390.201044 341.127422 
L 392.721618 341.369021 
L 395.242191 341.602697 
L 397.762765 341.82888 
L 400.283338 342.047929 
L 402.803912 342.260216 
L 405.324485 342.466105 
L 407.845059 342.665873 
L 410.365632 342.85979 
L 412.886206 343.048145 
L 415.406779 343.231186 
L 417.927353 343.409139 
L 420.447926 343.582234 
L 422.9685 343.750684 
L 425.489074 343.914686 
L 428.009647 344.074428 
L 430.530221 344.230092 
L 433.050794 344.381845 
L 435.571368 344.529847 
L 438.091941 344.674249 
L 440.612515 344.815195 
L 443.133088 344.952821 
" style="fill:none;stroke:#ff0000;stroke-linecap:square;stroke-width:1.5;"/>
   </g>
   <g id="line2d_14">
    <path clip-path="url(#p87c1ff8dd3)" d="M 191.075735 62.7192 
L 193.596309 67.529489 
L 196.116882 77.931074 
L 198.637456 91.500467 
L 201.158029 106.920337 
L 203.678603 123.018076 
L 206.199176 138.743243 
L 208.71975 153.389574 
L 211.240324 166.724773 
L 213.760897 178.772802 
L 216.281471 189.696871 
L 218.802044 199.750004 
L 221.322618 208.97014 
L 223.843191 217.551792 
L 226.363765 225.525108 
L 228.884338 232.862571 
L 231.404912 239.764269 
L 233.925485 246.020437 
L 236.446059 251.97797 
L 238.966632 257.318048 
L 241.487206 262.513057 
L 244.007779 267.092717 
L 246.528353 271.726891 
L 249.048926 275.836114 
L 251.5695 279.851727 
L 254.090074 283.806965 
L 256.610647 287.048801 
L 259.131221 290.618996 
L 261.651794 293.926367 
L 264.172368 296.344742 
L 266.692941 298.901897 
L 269.213515 302.012812 
L 271.734088 304.366197 
L 274.254662 305.828966 
L 276.775235 307.071411 
L 279.295809 309.133365 
L 281.816382 312.203762 
L 284.336956 314.151791 
L 286.857529 314.916286 
L 289.378103 315.670982 
L 291.898676 316.976109 
L 294.41925 319.289962 
L 296.939824 321.798983 
L 299.460397 322.765755 
L 301.980971 323.090559 
L 304.501544 323.987202 
L 307.022118 325.285527 
L 309.542691 326.305617 
L 312.063265 327.015051 
L 314.583838 327.770171 
L 317.104412 328.638311 
L 319.624985 329.462014 
L 322.145559 330.171494 
L 324.666132 330.850904 
L 327.186706 331.539301 
L 329.707279 332.205641 
L 332.227853 332.818906 
L 334.748426 333.406036 
L 337.269 333.984776 
L 339.789574 334.53985 
L 342.310147 335.059851 
L 344.830721 335.545438 
L 347.351294 336.037738 
L 349.871868 336.508069 
L 352.392441 336.950108 
L 354.913015 337.394206 
L 357.433588 337.809719 
L 359.954162 338.213011 
L 362.474735 338.593576 
L 364.995309 338.970556 
L 367.515882 339.321759 
L 370.036456 339.672263 
L 372.557029 339.999507 
L 375.077603 340.319865 
L 377.598176 340.621626 
L 380.11875 340.917999 
L 382.639324 341.20455 
L 385.159897 341.480065 
L 387.680471 341.746199 
L 390.201044 342.006204 
L 392.721618 342.258701 
L 395.242191 342.499732 
L 397.762765 342.73335 
L 400.283338 342.957671 
L 402.803912 343.175517 
L 405.324485 343.387526 
L 407.845059 343.593365 
L 410.365632 343.795649 
L 412.886206 343.990301 
L 415.406779 344.178278 
L 417.927353 344.363596 
L 420.447926 344.543297 
L 422.9685 344.716649 
L 425.489074 344.888797 
L 428.009647 345.055037 
L 430.530221 345.214932 
L 433.050794 345.373768 
L 435.571368 345.528265 
L 438.091941 345.677902 
L 440.612515 345.829324 
L 443.133088 345.9672 
" style="fill:none;stroke:#008000;stroke-linecap:square;stroke-width:1.5;"/>
   </g>
   <g id="patch_3">
    <path d="M 165.87 360.1296 
L 165.87 48.5568 
" style="fill:none;stroke:#000000;stroke-linecap:square;stroke-linejoin:miter;stroke-width:0.8;"/>
   </g>
   <g id="patch_4">
    <path d="M 468.338824 360.1296 
L 468.338824 48.5568 
" style="fill:none;stroke:#000000;stroke-linecap:square;stroke-linejoin:miter;stroke-width:0.8;"/>
   </g>
   <g id="patch_5">
    <path d="M 165.87 360.1296 
L 468.338824 360.1296 
" style="fill:none;stroke:#000000;stroke-linecap:square;stroke-linejoin:miter;stroke-width:0.8;"/>
   </g>
   <g id="patch_6">
    <path d="M 165.87 48.5568 
L 468.338824 48.5568 
" style="fill:none;stroke:#000000;stroke-linecap:square;stroke-linejoin:miter;stroke-width:0.8;"/>
   </g>
   <g id="text_15">
    <!-- Torque for f=100 -->
    <g transform="translate(246.212349 42.5568)scale(0.168 -0.168)">
     <defs>
      <path d="M 2375 4863 
L 2375 4384 
L 1825 4384 
Q 1516 4384 1395 4259 
Q 1275 4134 1275 3809 
L 1275 3500 
L 2222 3500 
L 2222 3053 
L 1275 3053 
L 1275 0 
L 697 0 
L 697 3053 
L 147 3053 
L 147 3500 
L 697 3500 
L 697 3744 
Q 697 4328 969 4595 
Q 1241 4863 1831 4863 
L 2375 4863 
z
" id="DejaVuSans-66" transform="scale(0.015625)"/>
      <path d="M 678 2906 
L 4684 2906 
L 4684 2381 
L 678 2381 
L 678 2906 
z
M 678 1631 
L 4684 1631 
L 4684 1100 
L 678 1100 
L 678 1631 
z
" id="DejaVuSans-3d" transform="scale(0.015625)"/>
     </defs>
     <use xlink:href="#DejaVuSans-54"/>
     <use x="44.083984" xlink:href="#DejaVuSans-6f"/>
     <use x="105.265625" xlink:href="#DejaVuSans-72"/>
     <use x="144.628906" xlink:href="#DejaVuSans-71"/>
     <use x="208.105469" xlink:href="#DejaVuSans-75"/>
     <use x="271.484375" xlink:href="#DejaVuSans-65"/>
     <use x="333.007812" xlink:href="#DejaVuSans-20"/>
     <use x="364.794922" xlink:href="#DejaVuSans-66"/>
     <use x="400" xlink:href="#DejaVuSans-6f"/>
     <use x="461.181641" xlink:href="#DejaVuSans-72"/>
     <use x="502.294922" xlink:href="#DejaVuSans-20"/>
     <use x="534.082031" xlink:href="#DejaVuSans-66"/>
     <use x="569.287109" xlink:href="#DejaVuSans-3d"/>
     <use x="653.076172" xlink:href="#DejaVuSans-31"/>
     <use x="716.699219" xlink:href="#DejaVuSans-30"/>
     <use x="780.322266" xlink:href="#DejaVuSans-30"/>
    </g>
   </g>
  </g>
  <g id="axes_2">
   <g id="patch_7">
    <path d="M 528.832588 360.1296 
L 831.301412 360.1296 
L 831.301412 48.5568 
L 528.832588 48.5568 
z
" style="fill:#ffffff;"/>
   </g>
   <g id="matplotlib.axis_3">
    <g id="xtick_7">
     <g id="line2d_15">
      <g>
       <use style="stroke:#000000;stroke-width:0.8;" x="536.299566" xlink:href="#m2be30daab8" y="360.1296"/>
      </g>
     </g>
     <g id="text_16">
      <!-- 0.0 -->
      <g transform="translate(525.167379 377.767412)scale(0.14 -0.14)">
       <use xlink:href="#DejaVuSans-30"/>
       <use x="63.623047" xlink:href="#DejaVuSans-2e"/>
       <use x="95.410156" xlink:href="#DejaVuSans-30"/>
      </g>
     </g>
    </g>
    <g id="xtick_8">
     <g id="line2d_16">
      <g>
       <use style="stroke:#000000;stroke-width:0.8;" x="593.80654" xlink:href="#m2be30daab8" y="360.1296"/>
      </g>
     </g>
     <g id="text_17">
      <!-- 0.2 -->
      <g transform="translate(582.674352 377.767412)scale(0.14 -0.14)">
       <use xlink:href="#DejaVuSans-30"/>
       <use x="63.623047" xlink:href="#DejaVuSans-2e"/>
       <use x="95.410156" xlink:href="#DejaVuSans-32"/>
      </g>
     </g>
    </g>
    <g id="xtick_9">
     <g id="line2d_17">
      <g>
       <use style="stroke:#000000;stroke-width:0.8;" x="651.313513" xlink:href="#m2be30daab8" y="360.1296"/>
      </g>
     </g>
     <g id="text_18">
      <!-- 0.4 -->
      <g transform="translate(640.181326 377.767412)scale(0.14 -0.14)">
       <use xlink:href="#DejaVuSans-30"/>
       <use x="63.623047" xlink:href="#DejaVuSans-2e"/>
       <use x="95.410156" xlink:href="#DejaVuSans-34"/>
      </g>
     </g>
    </g>
    <g id="xtick_10">
     <g id="line2d_18">
      <g>
       <use style="stroke:#000000;stroke-width:0.8;" x="708.820487" xlink:href="#m2be30daab8" y="360.1296"/>
      </g>
     </g>
     <g id="text_19">
      <!-- 0.6 -->
      <g transform="translate(697.688299 377.767412)scale(0.14 -0.14)">
       <use xlink:href="#DejaVuSans-30"/>
       <use x="63.623047" xlink:href="#DejaVuSans-2e"/>
       <use x="95.410156" xlink:href="#DejaVuSans-36"/>
      </g>
     </g>
    </g>
    <g id="xtick_11">
     <g id="line2d_19">
      <g>
       <use style="stroke:#000000;stroke-width:0.8;" x="766.32746" xlink:href="#m2be30daab8" y="360.1296"/>
      </g>
     </g>
     <g id="text_20">
      <!-- 0.8 -->
      <g transform="translate(755.195273 377.767412)scale(0.14 -0.14)">
       <use xlink:href="#DejaVuSans-30"/>
       <use x="63.623047" xlink:href="#DejaVuSans-2e"/>
       <use x="95.410156" xlink:href="#DejaVuSans-38"/>
      </g>
     </g>
    </g>
    <g id="xtick_12">
     <g id="line2d_20">
      <g>
       <use style="stroke:#000000;stroke-width:0.8;" x="823.834434" xlink:href="#m2be30daab8" y="360.1296"/>
      </g>
     </g>
     <g id="text_21">
      <!-- 1.0 -->
      <g transform="translate(812.702246 377.767412)scale(0.14 -0.14)">
       <use xlink:href="#DejaVuSans-31"/>
       <use x="63.623047" xlink:href="#DejaVuSans-2e"/>
       <use x="95.410156" xlink:href="#DejaVuSans-30"/>
      </g>
     </g>
    </g>
    <g id="text_22">
     <!-- Time (s) -->
     <g transform="translate(651.606531 395.316787)scale(0.14 -0.14)">
      <use xlink:href="#DejaVuSans-54"/>
      <use x="57.958984" xlink:href="#DejaVuSans-69"/>
      <use x="85.742188" xlink:href="#DejaVuSans-6d"/>
      <use x="183.154297" xlink:href="#DejaVuSans-65"/>
      <use x="244.677734" xlink:href="#DejaVuSans-20"/>
      <use x="276.464844" xlink:href="#DejaVuSans-28"/>
      <use x="315.478516" xlink:href="#DejaVuSans-73"/>
      <use x="367.578125" xlink:href="#DejaVuSans-29"/>
     </g>
    </g>
   </g>
   <g id="matplotlib.axis_4">
    <g id="ytick_7">
     <g id="line2d_21">
      <g>
       <use style="stroke:#000000;stroke-width:0.8;" x="528.832588" xlink:href="#m8cfe48a1e2" y="321.592545"/>
      </g>
     </g>
     <g id="text_23">
      <!-- 79.0 -->
      <g transform="translate(490.660713 326.911451)scale(0.14 -0.14)">
       <defs>
        <path d="M 525 4666 
L 3525 4666 
L 3525 4397 
L 1831 0 
L 1172 0 
L 2766 4134 
L 525 4134 
L 525 4666 
z
" id="DejaVuSans-37" transform="scale(0.015625)"/>
        <path d="M 703 97 
L 703 672 
Q 941 559 1184 500 
Q 1428 441 1663 441 
Q 2288 441 2617 861 
Q 2947 1281 2994 2138 
Q 2813 1869 2534 1725 
Q 2256 1581 1919 1581 
Q 1219 1581 811 2004 
Q 403 2428 403 3163 
Q 403 3881 828 4315 
Q 1253 4750 1959 4750 
Q 2769 4750 3195 4129 
Q 3622 3509 3622 2328 
Q 3622 1225 3098 567 
Q 2575 -91 1691 -91 
Q 1453 -91 1209 -44 
Q 966 3 703 97 
z
M 1959 2075 
Q 2384 2075 2632 2365 
Q 2881 2656 2881 3163 
Q 2881 3666 2632 3958 
Q 2384 4250 1959 4250 
Q 1534 4250 1286 3958 
Q 1038 3666 1038 3163 
Q 1038 2656 1286 2365 
Q 1534 2075 1959 2075 
z
" id="DejaVuSans-39" transform="scale(0.015625)"/>
       </defs>
       <use xlink:href="#DejaVuSans-37"/>
       <use x="63.623047" xlink:href="#DejaVuSans-39"/>
       <use x="127.246094" xlink:href="#DejaVuSans-2e"/>
       <use x="159.033203" xlink:href="#DejaVuSans-30"/>
      </g>
     </g>
    </g>
    <g id="ytick_8">
     <g id="line2d_22">
      <g>
       <use style="stroke:#000000;stroke-width:0.8;" x="528.832588" xlink:href="#m8cfe48a1e2" y="264.187716"/>
      </g>
     </g>
     <g id="text_24">
      <!-- 79.2 -->
      <g transform="translate(490.660713 269.506622)scale(0.14 -0.14)">
       <use xlink:href="#DejaVuSans-37"/>
       <use x="63.623047" xlink:href="#DejaVuSans-39"/>
       <use x="127.246094" xlink:href="#DejaVuSans-2e"/>
       <use x="159.033203" xlink:href="#DejaVuSans-32"/>
      </g>
     </g>
    </g>
    <g id="ytick_9">
     <g id="line2d_23">
      <g>
       <use style="stroke:#000000;stroke-width:0.8;" x="528.832588" xlink:href="#m8cfe48a1e2" y="206.782886"/>
      </g>
     </g>
     <g id="text_25">
      <!-- 79.4 -->
      <g transform="translate(490.660713 212.101792)scale(0.14 -0.14)">
       <use xlink:href="#DejaVuSans-37"/>
       <use x="63.623047" xlink:href="#DejaVuSans-39"/>
       <use x="127.246094" xlink:href="#DejaVuSans-2e"/>
       <use x="159.033203" xlink:href="#DejaVuSans-34"/>
      </g>
     </g>
    </g>
    <g id="ytick_10">
     <g id="line2d_24">
      <g>
       <use style="stroke:#000000;stroke-width:0.8;" x="528.832588" xlink:href="#m8cfe48a1e2" y="149.378056"/>
      </g>
     </g>
     <g id="text_26">
      <!-- 79.6 -->
      <g transform="translate(490.660713 154.696963)scale(0.14 -0.14)">
       <use xlink:href="#DejaVuSans-37"/>
       <use x="63.623047" xlink:href="#DejaVuSans-39"/>
       <use x="127.246094" xlink:href="#DejaVuSans-2e"/>
       <use x="159.033203" xlink:href="#DejaVuSans-36"/>
      </g>
     </g>
    </g>
    <g id="ytick_11">
     <g id="line2d_25">
      <g>
       <use style="stroke:#000000;stroke-width:0.8;" x="528.832588" xlink:href="#m8cfe48a1e2" y="91.973227"/>
      </g>
     </g>
     <g id="text_27">
      <!-- 79.8 -->
      <g transform="translate(490.660713 97.292133)scale(0.14 -0.14)">
       <use xlink:href="#DejaVuSans-37"/>
       <use x="63.623047" xlink:href="#DejaVuSans-39"/>
       <use x="127.246094" xlink:href="#DejaVuSans-2e"/>
       <use x="159.033203" xlink:href="#DejaVuSans-38"/>
      </g>
     </g>
    </g>
    <g id="text_28">
     <!-- Torque in z (Nmm) -->
     <g transform="translate(483.749151 268.719138)rotate(-90)scale(0.14 -0.14)">
      <defs>
       <path d="M 353 3500 
L 3084 3500 
L 3084 2975 
L 922 459 
L 3084 459 
L 3084 0 
L 275 0 
L 275 525 
L 2438 3041 
L 353 3041 
L 353 3500 
z
" id="DejaVuSans-7a" transform="scale(0.015625)"/>
      </defs>
      <use xlink:href="#DejaVuSans-54"/>
      <use x="44.083984" xlink:href="#DejaVuSans-6f"/>
      <use x="105.265625" xlink:href="#DejaVuSans-72"/>
      <use x="144.628906" xlink:href="#DejaVuSans-71"/>
      <use x="208.105469" xlink:href="#DejaVuSans-75"/>
      <use x="271.484375" xlink:href="#DejaVuSans-65"/>
      <use x="333.007812" xlink:href="#DejaVuSans-20"/>
      <use x="364.794922" xlink:href="#DejaVuSans-69"/>
      <use x="392.578125" xlink:href="#DejaVuSans-6e"/>
      <use x="455.957031" xlink:href="#DejaVuSans-20"/>
      <use x="487.744141" xlink:href="#DejaVuSans-7a"/>
      <use x="540.234375" xlink:href="#DejaVuSans-20"/>
      <use x="572.021484" xlink:href="#DejaVuSans-28"/>
      <use x="611.035156" xlink:href="#DejaVuSans-4e"/>
      <use x="685.839844" xlink:href="#DejaVuSans-6d"/>
      <use x="783.251953" xlink:href="#DejaVuSans-6d"/>
      <use x="880.664062" xlink:href="#DejaVuSans-29"/>
     </g>
    </g>
   </g>
   <g id="line2d_26">
    <path clip-path="url(#pb868bcd3b8)" d="M 536.299566 204.343181 
L 539.174915 204.343186 
L 542.050264 204.343205 
L 544.925612 204.343219 
L 547.800961 204.343208 
L 550.67631 204.343187 
L 553.551658 204.343181 
L 556.427007 204.343182 
L 559.302356 204.343181 
L 562.177704 204.343183 
L 565.053053 204.343183 
L 567.928402 204.343186 
L 570.80375 204.343197 
L 573.679099 204.343192 
L 576.554448 204.343186 
L 579.429796 204.343183 
L 582.305145 204.343184 
L 585.180494 204.343182 
L 588.055842 204.343182 
L 590.931191 204.343182 
L 593.80654 204.343182 
L 596.681889 204.343182 
L 599.557237 204.343182 
L 602.432586 204.343182 
L 605.307935 204.343182 
L 608.183283 204.343182 
L 611.058632 204.343187 
L 613.933981 204.343187 
L 616.809329 204.343182 
L 619.684678 204.343182 
L 622.560027 204.343182 
L 625.435375 204.343182 
L 628.310724 204.343182 
L 631.186073 204.343183 
L 634.061421 204.343182 
L 636.93677 204.343184 
L 639.812119 204.343183 
L 642.687467 204.343183 
L 645.562816 204.343183 
L 648.438165 204.343182 
L 651.313513 204.343182 
L 654.188862 204.343204 
L 657.064211 204.343182 
L 659.939559 204.343187 
L 662.814908 204.343182 
L 665.690257 204.343182 
L 668.565605 204.343182 
L 671.440954 204.343182 
L 674.316303 204.343182 
L 677.191651 204.343182 
L 680.067 204.343182 
L 682.942349 204.343182 
L 685.817697 204.343182 
L 688.693046 204.343182 
L 691.568395 204.343182 
L 694.443743 204.343182 
L 697.319092 204.343182 
L 700.194441 204.343182 
L 703.069789 204.343182 
L 705.945138 204.343182 
L 708.820487 204.343182 
L 711.695835 204.343182 
L 714.571184 204.343182 
L 717.446533 204.343182 
L 720.321881 204.343182 
L 723.19723 204.343182 
L 726.072579 204.343182 
L 728.947927 204.343182 
L 731.823276 204.343182 
L 734.698625 204.343182 
L 737.573973 204.343182 
L 740.449322 204.343182 
L 743.324671 204.343182 
L 746.200019 204.343182 
L 749.075368 204.343182 
L 751.950717 204.343182 
L 754.826065 204.343182 
L 757.701414 204.343182 
L 760.576763 204.343182 
L 763.452111 204.343182 
L 766.32746 204.343182 
L 769.202809 204.343182 
L 772.078158 204.343182 
L 774.953506 204.343182 
L 777.828855 204.343182 
L 780.704204 204.343182 
L 783.579552 204.343182 
L 786.454901 204.343182 
L 789.33025 204.343182 
L 792.205598 204.343182 
L 795.080947 204.343182 
L 797.956296 204.343182 
L 800.831644 204.343182 
L 803.706993 204.343182 
L 806.582342 204.343182 
L 809.45769 204.343182 
L 812.333039 204.343182 
L 815.208388 204.343182 
L 818.083736 204.343182 
L 820.959085 204.343182 
L 823.834434 204.343182 
" style="fill:none;stroke:#ff0000;stroke-linecap:square;stroke-width:1.5;"/>
   </g>
   <g id="line2d_27">
    <path clip-path="url(#pb868bcd3b8)" d="M 536.299566 204.343181 
L 539.174915 204.343182 
L 542.050264 204.343183 
L 544.925612 204.343185 
L 547.800961 204.343185 
L 550.67631 204.343184 
L 553.551658 204.343182 
L 556.427007 204.343183 
L 559.302356 204.343185 
L 562.177704 204.343184 
L 565.053053 204.343182 
L 567.928402 204.343181 
L 570.80375 204.343188 
L 573.679099 204.343182 
L 576.554448 204.343183 
L 579.429796 204.343184 
L 582.305145 204.343185 
L 585.180494 204.343185 
L 588.055842 204.343188 
L 590.931191 204.343186 
L 593.80654 204.343185 
L 596.681889 204.343186 
L 599.557237 204.343188 
L 602.432586 204.343185 
L 605.307935 204.343186 
L 608.183283 204.343184 
L 611.058632 204.343182 
L 613.933981 204.343182 
L 616.809329 204.343183 
L 619.684678 204.343186 
L 622.560027 204.343184 
L 625.435375 204.343184 
L 628.310724 204.343183 
L 631.186073 204.343187 
L 634.061421 204.343184 
L 636.93677 204.343198 
L 639.812119 204.343191 
L 642.687467 204.343182 
L 645.562816 204.343181 
L 648.438165 204.343183 
L 651.313513 204.343185 
L 654.188862 204.34319 
L 657.064211 204.343188 
L 659.939559 204.343181 
L 662.814908 204.343182 
L 665.690257 204.343191 
L 668.565605 204.343183 
L 671.440954 204.343182 
L 674.316303 204.343181 
L 677.191651 204.343181 
L 680.067 204.343181 
L 682.942349 204.343182 
L 685.817697 204.343182 
L 688.693046 204.343182 
L 691.568395 204.343182 
L 694.443743 204.343181 
L 697.319092 204.343181 
L 700.194441 204.343182 
L 703.069789 204.343182 
L 705.945138 204.343182 
L 708.820487 204.343182 
L 711.695835 204.343181 
L 714.571184 204.343182 
L 717.446533 204.343182 
L 720.321881 204.343182 
L 723.19723 204.343182 
L 726.072579 204.343182 
L 728.947927 204.343182 
L 731.823276 204.343181 
L 734.698625 204.343182 
L 737.573973 204.343181 
L 740.449322 204.343181 
L 743.324671 204.343181 
L 746.200019 204.343181 
L 749.075368 204.343181 
L 751.950717 204.343181 
L 754.826065 204.343181 
L 757.701414 204.343181 
L 760.576763 204.343181 
L 763.452111 204.343181 
L 766.32746 204.343181 
L 769.202809 204.343181 
L 772.078158 204.343181 
L 774.953506 204.343181 
L 777.828855 204.343181 
L 780.704204 204.343181 
L 783.579552 204.343181 
L 786.454901 204.343182 
L 789.33025 204.343181 
L 792.205598 204.343181 
L 795.080947 204.343181 
L 797.956296 204.343181 
L 800.831644 204.343181 
L 803.706993 204.343181 
L 806.582342 204.343181 
L 809.45769 204.343181 
L 812.333039 204.343181 
L 815.208388 204.343181 
L 818.083736 204.343181 
L 820.959085 204.343181 
L 823.834434 204.343181 
" style="fill:none;stroke:#008000;stroke-linecap:square;stroke-width:1.5;"/>
   </g>
   <g id="patch_8">
    <path d="M 528.832588 360.1296 
L 528.832588 48.5568 
" style="fill:none;stroke:#000000;stroke-linecap:square;stroke-linejoin:miter;stroke-width:0.8;"/>
   </g>
   <g id="patch_9">
    <path d="M 831.301412 360.1296 
L 831.301412 48.5568 
" style="fill:none;stroke:#000000;stroke-linecap:square;stroke-linejoin:miter;stroke-width:0.8;"/>
   </g>
   <g id="patch_10">
    <path d="M 528.832588 360.1296 
L 831.301412 360.1296 
" style="fill:none;stroke:#000000;stroke-linecap:square;stroke-linejoin:miter;stroke-width:0.8;"/>
   </g>
   <g id="patch_11">
    <path d="M 528.832588 48.5568 
L 831.301412 48.5568 
" style="fill:none;stroke:#000000;stroke-linecap:square;stroke-linejoin:miter;stroke-width:0.8;"/>
   </g>
   <g id="text_29">
    <!-- Torque for f=010 -->
    <g transform="translate(609.174937 42.5568)scale(0.168 -0.168)">
     <use xlink:href="#DejaVuSans-54"/>
     <use x="44.083984" xlink:href="#DejaVuSans-6f"/>
     <use x="105.265625" xlink:href="#DejaVuSans-72"/>
     <use x="144.628906" xlink:href="#DejaVuSans-71"/>
     <use x="208.105469" xlink:href="#DejaVuSans-75"/>
     <use x="271.484375" xlink:href="#DejaVuSans-65"/>
     <use x="333.007812" xlink:href="#DejaVuSans-20"/>
     <use x="364.794922" xlink:href="#DejaVuSans-66"/>
     <use x="400" xlink:href="#DejaVuSans-6f"/>
     <use x="461.181641" xlink:href="#DejaVuSans-72"/>
     <use x="502.294922" xlink:href="#DejaVuSans-20"/>
     <use x="534.082031" xlink:href="#DejaVuSans-66"/>
     <use x="569.287109" xlink:href="#DejaVuSans-3d"/>
     <use x="653.076172" xlink:href="#DejaVuSans-30"/>
     <use x="716.699219" xlink:href="#DejaVuSans-31"/>
     <use x="780.322266" xlink:href="#DejaVuSans-30"/>
    </g>
   </g>
  </g>
  <g id="axes_3">
   <g id="patch_12">
    <path d="M 891.795176 360.1296 
L 1194.264 360.1296 
L 1194.264 48.5568 
L 891.795176 48.5568 
z
" style="fill:#ffffff;"/>
   </g>
   <g id="matplotlib.axis_5">
    <g id="xtick_13">
     <g id="line2d_28">
      <g>
       <use style="stroke:#000000;stroke-width:0.8;" x="917.000912" xlink:href="#m2be30daab8" y="360.1296"/>
      </g>
     </g>
     <g id="text_30">
      <!-- 0.0 -->
      <g transform="translate(905.868724 377.767412)scale(0.14 -0.14)">
       <use xlink:href="#DejaVuSans-30"/>
       <use x="63.623047" xlink:href="#DejaVuSans-2e"/>
       <use x="95.410156" xlink:href="#DejaVuSans-30"/>
      </g>
     </g>
    </g>
    <g id="xtick_14">
     <g id="line2d_29">
      <g>
       <use style="stroke:#000000;stroke-width:0.8;" x="967.412382" xlink:href="#m2be30daab8" y="360.1296"/>
      </g>
     </g>
     <g id="text_31">
      <!-- 0.2 -->
      <g transform="translate(956.280195 377.767412)scale(0.14 -0.14)">
       <use xlink:href="#DejaVuSans-30"/>
       <use x="63.623047" xlink:href="#DejaVuSans-2e"/>
       <use x="95.410156" xlink:href="#DejaVuSans-32"/>
      </g>
     </g>
    </g>
    <g id="xtick_15">
     <g id="line2d_30">
      <g>
       <use style="stroke:#000000;stroke-width:0.8;" x="1017.823853" xlink:href="#m2be30daab8" y="360.1296"/>
      </g>
     </g>
     <g id="text_32">
      <!-- 0.4 -->
      <g transform="translate(1006.691665 377.767412)scale(0.14 -0.14)">
       <use xlink:href="#DejaVuSans-30"/>
       <use x="63.623047" xlink:href="#DejaVuSans-2e"/>
       <use x="95.410156" xlink:href="#DejaVuSans-34"/>
      </g>
     </g>
    </g>
    <g id="xtick_16">
     <g id="line2d_31">
      <g>
       <use style="stroke:#000000;stroke-width:0.8;" x="1068.235324" xlink:href="#m2be30daab8" y="360.1296"/>
      </g>
     </g>
     <g id="text_33">
      <!-- 0.6 -->
      <g transform="translate(1057.103136 377.767412)scale(0.14 -0.14)">
       <use xlink:href="#DejaVuSans-30"/>
       <use x="63.623047" xlink:href="#DejaVuSans-2e"/>
       <use x="95.410156" xlink:href="#DejaVuSans-36"/>
      </g>
     </g>
    </g>
    <g id="xtick_17">
     <g id="line2d_32">
      <g>
       <use style="stroke:#000000;stroke-width:0.8;" x="1118.646794" xlink:href="#m2be30daab8" y="360.1296"/>
      </g>
     </g>
     <g id="text_34">
      <!-- 0.8 -->
      <g transform="translate(1107.514607 377.767412)scale(0.14 -0.14)">
       <use xlink:href="#DejaVuSans-30"/>
       <use x="63.623047" xlink:href="#DejaVuSans-2e"/>
       <use x="95.410156" xlink:href="#DejaVuSans-38"/>
      </g>
     </g>
    </g>
    <g id="xtick_18">
     <g id="line2d_33">
      <g>
       <use style="stroke:#000000;stroke-width:0.8;" x="1169.058265" xlink:href="#m2be30daab8" y="360.1296"/>
      </g>
     </g>
     <g id="text_35">
      <!-- 1.0 -->
      <g transform="translate(1157.926077 377.767412)scale(0.14 -0.14)">
       <use xlink:href="#DejaVuSans-31"/>
       <use x="63.623047" xlink:href="#DejaVuSans-2e"/>
       <use x="95.410156" xlink:href="#DejaVuSans-30"/>
      </g>
     </g>
    </g>
    <g id="text_36">
     <!-- Time (s) -->
     <g transform="translate(1014.569119 395.316787)scale(0.14 -0.14)">
      <use xlink:href="#DejaVuSans-54"/>
      <use x="57.958984" xlink:href="#DejaVuSans-69"/>
      <use x="85.742188" xlink:href="#DejaVuSans-6d"/>
      <use x="183.154297" xlink:href="#DejaVuSans-65"/>
      <use x="244.677734" xlink:href="#DejaVuSans-20"/>
      <use x="276.464844" xlink:href="#DejaVuSans-28"/>
      <use x="315.478516" xlink:href="#DejaVuSans-73"/>
      <use x="367.578125" xlink:href="#DejaVuSans-29"/>
     </g>
    </g>
   </g>
   <g id="matplotlib.axis_6">
    <g id="ytick_12">
     <g id="line2d_34">
      <g>
       <use style="stroke:#000000;stroke-width:0.8;" x="891.795176" xlink:href="#m8cfe48a1e2" y="353.303804"/>
      </g>
     </g>
     <g id="text_37">
      <!-- −80 -->
      <g transform="translate(855.248614 358.62271)scale(0.14 -0.14)">
       <use xlink:href="#DejaVuSans-2212"/>
       <use x="83.789062" xlink:href="#DejaVuSans-38"/>
       <use x="147.412109" xlink:href="#DejaVuSans-30"/>
      </g>
     </g>
    </g>
    <g id="ytick_13">
     <g id="line2d_35">
      <g>
       <use style="stroke:#000000;stroke-width:0.8;" x="891.795176" xlink:href="#m8cfe48a1e2" y="291.286866"/>
      </g>
     </g>
     <g id="text_38">
      <!-- −75 -->
      <g transform="translate(855.248614 296.605773)scale(0.14 -0.14)">
       <use xlink:href="#DejaVuSans-2212"/>
       <use x="83.789062" xlink:href="#DejaVuSans-37"/>
       <use x="147.412109" xlink:href="#DejaVuSans-35"/>
      </g>
     </g>
    </g>
    <g id="ytick_14">
     <g id="line2d_36">
      <g>
       <use style="stroke:#000000;stroke-width:0.8;" x="891.795176" xlink:href="#m8cfe48a1e2" y="229.269929"/>
      </g>
     </g>
     <g id="text_39">
      <!-- −70 -->
      <g transform="translate(855.248614 234.588835)scale(0.14 -0.14)">
       <use xlink:href="#DejaVuSans-2212"/>
       <use x="83.789062" xlink:href="#DejaVuSans-37"/>
       <use x="147.412109" xlink:href="#DejaVuSans-30"/>
      </g>
     </g>
    </g>
    <g id="ytick_15">
     <g id="line2d_37">
      <g>
       <use style="stroke:#000000;stroke-width:0.8;" x="891.795176" xlink:href="#m8cfe48a1e2" y="167.252992"/>
      </g>
     </g>
     <g id="text_40">
      <!-- −65 -->
      <g transform="translate(855.248614 172.571898)scale(0.14 -0.14)">
       <use xlink:href="#DejaVuSans-2212"/>
       <use x="83.789062" xlink:href="#DejaVuSans-36"/>
       <use x="147.412109" xlink:href="#DejaVuSans-35"/>
      </g>
     </g>
    </g>
    <g id="ytick_16">
     <g id="line2d_38">
      <g>
       <use style="stroke:#000000;stroke-width:0.8;" x="891.795176" xlink:href="#m8cfe48a1e2" y="105.236054"/>
      </g>
     </g>
     <g id="text_41">
      <!-- −60 -->
      <g transform="translate(855.248614 110.554961)scale(0.14 -0.14)">
       <use xlink:href="#DejaVuSans-2212"/>
       <use x="83.789062" xlink:href="#DejaVuSans-36"/>
       <use x="147.412109" xlink:href="#DejaVuSans-30"/>
      </g>
     </g>
    </g>
    <g id="text_42">
     <!-- Torque in y (Nmm) -->
     <g transform="translate(848.337051 269.188356)rotate(-90)scale(0.14 -0.14)">
      <use xlink:href="#DejaVuSans-54"/>
      <use x="44.083984" xlink:href="#DejaVuSans-6f"/>
      <use x="105.265625" xlink:href="#DejaVuSans-72"/>
      <use x="144.628906" xlink:href="#DejaVuSans-71"/>
      <use x="208.105469" xlink:href="#DejaVuSans-75"/>
      <use x="271.484375" xlink:href="#DejaVuSans-65"/>
      <use x="333.007812" xlink:href="#DejaVuSans-20"/>
      <use x="364.794922" xlink:href="#DejaVuSans-69"/>
      <use x="392.578125" xlink:href="#DejaVuSans-6e"/>
      <use x="455.957031" xlink:href="#DejaVuSans-20"/>
      <use x="487.744141" xlink:href="#DejaVuSans-79"/>
      <use x="546.923828" xlink:href="#DejaVuSans-20"/>
      <use x="578.710938" xlink:href="#DejaVuSans-28"/>
      <use x="617.724609" xlink:href="#DejaVuSans-4e"/>
      <use x="692.529297" xlink:href="#DejaVuSans-6d"/>
      <use x="789.941406" xlink:href="#DejaVuSans-6d"/>
      <use x="887.353516" xlink:href="#DejaVuSans-29"/>
     </g>
    </g>
   </g>
   <g id="line2d_39">
    <path clip-path="url(#p07354675ac)" d="M 917.000912 345.9672 
L 919.521485 342.960823 
L 922.042059 336.341381 
L 924.562632 327.342015 
L 927.083206 316.626705 
L 929.603779 304.86085 
L 932.124353 292.779499 
L 934.644926 280.990175 
L 937.1655 269.765079 
L 939.686074 259.221235 
L 942.206647 249.334686 
L 944.727221 239.923959 
L 947.247794 231.045479 
L 949.768368 222.551314 
L 952.288941 214.444319 
L 954.809515 206.831256 
L 957.330088 199.491069 
L 959.850662 192.709386 
L 962.371235 186.140421 
L 964.891809 180.13561 
L 967.412382 174.205022 
L 969.932956 168.888672 
L 972.453529 163.429409 
L 974.974103 158.543967 
L 977.494676 153.672606 
L 980.01525 148.841887 
L 982.535824 144.835374 
L 985.056397 140.359248 
L 987.576971 136.180596 
L 990.097544 133.094016 
L 992.618118 129.794247 
L 995.138691 125.759361 
L 997.659265 122.677427 
L 1000.179838 120.745196 
L 1002.700412 119.099285 
L 1005.220985 116.345732 
L 1007.741559 112.229915 
L 1010.262132 109.595552 
L 1012.782706 108.556183 
L 1015.303279 107.509013 
L 1017.823853 105.736585 
L 1020.344426 102.547618 
L 1022.865 99.073997 
L 1025.385574 97.719481 
L 1027.906147 97.251566 
L 1030.426721 95.998221 
L 1032.947294 94.184511 
L 1035.467868 92.74039 
L 1037.988441 91.729204 
L 1040.509015 90.662554 
L 1043.029588 89.424925 
L 1045.550162 88.256649 
L 1048.070735 87.246327 
L 1050.591309 86.274339 
L 1053.111882 85.282635 
L 1055.632456 84.3289 
L 1058.153029 83.44423 
L 1060.673603 82.597163 
L 1063.194176 81.769315 
L 1065.71475 80.975353 
L 1068.235324 80.222238 
L 1070.755897 79.499783 
L 1073.276471 78.802894 
L 1075.797044 78.131416 
L 1078.317618 77.472598 
L 1080.838191 76.835284 
L 1083.358765 76.229062 
L 1085.879338 75.647019 
L 1088.399912 75.083607 
L 1090.920485 74.541568 
L 1093.441059 74.021663 
L 1095.961632 73.520688 
L 1098.482206 73.037223 
L 1101.002779 72.571602 
L 1103.523353 72.122927 
L 1106.043926 71.689749 
L 1108.5645 71.271457 
L 1111.085074 70.867577 
L 1113.605647 70.477235 
L 1116.126221 70.099674 
L 1118.646794 69.734375 
L 1121.167368 69.380747 
L 1123.687941 69.038166 
L 1126.208515 68.706118 
L 1128.729088 68.384064 
L 1131.249662 68.071475 
L 1133.770235 67.76795 
L 1136.290809 67.473099 
L 1138.811382 67.186504 
L 1141.331956 66.907802 
L 1143.852529 66.636666 
L 1146.373103 66.37276 
L 1148.893676 66.115772 
L 1151.41425 65.865417 
L 1153.934824 65.621416 
L 1156.455397 65.383506 
L 1158.975971 65.151441 
L 1161.496544 64.924986 
L 1164.017118 64.703917 
L 1166.537691 64.488025 
L 1169.058265 64.27711 
" style="fill:none;stroke:#ff0000;stroke-linecap:square;stroke-width:1.5;"/>
   </g>
   <g id="line2d_40">
    <path clip-path="url(#p07354675ac)" d="M 917.000912 345.9672 
L 919.521485 342.978995 
L 922.042059 336.350724 
L 924.562632 327.354596 
L 927.083206 316.638567 
L 929.603779 304.873181 
L 932.124353 292.788595 
L 934.644926 280.986899 
L 937.1655 269.765805 
L 939.686074 259.223199 
L 942.206647 249.320235 
L 944.727221 239.90799 
L 947.247794 231.015677 
L 949.768368 222.508701 
L 952.288941 214.399695 
L 954.809515 206.757819 
L 957.330088 199.408396 
L 959.850662 192.607648 
L 962.371235 186.005814 
L 964.891809 179.981504 
L 967.412382 174.021832 
L 969.932956 168.68536 
L 972.453529 163.204805 
L 974.974103 158.275953 
L 977.494676 153.395399 
L 980.01525 148.525247 
L 982.535824 144.486089 
L 985.056397 139.987521 
L 987.576971 135.772311 
L 990.097544 132.660566 
L 992.618118 129.342723 
L 995.138691 125.267713 
L 997.659265 122.156401 
L 1000.179838 120.209974 
L 1002.700412 118.549088 
L 1005.220985 115.777091 
L 1007.741559 111.612897 
L 1010.262132 108.947974 
L 1012.782706 107.89722 
L 1015.303279 106.8572 
L 1017.823853 105.052206 
L 1020.344426 101.831894 
L 1022.865 98.310363 
L 1025.385574 96.945145 
L 1027.906147 96.485432 
L 1030.426721 95.213621 
L 1032.947294 93.364898 
L 1035.467868 91.90638 
L 1037.988441 90.888915 
L 1040.509015 89.8031 
L 1043.029588 88.55115 
L 1045.550162 87.359688 
L 1048.070735 86.330623 
L 1050.591309 85.342717 
L 1053.111882 84.339281 
L 1055.632456 83.365625 
L 1058.153029 82.467453 
L 1060.673603 81.605692 
L 1063.194176 80.754453 
L 1065.71475 79.936347 
L 1068.235324 79.168438 
L 1070.755897 78.450039 
L 1073.276471 77.720413 
L 1075.797044 77.022125 
L 1078.317618 76.364749 
L 1080.838191 75.703242 
L 1083.358765 75.083342 
L 1085.879338 74.480773 
L 1088.399912 73.911344 
L 1090.920485 73.346496 
L 1093.441059 72.81957 
L 1095.961632 72.293012 
L 1098.482206 71.800786 
L 1101.002779 71.318342 
L 1103.523353 70.863385 
L 1106.043926 70.416058 
L 1108.5645 69.983092 
L 1111.085074 69.566367 
L 1113.605647 69.16343 
L 1116.126221 68.76939 
L 1118.646794 68.386364 
L 1121.167368 68.020398 
L 1123.687941 67.665375 
L 1126.208515 67.324192 
L 1128.729088 66.992586 
L 1131.249662 66.669606 
L 1133.770235 66.355784 
L 1136.290809 66.047146 
L 1138.811382 65.749936 
L 1141.331956 65.462711 
L 1143.852529 65.179354 
L 1146.373103 64.904399 
L 1148.893676 64.638984 
L 1151.41425 64.375241 
L 1153.934824 64.120391 
L 1156.455397 63.875118 
L 1158.975971 63.631325 
L 1161.496544 63.394052 
L 1164.017118 63.164113 
L 1166.537691 62.9313 
L 1169.058265 62.7192 
" style="fill:none;stroke:#008000;stroke-linecap:square;stroke-width:1.5;"/>
   </g>
   <g id="patch_13">
    <path d="M 891.795176 360.1296 
L 891.795176 48.5568 
" style="fill:none;stroke:#000000;stroke-linecap:square;stroke-linejoin:miter;stroke-width:0.8;"/>
   </g>
   <g id="patch_14">
    <path d="M 1194.264 360.1296 
L 1194.264 48.5568 
" style="fill:none;stroke:#000000;stroke-linecap:square;stroke-linejoin:miter;stroke-width:0.8;"/>
   </g>
   <g id="patch_15">
    <path d="M 891.795176 360.1296 
L 1194.264 360.1296 
" style="fill:none;stroke:#000000;stroke-linecap:square;stroke-linejoin:miter;stroke-width:0.8;"/>
   </g>
   <g id="patch_16">
    <path d="M 891.795176 48.5568 
L 1194.264 48.5568 
" style="fill:none;stroke:#000000;stroke-linecap:square;stroke-linejoin:miter;stroke-width:0.8;"/>
   </g>
   <g id="text_43">
    <!-- Torque for f=001 -->
    <g transform="translate(972.137526 42.5568)scale(0.168 -0.168)">
     <use xlink:href="#DejaVuSans-54"/>
     <use x="44.083984" xlink:href="#DejaVuSans-6f"/>
     <use x="105.265625" xlink:href="#DejaVuSans-72"/>
     <use x="144.628906" xlink:href="#DejaVuSans-71"/>
     <use x="208.105469" xlink:href="#DejaVuSans-75"/>
     <use x="271.484375" xlink:href="#DejaVuSans-65"/>
     <use x="333.007812" xlink:href="#DejaVuSans-20"/>
     <use x="364.794922" xlink:href="#DejaVuSans-66"/>
     <use x="400" xlink:href="#DejaVuSans-6f"/>
     <use x="461.181641" xlink:href="#DejaVuSans-72"/>
     <use x="502.294922" xlink:href="#DejaVuSans-20"/>
     <use x="534.082031" xlink:href="#DejaVuSans-66"/>
     <use x="569.287109" xlink:href="#DejaVuSans-3d"/>
     <use x="653.076172" xlink:href="#DejaVuSans-30"/>
     <use x="716.699219" xlink:href="#DejaVuSans-30"/>
     <use x="780.322266" xlink:href="#DejaVuSans-31"/>
    </g>
   </g>
   <g id="legend_1">
    <g id="patch_17">
     <path d="M 1020.294313 353.1296 
L 1184.464 353.1296 
Q 1187.264 353.1296 1187.264 350.3296 
L 1187.264 310.241475 
Q 1187.264 307.441475 1184.464 307.441475 
L 1020.294313 307.441475 
Q 1017.494313 307.441475 1017.494313 310.241475 
L 1017.494313 350.3296 
Q 1017.494313 353.1296 1020.294313 353.1296 
z
" style="fill:#ffffff;opacity:0.8;stroke:#cccccc;stroke-linejoin:miter;"/>
    </g>
    <g id="line2d_41">
     <path d="M 1023.094313 318.779288 
L 1051.094313 318.779288 
" style="fill:none;stroke:#ff0000;stroke-linecap:square;stroke-width:1.5;"/>
    </g>
    <g id="line2d_42"/>
    <g id="text_44">
     <!-- artisynth -->
     <g transform="translate(1062.294313 323.679287)scale(0.14 -0.14)">
      <defs>
       <path d="M 2194 1759 
Q 1497 1759 1228 1600 
Q 959 1441 959 1056 
Q 959 750 1161 570 
Q 1363 391 1709 391 
Q 2188 391 2477 730 
Q 2766 1069 2766 1631 
L 2766 1759 
L 2194 1759 
z
M 3341 1997 
L 3341 0 
L 2766 0 
L 2766 531 
Q 2569 213 2275 61 
Q 1981 -91 1556 -91 
Q 1019 -91 701 211 
Q 384 513 384 1019 
Q 384 1609 779 1909 
Q 1175 2209 1959 2209 
L 2766 2209 
L 2766 2266 
Q 2766 2663 2505 2880 
Q 2244 3097 1772 3097 
Q 1472 3097 1187 3025 
Q 903 2953 641 2809 
L 641 3341 
Q 956 3463 1253 3523 
Q 1550 3584 1831 3584 
Q 2591 3584 2966 3190 
Q 3341 2797 3341 1997 
z
" id="DejaVuSans-61" transform="scale(0.015625)"/>
       <path d="M 1172 4494 
L 1172 3500 
L 2356 3500 
L 2356 3053 
L 1172 3053 
L 1172 1153 
Q 1172 725 1289 603 
Q 1406 481 1766 481 
L 2356 481 
L 2356 0 
L 1766 0 
Q 1100 0 847 248 
Q 594 497 594 1153 
L 594 3053 
L 172 3053 
L 172 3500 
L 594 3500 
L 594 4494 
L 1172 4494 
z
" id="DejaVuSans-74" transform="scale(0.015625)"/>
       <path d="M 3513 2113 
L 3513 0 
L 2938 0 
L 2938 2094 
Q 2938 2591 2744 2837 
Q 2550 3084 2163 3084 
Q 1697 3084 1428 2787 
Q 1159 2491 1159 1978 
L 1159 0 
L 581 0 
L 581 4863 
L 1159 4863 
L 1159 2956 
Q 1366 3272 1645 3428 
Q 1925 3584 2291 3584 
Q 2894 3584 3203 3211 
Q 3513 2838 3513 2113 
z
" id="DejaVuSans-68" transform="scale(0.015625)"/>
      </defs>
      <use xlink:href="#DejaVuSans-61"/>
      <use x="61.279297" xlink:href="#DejaVuSans-72"/>
      <use x="102.392578" xlink:href="#DejaVuSans-74"/>
      <use x="141.601562" xlink:href="#DejaVuSans-69"/>
      <use x="169.384766" xlink:href="#DejaVuSans-73"/>
      <use x="221.484375" xlink:href="#DejaVuSans-79"/>
      <use x="280.664062" xlink:href="#DejaVuSans-6e"/>
      <use x="344.042969" xlink:href="#DejaVuSans-74"/>
      <use x="383.251953" xlink:href="#DejaVuSans-68"/>
     </g>
    </g>
    <g id="line2d_43">
     <path d="M 1023.094313 339.328663 
L 1051.094313 339.328663 
" style="fill:none;stroke:#008000;stroke-linecap:square;stroke-width:1.5;"/>
    </g>
    <g id="line2d_44"/>
    <g id="text_45">
     <!-- kinematic_model -->
     <g transform="translate(1062.294313 344.228662)scale(0.14 -0.14)">
      <defs>
       <path d="M 581 4863 
L 1159 4863 
L 1159 1991 
L 2875 3500 
L 3609 3500 
L 1753 1863 
L 3688 0 
L 2938 0 
L 1159 1709 
L 1159 0 
L 581 0 
L 581 4863 
z
" id="DejaVuSans-6b" transform="scale(0.015625)"/>
       <path d="M 3122 3366 
L 3122 2828 
Q 2878 2963 2633 3030 
Q 2388 3097 2138 3097 
Q 1578 3097 1268 2742 
Q 959 2388 959 1747 
Q 959 1106 1268 751 
Q 1578 397 2138 397 
Q 2388 397 2633 464 
Q 2878 531 3122 666 
L 3122 134 
Q 2881 22 2623 -34 
Q 2366 -91 2075 -91 
Q 1284 -91 818 406 
Q 353 903 353 1747 
Q 353 2603 823 3093 
Q 1294 3584 2113 3584 
Q 2378 3584 2631 3529 
Q 2884 3475 3122 3366 
z
" id="DejaVuSans-63" transform="scale(0.015625)"/>
       <path d="M 3263 -1063 
L 3263 -1509 
L -63 -1509 
L -63 -1063 
L 3263 -1063 
z
" id="DejaVuSans-5f" transform="scale(0.015625)"/>
       <path d="M 2906 2969 
L 2906 4863 
L 3481 4863 
L 3481 0 
L 2906 0 
L 2906 525 
Q 2725 213 2448 61 
Q 2172 -91 1784 -91 
Q 1150 -91 751 415 
Q 353 922 353 1747 
Q 353 2572 751 3078 
Q 1150 3584 1784 3584 
Q 2172 3584 2448 3432 
Q 2725 3281 2906 2969 
z
M 947 1747 
Q 947 1113 1208 752 
Q 1469 391 1925 391 
Q 2381 391 2643 752 
Q 2906 1113 2906 1747 
Q 2906 2381 2643 2742 
Q 2381 3103 1925 3103 
Q 1469 3103 1208 2742 
Q 947 2381 947 1747 
z
" id="DejaVuSans-64" transform="scale(0.015625)"/>
       <path d="M 603 4863 
L 1178 4863 
L 1178 0 
L 603 0 
L 603 4863 
z
" id="DejaVuSans-6c" transform="scale(0.015625)"/>
      </defs>
      <use xlink:href="#DejaVuSans-6b"/>
      <use x="57.910156" xlink:href="#DejaVuSans-69"/>
      <use x="85.693359" xlink:href="#DejaVuSans-6e"/>
      <use x="149.072266" xlink:href="#DejaVuSans-65"/>
      <use x="210.595703" xlink:href="#DejaVuSans-6d"/>
      <use x="308.007812" xlink:href="#DejaVuSans-61"/>
      <use x="369.287109" xlink:href="#DejaVuSans-74"/>
      <use x="408.496094" xlink:href="#DejaVuSans-69"/>
      <use x="436.279297" xlink:href="#DejaVuSans-63"/>
      <use x="491.259766" xlink:href="#DejaVuSans-5f"/>
      <use x="541.259766" xlink:href="#DejaVuSans-6d"/>
      <use x="638.671875" xlink:href="#DejaVuSans-6f"/>
      <use x="699.853516" xlink:href="#DejaVuSans-64"/>
      <use x="763.330078" xlink:href="#DejaVuSans-65"/>
      <use x="824.853516" xlink:href="#DejaVuSans-6c"/>
     </g>
    </g>
   </g>
  </g>
 </g>
 <defs>
  <clipPath id="p87c1ff8dd3">
   <rect height="311.5728" width="302.468824" x="165.87" y="48.5568"/>
  </clipPath>
  <clipPath id="pb868bcd3b8">
   <rect height="311.5728" width="302.468824" x="528.832588" y="48.5568"/>
  </clipPath>
  <clipPath id="p07354675ac">
   <rect height="311.5728" width="302.468824" x="891.795176" y="48.5568"/>
  </clipPath>
 </defs>
</svg>
