<?xml version="1.0" encoding="utf-8" standalone="no"?>
<!DOCTYPE svg PUBLIC "-//W3C//DTD SVG 1.1//EN"
  "http://www.w3.org/Graphics/SVG/1.1/DTD/svg11.dtd">
<svg height="345.6pt" version="1.1" viewBox="0 0 460.8 345.6" width="460.8pt" xmlns="http://www.w3.org/2000/svg" xmlns:xlink="http://www.w3.org/1999/xlink">
 <metadata>
  <rdf:RDF xmlns:cc="http://creativecommons.org/ns#" xmlns:dc="http://purl.org/dc/elements/1.1/" xmlns:rdf="http://www.w3.org/1999/02/22-rdf-syntax-ns#">
   <cc:Work>
    <dc:type rdf:resource="http://purl.org/dc/dcmitype/StillImage"/>
    <dc:date>2021-05-06T17:45:19.642672</dc:date>
    <dc:format>image/svg+xml</dc:format>
    <dc:creator>
     <cc:Agent>
      <dc:title>Matplotlib v3.4.1, https://matplotlib.org/</dc:title>
     </cc:Agent>
    </dc:creator>
   </cc:Work>
  </rdf:RDF>
 </metadata>
 <defs>
  <style type="text/css">*{stroke-linecap:butt;stroke-linejoin:round;}</style>
 </defs>
 <g id="figure_1">
  <g id="patch_1">
   <path d="M 0 345.6 
L 460.8 345.6 
L 460.8 0 
L 0 0 
z
" style="fill:#ffffff;"/>
  </g>
  <g id="axes_1">
   <g id="patch_2">
    <path d="M 57.6 307.584 
L 414.72 307.584 
L 414.72 41.472 
L 57.6 41.472 
z
" style="fill:#ffffff;"/>
   </g>
   <g id="matplotlib.axis_1">
    <g id="xtick_1">
     <g id="line2d_1">
      <defs>
       <path d="M 0 0 
L 0 3.5 
" id="md0ab75bb57" style="stroke:#000000;stroke-width:0.8;"/>
      </defs>
      <g>
       <use style="stroke:#000000;stroke-width:0.8;" x="73.832727" xlink:href="#md0ab75bb57" y="307.584"/>
      </g>
     </g>
     <g id="text_1">
      <!-- 0.0 -->
      <g transform="translate(61.905384 325.981656)scale(0.15 -0.15)">
       <defs>
        <path d="M 2034 4250 
Q 1547 4250 1301 3770 
Q 1056 3291 1056 2328 
Q 1056 1369 1301 889 
Q 1547 409 2034 409 
Q 2525 409 2770 889 
Q 3016 1369 3016 2328 
Q 3016 3291 2770 3770 
Q 2525 4250 2034 4250 
z
M 2034 4750 
Q 2819 4750 3233 4129 
Q 3647 3509 3647 2328 
Q 3647 1150 3233 529 
Q 2819 -91 2034 -91 
Q 1250 -91 836 529 
Q 422 1150 422 2328 
Q 422 3509 836 4129 
Q 1250 4750 2034 4750 
z
" id="DejaVuSans-30" transform="scale(0.015625)"/>
        <path d="M 684 794 
L 1344 794 
L 1344 0 
L 684 0 
L 684 794 
z
" id="DejaVuSans-2e" transform="scale(0.015625)"/>
       </defs>
       <use xlink:href="#DejaVuSans-30"/>
       <use x="63.623047" xlink:href="#DejaVuSans-2e"/>
       <use x="95.410156" xlink:href="#DejaVuSans-30"/>
      </g>
     </g>
    </g>
    <g id="xtick_2">
     <g id="line2d_2">
      <g>
       <use style="stroke:#000000;stroke-width:0.8;" x="133.184564" xlink:href="#md0ab75bb57" y="307.584"/>
      </g>
     </g>
     <g id="text_2">
      <!-- 0.1 -->
      <g transform="translate(121.25722 325.981656)scale(0.15 -0.15)">
       <defs>
        <path d="M 794 531 
L 1825 531 
L 1825 4091 
L 703 3866 
L 703 4441 
L 1819 4666 
L 2450 4666 
L 2450 531 
L 3481 531 
L 3481 0 
L 794 0 
L 794 531 
z
" id="DejaVuSans-31" transform="scale(0.015625)"/>
       </defs>
       <use xlink:href="#DejaVuSans-30"/>
       <use x="63.623047" xlink:href="#DejaVuSans-2e"/>
       <use x="95.410156" xlink:href="#DejaVuSans-31"/>
      </g>
     </g>
    </g>
    <g id="xtick_3">
     <g id="line2d_3">
      <g>
       <use style="stroke:#000000;stroke-width:0.8;" x="192.5364" xlink:href="#md0ab75bb57" y="307.584"/>
      </g>
     </g>
     <g id="text_3">
      <!-- 0.2 -->
      <g transform="translate(180.609056 325.981656)scale(0.15 -0.15)">
       <defs>
        <path d="M 1228 531 
L 3431 531 
L 3431 0 
L 469 0 
L 469 531 
Q 828 903 1448 1529 
Q 2069 2156 2228 2338 
Q 2531 2678 2651 2914 
Q 2772 3150 2772 3378 
Q 2772 3750 2511 3984 
Q 2250 4219 1831 4219 
Q 1534 4219 1204 4116 
Q 875 4013 500 3803 
L 500 4441 
Q 881 4594 1212 4672 
Q 1544 4750 1819 4750 
Q 2544 4750 2975 4387 
Q 3406 4025 3406 3419 
Q 3406 3131 3298 2873 
Q 3191 2616 2906 2266 
Q 2828 2175 2409 1742 
Q 1991 1309 1228 531 
z
" id="DejaVuSans-32" transform="scale(0.015625)"/>
       </defs>
       <use xlink:href="#DejaVuSans-30"/>
       <use x="63.623047" xlink:href="#DejaVuSans-2e"/>
       <use x="95.410156" xlink:href="#DejaVuSans-32"/>
      </g>
     </g>
    </g>
    <g id="xtick_4">
     <g id="line2d_4">
      <g>
       <use style="stroke:#000000;stroke-width:0.8;" x="251.888237" xlink:href="#md0ab75bb57" y="307.584"/>
      </g>
     </g>
     <g id="text_4">
      <!-- 0.3 -->
      <g transform="translate(239.960893 325.981656)scale(0.15 -0.15)">
       <defs>
        <path d="M 2597 2516 
Q 3050 2419 3304 2112 
Q 3559 1806 3559 1356 
Q 3559 666 3084 287 
Q 2609 -91 1734 -91 
Q 1441 -91 1130 -33 
Q 819 25 488 141 
L 488 750 
Q 750 597 1062 519 
Q 1375 441 1716 441 
Q 2309 441 2620 675 
Q 2931 909 2931 1356 
Q 2931 1769 2642 2001 
Q 2353 2234 1838 2234 
L 1294 2234 
L 1294 2753 
L 1863 2753 
Q 2328 2753 2575 2939 
Q 2822 3125 2822 3475 
Q 2822 3834 2567 4026 
Q 2313 4219 1838 4219 
Q 1578 4219 1281 4162 
Q 984 4106 628 3988 
L 628 4550 
Q 988 4650 1302 4700 
Q 1616 4750 1894 4750 
Q 2613 4750 3031 4423 
Q 3450 4097 3450 3541 
Q 3450 3153 3228 2886 
Q 3006 2619 2597 2516 
z
" id="DejaVuSans-33" transform="scale(0.015625)"/>
       </defs>
       <use xlink:href="#DejaVuSans-30"/>
       <use x="63.623047" xlink:href="#DejaVuSans-2e"/>
       <use x="95.410156" xlink:href="#DejaVuSans-33"/>
      </g>
     </g>
    </g>
    <g id="xtick_5">
     <g id="line2d_5">
      <g>
       <use style="stroke:#000000;stroke-width:0.8;" x="311.240073" xlink:href="#md0ab75bb57" y="307.584"/>
      </g>
     </g>
     <g id="text_5">
      <!-- 0.4 -->
      <g transform="translate(299.312729 325.981656)scale(0.15 -0.15)">
       <defs>
        <path d="M 2419 4116 
L 825 1625 
L 2419 1625 
L 2419 4116 
z
M 2253 4666 
L 3047 4666 
L 3047 1625 
L 3713 1625 
L 3713 1100 
L 3047 1100 
L 3047 0 
L 2419 0 
L 2419 1100 
L 313 1100 
L 313 1709 
L 2253 4666 
z
" id="DejaVuSans-34" transform="scale(0.015625)"/>
       </defs>
       <use xlink:href="#DejaVuSans-30"/>
       <use x="63.623047" xlink:href="#DejaVuSans-2e"/>
       <use x="95.410156" xlink:href="#DejaVuSans-34"/>
      </g>
     </g>
    </g>
    <g id="xtick_6">
     <g id="line2d_6">
      <g>
       <use style="stroke:#000000;stroke-width:0.8;" x="370.59191" xlink:href="#md0ab75bb57" y="307.584"/>
      </g>
     </g>
     <g id="text_6">
      <!-- 0.5 -->
      <g transform="translate(358.664566 325.981656)scale(0.15 -0.15)">
       <defs>
        <path d="M 691 4666 
L 3169 4666 
L 3169 4134 
L 1269 4134 
L 1269 2991 
Q 1406 3038 1543 3061 
Q 1681 3084 1819 3084 
Q 2600 3084 3056 2656 
Q 3513 2228 3513 1497 
Q 3513 744 3044 326 
Q 2575 -91 1722 -91 
Q 1428 -91 1123 -41 
Q 819 9 494 109 
L 494 744 
Q 775 591 1075 516 
Q 1375 441 1709 441 
Q 2250 441 2565 725 
Q 2881 1009 2881 1497 
Q 2881 1984 2565 2268 
Q 2250 2553 1709 2553 
Q 1456 2553 1204 2497 
Q 953 2441 691 2322 
L 691 4666 
z
" id="DejaVuSans-35" transform="scale(0.015625)"/>
       </defs>
       <use xlink:href="#DejaVuSans-30"/>
       <use x="63.623047" xlink:href="#DejaVuSans-2e"/>
       <use x="95.410156" xlink:href="#DejaVuSans-35"/>
      </g>
     </g>
    </g>
    <g id="text_7">
     <!-- Time (s) -->
     <g transform="translate(205.666641 344.498844)scale(0.15 -0.15)">
      <defs>
       <path d="M -19 4666 
L 3928 4666 
L 3928 4134 
L 2272 4134 
L 2272 0 
L 1638 0 
L 1638 4134 
L -19 4134 
L -19 4666 
z
" id="DejaVuSans-54" transform="scale(0.015625)"/>
       <path d="M 603 3500 
L 1178 3500 
L 1178 0 
L 603 0 
L 603 3500 
z
M 603 4863 
L 1178 4863 
L 1178 4134 
L 603 4134 
L 603 4863 
z
" id="DejaVuSans-69" transform="scale(0.015625)"/>
       <path d="M 3328 2828 
Q 3544 3216 3844 3400 
Q 4144 3584 4550 3584 
Q 5097 3584 5394 3201 
Q 5691 2819 5691 2113 
L 5691 0 
L 5113 0 
L 5113 2094 
Q 5113 2597 4934 2840 
Q 4756 3084 4391 3084 
Q 3944 3084 3684 2787 
Q 3425 2491 3425 1978 
L 3425 0 
L 2847 0 
L 2847 2094 
Q 2847 2600 2669 2842 
Q 2491 3084 2119 3084 
Q 1678 3084 1418 2786 
Q 1159 2488 1159 1978 
L 1159 0 
L 581 0 
L 581 3500 
L 1159 3500 
L 1159 2956 
Q 1356 3278 1631 3431 
Q 1906 3584 2284 3584 
Q 2666 3584 2933 3390 
Q 3200 3197 3328 2828 
z
" id="DejaVuSans-6d" transform="scale(0.015625)"/>
       <path d="M 3597 1894 
L 3597 1613 
L 953 1613 
Q 991 1019 1311 708 
Q 1631 397 2203 397 
Q 2534 397 2845 478 
Q 3156 559 3463 722 
L 3463 178 
Q 3153 47 2828 -22 
Q 2503 -91 2169 -91 
Q 1331 -91 842 396 
Q 353 884 353 1716 
Q 353 2575 817 3079 
Q 1281 3584 2069 3584 
Q 2775 3584 3186 3129 
Q 3597 2675 3597 1894 
z
M 3022 2063 
Q 3016 2534 2758 2815 
Q 2500 3097 2075 3097 
Q 1594 3097 1305 2825 
Q 1016 2553 972 2059 
L 3022 2063 
z
" id="DejaVuSans-65" transform="scale(0.015625)"/>
       <path id="DejaVuSans-20" transform="scale(0.015625)"/>
       <path d="M 1984 4856 
Q 1566 4138 1362 3434 
Q 1159 2731 1159 2009 
Q 1159 1288 1364 580 
Q 1569 -128 1984 -844 
L 1484 -844 
Q 1016 -109 783 600 
Q 550 1309 550 2009 
Q 550 2706 781 3412 
Q 1013 4119 1484 4856 
L 1984 4856 
z
" id="DejaVuSans-28" transform="scale(0.015625)"/>
       <path d="M 2834 3397 
L 2834 2853 
Q 2591 2978 2328 3040 
Q 2066 3103 1784 3103 
Q 1356 3103 1142 2972 
Q 928 2841 928 2578 
Q 928 2378 1081 2264 
Q 1234 2150 1697 2047 
L 1894 2003 
Q 2506 1872 2764 1633 
Q 3022 1394 3022 966 
Q 3022 478 2636 193 
Q 2250 -91 1575 -91 
Q 1294 -91 989 -36 
Q 684 19 347 128 
L 347 722 
Q 666 556 975 473 
Q 1284 391 1588 391 
Q 1994 391 2212 530 
Q 2431 669 2431 922 
Q 2431 1156 2273 1281 
Q 2116 1406 1581 1522 
L 1381 1569 
Q 847 1681 609 1914 
Q 372 2147 372 2553 
Q 372 3047 722 3315 
Q 1072 3584 1716 3584 
Q 2034 3584 2315 3537 
Q 2597 3491 2834 3397 
z
" id="DejaVuSans-73" transform="scale(0.015625)"/>
       <path d="M 513 4856 
L 1013 4856 
Q 1481 4119 1714 3412 
Q 1947 2706 1947 2009 
Q 1947 1309 1714 600 
Q 1481 -109 1013 -844 
L 513 -844 
Q 928 -128 1133 580 
Q 1338 1288 1338 2009 
Q 1338 2731 1133 3434 
Q 928 4138 513 4856 
z
" id="DejaVuSans-29" transform="scale(0.015625)"/>
      </defs>
      <use xlink:href="#DejaVuSans-54"/>
      <use x="57.958984" xlink:href="#DejaVuSans-69"/>
      <use x="85.742188" xlink:href="#DejaVuSans-6d"/>
      <use x="183.154297" xlink:href="#DejaVuSans-65"/>
      <use x="244.677734" xlink:href="#DejaVuSans-20"/>
      <use x="276.464844" xlink:href="#DejaVuSans-28"/>
      <use x="315.478516" xlink:href="#DejaVuSans-73"/>
      <use x="367.578125" xlink:href="#DejaVuSans-29"/>
     </g>
    </g>
   </g>
   <g id="matplotlib.axis_2">
    <g id="ytick_1">
     <g id="line2d_7">
      <defs>
       <path d="M 0 0 
L -3.5 0 
" id="ma0a092b320" style="stroke:#000000;stroke-width:0.8;"/>
      </defs>
      <g>
       <use style="stroke:#000000;stroke-width:0.8;" x="57.6" xlink:href="#ma0a092b320" y="286.83387"/>
      </g>
     </g>
     <g id="text_8">
      <!-- −150 -->
      <g transform="translate(9.399219 292.532698)scale(0.15 -0.15)">
       <defs>
        <path d="M 678 2272 
L 4684 2272 
L 4684 1741 
L 678 1741 
L 678 2272 
z
" id="DejaVuSans-2212" transform="scale(0.015625)"/>
       </defs>
       <use xlink:href="#DejaVuSans-2212"/>
       <use x="83.789062" xlink:href="#DejaVuSans-31"/>
       <use x="147.412109" xlink:href="#DejaVuSans-35"/>
       <use x="211.035156" xlink:href="#DejaVuSans-30"/>
      </g>
     </g>
    </g>
    <g id="ytick_2">
     <g id="line2d_8">
      <g>
       <use style="stroke:#000000;stroke-width:0.8;" x="57.6" xlink:href="#ma0a092b320" y="250.356948"/>
      </g>
     </g>
     <g id="text_9">
      <!-- −100 -->
      <g transform="translate(9.399219 256.055776)scale(0.15 -0.15)">
       <use xlink:href="#DejaVuSans-2212"/>
       <use x="83.789062" xlink:href="#DejaVuSans-31"/>
       <use x="147.412109" xlink:href="#DejaVuSans-30"/>
       <use x="211.035156" xlink:href="#DejaVuSans-30"/>
      </g>
     </g>
    </g>
    <g id="ytick_3">
     <g id="line2d_9">
      <g>
       <use style="stroke:#000000;stroke-width:0.8;" x="57.6" xlink:href="#ma0a092b320" y="213.880025"/>
      </g>
     </g>
     <g id="text_10">
      <!-- −50 -->
      <g transform="translate(18.942969 219.578854)scale(0.15 -0.15)">
       <use xlink:href="#DejaVuSans-2212"/>
       <use x="83.789062" xlink:href="#DejaVuSans-35"/>
       <use x="147.412109" xlink:href="#DejaVuSans-30"/>
      </g>
     </g>
    </g>
    <g id="ytick_4">
     <g id="line2d_10">
      <g>
       <use style="stroke:#000000;stroke-width:0.8;" x="57.6" xlink:href="#ma0a092b320" y="177.403103"/>
      </g>
     </g>
     <g id="text_11">
      <!-- 0 -->
      <g transform="translate(41.05625 183.101931)scale(0.15 -0.15)">
       <use xlink:href="#DejaVuSans-30"/>
      </g>
     </g>
    </g>
    <g id="ytick_5">
     <g id="line2d_11">
      <g>
       <use style="stroke:#000000;stroke-width:0.8;" x="57.6" xlink:href="#ma0a092b320" y="140.92618"/>
      </g>
     </g>
     <g id="text_12">
      <!-- 50 -->
      <g transform="translate(31.5125 146.625009)scale(0.15 -0.15)">
       <use xlink:href="#DejaVuSans-35"/>
       <use x="63.623047" xlink:href="#DejaVuSans-30"/>
      </g>
     </g>
    </g>
    <g id="ytick_6">
     <g id="line2d_12">
      <g>
       <use style="stroke:#000000;stroke-width:0.8;" x="57.6" xlink:href="#ma0a092b320" y="104.449258"/>
      </g>
     </g>
     <g id="text_13">
      <!-- 100 -->
      <g transform="translate(21.96875 110.148086)scale(0.15 -0.15)">
       <use xlink:href="#DejaVuSans-31"/>
       <use x="63.623047" xlink:href="#DejaVuSans-30"/>
       <use x="127.246094" xlink:href="#DejaVuSans-30"/>
      </g>
     </g>
    </g>
    <g id="ytick_7">
     <g id="line2d_13">
      <g>
       <use style="stroke:#000000;stroke-width:0.8;" x="57.6" xlink:href="#ma0a092b320" y="67.972336"/>
      </g>
     </g>
     <g id="text_14">
      <!-- 150 -->
      <g transform="translate(21.96875 73.671164)scale(0.15 -0.15)">
       <use xlink:href="#DejaVuSans-31"/>
       <use x="63.623047" xlink:href="#DejaVuSans-35"/>
       <use x="127.246094" xlink:href="#DejaVuSans-30"/>
      </g>
     </g>
    </g>
    <g id="text_15">
     <!-- Torque (Nmm) -->
     <g transform="translate(2.279687 227.961984)rotate(-90)scale(0.15 -0.15)">
      <defs>
       <path d="M 1959 3097 
Q 1497 3097 1228 2736 
Q 959 2375 959 1747 
Q 959 1119 1226 758 
Q 1494 397 1959 397 
Q 2419 397 2687 759 
Q 2956 1122 2956 1747 
Q 2956 2369 2687 2733 
Q 2419 3097 1959 3097 
z
M 1959 3584 
Q 2709 3584 3137 3096 
Q 3566 2609 3566 1747 
Q 3566 888 3137 398 
Q 2709 -91 1959 -91 
Q 1206 -91 779 398 
Q 353 888 353 1747 
Q 353 2609 779 3096 
Q 1206 3584 1959 3584 
z
" id="DejaVuSans-6f" transform="scale(0.015625)"/>
       <path d="M 2631 2963 
Q 2534 3019 2420 3045 
Q 2306 3072 2169 3072 
Q 1681 3072 1420 2755 
Q 1159 2438 1159 1844 
L 1159 0 
L 581 0 
L 581 3500 
L 1159 3500 
L 1159 2956 
Q 1341 3275 1631 3429 
Q 1922 3584 2338 3584 
Q 2397 3584 2469 3576 
Q 2541 3569 2628 3553 
L 2631 2963 
z
" id="DejaVuSans-72" transform="scale(0.015625)"/>
       <path d="M 947 1747 
Q 947 1113 1208 752 
Q 1469 391 1925 391 
Q 2381 391 2643 752 
Q 2906 1113 2906 1747 
Q 2906 2381 2643 2742 
Q 2381 3103 1925 3103 
Q 1469 3103 1208 2742 
Q 947 2381 947 1747 
z
M 2906 525 
Q 2725 213 2448 61 
Q 2172 -91 1784 -91 
Q 1150 -91 751 415 
Q 353 922 353 1747 
Q 353 2572 751 3078 
Q 1150 3584 1784 3584 
Q 2172 3584 2448 3432 
Q 2725 3281 2906 2969 
L 2906 3500 
L 3481 3500 
L 3481 -1331 
L 2906 -1331 
L 2906 525 
z
" id="DejaVuSans-71" transform="scale(0.015625)"/>
       <path d="M 544 1381 
L 544 3500 
L 1119 3500 
L 1119 1403 
Q 1119 906 1312 657 
Q 1506 409 1894 409 
Q 2359 409 2629 706 
Q 2900 1003 2900 1516 
L 2900 3500 
L 3475 3500 
L 3475 0 
L 2900 0 
L 2900 538 
Q 2691 219 2414 64 
Q 2138 -91 1772 -91 
Q 1169 -91 856 284 
Q 544 659 544 1381 
z
M 1991 3584 
L 1991 3584 
z
" id="DejaVuSans-75" transform="scale(0.015625)"/>
       <path d="M 628 4666 
L 1478 4666 
L 3547 763 
L 3547 4666 
L 4159 4666 
L 4159 0 
L 3309 0 
L 1241 3903 
L 1241 0 
L 628 0 
L 628 4666 
z
" id="DejaVuSans-4e" transform="scale(0.015625)"/>
      </defs>
      <use xlink:href="#DejaVuSans-54"/>
      <use x="44.083984" xlink:href="#DejaVuSans-6f"/>
      <use x="105.265625" xlink:href="#DejaVuSans-72"/>
      <use x="144.628906" xlink:href="#DejaVuSans-71"/>
      <use x="208.105469" xlink:href="#DejaVuSans-75"/>
      <use x="271.484375" xlink:href="#DejaVuSans-65"/>
      <use x="333.007812" xlink:href="#DejaVuSans-20"/>
      <use x="364.794922" xlink:href="#DejaVuSans-28"/>
      <use x="403.808594" xlink:href="#DejaVuSans-4e"/>
      <use x="478.613281" xlink:href="#DejaVuSans-6d"/>
      <use x="576.025391" xlink:href="#DejaVuSans-6d"/>
      <use x="673.4375" xlink:href="#DejaVuSans-29"/>
     </g>
    </g>
   </g>
   <g id="line2d_14">
    <path clip-path="url(#p7dfff05210)" d="M 73.832727 175.096126 
L 74.426246 173.735085 
L 75.613282 169.994379 
L 77.393837 166.210698 
L 77.987356 166.580002 
L 78.580874 167.331295 
L 79.767911 169.779382 
L 80.361429 170.998703 
L 80.954948 171.805065 
L 81.548466 171.941292 
L 82.141984 171.927858 
L 82.735503 172.293565 
L 83.329021 172.429061 
L 83.922539 172.335474 
L 85.109576 171.722925 
L 86.296613 170.627248 
L 86.890131 170.410071 
L 87.48365 170.560748 
L 89.264205 174.116347 
L 89.857723 174.739479 
L 90.451241 174.648702 
L 91.04476 174.074518 
L 92.231797 172.619629 
L 92.825315 172.129737 
L 93.418833 172.751332 
L 94.012352 173.63895 
L 95.792907 175.36853 
L 96.386425 175.54451 
L 96.979943 175.442918 
L 97.573462 174.981949 
L 98.760499 173.262572 
L 99.354017 172.888726 
L 99.947535 172.783235 
L 100.541054 172.876394 
L 102.915127 173.83551 
L 103.508646 173.860346 
L 104.102164 174.778236 
L 104.695682 179.477673 
L 105.289201 181.453595 
L 105.882719 181.303166 
L 107.663274 175.665709 
L 108.256792 174.427382 
L 108.850311 174.086063 
L 109.443829 174.522301 
L 110.037348 175.566096 
L 111.224384 178.247733 
L 111.817903 179.271893 
L 112.411421 179.817205 
L 113.004939 179.809593 
L 114.191976 178.598225 
L 114.785494 177.883534 
L 115.379013 177.364358 
L 115.972531 177.136232 
L 116.56605 177.030439 
L 117.159568 177.127916 
L 118.346605 177.816396 
L 118.940123 178.249631 
L 120.12716 178.024491 
L 121.907715 177.913029 
L 123.68827 178.059308 
L 124.281788 178.338507 
L 126.655862 180.131205 
L 127.24938 180.331375 
L 127.842898 180.377624 
L 129.029935 180.103347 
L 130.81049 179.456612 
L 134.965119 178.730895 
L 139.119747 178.946043 
L 142.680858 178.675521 
L 143.274376 177.989823 
L 143.867894 177.914616 
L 144.461413 178.107421 
L 146.835486 179.534415 
L 149.20956 178.173816 
L 150.396596 177.783131 
L 151.583633 177.799305 
L 154.551225 178.326729 
L 155.738262 178.229698 
L 156.925298 177.978438 
L 157.518817 178.059336 
L 158.705853 179.121997 
L 159.89289 180.197858 
L 160.486409 180.466822 
L 161.079927 180.466813 
L 161.673445 180.218254 
L 164.047519 178.67871 
L 164.641037 178.609546 
L 165.234555 178.712902 
L 167.608629 179.595187 
L 168.795666 180.578727 
L 172.356776 179.640169 
L 172.950294 179.460527 
L 174.730849 178.105055 
L 175.324368 177.883657 
L 175.917886 177.878732 
L 176.511404 178.06282 
L 178.291959 178.955295 
L 178.885478 178.973245 
L 179.478996 178.34754 
L 180.666033 176.554642 
L 181.259551 176.081399 
L 181.85307 176.276553 
L 182.446588 176.888524 
L 184.227143 179.665516 
L 184.820661 180.165978 
L 185.41418 180.216487 
L 186.007698 179.854588 
L 187.788253 177.912324 
L 188.381772 177.578396 
L 188.97529 177.563007 
L 189.568808 177.842201 
L 190.162327 178.314514 
L 190.755845 178.94585 
L 191.349363 179.362038 
L 191.942882 179.600062 
L 192.5364 179.607087 
L 193.129919 179.411534 
L 194.910474 178.494203 
L 195.503992 178.378865 
L 196.09751 178.431612 
L 197.284547 178.824878 
L 197.878065 178.404342 
L 198.471584 177.723076 
L 199.065102 177.965672 
L 200.252139 180.085436 
L 200.845657 179.998481 
L 201.439176 178.977866 
L 202.626212 175.977952 
L 203.219731 174.873091 
L 203.813249 174.95525 
L 204.406767 176.223318 
L 206.187323 181.873183 
L 206.780841 182.775981 
L 207.374359 182.798887 
L 207.967878 182.06039 
L 209.748433 178.649346 
L 210.341951 179.394117 
L 212.122506 186.017528 
L 212.716025 186.506323 
L 213.309543 185.795594 
L 213.903061 184.163124 
L 215.090098 180.137502 
L 215.683616 178.737949 
L 216.277135 178.341328 
L 216.870653 179.027444 
L 217.464172 179.918446 
L 218.651208 182.31382 
L 219.244727 183.116608 
L 219.838245 183.404905 
L 220.431763 182.842992 
L 222.212318 178.49558 
L 222.805837 178.123702 
L 223.399355 179.807243 
L 225.17991 187.946773 
L 225.773429 189.006236 
L 226.366947 188.6078 
L 226.960465 186.710467 
L 228.147502 178.763235 
L 228.74102 176.642441 
L 229.334539 175.881661 
L 229.928057 176.649003 
L 230.521576 178.57906 
L 231.708612 183.252267 
L 232.302131 184.67781 
L 232.895649 184.998351 
L 233.489167 185.807928 
L 234.082686 186.979504 
L 234.676204 187.271675 
L 235.269722 186.820958 
L 235.863241 185.085325 
L 237.643796 176.444345 
L 238.237314 175.978024 
L 238.830833 178.240931 
L 240.017869 186.109726 
L 240.611388 188.691649 
L 241.204906 189.161987 
L 241.798424 187.662137 
L 243.57898 179.231816 
L 244.172498 179.386836 
L 245.359535 181.888557 
L 246.546571 185.232998 
L 247.14009 186.252907 
L 247.733608 185.778195 
L 248.327126 184.241805 
L 248.920645 182.185188 
L 249.514163 180.792526 
L 250.107682 181.206643 
L 250.7012 182.844314 
L 251.888237 187.605118 
L 252.481755 191.830986 
L 253.075273 193.436357 
L 253.668792 192.894792 
L 254.26231 190.607082 
L 256.042865 181.295248 
L 256.636384 179.880267 
L 257.229902 180.65082 
L 257.82342 183.031263 
L 259.010457 189.304855 
L 259.603975 191.440145 
L 260.197494 192.146496 
L 260.791012 191.370844 
L 261.38453 189.471504 
L 262.571567 184.929671 
L 263.165086 183.595893 
L 263.758604 183.402307 
L 264.352122 184.323009 
L 266.132677 189.76191 
L 266.726196 190.803966 
L 267.319714 190.95944 
L 267.913233 190.28979 
L 269.100269 187.66936 
L 269.693788 186.101888 
L 270.287306 185.332341 
L 270.880824 185.462114 
L 271.474343 186.372267 
L 273.254898 190.440107 
L 273.848416 191.064231 
L 274.441935 191.033668 
L 275.035453 190.446873 
L 276.22249 188.630492 
L 276.816008 187.9697 
L 277.409526 188.085115 
L 278.003045 189.022381 
L 279.190081 191.667494 
L 279.7836 192.131643 
L 280.377118 191.882569 
L 280.970637 191.107693 
L 282.157673 189.189716 
L 282.751192 188.646213 
L 283.34471 188.689444 
L 283.938228 189.663466 
L 285.718783 193.824537 
L 286.312302 194.448375 
L 286.90582 194.388885 
L 287.499339 193.353436 
L 288.686375 190.185689 
L 289.279894 189.10348 
L 289.873412 189.168927 
L 290.46693 190.179186 
L 292.247485 195.004678 
L 292.841004 195.44646 
L 293.434522 195.173823 
L 294.621559 193.956576 
L 295.808596 192.348876 
L 296.402114 192.159197 
L 296.995632 192.511513 
L 297.589151 193.287062 
L 298.776187 195.211209 
L 299.369706 195.895816 
L 299.963224 196.199666 
L 300.556743 196.112897 
L 301.743779 195.220649 
L 302.337298 194.739859 
L 302.930816 194.761192 
L 304.711371 195.936392 
L 305.304889 195.945371 
L 306.491926 195.552225 
L 307.678963 195.185134 
L 308.272481 195.187527 
L 309.459518 195.56938 
L 310.646555 196.755066 
L 311.833591 195.647533 
L 312.42711 195.380796 
L 313.020628 195.327265 
L 313.614147 195.498013 
L 314.801183 196.03627 
L 315.98822 196.31537 
L 316.581738 196.321847 
L 317.175257 196.198677 
L 318.362294 196.362985 
L 321.329885 196.987138 
L 323.11044 197.067758 
L 324.890996 196.961664 
L 325.484514 196.78113 
L 326.671551 196.804263 
L 327.858587 197.072867 
L 328.452106 196.971013 
L 330.826179 195.104235 
L 331.419698 195.072271 
L 332.013216 195.303586 
L 332.606734 195.806084 
L 333.793771 197.130338 
L 334.387289 198.155667 
L 335.574326 200.574938 
L 336.167844 201.423164 
L 336.761363 201.835299 
L 337.354881 201.84044 
L 337.9484 201.516897 
L 339.135436 200.417298 
L 339.728955 199.721566 
L 340.322473 199.382482 
L 340.915991 199.410441 
L 341.50951 199.775122 
L 342.103028 199.709174 
L 342.696546 199.462761 
L 343.883583 198.315367 
L 344.477102 198.079415 
L 345.07062 198.694496 
L 346.257657 201.549946 
L 346.851175 202.201948 
L 347.444693 202.236578 
L 348.038212 201.789323 
L 348.63173 233.722083 
L 349.225248 218.579401 
L 350.412285 213.523041 
L 351.005804 211.903073 
L 351.599322 211.232633 
L 352.19284 210.762652 
L 352.786359 210.709193 
L 353.379877 211.007879 
L 354.566914 212.170425 
L 355.75395 213.430036 
L 356.347469 213.657075 
L 356.940987 214.037711 
L 357.534506 213.493384 
L 358.128024 211.654603 
L 358.721542 210.926586 
L 359.315061 210.840232 
L 359.908579 211.308812 
L 360.502097 212.203575 
L 361.689134 214.437672 
L 362.282652 214.301131 
L 362.876171 213.312703 
L 363.469689 211.824275 
L 364.063208 211.0336 
L 364.656726 211.126273 
L 365.250244 211.681716 
L 365.843763 211.4923 
L 367.030799 210.455535 
L 367.624318 210.385443 
L 368.217836 210.739845 
L 369.998391 210.715856 
L 370.59191 210.137282 
L 371.185428 209.912751 
L 371.778946 209.900569 
L 372.372465 210.040268 
L 372.965983 208.870211 
L 373.559501 208.758204 
L 374.15302 209.745009 
L 374.746538 208.607851 
L 375.340057 208.127807 
L 375.933575 208.138427 
L 376.527093 206.380229 
L 377.120612 206.135128 
L 377.71413 206.043164 
L 378.307648 206.199228 
L 378.901167 205.505284 
L 379.494685 205.532036 
L 380.088203 205.705559 
L 380.681722 204.637904 
L 381.27524 204.545241 
L 381.868759 202.857922 
L 382.462277 210.914877 
L 383.055795 186.922922 
L 383.649314 181.98779 
L 384.242832 172.472099 
L 384.83635 167.592305 
L 385.429869 186.185353 
L 386.023387 198.744631 
L 386.616905 205.244646 
L 387.210424 206.230384 
L 387.803942 191.978213 
L 388.397461 166.90481 
L 388.990979 166.40525 
L 389.584497 170.404944 
L 390.178016 170.803049 
L 398.487273 170.803049 
L 398.487273 170.803049 
" style="fill:none;stroke:#1f77b4;stroke-linecap:square;stroke-width:1.5;"/>
   </g>
   <g id="line2d_15">
    <path clip-path="url(#p7dfff05210)" d="M 73.832727 146.35377 
L 74.426246 132.654331 
L 75.019764 122.507376 
L 75.613282 117.206057 
L 76.206801 116.218099 
L 76.800319 119.573217 
L 78.580874 135.801991 
L 79.174393 139.593516 
L 79.767911 141.342431 
L 80.361429 140.666813 
L 80.954948 137.648797 
L 82.141984 126.771536 
L 83.329021 114.464064 
L 83.922539 109.518092 
L 84.516058 105.899558 
L 85.109576 103.474254 
L 85.703095 101.810382 
L 86.296613 101.115342 
L 86.890131 101.034452 
L 88.077168 101.457471 
L 88.670686 101.28393 
L 89.264205 100.601158 
L 89.857723 99.108979 
L 91.04476 95.019479 
L 93.418833 85.46177 
L 95.199388 79.80184 
L 96.386425 77.267973 
L 96.979943 76.265143 
L 99.354017 73.187362 
L 100.541054 70.392029 
L 102.321609 66.000097 
L 103.508646 63.844916 
L 105.289201 61.683468 
L 106.476237 60.308182 
L 107.069756 59.769891 
L 107.663274 59.40696 
L 108.256792 59.192128 
L 110.037348 57.693858 
L 112.411421 55.545741 
L 113.598458 54.867154 
L 117.159568 54.048366 
L 118.346605 53.63736 
L 118.940123 53.568 
L 119.533641 53.639086 
L 120.12716 53.847415 
L 121.314196 54.592078 
L 123.094752 55.911384 
L 123.68827 56.244396 
L 124.281788 56.316675 
L 125.468825 55.836812 
L 126.655862 55.344814 
L 127.24938 55.327038 
L 127.842898 55.524078 
L 128.436417 55.932584 
L 129.623454 57.203081 
L 130.81049 58.600377 
L 131.997527 59.595953 
L 133.184564 60.27969 
L 134.3716 60.616535 
L 135.558637 60.571989 
L 137.932711 60.210234 
L 139.119747 60.392091 
L 140.306784 60.93316 
L 142.680858 62.549773 
L 143.274376 63.059876 
L 145.054931 63.811484 
L 148.022523 64.843885 
L 150.396596 65.989529 
L 156.925298 69.365371 
L 157.518817 69.510269 
L 159.89289 68.856748 
L 160.486409 69.150093 
L 161.079927 69.758542 
L 162.266964 71.734705 
L 164.047519 75.022086 
L 164.641037 75.782611 
L 165.234555 76.280225 
L 165.828074 76.519275 
L 166.421592 76.541799 
L 167.608629 76.251979 
L 168.202147 76.303932 
L 168.795666 76.530597 
L 169.982702 77.316532 
L 171.169739 78.129967 
L 172.356776 78.64111 
L 172.950294 78.828134 
L 174.137331 79.651147 
L 175.324368 80.515577 
L 176.511404 81.057612 
L 177.698441 81.210927 
L 178.885478 81.127633 
L 180.072515 80.013135 
L 181.259551 79.083748 
L 181.85307 78.613754 
L 182.446588 78.42847 
L 183.040106 78.701526 
L 183.633625 79.501012 
L 184.227143 80.791334 
L 186.601217 87.595865 
L 187.194735 88.721047 
L 187.788253 89.346686 
L 188.381772 89.460964 
L 188.97529 89.125086 
L 189.568808 88.457558 
L 191.349363 86.067307 
L 191.942882 85.493903 
L 192.5364 85.219655 
L 193.129919 85.257692 
L 193.723437 85.581602 
L 194.910474 86.813933 
L 196.691029 88.886605 
L 197.284547 89.46874 
L 198.471584 90.913236 
L 199.065102 90.920225 
L 199.658621 90.467302 
L 200.252139 89.729403 
L 201.439176 87.244612 
L 202.032694 86.402036 
L 202.626212 86.238621 
L 203.219731 86.888262 
L 203.813249 88.578825 
L 205.000286 93.892362 
L 206.187323 98.927943 
L 206.780841 100.448559 
L 207.374359 101.069753 
L 207.967878 100.812177 
L 208.561396 99.836236 
L 209.748433 96.810569 
L 211.528988 91.573394 
L 212.122506 91.293542 
L 212.716025 92.043254 
L 213.309543 93.680579 
L 215.683616 102.676444 
L 216.277135 103.439109 
L 216.870653 103.007509 
L 217.464172 101.182967 
L 218.651208 96.67291 
L 219.244727 95.291305 
L 219.838245 95.066703 
L 220.431763 96.389992 
L 221.025282 99.137486 
L 222.805837 110.497677 
L 223.399355 112.265259 
L 223.992874 112.422884 
L 224.586392 111.160497 
L 225.17991 108.905445 
L 226.366947 103.614518 
L 226.960465 101.420106 
L 228.147502 98.918998 
L 228.74102 98.212705 
L 229.334539 98.260423 
L 229.928057 99.110612 
L 230.521576 100.695096 
L 231.708612 105.24805 
L 232.895649 109.66015 
L 233.489167 110.744481 
L 234.082686 111.206088 
L 234.676204 111.231482 
L 235.269722 110.746921 
L 235.863241 109.413609 
L 238.830833 99.192959 
L 239.424351 98.110493 
L 240.017869 98.077395 
L 240.611388 99.541251 
L 241.204906 102.02179 
L 242.985461 110.557359 
L 243.57898 111.558455 
L 244.172498 110.949372 
L 244.766016 108.787725 
L 245.953053 102.562315 
L 246.546571 100.506848 
L 247.14009 100.022789 
L 247.733608 101.288024 
L 248.327126 103.823712 
L 249.514163 109.855456 
L 250.107682 111.464826 
L 250.7012 111.962482 
L 251.294718 111.49264 
L 251.888237 110.367578 
L 253.075273 107.824642 
L 253.668792 107.122671 
L 254.26231 107.053369 
L 254.855828 107.601696 
L 255.449347 108.672075 
L 256.636384 112.000399 
L 257.229902 112.774483 
L 257.82342 112.961573 
L 258.416939 112.723765 
L 259.603975 111.913255 
L 260.197494 111.779462 
L 260.791012 112.00017 
L 261.38453 112.587613 
L 262.571567 114.516439 
L 263.758604 116.506187 
L 264.352122 117.220185 
L 264.945641 117.680078 
L 265.539159 117.900062 
L 266.726196 117.85725 
L 267.913233 117.682922 
L 268.506751 117.69981 
L 269.693788 117.953721 
L 270.287306 118.483747 
L 272.661379 121.727966 
L 273.254898 122.242218 
L 273.848416 122.536735 
L 274.441935 122.634048 
L 275.628971 122.476266 
L 276.816008 122.343665 
L 277.409526 122.815187 
L 278.003045 123.84348 
L 279.190081 126.443421 
L 279.7836 127.266786 
L 280.377118 127.572335 
L 280.970637 127.444356 
L 282.157673 126.488632 
L 282.751192 126.031703 
L 283.34471 125.906028 
L 283.938228 126.626017 
L 284.531747 127.880341 
L 286.312302 132.441101 
L 286.90582 133.527893 
L 287.499339 133.968356 
L 288.092857 133.682881 
L 289.279894 132.021825 
L 289.873412 131.647333 
L 290.46693 131.770991 
L 291.060449 132.374771 
L 291.653967 133.372914 
L 292.247485 134.620204 
L 294.028041 139.685504 
L 294.621559 140.588217 
L 295.215077 140.886045 
L 295.808596 140.421297 
L 296.995632 138.942145 
L 297.589151 138.208894 
L 298.182669 137.720432 
L 298.776187 137.597861 
L 299.369706 137.888607 
L 299.963224 138.56381 
L 301.150261 140.663185 
L 303.524334 145.123324 
L 304.117853 146.045464 
L 304.711371 146.406829 
L 305.304889 146.310386 
L 306.491926 145.383722 
L 307.085445 144.895418 
L 307.678963 144.59509 
L 308.272481 144.581253 
L 308.866 144.893172 
L 309.459518 145.480867 
L 310.053036 146.620983 
L 311.833591 150.646252 
L 312.42711 151.458474 
L 313.020628 151.836509 
L 313.614147 151.864593 
L 314.207665 151.473134 
L 315.98822 149.287317 
L 316.581738 148.98917 
L 317.175257 149.084045 
L 317.768775 149.897843 
L 318.955812 152.645815 
L 320.142849 155.351391 
L 320.736367 156.211484 
L 321.329885 156.629198 
L 321.923404 156.625476 
L 322.516922 156.292603 
L 324.890996 154.30379 
L 325.484514 154.07458 
L 326.078032 154.308189 
L 326.671551 154.875724 
L 327.858587 156.584791 
L 328.452106 157.7548 
L 329.639142 160.523192 
L 330.232661 161.653536 
L 330.826179 162.350079 
L 331.419698 162.535172 
L 332.013216 162.229936 
L 333.793771 160.309481 
L 334.387289 159.985863 
L 334.980808 160.072866 
L 335.574326 160.475652 
L 336.761363 161.917467 
L 337.9484 163.470429 
L 339.135436 164.579218 
L 340.322473 164.907176 
L 340.915991 165.182564 
L 341.50951 166.097971 
L 342.696546 168.321336 
L 343.290065 168.984853 
L 343.883583 169.210082 
L 344.477102 169.26637 
L 345.07062 168.689765 
L 345.664138 167.763359 
L 346.851175 164.470434 
L 347.444693 164.290176 
L 348.038212 164.99949 
L 348.63173 199.248737 
L 349.225248 188.022397 
L 349.818767 185.711284 
L 350.412285 182.483953 
L 352.786359 165.806532 
L 353.379877 163.422349 
L 353.973395 162.193635 
L 354.566914 162.121135 
L 355.160432 162.982302 
L 355.75395 164.616332 
L 356.347469 168.4602 
L 357.534506 173.402649 
L 358.128024 176.351506 
L 358.721542 177.320851 
L 359.315061 177.143876 
L 359.908579 176.006994 
L 361.689134 170.57318 
L 362.282652 170.034551 
L 362.876171 170.52749 
L 363.469689 171.723712 
L 364.063208 172.601865 
L 364.656726 172.790161 
L 365.250244 172.470844 
L 365.843763 172.755241 
L 367.624318 174.347825 
L 368.217836 174.142978 
L 369.998391 174.650657 
L 370.59191 175.397071 
L 371.185428 175.840936 
L 371.778946 176.07668 
L 372.372465 175.89743 
L 372.965983 177.106916 
L 373.559501 177.331797 
L 374.15302 177.320759 
L 375.340057 177.948845 
L 375.933575 177.553849 
L 376.527093 178.771193 
L 377.71413 177.752 
L 378.307648 176.985228 
L 378.901167 177.140888 
L 379.494685 176.729554 
L 380.088203 176.106424 
L 380.681722 176.878792 
L 381.27524 175.292779 
L 381.868759 173.235366 
L 382.462277 230.825854 
L 383.055795 162.721945 
L 383.649314 185.532407 
L 384.242832 194.111145 
L 384.83635 185.397333 
L 385.429869 196.500408 
L 386.023387 184.928583 
L 386.616905 177.736117 
L 387.210424 190.930959 
L 387.803942 195.648155 
L 388.397461 169.168518 
L 388.990979 164.728617 
L 389.584497 169.133451 
L 390.178016 169.571975 
L 398.487273 169.571975 
L 398.487273 169.571975 
" style="fill:none;stroke:#ff7f0e;stroke-linecap:square;stroke-width:1.5;"/>
   </g>
   <g id="line2d_16">
    <path clip-path="url(#p7dfff05210)" d="M 73.832727 172.566027 
L 74.426246 169.712311 
L 75.613282 161.869115 
L 77.393837 153.935811 
L 77.987356 154.710135 
L 78.580874 156.285383 
L 79.767911 161.418326 
L 80.361429 163.974897 
L 80.954948 165.665608 
L 81.548466 165.951237 
L 82.141984 165.92307 
L 82.735503 166.689854 
L 83.329021 166.973951 
L 83.922539 166.777726 
L 85.109576 165.493384 
L 85.703095 164.175281 
L 86.296613 163.19606 
L 86.890131 162.740703 
L 87.48365 163.056629 
L 89.264205 170.511709 
L 89.857723 171.81824 
L 90.451241 171.627906 
L 91.04476 170.424006 
L 92.231797 167.373517 
L 92.825315 166.346354 
L 93.418833 167.649661 
L 94.012352 169.510743 
L 95.792907 173.137183 
L 96.386425 173.506161 
L 96.979943 173.293152 
L 97.573462 172.326631 
L 98.760499 168.721586 
L 99.354017 167.937738 
L 99.947535 167.716552 
L 100.541054 167.91188 
L 101.72809 169.041967 
L 102.321609 169.590441 
L 102.915127 169.922875 
L 103.508646 169.974949 
L 104.102164 171.899502 
L 104.695682 181.752888 
L 105.289201 185.895833 
L 105.882719 185.580427 
L 107.663274 173.760282 
L 108.256792 171.163861 
L 108.850311 170.448212 
L 109.443829 171.362879 
L 110.037348 173.55142 
L 111.224384 179.174053 
L 111.817903 181.321424 
L 112.411421 182.464788 
L 113.004939 182.448829 
L 114.191976 179.908933 
L 114.785494 178.41043 
L 115.379013 177.321865 
L 115.972531 176.843551 
L 116.56605 176.621733 
L 117.159568 176.826114 
L 117.753086 177.425355 
L 118.940123 179.178032 
L 119.533641 178.871942 
L 120.720678 178.586406 
L 121.907715 178.472273 
L 123.094752 178.619455 
L 123.68827 178.778978 
L 124.281788 179.364379 
L 126.655862 183.123157 
L 127.24938 183.542857 
L 127.842898 183.639829 
L 128.436417 183.452252 
L 129.623454 182.579366 
L 130.81049 181.708728 
L 131.404009 181.464268 
L 132.591045 181.208914 
L 133.778082 180.487032 
L 134.3716 180.255107 
L 134.965119 180.187106 
L 135.558637 180.284058 
L 136.152156 180.506453 
L 137.932711 180.670862 
L 139.713266 180.567118 
L 142.680858 180.071001 
L 143.274376 178.633288 
L 143.867894 178.475601 
L 144.461413 178.879857 
L 145.648449 180.640763 
L 146.241968 181.501715 
L 146.835486 181.871859 
L 149.20956 179.019069 
L 149.803078 178.502122 
L 150.396596 178.199913 
L 150.990115 178.121054 
L 151.583633 178.233825 
L 154.551225 179.339684 
L 155.144743 179.295195 
L 156.33178 178.893947 
L 156.925298 178.609417 
L 157.518817 178.779036 
L 158.112335 179.752179 
L 159.89289 183.26291 
L 160.486409 183.826852 
L 161.079927 183.826833 
L 161.673445 183.305676 
L 163.454 180.615951 
L 164.047519 180.077688 
L 164.641037 179.93267 
L 165.234555 180.149379 
L 167.608629 181.999281 
L 168.795666 184.061484 
L 171.169739 182.854762 
L 172.950294 181.716937 
L 174.730849 178.874897 
L 175.324368 178.410687 
L 175.917886 178.400362 
L 176.511404 178.786343 
L 178.291959 180.657608 
L 178.885478 180.695245 
L 179.478996 179.38332 
L 180.666033 175.624122 
L 181.259551 174.631866 
L 181.85307 175.041049 
L 182.446588 176.324177 
L 184.227143 182.146741 
L 184.820661 183.196068 
L 185.41418 183.301969 
L 186.007698 182.543171 
L 187.788253 178.470794 
L 188.381772 177.770642 
L 188.97529 177.738377 
L 189.568808 178.323766 
L 190.162327 179.314073 
L 190.755845 180.637805 
L 191.349363 181.510433 
L 191.942882 182.009501 
L 192.5364 182.024232 
L 193.129919 181.614211 
L 194.910474 179.69083 
L 195.503992 179.448998 
L 196.09751 179.559595 
L 197.284547 180.384162 
L 197.878065 179.502417 
L 198.471584 178.073996 
L 199.065102 178.582651 
L 200.252139 183.027192 
L 200.845657 182.844873 
L 201.439176 180.704934 
L 202.626212 174.414967 
L 203.219731 172.098387 
L 203.813249 172.270651 
L 204.406767 174.929429 
L 206.187323 186.77559 
L 206.780841 188.668501 
L 207.374359 188.716528 
L 207.967878 187.168111 
L 209.748433 180.01612 
L 210.341951 181.577694 
L 212.122506 195.465104 
L 212.716025 196.48997 
L 213.309543 194.999772 
L 213.903061 191.576947 
L 215.090098 183.13636 
L 215.683616 180.201895 
L 216.277135 179.370295 
L 216.870653 180.808885 
L 217.464172 182.677062 
L 218.651208 187.69948 
L 219.244727 189.3827 
L 219.838245 189.987176 
L 220.431763 188.809006 
L 222.212318 179.693716 
L 222.805837 178.913995 
L 223.399355 182.443902 
L 225.17991 199.510184 
L 225.773429 201.731577 
L 226.366947 200.896169 
L 226.960465 196.918001 
L 228.147502 180.254914 
L 228.74102 175.808212 
L 229.334539 174.213071 
L 229.928057 175.82197 
L 230.521576 179.868751 
L 231.708612 189.667139 
L 232.302131 192.656097 
L 232.895649 193.328179 
L 233.489167 195.025632 
L 234.082686 197.482095 
L 234.676204 198.094694 
L 235.269722 197.149669 
L 235.863241 193.510539 
L 237.643796 175.392859 
L 238.237314 174.415116 
L 238.830833 179.159791 
L 240.017869 195.658417 
L 240.611388 201.071977 
L 241.204906 202.058142 
L 241.798424 198.913381 
L 243.57898 181.237394 
L 244.172498 181.562427 
L 245.359535 186.807825 
L 246.546571 193.820168 
L 247.14009 195.958627 
L 247.733608 194.963292 
L 248.327126 191.741917 
L 248.920645 187.429777 
L 249.514163 184.509759 
L 250.107682 185.378046 
L 250.7012 188.811777 
L 251.888237 198.79383 
L 252.481755 207.654274 
L 253.075273 211.020281 
L 253.668792 209.884773 
L 254.26231 205.088094 
L 256.042865 185.563826 
L 256.636384 182.597011 
L 257.229902 184.212644 
L 257.82342 189.203755 
L 259.010457 202.357696 
L 259.603975 206.834792 
L 260.197494 208.315809 
L 260.791012 206.689488 
L 261.38453 202.707111 
L 262.571567 193.184177 
L 263.165086 190.387624 
L 263.758604 189.981728 
L 264.352122 191.91218 
L 266.132677 203.31601 
L 266.726196 205.500904 
L 267.319714 205.826889 
L 267.913233 204.422824 
L 269.100269 198.928526 
L 269.693788 195.641984 
L 270.287306 194.028461 
L 270.880824 194.300558 
L 271.474343 196.20889 
L 273.254898 204.737997 
L 273.848416 206.046606 
L 274.441935 205.982525 
L 275.035453 204.752182 
L 276.22249 200.943747 
L 276.816008 199.558255 
L 277.409526 199.800247 
L 278.003045 201.765427 
L 279.190081 207.311477 
L 279.7836 208.284667 
L 280.377118 207.762428 
L 280.970637 206.137735 
L 282.157673 202.116281 
L 282.751192 200.97671 
L 283.34471 201.067354 
L 283.938228 203.109601 
L 285.718783 211.834183 
L 286.312302 213.142195 
L 286.90582 213.01746 
L 287.499339 210.84642 
L 288.686375 204.204554 
L 289.279894 201.93547 
L 289.873412 202.072692 
L 290.46693 204.190918 
L 292.247485 214.308605 
L 292.841004 215.234896 
L 293.434522 214.663254 
L 294.028041 213.528305 
L 294.621559 212.111031 
L 295.808596 208.740143 
L 296.402114 208.34244 
L 296.995632 209.081146 
L 297.589151 210.707252 
L 298.776187 214.741642 
L 299.369706 216.177067 
L 299.963224 216.814154 
L 300.556743 216.632225 
L 301.150261 215.832352 
L 302.337298 213.753354 
L 302.930816 213.798083 
L 303.524334 214.652634 
L 304.117853 215.78116 
L 304.711371 216.262144 
L 305.304889 216.280969 
L 305.898408 215.956354 
L 307.085445 214.976622 
L 307.678963 214.686969 
L 308.272481 214.691987 
L 308.866 215.009121 
L 309.459518 215.492624 
L 310.646555 217.978671 
L 311.833591 215.656489 
L 312.42711 215.097217 
L 313.020628 214.984977 
L 313.614147 215.342988 
L 314.801183 216.471559 
L 315.394702 216.850058 
L 315.98822 217.056754 
L 316.581738 217.070333 
L 317.175257 216.812081 
L 317.768775 216.923958 
L 318.955812 217.450495 
L 320.736367 218.284928 
L 321.923404 218.580615 
L 323.11044 218.634296 
L 324.297477 218.676167 
L 326.078032 217.972048 
L 326.671551 218.081824 
L 327.858587 218.645009 
L 328.452106 218.431449 
L 329.045624 217.421676 
L 330.232661 215.140739 
L 330.826179 214.517348 
L 331.419698 214.450328 
L 332.013216 214.93533 
L 332.606734 215.988925 
L 333.793771 218.765509 
L 334.387289 220.915334 
L 335.574326 225.987856 
L 336.167844 227.766346 
L 336.761363 228.630476 
L 337.354881 228.641255 
L 337.9484 227.962877 
L 339.135436 225.657331 
L 339.728955 224.198577 
L 340.322473 223.487614 
L 340.915991 223.546238 
L 341.50951 224.31087 
L 342.103028 224.172595 
L 342.696546 223.655938 
L 343.883583 221.250178 
L 344.477102 220.755455 
L 345.07062 222.045104 
L 346.257657 228.032171 
L 346.851175 229.399233 
L 347.444693 229.471844 
L 348.038212 228.534078 
L 348.63173 295.488 
L 349.225248 263.738099 
L 350.412285 253.13635 
L 351.005804 249.739737 
L 351.599322 248.334015 
L 352.19284 247.348597 
L 352.786359 247.23651 
L 353.379877 247.862769 
L 354.566914 250.300299 
L 355.75395 252.941344 
L 356.347469 253.41738 
L 356.940987 254.215466 
L 357.534506 253.074167 
L 358.128024 249.218766 
L 358.721542 247.692321 
L 359.315061 247.511261 
L 359.908579 248.493741 
L 360.502097 250.369804 
L 361.689134 255.05407 
L 362.282652 254.767782 
L 362.876171 252.695331 
L 363.469689 249.574519 
L 364.063208 247.916699 
L 364.656726 248.111008 
L 365.250244 249.275615 
L 365.843763 248.878462 
L 366.437281 247.912441 
L 367.030799 246.704661 
L 367.624318 246.557697 
L 368.217836 247.300779 
L 369.998391 247.25048 
L 370.59191 246.037376 
L 371.185428 245.566596 
L 371.778946 245.541054 
L 372.372465 245.833964 
L 372.965983 243.380686 
L 373.559501 243.14584 
L 374.15302 245.214891 
L 374.746538 242.830594 
L 375.340057 241.824076 
L 375.933575 241.846345 
L 376.527093 238.159903 
L 377.120612 237.645996 
L 377.71413 237.453174 
L 378.307648 237.780395 
L 378.901167 236.325391 
L 379.494685 236.381483 
L 380.088203 236.74531 
L 380.681722 234.506741 
L 381.27524 234.312453 
L 381.868759 230.774626 
L 382.462277 247.667771 
L 383.055795 197.363458 
L 383.649314 187.015888 
L 384.242832 167.064189 
L 384.83635 156.832647 
L 385.429869 195.816986 
L 386.023387 222.150224 
L 386.616905 235.778907 
L 387.210424 237.845719 
L 387.803942 207.962967 
L 388.397461 155.391165 
L 388.990979 154.343731 
L 389.584497 162.729952 
L 390.178016 163.564665 
L 398.487273 163.564665 
L 398.487273 163.564665 
" style="fill:none;stroke:#2ca02c;stroke-linecap:square;stroke-width:1.5;"/>
   </g>
   <g id="patch_3">
    <path d="M 57.6 307.584 
L 57.6 41.472 
" style="fill:none;stroke:#000000;stroke-linecap:square;stroke-linejoin:miter;stroke-width:0.8;"/>
   </g>
   <g id="patch_4">
    <path d="M 414.72 307.584 
L 414.72 41.472 
" style="fill:none;stroke:#000000;stroke-linecap:square;stroke-linejoin:miter;stroke-width:0.8;"/>
   </g>
   <g id="patch_5">
    <path d="M 57.6 307.584 
L 414.72 307.584 
" style="fill:none;stroke:#000000;stroke-linecap:square;stroke-linejoin:miter;stroke-width:0.8;"/>
   </g>
   <g id="patch_6">
    <path d="M 57.6 41.472 
L 414.72 41.472 
" style="fill:none;stroke:#000000;stroke-linecap:square;stroke-linejoin:miter;stroke-width:0.8;"/>
   </g>
   <g id="legend_1">
    <g id="patch_7">
     <path d="M 68.1 300.084 
L 214.605469 300.084 
Q 217.605469 300.084 217.605469 297.084 
L 217.605469 232.532437 
Q 217.605469 229.532437 214.605469 229.532437 
L 68.1 229.532437 
Q 65.1 229.532437 65.1 232.532437 
L 65.1 297.084 
Q 65.1 300.084 68.1 300.084 
z
" style="fill:#ffffff;opacity:0.8;stroke:#cccccc;stroke-linejoin:miter;"/>
    </g>
    <g id="line2d_17">
     <path d="M 71.1 241.680094 
L 101.1 241.680094 
" style="fill:none;stroke:#1f77b4;stroke-linecap:square;stroke-width:1.5;"/>
    </g>
    <g id="line2d_18"/>
    <g id="text_16">
     <!-- x component -->
     <g transform="translate(113.1 246.930094)scale(0.15 -0.15)">
      <defs>
       <path d="M 3513 3500 
L 2247 1797 
L 3578 0 
L 2900 0 
L 1881 1375 
L 863 0 
L 184 0 
L 1544 1831 
L 300 3500 
L 978 3500 
L 1906 2253 
L 2834 3500 
L 3513 3500 
z
" id="DejaVuSans-78" transform="scale(0.015625)"/>
       <path d="M 3122 3366 
L 3122 2828 
Q 2878 2963 2633 3030 
Q 2388 3097 2138 3097 
Q 1578 3097 1268 2742 
Q 959 2388 959 1747 
Q 959 1106 1268 751 
Q 1578 397 2138 397 
Q 2388 397 2633 464 
Q 2878 531 3122 666 
L 3122 134 
Q 2881 22 2623 -34 
Q 2366 -91 2075 -91 
Q 1284 -91 818 406 
Q 353 903 353 1747 
Q 353 2603 823 3093 
Q 1294 3584 2113 3584 
Q 2378 3584 2631 3529 
Q 2884 3475 3122 3366 
z
" id="DejaVuSans-63" transform="scale(0.015625)"/>
       <path d="M 1159 525 
L 1159 -1331 
L 581 -1331 
L 581 3500 
L 1159 3500 
L 1159 2969 
Q 1341 3281 1617 3432 
Q 1894 3584 2278 3584 
Q 2916 3584 3314 3078 
Q 3713 2572 3713 1747 
Q 3713 922 3314 415 
Q 2916 -91 2278 -91 
Q 1894 -91 1617 61 
Q 1341 213 1159 525 
z
M 3116 1747 
Q 3116 2381 2855 2742 
Q 2594 3103 2138 3103 
Q 1681 3103 1420 2742 
Q 1159 2381 1159 1747 
Q 1159 1113 1420 752 
Q 1681 391 2138 391 
Q 2594 391 2855 752 
Q 3116 1113 3116 1747 
z
" id="DejaVuSans-70" transform="scale(0.015625)"/>
       <path d="M 3513 2113 
L 3513 0 
L 2938 0 
L 2938 2094 
Q 2938 2591 2744 2837 
Q 2550 3084 2163 3084 
Q 1697 3084 1428 2787 
Q 1159 2491 1159 1978 
L 1159 0 
L 581 0 
L 581 3500 
L 1159 3500 
L 1159 2956 
Q 1366 3272 1645 3428 
Q 1925 3584 2291 3584 
Q 2894 3584 3203 3211 
Q 3513 2838 3513 2113 
z
" id="DejaVuSans-6e" transform="scale(0.015625)"/>
       <path d="M 1172 4494 
L 1172 3500 
L 2356 3500 
L 2356 3053 
L 1172 3053 
L 1172 1153 
Q 1172 725 1289 603 
Q 1406 481 1766 481 
L 2356 481 
L 2356 0 
L 1766 0 
Q 1100 0 847 248 
Q 594 497 594 1153 
L 594 3053 
L 172 3053 
L 172 3500 
L 594 3500 
L 594 4494 
L 1172 4494 
z
" id="DejaVuSans-74" transform="scale(0.015625)"/>
      </defs>
      <use xlink:href="#DejaVuSans-78"/>
      <use x="59.179688" xlink:href="#DejaVuSans-20"/>
      <use x="90.966797" xlink:href="#DejaVuSans-63"/>
      <use x="145.947266" xlink:href="#DejaVuSans-6f"/>
      <use x="207.128906" xlink:href="#DejaVuSans-6d"/>
      <use x="304.541016" xlink:href="#DejaVuSans-70"/>
      <use x="368.017578" xlink:href="#DejaVuSans-6f"/>
      <use x="429.199219" xlink:href="#DejaVuSans-6e"/>
      <use x="492.578125" xlink:href="#DejaVuSans-65"/>
      <use x="554.101562" xlink:href="#DejaVuSans-6e"/>
      <use x="617.480469" xlink:href="#DejaVuSans-74"/>
     </g>
    </g>
    <g id="line2d_19">
     <path d="M 71.1 263.697281 
L 101.1 263.697281 
" style="fill:none;stroke:#ff7f0e;stroke-linecap:square;stroke-width:1.5;"/>
    </g>
    <g id="line2d_20"/>
    <g id="text_17">
     <!-- y component -->
     <g transform="translate(113.1 268.947281)scale(0.15 -0.15)">
      <defs>
       <path d="M 2059 -325 
Q 1816 -950 1584 -1140 
Q 1353 -1331 966 -1331 
L 506 -1331 
L 506 -850 
L 844 -850 
Q 1081 -850 1212 -737 
Q 1344 -625 1503 -206 
L 1606 56 
L 191 3500 
L 800 3500 
L 1894 763 
L 2988 3500 
L 3597 3500 
L 2059 -325 
z
" id="DejaVuSans-79" transform="scale(0.015625)"/>
      </defs>
      <use xlink:href="#DejaVuSans-79"/>
      <use x="59.179688" xlink:href="#DejaVuSans-20"/>
      <use x="90.966797" xlink:href="#DejaVuSans-63"/>
      <use x="145.947266" xlink:href="#DejaVuSans-6f"/>
      <use x="207.128906" xlink:href="#DejaVuSans-6d"/>
      <use x="304.541016" xlink:href="#DejaVuSans-70"/>
      <use x="368.017578" xlink:href="#DejaVuSans-6f"/>
      <use x="429.199219" xlink:href="#DejaVuSans-6e"/>
      <use x="492.578125" xlink:href="#DejaVuSans-65"/>
      <use x="554.101562" xlink:href="#DejaVuSans-6e"/>
      <use x="617.480469" xlink:href="#DejaVuSans-74"/>
     </g>
    </g>
    <g id="line2d_21">
     <path d="M 71.1 285.714469 
L 101.1 285.714469 
" style="fill:none;stroke:#2ca02c;stroke-linecap:square;stroke-width:1.5;"/>
    </g>
    <g id="line2d_22"/>
    <g id="text_18">
     <!-- z component -->
     <g transform="translate(113.1 290.964469)scale(0.15 -0.15)">
      <defs>
       <path d="M 353 3500 
L 3084 3500 
L 3084 2975 
L 922 459 
L 3084 459 
L 3084 0 
L 275 0 
L 275 525 
L 2438 3041 
L 353 3041 
L 353 3500 
z
" id="DejaVuSans-7a" transform="scale(0.015625)"/>
      </defs>
      <use xlink:href="#DejaVuSans-7a"/>
      <use x="52.490234" xlink:href="#DejaVuSans-20"/>
      <use x="84.277344" xlink:href="#DejaVuSans-63"/>
      <use x="139.257812" xlink:href="#DejaVuSans-6f"/>
      <use x="200.439453" xlink:href="#DejaVuSans-6d"/>
      <use x="297.851562" xlink:href="#DejaVuSans-70"/>
      <use x="361.328125" xlink:href="#DejaVuSans-6f"/>
      <use x="422.509766" xlink:href="#DejaVuSans-6e"/>
      <use x="485.888672" xlink:href="#DejaVuSans-65"/>
      <use x="547.412109" xlink:href="#DejaVuSans-6e"/>
      <use x="610.791016" xlink:href="#DejaVuSans-74"/>
     </g>
    </g>
   </g>
  </g>
 </g>
 <defs>
  <clipPath id="p7dfff05210">
   <rect height="266.112" width="357.12" x="57.6" y="41.472"/>
  </clipPath>
 </defs>
</svg>
