####
#
# OBJ File Generated by Meshlab
#
####
# Object condyleSurfaceLowQuality.obj
#
# Vertices: 132
# Faces: 212
#
####
vn 1.839069 2.960519 2.291613
v 54.325294 36.699703 80.774055
vn 0.961164 -2.097849 1.919381
v 57.171921 28.268049 81.876266
vn -0.542950 0.725427 6.052354
v 50.407925 33.745216 83.529755
vn -1.174796 -1.197354 5.786116
v 52.487839 31.692268 83.749451
vn 0.777269 1.816153 1.054647
v 54.048805 37.209652 80.127296
vn -2.021304 -3.070102 1.506333
v 52.009415 28.727737 80.368790
vn -1.971449 -3.870956 1.557368
v 50.884159 29.350866 80.385788
vn 2.298919 -1.255235 3.156815
v 57.838875 29.285223 82.377487
vn -0.142210 2.357435 5.767259
v 50.018074 35.045990 83.099190
vn 0.709473 -0.800801 5.684580
v 55.314087 30.949650 83.982941
vn -1.788003 -2.011842 5.428391
v 49.460979 32.474506 83.222923
vn -1.033038 -1.929290 0.460827
v 48.147057 30.523342 79.417145
vn -1.992583 -3.372862 4.764990
v 52.945423 30.218037 83.159668
vn 3.818809 1.680119 4.196453
v 57.337887 31.971008 82.887962
vn 1.315210 -0.283987 1.297803
v 58.420891 29.513706 81.837662
vn 1.635010 3.729656 4.720724
v 53.357590 35.779919 82.223396
vn 1.159348 4.994875 3.498814
v 51.595417 37.644958 80.894257
vn -0.905004 -1.746230 0.478975
v 50.409023 29.409918 79.577393
vn -0.034283 -3.729688 4.713755
v 55.599339 28.816547 82.900063
vn 2.679520 2.092363 1.460335
v 56.793468 34.241882 80.960907
vn -2.264968 -2.877145 4.950564
v 47.605598 32.721649 82.544289
vn 2.198286 1.300459 5.430739
v 55.988571 32.017006 83.699585
vn 0.542905 3.288371 5.303481
v 51.082878 35.825562 82.626610
vn 1.904539 -0.209948 1.887478
v 58.505829 30.221214 81.906403
vn 2.361369 3.665317 4.372556
v 55.344440 34.113987 82.731537
vn 1.216933 3.147318 5.212481
v 54.058453 34.175880 83.133522
vn 0.768558 3.031854 1.621577
v 52.474720 37.964600 79.933334
vn -2.891079 -4.464155 3.155520
v 46.880699 31.917782 81.330605
vn 2.964195 3.123942 4.314849
v 56.294846 33.068932 83.020241
vn 3.053732 2.196393 2.102994
v 57.593136 32.717873 81.897949
vn -1.833415 -4.585405 3.769507
v 54.401993 28.296421 81.979477
vn 3.304654 0.777820 2.873971
v 58.256866 30.949833 82.125359
vn -1.161223 -1.861991 0.290370
v 46.219883 31.671415 79.177109
vn 4.846199 1.777174 3.409891
v 57.943932 31.619644 82.241371
vn -1.206230 -2.409276 1.893451
v 54.278419 27.763012 81.222031
vn 2.198112 1.027439 1.164430
v 58.156593 32.009338 81.496078
vn 0.436917 2.117304 1.006998
v 51.942959 38.213238 79.548607
vn -1.560075 -1.776802 0.176030
v 45.363098 32.270004 78.972702
vn -0.260594 4.403116 4.327591
v 47.085918 37.601517 81.474144
vn -2.192228 -1.750116 5.359014
v 46.544201 33.764244 82.631813
vn 0.614036 3.395521 1.580102
v 50.975491 38.402370 79.692116
vn -3.592840 -4.684203 1.738078
v 44.935001 32.784035 80.367165
vn 0.151276 5.155168 3.460307
v 48.263329 38.122437 80.818825
vn 0.605606 5.715291 2.428210
v 49.609875 38.435741 80.036339
vn -3.975254 -4.737577 0.722527
v 43.749241 33.602482 79.699295
vn -2.233167 -2.112582 0.313790
v 42.605450 34.572453 78.915253
vn 0.224579 2.183057 0.633797
v 49.920311 38.702019 79.009171
vn -0.056732 1.766513 0.279129
v 44.062401 38.818203 78.513298
vn 0.040226 4.124971 0.933901
v 44.701153 38.759342 79.110664
vn -0.189880 3.542369 0.991690
v 46.453522 38.783207 79.144463
vn 0.069680 3.782149 1.440181
v 48.069073 38.756966 79.516014
vn -0.781864 3.841712 0.546416
v 43.443005 38.744801 78.929932
vn -3.345456 -3.585449 3.229904
v 44.112766 33.812225 81.261131
vn -1.369440 0.969266 -0.485427
v 42.234901 37.754906 78.485397
vn -3.278233 1.733336 -0.512587
v 41.957199 37.515404 78.790604
vn -1.826711 -0.349174 -0.294655
v 41.864101 36.202103 78.504303
vn -3.790826 0.065510 -0.466332
v 41.706699 36.708603 78.879898
vn -2.956437 2.796513 -0.660090
v 42.376301 38.088604 78.752800
vn -0.378244 5.700546 2.195493
v 44.049328 38.622250 79.750763
vn -1.262872 2.062041 -0.234428
v 42.754299 38.353004 78.599297
vn -3.364786 -1.563028 0.264884
v 41.920399 35.447002 79.050102
vn -5.958014 0.139223 -0.076413
v 41.620369 36.734829 79.654160
vn -0.137183 5.709274 2.512881
v 45.603340 38.473534 80.022217
vn -0.255190 4.586786 4.095252
v 44.719116 37.954552 80.880341
vn -2.855812 3.912709 1.466679
v 42.246731 38.205574 80.036781
vn -1.130628 3.774541 4.403597
v 43.404957 37.743622 81.024803
vn -4.031332 2.003212 2.169043
v 41.760780 37.375843 80.457794
vn -4.124176 -0.775929 2.767806
v 41.799129 36.377800 80.812057
vn -2.666911 0.176932 4.948895
v 42.586502 36.408585 81.355209
vn -2.595966 -5.251544 2.199188
v 50.268032 29.823586 80.784729
vn 2.567115 4.072502 3.929826
v 54.156658 36.226345 81.452324
vn -2.577514 -4.785134 3.079915
v 49.256966 30.721577 81.522820
vn 0.311580 2.449744 5.730113
v 51.103436 34.748596 83.209656
vn -2.011852 -3.588469 4.628552
v 51.473953 30.759462 82.913406
vn 3.686558 -0.345704 4.831523
v 57.615334 30.441465 82.820084
vn -1.195009 -1.307295 5.798846
v 50.714073 32.409515 83.522644
vn 0.024254 1.465646 6.002983
v 52.053131 33.613529 83.568764
vn 1.727615 1.938614 1.329830
v 56.096657 35.110664 80.673553
vn 3.806100 3.910273 2.925380
v 56.409508 34.238716 81.669960
vn 1.972126 -3.022493 4.775621
v 56.876999 29.025976 82.795212
vn -1.856344 -3.348079 0.842757
v 47.549297 30.896976 79.750427
vn 1.826405 4.654021 3.661050
v 53.227829 36.977470 81.132179
vn -1.676701 -2.775656 1.712102
v 53.265697 28.160131 80.842339
vn -2.521510 -4.115299 3.872761
v 48.300434 31.637623 82.057472
vn 2.169412 -1.289439 5.391782
v 56.504276 30.323235 83.477936
vn 0.832958 3.062689 5.389643
v 52.286274 35.210575 82.840462
vn -0.736851 -0.798204 5.918980
v 53.832348 31.368656 83.917931
vn -2.569292 -4.350970 3.689800
v 53.134743 29.201365 82.252747
vn 1.099162 3.979819 4.657460
v 52.115574 36.452690 82.037766
vn -3.300065 -4.948973 1.773121
v 46.230309 31.846218 80.339722
vn -0.599828 -2.769410 5.383822
v 54.694099 30.044483 83.612770
vn -1.727976 -3.993545 4.413617
v 54.164024 29.183413 82.848778
vn 0.072154 3.780005 4.909086
v 48.619617 36.966911 82.048836
vn 0.676997 4.070307 4.679503
v 50.534103 36.903645 81.928070
vn 0.590660 4.923864 3.699383
v 49.805592 37.846569 81.081917
vn -3.027745 -3.957559 3.634765
v 46.055004 32.731667 81.622070
vn -2.731275 -3.759147 0.635495
v 45.681717 32.053558 79.598099
vn -1.138799 1.041981 5.896885
v 46.875092 35.207222 82.799561
vn 1.561601 0.643398 0.828017
v 58.468929 31.333666 81.473465
vn -1.765516 -2.197154 0.131116
v 44.555122 32.954079 78.699783
vn -1.987785 -2.388696 0.001074
v 43.570450 33.750854 78.785950
vn -1.848995 0.311404 5.809764
v 45.658283 35.228432 82.460281
vn -0.046170 2.312330 0.620566
v 45.610355 38.806015 78.783859
vn -0.827500 3.016868 5.310782
v 46.168633 36.642754 82.119957
vn -4.198038 -3.404531 2.364746
v 42.737106 34.722004 80.497894
vn 1.604717 1.769215 1.516778
v 55.049664 36.199806 80.601318
vn 0.505481 -4.602481 3.997156
v 56.084286 28.105932 82.147446
vn -2.126230 -3.681826 4.501384
v 50.049564 31.254633 82.670906
vn -1.245479 0.218608 5.939022
v 48.921879 33.945976 83.300110
vn -0.998320 -1.810254 0.851397
v 51.481094 28.942278 80.072281
vn -0.252317 -2.200180 1.752639
v 55.485149 27.432032 81.271034
vn 0.418464 -1.993689 1.429693
v 56.363781 27.576326 81.327110
vn -0.109616 2.217316 0.576020
v 47.457336 38.838673 79.004196
vn -2.738506 -2.831930 4.567851
v 45.356441 33.676952 81.989937
vn -2.683299 -5.315618 1.920652
v 49.174549 30.238195 80.444397
vn -2.329567 -4.707223 3.334133
v 50.842449 30.095585 81.854805
vn -1.652888 -3.144486 0.797081
v 48.628265 30.312023 79.673225
vn 2.809152 3.934444 3.890554
v 54.881897 35.254040 81.917862
vn -0.428951 2.101135 5.831244
v 48.466537 35.424049 82.871216
vn 0.197564 3.213133 5.368900
v 49.812363 36.128170 82.534004
vn 1.412420 1.123907 0.672557
v 57.236950 33.762436 80.728180
vn -0.445794 4.630438 4.091062
v 46.032444 37.818581 81.123245
vn -2.839943 -1.268898 5.162952
v 43.964088 35.078640 81.801849
vn -2.600048 -4.719431 3.164759
v 51.959492 29.415270 81.638916
vn -0.427667 2.899135 5.496602
v 47.263489 36.293652 82.414597
vn -0.919943 -1.544280 0.589519
v 52.633522 28.257637 80.111252
vn -1.311288 1.958091 5.545776
v 44.318851 36.517994 81.865349
vn 1.037772 2.033065 5.614029
v 54.992702 32.741924 83.720970
vn -1.353249 -0.634353 5.930418
v 47.688480 33.963997 82.998886
vn -0.200855 5.637253 2.576026
v 46.927395 38.531883 80.084297
vn -2.811867 -5.142936 2.110525
v 47.904953 30.915485 80.516159
vn 0.037223 1.465692 5.972590
v 53.422394 32.966629 83.751740
# 132 vertices, 0 vertices normals

f 80//80 107//107 2//2
f 8//8 80//80 2//2
f 5//5 82//82 1//1
f 124//124 7//7 110//110
f 27//27 17//17 82//82
f 24//24 8//8 15//15
f 80//80 8//8 75//75
f 82//82 16//16 71//71
f 128//128 22//22 29//29
f 12//12 131//131 81//81
f 19//19 31//31 107//107
f 107//107 111//111 112//112
f 24//24 75//75 8//8
f 30//30 29//29 14//14
f 29//29 30//30 79//79
f 17//17 27//27 37//37
f 91//91 13//13 92//92
f 19//19 91//91 92//92
f 121//121 79//79 30//30
f 17//17 37//37 41//41
f 97//97 90//90 42//42
f 53//53 42//42 114//114
f 38//38 42//42 100//100
f 119//119 98//98 129//129
f 98//98 102//102 40//40
f 129//129 98//98 40//40
f 47//47 51//51 44//44
f 59//59 49//49 48//48
f 130//130 51//51 113//113
f 114//114 40//40 102//102
f 58//58 55//55 65//65
f 55//55 57//57 62//62
f 57//57 56//56 61//61
f 48//48 52//52 59//59
f 55//55 58//58 54//54
f 55//55 62//62 67//67
f 60//60 58//58 65//65
f 64//64 63//63 59//59
f 62//62 57//57 61//61
f 105//105 61//61 46//46
f 52//52 60//60 65//65
f 62//62 61//61 68//68
f 62//62 68//68 67//67
f 59//59 52//52 65//65
f 65//65 67//67 66//66
f 69//69 66//66 67//67
f 7//7 116//116 70//70
f 7//7 124//124 116//116
f 3//3 11//11 76//76
f 76//76 77//77 3//3
f 3//3 9//9 109//109
f 77//77 73//73 3//3
f 10//10 85//85 22//22
f 76//76 74//74 4//4
f 85//85 75//75 14//14
f 4//4 77//77 76//76
f 77//77 4//4 132//132
f 6//6 124//124 110//110
f 108//108 72//72 116//116
f 74//74 124//124 13//13
f 107//107 112//112 2//2
f 6//6 126//126 83//83
f 76//76 11//11 108//108
f 75//75 34//34 14//14
f 85//85 80//80 75//75
f 71//71 16//16 118//118
f 76//76 108//108 74//74
f 13//13 4//4 74//74
f 73//73 77//77 86//86
f 84//84 108//108 11//11
f 23//23 9//9 73//73
f 22//22 14//14 29//29
f 85//85 19//19 80//80
f 107//107 80//80 19//19
f 73//73 86//86 23//23
f 78//78 106//106 118//118
f 86//86 16//16 89//89
f 89//89 16//16 82//82
f 124//124 6//6 83//83
f 91//91 87//87 13//13
f 79//79 20//20 78//78
f 26//26 118//118 16//16
f 26//26 16//16 86//86
f 129//129 21//21 109//109
f 21//21 11//11 109//109
f 17//17 89//89 82//82
f 89//89 17//17 94//94
f 89//89 94//94 23//23
f 89//89 23//23 86//86
f 31//31 92//92 88//88
f 32//32 75//75 24//24
f 75//75 32//32 34//34
f 111//111 31//31 35//35
f 91//91 10//10 87//87
f 25//25 118//118 26//26
f 88//88 92//92 13//13
f 14//14 34//34 30//30
f 92//92 31//31 19//19
f 93//93 125//125 119//119
f 79//79 25//25 29//29
f 97//97 33//33 90//90
f 81//81 90//90 33//33
f 94//94 95//95 93//93
f 99//99 36//36 34//34
f 34//34 32//32 99//99
f 96//96 90//90 28//28
f 42//42 38//38 97//97
f 125//125 98//98 119//119
f 39//39 125//125 93//93
f 96//96 21//21 40//40
f 95//95 94//94 17//17
f 93//93 43//43 39//39
f 42//42 90//90 96//96
f 41//41 95//95 17//17
f 44//44 95//95 41//41
f 43//43 95//95 44//44
f 101//101 100//100 45//45
f 51//51 43//43 44//44
f 44//44 41//41 47//47
f 53//53 45//45 42//42
f 45//45 46//46 101//101
f 122//122 127//127 104//104
f 39//39 122//122 104//104
f 102//102 98//98 104//104
f 43//43 51//51 130//130
f 103//103 49//49 63//63
f 123//123 114//114 102//102
f 127//127 122//122 64//64
f 64//64 122//122 63//63
f 114//114 123//123 53//53
f 53//53 105//105 45//45
f 64//64 59//59 66//66
f 127//127 64//64 66//66
f 105//105 53//53 123//123
f 66//66 69//69 127//127
f 68//68 61//61 105//105
f 69//69 68//68 105//105
f 106//106 1//1 71//71
f 82//82 71//71 1//1
f 27//27 82//82 5//5
f 85//85 10//10 91//91
f 119//119 129//129 109//109
f 31//31 111//111 107//107
f 19//19 85//85 91//91
f 120//120 119//119 9//9
f 43//43 93//93 95//95
f 127//127 102//102 104//104
f 116//116 72//72 70//70
f 70//70 72//72 115//115
f 18//18 70//70 115//115
f 22//22 85//85 14//14
f 70//70 18//18 7//7
f 12//12 117//117 131//131
f 117//117 18//18 115//115
f 116//116 124//124 74//74
f 74//74 108//108 116//116
f 71//71 118//118 106//106
f 25//25 79//79 118//118
f 109//109 9//9 119//119
f 87//87 4//4 13//13
f 23//23 94//94 120//120
f 3//3 109//109 11//11
f 132//132 128//128 26//26
f 23//23 120//120 9//9
f 119//119 120//120 93//93
f 79//79 121//121 20//20
f 127//127 123//123 102//102
f 123//123 69//69 105//105
f 127//127 69//69 123//123
f 73//73 9//9 3//3
f 28//28 90//90 131//131
f 35//35 31//31 83//83
f 21//21 96//96 28//28
f 21//21 129//129 40//40
f 46//46 45//45 105//105
f 78//78 118//118 79//79
f 28//28 84//84 21//21
f 81//81 131//131 90//90
f 88//88 13//13 124//124
f 84//84 11//11 21//21
f 104//104 125//125 39//39
f 68//68 69//69 67//67
f 132//132 86//86 77//77
f 83//83 88//88 124//124
f 120//120 94//94 93//93
f 114//114 42//42 96//96
f 63//63 49//49 59//59
f 63//63 50//50 103//103
f 114//114 96//96 40//40
f 88//88 83//83 31//31
f 59//59 65//65 66//66
f 22//22 128//128 10//10
f 34//34 36//36 30//30
f 87//87 128//128 132//132
f 128//128 87//87 10//10
f 84//84 131//131 72//72
f 125//125 104//104 98//98
f 72//72 108//108 84//84
f 28//28 131//131 84//84
f 65//65 55//55 67//67
f 39//39 43//43 130//130
f 115//115 131//131 117//117
f 130//130 113//113 50//50
f 130//130 50//50 63//63
f 131//131 115//115 72//72
f 42//42 45//45 100//100
f 122//122 39//39 130//130
f 122//122 130//130 63//63
f 132//132 26//26 86//86
f 29//29 25//25 128//128
f 26//26 128//128 25//25
f 87//87 132//132 4//4
# 212 faces, 0 coords texture

# End of File
